<REAPER_PROJECT 0.1 "7.33/macOS-arm64" 1740064854
  <NOTES 0 2
  >
  RIPPLE 0
  GROUPOVERRIDE 0 0 0
  AUTOXFADE 129
  ENVATTACH 3
  POOLEDENVATTACH 0
  MIXERUIFLAGS 11 48
  ENVFADESZ10 40
  PEAKGAIN 1
  FEEDBACK 0
  PANLAW 1
  PROJOFFS 0 0 0
  MAXPROJLEN 0 0
  GRID 3199 8 1 8 1 0 0 0
  TIMEMODE 1 5 -1 30 0 0 -1
  VIDEO_CONFIG 0 0 65792
  PANMODE 3
  PANLAWFLAGS 3
  CURSOR 0
  ZOOM 1.50949382549704 0 0
  VZOOMEX 6 0
  USE_REC_CFG 0
  RECMODE 1
  SMPTESYNC 0 30 100 40 1000 300 0 0 1 0 0
  LOOP 0
  LOOPGRAN 0 4
  RECORD_PATH "Media" ""
  <RECORD_CFG
    ZXZhdxgAAQ==
  >
  <APPLYFX_CFG
  >
  RENDER_FILE ""
  RENDER_PATTERN ""
  RENDER_FMT 0 2 0
  RENDER_1X 0
  RENDER_RANGE 1 0 0 18 1000
  RENDER_RESAMPLE 3 0 1
  RENDER_ADDTOPROJ 0
  RENDER_STEMS 0
  RENDER_DITHER 0
  TIMELOCKMODE 1
  TEMPOENVLOCKMODE 1
  ITEMMIX 1
  DEFPITCHMODE 589824 0
  TAKELANE 1
  SAMPLERATE 44100 0 0
  <RENDER_CFG
    ZXZhdxgAAQ==
  >
  LOCK 1
  <METRONOME 6 2
    VOL 0.25 0.125
    BEATLEN 4
    FREQ 1760 880 1
    SAMPLES "" "" "" ""
    SPLIGNORE 0 0
    SPLDEF 2 660 "" 0 ""
    SPLDEF 3 440 "" 0 ""
    PATTERN 0 169
    PATTERNSTR ABBB
    MULT 1
  >
  GLOBAL_AUTO -1
  TEMPO 120 4 4 0
  PLAYRATE 1 0 0.25 4
  SELECTION 5.5 5.5
  SELECTION2 5.5 5.5
  MASTERAUTOMODE 0
  MASTERTRACKHEIGHT 0 0
  MASTERPEAKCOL 16576
  MASTERMUTESOLO 0
  MASTERTRACKVIEW 0 0.6667 0.5 0.5 0 0 0 0 0 0 0 0 0 0
  MASTERHWOUT 0 0 1 0 0 0 0 -1
  MASTER_NCH 2 2
  MASTER_VOLUME 1.48015541418744 0 -1 -1 1
  MASTER_PANMODE 3
  MASTER_PANLAWFLAGS 3
  MASTER_FX 1
  MASTER_SEL 0
  <MASTERFXLIST
    WNDRECT 32 548 815 263
    SHOW 0
    LASTSEL 0
    DOCKED 0
    BYPASS 0 0 0
    <AU "AU: AUReverb2 (Apple)" "Apple: AUReverb2" "" 1635083896 1920361010 1634758764
      6QMAAAAAAAACAAAAAQAAAAAAAAACAAAAAAAAAAIAAAABAAAAAAAAAAIAAAAAAAAALwIAADw/eG1sIHZlcnNpb249IjEuMCIgZW5jb2Rpbmc9IlVURi04Ij8+CjwhRE9D
      VFlQRSBwbGlzdCBQVUJMSUMgIi0vL0FwcGxlLy9EVEQgUExJU1QgMS4wLy9FTiIgImh0dHA6Ly93d3cuYXBwbGUuY29tL0RURHMvUHJvcGVydHlMaXN0LTEuMC5kdGQi
      Pgo8cGxpc3QgdmVyc2lvbj0iMS4wIj4KPGRpY3Q+Cgk8a2V5PmRhdGE8L2tleT4KCTxkYXRhPgoJQUFBQUFBQUFBQUFBQUFBSEFBQUFBRUpOTXpRQUFBQUJQNEFBQUFB
      QUFBSThBeEp2QUFBQUF6NzlkMElBQUFBRVA0QUEKCUFBQUFBQVUvQUFBQUFBQUFCa080VU9VPQoJPC9kYXRhPgoJPGtleT5tYW51ZmFjdHVyZXI8L2tleT4KCTxpbnRl
      Z2VyPjE2MzQ3NTg3NjQ8L2ludGVnZXI+Cgk8a2V5Pm5hbWU8L2tleT4KCTxzdHJpbmc+VW50aXRsZWQ8L3N0cmluZz4KCTxrZXk+c3VidHlwZTwva2V5PgoJPGludGVn
      ZXI+MTkyMDM2MTAxMDwvaW50ZWdlcj4KCTxrZXk+dHlwZTwva2V5PgoJPGludGVnZXI+MTYzNTA4Mzg5NjwvaW50ZWdlcj4KCTxrZXk+dmVyc2lvbjwva2V5PgoJPGlu
      dGVnZXI+MDwvaW50ZWdlcj4KPC9kaWN0Pgo8L3BsaXN0PgoBAAAAAAAAAAAA
    >
    FLOATPOS 0 0 0 0
    FXID {2E4235C9-4011-7540-9681-3227452B4A72}
    WAK 0 0
  >
  <MASTERPLAYSPEEDENV
    EGUID {62061924-2D06-CA41-B745-01B95C42C262}
    ACT 0 -1
    VIS 0 1 1
    LANEHEIGHT 0 0
    ARM 0
    DEFSHAPE 0 -1 -1
  >
  <TEMPOENVEX
    EGUID {A8FBE181-5174-A549-BE0D-A3409F4C84EC}
    ACT 0 -1
    VIS 1 0 1
    LANEHEIGHT 0 0
    ARM 0
    DEFSHAPE 1 -1 -1
  >
  <PROJBAY
  >
  <TRACK {58856C49-DCFE-B24A-85A4-61A95C2CD20B}
    NAME "Generated score"
    PEAKCOL 16576
    BEAT -1
    AUTOMODE 0
    PANLAWFLAGS 3
    VOLPAN 1.82452995868445 0 -1 -1 1
    MUTESOLO 0 0 0
    IPHASE 0
    PLAYOFFS 0 1
    ISBUS 0 0
    BUSCOMP 0 0 0 0 0
    SHOWINMIX 1 0.6667 0.5 1 0.5 0 0 0
    FIXEDLANES 9 0 0 0 0
    SEL 1
    REC 1 5088 1 0 0 0 0 0
    VU 2
    TRACKHEIGHT 0 0 0 0 0 0 0
    INQ 0 0 0 0.5 100 0 0 100
    NCHAN 2
    FX 1
    TRACKID {58856C49-DCFE-B24A-85A4-61A95C2CD20B}
    PERF 0
    MIDIOUT -1
    MAINSEND 1 0
    <FXCHAIN
      WNDRECT 0 121 807 690
      SHOW 0
      LASTSEL 0
      DOCKED 0
    >
    <ITEM
      POSITION 0
      SNAPOFFS 0
      LENGTH 720
      LOOP 1
      ALLTAKES 0
      FADEIN 1 0 0 1 0 0 0
      FADEOUT 1 0 0 1 0 0 0
      MUTE 0 0
      SEL 0
      IGUID {E6589A99-9B3B-F942-81E7-486D3BBFE75B}
      IID 8
      NAME ""
      VOLPAN 1 0 1 -1
      SOFFS 0 0
      PLAYRATE 1 1 0 -1 0 0.0025
      CHANMODE 0
      GUID {D2A5C5DE-CDC3-DC4E-9A66-582B1D226C33}
      <SOURCE MIDI
        HASDATA 1 960 QN
        CCINTERP 32
        POOLEDEVTS {75E702E1-B781-FD45-B2AF-2395E5749C11}
        E 0 90 58 57
        E 0 90 58 57
        E 0 90 5d 57
        E 0 97 4a 57
        E 343 90 4a 57
        E 0 90 59 57
        E 0 90 29 57
        E 0 90 29 57
        E 0 90 59 57
        E 343 80 58 00
        E 0 80 58 00
        E 0 80 5d 00
        E 0 87 4a 00
        E 0 90 45 57
        E 0 90 51 57
        E 0 90 2d 57
        E 0 90 4d 58
        E 0 90 3c 57
        E 0 91 5d 57
        E 343 80 4a 00
        E 0 80 59 00
        E 0 80 29 00
        E 0 80 29 00
        E 0 80 59 00
        E 0 90 29 57
        E 0 90 2d 57
        E 0 90 4a 56
        E 0 90 54 57
        E 0 91 51 56
        E 0 91 51 57
        E 343 80 45 00
        E 0 80 51 00
        E 0 80 2d 00
        E 0 80 4d 00
        E 0 80 3c 00
        E 0 81 5d 00
        E 0 90 4a 57
        E 0 90 26 57
        E 0 90 39 56
        E 0 90 39 57
        E 0 90 34 56
        E 0 90 41 57
        E 0 90 41 57
        E 343 80 29 00
        E 0 80 2d 00
        E 0 80 4a 00
        E 0 80 54 00
        E 0 81 51 00
        E 0 81 51 00
        E 0 90 39 56
        E 0 90 2d 57
        E 0 90 4a 57
        E 0 90 29 56
        E 343 80 4a 00
        E 0 80 26 00
        E 0 80 39 00
        E 0 80 39 00
        E 0 80 34 00
        E 0 80 41 00
        E 0 80 41 00
        E 0 90 39 57
        E 343 80 39 00
        E 0 80 2d 00
        E 0 80 4a 00
        E 0 80 29 00
        E 0 90 39 56
        E 0 90 2d 57
        E 0 90 3c 56
        E 343 80 39 00
        E 343 80 39 00
        E 0 80 2d 00
        E 0 80 3c 00
        E 0 90 2d 56
        E 0 91 51 56
        E 343 90 2d 56
        E 0 91 51 56
        E 343 80 2d 00
        E 0 81 51 00
        E 0 90 59 56
        E 343 80 2d 00
        E 0 81 51 00
        E 0 90 39 56
        E 0 90 3e 57
        E 343 80 59 00
        E 0 90 2d 56
        E 0 90 2d 57
        E 0 90 39 57
        E 0 91 39 56
        E 343 80 39 00
        E 0 80 3e 00
        E 0 90 35 56
        E 343 80 2d 00
        E 0 80 2d 00
        E 0 80 39 00
        E 0 81 39 00
        E 0 90 29 56
        E 0 90 59 55
        E 343 80 35 00
        E 0 90 2d 55
        E 0 90 39 56
        E 0 90 5d 56
        E 0 91 28 55
        E 343 80 29 00
        E 0 80 59 00
        E 0 90 5d 55
        E 0 90 5d 57
        E 0 90 39 56
        E 0 90 3c 56
        E 0 90 40 56
        E 0 90 40 56
        E 343 80 2d 00
        E 0 80 39 00
        E 0 80 5d 00
        E 0 81 28 00
        E 0 90 39 57
        E 0 90 39 57
        E 0 90 39 56
        E 0 90 39 57
        E 0 90 5d 56
        E 0 91 5d 56
        E 343 80 5d 00
        E 0 80 5d 00
        E 0 80 39 00
        E 0 80 3c 00
        E 0 80 40 00
        E 0 80 40 00
        E 0 90 2d 57
        E 0 90 2d 57
        E 0 90 4a 57
        E 0 90 54 57
        E 343 80 39 00
        E 0 80 39 00
        E 0 80 39 00
        E 0 80 39 00
        E 0 80 5d 00
        E 0 81 5d 00
        E 0 90 39 56
        E 0 90 39 57
        E 0 90 39 56
        E 343 80 2d 00
        E 0 80 2d 00
        E 0 80 4a 00
        E 0 80 54 00
        E 0 90 45 56
        E 0 90 29 57
        E 0 90 30 56
        E 0 91 45 56
        E 343 80 39 00
        E 0 80 39 00
        E 0 80 39 00
        E 0 90 26 56
        E 343 80 45 00
        E 0 80 29 00
        E 0 80 30 00
        E 0 81 45 00
        E 0 90 2d 56
        E 0 90 54 56
        E 343 80 26 00
        E 0 90 29 56
        E 0 90 3c 56
        E 0 90 24 56
        E 0 90 35 56
        E 343 80 2d 00
        E 0 80 54 00
        E 0 90 29 55
        E 0 90 39 56
        E 0 90 29 56
        E 0 90 35 55
        E 343 80 29 00
        E 0 80 3c 00
        E 0 80 24 00
        E 0 80 35 00
        E 0 90 2d 57
        E 0 90 35 57
        E 0 90 39 57
        E 0 90 3c 57
        E 0 90 34 56
        E 343 80 29 00
        E 0 80 39 00
        E 0 80 29 00
        E 0 80 35 00
        E 0 90 51 56
        E 0 90 2d 56
        E 0 90 2d 56
        E 0 91 30 56
        E 343 80 2d 00
        E 0 80 35 00
        E 0 80 39 00
        E 0 80 3c 00
        E 0 80 34 00
        E 0 90 39 56
        E 0 90 45 56
        E 343 80 51 00
        E 0 80 2d 00
        E 0 80 2d 00
        E 0 81 30 00
        E 0 90 40 56
        E 0 90 40 56
        E 0 90 40 57
        E 0 91 4d 57
        E 343 80 39 00
        E 0 80 45 00
        E 0 90 2d 57
        E 0 90 2d 57
        E 0 90 39 56
        E 0 91 4a 57
        E 0 91 51 57
        E 343 80 40 00
        E 0 80 40 00
        E 0 80 40 00
        E 0 81 4d 00
        E 0 90 2d 56
        E 0 90 26 57
        E 0 90 51 56
        E 0 90 59 57
        E 0 91 51 57
        E 343 80 2d 00
        E 0 80 2d 00
        E 0 80 39 00
        E 0 81 4a 00
        E 0 81 51 00
        E 0 90 45 57
        E 0 90 5d 57
        E 0 90 5d 57
        E 0 91 4a 56
        E 0 91 4a 57
        E 343 80 2d 00
        E 0 80 26 00
        E 0 80 51 00
        E 0 80 59 00
        E 0 81 51 00
        E 0 90 2d 56
        E 0 90 29 57
        E 0 90 29 57
        E 0 90 40 56
        E 0 91 4a 57
        E 343 80 45 00
        E 0 80 5d 00
        E 0 80 5d 00
        E 0 81 4a 00
        E 0 81 4a 00
        E 0 90 2d 58
        E 0 90 41 57
        E 0 90 39 57
        E 0 91 48 58
        E 0 91 4a 58
        E 0 91 4c 57
        E 343 80 2d 00
        E 0 80 29 00
        E 0 80 29 00
        E 0 80 40 00
        E 0 81 4a 00
        E 0 90 35 57
        E 0 90 39 56
        E 0 91 39 58
        E 0 91 39 57
        E 343 80 2d 00
        E 0 80 41 00
        E 0 80 39 00
        E 0 81 48 00
        E 0 81 4a 00
        E 0 81 4c 00
        E 0 90 41 56
        E 0 90 5d 57
        E 344 80 35 00
        E 0 80 39 00
        E 0 81 39 00
        E 0 81 39 00
        E 0 90 51 57
        E 0 90 5d 55
        E 0 91 29 56
        E 343 80 41 00
        E 0 80 5d 00
        E 0 90 4c 56
        E 0 90 4c 56
        E 343 80 51 00
        E 0 80 5d 00
        E 0 81 29 00
        E 0 90 34 57
        E 0 91 4c 56
        E 0 97 26 56
        E 343 80 4c 00
        E 0 80 4c 00
        E 0 90 2d 57
        E 0 90 35 56
        E 343 80 34 00
        E 0 81 4c 00
        E 0 87 26 00
        E 0 90 2d 57
        E 0 90 41 56
        E 343 80 2d 00
        E 0 80 35 00
        E 0 90 2d 57
        E 0 90 4a 57
        E 0 90 5d 56
        E 0 90 30 57
        E 0 90 4d 57
        E 343 80 2d 00
        E 0 80 41 00
        E 0 90 45 56
        E 0 90 2d 56
        E 0 90 5d 56
        E 0 90 5d 57
        E 0 91 4d 57
        E 343 80 2d 00
        E 0 80 4a 00
        E 0 80 5d 00
        E 0 80 30 00
        E 0 80 4d 00
        E 0 90 58 56
        E 0 90 35 57
        E 0 90 41 57
        E 0 90 45 57
        E 0 90 5d 56
        E 343 80 45 00
        E 0 80 2d 00
        E 0 80 5d 00
        E 0 80 5d 00
        E 0 81 4d 00
        E 0 90 45 57
        E 0 90 2d 56
        E 0 90 5d 56
        E 0 90 56 56
        E 0 91 59 56
        E 343 80 58 00
        E 0 80 35 00
        E 0 80 41 00
        E 0 80 45 00
        E 0 80 5d 00
        E 0 90 2d 56
        E 0 90 51 57
        E 0 90 59 56
        E 343 80 45 00
        E 0 80 2d 00
        E 0 80 5d 00
        E 0 80 56 00
        E 0 81 59 00
        E 0 90 45 56
        E 0 90 59 56
        E 0 90 5d 56
        E 343 80 2d 00
        E 0 80 51 00
        E 0 80 59 00
        E 0 90 35 56
        E 0 90 39 55
        E 0 90 3c 56
        E 0 91 51 56
        E 343 80 45 00
        E 0 80 5d 00
        E 0 90 45 56
        E 0 90 40 56
        E 0 90 5d 56
        E 343 80 35 00
        E 0 80 39 00
        E 0 80 3c 00
        E 0 81 51 00
        E 0 90 28 56
        E 0 90 2d 56
        E 343 80 59 00
        E 0 80 45 00
        E 0 80 40 00
        E 0 80 5d 00
        E 0 90 34 56
        E 0 90 34 56
        E 0 90 4d 56
        E 0 90 40 56
        E 0 90 4d 57
        E 343 80 28 00
        E 0 80 2d 00
        E 0 90 30 56
        E 0 90 4d 56
        E 0 90 51 56
        E 0 91 41 56
        E 343 80 34 00
        E 0 80 34 00
        E 0 80 4d 00
        E 0 80 40 00
        E 0 80 4d 00
        E 0 90 40 56
        E 0 90 4d 56
        E 0 91 2d 56
        E 0 91 45 55
        E 343 80 30 00
        E 0 80 4d 00
        E 0 80 51 00
        E 0 81 41 00
        E 0 90 2d 56
        E 0 90 34 56
        E 0 90 41 55
        E 343 80 40 00
        E 0 80 4d 00
        E 0 81 2d 00
        E 0 81 45 00
        E 0 90 30 57
        E 0 90 45 55
        E 0 90 30 56
        E 0 90 30 56
        E 0 90 48 56
        E 0 90 51 56
        E 0 91 51 56
        E 343 80 2d 00
        E 0 80 34 00
        E 0 80 41 00
        E 0 90 45 56
        E 0 91 45 55
        E 0 91 45 57
        E 0 91 4d 56
        E 343 80 30 00
        E 0 80 45 00
        E 0 80 30 00
        E 0 80 30 00
        E 0 80 48 00
        E 0 80 51 00
        E 0 81 51 00
        E 0 90 40 56
        E 0 90 30 56
        E 0 90 39 56
        E 0 91 3c 56
        E 0 91 51 56
        E 343 80 45 00
        E 0 81 45 00
        E 0 81 45 00
        E 0 81 4d 00
        E 0 90 51 56
        E 0 90 3e 56
        E 0 91 4d 56
        E 343 80 40 00
        E 0 80 30 00
        E 0 80 39 00
        E 0 81 3c 00
        E 0 81 51 00
        E 0 90 40 55
        E 0 91 3c 54
        E 0 91 3c 55
        E 343 80 51 00
        E 0 80 3e 00
        E 0 90 2d 55
        E 343 80 40 00
        E 0 81 3c 00
        E 0 81 3c 00
        E 0 90 5d 55
        E 0 91 5d 55
        E 343 81 4d 00
        E 0 80 2d 00
        E 0 90 51 56
        E 0 90 51 56
        E 0 91 2d 56
        E 0 91 2d 55
        E 343 80 5d 00
        E 0 81 5d 00
        E 0 90 26 56
        E 0 90 29 56
        E 0 90 29 56
        E 0 90 40 55
        E 0 90 30 56
        E 0 90 30 56
        E 0 90 3e 55
        E 343 80 51 00
        E 0 80 51 00
        E 0 81 2d 00
        E 0 81 2d 00
        E 0 90 51 55
        E 0 91 51 55
        E 343 80 26 00
        E 0 80 29 00
        E 0 80 29 00
        E 0 80 40 00
        E 0 80 30 00
        E 0 80 30 00
        E 0 80 3e 00
        E 0 90 39 56
        E 0 90 2d 56
        E 343 80 51 00
        E 0 81 51 00
        E 0 90 51 56
        E 343 80 39 00
        E 0 80 2d 00
        E 0 90 39 56
        E 0 90 40 56
        E 0 90 45 55
        E 0 90 2d 56
        E 0 90 39 56
        E 343 80 51 00
        E 0 90 34 56
        E 0 90 4d 56
        E 0 90 39 56
        E 343 80 39 00
        E 0 80 40 00
        E 0 80 45 00
        E 0 80 2d 00
        E 0 80 39 00
        E 0 90 45 56
        E 0 90 40 56
        E 0 90 4d 56
        E 0 91 59 56
        E 343 80 34 00
        E 0 80 4d 00
        E 0 80 39 00
        E 0 90 56 56
        E 0 90 56 57
        E 343 80 45 00
        E 0 80 40 00
        E 0 80 4d 00
        E 0 81 59 00
        E 343 80 56 00
        E 0 80 56 00
        E 0 90 34 57
        E 0 90 3c 57
        E 0 90 39 56
        E 343 90 39 56
        E 0 90 41 56
        E 0 90 45 56
        E 344 80 34 00
        E 0 80 3c 00
        E 0 80 39 00
        E 0 90 39 56
        E 0 90 41 55
        E 0 90 41 55
        E 343 80 39 00
        E 0 80 41 00
        E 0 80 45 00
        E 0 90 35 56
        E 0 90 45 56
        E 0 90 3e 56
        E 0 90 3e 56
        E 0 90 58 56
        E 0 97 29 56
        E 343 80 39 00
        E 0 80 41 00
        E 0 80 41 00
        E 0 90 4d 56
        E 343 80 35 00
        E 0 80 45 00
        E 0 80 3e 00
        E 0 80 3e 00
        E 0 80 58 00
        E 0 87 29 00
        E 0 90 39 56
        E 0 90 51 56
        E 0 91 59 56
        E 343 80 4d 00
        E 0 90 51 56
        E 0 91 51 56
        E 0 91 51 56
        E 0 91 58 57
        E 343 80 39 00
        E 0 81 59 00
        E 0 90 40 57
        E 0 90 35 56
        E 0 91 4a 56
        E 343 80 51 00
        E 0 81 51 00
        E 0 81 51 00
        E 0 81 58 00
        E 0 91 4a 56
        E 0 91 51 55
        E 343 80 51 00
        E 0 80 40 00
        E 0 80 35 00
        E 0 81 4a 00
        E 0 90 3c 56
        E 343 81 4a 00
        E 0 90 51 57
        E 0 91 58 56
        E 343 80 3c 00
        E 0 90 54 56
        E 0 91 4c 57
        E 0 91 4d 56
        E 0 91 51 57
        E 343 81 51 00
        E 0 80 51 00
        E 0 81 58 00
        E 0 91 45 56
        E 0 91 4c 55
        E 0 91 4c 56
        E 343 80 54 00
        E 0 81 4c 00
        E 0 81 4d 00
        E 0 81 51 00
        E 0 90 35 56
        E 0 90 5d 57
        E 0 90 5d 57
        E 0 90 35 57
        E 0 91 4c 56
        E 343 81 45 00
        E 0 81 4c 00
        E 0 81 4c 00
        E 0 90 5d 56
        E 0 90 5d 57
        E 0 90 45 56
        E 0 90 5d 56
        E 0 90 45 57
        E 343 80 35 00
        E 0 80 5d 00
        E 0 80 5d 00
        E 0 80 35 00
        E 0 81 4c 00
        E 0 90 35 57
        E 0 90 56 57
        E 0 91 4d 57
        E 343 80 5d 00
        E 0 80 5d 00
        E 0 80 45 00
        E 0 80 5d 00
        E 0 80 45 00
        E 0 90 26 57
        E 0 90 51 56
        E 343 80 35 00
        E 0 80 56 00
        E 0 81 4d 00
        E 0 91 4a 56
        E 343 80 26 00
        E 0 80 51 00
        E 0 91 51 56
        E 343 81 4a 00
        E 0 90 4a 56
        E 0 90 4a 57
        E 0 90 4d 56
        E 0 91 51 56
        E 343 81 51 00
        E 0 90 4a 56
        E 0 90 45 56
        E 0 90 51 56
        E 343 80 4a 00
        E 0 80 4a 00
        E 0 80 4d 00
        E 0 81 51 00
        E 0 90 35 56
        E 343 80 4a 00
        E 0 80 45 00
        E 0 80 51 00
        E 0 91 51 55
        E 0 91 51 56
        E 0 91 59 56
        E 343 80 35 00
        E 0 90 51 56
        E 0 90 35 56
        E 0 91 51 56
        E 0 91 51 56
        E 343 81 51 00
        E 0 81 51 00
        E 0 81 59 00
        E 0 90 35 56
        E 0 90 35 56
        E 0 90 35 56
        E 0 90 29 57
        E 343 80 51 00
        E 0 80 35 00
        E 0 81 51 00
        E 0 81 51 00
        E 0 90 39 56
        E 0 90 51 56
        E 343 80 35 00
        E 0 80 35 00
        E 0 80 35 00
        E 0 80 29 00
        E 343 80 39 00
        E 0 80 51 00
        E 343 90 29 56
        E 343 90 39 56
        E 0 90 26 56
        E 0 90 59 56
        E 0 91 45 56
        E 343 80 29 00
        E 0 90 39 56
        E 0 90 4a 56
        E 343 80 39 00
        E 0 80 26 00
        E 0 80 59 00
        E 0 81 45 00
        E 0 90 29 55
        E 0 90 45 55
        E 0 90 58 55
        E 343 80 39 00
        E 0 80 4a 00
        E 0 90 39 55
        E 0 91 58 55
        E 343 80 29 00
        E 0 80 45 00
        E 0 80 58 00
        E 0 90 45 55
        E 0 90 48 54
        E 0 90 48 56
        E 0 90 51 55
        E 343 80 39 00
        E 0 81 58 00
        E 0 90 5d 56
        E 0 90 4d 56
        E 0 90 5d 56
        E 0 91 51 56
        E 0 91 51 55
        E 343 80 45 00
        E 0 80 48 00
        E 0 80 48 00
        E 0 80 51 00
        E 0 90 39 56
        E 0 90 4a 56
        E 0 90 29 56
        E 0 90 51 56
        E 343 80 5d 00
        E 0 80 4d 00
        E 0 80 5d 00
        E 0 81 51 00
        E 0 81 51 00
        E 0 90 51 57
        E 0 91 39 57
        E 0 91 59 57
        E 343 80 39 00
        E 0 80 4a 00
        E 0 80 29 00
        E 0 80 51 00
        E 0 90 2d 55
        E 0 90 4a 55
        E 0 90 4d 56
        E 0 91 56 55
        E 344 80 51 00
        E 0 81 39 00
        E 0 81 59 00
        E 0 91 4c 55
        E 343 80 2d 00
        E 0 80 4a 00
        E 0 80 4d 00
        E 0 81 56 00
        E 0 90 3e 56
        E 0 91 59 56
        E 343 81 4c 00
        E 0 90 4d 55
        E 0 91 4a 56
        E 0 91 4c 55
        E 343 80 3e 00
        E 0 81 59 00
        E 0 90 29 55
        E 0 90 34 55
        E 0 90 4d 56
        E 0 91 4a 56
        E 0 91 51 56
        E 343 80 4d 00
        E 0 81 4a 00
        E 0 81 4c 00
        E 0 90 41 57
        E 0 90 56 56
        E 0 91 59 56
        E 343 80 29 00
        E 0 80 34 00
        E 0 80 4d 00
        E 0 81 4a 00
        E 0 81 51 00
        E 0 90 45 56
        E 0 90 40 56
        E 0 90 5d 56
        E 0 90 32 55
        E 0 91 56 56
        E 0 91 59 56
        E 0 91 51 55
        E 343 80 41 00
        E 0 80 56 00
        E 0 81 59 00
        E 0 90 3e 55
        E 0 90 45 56
        E 0 90 45 56
        E 0 90 29 57
        E 0 90 39 57
        E 0 90 45 57
        E 0 90 45 57
        E 343 80 45 00
        E 0 80 5d 00
        E 0 80 32 00
        E 0 81 56 00
        E 0 81 59 00
        E 0 81 51 00
        E 0 90 41 56
        E 0 90 29 57
        E 343 80 3e 00
        E 0 80 45 00
        E 0 80 45 00
        E 0 80 29 00
        E 0 80 39 00
        E 0 80 45 00
        E 0 80 45 00
        E 0 90 41 57
        E 0 90 4c 57
        E 343 80 40 00
        E 0 80 41 00
        E 0 80 29 00
        E 0 90 29 56
        E 0 90 39 55
        E 0 90 5d 57
        E 0 90 29 57
        E 0 90 45 56
        E 0 90 45 56
        E 0 90 41 55
        E 0 91 4d 57
        E 343 80 41 00
        E 0 80 4c 00
        E 0 90 5d 57
        E 0 91 4d 57
        E 0 91 4c 57
        E 343 80 29 00
        E 0 80 39 00
        E 0 80 5d 00
        E 0 80 29 00
        E 0 80 45 00
        E 0 80 45 00
        E 0 80 41 00
        E 0 81 4d 00
        E 0 90 3e 56
        E 0 90 39 56
        E 0 90 45 55
        E 0 90 45 57
        E 0 91 58 57
        E 343 80 5d 00
        E 0 81 4d 00
        E 0 81 4c 00
        E 0 90 3e 57
        E 0 90 45 56
        E 0 90 45 57
        E 0 90 45 57
        E 0 91 56 57
        E 343 80 3e 00
        E 0 80 39 00
        E 0 80 45 00
        E 0 80 45 00
        E 0 81 58 00
        E 0 90 2d 57
        E 0 90 3e 56
        E 0 90 45 56
        E 0 90 45 57
        E 0 90 45 56
        E 0 90 59 56
        E 343 80 3e 00
        E 0 80 45 00
        E 0 80 45 00
        E 0 80 45 00
        E 0 81 56 00
        E 0 90 2d 57
        E 0 90 45 57
        E 0 90 39 56
        E 0 90 40 57
        E 343 80 2d 00
        E 0 80 3e 00
        E 0 80 45 00
        E 0 80 45 00
        E 0 80 45 00
        E 0 80 59 00
        E 0 90 59 56
        E 0 90 5d 56
        E 0 90 5d 56
        E 0 90 39 56
        E 0 91 51 56
        E 343 80 2d 00
        E 0 80 45 00
        E 0 80 39 00
        E 0 80 40 00
        E 0 90 29 56
        E 0 90 40 56
        E 0 90 40 56
        E 0 90 40 56
        E 0 90 59 56
        E 0 91 59 56
        E 343 80 59 00
        E 0 80 5d 00
        E 0 80 5d 00
        E 0 80 39 00
        E 0 81 51 00
        E 0 90 2d 56
        E 0 90 59 56
        E 0 91 56 56
        E 0 91 56 56
        E 343 80 29 00
        E 0 80 40 00
        E 0 80 40 00
        E 0 80 40 00
        E 0 80 59 00
        E 0 81 59 00
        E 0 90 29 56
        E 0 90 45 56
        E 0 90 29 57
        E 0 90 51 56
        E 343 80 2d 00
        E 0 80 59 00
        E 0 81 56 00
        E 0 81 56 00
        E 0 90 3e 57
        E 0 91 45 56
        E 0 91 4c 57
        E 0 91 59 56
        E 343 80 29 00
        E 0 80 45 00
        E 0 80 29 00
        E 0 80 51 00
        E 0 91 45 56
        E 0 91 59 56
        E 343 81 45 00
        E 0 81 4c 00
        E 0 81 59 00
        E 0 90 3e 54
        E 0 91 45 57
        E 0 91 56 57
        E 343 81 45 00
        E 0 81 59 00
        E 0 90 45 57
        E 0 90 28 57
        E 0 90 45 57
        E 0 91 48 57
        E 0 91 56 57
        E 343 80 3e 00
        E 0 80 3e 00
        E 0 81 45 00
        E 0 81 56 00
        E 0 90 35 57
        E 0 90 30 55
        E 0 90 30 57
        E 0 90 3c 57
        E 0 90 4a 57
        E 0 90 59 57
        E 343 80 45 00
        E 0 80 28 00
        E 0 80 45 00
        E 0 81 48 00
        E 0 81 56 00
        E 0 90 2d 56
        E 0 90 2d 56
        E 0 90 2d 57
        E 343 80 35 00
        E 0 80 30 00
        E 0 80 30 00
        E 0 80 3c 00
        E 0 80 4a 00
        E 0 80 59 00
        E 0 90 39 56
        E 0 90 39 57
        E 0 90 39 56
        E 343 80 2d 00
        E 0 80 2d 00
        E 0 80 2d 00
        E 0 90 45 56
        E 0 90 26 56
        E 0 90 4a 56
        E 0 90 4a 56
        E 343 80 39 00
        E 0 80 39 00
        E 0 80 39 00
        E 0 90 2d 57
        E 0 90 58 56
        E 0 90 26 56
        E 0 90 28 56
        E 0 90 28 57
        E 0 90 39 55
        E 0 91 51 56
        E 343 80 45 00
        E 0 80 26 00
        E 0 80 4a 00
        E 0 80 4a 00
        E 0 90 35 56
        E 0 90 45 56
        E 343 80 2d 00
        E 0 80 58 00
        E 0 80 26 00
        E 0 80 28 00
        E 0 80 28 00
        E 0 80 39 00
        E 0 81 51 00
        E 0 90 41 55
        E 0 90 45 56
        E 0 90 34 56
        E 0 91 48 56
        E 343 80 35 00
        E 0 80 45 00
        E 0 90 39 56
        E 0 90 35 55
        E 0 90 40 55
        E 0 90 45 56
        E 343 80 41 00
        E 0 80 45 00
        E 0 81 48 00
        E 0 90 3c 56
        E 0 90 40 55
        E 0 90 45 56
        E 0 90 3e 55
        E 0 91 59 55
        E 343 80 39 00
        E 0 80 35 00
        E 0 80 40 00
        E 0 80 45 00
        E 0 90 3e 56
        E 0 90 45 56
        E 0 90 45 56
        E 0 91 54 56
        E 343 80 34 00
        E 0 80 3c 00
        E 0 80 40 00
        E 0 80 45 00
        E 0 80 3e 00
        E 0 81 59 00
        E 0 90 26 56
        E 343 80 3e 00
        E 0 80 45 00
        E 0 80 45 00
        E 0 81 54 00
        E 0 90 28 56
        E 0 90 2d 56
        E 0 90 45 54
        E 0 90 56 56
        E 0 91 54 55
        E 343 80 26 00
        E 0 90 45 56
        E 0 90 5d 56
        E 0 90 30 56
        E 343 80 28 00
        E 0 80 2d 00
        E 0 80 45 00
        E 0 80 56 00
        E 0 81 54 00
        E 0 90 2d 56
        E 0 90 45 56
        E 344 80 45 00
        E 0 80 5d 00
        E 0 80 30 00
        E 0 90 39 57
        E 0 90 35 57
        E 0 90 45 55
        E 0 91 54 55
        E 343 80 2d 00
        E 0 80 45 00
        E 0 90 45 56
        E 0 91 39 57
        E 0 91 45 56
        E 343 80 39 00
        E 0 80 35 00
        E 0 80 45 00
        E 0 81 54 00
        E 0 90 3c 56
        E 0 90 45 57
        E 0 90 45 57
        E 0 90 56 56
        E 343 80 45 00
        E 0 81 39 00
        E 0 81 45 00
        E 0 90 2d 56
        E 0 90 5d 55
        E 0 90 2d 56
        E 0 90 48 55
        E 343 80 3c 00
        E 0 80 45 00
        E 0 80 45 00
        E 0 80 56 00
        E 0 90 2d 56
        E 0 90 2d 54
        E 343 80 2d 00
        E 0 80 5d 00
        E 0 80 2d 00
        E 0 80 48 00
        E 0 90 2d 56
        E 0 90 35 55
        E 0 90 35 56
        E 343 80 2d 00
        E 0 80 2d 00
        E 0 90 5d 56
        E 0 90 39 55
        E 343 80 2d 00
        E 0 80 35 00
        E 0 80 35 00
        E 0 90 35 56
        E 0 90 35 56
        E 0 90 45 55
        E 0 90 41 56
        E 343 80 5d 00
        E 0 80 39 00
        E 0 90 2d 56
        E 0 90 45 57
        E 0 90 59 57
        E 0 91 39 57
        E 0 91 45 57
        E 0 91 59 56
        E 343 80 35 00
        E 0 80 35 00
        E 0 80 45 00
        E 0 80 41 00
        E 0 90 2d 56
        E 0 90 45 55
        E 0 91 56 56
        E 0 91 56 56
        E 343 80 2d 00
        E 0 80 45 00
        E 0 80 59 00
        E 0 81 39 00
        E 0 81 45 00
        E 0 81 59 00
        E 0 90 4a 55
        E 0 90 30 56
        E 0 90 32 56
        E 0 91 41 56
        E 343 80 2d 00
        E 0 80 45 00
        E 0 81 56 00
        E 0 81 56 00
        E 0 90 39 56
        E 0 90 2d 56
        E 0 90 39 55
        E 0 90 32 55
        E 0 91 59 56
        E 343 80 4a 00
        E 0 80 30 00
        E 0 80 32 00
        E 0 81 41 00
        E 0 90 3e 55
        E 0 90 3e 55
        E 0 90 3e 56
        E 0 90 39 56
        E 0 90 39 56
        E 343 80 39 00
        E 0 80 39 00
        E 0 80 32 00
        E 0 81 59 00
        E 0 90 45 55
        E 0 90 45 56
        E 343 80 3e 00
        E 0 80 3e 00
        E 0 80 39 00
        E 0 80 39 00
        E 0 90 2d 56
        E 0 90 45 56
        E 343 80 2d 00
        E 0 80 45 00
        E 0 80 45 00
        E 0 90 34 56
        E 0 90 3e 57
        E 343 80 3e 00
        E 0 80 2d 00
        E 0 80 45 00
        E 0 90 48 56
        E 0 90 45 57
        E 0 90 45 57
        E 0 90 45 56
        E 0 90 5d 56
        E 343 80 34 00
        E 0 80 3e 00
        E 0 90 3e 55
        E 0 90 3e 57
        E 0 90 5d 56
        E 0 90 59 56
        E 0 91 59 56
        E 343 80 48 00
        E 0 80 45 00
        E 0 80 45 00
        E 0 80 45 00
        E 0 80 5d 00
        E 0 90 45 56
        E 0 90 5d 56
        E 343 80 3e 00
        E 0 80 3e 00
        E 0 80 5d 00
        E 0 80 59 00
        E 0 81 59 00
        E 0 90 48 55
        E 343 80 45 00
        E 0 80 5d 00
        E 0 90 45 56
        E 343 80 48 00
        E 0 90 56 56
        E 0 90 56 57
        E 0 90 34 57
        E 0 90 56 56
        E 0 91 4a 57
        E 343 80 45 00
        E 0 90 48 56
        E 0 90 48 57
        E 0 90 35 56
        E 0 90 3e 57
        E 0 90 56 57
        E 0 90 56 57
        E 0 90 29 57
        E 343 80 56 00
        E 0 80 56 00
        E 0 80 34 00
        E 0 80 56 00
        E 0 81 4a 00
        E 0 90 24 57
        E 0 90 39 57
        E 0 91 39 56
        E 343 80 48 00
        E 0 80 48 00
        E 0 80 35 00
        E 0 80 3e 00
        E 0 80 56 00
        E 0 80 56 00
        E 0 80 29 00
        E 0 90 29 57
        E 0 90 34 57
        E 0 90 56 56
        E 0 90 56 57
        E 343 80 24 00
        E 0 80 39 00
        E 0 81 39 00
        E 0 90 2d 57
        E 0 90 4a 56
        E 0 90 30 57
        E 0 90 30 57
        E 343 80 29 00
        E 0 80 34 00
        E 0 80 56 00
        E 0 80 56 00
        E 0 90 40 56
        E 0 90 39 56
        E 0 90 39 56
        E 0 90 45 57
        E 343 80 2d 00
        E 0 80 4a 00
        E 0 80 30 00
        E 0 80 30 00
        E 0 90 45 55
        E 0 90 26 56
        E 0 90 39 56
        E 0 91 54 55
        E 343 80 40 00
        E 0 80 39 00
        E 0 80 39 00
        E 0 80 45 00
        E 0 90 40 55
        E 343 80 45 00
        E 0 80 26 00
        E 0 80 39 00
        E 0 81 54 00
        E 0 90 59 55
        E 0 90 45 56
        E 343 80 40 00
        E 0 90 24 54
        E 0 90 24 56
        E 0 90 39 56
        E 0 90 56 56
        E 0 90 30 56
        E 343 80 59 00
        E 0 80 45 00
        E 0 90 2d 55
        E 0 90 56 56
        E 343 80 24 00
        E 0 80 24 00
        E 0 80 39 00
        E 0 80 56 00
        E 0 80 30 00
        E 0 90 45 54
        E 0 90 4a 55
        E 343 80 2d 00
        E 0 80 56 00
        E 0 90 35 55
        E 0 90 4a 55
        E 343 80 45 00
        E 0 80 4a 00
        E 0 90 5d 56
        E 0 90 4d 55
        E 0 90 4d 55
        E 0 90 5d 55
        E 0 90 5d 55
        E 343 80 35 00
        E 0 80 4a 00
        E 0 90 45 55
        E 0 90 45 56
        E 0 90 45 55
        E 0 90 4d 55
        E 0 90 45 56
        E 0 90 4a 54
        E 343 80 5d 00
        E 0 80 4d 00
        E 0 80 4d 00
        E 0 80 5d 00
        E 0 80 5d 00
        E 0 90 24 55
        E 0 90 28 55
        E 0 90 2d 55
        E 344 80 45 00
        E 0 80 45 00
        E 0 80 45 00
        E 0 80 4d 00
        E 0 80 45 00
        E 0 80 4a 00
        E 0 90 2d 55
        E 0 90 39 54
        E 0 90 39 55
        E 343 80 24 00
        E 0 80 28 00
        E 0 80 2d 00
        E 0 90 24 54
        E 343 80 2d 00
        E 0 80 39 00
        E 0 80 39 00
        E 0 90 2d 55
        E 0 90 45 54
        E 343 80 24 00
        E 0 90 45 54
        E 0 90 45 54
        E 0 90 2d 55
        E 0 91 56 54
        E 343 80 2d 00
        E 0 80 45 00
        E 0 90 2d 54
        E 0 90 2d 55
        E 0 90 24 55
        E 0 90 45 55
        E 0 90 45 55
        E 0 90 4c 55
        E 0 90 45 55
        E 0 90 45 55
        E 343 80 45 00
        E 0 80 45 00
        E 0 80 2d 00
        E 0 81 56 00
        E 0 90 45 55
        E 0 91 48 55
        E 343 80 2d 00
        E 0 80 2d 00
        E 0 80 24 00
        E 0 80 45 00
        E 0 80 45 00
        E 0 80 4c 00
        E 0 80 45 00
        E 0 80 45 00
        E 0 90 4c 56
        E 0 90 4d 54
        E 0 91 56 56
        E 343 80 45 00
        E 0 81 48 00
        E 0 90 51 56
        E 0 90 39 55
        E 0 90 41 55
        E 0 90 48 56
        E 0 90 51 54
        E 0 91 51 55
        E 343 80 4c 00
        E 0 80 4d 00
        E 0 81 56 00
        E 0 90 45 55
        E 0 90 39 55
        E 0 90 45 54
        E 0 90 45 55
        E 343 80 39 00
        E 0 80 41 00
        E 0 80 48 00
        E 0 80 51 00
        E 0 81 51 00
        E 0 90 24 54
        E 0 90 51 55
        E 0 91 51 55
        E 343 80 45 00
        E 0 80 39 00
        E 0 80 45 00
        E 0 80 45 00
        E 0 90 24 55
        E 0 90 26 54
        E 0 90 26 55
        E 343 80 51 00
        E 0 80 24 00
        E 0 80 51 00
        E 0 81 51 00
        E 0 90 3e 56
        E 0 90 45 55
        E 0 90 45 56
        E 0 90 56 56
        E 0 91 4d 56
        E 343 80 24 00
        E 0 80 26 00
        E 0 80 26 00
        E 0 90 2d 56
        E 0 90 39 56
        E 0 90 5d 55
        E 0 97 24 55
        E 343 80 3e 00
        E 0 80 45 00
        E 0 80 45 00
        E 0 80 56 00
        E 0 81 4d 00
        E 0 90 56 55
        E 0 90 4d 55
        E 0 90 39 56
        E 343 80 2d 00
        E 0 80 39 00
        E 0 80 5d 00
        E 0 87 24 00
        E 0 90 45 55
        E 0 90 56 55
        E 0 90 45 54
        E 343 80 56 00
        E 0 80 4d 00
        E 0 80 39 00
        E 0 90 3e 54
        E 0 90 45 53
        E 0 90 51 55
        E 0 90 51 55
        E 0 90 51 55
        E 0 90 58 55
        E 0 91 56 54
        E 343 80 45 00
        E 0 80 56 00
        E 0 80 45 00
        E 0 90 45 55
        E 0 90 39 55
        E 0 90 45 55
        E 343 80 3e 00
        E 0 80 45 00
        E 0 80 51 00
        E 0 80 51 00
        E 0 80 51 00
        E 0 80 58 00
        E 0 81 56 00
        E 0 90 45 55
        E 0 90 4a 55
        E 343 80 45 00
        E 0 80 39 00
        E 0 80 45 00
        E 0 90 39 54
        E 0 90 3c 54
        E 0 90 3c 55
        E 0 90 51 54
        E 0 97 24 55
        E 343 80 45 00
        E 0 80 4a 00
        E 0 90 39 55
        E 0 90 28 54
        E 0 96 24 55
        E 0 96 24 54
        E 343 80 39 00
        E 0 80 3c 00
        E 0 80 3c 00
        E 0 80 51 00
        E 0 87 24 00
        E 0 90 2d 54
        E 0 90 4a 55
        E 0 90 4a 55
        E 343 80 39 00
        E 0 80 28 00
        E 0 86 24 00
        E 0 86 24 00
        E 0 90 28 55
        E 0 90 3e 55
        E 0 90 4d 55
        E 0 90 4d 56
        E 0 90 29 55
        E 0 90 35 56
        E 0 96 24 56
        E 343 80 2d 00
        E 0 80 4a 00
        E 0 80 4a 00
        E 0 90 32 56
        E 0 90 3c 55
        E 0 90 3e 55
        E 0 90 3e 55
        E 0 90 3e 56
        E 0 90 48 55
        E 0 90 51 56
        E 0 96 24 55
        E 0 96 24 56
        E 343 80 28 00
        E 0 80 3e 00
        E 0 80 4d 00
        E 0 80 4d 00
        E 0 80 29 00
        E 0 80 35 00
        E 0 86 24 00
        E 0 90 29 55
        E 0 90 4a 55
        E 0 90 5d 56
        E 0 91 58 56
        E 343 80 32 00
        E 0 80 3c 00
        E 0 80 3e 00
        E 0 80 3e 00
        E 0 80 3e 00
        E 0 80 48 00
        E 0 80 51 00
        E 0 86 24 00
        E 0 86 24 00
        E 0 90 40 54
        E 0 90 45 56
        E 0 90 4a 55
        E 0 90 45 56
        E 0 90 58 56
        E 343 80 29 00
        E 0 80 4a 00
        E 0 80 5d 00
        E 0 81 58 00
        E 0 90 2d 55
        E 0 90 45 55
        E 0 90 4a 55
        E 0 90 2d 56
        E 0 96 26 55
        E 0 96 26 55
        E 343 80 40 00
        E 0 80 45 00
        E 0 80 4a 00
        E 0 80 45 00
        E 0 80 58 00
        E 0 90 32 55
        E 0 90 48 55
        E 0 90 51 56
        E 343 80 2d 00
        E 0 80 45 00
        E 0 80 4a 00
        E 0 80 2d 00
        E 0 86 26 00
        E 0 86 26 00
        E 0 90 45 55
        E 343 80 32 00
        E 0 80 48 00
        E 0 90 45 56
        E 0 90 39 56
        E 0 90 45 54
        E 0 90 4d 54
        E 0 90 41 56
        E 343 80 45 00
        E 0 90 45 54
        E 0 90 45 55
        E 0 91 4d 55
        E 343 80 51 00
        E 0 80 45 00
        E 0 80 39 00
        E 0 80 45 00
        E 0 80 4d 00
        E 0 80 41 00
        E 0 90 4a 53
        E 343 80 45 00
        E 0 80 45 00
        E 0 81 4d 00
        E 0 90 2d 54
        E 0 90 2d 55
        E 0 90 59 55
        E 0 90 59 55
        E 0 91 5d 55
        E 343 80 4a 00
        E 0 90 24 55
        E 0 90 39 55
        E 0 90 59 54
        E 0 90 59 55
        E 343 80 2d 00
        E 0 80 2d 00
        E 0 80 59 00
        E 0 80 59 00
        E 0 81 5d 00
        E 0 90 4d 55
        E 343 80 24 00
        E 0 80 39 00
        E 0 80 59 00
        E 0 80 59 00
        E 0 90 5d 55
        E 0 90 45 55
        E 343 80 4d 00
        E 0 90 59 55
        E 0 90 41 55
        E 344 80 5d 00
        E 0 80 45 00
        E 0 90 45 56
        E 343 80 59 00
        E 0 80 41 00
        E 0 90 4a 53
        E 0 90 2d 55
        E 0 90 39 55
        E 0 90 3e 54
        E 0 90 5d 55
        E 0 91 56 55
        E 0 91 56 55
        E 343 80 45 00
        E 0 90 4a 54
        E 0 90 4a 55
        E 0 90 45 54
        E 0 90 40 55
        E 0 90 48 55
        E 0 90 4c 55
        E 343 80 4a 00
        E 0 80 2d 00
        E 0 80 39 00
        E 0 80 3e 00
        E 0 80 5d 00
        E 0 81 56 00
        E 0 81 56 00
        E 0 90 26 55
        E 0 90 26 55
        E 0 90 40 54
        E 0 90 4a 55
        E 0 90 4a 55
        E 0 91 59 55
        E 343 80 4a 00
        E 0 80 4a 00
        E 0 80 45 00
        E 0 80 40 00
        E 0 80 48 00
        E 0 80 4c 00
        E 0 90 5d 55
        E 0 90 40 55
        E 0 90 5d 55
        E 343 80 26 00
        E 0 80 26 00
        E 0 80 40 00
        E 0 80 4a 00
        E 0 80 4a 00
        E 0 81 59 00
        E 0 90 45 54
        E 343 80 5d 00
        E 0 80 40 00
        E 0 80 5d 00
        E 0 90 4a 54
        E 0 90 4a 55
        E 0 90 4c 55
        E 0 90 4c 56
        E 343 80 45 00
        E 0 90 24 55
        E 0 90 45 55
        E 0 90 4a 55
        E 0 90 4a 56
        E 0 90 5d 55
        E 0 91 5d 55
        E 343 80 4a 00
        E 0 80 4a 00
        E 0 80 4c 00
        E 0 80 4c 00
        E 0 90 45 55
        E 0 90 45 56
        E 0 90 39 55
        E 0 90 45 54
        E 343 80 24 00
        E 0 80 45 00
        E 0 80 4a 00
        E 0 80 4a 00
        E 0 80 5d 00
        E 0 81 5d 00
        E 0 90 3e 55
        E 0 90 45 55
        E 0 90 39 53
        E 0 90 39 54
        E 343 80 45 00
        E 0 80 45 00
        E 0 80 39 00
        E 0 80 45 00
        E 0 90 26 55
        E 0 90 51 54
        E 0 90 51 54
        E 0 90 51 55
        E 343 80 3e 00
        E 0 80 45 00
        E 0 80 39 00
        E 0 80 39 00
        E 0 90 4c 55
        E 343 80 26 00
        E 0 80 51 00
        E 0 80 51 00
        E 0 80 51 00
        E 0 90 48 55
        E 0 90 51 55
        E 0 90 28 56
        E 0 90 34 56
        E 343 80 4c 00
        E 0 90 45 56
        E 0 90 45 56
        E 0 90 45 56
        E 0 90 59 56
        E 343 80 48 00
        E 0 80 51 00
        E 0 80 28 00
        E 0 80 34 00
        E 0 90 5d 55
        E 0 90 45 55
        E 343 80 45 00
        E 0 80 45 00
        E 0 80 45 00
        E 0 90 48 56
        E 0 90 51 55
        E 0 90 51 56
        E 0 90 5d 56
        E 0 90 5d 56
        E 0 90 51 55
        E 0 90 51 56
        E 343 80 5d 00
        E 0 80 45 00
        E 0 90 4d 55
        E 0 91 45 55
        E 343 80 59 00
        E 0 80 48 00
        E 0 80 51 00
        E 0 80 51 00
        E 0 80 5d 00
        E 0 80 5d 00
        E 0 80 51 00
        E 0 80 51 00
        E 0 90 45 55
        E 0 90 51 55
        E 0 90 51 56
        E 0 90 4d 56
        E 343 80 4d 00
        E 0 81 45 00
        E 0 90 45 55
        E 0 90 4a 55
        E 0 90 56 55
        E 0 90 56 56
        E 0 91 51 56
        E 343 80 45 00
        E 0 80 51 00
        E 0 80 51 00
        E 0 80 4d 00
        E 0 90 45 55
        E 0 90 4a 54
        E 0 90 3e 55
        E 0 90 3e 55
        E 0 90 45 55
        E 0 91 5d 55
        E 343 80 45 00
        E 0 80 4a 00
        E 0 80 56 00
        E 0 80 56 00
        E 0 81 51 00
        E 0 90 2d 55
        E 0 90 4a 54
        E 0 90 45 54
        E 343 80 45 00
        E 0 80 4a 00
        E 0 80 3e 00
        E 0 80 3e 00
        E 0 80 45 00
        E 0 81 5d 00
        E 0 90 45 55
        E 0 90 45 55
        E 0 90 51 54
        E 0 90 3e 55
        E 0 90 51 55
        E 343 80 2d 00
        E 0 80 4a 00
        E 0 80 45 00
        E 0 90 3e 54
        E 0 90 48 53
        E 0 90 45 55
        E 343 80 45 00
        E 0 80 45 00
        E 0 80 51 00
        E 0 80 3e 00
        E 0 80 51 00
        E 0 90 45 55
        E 0 90 45 55
        E 0 91 39 54
        E 343 80 3e 00
        E 0 80 48 00
        E 0 80 45 00
        E 0 90 4d 55
        E 0 90 45 54
        E 0 90 45 55
        E 0 90 4d 54
        E 0 90 45 55
        E 343 80 45 00
        E 0 80 45 00
        E 0 81 39 00
        E 0 90 39 55
        E 0 90 59 55
        E 343 80 4d 00
        E 0 80 45 00
        E 0 80 45 00
        E 0 80 4d 00
        E 0 80 45 00
        E 0 90 45 55
        E 0 90 45 55
        E 0 90 51 55
        E 0 90 45 55
        E 343 80 39 00
        E 0 80 59 00
        E 0 90 45 55
        E 0 90 51 54
        E 0 90 39 55
        E 0 90 4d 55
        E 343 80 45 00
        E 0 80 45 00
        E 0 80 51 00
        E 0 80 45 00
        E 0 90 45 55
        E 0 90 45 55
        E 0 90 45 55
        E 343 80 45 00
        E 0 80 51 00
        E 0 80 39 00
        E 0 80 4d 00
        E 0 90 39 55
        E 0 90 4d 55
        E 0 90 51 55
        E 0 90 59 55
        E 0 90 59 55
        E 0 90 59 55
        E 343 80 45 00
        E 0 80 45 00
        E 0 80 45 00
        E 0 90 29 55
        E 0 90 45 55
        E 0 90 4d 55
        E 0 90 59 55
        E 0 90 51 55
        E 0 90 5d 54
        E 0 90 5d 55
        E 0 90 5d 55
        E 0 90 5d 55
        E 343 80 39 00
        E 0 80 4d 00
        E 0 80 51 00
        E 0 80 59 00
        E 0 80 59 00
        E 0 80 59 00
        E 0 90 28 55
        E 0 90 2d 55
        E 0 90 2d 55
        E 0 90 46 55
        E 0 90 46 55
        E 343 80 29 00
        E 0 80 45 00
        E 0 80 4d 00
        E 0 80 59 00
        E 0 80 51 00
        E 0 80 5d 00
        E 0 80 5d 00
        E 0 80 5d 00
        E 0 80 5d 00
        E 0 90 2b 55
        E 0 90 58 55
        E 0 90 5b 55
        E 343 80 28 00
        E 0 80 2d 00
        E 0 80 2d 00
        E 0 80 46 00
        E 0 80 46 00
        E 0 90 48 55
        E 0 90 48 54
        E 0 90 48 55
        E 343 80 2b 00
        E 0 80 58 00
        E 0 80 5b 00
        E 0 90 2d 55
        E 0 90 40 54
        E 0 90 40 55
        E 0 90 40 55
        E 0 90 4c 55
        E 0 90 5b 55
        E 0 91 4f 55
        E 0 91 5d 55
        E 343 80 48 00
        E 0 80 48 00
        E 0 80 48 00
        E 0 90 5e 55
        E 0 90 2e 55
        E 0 91 4f 55
        E 0 91 5b 55
        E 343 80 2d 00
        E 0 80 40 00
        E 0 80 40 00
        E 0 80 40 00
        E 0 80 4c 00
        E 0 80 5b 00
        E 0 81 4f 00
        E 0 81 5d 00
        E 0 91 45 55
        E 0 91 45 55
        E 344 80 5e 00
        E 0 80 2e 00
        E 0 81 4f 00
        E 0 81 5b 00
        E 0 90 37 55
        E 0 90 43 55
        E 0 90 5e 55
        E 0 90 5e 55
        E 0 90 37 55
        E 0 90 4c 54
        E 343 81 45 00
        E 0 81 45 00
        E 0 90 2d 55
        E 0 90 48 54
        E 0 90 48 55
        E 0 90 48 55
        E 343 80 37 00
        E 0 80 43 00
        E 0 80 5e 00
        E 0 80 5e 00
        E 0 80 37 00
        E 0 80 4c 00
        E 0 90 4c 55
        E 0 90 43 54
        E 0 90 48 55
        E 343 80 48 00
        E 0 80 48 00
        E 0 80 48 00
        E 0 90 2e 55
        E 0 90 28 55
        E 0 90 43 55
        E 0 90 4f 55
        E 0 90 4f 55
        E 0 90 2d 55
        E 0 90 2e 55
        E 0 90 40 55
        E 343 80 4c 00
        E 0 80 43 00
        E 0 80 48 00
        E 0 90 43 55
        E 0 90 5e 55
        E 0 90 34 55
        E 0 90 48 55
        E 0 91 58 55
        E 343 80 2d 00
        E 0 80 2e 00
        E 0 80 28 00
        E 0 80 43 00
        E 0 80 4f 00
        E 0 80 4f 00
        E 0 80 2d 00
        E 0 80 2e 00
        E 0 80 40 00
        E 0 90 5b 55
        E 0 90 37 55
        E 0 90 39 55
        E 0 90 39 55
        E 0 90 39 55
        E 343 80 43 00
        E 0 80 5e 00
        E 0 80 34 00
        E 0 80 48 00
        E 0 81 58 00
        E 0 90 46 55
        E 0 90 39 54
        E 343 80 5b 00
        E 0 80 37 00
        E 0 80 39 00
        E 0 80 39 00
        E 0 80 39 00
        E 0 90 58 55
        E 0 91 58 54
        E 343 80 46 00
        E 0 80 39 00
        E 0 90 46 54
        E 0 90 37 54
        E 0 90 4f 55
        E 0 91 5b 54
        E 0 91 58 55
        E 343 80 58 00
        E 0 81 58 00
        E 0 90 40 54
        E 0 91 5b 55
        E 343 80 46 00
        E 0 80 37 00
        E 0 80 4f 00
        E 0 81 5b 00
        E 0 81 58 00
        E 0 90 45 53
        E 0 90 3a 55
        E 0 90 48 55
        E 0 90 4c 55
        E 343 80 40 00
        E 0 81 5b 00
        E 0 90 4f 55
        E 0 90 48 54
        E 0 90 2e 55
        E 0 90 2e 55
        E 343 80 45 00
        E 0 80 3a 00
        E 0 80 48 00
        E 0 80 4c 00
        E 0 90 28 55
        E 0 90 2b 55
        E 0 90 28 56
        E 0 90 48 55
        E 0 90 48 55
        E 0 90 34 56
        E 0 90 34 56
        E 0 90 52 56
        E 343 80 4f 00
        E 0 80 48 00
        E 0 80 2e 00
        E 0 80 2e 00
        E 0 90 37 56
        E 0 90 34 56
        E 0 90 2b 55
        E 0 90 2b 56
        E 0 90 48 55
        E 0 90 4f 56
        E 343 80 28 00
        E 0 80 2b 00
        E 0 80 28 00
        E 0 80 48 00
        E 0 80 48 00
        E 0 80 34 00
        E 0 80 34 00
        E 0 80 52 00
        E 0 90 3c 55
        E 0 90 4c 55
        E 0 90 34 55
        E 0 91 5b 55
        E 343 80 37 00
        E 0 80 34 00
        E 0 80 2b 00
        E 0 80 2b 00
        E 0 80 48 00
        E 0 80 4f 00
        E 0 90 4c 55
        E 0 90 4f 55
        E 0 90 34 55
        E 0 90 43 55
        E 343 80 3c 00
        E 0 80 4c 00
        E 0 80 34 00
        E 0 81 5b 00
        E 0 90 5e 55
        E 0 90 46 54
        E 343 80 4c 00
        E 0 80 4f 00
        E 0 80 34 00
        E 0 80 43 00
        E 0 90 45 53
        E 0 90 24 55
        E 0 90 2e 55
        E 0 90 37 55
        E 0 90 37 55
        E 0 90 45 53
        E 343 80 5e 00
        E 0 80 46 00
        E 0 90 37 55
        E 0 90 4f 55
        E 0 90 4f 53
        E 343 80 45 00
        E 0 80 2e 00
        E 0 80 37 00
        E 0 80 37 00
        E 0 80 45 00
        E 0 90 48 54
        E 0 90 3c 54
        E 0 90 5b 54
        E 343 80 37 00
        E 0 80 4f 00
        E 0 80 4f 00
        E 0 90 48 53
        E 0 90 48 54
        E 0 91 43 55
        E 343 80 24 00
        E 0 80 48 00
        E 0 80 3c 00
        E 0 80 5b 00
        E 0 90 28 54
        E 0 90 37 54
        E 0 90 46 54
        E 0 91 43 55
        E 343 80 48 00
        E 0 80 48 00
        E 0 81 43 00
        E 0 91 58 54
        E 0 91 43 55
        E 343 80 28 00
        E 0 80 37 00
        E 0 80 46 00
        E 0 81 43 00
        E 0 90 30 53
        E 0 90 37 54
        E 0 90 4f 54
        E 0 90 48 54
        E 0 90 37 55
        E 0 90 39 55
        E 343 81 58 00
        E 0 81 43 00
        E 0 90 4f 55
        E 0 90 2e 54
        E 0 90 2e 55
        E 0 90 4c 55
        E 0 90 37 54
        E 0 90 58 55
        E 343 80 30 00
        E 0 80 37 00
        E 0 80 4f 00
        E 0 80 48 00
        E 0 80 37 00
        E 0 80 39 00
        E 0 90 45 54
        E 0 90 3a 55
        E 0 90 46 54
        E 0 90 48 55
        E 0 91 39 54
        E 0 91 43 54
        E 343 80 4f 00
        E 0 80 2e 00
        E 0 80 2e 00
        E 0 80 4c 00
        E 0 80 37 00
        E 0 80 58 00
        E 0 90 30 54
        E 0 90 4f 55
        E 0 90 4f 55
        E 0 90 40 54
        E 343 80 45 00
        E 0 80 3a 00
        E 0 80 46 00
        E 0 80 48 00
        E 0 81 39 00
        E 0 81 43 00
        E 0 90 48 53
        E 0 90 30 55
        E 0 90 4c 55
        E 0 90 4f 55
        E 343 80 30 00
        E 0 80 4f 00
        E 0 80 4f 00
        E 0 80 40 00
        E 0 90 30 55
        E 0 90 39 55
        E 0 91 45 55
        E 343 80 48 00
        E 0 80 30 00
        E 0 80 4c 00
        E 0 80 4f 00
        E 0 90 48 54
        E 0 90 37 54
        E 0 90 48 54
        E 343 80 30 00
        E 0 80 39 00
        E 0 81 45 00
        E 0 90 3a 54
        E 0 90 46 53
        E 0 90 39 54
        E 0 90 46 54
        E 0 90 5b 54
        E 0 91 39 54
        E 0 91 4f 54
        E 343 80 48 00
        E 0 80 37 00
        E 0 80 48 00
        E 0 90 2e 54
        E 0 90 46 53
        E 0 90 4f 53
        E 0 90 37 54
        E 343 80 3a 00
        E 0 80 46 00
        E 0 80 39 00
        E 0 80 46 00
        E 0 80 5b 00
        E 0 81 39 00
        E 0 81 4f 00
        E 0 90 5b 52
        E 0 90 28 54
        E 0 90 4f 53
        E 0 90 48 54
        E 0 90 46 54
        E 0 90 5e 54
        E 0 90 34 53
        E 0 90 4c 53
        E 343 80 2e 00
        E 0 80 46 00
        E 0 80 4f 00
        E 0 80 37 00
        E 0 90 4c 54
        E 343 80 5b 00
        E 0 80 28 00
        E 0 80 4f 00
        E 0 80 48 00
        E 0 80 46 00
        E 0 80 5e 00
        E 0 80 34 00
        E 0 80 4c 00
        E 0 90 2b 54
        E 343 80 4c 00
        E 0 90 37 55
        E 0 90 34 55
        E 0 90 34 55
        E 0 90 40 55
        E 0 90 46 54
        E 0 90 46 55
        E 0 90 46 55
        E 343 80 2b 00
        E 0 90 2e 54
        E 0 90 51 54
        E 0 90 39 54
        E 0 90 39 54
        E 344 80 37 00
        E 0 80 34 00
        E 0 80 34 00
        E 0 80 40 00
        E 0 80 46 00
        E 0 80 46 00
        E 0 80 46 00
        E 343 80 2e 00
        E 0 80 51 00
        E 0 80 39 00
        E 0 80 39 00
        E 0 90 30 54
        E 0 90 4f 53
        E 343 90 30 54
        E 0 90 48 53
        E 0 90 51 54
        E 0 90 39 54
        E 0 91 58 53
        E 343 80 30 00
        E 0 80 4f 00
        E 0 90 28 54
        E 0 90 24 54
        E 0 90 48 52
        E 0 90 5e 54
        E 0 90 2e 54
        E 343 80 30 00
        E 0 80 48 00
        E 0 80 51 00
        E 0 80 39 00
        E 0 81 58 00
        E 0 90 2e 54
        E 0 90 3c 53
        E 0 90 4f 54
        E 0 90 34 54
        E 0 90 45 54
        E 343 80 28 00
        E 0 80 24 00
        E 0 80 48 00
        E 0 80 5e 00
        E 0 80 2e 00
        E 0 90 28 54
        E 0 90 2e 54
        E 0 90 45 54
        E 0 90 46 54
        E 0 90 46 54
        E 0 90 46 54
        E 343 80 2e 00
        E 0 80 3c 00
        E 0 80 4f 00
        E 0 80 34 00
        E 0 80 45 00
        E 0 90 48 54
        E 0 90 34 54
        E 0 90 34 54
        E 343 80 28 00
        E 0 80 2e 00
        E 0 80 45 00
        E 0 80 46 00
        E 0 80 46 00
        E 0 80 46 00
        E 0 90 5e 54
        E 0 90 40 55
        E 343 80 48 00
        E 0 80 34 00
        E 0 80 34 00
        E 0 90 5e 54
        E 0 90 3a 55
        E 343 80 5e 00
        E 0 80 40 00
        E 0 90 2d 54
        E 0 90 30 54
        E 0 90 37 53
        E 0 90 37 54
        E 0 90 37 54
        E 343 80 5e 00
        E 0 80 3a 00
        E 0 90 24 54
        E 0 90 43 53
        E 0 90 46 54
        E 0 91 58 54
        E 0 91 58 54
        E 343 80 2d 00
        E 0 80 30 00
        E 0 80 37 00
        E 0 80 37 00
        E 0 80 37 00
        E 0 90 30 54
        E 0 90 45 54
        E 0 90 2b 54
        E 0 90 5d 53
        E 0 90 5d 54
        E 0 90 5d 54
        E 343 80 24 00
        E 0 80 43 00
        E 0 80 46 00
        E 0 81 58 00
        E 0 81 58 00
        E 0 90 28 53
        E 0 90 28 53
        E 0 90 2e 53
        E 0 90 4f 53
        E 0 90 46 54
        E 343 80 30 00
        E 0 80 45 00
        E 0 80 2b 00
        E 0 80 5d 00
        E 0 80 5d 00
        E 0 80 5d 00
        E 0 90 4f 54
        E 0 90 51 53
        E 0 90 34 54
        E 0 90 37 54
        E 0 90 46 54
        E 0 90 51 54
        E 0 90 51 54
        E 343 80 28 00
        E 0 80 28 00
        E 0 80 2e 00
        E 0 80 4f 00
        E 0 80 46 00
        E 0 90 5e 53
        E 0 90 24 54
        E 0 90 30 53
        E 0 90 37 54
        E 0 90 48 54
        E 343 80 4f 00
        E 0 80 51 00
        E 0 80 34 00
        E 0 80 37 00
        E 0 80 46 00
        E 0 80 51 00
        E 0 80 51 00
        E 0 90 34 55
        E 0 90 51 54
        E 0 90 39 54
        E 0 90 46 54
        E 343 80 5e 00
        E 0 80 24 00
        E 0 80 30 00
        E 0 80 37 00
        E 0 80 48 00
        E 0 90 3c 53
        E 0 90 30 54
        E 343 80 34 00
        E 0 80 51 00
        E 0 80 39 00
        E 0 80 46 00
        E 0 90 28 54
        E 0 90 46 54
        E 0 90 5e 54
        E 0 90 5e 54
        E 343 80 3c 00
        E 0 80 30 00
        E 0 90 2e 54
        E 0 90 3c 54
        E 0 90 51 53
        E 343 80 28 00
        E 0 80 46 00
        E 0 80 5e 00
        E 0 80 5e 00
        E 0 90 46 54
        E 0 90 51 53
        E 0 90 51 54
        E 0 90 37 54
        E 0 91 4f 54
        E 343 80 2e 00
        E 0 80 3c 00
        E 0 80 51 00
        E 0 90 40 54
        E 0 90 24 54
        E 0 90 24 54
        E 0 90 45 54
        E 0 90 48 54
        E 0 90 4f 54
        E 343 80 46 00
        E 0 80 51 00
        E 0 80 51 00
        E 0 81 4f 00
        E 0 90 28 54
        E 0 90 2b 54
        E 0 90 46 53
        E 343 80 40 00
        E 0 80 24 00
        E 0 80 24 00
        E 0 80 45 00
        E 0 80 48 00
        E 0 80 4f 00
        E 0 90 4c 54
        E 343 80 28 00
        E 0 80 2b 00
        E 0 80 46 00
        E 343 80 4c 00
        E 0 90 3c 54
        E 0 90 45 54
        E 0 90 48 54
        E 0 90 4f 54
        E 343 80 37 00
        E 0 90 46 54
        E 0 90 46 54
        E 0 91 30 53
        E 343 80 3c 00
        E 0 80 45 00
        E 0 80 48 00
        E 0 80 4f 00
        E 0 90 28 55
        E 0 90 2b 54
        E 0 90 2b 55
        E 0 90 46 54
        E 0 90 46 54
        E 0 90 46 54
        E 0 90 46 54
        E 343 80 46 00
        E 0 80 46 00
        E 0 81 30 00
        E 0 90 46 54
        E 0 90 46 54
        E 0 90 48 54
        E 0 90 4f 53
        E 0 91 46 54
        E 343 80 28 00
        E 0 80 2b 00
        E 0 80 2b 00
        E 0 80 46 00
        E 0 80 46 00
        E 0 80 46 00
        E 0 80 46 00
        E 0 90 46 53
        E 0 90 43 53
        E 343 80 46 00
        E 0 80 46 00
        E 0 80 48 00
        E 0 80 4f 00
        E 0 81 46 00
        E 0 90 24 53
        E 0 90 24 54
        E 0 90 48 54
        E 0 90 48 54
        E 0 90 4f 53
        E 0 90 4f 53
        E 343 80 46 00
        E 0 80 43 00
        E 0 90 28 53
        E 0 90 2e 53
        E 0 90 51 53
        E 0 90 46 53
        E 343 80 24 00
        E 0 80 24 00
        E 0 80 48 00
        E 0 80 48 00
        E 0 80 4f 00
        E 0 80 4f 00
        E 0 90 4f 54
        E 0 90 52 54
        E 0 90 48 54
        E 0 90 46 53
        E 343 80 28 00
        E 0 80 2e 00
        E 0 80 51 00
        E 0 80 46 00
        E 0 90 26 53
        E 0 90 51 53
        E 343 80 4f 00
        E 0 80 52 00
        E 0 80 48 00
        E 0 80 46 00
        E 0 90 4a 53
        E 0 90 45 54
        E 0 90 4a 53
        E 0 90 51 53
        E 0 91 48 54
        E 0 91 48 53
        E 343 80 26 00
        E 0 80 51 00
        E 0 90 45 53
        E 0 90 45 52
        E 0 90 45 52
        E 0 91 4a 53
        E 343 80 4a 00
        E 0 80 45 00
        E 0 80 4a 00
        E 0 80 51 00
        E 0 81 48 00
        E 0 81 48 00
        E 0 90 51 53
        E 0 90 51 53
        E 344 80 45 00
        E 0 80 45 00
        E 0 80 45 00
        E 0 81 4a 00
        E 0 90 35 53
        E 0 90 35 53
        E 0 90 4a 53
        E 0 90 51 53
        E 343 80 51 00
        E 0 80 51 00
        E 0 90 3e 54
        E 0 90 5d 54
        E 0 90 51 53
        E 0 90 51 53
        E 0 91 4a 53
        E 0 97 26 54
        E 343 80 35 00
        E 0 80 35 00
        E 0 80 4a 00
        E 0 80 51 00
        E 0 90 30 54
        E 0 90 2d 53
        E 0 90 32 53
        E 0 90 3e 52
        E 0 90 34 54
        E 0 90 34 54
        E 0 90 3c 53
        E 0 90 3c 54
        E 343 80 3e 00
        E 0 80 5d 00
        E 0 80 51 00
        E 0 80 51 00
        E 0 81 4a 00
        E 0 87 26 00
        E 0 90 2d 53
        E 0 91 39 53
        E 0 91 4a 53
        E 0 97 2d 53
        E 0 97 2d 53
        E 343 80 30 00
        E 0 80 2d 00
        E 0 80 32 00
        E 0 80 3e 00
        E 0 80 34 00
        E 0 80 34 00
        E 0 80 3c 00
        E 0 80 3c 00
        E 0 90 2d 53
        E 0 90 39 53
        E 0 90 40 53
        E 0 91 45 53
        E 0 91 35 54
        E 343 80 2d 00
        E 0 81 39 00
        E 0 81 4a 00
        E 0 87 2d 00
        E 0 87 2d 00
        E 0 90 51 54
        E 0 90 40 53
        E 0 97 2d 53
        E 0 97 2d 53
        E 0 97 2d 54
        E 0 97 2d 54
        E 343 80 2d 00
        E 0 80 39 00
        E 0 80 40 00
        E 0 81 45 00
        E 0 81 35 00
        E 0 90 34 54
        E 0 90 45 53
        E 0 90 48 54
        E 343 80 51 00
        E 0 80 40 00
        E 0 87 2d 00
        E 0 87 2d 00
        E 0 87 2d 00
        E 0 87 2d 00
        E 0 90 51 54
        E 0 90 3c 53
        E 0 90 51 53
        E 0 90 3c 53
        E 0 91 45 53
        E 343 80 34 00
        E 0 80 45 00
        E 0 80 48 00
        E 0 90 3e 53
        E 0 90 51 53
        E 0 91 45 52
        E 0 91 45 53
        E 0 96 2d 53
        E 343 80 51 00
        E 0 80 3c 00
        E 0 80 51 00
        E 0 80 3c 00
        E 0 81 45 00
        E 0 90 45 53
        E 0 90 45 53
        E 0 90 48 52
        E 343 80 3e 00
        E 0 80 51 00
        E 0 81 45 00
        E 0 81 45 00
        E 0 86 2d 00
        E 0 90 3e 54
        E 0 90 45 54
        E 0 91 45 53
        E 343 80 45 00
        E 0 80 45 00
        E 0 80 48 00
        E 0 90 51 53
        E 0 90 45 54
        E 0 90 51 53
        E 0 90 45 54
        E 0 90 51 54
        E 0 91 45 52
        E 343 80 3e 00
        E 0 80 45 00
        E 0 81 45 00
        E 0 90 51 54
        E 0 90 4d 54
        E 0 90 45 53
        E 0 90 45 53
        E 0 91 45 54
        E 0 97 35 54
        E 0 97 35 54
        E 343 80 51 00
        E 0 80 45 00
        E 0 80 51 00
        E 0 80 45 00
        E 0 80 51 00
        E 0 81 45 00
        E 0 90 39 54
        E 0 90 4d 53
        E 0 90 51 54
        E 0 90 3c 53
        E 0 90 3c 54
        E 0 90 5d 54
        E 0 90 4d 54
        E 343 80 51 00
        E 0 80 4d 00
        E 0 80 45 00
        E 0 80 45 00
        E 0 81 45 00
        E 0 87 35 00
        E 0 87 35 00
        E 0 90 40 54
        E 0 90 48 54
        E 0 90 4d 54
        E 0 90 48 53
        E 0 90 48 54
        E 0 90 5d 53
        E 0 97 40 54
        E 343 80 39 00
        E 0 80 4d 00
        E 0 80 51 00
        E 0 80 3c 00
        E 0 80 3c 00
        E 0 80 5d 00
        E 0 80 4d 00
        E 0 90 51 54
        E 0 90 45 54
        E 0 90 48 54
        E 0 91 45 53
        E 343 80 40 00
        E 0 80 48 00
        E 0 80 4d 00
        E 0 80 48 00
        E 0 80 48 00
        E 0 80 5d 00
        E 0 87 40 00
        E 0 90 39 54
        E 0 90 39 54
        E 0 90 39 54
        E 0 90 51 54
        E 0 90 4d 54
        E 0 90 59 54
        E 0 96 39 54
        E 343 80 51 00
        E 0 80 45 00
        E 0 80 48 00
        E 0 81 45 00
        E 0 90 39 54
        E 0 90 39 54
        E 0 90 39 54
        E 0 90 5d 54
        E 343 80 39 00
        E 0 80 39 00
        E 0 80 39 00
        E 0 80 51 00
        E 0 80 4d 00
        E 0 80 59 00
        E 0 86 39 00
        E 0 90 5d 54
        E 0 97 39 54
        E 0 97 39 54
        E 343 80 39 00
        E 0 80 39 00
        E 0 80 39 00
        E 0 80 5d 00
        E 0 90 5d 53
        E 343 80 5d 00
        E 0 87 39 00
        E 0 87 39 00
        E 0 90 4d 55
        E 0 90 51 55
        E 0 97 39 55
        E 343 80 5d 00
        E 0 90 5d 54
        E 0 90 5d 55
        E 0 90 5d 55
        E 0 95 51 55
        E 0 96 39 55
        E 0 97 39 55
        E 343 80 4d 00
        E 0 80 51 00
        E 0 87 39 00
        E 0 90 5d 54
        E 0 90 5d 55
        E 0 90 5d 55
        E 0 90 5d 55
        E 0 96 39 55
        E 343 80 5d 00
        E 0 80 5d 00
        E 0 80 5d 00
        E 0 85 51 00
        E 0 86 39 00
        E 0 87 39 00
        E 0 90 59 54
        E 0 90 59 55
        E 0 90 5d 54
        E 0 95 2d 55
        E 343 80 5d 00
        E 0 80 5d 00
        E 0 80 5d 00
        E 0 80 5d 00
        E 0 86 39 00
        E 0 90 5d 55
        E 0 96 39 55
        E 0 96 39 55
        E 0 96 39 55
        E 343 80 59 00
        E 0 80 59 00
        E 0 80 5d 00
        E 0 85 2d 00
        E 0 90 5d 54
        E 0 90 5d 55
        E 0 95 39 55
        E 343 80 5d 00
        E 0 86 39 00
        E 0 86 39 00
        E 0 86 39 00
        E 0 90 59 55
        E 0 90 5d 54
        E 0 95 39 55
        E 0 95 39 55
        E 343 80 5d 00
        E 0 80 5d 00
        E 0 85 39 00
        E 0 90 5d 54
        E 0 90 5d 54
        E 0 90 5d 54
        E 0 90 5d 54
        E 0 90 5d 54
        E 0 95 39 54
        E 0 95 39 54
        E 343 80 59 00
        E 0 80 5d 00
        E 0 85 39 00
        E 0 85 39 00
        E 0 90 5d 55
        E 0 90 5d 55
        E 0 95 39 55
        E 343 80 5d 00
        E 0 80 5d 00
        E 0 80 5d 00
        E 0 80 5d 00
        E 0 80 5d 00
        E 0 85 39 00
        E 0 85 39 00
        E 0 95 34 54
        E 343 80 5d 00
        E 0 80 5d 00
        E 0 85 39 00
        E 0 95 39 55
        E 0 95 39 55
        E 343 85 34 00
        E 0 95 39 55
        E 343 85 39 00
        E 0 85 39 00
        E 0 90 5d 55
        E 343 85 39 00
        E 0 90 5d 54
        E 0 95 34 54
        E 0 95 35 54
        E 0 97 59 54
        E 343 80 5d 00
        E 0 90 5d 54
        E 0 90 5d 54
        E 0 95 34 54
        E 0 97 5d 54
        E 0 97 5d 54
        E 0 97 5d 54
        E 343 80 5d 00
        E 0 85 34 00
        E 0 85 35 00
        E 0 87 59 00
        E 0 95 39 54
        E 0 95 39 54
        E 0 95 35 54
        E 0 95 35 54
        E 0 95 39 54
        E 0 97 5d 54
        E 343 80 5d 00
        E 0 80 5d 00
        E 0 85 34 00
        E 0 87 5d 00
        E 0 87 5d 00
        E 0 87 5d 00
        E 0 95 39 54
        E 0 95 39 54
        E 0 95 39 54
        E 0 96 4c 54
        E 0 96 4c 54
        E 344 85 39 00
        E 0 85 39 00
        E 0 85 35 00
        E 0 85 35 00
        E 0 85 39 00
        E 0 87 5d 00
        E 0 95 39 54
        E 343 85 39 00
        E 0 85 39 00
        E 0 85 39 00
        E 0 86 4c 00
        E 0 86 4c 00
        E 0 95 39 54
        E 343 85 39 00
        E 0 96 59 54
        E 0 96 59 54
        E 343 96 5d 54
        E 0 96 5d 54
        E 343 86 59 00
        E 0 86 59 00
        E 0 96 5d 53
        E 343 85 39 00
        E 0 86 5d 00
        E 0 86 5d 00
        E 0 95 39 54
        E 343 86 5d 00
        E 343 85 39 00
        E 343 95 39 54
        E 343 97 59 54
        E 343 85 39 00
        E 343 87 59 00
        E 0 95 39 54
        E 343 95 39 54
        E 343 85 39 00
        E 0 95 39 54
        E 0 95 39 54
        E 343 85 39 00
        E 0 95 39 54
        E 0 96 4a 54
        E 343 85 39 00
        E 0 85 39 00
        E 0 95 39 54
        E 0 95 39 54
        E 343 85 39 00
        E 0 86 4a 00
        E 0 94 39 55
        E 343 85 39 00
        E 0 85 39 00
        E 0 95 34 55
        E 0 96 4d 54
        E 343 84 39 00
        E 0 95 39 55
        E 0 96 35 55
        E 343 85 34 00
        E 0 86 4d 00
        E 0 95 39 54
        E 0 95 39 55
        E 0 97 59 53
        E 0 97 59 54
        E 343 85 39 00
        E 0 86 35 00
        E 343 85 39 00
        E 0 85 39 00
        E 0 87 59 00
        E 0 87 59 00
        E 343 94 39 55
        E 0 95 39 54
        E 0 95 39 55
        E 343 95 35 54
        E 0 95 35 54
        E 343 84 39 00
        E 0 85 39 00
        E 0 85 39 00
        E 0 95 39 54
        E 0 95 39 54
        E 343 85 35 00
        E 0 85 35 00
        E 0 94 39 55
        E 0 95 34 54
        E 343 85 39 00
        E 0 85 39 00
        E 0 94 39 55
        E 0 95 39 55
        E 0 95 34 54
        E 0 95 39 55
        E 0 96 39 55
        E 343 84 39 00
        E 0 85 34 00
        E 0 94 39 55
        E 0 95 39 55
        E 343 84 39 00
        E 0 85 39 00
        E 0 85 34 00
        E 0 85 39 00
        E 0 86 39 00
        E 0 95 39 55
        E 0 95 39 55
        E 343 84 39 00
        E 0 85 39 00
        E 343 85 39 00
        E 0 85 39 00
        E 0 94 39 55
        E 0 95 39 55
        E 343 95 39 54
        E 0 95 39 55
        E 0 95 39 55
        E 0 95 4d 54
        E 343 84 39 00
        E 0 85 39 00
        E 0 95 4d 54
        E 0 95 4d 54
        E 0 95 4d 54
        E 0 95 4d 54
        E 0 95 4d 54
        E 343 85 39 00
        E 0 85 39 00
        E 0 85 39 00
        E 0 85 4d 00
        E 0 95 4d 54
        E 0 95 4d 54
        E 0 95 4d 54
        E 343 85 4d 00
        E 0 85 4d 00
        E 0 85 4d 00
        E 0 85 4d 00
        E 0 85 4d 00
        E 0 94 3a 54
        E 0 94 3a 54
        E 0 95 4c 54
        E 0 95 4c 54
        E 0 95 4c 54
        E 343 85 4d 00
        E 0 85 4d 00
        E 0 85 4d 00
        E 0 94 3a 54
        E 0 94 3a 54
        E 0 95 4c 54
        E 344 84 3a 00
        E 0 84 3a 00
        E 0 85 4c 00
        E 0 85 4c 00
        E 0 85 4c 00
        E 0 95 3a 54
        E 343 84 3a 00
        E 0 84 3a 00
        E 0 85 4c 00
        E 0 95 3a 54
        E 0 95 37 53
        E 0 95 4c 54
        E 0 95 4c 54
        E 0 95 4c 54
        E 343 85 3a 00
        E 0 94 3a 54
        E 0 95 3a 54
        E 0 95 3a 54
        E 0 95 3a 54
        E 0 95 3a 54
        E 343 85 37 00
        E 0 85 4c 00
        E 0 85 4c 00
        E 0 85 4c 00
        E 0 95 3a 54
        E 0 95 39 54
        E 343 84 3a 00
        E 0 85 3a 00
        E 0 85 3a 00
        E 0 85 3a 00
        E 0 85 3a 00
        E 0 94 3a 54
        E 0 95 3a 54
        E 0 95 34 54
        E 343 85 3a 00
        E 0 85 3a 00
        E 0 85 39 00
        E 0 95 37 54
        E 343 85 3a 00
        E 0 85 34 00
        E 0 95 3a 54
        E 0 95 3a 54
        E 0 95 48 54
        E 0 95 48 54
        E 0 95 48 54
        E 0 95 48 54
        E 343 85 37 00
        E 0 95 3a 54
        E 0 95 3a 54
        E 0 95 48 54
        E 343 84 3a 00
        E 0 85 3a 00
        E 0 85 3a 00
        E 0 85 48 00
        E 0 85 48 00
        E 0 85 48 00
        E 0 85 48 00
        E 0 95 3a 54
        E 0 95 3a 54
        E 0 95 48 54
        E 343 85 3a 00
        E 0 85 3a 00
        E 0 85 48 00
        E 0 95 3c 54
        E 343 85 3a 00
        E 0 85 3a 00
        E 0 85 48 00
        E 0 95 48 54
        E 0 95 48 54
        E 343 85 3c 00
        E 0 95 48 53
        E 0 95 48 53
        E 0 95 48 54
        E 0 95 48 54
        E 343 85 48 00
        E 0 85 48 00
        E 0 95 48 54
        E 0 95 48 54
        E 0 95 48 54
        E 0 96 34 53
        E 343 85 48 00
        E 0 85 48 00
        E 0 85 48 00
        E 0 85 48 00
        E 0 95 48 54
        E 0 95 48 54
        E 343 85 48 00
        E 0 85 48 00
        E 0 85 48 00
        E 0 86 34 00
        E 0 95 48 54
        E 0 95 4c 54
        E 0 95 4c 54
        E 343 85 48 00
        E 0 85 48 00
        E 0 95 48 54
        E 343 85 48 00
        E 0 85 4c 00
        E 0 85 4c 00
        E 0 95 37 54
        E 0 95 48 54
        E 343 85 48 00
        E 0 94 40 54
        E 0 95 48 54
        E 0 95 48 54
        E 0 95 48 54
        E 343 85 37 00
        E 0 85 48 00
        E 0 94 4c 54
        E 0 95 48 54
        E 0 95 48 54
        E 0 95 48 54
        E 0 95 48 54
        E 343 84 40 00
        E 0 85 48 00
        E 0 85 48 00
        E 0 85 48 00
        E 0 95 46 54
        E 0 95 46 54
        E 0 95 48 54
        E 343 84 4c 00
        E 0 85 48 00
        E 0 85 48 00
        E 0 85 48 00
        E 0 85 48 00
        E 0 95 48 53
        E 0 95 48 53
        E 0 95 48 53
        E 0 95 4c 54
        E 343 85 46 00
        E 0 85 46 00
        E 0 85 48 00
        E 0 95 48 54
        E 0 95 48 54
        E 343 85 48 00
        E 0 85 48 00
        E 0 85 48 00
        E 0 85 4c 00
        E 0 95 46 53
        E 0 95 46 54
        E 0 95 46 54
        E 0 95 46 54
        E 0 95 46 54
        E 0 95 46 54
        E 0 95 46 54
        E 343 85 48 00
        E 0 85 48 00
        E 0 95 46 54
        E 0 95 46 54
        E 0 95 46 54
        E 0 95 46 54
        E 0 95 46 54
        E 343 85 46 00
        E 0 85 46 00
        E 0 85 46 00
        E 0 85 46 00
        E 0 85 46 00
        E 0 85 46 00
        E 0 85 46 00
        E 0 95 45 54
        E 0 95 45 54
        E 0 95 46 54
        E 0 95 46 54
        E 0 95 46 54
        E 343 85 46 00
        E 0 85 46 00
        E 0 85 46 00
        E 0 85 46 00
        E 0 85 46 00
        E 0 95 43 54
        E 0 95 45 54
        E 0 95 46 54
        E 0 95 46 54
        E 0 95 48 53
        E 0 95 48 53
        E 0 95 48 53
        E 0 95 48 53
        E 0 95 48 53
        E 343 85 45 00
        E 0 85 45 00
        E 0 85 46 00
        E 0 85 46 00
        E 0 94 43 53
        E 0 94 48 53
        E 0 95 45 54
        E 0 95 48 53
        E 0 95 48 53
        E 0 95 48 53
        E 0 95 48 53
        E 0 95 48 54
        E 0 95 48 54
        E 343 85 43 00
        E 0 85 45 00
        E 0 85 46 00
        E 0 85 46 00
        E 0 85 48 00
        E 0 85 48 00
        E 0 85 48 00
        E 0 85 48 00
        E 0 85 48 00
        E 0 95 46 53
        E 0 95 48 53
        E 0 95 48 53
        E 0 95 48 53
        E 0 95 48 53
        E 0 95 3c 53
        E 343 85 46 00
        E 0 84 43 00
        E 0 84 48 00
        E 0 85 45 00
        E 0 85 48 00
        E 0 85 48 00
        E 0 85 48 00
        E 0 85 48 00
        E 0 85 48 00
        E 0 85 48 00
        E 0 95 48 53
        E 0 95 48 53
        E 343 85 46 00
        E 0 85 48 00
        E 0 85 48 00
        E 0 85 48 00
        E 0 85 48 00
        E 0 85 3c 00
        E 0 95 43 53
        E 0 96 3c 52
        E 343 85 48 00
        E 0 85 48 00
        E 343 85 43 00
        E 0 95 46 53
        E 0 95 48 53
        E 343 95 46 53
        E 0 95 46 53
        E 0 95 46 53
        E 343 86 3c 00
        E 0 85 46 00
        E 0 85 48 00
        E 0 90 46 53
        E 0 95 46 53
        E 0 95 46 53
        E 343 85 46 00
        E 0 85 46 00
        E 0 85 46 00
        E 0 90 46 53
        E 0 94 40 53
        E 0 94 40 53
        E 0 95 46 53
        E 0 95 46 53
        E 343 80 46 00
        E 0 85 46 00
        E 0 85 46 00
        E 0 94 45 52
        E 0 94 45 53
        E 0 94 45 53
        E 0 95 46 53
        E 0 95 46 53
        E 0 95 46 53
        E 0 95 46 53
        E 343 80 46 00
        E 0 84 40 00
        E 0 84 40 00
        E 0 85 46 00
        E 0 85 46 00
        E 0 95 48 53
        E 0 95 48 53
        E 0 95 48 53
        E 0 95 48 53
        E 344 84 45 00
        E 0 84 45 00
        E 0 84 45 00
        E 0 85 46 00
        E 0 85 46 00
        E 0 85 46 00
        E 0 85 46 00
        E 0 95 48 53
        E 0 95 3a 53
        E 0 95 3a 53
        E 0 95 45 53
        E 343 85 48 00
        E 0 85 48 00
        E 0 85 48 00
        E 0 85 48 00
        E 0 94 43 53
        E 0 94 43 53
        E 0 94 48 53
        E 0 95 46 53
        E 343 85 48 00
        E 0 85 3a 00
        E 0 85 3a 00
        E 0 85 45 00
        E 0 94 43 53
        E 0 95 43 54
        E 0 95 48 54
        E 0 95 48 54
        E 0 95 48 54
        E 0 95 58 54
        E 343 84 43 00
        E 0 84 43 00
        E 0 84 48 00
        E 0 85 46 00
        E 0 94 43 53
        E 0 94 43 54
        E 0 94 45 54
        E 0 94 45 54
        E 0 95 46 54
        E 0 95 3a 54
        E 343 84 43 00
        E 0 85 43 00
        E 0 85 48 00
        E 0 85 48 00
        E 0 85 48 00
        E 0 85 58 00
        E 0 94 43 54
        E 0 94 43 54
        E 0 94 45 53
        E 0 94 45 54
        E 0 95 45 54
        E 0 95 45 54
        E 0 97 5b 54
        E 343 84 43 00
        E 0 84 43 00
        E 0 84 45 00
        E 0 84 45 00
        E 0 85 46 00
        E 0 85 3a 00
        E 0 94 43 54
        E 0 94 43 54
        E 0 94 46 54
        E 0 94 46 54
        E 0 95 43 54
        E 0 95 45 53
        E 0 95 45 54
        E 0 95 45 54
        E 0 96 46 54
        E 0 96 46 54
        E 343 84 43 00
        E 0 84 43 00
        E 0 84 45 00
        E 0 84 45 00
        E 0 85 45 00
        E 0 85 45 00
        E 0 87 5b 00
        E 0 94 4c 54
        E 0 94 43 54
        E 0 94 46 54
        E 0 94 46 54
        E 0 95 43 54
        E 0 95 46 54
        E 0 95 46 54
        E 0 95 46 54
        E 343 84 43 00
        E 0 84 43 00
        E 0 84 46 00
        E 0 84 46 00
        E 0 85 43 00
        E 0 85 45 00
        E 0 85 45 00
        E 0 85 45 00
        E 0 86 46 00
        E 0 86 46 00
        E 0 94 48 53
        E 0 95 48 54
        E 0 95 43 54
        E 0 95 48 54
        E 0 96 5b 54
        E 343 84 4c 00
        E 0 84 43 00
        E 0 84 46 00
        E 0 84 46 00
        E 0 85 43 00
        E 0 85 46 00
        E 0 85 46 00
        E 0 85 46 00
        E 0 94 46 53
        E 0 94 46 54
        E 0 94 46 54
        E 0 95 46 54
        E 0 95 37 54
        E 0 95 46 53
        E 343 84 48 00
        E 0 85 48 00
        E 0 85 43 00
        E 0 85 48 00
        E 0 86 5b 00
        E 0 90 5b 54
        E 0 94 45 54
        E 0 94 46 53
        E 0 95 45 53
        E 0 95 37 54
        E 0 97 5b 54
        E 343 84 46 00
        E 0 84 46 00
        E 0 84 46 00
        E 0 85 46 00
        E 0 85 37 00
        E 0 85 46 00
        E 0 95 46 53
        E 0 95 46 53
        E 0 95 46 54
        E 0 95 46 54
        E 0 95 58 54
        E 343 80 5b 00
        E 0 84 45 00
        E 0 84 46 00
        E 0 85 45 00
        E 0 85 37 00
        E 0 87 5b 00
        E 0 95 46 54
        E 0 95 46 54
        E 0 95 3a 54
        E 0 96 46 54
        E 0 96 46 54
        E 343 85 46 00
        E 0 85 46 00
        E 0 85 46 00
        E 0 85 46 00
        E 0 85 58 00
        E 0 90 5b 54
        E 0 95 37 54
        E 343 85 46 00
        E 0 85 46 00
        E 0 85 3a 00
        E 0 86 46 00
        E 0 86 46 00
        E 0 95 3a 54
        E 0 95 3a 55
        E 0 95 40 54
        E 0 95 43 54
        E 0 95 43 55
        E 0 95 3c 54
        E 0 96 34 54
        E 343 80 5b 00
        E 0 85 37 00
        E 0 96 5e 54
        E 0 97 5e 53
        E 0 97 5e 53
        E 343 85 3a 00
        E 0 85 3a 00
        E 0 85 40 00
        E 0 85 43 00
        E 0 85 43 00
        E 0 85 3c 00
        E 0 86 34 00
        E 0 96 5e 53
        E 0 96 60 53
        E 0 97 5e 53
        E 0 97 5e 53
        E 0 97 5e 53
        E 343 86 5e 00
        E 0 87 5e 00
        E 0 87 5e 00
        E 0 96 5e 52
        E 0 96 5e 52
        E 0 96 5e 52
        E 0 97 5b 52
        E 0 97 5b 52
        E 0 97 5d 52
        E 0 97 5e 52
        E 0 97 5e 52
        E 343 86 5e 00
        E 0 86 60 00
        E 0 87 5e 00
        E 0 87 5e 00
        E 0 87 5e 00
        E 0 96 58 52
        E 0 96 58 53
        E 0 96 5e 53
        E 0 97 5d 53
        E 0 97 5d 53
        E 0 97 5d 53
        E 0 97 5d 53
        E 0 97 5e 53
        E 0 97 5e 53
        E 0 97 5e 53
        E 0 97 5d 53
        E 0 97 5d 53
        E 343 86 5e 00
        E 0 86 5e 00
        E 0 86 5e 00
        E 0 87 5b 00
        E 0 87 5b 00
        E 0 87 5d 00
        E 0 87 5e 00
        E 0 87 5e 00
        E 0 91 37 54
        E 0 91 37 54
        E 0 96 37 53
        E 343 86 58 00
        E 0 86 58 00
        E 0 86 5e 00
        E 0 87 5d 00
        E 0 87 5d 00
        E 0 87 5d 00
        E 0 87 5d 00
        E 0 87 5e 00
        E 0 87 5e 00
        E 0 87 5e 00
        E 0 87 5d 00
        E 0 87 5d 00
        E 0 91 37 54
        E 0 95 46 55
        E 0 95 3a 55
        E 343 81 37 00
        E 0 81 37 00
        E 0 86 37 00
        E 343 81 37 00
        E 0 85 46 00
        E 0 85 3a 00
        E 0 95 45 54
        E 0 95 45 54
        E 0 95 45 55
        E 0 96 58 55
        E 0 97 5b 55
        E 343 95 45 54
        E 0 95 45 54
        E 0 95 45 54
        E 0 96 3c 54
        E 0 96 58 54
        E 0 96 58 54
        E 343 85 45 00
        E 0 85 45 00
        E 0 85 45 00
        E 0 86 58 00
        E 0 87 5b 00
        E 0 95 3a 54
        E 0 95 3a 54
        E 0 95 43 55
        E 0 95 45 55
        E 343 85 45 00
        E 0 85 45 00
        E 0 85 45 00
        E 0 86 3c 00
        E 0 86 58 00
        E 0 86 58 00
        E 0 95 43 54
        E 0 95 43 55
        E 343 85 3a 00
        E 0 85 3a 00
        E 0 85 43 00
        E 0 85 45 00
        E 0 94 43 54
        E 0 94 43 54
        E 0 95 43 54
        E 0 95 43 55
        E 343 85 43 00
        E 0 85 43 00
        E 0 94 43 55
        E 0 94 43 55
        E 0 95 34 55
        E 343 84 43 00
        E 0 84 43 00
        E 0 85 43 00
        E 0 85 43 00
        E 0 97 5b 55
        E 343 84 43 00
        E 0 84 43 00
        E 0 85 34 00
        E 0 90 5b 55
        E 0 90 5b 55
        E 0 94 3a 55
        E 343 87 5b 00
        E 0 90 5b 55
        E 0 95 40 55
        E 0 95 40 55
        E 0 95 40 55
        E 0 95 40 55
        E 0 95 40 55
        E 0 95 40 55
        E 0 97 5b 55
        E 343 80 5b 00
        E 0 80 5b 00
        E 0 84 3a 00
        E 0 95 43 55
        E 0 95 43 55
        E 0 95 43 55
        E 0 95 43 55
        E 343 80 5b 00
        E 0 85 40 00
        E 0 85 40 00
        E 0 85 40 00
        E 0 85 40 00
        E 0 85 40 00
        E 0 85 40 00
        E 0 87 5b 00
        E 0 95 3a 54
        E 0 95 43 55
        E 0 95 43 55
        E 0 95 43 55
        E 343 85 43 00
        E 0 85 43 00
        E 0 85 43 00
        E 0 85 43 00
        E 0 95 3a 55
        E 0 95 43 54
        E 343 85 3a 00
        E 0 85 43 00
        E 0 85 43 00
        E 0 85 43 00
        E 0 90 3c 54
        E 0 95 3a 54
        E 343 85 3a 00
        E 0 85 43 00
        E 0 95 3c 55
        E 0 95 3c 55
        E 343 80 3c 00
        E 0 85 3a 00
        E 0 94 3a 55
        E 0 95 3a 55
        E 0 95 3a 55
        E 343 85 3c 00
        E 0 85 3c 00
        E 0 95 3e 55
        E 344 84 3a 00
        E 0 85 3a 00
        E 0 85 3a 00
        E 0 95 3e 54
        E 0 95 3e 54
        E 0 95 3e 54
        E 0 95 3e 54
        E 343 85 3e 00
        E 343 85 3e 00
        E 0 85 3e 00
        E 0 85 3e 00
        E 0 85 3e 00
        E 0 95 3a 55
        E 0 95 3e 54
        E 0 95 3a 55
        E 0 96 3e 55
        E 343 90 59 54
        E 0 90 59 54
        E 0 95 3a 54
        E 343 85 3a 00
        E 0 85 3e 00
        E 0 85 3a 00
        E 0 86 3e 00
        E 0 95 3a 55
        E 0 95 40 55
        E 0 96 3e 53
        E 343 80 59 00
        E 0 80 59 00
        E 0 85 3a 00
        E 0 95 3e 54
        E 0 95 3e 54
        E 0 95 3e 54
        E 0 95 3e 54
        E 0 96 3e 54
        E 0 96 3e 54
        E 343 85 3a 00
        E 0 85 40 00
        E 0 86 3e 00
        E 0 96 59 54
        E 343 85 3e 00
        E 0 85 3e 00
        E 0 85 3e 00
        E 0 85 3e 00
        E 0 86 3e 00
        E 0 86 3e 00
        E 0 96 59 54
        E 0 97 59 54
        E 0 97 5b 54
        E 343 95 3a 54
        E 0 96 3e 54
        E 343 86 59 00
        E 0 87 59 00
        E 0 87 5b 00
        E 0 95 40 54
        E 0 95 4a 54
        E 343 86 59 00
        E 0 85 3a 00
        E 0 86 3e 00
        E 0 95 46 53
        E 0 95 46 54
        E 343 85 40 00
        E 0 85 4a 00
        E 0 95 4a 54
        E 343 85 46 00
        E 0 85 46 00
        E 0 95 59 54
        E 0 95 4a 54
        E 0 96 4a 54
        E 0 96 59 54
        E 0 96 59 54
        E 343 85 4a 00
        E 0 95 3a 54
        E 0 95 3a 54
        E 0 95 3a 54
        E 0 95 4a 53
        E 0 95 4a 53
        E 0 95 4a 54
        E 0 95 4a 54
        E 343 85 59 00
        E 0 85 4a 00
        E 0 86 4a 00
        E 0 86 59 00
        E 0 86 59 00
        E 0 95 3a 54
        E 0 95 40 54
        E 0 95 3a 54
        E 0 95 3a 54
        E 0 95 3a 54
        E 0 95 3a 55
        E 0 97 37 54
        E 343 85 3a 00
        E 0 85 3a 00
        E 0 85 3a 00
        E 0 85 4a 00
        E 0 85 4a 00
        E 0 85 4a 00
        E 0 85 4a 00
        E 0 95 32 54
        E 0 95 32 53
        E 0 95 32 54
        E 0 95 4a 54
        E 0 95 4a 54
        E 0 95 4a 54
        E 0 95 34 54
        E 343 85 3a 00
        E 0 85 40 00
        E 0 85 3a 00
        E 0 85 3a 00
        E 0 85 3a 00
        E 0 85 3a 00
        E 0 87 37 00
        E 0 95 4a 54
        E 343 85 32 00
        E 0 85 32 00
        E 0 85 32 00
        E 0 85 4a 00
        E 0 85 4a 00
        E 0 85 4a 00
        E 0 85 34 00
        E 0 95 3a 54
        E 0 95 37 54
        E 0 96 3e 54
        E 0 96 3e 54
        E 343 85 4a 00
        E 0 95 46 54
        E 0 95 46 54
        E 0 95 4a 53
        E 0 95 4a 54
        E 0 95 4a 54
        E 343 85 3a 00
        E 0 85 37 00
        E 0 86 3e 00
        E 0 86 3e 00
        E 0 95 4a 54
        E 0 95 41 54
        E 0 95 41 54
        E 0 95 41 54
        E 0 95 4a 54
        E 343 85 46 00
        E 0 85 46 00
        E 0 85 4a 00
        E 0 85 4a 00
        E 0 85 4a 00
        E 0 95 4a 55
        E 0 95 32 54
        E 0 95 32 55
        E 0 95 3e 54
        E 0 96 3e 55
        E 343 85 4a 00
        E 0 85 41 00
        E 0 85 41 00
        E 0 85 41 00
        E 0 85 4a 00
        E 0 94 41 55
        E 0 95 3a 55
        E 0 95 4a 55
        E 0 95 4a 55
        E 0 96 3e 55
        E 343 85 4a 00
        E 0 85 32 00
        E 0 85 32 00
        E 0 85 3e 00
        E 0 86 3e 00
        E 0 95 4c 54
        E 0 95 3a 55
        E 0 96 3e 55
        E 343 84 41 00
        E 0 85 3a 00
        E 0 85 4a 00
        E 0 85 4a 00
        E 0 86 3e 00
        E 0 95 4a 54
        E 0 95 4c 54
        E 343 85 4c 00
        E 0 85 3a 00
        E 0 96 3e 54
        E 343 85 4a 00
        E 0 85 4c 00
        E 0 95 3e 54
        E 0 97 3e 52
        E 0 97 3e 53
        E 343 86 3e 00
        E 0 86 3e 00
        E 0 95 3e 54
        E 0 95 3e 54
        E 343 85 3e 00
        E 0 87 3e 00
        E 0 87 3e 00
        E 343 85 3e 00
        E 0 85 3e 00
        E 1372 90 3e 53
        E 343 95 4d 54
        E 343 80 3e 00
        E 343 85 4d 00
        E 344 95 3a 54
        E 0 96 3e 54
        E 0 96 3e 54
        E 343 95 34 53
        E 0 95 34 52
        E 0 95 34 53
        E 0 95 34 53
        E 0 95 34 53
        E 0 95 34 53
        E 0 95 34 53
        E 0 95 34 53
        E 0 95 34 53
        E 0 95 34 53
        E 343 85 3a 00
        E 0 95 3a 54
        E 0 96 3e 54
        E 343 85 34 00
        E 0 85 34 00
        E 0 85 34 00
        E 0 85 34 00
        E 0 85 34 00
        E 0 85 34 00
        E 0 85 34 00
        E 0 85 34 00
        E 0 85 34 00
        E 0 85 34 00
        E 0 91 3e 53
        E 343 86 3e 00
        E 0 86 3e 00
        E 0 85 3a 00
        E 0 86 3e 00
        E 0 95 59 54
        E 0 96 3e 54
        E 0 96 3e 54
        E 343 81 3e 00
        E 0 95 3a 54
        E 0 96 3e 54
        E 343 85 59 00
        E 0 86 3e 00
        E 0 86 3e 00
        E 0 95 2e 53
        E 0 95 2e 53
        E 0 95 2e 53
        E 0 95 32 54
        E 343 85 3a 00
        E 0 86 3e 00
        E 0 95 3a 54
        E 343 85 2e 00
        E 0 85 2e 00
        E 0 85 2e 00
        E 0 85 32 00
        E 0 96 3e 54
        E 343 85 3a 00
        E 343 86 3e 00
        E 0 95 26 54
        E 343 90 5b 54
        E 343 85 26 00
        E 0 95 3a 54
        E 0 95 3a 54
        E 343 80 5b 00
        E 0 95 3e 54
        E 0 95 26 54
        E 343 85 3a 00
        E 0 85 3a 00
        E 0 95 3a 54
        E 343 85 3e 00
        E 0 85 26 00
        E 343 85 3a 00
        E 343 95 3a 54
        E 343 95 32 54
        E 0 95 32 54
        E 0 95 26 53
        E 0 95 26 53
        E 0 95 26 53
        E 0 95 26 54
        E 0 95 26 54
        E 0 95 26 54
        E 343 85 3a 00
        E 0 95 32 54
        E 0 95 32 54
        E 0 95 32 54
        E 0 95 32 54
        E 343 85 32 00
        E 0 85 32 00
        E 0 85 26 00
        E 0 85 26 00
        E 0 85 26 00
        E 0 85 26 00
        E 0 85 26 00
        E 0 85 26 00
        E 0 95 3a 54
        E 343 85 32 00
        E 0 85 32 00
        E 0 85 32 00
        E 0 85 32 00
        E 0 95 34 54
        E 0 95 3a 54
        E 343 85 3a 00
        E 0 90 3e 54
        E 0 95 3a 54
        E 0 95 3a 54
        E 0 95 3a 54
        E 343 85 34 00
        E 0 85 3a 00
        E 0 95 2e 53
        E 0 95 2e 53
        E 0 95 2e 53
        E 0 95 2e 53
        E 0 95 2e 53
        E 0 95 2e 53
        E 0 95 2e 54
        E 343 80 3e 00
        E 0 85 3a 00
        E 0 85 3a 00
        E 0 85 3a 00
        E 0 95 26 54
        E 0 95 26 54
        E 0 95 26 54
        E 343 85 2e 00
        E 0 85 2e 00
        E 0 85 2e 00
        E 0 85 2e 00
        E 0 85 2e 00
        E 0 85 2e 00
        E 0 85 2e 00
        E 0 94 3a 54
        E 343 85 26 00
        E 0 85 26 00
        E 0 85 26 00
        E 0 95 3a 54
        E 0 95 3a 54
        E 343 84 3a 00
        E 0 95 2e 54
        E 343 85 3a 00
        E 0 85 3a 00
        E 0 94 3a 54
        E 0 95 3a 54
        E 343 85 2e 00
        E 0 95 2e 53
        E 0 95 2e 54
        E 0 95 2e 54
        E 343 84 3a 00
        E 0 85 3a 00
        E 0 95 3a 54
        E 343 85 2e 00
        E 0 85 2e 00
        E 0 85 2e 00
        E 0 91 3e 53
        E 0 91 3e 53
        E 343 85 3a 00
        E 343 81 3e 00
        E 0 81 3e 00
        E 0 95 3a 54
        E 343 96 3e 54
        E 0 97 59 53
        E 686 86 3e 00
        E 0 87 59 00
        E 0 94 3a 54
        E 0 94 3a 54
        E 0 95 3a 54
        E 344 85 3a 00
        E 0 95 3a 54
        E 343 84 3a 00
        E 0 84 3a 00
        E 0 85 3a 00
        E 0 95 3a 54
        E 0 95 3a 54
        E 0 95 3a 54
        E 0 95 3a 54
        E 343 85 3a 00
        E 0 90 3e 54
        E 0 90 3e 54
        E 0 90 3e 54
        E 0 95 3a 54
        E 0 97 3e 54
        E 343 85 3a 00
        E 0 85 3a 00
        E 0 85 3a 00
        E 0 85 3a 00
        E 0 90 3e 54
        E 0 95 3a 54
        E 343 80 3e 00
        E 0 80 3e 00
        E 0 80 3e 00
        E 0 85 3a 00
        E 0 87 3e 00
        E 0 94 3a 54
        E 343 80 3e 00
        E 0 85 3a 00
        E 0 94 3a 54
        E 0 95 3a 54
        E 0 95 34 53
        E 343 84 3a 00
        E 0 95 3a 54
        E 343 84 3a 00
        E 0 85 3a 00
        E 0 85 34 00
        E 0 94 3a 54
        E 0 95 3a 54
        E 343 85 3a 00
        E 343 84 3a 00
        E 0 94 3a 54
        E 343 94 3a 53
        E 343 85 3a 00
        E 0 84 3a 00
        E 0 90 3e 52
        E 0 90 3e 53
        E 0 90 3e 53
        E 343 84 3a 00
        E 0 95 3a 54
        E 0 95 3a 54
        E 0 95 3a 54
        E 0 95 3a 54
        E 343 80 3e 00
        E 0 80 3e 00
        E 0 80 3e 00
        E 0 94 3a 53
        E 0 95 59 53
        E 0 96 59 53
        E 343 85 3a 00
        E 0 85 3a 00
        E 0 85 3a 00
        E 0 85 3a 00
        E 0 95 59 53
        E 343 84 3a 00
        E 0 85 59 00
        E 0 86 59 00
        E 0 90 3e 53
        E 343 85 59 00
        E 0 95 3a 53
        E 0 96 40 53
        E 0 96 40 53
        E 343 80 3e 00
        E 0 90 3e 53
        E 0 95 3a 53
        E 343 85 3a 00
        E 0 86 40 00
        E 0 86 40 00
        E 0 90 3e 53
        E 0 90 3e 53
        E 0 90 3e 53
        E 0 91 3e 53
        E 0 95 3a 53
        E 343 80 3e 00
        E 0 90 3e 53
        E 0 94 3a 53
        E 0 95 3a 53
        E 343 80 3e 00
        E 0 80 3e 00
        E 0 80 3e 00
        E 0 81 3e 00
        E 0 85 3a 00
        E 0 95 3a 53
        E 0 95 59 53
        E 343 85 3a 00
        E 0 80 3e 00
        E 0 84 3a 00
        E 0 85 3a 00
        E 0 94 3a 53
        E 0 95 3a 53
        E 343 85 3a 00
        E 0 94 3a 54
        E 343 84 3a 00
        E 0 85 3a 00
        E 0 94 3a 53
        E 0 95 3a 53
        E 343 85 59 00
        E 0 84 3a 00
        E 0 90 3e 52
        E 0 90 3e 52
        E 343 84 3a 00
        E 0 85 3a 00
        E 0 91 3e 52
        E 343 80 3e 00
        E 0 80 3e 00
        E 0 90 3e 51
        E 0 90 3e 53
        E 0 91 3e 51
        E 343 81 3e 00
        E 0 90 3e 53
        E 0 95 3a 53
        E 0 95 3a 53
        E 0 95 3a 53
        E 343 80 3e 00
        E 0 80 3e 00
        E 0 81 3e 00
        E 0 95 3a 53
        E 343 80 3e 00
        E 0 85 3a 00
        E 0 85 3a 00
        E 0 85 3a 00
        E 0 95 3a 53
        E 0 95 3a 53
        E 343 85 3a 00
        E 0 90 3e 53
        E 0 90 3e 53
        E 0 90 3e 53
        E 0 96 3a 53
        E 343 85 3a 00
        E 0 85 3a 00
        E 0 91 3e 53
        E 0 95 3a 54
        E 0 96 3e 54
        E 343 80 3e 00
        E 0 80 3e 00
        E 0 80 3e 00
        E 0 86 3a 00
        E 343 81 3e 00
        E 0 85 3a 00
        E 0 86 3e 00
        E 0 91 3e 52
        E 0 91 3e 53
        E 0 91 3e 53
        E 343 95 3a 54
        E 0 96 3a 54
        E 343 81 3e 00
        E 0 81 3e 00
        E 0 81 3e 00
        E 343 85 3a 00
        E 0 86 3a 00
        E 0 95 3a 54
        E 0 95 3a 54
        E 344 90 3e 54
        E 343 85 3a 00
        E 0 85 3a 00
        E 343 80 3e 00
        E 0 90 3e 53
        E 686 80 3e 00
        E 1029 95 3a 54
        E 343 95 3a 54
        E 0 95 3a 54
        E 0 95 3a 54
        E 343 85 3a 00
        E 0 95 3a 54
        E 0 96 3a 54
        E 343 85 3a 00
        E 0 85 3a 00
        E 0 85 3a 00
        E 0 95 3a 54
        E 0 95 3a 54
        E 343 85 3a 00
        E 0 86 3a 00
        E 0 95 3a 54
        E 343 85 3a 00
        E 0 85 3a 00
        E 0 95 3a 54
        E 343 85 3a 00
        E 0 95 3a 54
        E 343 85 3a 00
        E 343 85 3a 00
        E 0 90 5b 54
        E 0 95 3a 54
        E 0 96 3e 53
        E 343 95 3a 54
        E 0 96 59 53
        E 343 80 5b 00
        E 0 85 3a 00
        E 0 86 3e 00
        E 0 90 5b 53
        E 0 95 3a 54
        E 0 95 3a 54
        E 343 85 3a 00
        E 0 86 59 00
        E 0 90 59 54
        E 0 95 3a 54
        E 343 80 5b 00
        E 0 85 3a 00
        E 0 85 3a 00
        E 0 90 59 53
        E 0 95 3a 54
        E 343 80 59 00
        E 0 85 3a 00
        E 343 80 59 00
        E 0 85 3a 00
        E 0 95 3a 54
        E 0 96 59 54
        E 343 96 3a 54
        E 0 96 59 54
        E 343 86 59 00
        E 0 94 3a 54
        E 0 95 3a 54
        E 343 86 3a 00
        E 0 86 59 00
        E 0 94 3a 54
        E 0 96 3a 54
        E 343 85 3a 00
        E 0 84 3a 00
        E 0 85 3a 00
        E 0 94 3a 54
        E 0 94 3a 54
        E 343 84 3a 00
        E 0 86 3a 00
        E 0 94 3a 54
        E 0 94 3a 54
        E 0 95 3a 54
        E 343 84 3a 00
        E 0 84 3a 00
        E 0 94 3a 54
        E 343 84 3a 00
        E 0 85 3a 00
        E 0 94 3a 54
        E 0 95 3a 54
        E 343 84 3a 00
        E 0 94 3a 54
        E 0 94 3a 54
        E 343 84 3a 00
        E 0 84 3a 00
        E 0 85 3a 00
        E 343 84 3a 00
        E 0 84 3a 00
        E 0 95 3a 54
        E 0 95 3a 54
        E 686 85 3a 00
        E 0 85 3a 00
        E 0 95 3a 54
        E 343 95 3a 54
        E 343 85 3a 00
        E 0 96 3a 54
        E 344 85 3a 00
        E 0 94 3a 54
        E 343 86 3a 00
        E 0 95 3a 54
        E 343 84 3a 00
        E 0 94 3a 54
        E 343 85 3a 00
        E 343 84 3a 00
        E 0 95 3a 54
        E 343 95 3a 54
        E 343 85 3a 00
        E 0 94 3a 54
        E 343 85 3a 00
        E 343 84 3a 00
        E 0 94 3a 54
        E 0 95 3a 54
        E 686 84 3a 00
        E 0 85 3a 00
        E 0 94 3a 54
        E 0 95 3a 54
        E 343 94 3a 54
        E 0 95 39 54
        E 343 85 3a 00
        E 343 84 3a 00
        E 0 85 39 00
        E 0 94 3a 54
        E 343 84 3a 00
        E 0 94 3a 54
        E 0 95 39 54
        E 343 84 3a 00
        E 343 84 3a 00
        E 0 85 39 00
        E 0 90 59 53
        E 0 90 59 52
        E 0 90 59 52
        E 0 90 59 53
        E 343 90 59 53
        E 0 90 59 53
        E 0 90 59 53
        E 0 94 3a 54
        E 0 94 3a 54
        E 0 94 3a 54
        E 0 95 3a 54
        E 343 80 59 00
        E 0 90 5d 54
        E 0 90 5d 53
        E 0 90 5d 54
        E 0 90 5d 54
        E 0 90 59 54
        E 343 80 59 00
        E 0 80 59 00
        E 0 80 59 00
        E 0 84 3a 00
        E 0 84 3a 00
        E 0 84 3a 00
        E 0 85 3a 00
        E 0 90 5d 54
        E 0 90 5d 54
        E 0 95 3a 54
        E 343 80 59 00
        E 0 80 59 00
        E 0 80 59 00
        E 0 80 5d 00
        E 0 80 5d 00
        E 0 80 5d 00
        E 0 80 5d 00
        E 0 80 59 00
        E 0 94 3a 54
        E 0 94 3a 54
        E 0 95 3a 54
        E 0 95 3a 54
        E 343 80 5d 00
        E 0 80 5d 00
        E 0 85 3a 00
        E 343 84 3a 00
        E 0 84 3a 00
        E 0 85 3a 00
        E 0 85 3a 00
        E 343 95 3a 54
        E 686 85 3a 00
        E 686 95 3a 53
        E 0 95 3a 53
        E 343 91 59 53
        E 0 91 59 53
        E 343 85 3a 00
        E 0 85 3a 00
        E 0 91 59 53
        E 343 81 59 00
        E 0 81 59 00
        E 0 94 3a 54
        E 0 95 3a 54
        E 0 95 3a 54
        E 0 95 3a 54
        E 343 81 59 00
        E 0 94 3a 54
        E 0 95 3a 54
        E 0 95 3a 54
        E 0 95 3a 54
        E 0 97 35 54
        E 343 84 3a 00
        E 0 85 3a 00
        E 0 85 3a 00
        E 0 85 3a 00
        E 0 95 3a 54
        E 0 95 3a 54
        E 343 84 3a 00
        E 0 85 3a 00
        E 0 85 3a 00
        E 0 85 3a 00
        E 0 87 35 00
        E 343 85 3a 00
        E 0 85 3a 00
        E 0 95 3a 54
        E 343 95 52 53
        E 0 95 35 53
        E 343 85 3a 00
        E 0 94 3a 54
        E 344 85 52 00
        E 0 85 35 00
        E 0 95 3a 53
        E 343 84 3a 00
        E 343 85 3a 00
        E 0 95 3a 53
        E 686 85 3a 00
        E 343 95 3a 53
        E 343 95 3a 54
        E 0 95 3a 54
        E 343 85 3a 00
        E 0 91 3c 53
        E 343 85 3a 00
        E 0 85 3a 00
        E 0 91 3c 53
        E 0 95 3a 53
        E 343 81 3c 00
        E 0 91 59 53
        E 343 81 3c 00
        E 0 85 3a 00
        E 0 90 41 53
        E 0 90 41 53
        E 343 81 59 00
        E 343 80 41 00
        E 0 80 41 00
        E 0 91 3c 51
        E 0 91 3c 52
        E 343 91 3e 51
        E 0 91 3e 51
        E 0 91 3e 51
        E 343 81 3c 00
        E 0 81 3c 00
        E 0 90 51 53
        E 343 81 3e 00
        E 0 81 3e 00
        E 0 81 3e 00
        E 343 80 51 00
        E 0 91 3c 53
        E 686 81 3c 00
        E 0 94 3a 53
        E 343 94 3a 54
        E 343 84 3a 00
        E 343 84 3a 00
        E 0 94 3a 54
        E 686 84 3a 00
        E 343 90 3c 54
        E 343 94 3a 54
        E 343 80 3c 00
        E 343 84 3a 00
        E 343 95 39 54
        E 343 94 35 54
        E 343 85 39 00
        E 0 95 3a 54
        E 343 84 35 00
        E 0 95 3a 54
        E 0 95 3c 54
        E 343 95 3a 54
        E 343 85 3a 00
        E 0 85 3c 00
        E 343 85 3a 00
        E 0 85 3a 00
        E 686 95 39 54
        E 344 91 3c 54
        E 343 85 39 00
        E 343 81 3c 00
        E 1715 94 3a 54
        E 0 95 3a 54
        E 343 95 3a 54
        E 343 84 3a 00
        E 0 85 3a 00
        E 0 95 3a 54
        E 343 85 3a 00
        E 0 95 3a 54
        E 343 85 3a 00
        E 343 85 3a 00
        E 686 95 3a 54
        E 343 95 3a 54
        E 343 95 3a 54
        E 343 85 3a 00
        E 0 90 3e 54
        E 343 85 3a 00
        E 343 80 3e 00
        E 0 91 59 54
        E 343 85 3a 00
        E 343 81 59 00
        E 0 91 3c 52
        E 686 81 3c 00
        E 343 95 3a 53
        E 0 95 3a 53
        E 343 97 59 53
        E 343 85 3a 00
        E 0 85 3a 00
        E 0 91 3c 53
        E 343 87 59 00
        E 0 94 3a 54
        E 343 81 3c 00
        E 0 94 3a 54
        E 0 95 3a 54
        E 0 95 3a 54
        E 0 95 3c 54
        E 343 84 3a 00
        E 343 84 3a 00
        E 0 85 3a 00
        E 0 85 3a 00
        E 0 85 3c 00
        E 1029 90 3c 54
        E 0 95 3a 54
        E 343 94 3a 54
        E 343 80 3c 00
        E 0 85 3a 00
        E 344 84 3a 00
        E 686 94 3a 55
        E 343 95 3a 54
        E 343 84 3a 00
        E 0 95 3a 54
        E 343 85 3a 00
        E 0 91 3c 54
        E 343 85 3a 00
        E 0 94 3a 54
        E 343 81 3c 00
        E 0 95 3a 54
        E 343 84 3a 00
        E 343 85 3a 00
        E 343 95 3a 55
        E 0 95 39 55
        E 343 94 3a 54
        E 343 85 3a 00
        E 0 85 39 00
        E 0 95 39 54
        E 343 84 3a 00
        E 0 95 3a 54
        E 343 85 39 00
        E 0 91 3c 54
        E 0 94 3a 54
        E 343 85 3a 00
        E 0 95 3a 55
        E 343 81 3c 00
        E 0 84 3a 00
        E 0 94 3a 55
        E 343 85 3a 00
        E 0 94 3a 54
        E 343 84 3a 00
        E 343 84 3a 00
        E 0 95 3a 55
        E 343 91 3c 55
        E 0 95 3a 55
        E 343 85 3a 00
        E 0 94 3a 55
        E 343 81 3c 00
        E 0 85 3a 00
        E 0 90 59 55
        E 343 84 3a 00
        E 343 80 59 00
        E 0 95 35 54
        E 0 95 3a 55
        E 343 94 3a 55
        E 0 95 3a 55
        E 343 85 35 00
        E 0 85 3a 00
        E 343 84 3a 00
        E 686 85 3a 00
        E 0 91 3c 55
        E 0 94 3a 55
        E 343 95 3a 55
        E 343 81 3c 00
        E 0 84 3a 00
        E 0 95 3a 53
        E 0 95 3a 54
        E 0 95 3a 55
        E 343 85 3a 00
        E 0 91 3c 55
        E 343 85 3a 00
        E 0 85 3a 00
        E 0 85 3a 00
        E 0 95 3a 55
        E 0 95 3a 55
        E 343 81 3c 00
        E 0 94 3a 55
        E 343 85 3a 00
        E 0 85 3a 00
        E 343 84 3a 00
        E 1030 95 3a 55
        E 0 95 3a 55
        E 343 94 3a 55
        E 0 95 3a 55
        E 0 95 3a 55
        E 343 85 3a 00
        E 0 95 3a 55
        E 0 95 3a 55
        E 343 84 3a 00
        E 0 85 3a 00
        E 0 85 3a 00
        E 0 95 3a 55
        E 0 95 3a 55
        E 343 85 3a 00
        E 0 85 3a 00
        E 343 85 3a 00
        E 0 85 3a 00
        E 0 95 3a 55
        E 686 85 3a 00
        E 0 95 3a 55
        E 343 85 3a 00
        E 343 85 3a 00
        E 0 94 3a 55
        E 0 95 3a 55
        E 343 95 3a 55
        E 343 84 3a 00
        E 0 85 3a 00
        E 343 85 3a 00
        E 1029 96 59 54
        E 343 95 3a 55
        E 0 95 39 55
        E 343 86 59 00
        E 0 91 3c 54
        E 0 91 3c 54
        E 0 91 3c 55
        E 343 85 3a 00
        E 0 85 39 00
        E 0 91 59 55
        E 0 95 3a 55
        E 343 81 3c 00
        E 0 81 3c 00
        E 0 81 3c 00
        E 0 95 3a 55
        E 0 95 3a 55
        E 0 95 3a 55
        E 343 81 59 00
        E 0 85 3a 00
        E 0 95 3a 55
        E 343 85 3a 00
        E 0 85 3a 00
        E 0 85 3a 00
        E 343 85 3a 00
        E 0 95 39 56
        E 343 95 3a 56
        E 343 85 39 00
        E 0 95 3a 55
        E 343 85 3a 00
        E 343 85 3a 00
        E 1029 95 3a 56
        E 686 85 3a 00
        E 0 94 39 56
        E 343 95 59 54
        E 343 84 39 00
        E 344 85 59 00
        E 1029 91 3c 55
        E 686 81 3c 00
        E 1372 95 3a 55
        E 686 85 3a 00
        E 343 91 59 55
        E 686 81 59 00
        E 343 95 3a 56
        E 343 95 3a 56
        E 0 95 3a 56
        E 343 85 3a 00
        E 0 95 3a 56
        E 343 85 3a 00
        E 0 85 3a 00
        E 0 95 3a 55
        E 343 85 3a 00
        E 0 95 3a 56
        E 343 85 3a 00
        E 343 85 3a 00
        E 0 95 3a 56
        E 0 95 3a 56
        E 343 95 3a 56
        E 343 85 3a 00
        E 0 85 3a 00
        E 343 85 3a 00
        E 0 95 3a 56
        E 686 85 3a 00
        E 1715 95 3a 55
        E 686 85 3a 00
        E 343 95 3a 55
        E 343 95 3a 55
        E 343 85 3a 00
        E 344 85 3a 00
        E 686 95 3a 55
        E 343 95 3a 54
        E 0 95 3a 54
        E 343 85 3a 00
        E 0 95 3a 55
        E 343 85 3a 00
        E 0 85 3a 00
        E 343 85 3a 00
        E 343 97 51 55
        E 686 87 51 00
        E 343 90 59 55
        E 0 96 3a 54
        E 343 95 3a 55
        E 0 95 3a 55
        E 343 80 59 00
        E 0 86 3a 00
        E 0 95 3a 54
        E 0 95 3a 55
        E 0 95 3a 55
        E 343 85 3a 00
        E 0 85 3a 00
        E 343 85 3a 00
        E 0 85 3a 00
        E 0 85 3a 00
        E 0 95 3a 56
        E 686 85 3a 00
        E 343 95 3a 56
        E 343 91 3c 56
        E 343 85 3a 00
        E 0 91 26 55
        E 0 95 35 55
        E 343 81 3c 00
        E 343 81 26 00
        E 0 85 35 00
        E 0 94 3c 56
        E 686 84 3c 00
        E 0 91 59 55
        E 686 81 59 00
        E 0 92 3c 56
        E 343 94 3a 55
        E 343 82 3c 00
        E 343 84 3a 00
        E 1715 95 51 56
        E 686 85 51 00
        E 0 95 3a 56
        E 343 95 3a 56
        E 0 95 34 55
        E 344 95 3a 56
        E 343 85 3a 00
        E 0 85 34 00
        E 343 85 3a 00
        E 0 85 3a 00
        E 343 96 51 55
        E 0 96 51 55
        E 343 96 51 55
        E 343 86 51 00
        E 0 86 51 00
        E 0 94 39 55
        E 343 86 51 00
        E 343 84 39 00
        E 2058 90 5b 51
        E 0 90 5b 51
        E 0 90 5b 52
        E 0 90 5b 51
        E 0 90 5b 52
        E 0 91 5b 51
        E 0 91 5b 51
        E 343 96 58 53
        E 343 80 5b 00
        E 0 80 5b 00
        E 0 80 5b 00
        E 0 80 5b 00
        E 0 80 5b 00
        E 0 81 5b 00
        E 0 81 5b 00
        E 0 90 5b 52
        E 0 90 5b 53
        E 343 86 58 00
        E 0 97 5b 52
        E 0 97 5b 53
        E 0 97 5b 53
        E 343 80 5b 00
        E 0 80 5b 00
        E 0 90 5b 52
        E 0 90 5b 52
        E 0 90 5b 52
        E 0 96 5d 52
        E 0 96 5d 52
        E 0 96 5d 52
        E 0 97 5b 52
        E 0 97 5d 52
        E 343 87 5b 00
        E 0 87 5b 00
        E 0 87 5b 00
        E 0 90 5b 51
        E 0 90 5b 51
        E 0 90 5b 52
        E 0 90 5b 52
        E 0 96 58 53
        E 0 96 5b 50
        E 0 96 5b 53
        E 0 96 5b 53
        E 0 96 5b 53
        E 343 80 5b 00
        E 0 80 5b 00
        E 0 80 5b 00
        E 0 86 5d 00
        E 0 86 5d 00
        E 0 86 5d 00
        E 0 87 5b 00
        E 0 87 5d 00
        E 0 95 5d 54
        E 343 80 5b 00
        E 0 80 5b 00
        E 0 80 5b 00
        E 0 80 5b 00
        E 0 86 58 00
        E 0 86 5b 00
        E 0 86 5b 00
        E 0 86 5b 00
        E 0 86 5b 00
        E 343 85 5d 00
        E 343 95 3a 54
        E 686 85 3a 00
        E 0 91 3c 54
        E 343 90 37 54
        E 343 81 3c 00
        E 0 90 58 53
        E 343 80 37 00
        E 0 91 3c 53
        E 0 91 3c 53
        E 343 80 58 00
        E 343 81 3c 00
        E 0 81 3c 00
        E 0 95 3a 55
        E 343 94 39 55
        E 343 85 3a 00
        E 343 84 39 00
        E 343 96 51 55
        E 686 86 51 00
        E 344 90 37 55
        E 343 94 3a 55
        E 343 80 37 00
        E 343 84 3a 00
        E 1372 95 37 55
        E 0 95 4f 55
        E 343 94 4f 55
        E 0 94 4f 55
        E 343 85 37 00
        E 0 85 4f 00
        E 0 94 4f 56
        E 343 84 4f 00
        E 0 84 4f 00
        E 0 95 37 56
        E 343 84 4f 00
        E 343 85 37 00
        E 1029 94 59 55
        E 686 84 59 00
        E 0 95 51 56
        E 343 95 37 56
        E 343 85 51 00
        E 343 85 37 00
        E 343 91 3e 56
        E 343 95 37 56
        E 343 81 3e 00
        E 0 91 3e 56
        E 343 85 37 00
        E 0 95 35 55
        E 0 95 35 55
        E 343 81 3e 00
        E 343 85 35 00
        E 0 85 35 00
        E 0 95 35 56
        E 343 91 35 56
        E 0 91 35 56
        E 343 85 35 00
        E 343 81 35 00
        E 0 81 35 00
        E 686 95 51 56
        E 343 96 51 56
        E 343 85 51 00
        E 0 95 51 56
        E 343 86 51 00
        E 0 95 51 56
        E 343 85 51 00
        E 0 95 35 56
        E 343 85 51 00
        E 0 95 51 56
        E 344 85 35 00
        E 0 94 59 56
        E 343 85 51 00
        E 343 84 59 00
        E 343 95 51 57
        E 343 95 3a 56
        E 0 95 52 56
        E 343 85 51 00
        E 0 95 3a 54
        E 0 95 3a 55
        E 343 85 3a 00
        E 0 85 52 00
        E 0 91 3e 54
        E 0 91 3e 54
        E 0 91 3e 54
        E 0 91 3e 54
        E 0 91 3e 54
        E 0 91 3e 54
        E 343 90 3e 55
        E 343 81 3e 00
        E 0 81 3e 00
        E 0 81 3e 00
        E 0 81 3e 00
        E 0 81 3e 00
        E 0 81 3e 00
        E 343 85 3a 00
        E 0 85 3a 00
        E 0 80 3e 00
        E 1372 95 51 56
        E 686 85 51 00
        E 686 95 52 56
        E 686 85 52 00
        E 3773 95 51 56
        E 343 94 59 55
        E 343 85 51 00
        E 343 84 59 00
        E 686 91 3e 55
        E 0 95 52 54
        E 343 92 3e 54
        E 344 81 3e 00
        E 0 85 52 00
        E 343 82 3e 00
        E 343 91 3e 56
        E 686 81 3e 00
        E 686 91 3e 53
        E 343 95 3a 55
        E 343 81 3e 00
        E 0 94 3a 55
        E 343 85 3a 00
        E 343 84 3a 00
        E 0 95 3a 54
        E 343 91 3e 55
        E 0 95 3a 54
        E 343 85 3a 00
        E 0 95 3a 55
        E 343 81 3e 00
        E 0 85 3a 00
        E 0 96 3a 54
        E 343 85 3a 00
        E 0 91 3e 55
        E 343 86 3a 00
        E 343 81 3e 00
        E 1029 91 3a 54
        E 0 96 3a 54
        E 0 96 3a 55
        E 343 95 52 55
        E 343 81 3a 00
        E 0 86 3a 00
        E 0 86 3a 00
        E 0 91 3e 55
        E 343 85 52 00
        E 0 91 3e 55
        E 686 81 3e 00
        E 343 81 3e 00
        E 686 91 3e 55
        E 686 81 3e 00
        E 343 96 3e 55
        E 686 86 3e 00
        E 343 91 3e 56
        E 343 95 35 56
        E 0 95 3e 56
        E 343 81 3e 00
        E 344 85 35 00
        E 0 85 3e 00
        E 0 91 3e 53
        E 686 81 3e 00
        E 1715 95 51 55
        E 686 85 51 00
        E 1372 91 3e 56
        E 343 95 51 57
        E 343 81 3e 00
        E 0 95 52 57
        E 343 85 51 00
        E 343 85 52 00
        E 686 96 51 56
        E 686 86 51 00
        E 0 95 51 57
        E 686 85 51 00
        E 0 91 3e 57
        E 343 91 3e 55
        E 0 91 3e 55
        E 0 91 3e 55
        E 343 81 3e 00
        E 0 90 59 56
        E 0 91 3e 57
        E 343 81 3e 00
        E 0 81 3e 00
        E 0 81 3e 00
        E 343 80 59 00
        E 0 81 3e 00
        E 0 90 59 54
        E 686 80 59 00
        E 343 91 59 55
        E 686 81 59 00
        E 1029 94 59 55
        E 687 84 59 00
        E 0 93 3e 55
        E 686 83 3e 00
        E 1029 90 3e 57
        E 686 80 3e 00
        E 686 91 59 56
        E 343 91 59 55
        E 0 91 59 55
        E 343 81 59 00
        E 0 91 59 55
        E 343 81 59 00
        E 0 81 59 00
        E 343 81 59 00
        E 343 90 34 55
        E 343 91 59 56
        E 0 97 34 55
        E 343 80 34 00
        E 343 81 59 00
        E 0 87 34 00
        E 343 91 3c 54
        E 343 96 59 56
        E 343 81 3c 00
        E 343 86 59 00
        E 343 95 51 55
        E 343 91 59 55
        E 0 95 39 54
        E 343 85 51 00
        E 343 81 59 00
        E 0 85 39 00
        E 0 91 3c 51
        E 343 91 3e 50
        E 0 91 3e 50
        E 0 91 3e 50
        E 0 91 3c 50
        E 343 81 3c 00
        E 0 91 3e 52
        E 0 91 3e 52
        E 343 81 3e 00
        E 0 81 3e 00
        E 0 81 3e 00
        E 0 81 3c 00
        E 0 96 51 55
        E 0 96 59 55
        E 343 81 3e 00
        E 0 81 3e 00
        E 0 95 39 55
        E 343 86 51 00
        E 0 86 59 00
        E 0 96 51 55
        E 0 96 51 55
        E 343 85 39 00
        E 0 96 51 52
        E 0 96 51 53
        E 0 96 51 54
        E 0 96 51 54
        E 343 86 51 00
        E 0 86 51 00
        E 0 91 59 52
        E 0 91 59 52
        E 343 86 51 00
        E 0 86 51 00
        E 0 86 51 00
        E 0 86 51 00
        E 0 96 51 52
        E 343 81 59 00
        E 0 91 59 51
        E 0 91 59 52
        E 343 86 51 00
        E 0 90 3c 51
        E 0 91 3c 50
        E 0 91 3c 52
        E 0 96 51 55
        E 0 96 51 54
        E 0 96 51 53
        E 0 96 51 55
        E 343 81 59 00
        E 0 81 59 00
        E 0 81 59 00
        E 0 95 51 56
        E 0 96 51 55
        E 344 80 3c 00
        E 0 81 3c 00
        E 0 81 3c 00
        E 0 86 51 00
        E 0 86 51 00
        E 0 86 51 00
        E 0 86 51 00
        E 0 96 51 55
        E 343 85 51 00
        E 0 86 51 00
        E 0 91 59 56
        E 0 96 51 56
        E 343 86 51 00
        E 0 97 51 55
        E 343 81 59 00
        E 0 86 51 00
        E 343 87 51 00
        E 0 97 51 54
        E 343 95 59 55
        E 343 87 51 00
        E 0 95 51 55
        E 0 95 35 55
        E 343 85 59 00
        E 0 95 51 55
        E 343 85 51 00
        E 0 85 35 00
        E 343 85 51 00
        E 0 90 51 55
        E 343 90 51 56
        E 0 96 59 56
        E 343 80 51 00
        E 0 90 51 55
        E 0 90 51 55
        E 0 95 51 55
        E 343 80 51 00
        E 0 86 59 00
        E 0 96 51 54
        E 343 80 51 00
        E 0 80 51 00
        E 0 85 51 00
        E 0 90 51 54
        E 343 86 51 00
        E 0 96 51 54
        E 343 80 51 00
        E 0 90 59 56
        E 0 97 51 56
        E 343 86 51 00
        E 0 96 51 56
        E 343 80 59 00
        E 0 87 51 00
        E 0 90 51 55
        E 343 86 51 00
        E 0 96 51 56
        E 343 80 51 00
        E 0 90 51 55
        E 343 86 51 00
        E 0 91 59 56
        E 343 80 51 00
        E 0 96 51 53
        E 0 96 51 55
        E 343 81 59 00
        E 0 90 51 54
        E 0 90 51 55
        E 343 86 51 00
        E 0 86 51 00
        E 0 90 51 55
        E 343 80 51 00
        E 0 80 51 00
        E 0 90 51 56
        E 0 90 59 56
        E 343 80 51 00
        E 0 90 51 55
        E 0 90 51 56
        E 0 90 51 56
        E 343 80 51 00
        E 0 80 59 00
        E 343 80 51 00
        E 0 80 51 00
        E 0 80 51 00
        E 1029 90 59 57
        E 686 80 59 00
        E 0 91 59 56
        E 343 91 59 57
        E 343 81 59 00
        E 0 91 59 56
        E 343 81 59 00
        E 344 81 59 00
        E 0 91 59 56
        E 0 95 39 56
        E 0 96 59 57
        E 343 95 35 56
        E 343 85 39 00
        E 0 86 59 00
        E 343 85 35 00
        E 0 90 59 55
        E 0 90 59 56
        E 0 91 59 55
        E 686 80 59 00
        E 0 80 59 00
        E 0 81 59 00
        E 0 95 35 55
        E 0 95 35 56
        E 343 81 59 00
        E 0 91 3c 54
        E 0 91 3c 54
        E 0 91 3c 54
        E 0 91 3c 54
        E 343 85 35 00
        E 0 85 35 00
        E 343 81 3c 00
        E 0 81 3c 00
        E 0 81 3c 00
        E 0 81 3c 00
        E 1372 94 59 55
        E 686 84 59 00
        E 0 91 3c 57
        E 686 81 3c 00
        E 0 95 35 56
        E 343 95 39 56
        E 343 85 35 00
        E 343 85 39 00
        E 343 95 39 56
        E 0 95 39 56
        E 343 91 3c 56
        E 343 85 39 00
        E 0 85 39 00
        E 0 91 3c 56
        E 343 81 3c 00
        E 0 95 35 56
        E 343 81 3c 00
        E 0 95 35 56
        E 343 95 39 56
        E 343 85 35 00
        E 0 91 3c 55
        E 343 85 35 00
        E 0 85 39 00
        E 0 91 3c 54
        E 0 91 59 56
        E 343 81 3c 00
        E 0 91 3c 54
        E 0 91 3c 55
        E 0 91 3c 55
        E 343 81 3c 00
        E 0 81 59 00
        E 0 91 59 56
        E 0 91 59 56
        E 0 95 35 56
        E 0 95 39 56
        E 343 81 3c 00
        E 0 81 3c 00
        E 0 81 3c 00
        E 0 95 35 55
        E 343 81 59 00
        E 0 81 59 00
        E 0 85 35 00
        E 0 85 39 00
        E 343 85 35 00
        E 1029 95 35 56
        E 687 85 35 00
        E 343 95 35 55
        E 686 85 35 00
        E 1372 91 59 55
        E 343 95 35 56
        E 0 95 35 56
        E 343 81 59 00
        E 0 91 59 55
        E 0 91 59 56
        E 343 85 35 00
        E 0 85 35 00
        E 0 95 39 56
        E 343 81 59 00
        E 0 81 59 00
        E 343 85 39 00
        E 1029 95 39 55
        E 686 85 39 00
        E 686 91 3c 55
        E 686 81 3c 00
        E 0 91 59 56
        E 0 95 39 56
        E 343 95 35 56
        E 343 81 59 00
        E 0 85 39 00
        E 0 95 35 56
        E 343 85 35 00
        E 0 95 35 56
        E 343 85 35 00
        E 0 95 35 56
        E 0 95 39 56
        E 343 85 35 00
        E 0 95 39 56
        E 0 96 59 56
        E 343 85 35 00
        E 0 85 39 00
        E 0 91 3c 56
        E 0 95 39 56
        E 343 85 39 00
        E 0 86 59 00
        E 0 95 39 56
        E 343 81 3c 00
        E 0 85 39 00
        E 0 95 35 55
        E 343 85 39 00
        E 343 85 35 00
        E 1029 95 39 55
        E 343 96 39 55
        E 344 85 39 00
        E 343 95 39 55
        E 343 94 35 55
        E 343 86 39 00
        E 0 85 39 00
        E 0 95 35 56
        E 343 84 35 00
        E 0 95 35 55
        E 343 85 35 00
        E 0 95 39 55
        E 0 95 39 55
        E 343 85 35 00
        E 343 85 39 00
        E 0 85 39 00
        E 0 95 35 55
        E 343 91 3c 54
        E 0 94 59 54
        E 0 95 39 55
        E 343 85 35 00
        E 0 91 3c 54
        E 0 91 3c 55
        E 0 91 59 55
        E 0 91 3c 55
        E 343 81 3c 00
        E 0 84 59 00
        E 0 85 39 00
        E 343 81 3c 00
        E 0 81 3c 00
        E 0 81 59 00
        E 0 81 3c 00
        E 0 95 39 55
        E 0 95 39 55
        E 343 94 59 55
        E 0 95 39 55
        E 343 85 39 00
        E 0 85 39 00
        E 0 90 59 54
        E 0 91 3c 55
        E 0 91 3c 55
        E 343 84 59 00
        E 0 85 39 00
        E 343 80 59 00
        E 0 81 3c 00
        E 0 81 3c 00
        E 0 95 39 54
        E 343 91 3c 55
        E 0 95 35 55
        E 343 85 39 00
        E 343 81 3c 00
        E 0 85 35 00
        E 0 95 3a 54
        E 0 95 35 54
        E 343 95 3a 53
        E 0 95 3a 54
        E 343 85 35 00
        E 0 94 59 55
        E 343 85 3a 00
        E 0 85 3a 00
        E 0 95 35 53
        E 0 95 3a 54
        E 343 85 3a 00
        E 0 84 59 00
        E 0 95 3a 55
        E 0 95 35 55
        E 343 85 35 00
        E 0 85 3a 00
        E 0 95 3a 54
        E 0 95 3a 55
        E 343 85 3a 00
        E 0 85 35 00
        E 0 96 59 54
        E 343 85 3a 00
        E 0 85 3a 00
        E 343 86 59 00
        E 3087 91 59 54
        E 0 91 59 54
        E 0 91 59 55
        E 0 91 59 53
        E 343 95 35 55
        E 0 95 3a 55
        E 0 95 37 54
        E 0 95 37 55
        E 344 81 59 00
        E 0 81 59 00
        E 0 81 59 00
        E 0 81 59 00
        E 0 95 3a 55
        E 0 95 37 55
        E 343 85 35 00
        E 0 85 3a 00
        E 0 85 37 00
        E 0 85 37 00
        E 0 90 2e 54
        E 0 90 2e 55
        E 0 90 2e 55
        E 0 95 52 55
        E 343 85 3a 00
        E 0 85 37 00
        E 343 80 2e 00
        E 0 80 2e 00
        E 0 80 2e 00
        E 0 85 52 00
        E 0 95 52 56
        E 343 95 52 56
        E 0 95 3a 56
        E 343 85 52 00
        E 0 94 3a 55
        E 0 95 3a 56
        E 343 85 52 00
        E 0 85 3a 00
        E 0 91 3e 56
        E 0 94 3a 55
        E 0 94 3a 56
        E 343 84 3a 00
        E 0 85 3a 00
        E 0 91 3e 55
        E 0 91 3e 55
        E 343 84 3a 00
        E 0 84 3a 00
        E 0 96 35 55
        E 0 96 35 55
        E 0 97 3a 54
        E 343 81 3e 00
        E 0 81 3e 00
        E 343 81 3e 00
        E 0 86 35 00
        E 0 86 35 00
        E 0 87 3a 00
        E 686 94 3a 55
        E 0 94 3a 55
        E 0 95 52 55
        E 0 96 35 55
        E 343 91 3e 55
        E 0 91 3e 55
        E 0 95 3a 54
        E 343 84 3a 00
        E 0 84 3a 00
        E 0 85 52 00
        E 343 81 3e 00
        E 0 81 3e 00
        E 0 95 3a 55
        E 343 86 35 00
        E 0 91 3e 54
        E 343 85 3a 00
        E 0 85 3a 00
        E 0 95 3a 54
        E 343 81 3e 00
        E 0 95 3a 55
        E 343 85 3a 00
        E 0 95 37 55
        E 0 96 29 54
        E 343 85 3a 00
        E 0 96 29 55
        E 343 85 37 00
        E 0 86 29 00
        E 0 91 3e 55
        E 0 95 37 55
        E 0 96 3a 55
        E 343 86 29 00
        E 0 96 3a 55
        E 343 81 3e 00
        E 0 85 37 00
        E 0 86 3a 00
        E 0 95 59 54
        E 343 86 3a 00
        E 0 90 32 54
        E 0 90 32 54
        E 0 97 2e 54
        E 0 97 2e 54
        E 0 97 2e 54
        E 343 85 59 00
        E 0 90 32 54
        E 0 90 32 54
        E 0 90 32 54
        E 0 90 32 54
        E 0 96 3a 54
        E 0 97 35 54
        E 343 80 32 00
        E 0 80 32 00
        E 0 87 2e 00
        E 0 87 2e 00
        E 0 87 2e 00
        E 0 97 32 54
        E 0 97 32 54
        E 343 80 32 00
        E 0 80 32 00
        E 0 80 32 00
        E 0 80 32 00
        E 0 86 3a 00
        E 0 87 35 00
        E 0 97 3a 53
        E 0 97 3a 53
        E 343 87 32 00
        E 0 87 32 00
        E 0 91 3e 51
        E 0 91 3e 52
        E 343 87 3a 00
        E 0 87 3a 00
        E 0 95 59 52
        E 0 96 59 52
        E 343 81 3e 00
        E 0 81 3e 00
        E 343 85 59 00
        E 0 86 59 00
        E 0 91 4f 54
        E 0 95 59 54
        E 0 96 3a 54
        E 0 96 3a 55
        E 0 97 3a 54
        E 0 97 3a 54
        E 0 97 3a 54
        E 343 94 3a 55
        E 0 95 3a 55
        E 0 96 37 55
        E 343 81 4f 00
        E 0 85 59 00
        E 0 86 3a 00
        E 0 86 3a 00
        E 0 87 3a 00
        E 0 87 3a 00
        E 0 87 3a 00
        E 0 95 37 55
        E 343 84 3a 00
        E 0 85 3a 00
        E 0 86 37 00
        E 0 94 3e 54
        E 0 95 39 54
        E 343 85 37 00
        E 0 90 59 54
        E 343 84 3e 00
        E 0 85 39 00
        E 0 90 59 52
        E 0 90 59 53
        E 0 90 59 53
        E 0 91 59 52
        E 344 80 59 00
        E 0 90 59 54
        E 0 91 59 54
        E 343 80 59 00
        E 0 80 59 00
        E 0 80 59 00
        E 0 81 59 00
        E 0 95 3a 55
        E 0 95 35 55
        E 0 96 3a 55
        E 343 80 59 00
        E 0 81 59 00
        E 0 96 39 54
        E 0 96 3a 55
        E 343 85 3a 00
        E 0 85 35 00
        E 0 86 3a 00
        E 0 95 52 55
        E 343 86 39 00
        E 0 86 3a 00
        E 0 94 3a 55
        E 0 95 39 55
        E 343 85 52 00
        E 343 84 3a 00
        E 0 85 39 00
        E 0 95 3a 55
        E 0 95 37 55
        E 343 95 3a 55
        E 343 85 3a 00
        E 0 85 37 00
        E 343 85 3a 00
        E 686 95 3a 55
        E 0 95 3a 55
        E 0 95 3a 55
        E 343 95 39 55
        E 0 95 39 55
        E 0 97 35 55
        E 343 85 3a 00
        E 0 85 3a 00
        E 0 85 3a 00
        E 0 95 39 55
        E 343 85 39 00
        E 0 85 39 00
        E 0 87 35 00
        E 343 85 39 00
        E 0 95 3a 55
        E 0 96 37 55
        E 0 96 39 55
        E 343 95 3a 54
        E 0 96 3a 53
        E 343 85 3a 00
        E 0 86 37 00
        E 0 86 39 00
        E 0 96 39 54
        E 343 85 3a 00
        E 0 86 3a 00
        E 343 86 39 00
        E 0 95 39 54
        E 343 95 37 54
        E 0 97 3c 54
        E 343 85 39 00
        E 0 95 39 54
        E 343 85 37 00
        E 0 87 3c 00
        E 0 95 39 54
        E 0 97 3c 53
        E 343 85 39 00
        E 0 95 39 53
        E 343 85 39 00
        E 0 87 3c 00
        E 343 85 39 00
        E 0 95 39 54
        E 0 95 39 53
        E 343 95 4f 53
        E 0 95 4f 53
        E 0 95 4f 53
        E 0 95 4f 54
        E 0 95 4f 53
        E 343 85 39 00
        E 0 85 39 00
        E 0 96 37 54
        E 0 96 51 54
        E 343 85 4f 00
        E 0 85 4f 00
        E 0 85 4f 00
        E 0 85 4f 00
        E 0 85 4f 00
        E 343 86 37 00
        E 0 86 51 00
        E 343 95 39 54
        E 0 95 37 54
        E 343 95 39 53
        E 343 85 39 00
        E 0 85 37 00
        E 343 85 39 00
        E 0 95 39 54
        E 0 95 39 54
        E 343 90 4f 54
        E 0 95 39 54
        E 0 95 39 54
        E 343 85 39 00
        E 0 85 39 00
        E 0 94 39 53
        E 344 80 4f 00
        E 0 85 39 00
        E 0 85 39 00
        E 0 95 39 54
        E 343 84 39 00
        E 343 85 39 00
        E 343 94 39 54
        E 0 95 39 54
        E 0 95 35 54
        E 343 95 39 54
        E 343 84 39 00
        E 0 85 39 00
        E 0 85 35 00
        E 0 94 39 54
        E 0 95 39 54
        E 343 90 4f 54
        E 0 95 39 54
        E 0 95 37 54
        E 0 96 35 54
        E 343 84 39 00
        E 0 94 39 54
        E 0 94 39 54
        E 0 95 39 54
        E 343 85 39 00
        E 0 80 4f 00
        E 0 85 39 00
        E 0 85 37 00
        E 0 86 35 00
        E 343 85 39 00
        E 0 84 39 00
        E 0 84 39 00
        E 0 90 4f 54
        E 343 95 39 54
        E 0 95 39 54
        E 0 95 39 54
        E 0 96 35 54
        E 0 96 39 54
        E 343 85 39 00
        E 0 80 4f 00
        E 0 91 59 54
        E 0 94 39 54
        E 0 95 37 54
        E 343 85 39 00
        E 0 85 39 00
        E 0 85 39 00
        E 0 86 35 00
        E 0 86 39 00
        E 0 95 37 53
        E 0 95 37 54
        E 343 81 59 00
        E 0 84 39 00
        E 0 85 37 00
        E 0 95 37 54
        E 0 95 39 54
        E 0 95 39 54
        E 343 85 37 00
        E 0 85 37 00
        E 0 95 39 54
        E 343 85 37 00
        E 0 85 39 00
        E 0 85 39 00
        E 0 90 59 51
        E 0 91 59 53
        E 0 95 39 52
        E 0 96 37 51
        E 343 85 39 00
        E 0 95 37 53
        E 0 95 37 53
        E 343 80 59 00
        E 0 81 59 00
        E 0 85 39 00
        E 0 86 37 00
        E 0 94 59 54
        E 343 85 37 00
        E 0 85 37 00
        E 0 90 59 54
        E 0 96 39 54
        E 343 84 59 00
        E 0 95 37 53
        E 0 95 37 54
        E 0 96 39 53
        E 343 80 59 00
        E 0 86 39 00
        E 0 94 39 54
        E 0 95 39 54
        E 0 96 37 54
        E 0 96 39 53
        E 343 85 37 00
        E 0 85 37 00
        E 0 86 39 00
        E 343 84 39 00
        E 0 85 39 00
        E 0 86 37 00
        E 0 86 39 00
        E 343 96 39 54
        E 0 96 39 53
        E 343 95 39 54
        E 0 96 37 54
        E 343 86 39 00
        E 0 86 39 00
        E 0 97 39 54
        E 343 85 39 00
        E 0 86 37 00
        E 0 95 39 54
        E 343 87 39 00
        E 0 97 39 54
        E 343 85 39 00
        E 0 97 39 53
        E 343 87 39 00
        E 343 87 39 00
        E 0 96 39 54
        E 343 95 35 53
        E 0 97 39 52
        E 0 97 39 52
        E 0 97 39 53
        E 343 96 37 53
        E 0 96 39 52
        E 0 97 39 53
        E 343 85 35 00
        E 0 87 39 00
        E 0 87 39 00
        E 0 87 39 00
        E 0 97 39 52
        E 0 97 39 52
        E 343 86 39 00
        E 0 86 39 00
        E 0 87 39 00
        E 343 87 39 00
        E 0 87 39 00
        E 0 90 37 53
        E 343 86 37 00
        E 0 97 37 53
        E 344 80 37 00
        E 0 96 37 53
        E 343 87 37 00
        E 0 90 37 53
        E 343 86 37 00
        E 0 97 39 53
        E 343 80 37 00
        E 0 91 37 53
        E 343 87 39 00
        E 0 95 39 53
        E 0 96 37 53
        E 0 96 39 52
        E 343 81 37 00
        E 0 95 39 53
        E 0 96 37 53
        E 0 96 39 53
        E 0 96 39 53
        E 0 97 39 52
        E 343 85 39 00
        E 0 86 37 00
        E 0 86 39 00
        E 0 90 29 52
        E 0 90 29 52
        E 0 90 29 52
        E 0 90 29 53
        E 0 90 29 52
        E 0 90 29 52
        E 0 90 29 52
        E 0 90 29 52
        E 0 90 29 53
        E 343 86 37 00
        E 0 86 39 00
        E 0 86 39 00
        E 0 87 39 00
        E 0 90 39 53
        E 0 96 39 52
        E 343 80 29 00
        E 0 80 29 00
        E 0 80 29 00
        E 0 80 29 00
        E 0 80 29 00
        E 0 80 29 00
        E 0 80 29 00
        E 0 80 29 00
        E 0 80 29 00
        E 343 85 39 00
        E 0 80 39 00
        E 0 86 39 00
        E 343 97 39 53
        E 343 90 29 51
        E 343 87 39 00
        E 0 91 29 51
        E 0 91 29 52
        E 0 91 29 52
        E 0 97 37 52
        E 343 80 29 00
        E 0 90 29 51
        E 0 90 29 52
        E 0 95 37 52
        E 343 81 29 00
        E 0 81 29 00
        E 0 81 29 00
        E 0 87 37 00
        E 0 96 37 52
        E 343 80 29 00
        E 0 80 29 00
        E 0 91 59 53
        E 343 86 37 00
        E 0 90 39 53
        E 0 95 39 53
        E 0 95 39 53
        E 343 85 37 00
        E 0 81 59 00
        E 0 90 37 53
        E 0 95 39 52
        E 343 80 39 00
        E 0 85 39 00
        E 0 85 39 00
        E 343 80 37 00
        E 0 85 39 00
        E 0 96 39 52
        E 343 95 39 53
        E 343 86 39 00
        E 0 96 37 52
        E 343 85 39 00
        E 0 90 29 53
        E 0 95 39 53
        E 0 95 39 53
        E 343 86 37 00
        E 0 96 37 53
        E 343 80 29 00
        E 0 85 39 00
        E 0 85 39 00
        E 0 95 39 53
        E 0 95 35 53
        E 343 86 37 00
        E 0 90 37 53
        E 0 96 35 53
        E 343 85 39 00
        E 0 85 35 00
        E 0 95 39 52
        E 343 80 37 00
        E 0 86 35 00
        E 0 91 59 51
        E 0 91 59 52
        E 0 91 59 52
        E 0 91 59 52
        E 0 91 59 53
        E 0 96 37 52
        E 343 85 39 00
        E 0 95 39 52
        E 0 95 39 53
        E 0 96 37 53
        E 343 81 59 00
        E 0 81 59 00
        E 0 81 59 00
        E 0 81 59 00
        E 0 81 59 00
        E 0 86 37 00
        E 0 95 51 53
        E 343 85 39 00
        E 0 85 39 00
        E 0 86 37 00
        E 0 95 39 53
        E 0 95 37 53
        E 343 85 51 00
        E 0 95 39 52
        E 343 85 39 00
        E 0 85 37 00
        E 0 95 37 52
        E 0 95 37 52
        E 343 85 39 00
        E 0 95 39 52
        E 0 95 39 52
        E 343 85 37 00
        E 0 85 37 00
        E 343 85 39 00
        E 0 85 39 00
        E 0 95 39 52
        E 0 95 39 53
        E 687 85 39 00
        E 0 85 39 00
        E 0 95 37 52
        E 343 96 35 52
        E 0 97 37 52
        E 343 85 37 00
        E 0 96 37 51
        E 0 96 37 52
        E 343 86 35 00
        E 0 87 37 00
        E 0 96 39 52
        E 343 86 37 00
        E 0 86 37 00
        E 0 95 39 53
        E 343 86 39 00
        E 0 96 37 53
        E 343 85 39 00
        E 0 95 37 52
        E 343 86 37 00
        E 0 94 35 53
        E 0 95 39 50
        E 0 95 39 51
        E 0 95 39 53
        E 343 85 37 00
        E 0 96 37 53
        E 0 96 39 53
        E 343 84 35 00
        E 0 85 39 00
        E 0 85 39 00
        E 0 85 39 00
        E 0 96 39 53
        E 0 96 35 52
        E 343 86 37 00
        E 0 86 39 00
        E 0 96 37 53
        E 0 96 39 53
        E 343 86 39 00
        E 0 86 35 00
        E 0 95 37 53
        E 0 95 35 53
        E 343 86 37 00
        E 0 86 39 00
        E 0 95 37 53
        E 0 96 39 50
        E 0 96 39 52
        E 343 85 37 00
        E 0 85 35 00
        E 0 95 37 53
        E 343 85 37 00
        E 0 86 39 00
        E 0 86 39 00
        E 0 95 35 53
        E 343 85 37 00
        E 0 90 39 53
        E 0 96 37 53
        E 0 96 39 53
        E 343 85 35 00
        E 0 95 35 53
        E 343 80 39 00
        E 0 86 37 00
        E 0 86 39 00
        E 0 95 39 51
        E 0 96 37 52
        E 343 85 35 00
        E 0 96 37 53
        E 0 96 37 52
        E 343 85 39 00
        E 343 86 37 00
        E 0 86 37 00
        E 0 95 39 52
        E 343 86 37 00
        E 0 96 37 53
        E 343 85 39 00
        E 0 96 37 52
        E 0 96 37 53
        E 343 86 37 00
        E 0 96 37 53
        E 343 86 37 00
        E 0 86 37 00
        E 343 86 37 00
        E 343 96 37 51
        E 0 96 39 51
        E 0 96 39 52
        E 686 86 37 00
        E 0 86 39 00
        E 0 86 39 00
        E 0 96 39 53
        E 686 86 39 00
        E 0 97 3c 52
        E 343 90 39 52
        E 0 97 39 52
        E 343 90 37 53
        E 343 80 39 00
        E 0 87 39 00
        E 0 90 39 52
        E 343 87 3c 00
        E 0 80 37 00
        E 343 80 39 00
        E 344 95 39 52
        E 343 90 39 53
        E 0 90 37 53
        E 343 85 39 00
        E 0 91 59 53
        E 343 80 39 00
        E 0 80 37 00
        E 0 90 59 52
        E 343 81 59 00
        E 0 97 37 53
        E 343 80 59 00
        E 0 97 37 52
        E 0 97 37 53
        E 343 87 37 00
        E 0 90 39 53
        E 0 97 35 52
        E 0 97 35 52
        E 343 87 37 00
        E 0 87 37 00
        E 0 90 37 53
        E 0 95 39 53
        E 343 80 39 00
        E 0 87 35 00
        E 0 87 35 00
        E 0 96 37 52
        E 0 96 37 52
        E 343 85 39 00
        E 343 86 37 00
        E 0 86 37 00
        E 0 97 39 52
        E 0 97 39 52
        E 343 80 37 00
        E 0 95 37 53
        E 0 96 37 53
        E 0 97 35 53
        E 343 87 39 00
        E 0 87 39 00
        E 0 95 51 53
        E 0 97 35 53
        E 0 97 37 53
        E 0 97 37 53
        E 343 85 37 00
        E 0 86 37 00
        E 0 87 35 00
        E 0 90 39 53
        E 0 94 59 50
        E 0 96 39 53
        E 343 85 51 00
        E 0 87 35 00
        E 0 87 37 00
        E 0 87 37 00
        E 343 80 39 00
        E 0 84 59 00
        E 0 86 39 00
        E 0 90 39 53
        E 0 96 37 53
        E 343 90 3c 52
        E 0 90 3c 53
        E 343 80 39 00
        E 0 86 37 00
        E 0 95 59 52
        E 343 80 3c 00
        E 0 80 3c 00
        E 0 91 59 53
        E 0 97 35 52
        E 343 85 59 00
        E 0 95 39 53
        E 343 81 59 00
        E 0 87 35 00
        E 0 90 28 53
        E 0 96 39 51
        E 343 85 39 00
        E 0 90 28 52
        E 343 80 28 00
        E 0 86 39 00
        E 0 96 35 53
        E 343 80 28 00
        E 343 86 35 00
        E 0 97 37 53
        E 0 97 37 52
        E 0 97 37 53
        E 0 97 3a 52
        E 343 97 37 53
        E 343 87 37 00
        E 0 87 37 00
        E 0 87 37 00
        E 0 87 3a 00
        E 0 90 37 53
        E 343 87 37 00
        E 0 96 3a 53
        E 343 80 37 00
        E 0 96 3a 53
        E 0 97 34 52
        E 0 97 37 52
        E 343 86 3a 00
        E 0 96 3a 52
        E 343 86 3a 00
        E 0 87 34 00
        E 0 90 37 52
        E 0 97 37 52
        E 0 97 37 53
        E 343 86 3a 00
        E 0 90 3c 51
        E 0 90 3c 51
        E 0 90 3c 51
        E 0 90 3c 51
        E 0 90 3c 51
        E 0 90 3c 51
        E 343 87 37 00
        E 0 80 37 00
        E 0 87 37 00
        E 0 87 37 00
        E 0 90 3e 51
        E 0 90 3e 51
        E 0 91 3e 51
        E 343 80 3c 00
        E 0 80 3c 00
        E 0 80 3c 00
        E 0 80 3c 00
        E 0 80 3c 00
        E 0 80 3c 00
        E 0 91 43 51
        E 0 91 43 51
        E 0 91 43 51
        E 0 91 43 51
        E 0 91 43 51
        E 0 91 43 51
        E 0 91 43 51
        E 0 91 43 51
        E 0 96 43 51
        E 0 96 43 52
        E 343 80 3e 00
        E 0 80 3e 00
        E 0 81 3e 00
        E 0 90 46 52
        E 0 90 48 52
        E 0 90 48 52
        E 0 90 48 52
        E 0 90 48 52
        E 0 90 48 52
        E 0 96 37 52
        E 0 97 46 52
        E 0 97 46 51
        E 0 97 46 52
        E 343 81 43 00
        E 0 81 43 00
        E 0 81 43 00
        E 0 81 43 00
        E 0 81 43 00
        E 0 81 43 00
        E 0 81 43 00
        E 0 81 43 00
        E 0 86 43 00
        E 0 86 43 00
        E 0 90 4c 52
        E 0 90 4c 52
        E 0 90 4c 52
        E 0 90 4c 52
        E 0 90 4c 52
        E 0 91 4c 52
        E 343 80 46 00
        E 0 80 48 00
        E 0 80 48 00
        E 0 80 48 00
        E 0 80 48 00
        E 0 80 48 00
        E 0 86 37 00
        E 0 87 46 00
        E 0 87 46 00
        E 0 87 46 00
        E 0 91 58 51
        E 0 91 58 52
        E 0 94 3a 53
        E 0 95 3a 53
        E 0 96 37 53
        E 0 96 3a 53
        E 344 80 4c 00
        E 0 80 4c 00
        E 0 80 4c 00
        E 0 80 4c 00
        E 0 80 4c 00
        E 0 81 4c 00
        E 0 91 58 52
        E 0 91 58 52
        E 0 91 3c 52
        E 0 91 58 52
        E 0 97 4f 52
        E 0 97 4f 52
        E 0 97 4f 52
        E 343 81 58 00
        E 0 81 58 00
        E 0 85 3a 00
        E 0 86 37 00
        E 0 86 3a 00
        E 0 96 34 52
        E 343 81 58 00
        E 0 81 58 00
        E 0 81 3c 00
        E 0 81 58 00
        E 0 87 4f 00
        E 0 87 4f 00
        E 0 87 4f 00
        E 0 90 37 52
        E 0 96 37 52
        E 343 84 3a 00
        E 0 86 34 00
        E 0 91 3c 52
        E 343 80 37 00
        E 0 86 37 00
        E 0 94 3a 53
        E 343 81 3c 00
        E 0 91 37 53
        E 0 91 37 53
        E 686 81 37 00
        E 0 81 37 00
        E 0 90 37 52
        E 343 84 3a 00
        E 0 96 37 53
        E 343 80 37 00
        E 0 91 58 52
        E 343 86 37 00
        E 343 81 58 00
        E 0 96 37 52
        E 0 97 37 52
        E 686 86 37 00
        E 0 87 37 00
        E 686 97 37 52
        E 343 90 37 53
        E 343 87 37 00
        E 0 96 37 52
        E 343 80 37 00
        E 0 90 37 52
        E 0 90 37 52
        E 686 80 37 00
        E 0 80 37 00
        E 0 96 37 52
        E 343 86 37 00
        E 0 96 37 52
        E 343 86 37 00
        E 0 90 34 53
        E 343 86 37 00
        E 0 95 34 52
        E 0 95 34 52
        E 0 96 37 52
        E 0 96 37 52
        E 343 80 34 00
        E 0 96 37 53
        E 343 85 34 00
        E 0 85 34 00
        E 0 86 37 00
        E 0 86 37 00
        E 0 96 37 53
        E 0 96 37 52
        E 343 86 37 00
        E 0 95 37 52
        E 343 86 37 00
        E 0 86 37 00
        E 0 95 37 51
        E 0 96 37 52
        E 343 85 37 00
        E 0 95 37 50
        E 0 95 37 52
        E 0 96 37 52
        E 343 85 37 00
        E 0 86 37 00
        E 0 90 37 52
        E 343 85 37 00
        E 0 85 37 00
        E 0 86 37 00
        E 0 95 58 53
        E 0 95 37 53
        E 343 80 37 00
        E 0 97 4f 52
        E 343 85 58 00
        E 0 85 37 00
        E 0 95 37 50
        E 0 95 37 50
        E 0 95 37 51
        E 0 96 3a 50
        E 0 96 3a 52
        E 343 87 4f 00
        E 0 95 37 52
        E 0 95 37 52
        E 0 95 37 52
        E 343 85 37 00
        E 0 85 37 00
        E 0 85 37 00
        E 0 86 3a 00
        E 0 86 3a 00
        E 0 91 3c 52
        E 0 95 37 52
        E 0 96 37 51
        E 0 96 3a 52
        E 343 85 37 00
        E 0 85 37 00
        E 0 95 58 52
        E 0 96 37 52
        E 0 96 37 52
        E 0 96 3a 52
        E 343 81 3c 00
        E 0 85 37 00
        E 0 86 37 00
        E 0 86 3a 00
        E 0 90 3c 52
        E 0 96 39 52
        E 344 85 37 00
        E 0 85 58 00
        E 0 86 37 00
        E 0 86 37 00
        E 0 86 3a 00
        E 0 90 35 52
        E 0 96 37 52
        E 0 96 39 52
        E 343 86 39 00
        E 0 95 39 51
        E 343 80 35 00
        E 0 86 37 00
        E 0 86 39 00
        E 0 96 39 53
        E 343 80 3c 00
        E 0 85 39 00
        E 0 96 39 51
        E 343 86 39 00
        E 343 86 39 00
        E 0 96 37 52
        E 343 96 39 52
        E 343 86 37 00
        E 0 95 37 53
        E 343 86 39 00
        E 343 85 37 00
        E 343 95 37 52
        E 0 96 37 53
        E 0 97 37 52
        E 343 90 39 53
        E 0 90 39 53
        E 343 85 37 00
        E 0 86 37 00
        E 0 87 37 00
        E 0 96 37 52
        E 343 80 39 00
        E 0 80 39 00
        E 343 86 37 00
        E 686 96 37 53
        E 343 90 35 53
        E 343 86 37 00
        E 0 97 59 53
        E 343 80 35 00
        E 0 90 37 52
        E 0 90 39 52
        E 343 87 59 00
        E 0 90 3c 52
        E 343 80 37 00
        E 0 80 39 00
        E 343 80 3c 00
        E 0 95 37 53
        E 0 96 39 53
        E 343 90 3c 53
        E 343 85 37 00
        E 0 86 39 00
        E 343 80 3c 00
        E 1715 95 39 52
        E 343 90 35 52
        E 0 90 3c 52
        E 343 85 39 00
        E 0 90 39 51
        E 343 80 35 00
        E 0 80 3c 00
        E 0 90 39 52
        E 0 96 39 53
        E 343 80 39 00
        E 0 90 37 52
        E 0 97 37 52
        E 343 80 39 00
        E 0 86 39 00
        E 0 97 37 51
        E 344 87 37 00
        E 0 94 39 52
        E 0 95 35 52
        E 343 87 37 00
        E 343 80 37 00
        E 0 84 39 00
        E 0 85 35 00
        E 0 90 39 52
        E 0 97 37 52
        E 0 97 37 52
        E 343 95 37 53
        E 343 80 39 00
        E 0 87 37 00
        E 0 87 37 00
        E 0 94 39 53
        E 343 85 37 00
        E 0 94 37 53
        E 343 84 39 00
        E 0 90 37 53
        E 343 84 37 00
        E 0 97 39 53
        E 343 80 37 00
        E 0 95 37 53
        E 343 87 39 00
        E 0 95 39 53
        E 343 85 37 00
        E 0 96 39 52
        E 343 85 39 00
        E 0 90 3c 52
        E 0 96 37 52
        E 343 86 39 00
        E 0 90 35 52
        E 343 80 3c 00
        E 0 86 37 00
        E 0 90 35 52
        E 0 96 35 52
        E 343 80 35 00
        E 0 90 35 51
        E 0 90 35 52
        E 343 80 35 00
        E 0 86 35 00
        E 343 80 35 00
        E 0 80 35 00
        E 0 90 35 52
        E 0 96 35 51
        E 686 80 35 00
        E 0 86 35 00
        E 0 91 59 52
        E 343 94 39 52
        E 0 97 39 52
        E 343 81 59 00
        E 0 96 39 53
        E 0 97 39 52
        E 343 84 39 00
        E 0 87 39 00
        E 0 96 37 52
        E 343 86 39 00
        E 0 87 39 00
        E 0 91 3c 51
        E 0 95 35 52
        E 343 86 37 00
        E 0 96 37 52
        E 0 96 3c 52
        E 343 81 3c 00
        E 0 85 35 00
        E 0 91 37 52
        E 0 96 37 52
        E 0 96 39 52
        E 343 86 37 00
        E 0 86 3c 00
        E 0 97 37 53
        E 343 81 37 00
        E 0 86 37 00
        E 0 86 39 00
        E 0 90 39 52
        E 343 87 37 00
        E 0 91 59 52
        E 343 80 39 00
        E 0 96 39 53
        E 343 81 59 00
        E 0 96 39 52
        E 343 86 39 00
        E 0 96 37 53
        E 343 86 39 00
        E 343 86 37 00
        E 0 96 37 53
        E 686 86 37 00
        E 0 90 35 52
        E 0 96 37 52
        E 343 95 35 52
        E 343 80 35 00
        E 0 86 37 00
        E 0 96 37 52
        E 0 96 37 52
        E 0 97 39 52
        E 344 85 35 00
        E 0 96 37 52
        E 343 86 37 00
        E 0 86 37 00
        E 0 87 39 00
        E 0 95 3a 53
        E 0 96 37 53
        E 0 97 37 51
        E 343 86 37 00
        E 0 97 3a 53
        E 343 85 3a 00
        E 0 86 37 00
        E 0 87 37 00
        E 343 87 3a 00
        E 0 95 3a 52
        E 0 96 37 52
        E 343 95 3a 53
        E 0 97 3a 52
        E 343 86 37 00
        E 0 90 3a 53
        E 343 85 3a 00
        E 0 87 3a 00
        E 0 97 37 52
        E 343 85 3a 00
        E 0 80 3a 00
        E 0 96 37 52
        E 0 96 37 52
        E 0 97 37 52
        E 343 87 37 00
        E 0 96 37 52
        E 0 96 37 52
        E 0 97 37 52
        E 343 86 37 00
        E 0 87 37 00
        E 0 97 37 52
        E 343 86 37 00
        E 0 86 37 00
        E 0 87 37 00
        E 0 96 37 52
        E 343 86 37 00
        E 0 87 37 00
        E 0 90 34 53
        E 0 95 37 52
        E 343 86 37 00
        E 0 97 37 53
        E 0 97 58 52
        E 343 80 34 00
        E 0 85 37 00
        E 0 95 34 52
        E 0 96 37 51
        E 343 87 37 00
        E 0 87 58 00
        E 0 96 37 52
        E 343 85 34 00
        E 0 86 37 00
        E 0 96 34 52
        E 0 97 37 52
        E 343 86 37 00
        E 0 96 37 53
        E 343 87 37 00
        E 0 96 37 52
        E 343 86 37 00
        E 343 86 34 00
        E 0 86 37 00
        E 0 90 34 52
        E 0 94 3a 51
        E 0 97 3a 52
        E 0 97 3a 52
        E 343 97 37 52
        E 0 97 3a 52
        E 343 80 34 00
        E 0 84 3a 00
        E 0 87 3a 00
        E 0 87 3a 00
        E 0 96 34 52
        E 343 87 37 00
        E 0 87 3a 00
        E 343 86 34 00
        E 0 91 58 53
        E 343 97 3a 53
        E 343 81 58 00
        E 0 96 37 53
        E 343 87 3a 00
        E 0 91 34 54
        E 0 97 3a 52
        E 343 86 37 00
        E 0 97 37 54
        E 343 81 34 00
        E 0 87 3a 00
        E 0 90 34 53
        E 0 95 34 52
        E 343 87 37 00
        E 0 90 58 54
        E 0 90 37 54
        E 0 95 3a 54
        E 343 80 34 00
        E 0 85 34 00
        E 0 96 3a 54
        E 0 96 34 54
        E 343 80 58 00
        E 0 80 37 00
        E 0 85 3a 00
        E 0 90 37 54
        E 343 86 34 00
        E 0 95 37 53
        E 0 96 34 53
        E 343 80 37 00
        E 0 95 34 54
        E 0 95 37 54
        E 0 96 37 54
        E 0 96 3a 54
        E 343 86 3a 00
        E 0 85 37 00
        E 0 86 34 00
        E 0 90 34 53
        E 0 95 3a 52
        E 344 85 34 00
        E 0 85 37 00
        E 0 86 37 00
        E 0 86 3a 00
        E 343 80 34 00
        E 0 85 3a 00
        E 343 90 37 54
        E 343 97 34 54
        E 343 80 37 00
        E 343 87 34 00
        E 343 90 37 53
        E 0 90 37 53
        E 343 91 3c 54
        E 343 80 37 00
        E 0 80 37 00
        E 0 90 37 54
        E 0 95 3a 54
        E 0 97 37 54
        E 343 81 3c 00
        E 0 97 34 54
        E 343 80 37 00
        E 0 85 3a 00
        E 0 87 37 00
        E 0 95 34 54
        E 343 87 34 00
        E 0 90 37 54
        E 0 90 37 54
        E 0 90 37 54
        E 343 85 34 00
        E 0 95 37 53
        E 0 95 37 54
        E 343 80 37 00
        E 0 80 37 00
        E 0 80 37 00
        E 0 96 37 54
        E 343 85 37 00
        E 0 85 37 00
        E 0 95 34 52
        E 343 86 37 00
        E 0 95 37 53
        E 0 95 37 53
        E 343 85 34 00
        E 0 96 37 54
        E 343 85 37 00
        E 0 85 37 00
        E 0 90 37 54
        E 0 95 4f 54
        E 343 86 37 00
        E 0 94 37 54
        E 0 97 37 54
        E 343 80 37 00
        E 0 85 4f 00
        E 343 84 37 00
        E 0 87 37 00
        E 0 91 3c 52
        E 686 81 3c 00
        E 0 95 34 53
        E 0 96 34 54
        E 343 95 52 54
        E 343 85 34 00
        E 0 86 34 00
        E 343 85 52 00
        E 0 90 37 54
        E 0 97 2e 54
        E 343 90 37 54
        E 0 96 2e 54
        E 0 96 2e 54
        E 343 80 37 00
        E 0 87 2e 00
        E 0 90 3c 53
        E 0 91 3c 52
        E 343 80 37 00
        E 0 86 2e 00
        E 0 86 2e 00
        E 0 91 3c 50
        E 0 91 3c 51
        E 343 80 3c 00
        E 0 81 3c 00
        E 0 91 3c 51
        E 0 91 3c 51
        E 0 91 3c 51
        E 343 81 3c 00
        E 0 81 3c 00
        E 0 90 37 53
        E 343 81 3c 00
        E 0 81 3c 00
        E 0 81 3c 00
        E 0 90 37 54
        E 0 90 37 53
        E 0 95 37 54
        E 0 96 37 54
        E 343 80 37 00
        E 0 90 34 55
        E 0 91 52 55
        E 0 95 52 55
        E 0 95 37 55
        E 0 96 37 54
        E 343 80 37 00
        E 0 80 37 00
        E 0 85 37 00
        E 0 86 37 00
        E 0 95 3c 54
        E 343 80 34 00
        E 0 81 52 00
        E 0 85 52 00
        E 0 85 37 00
        E 0 86 37 00
        E 0 94 37 54
        E 343 85 3c 00
        E 0 90 37 55
        E 0 91 34 54
        E 0 91 34 55
        E 0 95 37 54
        E 0 96 3c 54
        E 343 84 37 00
        E 0 97 37 53
        E 0 97 37 53
        E 344 80 37 00
        E 0 81 34 00
        E 0 81 34 00
        E 0 85 37 00
        E 0 86 3c 00
        E 343 87 37 00
        E 0 87 37 00
        E 0 91 5b 52
        E 343 91 52 54
        E 343 81 5b 00
        E 0 90 52 54
        E 0 95 52 55
        E 343 81 52 00
        E 0 95 37 54
        E 343 80 52 00
        E 0 85 52 00
        E 0 95 37 54
        E 343 85 37 00
        E 0 96 37 54
        E 343 85 37 00
        E 343 86 37 00
        E 0 94 37 54
        E 343 91 3c 54
        E 0 91 3c 54
        E 343 84 37 00
        E 343 81 3c 00
        E 0 81 3c 00
        E 0 90 52 54
        E 343 96 52 54
        E 343 80 52 00
        E 343 86 52 00
        E 0 90 34 53
        E 343 95 37 54
        E 0 95 37 53
        E 0 95 37 54
        E 343 80 34 00
        E 0 95 37 54
        E 0 95 37 55
        E 343 85 37 00
        E 0 85 37 00
        E 0 85 37 00
        E 0 91 58 54
        E 0 91 58 54
        E 343 85 37 00
        E 0 85 37 00
        E 0 91 34 55
        E 343 81 58 00
        E 0 81 58 00
        E 0 95 37 54
        E 343 81 34 00
        E 0 90 58 55
        E 0 90 37 55
        E 343 85 37 00
        E 0 90 52 54
        E 0 90 52 54
        E 0 91 58 55
        E 0 91 58 54
        E 343 80 58 00
        E 0 80 37 00
        E 0 90 52 54
        E 0 95 37 55
        E 0 95 37 55
        E 343 80 52 00
        E 0 80 52 00
        E 0 81 58 00
        E 0 81 58 00
        E 0 95 37 54
        E 0 97 52 54
        E 0 97 52 55
        E 343 80 52 00
        E 0 85 37 00
        E 0 85 37 00
        E 0 90 3c 55
        E 343 85 37 00
        E 0 87 52 00
        E 0 87 52 00
        E 0 95 37 55
        E 0 97 52 56
        E 343 80 3c 00
        E 0 90 52 54
        E 0 90 52 55
        E 343 85 37 00
        E 0 87 52 00
        E 0 90 52 54
        E 0 90 52 55
        E 0 90 52 55
        E 0 95 37 53
        E 0 96 37 55
        E 0 96 37 55
        E 343 80 52 00
        E 0 80 52 00
        E 0 91 58 54
        E 0 91 58 54
        E 0 91 58 53
        E 0 91 58 54
        E 0 91 58 55
        E 343 80 52 00
        E 0 80 52 00
        E 0 80 52 00
        E 0 85 37 00
        E 0 86 37 00
        E 0 86 37 00
        E 0 90 34 55
        E 343 81 58 00
        E 0 81 58 00
        E 0 81 58 00
        E 0 81 58 00
        E 0 81 58 00
        E 0 96 52 52
        E 343 80 34 00
        E 0 90 52 54
        E 0 96 52 54
        E 343 86 52 00
        E 0 95 37 54
        E 343 80 52 00
        E 0 86 52 00
        E 0 90 37 55
        E 0 95 37 55
        E 343 85 37 00
        E 0 90 52 53
        E 0 91 3c 55
        E 0 97 34 55
        E 343 80 37 00
        E 0 85 37 00
        E 0 95 37 55
        E 0 97 52 54
        E 343 80 52 00
        E 0 81 3c 00
        E 0 87 34 00
        E 0 90 52 55
        E 0 95 37 54
        E 0 97 52 55
        E 344 85 37 00
        E 0 87 52 00
        E 0 96 34 53
        E 0 96 34 53
        E 0 96 34 54
        E 0 96 37 54
        E 343 80 52 00
        E 0 85 37 00
        E 0 87 52 00
        E 0 90 52 54
        E 0 95 37 54
        E 0 95 37 55
        E 343 86 34 00
        E 0 86 34 00
        E 0 86 34 00
        E 0 86 37 00
        E 0 95 37 55
        E 0 95 37 55
        E 0 96 52 55
        E 0 97 52 54
        E 343 80 52 00
        E 0 85 37 00
        E 0 85 37 00
        E 0 90 52 55
        E 0 95 37 55
        E 0 96 52 55
        E 343 85 37 00
        E 0 85 37 00
        E 0 86 52 00
        E 0 87 52 00
        E 343 80 52 00
        E 0 85 37 00
        E 0 86 52 00
        E 0 90 52 54
        E 0 90 52 54
        E 0 90 52 54
        E 686 80 52 00
        E 0 80 52 00
        E 0 80 52 00
        E 0 92 3c 55
        E 343 90 52 54
        E 0 91 52 56
        E 0 95 34 55
        E 343 82 3c 00
        E 0 91 58 56
        E 0 95 34 56
        E 343 80 52 00
        E 0 81 52 00
        E 0 85 34 00
        E 0 90 52 56
        E 0 90 52 56
        E 0 91 58 56
        E 343 81 58 00
        E 0 85 34 00
        E 343 80 52 00
        E 0 80 52 00
        E 0 81 58 00
        E 1029 96 58 56
        E 343 95 34 56
        E 343 86 58 00
        E 0 94 37 56
        E 343 85 34 00
        E 343 84 37 00
        E 0 90 52 56
        E 343 90 52 57
        E 0 92 3c 57
        E 343 80 52 00
        E 0 94 34 55
        E 0 94 34 56
        E 0 94 34 56
        E 0 95 34 56
        E 0 97 52 56
        E 343 80 52 00
        E 0 82 3c 00
        E 0 91 5b 54
        E 0 91 5b 54
        E 0 91 5b 54
        E 343 84 34 00
        E 0 84 34 00
        E 0 84 34 00
        E 0 85 34 00
        E 0 87 52 00
        E 0 91 58 54
        E 0 91 58 54
        E 0 97 58 52
        E 0 97 58 53
        E 343 81 5b 00
        E 0 81 5b 00
        E 0 81 5b 00
        E 0 95 58 55
        E 343 81 58 00
        E 0 81 58 00
        E 0 87 58 00
        E 0 87 58 00
        E 0 94 34 56
        E 343 85 58 00
        E 0 91 5b 55
        E 0 91 5b 55
        E 343 84 34 00
        E 0 90 58 55
        E 0 91 58 55
        E 343 81 5b 00
        E 0 81 5b 00
        E 0 95 3a 55
        E 343 80 58 00
        E 0 81 58 00
        E 0 96 52 56
        E 343 85 3a 00
        E 343 86 52 00
        E 0 95 3a 55
        E 343 90 58 55
        E 343 85 3a 00
        E 343 80 58 00
        E 343 91 37 54
        E 0 91 37 55
        E 0 96 52 55
        E 344 91 58 54
        E 0 95 37 54
        E 0 96 34 55
        E 343 81 37 00
        E 0 81 37 00
        E 0 86 52 00
        E 0 91 58 54
        E 0 95 34 54
        E 343 81 58 00
        E 0 85 37 00
        E 0 86 34 00
        E 0 96 52 55
        E 343 81 58 00
        E 0 85 34 00
        E 343 86 52 00
        E 343 96 52 55
        E 343 95 52 55
        E 343 86 52 00
        E 0 91 59 55
        E 0 91 59 55
        E 343 85 52 00
        E 0 95 39 55
        E 343 81 59 00
        E 0 81 59 00
        E 0 90 35 54
        E 343 85 39 00
        E 0 95 3a 55
        E 343 80 35 00
        E 0 90 35 55
        E 343 85 3a 00
        E 343 80 35 00
        E 0 91 35 55
        E 0 95 3a 55
        E 343 94 39 54
        E 0 95 39 54
        E 0 95 3a 55
        E 343 81 35 00
        E 0 85 3a 00
        E 0 95 39 55
        E 343 84 39 00
        E 0 85 39 00
        E 0 85 3a 00
        E 0 95 3a 55
        E 343 85 39 00
        E 0 95 3a 54
        E 343 85 3a 00
        E 343 85 3a 00
        E 0 90 45 54
        E 343 96 52 55
        E 343 80 45 00
        E 0 91 59 54
        E 0 91 59 54
        E 0 91 59 54
        E 0 91 59 54
        E 0 91 59 54
        E 0 93 45 54
        E 0 94 3a 54
        E 343 86 52 00
        E 0 95 3a 55
        E 0 95 52 55
        E 343 81 59 00
        E 0 81 59 00
        E 0 81 59 00
        E 0 81 59 00
        E 0 81 59 00
        E 0 83 45 00
        E 0 84 3a 00
        E 0 94 3a 55
        E 0 94 3a 55
        E 0 95 3a 55
        E 343 85 3a 00
        E 0 85 52 00
        E 343 84 3a 00
        E 0 84 3a 00
        E 0 85 3a 00
        E 343 94 3a 55
        E 0 95 3a 55
        E 0 95 3a 56
        E 343 94 3a 55
        E 0 95 3a 56
        E 0 95 59 56
        E 343 84 3a 00
        E 0 85 3a 00
        E 0 85 3a 00
        E 0 91 59 55
        E 0 94 3a 55
        E 343 85 3a 00
        E 343 81 59 00
        E 0 84 3a 00
        E 343 84 3a 00
        E 0 85 59 00
        E 0 94 45 55
        E 343 95 39 55
        E 343 84 45 00
        E 0 95 39 54
        E 0 95 39 55
        E 343 85 39 00
        E 0 95 3a 55
        E 343 85 39 00
        E 0 85 39 00
        E 0 93 45 55
        E 0 95 39 55
        E 343 85 3a 00
        E 0 95 39 55
        E 344 83 45 00
        E 0 85 39 00
        E 0 95 39 55
        E 343 85 39 00
        E 0 92 3c 55
        E 343 85 39 00
        E 0 91 3c 54
        E 343 82 3c 00
        E 0 95 39 56
        E 343 81 3c 00
        E 0 95 39 54
        E 343 85 39 00
        E 0 91 59 55
        E 0 91 59 55
        E 343 85 39 00
        E 343 81 59 00
        E 0 81 59 00
        E 0 95 39 55
        E 343 95 35 56
        E 0 95 3a 56
        E 0 95 39 55
        E 343 85 39 00
        E 0 91 3c 56
        E 0 95 52 56
        E 343 85 3a 00
        E 0 85 39 00
        E 0 95 35 55
        E 0 95 39 55
        E 0 95 39 55
        E 343 81 3c 00
        E 0 85 52 00
        E 0 91 59 56
        E 0 94 3a 55
        E 0 95 39 55
        E 343 85 35 00
        E 0 85 35 00
        E 0 85 39 00
        E 0 85 39 00
        E 0 95 3a 56
        E 343 81 59 00
        E 0 84 3a 00
        E 0 85 39 00
        E 343 85 3a 00
        E 0 91 35 55
        E 0 91 35 55
        E 0 95 39 55
        E 343 91 3c 54
        E 0 91 3c 54
        E 343 81 35 00
        E 0 81 35 00
        E 0 85 39 00
        E 0 94 3a 55
        E 0 95 3a 53
        E 343 81 3c 00
        E 0 81 3c 00
        E 0 95 39 55
        E 343 84 3a 00
        E 0 85 3a 00
        E 0 90 35 56
        E 0 91 59 56
        E 343 85 39 00
        E 0 90 34 56
        E 0 96 35 55
        E 343 80 35 00
        E 0 81 59 00
        E 0 94 59 55
        E 343 80 34 00
        E 0 86 35 00
        E 0 91 3c 56
        E 0 96 35 56
        E 343 84 59 00
        E 343 81 3c 00
        E 0 86 35 00
        E 0 91 3c 57
        E 343 91 59 56
        E 0 96 39 56
        E 343 81 3c 00
        E 0 95 39 56
        E 343 81 59 00
        E 0 86 39 00
        E 0 91 59 55
        E 343 85 39 00
        E 0 91 3c 54
        E 0 91 3c 55
        E 0 96 39 55
        E 343 81 59 00
        E 0 91 3c 54
        E 0 91 3c 55
        E 343 81 3c 00
        E 0 81 3c 00
        E 0 86 39 00
        E 0 91 35 56
        E 343 81 3c 00
        E 0 81 3c 00
        E 0 97 39 56
        E 343 81 35 00
        E 343 87 39 00
        E 343 97 35 56
        E 343 91 3c 57
        E 343 87 35 00
        E 0 95 39 56
        E 343 81 3c 00
        E 0 95 51 56
        E 344 85 39 00
        E 0 95 39 56
        E 343 85 51 00
        E 0 95 39 54
        E 0 95 39 54
        E 0 95 39 55
        E 0 95 39 55
        E 343 85 39 00
        E 0 90 37 56
        E 0 93 3c 57
        E 343 85 39 00
        E 0 85 39 00
        E 0 85 39 00
        E 0 85 39 00
        E 0 94 59 56
        E 343 80 37 00
        E 0 83 3c 00
        E 0 90 37 55
        E 343 84 59 00
        E 343 80 37 00
        E 0 94 39 55
        E 0 94 39 55
        E 0 95 39 56
        E 343 95 3c 54
        E 0 95 3c 56
        E 343 84 39 00
        E 0 84 39 00
        E 0 85 39 00
        E 0 91 39 56
        E 0 95 35 56
        E 343 85 3c 00
        E 0 85 3c 00
        E 0 95 35 56
        E 0 95 39 56
        E 0 95 39 56
        E 343 81 39 00
        E 0 85 35 00
        E 0 96 37 55
        E 343 85 35 00
        E 0 85 39 00
        E 0 85 39 00
        E 0 91 37 56
        E 0 94 39 55
        E 0 94 39 56
        E 0 95 51 56
        E 343 86 37 00
        E 0 91 3c 56
        E 0 94 39 56
        E 0 95 35 56
        E 0 95 39 56
        E 0 96 39 56
        E 0 97 37 56
        E 343 81 37 00
        E 0 84 39 00
        E 0 84 39 00
        E 0 85 51 00
        E 0 94 39 56
        E 0 94 39 55
        E 0 95 39 54
        E 343 81 3c 00
        E 0 84 39 00
        E 0 85 35 00
        E 0 85 39 00
        E 0 86 39 00
        E 0 87 37 00
        E 0 91 3c 56
        E 343 84 39 00
        E 0 84 39 00
        E 0 85 39 00
        E 0 91 59 54
        E 343 81 3c 00
        E 0 91 39 56
        E 0 95 35 55
        E 343 81 59 00
        E 0 90 37 56
        E 343 81 39 00
        E 0 85 35 00
        E 0 96 37 56
        E 343 80 37 00
        E 343 86 37 00
        E 0 91 3c 51
        E 0 91 3c 52
        E 0 91 3c 52
        E 0 91 3c 53
        E 0 91 3c 54
        E 343 91 24 55
        E 0 91 24 55
        E 0 91 24 55
        E 0 91 24 55
        E 0 95 39 54
        E 0 95 39 55
        E 343 81 3c 00
        E 0 81 3c 00
        E 0 81 3c 00
        E 0 81 3c 00
        E 0 81 3c 00
        E 0 91 24 54
        E 0 91 24 54
        E 0 91 24 54
        E 0 97 28 53
        E 0 97 28 54
        E 0 97 28 54
        E 0 97 28 53
        E 0 97 28 54
        E 343 81 24 00
        E 0 81 24 00
        E 0 81 24 00
        E 0 81 24 00
        E 0 85 39 00
        E 0 85 39 00
        E 0 91 24 53
        E 0 91 24 53
        E 0 91 24 53
        E 0 91 24 53
        E 0 91 24 53
        E 0 91 24 53
        E 0 91 28 53
        E 0 91 28 53
        E 0 91 28 53
        E 0 91 28 53
        E 343 81 24 00
        E 0 87 28 00
        E 0 87 28 00
        E 0 87 28 00
        E 0 91 24 53
        E 0 91 24 53
        E 0 91 28 52
        E 0 91 28 53
        E 0 96 28 52
        E 0 96 28 52
        E 0 96 28 52
        E 0 96 28 52
        E 0 96 28 52
        E 0 96 28 53
        E 0 97 28 53
        E 343 81 24 00
        E 0 81 24 00
        E 0 81 24 00
        E 0 81 24 00
        E 0 81 24 00
        E 0 81 24 00
        E 0 81 28 00
        E 0 81 28 00
        E 0 81 28 00
        E 0 81 28 00
        E 0 90 2b 54
        E 0 90 2b 54
        E 0 90 2b 54
        E 0 90 2b 54
        E 0 90 30 54
        E 0 90 30 54
        E 0 90 2b 54
        E 0 90 2b 54
        E 0 97 28 54
        E 0 97 28 54
        E 0 97 28 54
        E 343 81 24 00
        E 0 81 24 00
        E 0 87 28 00
        E 0 87 28 00
        E 0 81 24 00
        E 0 81 24 00
        E 0 81 28 00
        E 0 81 28 00
        E 0 86 28 00
        E 0 86 28 00
        E 0 86 28 00
        E 0 86 28 00
        E 0 86 28 00
        E 0 86 28 00
        E 0 87 28 00
        E 0 90 30 54
        E 0 97 34 54
        E 0 97 34 54
        E 0 97 34 54
        E 0 97 34 54
        E 343 80 2b 00
        E 0 80 2b 00
        E 0 80 2b 00
        E 0 80 2b 00
        E 0 80 30 00
        E 0 80 30 00
        E 0 80 2b 00
        E 0 80 2b 00
        E 0 87 28 00
        E 0 87 28 00
        E 0 87 28 00
        E 0 91 3c 51
        E 0 91 3c 52
        E 0 91 3c 51
        E 0 91 3c 53
        E 343 80 30 00
        E 0 87 34 00
        E 0 87 34 00
        E 0 87 34 00
        E 0 87 34 00
        E 0 91 3c 51
        E 0 91 3c 54
        E 343 81 3c 00
        E 0 81 3c 00
        E 0 81 3c 00
        E 0 81 3c 00
        E 0 91 3c 53
        E 0 91 3c 53
        E 0 91 3c 51
        E 0 91 3c 52
        E 0 91 3c 52
        E 343 81 3c 00
        E 0 81 3c 00
        E 0 90 37 55
        E 0 91 59 54
        E 0 91 59 54
        E 0 91 40 54
        E 0 91 40 55
        E 0 91 40 55
        E 0 95 39 55
        E 0 97 37 54
        E 343 81 3c 00
        E 0 81 3c 00
        E 0 81 3c 00
        E 0 81 3c 00
        E 0 81 3c 00
        E 0 91 3c 56
        E 0 91 59 55
        E 0 91 59 55
        E 0 95 35 55
        E 343 80 37 00
        E 0 81 59 00
        E 0 81 59 00
        E 0 81 40 00
        E 0 81 40 00
        E 0 81 40 00
        E 0 85 39 00
        E 0 87 37 00
        E 0 91 3e 52
        E 0 91 3e 53
        E 343 81 3c 00
        E 0 81 59 00
        E 0 81 59 00
        E 0 85 35 00
        E 0 95 35 55
        E 343 81 3e 00
        E 0 81 3e 00
        E 0 91 4d 55
        E 0 95 35 55
        E 343 85 35 00
        E 0 91 3e 55
        E 0 96 3a 55
        E 344 81 4d 00
        E 0 85 35 00
        E 0 91 46 55
        E 0 95 35 55
        E 343 81 3e 00
        E 0 86 3a 00
        E 0 91 35 55
        E 343 81 46 00
        E 0 85 35 00
        E 0 91 59 54
        E 0 91 59 54
        E 343 81 35 00
        E 0 96 3a 55
        E 0 97 34 56
        E 343 81 59 00
        E 0 81 59 00
        E 0 91 5b 56
        E 0 94 35 55
        E 343 86 3a 00
        E 0 87 34 00
        E 0 91 3a 55
        E 0 96 35 54
        E 343 81 5b 00
        E 0 84 35 00
        E 0 91 37 56
        E 343 81 3a 00
        E 0 86 35 00
        E 0 95 35 56
        E 343 81 37 00
        E 0 95 35 55
        E 343 85 35 00
        E 0 94 35 56
        E 343 85 35 00
        E 343 84 35 00
        E 0 96 3a 54
        E 343 90 59 56
        E 343 86 3a 00
        E 343 80 59 00
        E 0 94 3a 55
        E 343 96 37 55
        E 343 84 3a 00
        E 0 97 3a 55
        E 343 86 37 00
        E 0 97 3a 55
        E 343 87 3a 00
        E 0 91 3a 55
        E 0 96 37 55
        E 0 96 3a 55
        E 343 87 3a 00
        E 0 91 3a 55
        E 0 95 35 55
        E 343 81 3a 00
        E 0 86 37 00
        E 0 86 3a 00
        E 0 91 3a 55
        E 343 81 3a 00
        E 0 85 35 00
        E 0 95 35 55
        E 0 95 35 55
        E 343 81 3a 00
        E 0 97 3a 56
        E 343 85 35 00
        E 0 85 35 00
        E 343 87 3a 00
        E 0 95 35 56
        E 0 96 3a 55
        E 343 91 3e 56
        E 0 96 34 56
        E 343 85 35 00
        E 0 86 3a 00
        E 0 94 35 56
        E 0 96 3a 56
        E 343 81 3e 00
        E 0 86 34 00
        E 0 95 59 55
        E 0 95 35 53
        E 0 95 35 54
        E 343 84 35 00
        E 0 86 3a 00
        E 0 96 37 55
        E 0 97 37 55
        E 343 85 59 00
        E 0 85 35 00
        E 0 85 35 00
        E 0 97 3a 55
        E 343 86 37 00
        E 0 87 37 00
        E 343 87 3a 00
        E 0 96 3a 55
        E 343 95 3a 54
        E 0 95 37 55
        E 0 95 3a 55
        E 0 95 3a 55
        E 343 86 3a 00
        E 0 95 3a 55
        E 0 96 3a 55
        E 343 85 3a 00
        E 0 85 37 00
        E 0 85 3a 00
        E 0 85 3a 00
        E 0 95 37 54
        E 343 85 3a 00
        E 0 86 3a 00
        E 343 85 37 00
        E 0 96 3a 54
        E 0 97 37 55
        E 344 91 59 54
        E 0 91 59 54
        E 0 95 35 53
        E 0 95 35 54
        E 343 86 3a 00
        E 0 87 37 00
        E 0 96 3a 54
        E 343 81 59 00
        E 0 81 59 00
        E 0 85 35 00
        E 0 85 35 00
        E 1029 86 3a 00
        E 0 95 37 54
        E 0 96 3a 54
        E 686 85 37 00
        E 0 86 3a 00
        E 0 91 3e 52
        E 0 91 3e 52
        E 0 91 3e 53
        E 343 95 37 54
        E 0 96 35 54
        E 343 81 3e 00
        E 0 81 3e 00
        E 0 81 3e 00
        E 0 95 35 54
        E 0 96 3a 55
        E 343 85 37 00
        E 0 86 35 00
        E 0 96 37 54
        E 0 97 35 55
        E 343 85 35 00
        E 0 86 3a 00
        E 0 96 37 53
        E 343 86 37 00
        E 0 87 35 00
        E 0 96 37 54
        E 343 86 37 00
        E 0 95 3a 54
        E 343 86 37 00
        E 0 96 37 54
        E 0 96 37 54
        E 343 85 3a 00
        E 0 95 35 54
        E 343 86 37 00
        E 0 86 37 00
        E 0 91 3a 53
        E 343 85 35 00
        E 0 95 35 52
        E 0 95 35 53
        E 343 81 3a 00
        E 0 96 37 52
        E 0 96 37 53
        E 343 85 35 00
        E 0 85 35 00
        E 0 91 3e 52
        E 0 91 3e 53
        E 343 86 37 00
        E 0 86 37 00
        E 0 91 3e 52
        E 0 93 3a 51
        E 0 96 3a 53
        E 343 81 3e 00
        E 0 81 3e 00
        E 0 97 37 53
        E 343 81 3e 00
        E 0 83 3a 00
        E 0 86 3a 00
        E 0 90 37 52
        E 343 87 37 00
        E 0 93 3a 54
        E 343 80 37 00
        E 0 96 37 53
        E 343 83 3a 00
        E 0 96 37 53
        E 343 86 37 00
        E 0 96 37 53
        E 0 96 35 53
        E 343 86 37 00
        E 0 96 37 53
        E 343 86 37 00
        E 0 86 35 00
        E 0 95 35 53
        E 0 95 3a 53
        E 0 96 37 54
        E 343 86 37 00
        E 0 96 37 53
        E 343 85 35 00
        E 0 85 3a 00
        E 0 86 37 00
        E 343 86 37 00
        E 0 96 3a 53
        E 686 86 3a 00
        E 343 95 39 53
        E 0 95 39 53
        E 0 95 39 53
        E 343 90 35 53
        E 343 85 39 00
        E 0 85 39 00
        E 0 85 39 00
        E 0 96 39 52
        E 0 96 35 53
        E 344 80 35 00
        E 343 86 39 00
        E 0 86 35 00
        E 1029 95 39 53
        E 0 96 39 52
        E 686 85 39 00
        E 0 86 39 00
        E 0 90 3a 54
        E 0 91 3a 54
        E 343 90 35 54
        E 0 95 39 54
        E 343 80 3a 00
        E 0 81 3a 00
        E 343 80 35 00
        E 0 85 39 00
        E 686 91 3c 50
        E 0 91 3c 50
        E 0 91 3c 51
        E 0 91 3c 52
        E 0 91 3c 52
        E 0 91 3c 52
        E 343 91 59 52
        E 0 91 59 52
        E 0 91 59 52
        E 0 91 59 53
        E 0 91 59 53
        E 0 91 59 52
        E 0 96 39 52
        E 343 81 3c 00
        E 0 81 3c 00
        E 0 81 3c 00
        E 0 81 3c 00
        E 0 81 3c 00
        E 0 81 3c 00
        E 0 90 39 52
        E 0 90 39 53
        E 0 90 39 53
        E 0 95 35 53
        E 0 95 35 53
        E 343 81 59 00
        E 0 81 59 00
        E 0 81 59 00
        E 0 81 59 00
        E 0 81 59 00
        E 0 81 59 00
        E 0 86 39 00
        E 0 90 3a 54
        E 0 97 59 53
        E 343 80 39 00
        E 0 80 39 00
        E 0 80 39 00
        E 0 85 35 00
        E 0 85 35 00
        E 0 90 39 54
        E 343 80 3a 00
        E 0 87 59 00
        E 0 90 35 54
        E 343 80 39 00
        E 0 95 3a 53
        E 343 80 35 00
        E 0 91 59 53
        E 0 95 39 52
        E 0 97 59 53
        E 343 85 3a 00
        E 0 93 3a 53
        E 0 93 3a 53
        E 0 93 3c 54
        E 0 95 59 53
        E 343 81 59 00
        E 0 87 59 00
        E 0 90 35 54
        E 0 97 35 54
        E 343 83 3a 00
        E 0 83 3a 00
        E 0 83 3c 00
        E 0 85 59 00
        E 0 97 35 54
        E 343 85 39 00
        E 0 80 35 00
        E 0 87 35 00
        E 0 90 35 54
        E 0 95 39 52
        E 343 87 35 00
        E 0 90 35 54
        E 0 94 3a 54
        E 0 97 59 53
        E 343 80 35 00
        E 0 85 39 00
        E 0 96 39 54
        E 343 80 35 00
        E 0 84 3a 00
        E 0 87 59 00
        E 0 97 39 53
        E 0 97 39 54
        E 343 86 39 00
        E 0 96 3a 51
        E 343 87 39 00
        E 0 91 59 54
        E 0 97 35 54
        E 343 86 3a 00
        E 0 90 35 52
        E 0 94 39 53
        E 343 87 39 00
        E 0 81 59 00
        E 0 87 35 00
        E 0 96 39 53
        E 0 97 35 54
        E 343 80 35 00
        E 0 84 39 00
        E 0 91 3a 52
        E 0 91 3a 53
        E 0 91 3a 53
        E 0 92 3a 53
        E 343 86 39 00
        E 0 87 35 00
        E 0 94 3a 53
        E 0 95 3a 52
        E 0 96 35 53
        E 0 96 35 53
        E 343 81 3a 00
        E 0 81 3a 00
        E 0 81 3a 00
        E 0 82 3a 00
        E 0 95 3a 53
        E 0 96 39 53
        E 343 84 3a 00
        E 0 85 3a 00
        E 0 86 35 00
        E 0 86 35 00
        E 0 94 39 54
        E 0 96 35 54
        E 343 85 3a 00
        E 0 86 39 00
        E 0 94 3a 52
        E 343 84 39 00
        E 0 86 35 00
        E 344 84 3a 00
        E 0 90 39 53
        E 0 90 59 53
        E 0 94 35 53
        E 343 91 3a 50
        E 0 91 3c 50
        E 0 91 3a 53
        E 0 91 3c 50
        E 0 91 3c 52
        E 343 80 39 00
        E 0 80 59 00
        E 0 84 35 00
        E 0 95 3a 53
        E 343 81 3a 00
        E 0 81 3c 00
        E 0 81 3a 00
        E 0 81 3c 00
        E 0 81 3c 00
        E 0 96 35 53
        E 343 85 3a 00
        E 0 90 35 54
        E 0 97 39 54
        E 343 86 35 00
        E 0 90 39 53
        E 0 95 39 53
        E 343 80 35 00
        E 0 87 39 00
        E 0 95 39 53
        E 343 80 39 00
        E 0 85 39 00
        E 0 90 59 53
        E 343 85 39 00
        E 0 96 39 53
        E 343 80 59 00
        E 0 94 35 53
        E 0 95 35 52
        E 343 86 39 00
        E 0 95 59 53
        E 343 84 35 00
        E 0 85 35 00
        E 0 91 35 53
        E 343 85 59 00
        E 0 91 35 53
        E 0 94 35 53
        E 0 96 39 53
        E 343 81 35 00
        E 0 90 39 52
        E 0 91 3c 52
        E 0 96 39 52
        E 343 81 35 00
        E 0 84 35 00
        E 0 86 39 00
        E 0 96 39 53
        E 343 80 39 00
        E 0 81 3c 00
        E 0 96 39 54
        E 0 96 39 54
        E 343 86 39 00
        E 0 90 29 53
        E 0 95 35 54
        E 0 95 52 54
        E 343 86 39 00
        E 0 86 39 00
        E 0 95 3a 50
        E 0 95 3a 53
        E 0 95 35 54
        E 0 96 39 53
        E 343 80 29 00
        E 0 85 35 00
        E 0 85 52 00
        E 0 91 35 53
        E 0 95 3a 52
        E 0 96 35 53
        E 343 86 39 00
        E 0 85 3a 00
        E 0 85 3a 00
        E 0 85 35 00
        E 0 86 39 00
        E 0 90 35 53
        E 0 95 3a 53
        E 0 95 35 52
        E 0 97 35 52
        E 343 81 35 00
        E 0 85 3a 00
        E 0 86 35 00
        E 0 94 39 51
        E 0 96 39 52
        E 343 80 35 00
        E 0 85 3a 00
        E 0 85 35 00
        E 0 87 35 00
        E 0 95 35 53
        E 0 96 39 53
        E 343 84 39 00
        E 0 86 39 00
        E 0 90 35 53
        E 0 90 35 53
        E 0 94 39 53
        E 0 95 35 53
        E 343 85 35 00
        E 0 86 39 00
        E 0 90 39 53
        E 0 94 39 53
        E 343 80 35 00
        E 0 80 35 00
        E 0 84 39 00
        E 0 85 35 00
        E 0 94 3a 53
        E 343 80 39 00
        E 0 84 39 00
        E 0 91 3a 52
        E 0 91 3a 52
        E 0 91 3a 53
        E 0 91 3c 52
        E 0 91 3c 52
        E 0 91 3c 52
        E 0 91 3c 52
        E 0 91 3c 53
        E 343 84 3a 00
        E 0 90 39 54
        E 0 91 39 53
        E 0 91 3a 53
        E 0 94 3a 53
        E 343 81 3a 00
        E 0 81 3a 00
        E 0 81 3a 00
        E 0 81 3c 00
        E 0 81 3c 00
        E 0 81 3c 00
        E 0 81 3c 00
        E 0 81 3c 00
        E 0 96 39 53
        E 0 97 35 51
        E 0 97 39 53
        E 343 80 39 00
        E 0 81 39 00
        E 0 81 3a 00
        E 0 84 3a 00
        E 0 95 35 52
        E 0 96 39 53
        E 343 86 39 00
        E 0 87 35 00
        E 0 87 39 00
        E 0 91 3a 53
        E 0 97 35 53
        E 343 85 35 00
        E 0 86 39 00
        E 0 94 3a 53
        E 0 97 35 53
        E 343 81 3a 00
        E 0 87 35 00
        E 0 91 35 53
        E 0 95 35 53
        E 343 84 3a 00
        E 0 87 35 00
        E 0 90 39 53
        E 0 94 3a 53
        E 343 81 35 00
        E 0 85 35 00
        E 0 94 3a 53
        E 0 97 35 52
        E 343 80 39 00
        E 0 84 3a 00
        E 0 94 3a 52
        E 0 96 39 52
        E 0 96 39 53
        E 343 84 3a 00
        E 0 87 35 00
        E 0 91 3c 52
        E 0 91 3c 50
        E 0 91 3c 52
        E 0 91 3c 52
        E 0 91 3c 52
        E 0 92 3a 52
        E 343 84 3a 00
        E 0 86 39 00
        E 0 86 39 00
        E 0 95 59 53
        E 0 96 35 53
        E 344 81 3c 00
        E 0 81 3c 00
        E 0 81 3c 00
        E 0 81 3c 00
        E 0 81 3c 00
        E 0 94 3a 53
        E 343 86 35 00
        E 0 94 3a 52
        E 0 95 59 52
        E 0 95 59 52
        E 343 82 3a 00
        E 0 84 3a 00
        E 0 90 35 53
        E 0 96 3a 53
        E 343 85 59 00
        E 0 85 59 00
        E 0 85 59 00
        E 343 80 35 00
        E 0 86 3a 00
        E 0 92 3a 53
        E 0 96 3a 53
        E 343 84 3a 00
        E 0 90 37 53
        E 0 95 35 52
        E 0 96 37 52
        E 343 82 3a 00
        E 0 86 3a 00
        E 0 91 3a 53
        E 0 94 3a 53
        E 0 94 3a 53
        E 0 96 3a 53
        E 343 80 37 00
        E 0 85 35 00
        E 0 86 37 00
        E 0 90 37 52
        E 0 90 37 52
        E 0 96 3a 53
        E 343 81 3a 00
        E 0 84 3a 00
        E 0 84 3a 00
        E 0 86 3a 00
        E 343 80 37 00
        E 0 80 37 00
        E 0 86 3a 00
        E 343 96 3a 54
        E 343 97 59 53
        E 343 86 3a 00
        E 0 91 3a 53
        E 0 94 3a 54
        E 343 87 59 00
        E 0 94 3a 53
        E 343 81 3a 00
        E 0 84 3a 00
        E 0 90 37 52
        E 0 90 37 51
        E 343 84 3a 00
        E 0 90 37 53
        E 0 96 3a 53
        E 343 80 37 00
        E 0 80 37 00
        E 0 91 3e 53
        E 0 91 3e 53
        E 0 95 59 50
        E 343 80 37 00
        E 0 86 3a 00
        E 0 90 3e 51
        E 0 96 3e 51
        E 0 96 3e 51
        E 343 81 3e 00
        E 0 81 3e 00
        E 0 85 59 00
        E 343 80 3e 00
        E 0 86 3e 00
        E 0 86 3e 00
        E 0 90 3e 51
        E 0 90 3e 51
        E 343 90 37 53
        E 0 91 40 52
        E 0 91 40 53
        E 0 91 3e 52
        E 0 91 3e 52
        E 0 91 3e 53
        E 0 91 3e 52
        E 0 91 3e 52
        E 343 80 3e 00
        E 0 80 3e 00
        E 0 94 46 52
        E 0 94 46 53
        E 0 94 46 53
        E 0 95 43 52
        E 0 95 43 52
        E 0 95 43 53
        E 343 80 37 00
        E 0 81 40 00
        E 0 81 40 00
        E 0 81 3e 00
        E 0 81 3e 00
        E 0 81 3e 00
        E 0 81 3e 00
        E 0 81 3e 00
        E 0 90 34 53
        E 0 90 3a 52
        E 0 95 59 53
        E 343 84 46 00
        E 0 84 46 00
        E 0 84 46 00
        E 0 85 43 00
        E 0 85 43 00
        E 0 85 43 00
        E 0 90 3e 50
        E 0 90 3e 51
        E 0 90 3e 51
        E 0 90 3e 51
        E 0 91 3e 51
        E 0 91 3e 52
        E 343 80 34 00
        E 0 80 3a 00
        E 0 85 59 00
        E 343 80 3e 00
        E 0 80 3e 00
        E 0 80 3e 00
        E 0 80 3e 00
        E 0 81 3e 00
        E 0 81 3e 00
        E 0 90 37 52
        E 0 94 3a 53
        E 343 91 59 52
        E 0 91 59 51
        E 343 80 37 00
        E 0 84 3a 00
        E 0 96 3e 52
        E 0 96 3e 52
        E 0 96 3e 52
        E 343 81 59 00
        E 0 81 59 00
        E 0 90 37 53
        E 0 93 3a 52
        E 0 96 3e 53
        E 343 86 3e 00
        E 0 86 3e 00
        E 0 86 3e 00
        E 0 90 37 51
        E 0 90 37 53
        E 0 90 37 53
        E 0 90 3a 53
        E 0 96 3a 53
        E 343 80 37 00
        E 0 83 3a 00
        E 0 86 3e 00
        E 0 90 4d 51
        E 0 90 4d 51
        E 0 90 4d 52
        E 0 90 4d 52
        E 0 90 4d 52
        E 0 90 4d 52
        E 0 90 4f 51
        E 0 90 4f 51
        E 0 90 4f 52
        E 0 90 4f 52
        E 0 90 4f 52
        E 0 90 4f 52
        E 0 95 3a 51
        E 343 80 37 00
        E 0 80 37 00
        E 0 80 37 00
        E 0 80 3a 00
        E 0 86 3a 00
        E 0 90 4f 50
        E 0 90 4f 50
        E 0 90 4f 50
        E 0 90 4f 50
        E 0 90 4f 50
        E 0 90 4f 51
        E 0 90 4f 51
        E 0 90 4f 51
        E 0 90 4f 51
        E 0 97 4f 51
        E 0 97 4f 51
        E 0 97 4f 50
        E 0 97 4f 51
        E 0 97 4f 51
        E 0 97 4f 51
        E 343 80 4d 00
        E 0 80 4d 00
        E 0 80 4d 00
        E 0 80 4d 00
        E 0 80 4d 00
        E 0 80 4d 00
        E 0 80 4f 00
        E 0 80 4f 00
        E 0 80 4f 00
        E 0 80 4f 00
        E 0 80 4f 00
        E 0 80 4f 00
        E 0 85 3a 00
        E 0 90 3e 52
        E 0 90 4a 52
        E 0 90 4a 52
        E 0 90 4c 51
        E 0 94 3a 52
        E 0 94 3a 52
        E 0 95 34 51
        E 0 96 4c 52
        E 0 97 37 51
        E 0 97 37 52
        E 343 80 4f 00
        E 0 80 4f 00
        E 0 80 4f 00
        E 0 80 4f 00
        E 0 80 4f 00
        E 0 80 4f 00
        E 0 80 4f 00
        E 0 80 4f 00
        E 0 80 4f 00
        E 0 87 4f 00
        E 0 87 4f 00
        E 0 87 4f 00
        E 0 87 4f 00
        E 0 87 4f 00
        E 0 87 4f 00
        E 0 90 37 51
        E 0 90 37 51
        E 0 91 37 52
        E 0 91 37 52
        E 0 93 4c 53
        E 0 95 3a 53
        E 0 97 37 53
        E 343 80 3e 00
        E 0 80 4a 00
        E 0 80 4a 00
        E 0 80 4c 00
        E 0 84 3a 00
        E 0 84 3a 00
        E 0 85 34 00
        E 0 86 4c 00
        E 0 87 37 00
        E 0 87 37 00
        E 0 90 4a 52
        E 0 91 5b 52
        E 0 91 59 50
        E 0 91 59 51
        E 0 91 59 51
        E 0 96 3a 51
        E 343 80 37 00
        E 0 80 37 00
        E 0 81 37 00
        E 0 81 37 00
        E 0 83 4c 00
        E 0 85 3a 00
        E 0 87 37 00
        E 0 90 59 50
        E 0 90 5b 50
        E 0 90 5b 51
        E 0 90 59 50
        E 0 91 59 51
        E 0 95 3a 50
        E 0 95 3a 50
        E 0 95 3a 51
        E 344 80 4a 00
        E 0 81 5b 00
        E 0 81 59 00
        E 0 81 59 00
        E 0 81 59 00
        E 0 86 3a 00
        E 0 90 5b 50
        E 0 90 5b 50
        E 0 90 5b 50
        E 0 90 5b 50
        E 0 90 5b 50
        E 0 90 5b 50
        E 0 90 5b 50
        E 0 90 5b 50
        E 0 90 5b 50
        E 0 95 3a 50
        E 0 95 59 50
        E 343 80 59 00
        E 0 80 5b 00
        E 0 80 5b 00
        E 0 80 59 00
        E 0 81 59 00
        E 0 85 3a 00
        E 0 85 3a 00
        E 0 85 3a 00
        E 0 90 59 50
        E 0 90 5b 50
        E 0 90 5b 50
        E 0 90 5b 50
        E 0 90 5b 50
        E 0 90 5b 50
        E 0 90 5b 50
        E 0 90 5b 50
        E 0 90 5b 50
        E 0 90 5b 50
        E 0 90 5e 50
        E 0 90 5e 50
        E 0 90 5b 50
        E 0 90 5e 50
        E 0 90 5e 50
        E 0 95 3a 50
        E 343 80 5b 00
        E 0 80 5b 00
        E 0 80 5b 00
        E 0 80 5b 00
        E 0 80 5b 00
        E 0 80 5b 00
        E 0 80 5b 00
        E 0 80 5b 00
        E 0 80 5b 00
        E 0 85 3a 00
        E 0 85 59 00
        E 0 90 5b 50
        E 0 90 5e 50
        E 0 90 5e 50
        E 0 90 5e 51
        E 0 90 5b 51
        E 0 90 5e 50
        E 0 90 5e 50
        E 0 90 5e 50
        E 0 90 5e 51
        E 0 90 5e 51
        E 0 90 5e 51
        E 343 80 59 00
        E 0 80 5b 00
        E 0 80 5b 00
        E 0 80 5b 00
        E 0 80 5b 00
        E 0 80 5b 00
        E 0 80 5b 00
        E 0 80 5b 00
        E 0 80 5b 00
        E 0 80 5b 00
        E 0 80 5e 00
        E 0 80 5e 00
        E 0 80 5b 00
        E 0 80 5e 00
        E 0 80 5e 00
        E 0 85 3a 00
        E 0 90 5e 50
        E 0 90 5e 50
        E 0 90 5e 50
        E 0 90 5e 50
        E 0 90 5e 50
        E 0 90 5e 50
        E 0 90 5e 50
        E 0 90 5e 50
        E 0 90 5e 50
        E 0 97 5e 50
        E 0 97 5e 50
        E 0 97 5e 50
        E 343 80 5b 00
        E 0 80 5e 00
        E 0 80 5e 00
        E 0 80 5e 00
        E 0 80 5b 00
        E 0 80 5e 00
        E 0 80 5e 00
        E 0 80 5e 00
        E 0 80 5e 00
        E 0 80 5e 00
        E 0 80 5e 00
        E 0 90 37 52
        E 0 90 5e 52
        E 0 90 5e 52
        E 0 90 5e 52
        E 0 91 5e 52
        E 0 91 5e 52
        E 0 95 3e 52
        E 0 96 26 52
        E 343 80 5e 00
        E 0 80 5e 00
        E 0 80 5e 00
        E 0 80 5e 00
        E 0 80 5e 00
        E 0 80 5e 00
        E 0 80 5e 00
        E 0 80 5e 00
        E 0 80 5e 00
        E 0 87 5e 00
        E 0 87 5e 00
        E 0 87 5e 00
        E 0 90 40 52
        E 0 90 37 52
        E 0 94 35 51
        E 0 95 3a 52
        E 0 96 37 52
        E 0 96 3e 52
        E 343 80 37 00
        E 0 80 5e 00
        E 0 80 5e 00
        E 0 80 5e 00
        E 0 81 5e 00
        E 0 81 5e 00
        E 0 85 3e 00
        E 0 86 26 00
        E 0 94 32 52
        E 0 96 26 52
        E 343 80 40 00
        E 0 80 37 00
        E 0 84 35 00
        E 0 85 3a 00
        E 0 86 37 00
        E 0 86 3e 00
        E 0 94 3a 51
        E 343 84 32 00
        E 0 86 26 00
        E 0 94 3a 52
        E 0 96 2b 52
        E 0 96 2b 52
        E 0 96 37 51
        E 0 97 26 51
        E 343 84 3a 00
        E 0 95 28 51
        E 0 95 28 51
        E 0 95 28 52
        E 0 95 3a 52
        E 0 96 37 52
        E 0 96 3a 52
        E 343 84 3a 00
        E 0 86 2b 00
        E 0 86 2b 00
        E 0 86 37 00
        E 0 87 26 00
        E 0 90 37 52
        E 0 95 3a 52
        E 0 96 3a 52
        E 0 96 2b 52
        E 343 85 28 00
        E 0 85 28 00
        E 0 85 28 00
        E 0 85 3a 00
        E 0 86 37 00
        E 0 86 3a 00
        E 0 91 37 52
        E 0 96 32 51
        E 0 96 32 51
        E 0 96 32 51
        E 343 80 37 00
        E 0 85 3a 00
        E 0 86 3a 00
        E 0 86 2b 00
        E 0 90 32 50
        E 0 90 32 51
        E 0 90 32 51
        E 0 91 32 52
        E 0 96 32 50
        E 0 96 32 50
        E 0 96 32 51
        E 0 96 32 51
        E 343 81 37 00
        E 0 86 32 00
        E 0 86 32 00
        E 0 86 32 00
        E 0 94 3a 52
        E 0 95 3a 52
        E 0 96 4a 52
        E 0 96 4a 52
        E 343 80 32 00
        E 0 80 32 00
        E 0 80 32 00
        E 0 81 32 00
        E 0 86 32 00
        E 0 86 32 00
        E 0 86 32 00
        E 0 86 32 00
        E 0 95 32 52
        E 0 96 32 52
        E 343 84 3a 00
        E 0 85 3a 00
        E 0 86 4a 00
        E 0 86 4a 00
        E 0 96 37 52
        E 0 96 3a 52
        E 0 96 3a 52
        E 343 85 32 00
        E 0 86 32 00
        E 0 95 37 52
        E 0 97 3a 52
        E 0 97 3e 52
        E 343 86 37 00
        E 0 86 3a 00
        E 0 86 3a 00
        E 0 96 3a 52
        E 343 85 37 00
        E 0 87 3a 00
        E 0 87 3e 00
        E 0 90 37 52
        E 0 96 37 52
        E 0 96 4c 52
        E 0 97 37 52
        E 343 86 3a 00
        E 0 95 3e 50
        E 0 95 3e 51
        E 0 96 32 51
        E 0 96 32 51
        E 0 96 32 51
        E 0 97 37 51
        E 343 80 37 00
        E 0 86 37 00
        E 0 86 4c 00
        E 0 87 37 00
        E 0 90 32 50
        E 0 90 34 50
        E 0 96 32 50
        E 0 96 32 50
        E 0 96 32 50
        E 0 96 32 50
        E 0 96 32 50
        E 0 96 32 50
        E 0 96 34 50
        E 0 96 34 50
        E 0 96 34 50
        E 0 96 34 50
        E 343 85 3e 00
        E 0 86 32 00
        E 0 86 32 00
        E 0 86 32 00
        E 0 87 37 00
        E 0 90 3a 51
        E 0 95 34 52
        E 0 96 34 51
        E 0 96 37 51
        E 0 97 37 52
        E 343 80 32 00
        E 0 80 34 00
        E 0 86 32 00
        E 0 86 32 00
        E 0 86 32 00
        E 0 86 32 00
        E 0 86 32 00
        E 0 86 32 00
        E 0 86 34 00
        E 0 86 34 00
        E 0 86 34 00
        E 0 86 34 00
        E 0 95 3a 51
        E 0 96 37 51
        E 0 96 37 51
        E 0 96 37 50
        E 343 85 3e 00
        E 0 80 3a 00
        E 0 85 34 00
        E 0 86 34 00
        E 0 86 37 00
        E 0 87 37 00
        E 0 90 32 50
        E 343 85 3a 00
        E 0 86 37 00
        E 0 86 37 00
        E 0 86 37 00
        E 0 96 37 52
        E 0 97 3a 51
        E 343 80 32 00
        E 0 91 32 51
        E 0 91 32 52
        E 343 86 37 00
        E 0 87 3a 00
        E 0 90 32 52
        E 0 90 32 52
        E 0 90 32 52
        E 0 96 37 52
        E 343 81 32 00
        E 0 81 32 00
        E 0 90 35 52
        E 0 90 3a 53
        E 0 95 3a 53
        E 0 95 3e 52
        E 0 95 3a 53
        E 0 96 4c 53
        E 343 80 32 00
        E 0 80 32 00
        E 0 80 32 00
        E 0 86 37 00
        E 0 97 4c 51
        E 0 97 4c 51
        E 0 97 4c 51
        E 0 97 4c 51
        E 0 97 4c 51
        E 0 97 4c 52
        E 0 97 4c 52
        E 343 80 35 00
        E 0 80 3a 00
        E 0 85 3a 00
        E 0 85 3e 00
        E 0 85 3a 00
        E 0 86 4c 00
        E 0 90 35 52
        E 0 95 37 52
        E 0 95 35 52
        E 0 96 3a 51
        E 0 96 4c 52
        E 0 97 35 51
        E 343 87 4c 00
        E 0 87 4c 00
        E 0 87 4c 00
        E 0 87 4c 00
        E 0 87 4c 00
        E 0 87 4c 00
        E 0 87 4c 00
        E 0 94 3a 52
        E 0 95 4a 51
        E 0 96 4c 52
        E 0 97 4c 52
        E 343 80 35 00
        E 0 85 37 00
        E 0 85 35 00
        E 0 86 3a 00
        E 0 86 4c 00
        E 0 87 35 00
        E 0 90 32 53
        E 0 94 4d 53
        E 0 96 37 51
        E 0 97 37 52
        E 343 84 3a 00
        E 0 85 4a 00
        E 0 86 4c 00
        E 0 87 4c 00
        E 0 90 3a 52
        E 0 95 37 52
        E 343 80 32 00
        E 0 84 4d 00
        E 0 86 37 00
        E 0 87 37 00
        E 0 90 35 52
        E 0 96 3a 52
        E 343 80 3a 00
        E 0 85 37 00
        E 0 96 3a 51
        E 0 96 37 52
        E 0 97 37 52
        E 343 80 35 00
        E 0 86 3a 00
        E 0 96 37 52
        E 343 86 3a 00
        E 0 86 37 00
        E 0 87 37 00
        E 344 86 37 00
        E 0 95 37 52
        E 343 95 4d 53
        E 0 95 4d 53
        E 0 96 37 52
        E 343 85 37 00
        E 0 90 37 52
        E 0 97 4c 52
        E 343 85 4d 00
        E 0 85 4d 00
        E 0 86 37 00
        E 0 94 3a 52
        E 0 95 3a 52
        E 0 95 4d 52
        E 0 95 4d 52
        E 343 80 37 00
        E 0 87 4c 00
        E 0 96 37 52
        E 0 96 4c 52
        E 0 96 4c 52
        E 343 84 3a 00
        E 0 85 3a 00
        E 0 85 4d 00
        E 0 85 4d 00
        E 0 90 34 53
        E 0 94 4c 52
        E 0 95 59 52
        E 0 96 37 52
        E 0 96 37 52
        E 343 86 37 00
        E 0 86 4c 00
        E 0 86 4c 00
        E 0 95 4a 52
        E 0 95 4a 52
        E 0 95 4a 52
        E 0 95 4a 52
        E 0 95 4a 52
        E 343 80 34 00
        E 0 84 4c 00
        E 0 85 59 00
        E 0 86 37 00
        E 0 86 37 00
        E 0 90 3a 53
        E 0 97 37 52
        E 343 85 4a 00
        E 0 85 4a 00
        E 0 85 4a 00
        E 0 85 4a 00
        E 0 85 4a 00
        E 0 95 37 53
        E 0 96 37 52
        E 343 80 3a 00
        E 0 87 37 00
        E 0 95 4c 53
        E 0 96 4a 52
        E 343 85 37 00
        E 0 86 37 00
        E 0 95 3a 52
        E 0 96 37 52
        E 343 85 4c 00
        E 0 86 4a 00
        E 0 94 37 52
        E 0 95 4a 52
        E 0 96 37 51
        E 0 96 37 52
        E 343 85 3a 00
        E 0 86 37 00
        E 0 95 4c 53
        E 0 95 4c 53
        E 343 84 37 00
        E 0 85 4a 00
        E 0 86 37 00
        E 0 86 37 00
        E 0 95 4c 53
        E 343 85 4c 00
        E 0 85 4c 00
        E 0 95 3a 52
        E 343 85 4c 00
        E 0 95 37 52
        E 343 85 3a 00
        E 0 96 4c 52
        E 343 85 37 00
        E 0 95 4c 51
        E 0 95 4c 52
        E 0 95 4c 52
        E 343 86 4c 00
        E 0 95 3a 52
        E 0 96 3a 52
        E 0 96 3a 52
        E 0 96 4c 52
        E 0 96 4c 52
        E 343 85 4c 00
        E 0 85 4c 00
        E 0 85 4c 00
        E 0 96 37 52
        E 0 97 37 51
        E 343 85 3a 00
        E 0 86 3a 00
        E 0 86 3a 00
        E 0 86 4c 00
        E 0 86 4c 00
        E 0 90 35 52
        E 0 94 3a 52
        E 343 86 37 00
        E 0 87 37 00
        E 0 94 4d 53
        E 0 95 3a 52
        E 0 97 37 52
        E 343 80 35 00
        E 0 84 3a 00
        E 0 95 3a 53
        E 343 84 4d 00
        E 0 85 3a 00
        E 0 87 37 00
        E 0 95 4c 52
        E 0 95 4c 52
        E 343 85 3a 00
        E 0 90 37 53
        E 0 95 4c 53
        E 0 96 37 53
        E 343 85 4c 00
        E 0 85 4c 00
        E 0 94 4d 53
        E 0 95 3a 53
        E 0 96 37 53
        E 343 80 37 00
        E 0 85 4c 00
        E 0 86 37 00
        E 0 90 35 52
        E 0 94 4c 53
        E 343 84 4d 00
        E 0 85 3a 00
        E 0 86 37 00
        E 0 95 34 53
        E 0 95 52 53
        E 343 80 35 00
        E 0 84 4c 00
        E 0 90 35 53
        E 343 85 34 00
        E 0 85 52 00
        E 0 95 3a 53
        E 0 95 3a 53
        E 0 95 4a 53
        E 0 95 4a 53
        E 343 80 35 00
        E 0 94 4d 53
        E 0 95 3a 53
        E 0 96 37 53
        E 0 96 37 53
        E 0 96 37 53
        E 343 85 3a 00
        E 0 85 3a 00
        E 0 85 4a 00
        E 0 85 4a 00
        E 0 94 4c 53
        E 0 95 4d 53
        E 0 95 3a 53
        E 0 96 37 53
        E 0 96 37 53
        E 343 84 4d 00
        E 0 85 3a 00
        E 0 86 37 00
        E 0 86 37 00
        E 0 86 37 00
        E 0 94 4c 53
        E 0 94 4c 53
        E 0 94 4c 53
        E 0 94 4c 53
        E 0 95 3a 53
        E 0 96 37 53
        E 343 84 4c 00
        E 0 85 4d 00
        E 0 85 3a 00
        E 0 86 37 00
        E 0 86 37 00
        E 0 94 4c 53
        E 0 94 4d 53
        E 0 94 4d 53
        E 0 96 37 53
        E 0 96 37 53
        E 0 96 37 53
        E 0 96 37 53
        E 0 96 4a 52
        E 343 84 4c 00
        E 0 84 4c 00
        E 0 84 4c 00
        E 0 84 4c 00
        E 0 85 3a 00
        E 0 86 37 00
        E 0 95 3a 52
        E 0 96 4c 53
        E 0 96 35 52
        E 343 84 4c 00
        E 0 84 4d 00
        E 0 84 4d 00
        E 0 86 37 00
        E 0 86 37 00
        E 0 86 37 00
        E 0 86 37 00
        E 0 86 4a 00
        E 0 95 3a 53
        E 0 95 4c 53
        E 0 95 32 53
        E 343 85 3a 00
        E 0 86 4c 00
        E 0 86 35 00
        E 0 94 5b 53
        E 0 94 5b 53
        E 0 95 59 52
        E 0 95 32 51
        E 344 85 3a 00
        E 0 85 4c 00
        E 0 85 32 00
        E 0 95 52 53
        E 0 96 35 53
        E 343 84 5b 00
        E 0 84 5b 00
        E 0 85 59 00
        E 0 85 32 00
        E 0 96 37 52
        E 343 85 52 00
        E 0 86 35 00
        E 0 95 3a 53
        E 0 96 37 53
        E 343 86 37 00
        E 0 95 5b 53
        E 343 85 3a 00
        E 0 86 37 00
        E 0 96 3a 53
        E 0 96 37 52
        E 343 85 5b 00
        E 0 95 4d 52
        E 0 95 4d 52
        E 0 95 4d 53
        E 0 95 4d 53
        E 343 86 3a 00
        E 0 86 37 00
        E 0 95 4d 53
        E 0 95 35 53
        E 0 95 4c 52
        E 0 95 4c 53
        E 0 96 4c 53
        E 343 85 4d 00
        E 0 85 4d 00
        E 0 85 4d 00
        E 0 85 4d 00
        E 0 94 4c 53
        E 0 94 4c 54
        E 0 95 4c 53
        E 0 95 37 53
        E 343 85 4d 00
        E 0 85 35 00
        E 0 85 4c 00
        E 0 85 4c 00
        E 0 86 4c 00
        E 0 90 34 52
        E 0 95 4a 53
        E 0 96 37 53
        E 343 84 4c 00
        E 0 84 4c 00
        E 0 85 4c 00
        E 0 85 37 00
        E 0 95 4a 52
        E 0 95 4a 53
        E 0 96 52 53
        E 343 80 34 00
        E 0 85 4a 00
        E 0 86 37 00
        E 0 94 59 53
        E 0 95 34 53
        E 343 85 4a 00
        E 0 85 4a 00
        E 0 96 52 53
        E 343 84 59 00
        E 0 85 34 00
        E 0 94 46 53
        E 0 94 46 53
        E 0 95 46 53
        E 0 96 52 53
        E 343 86 52 00
        E 0 86 52 00
        E 0 94 35 52
        E 0 95 35 52
        E 0 96 3a 53
        E 343 84 46 00
        E 0 84 46 00
        E 0 85 46 00
        E 0 86 52 00
        E 0 93 4a 52
        E 0 93 4a 52
        E 0 94 4a 53
        E 0 94 4a 53
        E 0 94 4a 53
        E 0 95 37 53
        E 343 84 35 00
        E 0 85 35 00
        E 0 86 3a 00
        E 0 95 35 52
        E 0 95 37 53
        E 0 95 4a 52
        E 0 95 4a 53
        E 343 83 4a 00
        E 0 83 4a 00
        E 0 84 4a 00
        E 0 84 4a 00
        E 0 84 4a 00
        E 0 85 37 00
        E 0 95 4d 53
        E 0 95 4a 52
        E 0 95 4a 53
        E 343 85 35 00
        E 0 85 37 00
        E 0 85 4a 00
        E 0 85 4a 00
        E 0 94 4d 52
        E 0 94 4d 52
        E 0 94 4d 52
        E 0 95 4d 52
        E 343 85 4d 00
        E 0 85 4a 00
        E 0 85 4a 00
        E 0 94 4a 51
        E 0 94 4a 52
        E 0 94 4a 53
        E 343 84 4d 00
        E 0 84 4d 00
        E 0 84 4d 00
        E 0 85 4d 00
        E 0 95 4a 53
        E 0 95 35 52
        E 0 96 32 53
        E 343 84 4a 00
        E 0 84 4a 00
        E 0 84 4a 00
        E 0 96 32 53
        E 0 96 52 53
        E 343 85 4a 00
        E 0 85 35 00
        E 0 86 32 00
        E 0 90 37 53
        E 0 95 4c 53
        E 343 86 32 00
        E 0 86 52 00
        E 0 90 32 53
        E 0 90 37 53
        E 0 94 35 53
        E 0 95 5b 53
        E 0 95 5b 53
        E 0 95 5b 53
        E 0 95 5b 53
        E 0 96 3a 53
        E 343 80 37 00
        E 0 85 4c 00
        E 0 90 37 53
        E 0 94 3a 53
        E 0 95 4c 54
        E 343 80 32 00
        E 0 80 37 00
        E 0 84 35 00
        E 0 85 5b 00
        E 0 85 5b 00
        E 0 85 5b 00
        E 0 85 5b 00
        E 0 86 3a 00
        E 0 95 4a 54
        E 0 96 35 53
        E 343 80 37 00
        E 0 84 3a 00
        E 0 85 4c 00
        E 0 90 34 52
        E 343 85 4a 00
        E 0 86 35 00
        E 0 94 35 53
        E 0 96 32 53
        E 0 96 3a 52
        E 343 80 34 00
        E 0 90 35 53
        E 0 95 4a 53
        E 0 95 4a 53
        E 0 95 4a 53
        E 0 95 4a 53
        E 343 84 35 00
        E 0 86 32 00
        E 0 86 3a 00
        E 0 94 59 53
        E 0 95 4c 53
        E 0 95 4c 53
        E 0 96 3a 53
        E 343 80 35 00
        E 0 85 4a 00
        E 0 85 4a 00
        E 0 85 4a 00
        E 0 85 4a 00
        E 0 95 4a 53
        E 0 95 32 52
        E 0 96 32 53
        E 0 96 3a 53
        E 0 97 34 53
        E 343 84 59 00
        E 0 85 4c 00
        E 0 85 4c 00
        E 0 86 3a 00
        E 0 95 4a 53
        E 343 85 4a 00
        E 0 85 32 00
        E 0 86 32 00
        E 0 86 3a 00
        E 0 96 37 51
        E 343 85 4a 00
        E 0 95 37 53
        E 0 95 3a 52
        E 0 96 3a 53
        E 0 96 52 53
        E 343 87 34 00
        E 0 86 37 00
        E 0 96 3a 52
        E 0 96 2e 51
        E 0 97 2e 51
        E 0 97 2e 51
        E 0 97 2e 51
        E 0 97 2e 51
        E 0 97 2e 51
        E 0 97 2e 52
        E 0 97 2e 52
        E 343 85 37 00
        E 0 85 3a 00
        E 0 86 3a 00
        E 0 86 52 00
        E 0 90 32 52
        E 0 90 32 52
        E 0 90 32 52
        E 0 96 2e 52
        E 0 97 32 52
        E 0 97 32 52
        E 0 97 32 52
        E 0 97 37 52
        E 343 86 3a 00
        E 0 86 2e 00
        E 0 87 2e 00
        E 0 87 2e 00
        E 0 87 2e 00
        E 0 87 2e 00
        E 0 87 2e 00
        E 0 87 2e 00
        E 0 87 2e 00
        E 0 90 32 53
        E 0 90 32 53
        E 0 90 32 53
        E 0 95 4a 51
        E 0 95 4a 52
        E 0 95 4a 51
        E 0 95 4a 52
        E 0 96 2e 53
        E 344 80 32 00
        E 0 80 32 00
        E 0 80 32 00
        E 0 86 2e 00
        E 0 87 32 00
        E 0 87 32 00
        E 0 87 32 00
        E 0 87 37 00
        E 0 95 37 52
        E 0 96 32 52
        E 0 97 2e 52
        E 343 80 32 00
        E 0 80 32 00
        E 0 80 32 00
        E 0 85 4a 00
        E 0 85 4a 00
        E 0 85 4a 00
        E 0 85 4a 00
        E 0 86 2e 00
        E 0 97 32 52
        E 0 97 32 52
        E 0 97 3a 52
        E 343 85 37 00
        E 0 86 32 00
        E 0 87 2e 00
        E 0 94 35 53
        E 0 95 4d 53
        E 0 95 4c 52
        E 0 95 4c 53
        E 0 95 4c 53
        E 0 96 35 53
        E 0 97 3a 53
        E 343 87 32 00
        E 0 87 32 00
        E 0 87 3a 00
        E 0 95 30 52
        E 0 95 30 52
        E 0 96 30 51
        E 0 96 30 51
        E 0 96 30 52
        E 0 96 30 52
        E 0 96 30 52
        E 0 96 30 52
        E 0 96 30 52
        E 0 96 30 52
        E 343 84 35 00
        E 0 85 4d 00
        E 0 85 4c 00
        E 0 85 4c 00
        E 0 85 4c 00
        E 0 86 35 00
        E 0 87 3a 00
        E 0 95 39 51
        E 0 96 34 51
        E 0 96 34 51
        E 0 96 34 51
        E 0 96 34 52
        E 0 96 30 50
        E 0 96 30 51
        E 0 96 30 51
        E 0 96 30 51
        E 0 96 34 51
        E 0 96 34 51
        E 0 97 34 51
        E 0 97 34 51
        E 343 85 30 00
        E 0 85 30 00
        E 0 86 30 00
        E 0 86 30 00
        E 0 86 30 00
        E 0 86 30 00
        E 0 86 30 00
        E 0 86 30 00
        E 0 86 30 00
        E 0 86 30 00
        E 0 95 30 52
        E 0 96 30 51
        E 0 96 30 51
        E 0 96 30 51
        E 0 96 30 52
        E 0 96 30 52
        E 0 96 2e 50
        E 0 96 2e 50
        E 0 96 2e 51
        E 0 96 2e 51
        E 0 96 2e 51
        E 0 96 2e 51
        E 0 96 2e 51
        E 0 96 2e 52
        E 0 96 2e 52
        E 343 85 39 00
        E 0 86 34 00
        E 0 86 34 00
        E 0 86 34 00
        E 0 86 34 00
        E 0 86 30 00
        E 0 86 30 00
        E 0 86 30 00
        E 0 86 30 00
        E 0 86 34 00
        E 0 86 34 00
        E 0 87 34 00
        E 0 87 34 00
        E 0 90 3a 53
        E 0 94 34 53
        E 0 95 4c 53
        E 0 95 4c 53
        E 0 95 34 53
        E 0 97 30 53
        E 0 97 37 53
        E 343 85 30 00
        E 0 86 30 00
        E 0 86 30 00
        E 0 86 30 00
        E 0 86 30 00
        E 0 86 30 00
        E 0 86 2e 00
        E 0 86 2e 00
        E 0 86 2e 00
        E 0 86 2e 00
        E 0 86 2e 00
        E 0 86 2e 00
        E 0 86 2e 00
        E 0 86 2e 00
        E 0 86 2e 00
        E 0 95 39 54
        E 0 96 30 53
        E 0 97 34 51
        E 0 97 34 53
        E 0 97 34 53
        E 343 80 3a 00
        E 0 84 34 00
        E 0 85 4c 00
        E 0 85 4c 00
        E 0 85 34 00
        E 0 87 30 00
        E 0 87 37 00
        E 0 97 34 51
        E 0 97 34 51
        E 0 97 34 52
        E 0 97 34 51
        E 0 97 34 51
        E 0 97 34 52
        E 0 97 34 52
        E 0 97 34 52
        E 343 85 39 00
        E 0 86 30 00
        E 0 87 34 00
        E 0 87 34 00
        E 0 87 34 00
        E 0 95 2e 51
        E 0 95 2e 52
        E 0 95 30 51
        E 0 96 2e 50
        E 0 96 2e 50
        E 0 96 2e 51
        E 0 96 2e 51
        E 0 96 2e 51
        E 0 96 2e 51
        E 0 96 30 51
        E 0 97 34 51
        E 0 97 34 52
        E 343 87 34 00
        E 0 87 34 00
        E 0 87 34 00
        E 0 87 34 00
        E 0 87 34 00
        E 0 87 34 00
        E 0 87 34 00
        E 0 87 34 00
        E 0 94 5b 52
        E 0 94 5b 52
        E 0 95 39 52
        E 0 95 39 52
        E 0 96 30 52
        E 0 96 30 52
        E 0 96 30 52
        E 0 96 34 52
        E 0 96 37 52
        E 343 85 2e 00
        E 0 85 2e 00
        E 0 85 30 00
        E 0 86 2e 00
        E 0 86 2e 00
        E 0 86 2e 00
        E 0 86 2e 00
        E 0 86 2e 00
        E 0 86 2e 00
        E 0 86 30 00
        E 0 87 34 00
        E 0 87 34 00
        E 0 96 30 50
        E 0 96 30 51
        E 0 96 30 51
        E 0 96 30 52
        E 0 96 30 52
        E 343 84 5b 00
        E 0 84 5b 00
        E 0 85 39 00
        E 0 85 39 00
        E 0 86 30 00
        E 0 86 30 00
        E 0 86 30 00
        E 0 86 34 00
        E 0 86 37 00
        E 0 95 30 51
        E 0 95 30 51
        E 0 95 30 51
        E 0 96 30 50
        E 0 96 30 50
        E 0 96 30 50
        E 0 96 30 50
        E 0 96 30 50
        E 0 96 30 51
        E 343 86 30 00
        E 0 86 30 00
        E 0 86 30 00
        E 0 86 30 00
        E 0 86 30 00
        E 0 95 30 50
        E 0 96 30 50
        E 0 96 34 52
        E 0 96 34 52
        E 0 97 34 51
        E 0 97 34 52
        E 0 97 34 51
        E 0 97 34 52
        E 343 85 30 00
        E 0 85 30 00
        E 0 85 30 00
        E 0 86 30 00
        E 0 86 30 00
        E 0 86 30 00
        E 0 86 30 00
        E 0 86 30 00
        E 0 86 30 00
        E 0 95 4c 53
        E 0 96 34 52
        E 0 96 34 52
        E 0 96 34 52
        E 0 97 34 51
        E 0 97 34 52
        E 0 97 34 53
        E 0 97 34 53
        E 343 85 30 00
        E 0 86 30 00
        E 0 86 34 00
        E 0 86 34 00
        E 0 87 34 00
        E 0 87 34 00
        E 0 87 34 00
        E 0 87 34 00
        E 0 94 5b 51
        E 0 95 37 52
        E 0 95 2e 52
        E 0 95 2e 52
        E 0 95 2e 52
        E 0 96 34 52
        E 0 96 34 52
        E 0 96 34 52
        E 343 85 4c 00
        E 0 86 34 00
        E 0 86 34 00
        E 0 86 34 00
        E 0 87 34 00
        E 0 87 34 00
        E 0 87 34 00
        E 0 87 34 00
        E 0 95 2e 50
        E 0 95 2e 50
        E 0 95 2e 50
        E 0 95 2e 50
        E 0 95 2e 50
        E 0 96 2e 51
        E 343 84 5b 00
        E 0 85 37 00
        E 0 85 2e 00
        E 0 85 2e 00
        E 0 85 2e 00
        E 0 86 34 00
        E 0 86 34 00
        E 0 86 34 00
        E 0 95 2e 51
        E 0 96 2e 52
        E 0 96 2e 51
        E 0 96 2e 51
        E 0 96 2e 52
        E 0 96 2e 52
        E 0 97 2e 52
        E 0 97 2e 52
        E 0 97 34 51
        E 343 85 2e 00
        E 0 85 2e 00
        E 0 85 2e 00
        E 0 85 2e 00
        E 0 85 2e 00
        E 0 86 2e 00
        E 0 95 30 52
        E 0 95 30 52
        E 0 95 30 52
        E 0 96 30 51
        E 0 96 30 52
        E 0 97 34 51
        E 0 97 34 51
        E 0 97 34 51
        E 0 97 34 51
        E 0 97 34 52
        E 0 97 34 51
        E 0 97 34 52
        E 343 85 2e 00
        E 0 86 2e 00
        E 0 86 2e 00
        E 0 86 2e 00
        E 0 86 2e 00
        E 0 86 2e 00
        E 0 87 2e 00
        E 0 87 2e 00
        E 0 87 34 00
        E 0 94 5b 53
        E 0 94 5b 53
        E 0 94 5b 53
        E 0 95 39 53
        E 0 96 37 53
        E 0 96 37 53
        E 343 85 30 00
        E 0 85 30 00
        E 0 85 30 00
        E 0 86 30 00
        E 0 86 30 00
        E 0 87 34 00
        E 0 87 34 00
        E 0 87 34 00
        E 0 87 34 00
        E 0 87 34 00
        E 0 87 34 00
        E 0 87 34 00
        E 0 94 5b 54
        E 0 95 2e 53
        E 0 95 30 54
        E 0 95 30 54
        E 343 84 5b 00
        E 0 84 5b 00
        E 0 84 5b 00
        E 0 85 39 00
        E 0 86 37 00
        E 0 86 37 00
        E 0 95 39 53
        E 0 95 2e 53
        E 0 95 2e 53
        E 0 95 2e 53
        E 0 95 2e 53
        E 343 84 5b 00
        E 0 85 2e 00
        E 0 85 30 00
        E 0 85 30 00
        E 0 95 30 52
        E 0 95 30 52
        E 0 95 30 53
        E 0 95 30 53
        E 0 95 30 53
        E 0 95 30 53
        E 0 96 34 53
        E 343 85 39 00
        E 0 85 2e 00
        E 0 85 2e 00
        E 0 85 2e 00
        E 0 85 2e 00
        E 0 94 4c 52
        E 0 94 4c 52
        E 0 94 4c 52
        E 0 95 30 52
        E 0 95 30 52
        E 0 95 30 52
        E 0 95 30 53
        E 0 95 30 53
        E 0 95 30 52
        E 0 95 30 52
        E 0 95 30 53
        E 0 95 30 53
        E 0 95 30 53
        E 343 85 30 00
        E 0 85 30 00
        E 0 85 30 00
        E 0 85 30 00
        E 0 85 30 00
        E 0 85 30 00
        E 0 86 34 00
        E 0 90 3a 53
        E 0 91 3a 53
        E 0 94 5b 53
        E 0 94 4c 53
        E 0 94 4c 53
        E 0 94 5b 53
        E 0 94 5b 53
        E 0 94 5b 53
        E 0 94 5b 54
        E 0 95 39 52
        E 0 95 39 53
        E 0 95 39 53
        E 0 96 37 53
        E 0 96 3a 53
        E 343 84 4c 00
        E 0 84 4c 00
        E 0 84 4c 00
        E 0 85 30 00
        E 0 85 30 00
        E 0 85 30 00
        E 0 85 30 00
        E 0 85 30 00
        E 0 85 30 00
        E 0 85 30 00
        E 0 85 30 00
        E 0 85 30 00
        E 0 85 30 00
        E 0 96 2e 51
        E 0 96 2e 51
        E 0 96 2e 51
        E 0 96 2e 51
        E 0 96 2e 51
        E 0 96 2e 51
        E 0 97 2e 51
        E 0 97 2e 51
        E 0 97 2e 51
        E 0 97 2e 51
        E 0 97 2e 51
        E 0 97 2e 51
        E 0 97 2e 51
        E 0 97 2e 51
        E 0 97 2e 51
        E 0 97 2e 51
        E 0 97 2e 51
        E 343 80 3a 00
        E 0 81 3a 00
        E 0 84 5b 00
        E 0 84 4c 00
        E 0 84 4c 00
        E 0 84 5b 00
        E 0 84 5b 00
        E 0 84 5b 00
        E 0 84 5b 00
        E 0 85 39 00
        E 0 85 39 00
        E 0 85 39 00
        E 0 86 37 00
        E 0 86 3a 00
        E 0 90 34 52
        E 0 90 34 53
        E 0 90 34 53
        E 0 90 37 53
        E 0 95 3a 53
        E 0 95 30 53
        E 0 95 30 53
        E 0 95 30 53
        E 0 95 30 53
        E 0 96 37 53
        E 0 96 37 53
        E 0 97 34 53
        E 343 86 2e 00
        E 0 86 2e 00
        E 0 86 2e 00
        E 0 86 2e 00
        E 0 86 2e 00
        E 0 86 2e 00
        E 0 87 2e 00
        E 0 87 2e 00
        E 0 87 2e 00
        E 0 87 2e 00
        E 0 87 2e 00
        E 0 87 2e 00
        E 0 87 2e 00
        E 0 87 2e 00
        E 0 87 2e 00
        E 0 87 2e 00
        E 0 87 2e 00
        E 0 90 34 52
        E 0 90 34 52
        E 0 90 34 53
        E 0 95 3a 53
        E 0 96 37 53
        E 343 80 34 00
        E 0 80 34 00
        E 0 80 34 00
        E 0 80 37 00
        E 0 85 3a 00
        E 0 85 30 00
        E 0 85 30 00
        E 0 85 30 00
        E 0 85 30 00
        E 0 86 37 00
        E 0 86 37 00
        E 0 87 34 00
        E 0 96 37 53
        E 343 80 34 00
        E 0 80 34 00
        E 0 80 34 00
        E 0 85 3a 00
        E 0 86 37 00
        E 0 94 5d 52
        E 0 94 5d 53
        E 0 96 34 53
        E 343 86 37 00
        E 0 97 30 53
        E 0 97 30 53
        E 0 97 30 52
        E 0 97 30 53
        E 0 97 34 52
        E 0 97 34 52
        E 0 97 34 53
        E 0 97 34 53
        E 343 84 5d 00
        E 0 84 5d 00
        E 0 86 34 00
        E 0 90 3a 53
        E 0 94 5b 53
        E 0 94 5b 53
        E 0 94 5b 53
        E 0 96 34 53
        E 0 96 37 53
        E 343 87 30 00
        E 0 87 30 00
        E 0 87 30 00
        E 0 87 30 00
        E 0 87 34 00
        E 0 87 34 00
        E 0 87 34 00
        E 0 87 34 00
        E 0 95 4c 52
        E 0 95 4c 53
        E 0 96 34 53
        E 0 97 37 53
        E 343 80 3a 00
        E 0 84 5b 00
        E 0 84 5b 00
        E 0 84 5b 00
        E 0 86 37 00
        E 0 94 5d 53
        E 0 95 5b 53
        E 0 95 5d 51
        E 343 85 4c 00
        E 0 85 4c 00
        E 0 86 34 00
        E 0 87 37 00
        E 0 94 5b 53
        E 0 94 5b 53
        E 0 94 5b 53
        E 0 95 5b 53
        E 0 96 30 53
        E 343 86 34 00
        E 0 84 5d 00
        E 0 85 5b 00
        E 0 85 5d 00
        E 0 97 30 51
        E 0 97 30 51
        E 0 97 30 52
        E 0 97 30 52
        E 0 97 30 52
        E 0 97 30 52
        E 0 97 30 52
        E 0 97 30 52
        E 0 97 30 52
        E 0 97 30 52
        E 343 84 5b 00
        E 0 84 5b 00
        E 0 84 5b 00
        E 0 85 5b 00
        E 0 95 5d 52
        E 0 96 30 51
        E 0 96 30 51
        E 0 96 30 52
        E 0 96 30 51
        E 0 96 30 52
        E 0 97 30 52
        E 0 97 30 52
        E 344 87 30 00
        E 0 87 30 00
        E 0 87 30 00
        E 0 87 30 00
        E 0 87 30 00
        E 0 87 30 00
        E 0 87 30 00
        E 0 87 30 00
        E 0 87 30 00
        E 0 87 30 00
        E 0 91 3a 53
        E 0 94 39 52
        E 0 94 5d 52
        E 0 95 39 53
        E 0 95 5d 51
        E 0 95 5d 51
        E 0 95 5d 52
        E 0 95 5d 53
        E 0 95 5d 53
        E 0 97 34 53
        E 343 86 30 00
        E 0 85 5d 00
        E 0 86 30 00
        E 0 86 30 00
        E 0 86 30 00
        E 0 86 30 00
        E 0 86 30 00
        E 0 87 30 00
        E 0 87 30 00
        E 0 90 30 53
        E 0 96 3a 53
        E 0 97 34 52
        E 0 97 34 52
        E 0 97 34 52
        E 0 97 34 52
        E 0 97 34 53
        E 343 81 3a 00
        E 0 84 39 00
        E 0 84 5d 00
        E 0 85 39 00
        E 0 85 5d 00
        E 0 85 5d 00
        E 0 85 5d 00
        E 0 85 5d 00
        E 0 85 5d 00
        E 0 87 34 00
        E 0 90 3a 52
        E 0 90 3a 52
        E 0 96 34 51
        E 0 97 34 53
        E 0 97 34 52
        E 0 97 34 52
        E 0 97 34 53
        E 343 80 30 00
        E 0 86 3a 00
        E 0 87 34 00
        E 0 87 34 00
        E 0 87 34 00
        E 0 87 34 00
        E 0 87 34 00
        E 0 94 5b 53
        E 0 95 5d 53
        E 0 96 37 53
        E 343 80 3a 00
        E 0 80 3a 00
        E 0 86 34 00
        E 0 87 34 00
        E 0 87 34 00
        E 0 87 34 00
        E 0 87 34 00
        E 0 90 37 53
        E 343 84 5b 00
        E 0 85 5d 00
        E 0 86 37 00
        E 0 90 3a 53
        E 0 90 3a 53
        E 0 94 5b 54
        E 343 80 37 00
        E 0 95 48 53
        E 0 95 37 52
        E 0 96 37 53
        E 0 97 2e 53
        E 0 97 2e 53
        E 343 80 3a 00
        E 0 80 3a 00
        E 0 84 5b 00
        E 0 95 4c 53
        E 0 95 4c 53
        E 0 95 39 52
        E 0 95 39 53
        E 343 85 48 00
        E 0 85 37 00
        E 0 86 37 00
        E 0 87 2e 00
        E 0 87 2e 00
        E 0 95 39 52
        E 343 85 4c 00
        E 0 85 4c 00
        E 0 85 39 00
        E 0 85 39 00
        E 0 94 5b 53
        E 0 95 4f 53
        E 343 85 39 00
        E 0 94 4c 53
        E 0 94 4c 53
        E 0 95 4c 53
        E 0 95 39 53
        E 0 95 37 52
        E 0 95 39 53
        E 0 97 37 52
        E 0 97 37 53
        E 343 84 5b 00
        E 0 85 4f 00
        E 0 90 2e 52
        E 0 90 2e 52
        E 0 90 2e 52
        E 0 90 2e 52
        E 0 94 4c 52
        E 0 94 4c 52
        E 0 94 58 52
        E 0 97 2e 52
        E 0 97 2e 52
        E 343 84 4c 00
        E 0 84 4c 00
        E 0 85 4c 00
        E 0 85 39 00
        E 0 85 37 00
        E 0 85 39 00
        E 0 87 37 00
        E 0 87 37 00
        E 0 90 3a 50
        E 0 90 37 53
        E 0 96 39 53
        E 0 96 37 53
        E 0 97 30 53
        E 0 97 30 53
        E 343 80 2e 00
        E 0 80 2e 00
        E 0 80 2e 00
        E 0 80 2e 00
        E 0 84 4c 00
        E 0 84 4c 00
        E 0 84 58 00
        E 0 87 2e 00
        E 0 87 2e 00
        E 0 94 5b 54
        E 0 94 5b 54
        E 0 95 5b 54
        E 0 95 37 54
        E 0 95 37 53
        E 343 80 3a 00
        E 0 80 37 00
        E 0 86 39 00
        E 0 86 37 00
        E 0 87 30 00
        E 0 87 30 00
        E 0 95 5b 53
        E 0 95 5b 53
        E 0 95 5b 53
        E 0 95 5b 53
        E 0 96 39 53
        E 0 97 2e 53
        E 343 84 5b 00
        E 0 84 5b 00
        E 0 85 5b 00
        E 0 85 37 00
        E 0 85 37 00
        E 0 90 37 53
        E 0 90 3a 53
        E 0 94 5d 53
        E 0 95 5d 53
        E 343 85 5b 00
        E 0 85 5b 00
        E 0 85 5b 00
        E 0 85 5b 00
        E 0 86 39 00
        E 0 87 2e 00
        E 0 94 5d 54
        E 0 94 5b 53
        E 0 94 5b 53
        E 0 94 5b 53
        E 0 94 5b 54
        E 0 94 5d 54
        E 343 80 3a 00
        E 0 84 5d 00
        E 0 85 5d 00
        E 0 90 30 53
        E 0 90 30 53
        E 0 90 30 53
        E 0 95 5b 54
        E 0 96 37 52
        E 343 84 5d 00
        E 0 84 5b 00
        E 0 84 5b 00
        E 0 84 5b 00
        E 0 84 5b 00
        E 0 84 5d 00
        E 0 90 37 53
        E 0 96 39 53
        E 0 96 37 53
        E 343 80 37 00
        E 0 80 30 00
        E 0 80 30 00
        E 0 80 30 00
        E 0 85 5b 00
        E 0 86 37 00
        E 0 90 34 51
        E 0 90 34 52
        E 0 90 34 53
        E 0 96 39 52
        E 0 97 34 51
        E 0 97 34 52
        E 343 80 37 00
        E 0 86 39 00
        E 0 86 37 00
        E 0 97 34 52
        E 0 97 34 52
        E 0 97 34 52
        E 0 97 34 52
        E 0 97 34 52
        E 343 80 34 00
        E 0 80 34 00
        E 0 80 34 00
        E 0 86 39 00
        E 0 87 34 00
        E 0 87 34 00
        E 0 90 30 53
        E 0 90 30 53
        E 0 90 30 53
        E 0 90 30 53
        E 343 87 34 00
        E 0 87 34 00
        E 0 87 34 00
        E 0 87 34 00
        E 0 87 34 00
        E 0 97 30 52
        E 0 97 30 52
        E 0 97 30 53
        E 0 97 30 53
        E 0 97 30 53
        E 343 80 30 00
        E 0 80 30 00
        E 0 80 30 00
        E 0 80 30 00
        E 0 94 5b 54
        E 0 96 5e 54
        E 0 96 34 53
        E 343 87 30 00
        E 0 87 30 00
        E 0 87 30 00
        E 0 87 30 00
        E 0 87 30 00
        E 0 96 39 54
        E 0 97 3a 53
        E 0 97 3a 54
        E 343 84 5b 00
        E 0 86 5e 00
        E 0 86 34 00
        E 0 94 5b 53
        E 0 96 37 54
        E 0 96 37 52
        E 0 97 34 53
        E 343 86 39 00
        E 0 87 3a 00
        E 0 87 3a 00
        E 0 94 5b 54
        E 0 95 5b 54
        E 0 96 34 54
        E 0 96 39 54
        E 0 96 37 53
        E 343 84 5b 00
        E 0 86 37 00
        E 0 86 37 00
        E 0 87 34 00
        E 0 91 37 53
        E 0 94 58 53
        E 0 94 58 53
        E 0 95 58 52
        E 0 95 58 52
        E 0 95 58 52
        E 0 95 58 53
        E 0 95 58 53
        E 343 84 5b 00
        E 0 85 5b 00
        E 0 86 34 00
        E 0 86 39 00
        E 0 86 37 00
        E 0 90 30 51
        E 0 90 30 52
        E 0 90 30 52
        E 0 90 30 52
        E 0 90 30 52
        E 0 90 30 52
        E 0 90 30 52
        E 0 94 5b 52
        E 0 94 5b 53
        E 343 81 37 00
        E 0 84 58 00
        E 0 84 58 00
        E 0 85 58 00
        E 0 85 58 00
        E 0 85 58 00
        E 0 85 58 00
        E 0 85 58 00
        E 0 90 30 52
        E 0 90 34 53
        E 0 97 30 52
        E 0 97 30 52
        E 0 97 30 52
        E 0 97 30 52
        E 0 97 30 52
        E 0 97 30 53
        E 0 97 30 53
        E 343 80 30 00
        E 0 80 30 00
        E 0 80 30 00
        E 0 80 30 00
        E 0 80 30 00
        E 0 80 30 00
        E 0 80 30 00
        E 0 84 5b 00
        E 0 84 5b 00
        E 0 95 5b 53
        E 0 95 5b 53
        E 0 95 5b 54
        E 0 95 39 53
        E 0 96 39 53
        E 0 96 34 54
        E 343 80 30 00
        E 0 80 34 00
        E 0 87 30 00
        E 0 87 30 00
        E 0 87 30 00
        E 0 87 30 00
        E 0 87 30 00
        E 0 87 30 00
        E 0 87 30 00
        E 0 90 3a 53
        E 0 95 37 53
        E 0 95 37 53
        E 0 95 37 53
        E 0 96 37 54
        E 343 85 5b 00
        E 0 85 5b 00
        E 0 85 5b 00
        E 0 85 39 00
        E 0 86 39 00
        E 0 86 34 00
        E 0 95 5b 54
        E 0 95 5b 54
        E 0 95 34 52
        E 0 95 34 52
        E 0 95 34 53
        E 0 95 37 54
        E 343 80 3a 00
        E 0 85 37 00
        E 0 85 37 00
        E 0 85 37 00
        E 0 86 37 00
        E 0 96 34 51
        E 0 96 34 52
        E 0 96 34 53
        E 0 96 34 52
        E 0 96 34 52
        E 0 96 34 53
        E 0 96 34 53
        E 0 97 34 53
        E 343 85 5b 00
        E 0 85 5b 00
        E 0 85 34 00
        E 0 85 34 00
        E 0 85 34 00
        E 0 85 37 00
        E 0 90 2e 53
        E 0 96 34 53
        E 0 96 34 53
        E 0 96 34 53
        E 0 96 34 53
        E 0 96 39 53
        E 0 97 2d 53
        E 0 97 2d 53
        E 343 86 34 00
        E 0 86 34 00
        E 0 86 34 00
        E 0 86 34 00
        E 0 86 34 00
        E 0 86 34 00
        E 0 86 34 00
        E 0 87 34 00
        E 0 90 3a 52
        E 0 96 30 52
        E 0 97 30 52
        E 0 97 30 52
        E 0 97 30 52
        E 0 97 30 52
        E 343 80 2e 00
        E 0 86 34 00
        E 0 86 34 00
        E 0 86 34 00
        E 0 86 34 00
        E 0 86 39 00
        E 0 87 2d 00
        E 0 87 2d 00
        E 0 95 34 52
        E 0 96 39 53
        E 0 97 30 53
        E 344 80 3a 00
        E 0 86 30 00
        E 0 87 30 00
        E 0 87 30 00
        E 0 87 30 00
        E 0 87 30 00
        E 0 95 52 52
        E 343 85 34 00
        E 0 86 39 00
        E 0 87 30 00
        E 0 97 37 53
        E 343 85 52 00
        E 0 97 30 52
        E 0 97 30 53
        E 0 97 34 53
        E 0 97 34 53
        E 0 97 37 54
        E 343 87 37 00
        E 0 96 30 53
        E 0 96 30 54
        E 0 96 30 54
        E 343 87 30 00
        E 0 87 30 00
        E 0 87 34 00
        E 0 87 34 00
        E 0 87 37 00
        E 0 97 2e 52
        E 0 97 2e 52
        E 0 97 2e 52
        E 0 97 2e 52
        E 343 86 30 00
        E 0 86 30 00
        E 0 86 30 00
        E 0 95 32 52
        E 0 95 32 53
        E 343 87 2e 00
        E 0 87 2e 00
        E 0 87 2e 00
        E 0 87 2e 00
        E 0 94 59 53
        E 0 94 59 54
        E 0 95 39 54
        E 0 95 51 53
        E 343 85 32 00
        E 0 85 32 00
        E 0 90 32 53
        E 0 90 32 53
        E 0 90 32 53
        E 0 90 32 53
        E 0 95 37 53
        E 343 84 59 00
        E 0 84 59 00
        E 0 85 39 00
        E 0 85 51 00
        E 0 94 5b 53
        E 0 94 5b 53
        E 0 94 5b 53
        E 0 94 5b 54
        E 0 95 59 53
        E 0 95 59 53
        E 343 80 32 00
        E 0 80 32 00
        E 0 80 32 00
        E 0 80 32 00
        E 0 85 37 00
        E 0 94 59 53
        E 0 94 5b 53
        E 0 94 5b 54
        E 0 94 5b 54
        E 0 94 5b 54
        E 0 95 37 53
        E 0 95 59 54
        E 0 96 37 53
        E 0 97 2b 53
        E 343 84 5b 00
        E 0 84 5b 00
        E 0 84 5b 00
        E 0 84 5b 00
        E 0 85 59 00
        E 0 85 59 00
        E 0 90 2e 52
        E 0 90 2e 53
        E 343 84 59 00
        E 0 84 5b 00
        E 0 84 5b 00
        E 0 84 5b 00
        E 0 84 5b 00
        E 0 85 37 00
        E 0 85 59 00
        E 0 86 37 00
        E 0 87 2b 00
        E 0 96 2e 52
        E 0 97 2e 52
        E 0 97 32 53
        E 343 80 2e 00
        E 0 80 2e 00
        E 0 94 59 53
        E 0 94 59 54
        E 0 94 5b 54
        E 0 95 39 54
        E 0 95 59 54
        E 0 97 32 53
        E 343 86 2e 00
        E 0 87 2e 00
        E 0 87 32 00
        E 0 94 5b 54
        E 0 94 5b 54
        E 0 94 5b 54
        E 0 94 5b 54
        E 0 95 59 54
        E 343 84 59 00
        E 0 84 59 00
        E 0 84 5b 00
        E 0 85 39 00
        E 0 85 59 00
        E 0 87 32 00
        E 0 94 5b 53
        E 0 94 5b 54
        E 0 95 32 52
        E 0 96 32 54
        E 343 84 5b 00
        E 0 84 5b 00
        E 0 84 5b 00
        E 0 84 5b 00
        E 0 85 59 00
        E 0 95 37 54
        E 343 84 5b 00
        E 0 84 5b 00
        E 0 85 32 00
        E 0 86 32 00
        E 343 85 37 00
        E 0 94 5b 54
        E 0 95 39 53
        E 343 94 5b 54
        E 0 94 5b 54
        E 343 84 5b 00
        E 0 85 39 00
        E 343 84 5b 00
        E 0 84 5b 00
        E 0 94 5b 54
        E 0 96 2e 53
        E 0 96 2e 53
        E 0 96 2e 53
        E 0 96 2e 53
        E 343 94 39 54
        E 0 95 5b 54
        E 0 95 37 54
        E 343 84 5b 00
        E 0 86 2e 00
        E 0 86 2e 00
        E 0 86 2e 00
        E 0 86 2e 00
        E 0 95 5b 54
        E 0 95 5b 54
        E 343 84 39 00
        E 0 85 5b 00
        E 0 85 37 00
        E 0 94 5b 54
        E 0 94 5b 54
        E 0 94 5b 54
        E 0 94 5b 54
        E 0 94 5b 54
        E 0 95 59 54
        E 343 85 5b 00
        E 0 85 5b 00
        E 0 95 5e 53
        E 0 95 5e 53
        E 0 95 5e 53
        E 0 95 5e 54
        E 0 95 37 52
        E 0 95 59 54
        E 0 96 5e 53
        E 343 84 5b 00
        E 0 84 5b 00
        E 0 84 5b 00
        E 0 84 5b 00
        E 0 84 5b 00
        E 0 85 59 00
        E 0 94 5b 54
        E 0 94 5b 54
        E 0 95 5b 54
        E 0 95 5b 54
        E 343 85 5e 00
        E 0 85 5e 00
        E 0 85 5e 00
        E 0 85 5e 00
        E 0 85 37 00
        E 0 85 59 00
        E 0 86 5e 00
        E 0 94 5b 54
        E 0 94 5b 54
        E 0 94 5b 54
        E 0 95 32 52
        E 0 95 32 54
        E 0 95 32 53
        E 0 96 2e 53
        E 0 96 2e 54
        E 0 96 2e 54
        E 343 84 5b 00
        E 0 84 5b 00
        E 0 85 5b 00
        E 0 85 5b 00
        E 0 94 4d 53
        E 0 94 4d 53
        E 0 94 4d 54
        E 0 94 4d 54
        E 0 94 37 53
        E 0 94 5b 54
        E 343 84 5b 00
        E 0 84 5b 00
        E 0 84 5b 00
        E 0 85 32 00
        E 0 85 32 00
        E 0 85 32 00
        E 0 86 2e 00
        E 0 86 2e 00
        E 0 86 2e 00
        E 0 94 4d 53
        E 0 95 5e 53
        E 0 95 5e 52
        E 0 96 5e 53
        E 343 84 4d 00
        E 0 84 4d 00
        E 0 84 4d 00
        E 0 84 4d 00
        E 0 84 37 00
        E 0 84 5b 00
        E 0 94 5b 54
        E 0 94 5b 54
        E 0 94 5b 54
        E 343 84 4d 00
        E 0 85 5e 00
        E 0 85 5e 00
        E 0 86 5e 00
        E 0 95 32 53
        E 0 95 32 53
        E 0 96 32 53
        E 0 96 32 53
        E 0 96 32 54
        E 343 84 5b 00
        E 0 84 5b 00
        E 0 84 5b 00
        E 0 95 39 53
        E 0 95 37 53
        E 343 85 32 00
        E 0 85 32 00
        E 0 86 32 00
        E 0 86 32 00
        E 0 86 32 00
        E 0 96 5e 53
        E 0 96 5e 53
        E 0 96 5e 54
        E 343 85 39 00
        E 0 85 37 00
        E 0 96 2d 53
        E 343 86 5e 00
        E 0 86 5e 00
        E 0 86 5e 00
        E 0 95 2e 53
        E 0 96 2e 52
        E 0 96 2e 53
        E 0 96 2e 53
        E 0 96 2d 52
        E 0 96 2d 52
        E 343 86 2d 00
        E 0 94 5b 53
        E 0 94 5b 53
        E 0 95 59 53
        E 344 85 2e 00
        E 0 86 2e 00
        E 0 86 2e 00
        E 0 86 2e 00
        E 0 86 2d 00
        E 0 86 2d 00
        E 0 94 5b 53
        E 0 94 5b 53
        E 0 94 5b 53
        E 343 84 5b 00
        E 0 84 5b 00
        E 0 85 59 00
        E 0 94 5b 54
        E 0 95 59 53
        E 343 84 5b 00
        E 0 84 5b 00
        E 0 84 5b 00
        E 343 84 5b 00
        E 0 85 59 00
        E 0 94 59 54
        E 343 94 5b 54
        E 0 94 5b 54
        E 0 95 5b 54
        E 343 84 59 00
        E 0 90 52 53
        E 0 94 5b 54
        E 0 95 37 54
        E 343 84 5b 00
        E 0 84 5b 00
        E 0 85 5b 00
        E 0 94 5b 54
        E 0 94 5b 54
        E 0 94 5b 54
        E 0 94 5b 54
        E 0 97 52 53
        E 343 80 52 00
        E 0 84 5b 00
        E 0 85 37 00
        E 0 94 5b 54
        E 0 96 35 54
        E 343 84 5b 00
        E 0 84 5b 00
        E 0 84 5b 00
        E 0 84 5b 00
        E 0 87 52 00
        E 0 94 3a 53
        E 0 94 59 54
        E 0 94 5b 54
        E 0 96 52 54
        E 0 96 52 53
        E 343 86 35 00
        E 0 94 59 54
        E 0 94 5b 54
        E 0 96 5e 54
        E 0 96 5e 54
        E 343 84 3a 00
        E 0 84 59 00
        E 0 84 5b 00
        E 0 86 52 00
        E 0 86 52 00
        E 0 94 59 54
        E 0 94 5b 54
        E 0 94 5b 54
        E 0 94 5b 54
        E 0 95 4d 54
        E 0 95 39 54
        E 0 95 5b 54
        E 343 84 5b 00
        E 0 84 59 00
        E 0 84 5b 00
        E 0 86 5e 00
        E 0 86 5e 00
        E 0 94 5b 54
        E 0 94 5b 54
        E 0 94 5b 54
        E 0 95 4d 54
        E 343 84 59 00
        E 0 84 5b 00
        E 0 84 5b 00
        E 0 84 5b 00
        E 0 85 4d 00
        E 0 85 39 00
        E 0 85 5b 00
        E 0 94 37 53
        E 0 94 5b 54
        E 0 94 5b 54
        E 0 94 5b 54
        E 0 94 5b 54
        E 0 94 5b 54
        E 0 94 5b 54
        E 343 84 5b 00
        E 0 84 5b 00
        E 0 84 5b 00
        E 0 85 4d 00
        E 0 94 3a 54
        E 0 94 59 54
        E 0 94 59 54
        E 0 94 5b 54
        E 0 95 4d 54
        E 0 95 5b 54
        E 343 84 37 00
        E 0 84 5b 00
        E 0 84 5b 00
        E 0 84 5b 00
        E 0 84 5b 00
        E 0 84 5b 00
        E 0 84 5b 00
        E 0 94 59 54
        E 0 95 39 54
        E 0 95 4d 54
        E 0 95 37 53
        E 0 95 5b 54
        E 343 84 3a 00
        E 0 84 59 00
        E 0 84 5b 00
        E 0 85 4d 00
        E 0 85 5b 00
        E 0 94 59 54
        E 0 94 59 54
        E 0 94 5b 54
        E 0 95 5b 54
        E 343 85 39 00
        E 0 85 4d 00
        E 0 85 37 00
        E 0 85 5b 00
        E 0 94 59 54
        E 0 94 59 54
        E 0 94 59 54
        E 343 84 59 00
        E 0 84 59 00
        E 0 84 59 00
        E 0 84 5b 00
        E 0 85 5b 00
        E 0 94 39 54
        E 0 94 59 54
        E 0 94 5b 54
        E 0 96 35 53
        E 0 96 35 54
        E 343 84 59 00
        E 0 84 59 00
        E 0 84 59 00
        E 0 94 59 54
        E 0 95 4d 53
        E 0 95 5b 54
        E 343 84 39 00
        E 0 84 59 00
        E 0 84 5b 00
        E 0 86 35 00
        E 0 86 35 00
        E 0 94 59 54
        E 343 84 59 00
        E 0 84 59 00
        E 0 85 4d 00
        E 0 85 5b 00
        E 0 95 4d 53
        E 343 84 59 00
        E 0 94 5b 54
        E 0 94 5b 54
        E 343 85 4d 00
        E 0 95 59 54
        E 343 84 5b 00
        E 0 84 5b 00
        E 0 94 59 54
        E 0 94 5b 54
        E 0 95 4d 53
        E 343 85 59 00
        E 0 94 59 54
        E 0 94 59 54
        E 0 95 5b 53
        E 0 95 5b 54
        E 0 95 5b 54
        E 343 84 59 00
        E 0 84 5b 00
        E 0 85 4d 00
        E 0 90 52 54
        E 343 84 59 00
        E 0 84 59 00
        E 0 85 5b 00
        E 0 85 5b 00
        E 0 85 5b 00
        E 0 95 35 54
        E 0 95 4d 54
        E 0 95 4d 54
        E 0 95 4d 54
        E 343 80 52 00
        E 0 94 59 54
        E 0 94 59 54
        E 0 95 4d 53
        E 0 95 4d 53
        E 0 95 4d 53
        E 0 95 4d 53
        E 0 95 4d 53
        E 0 95 4d 54
        E 343 85 35 00
        E 0 85 4d 00
        E 0 85 4d 00
        E 0 95 4d 54
        E 0 95 4d 53
        E 0 95 4d 54
        E 0 95 4d 53
        E 0 95 4d 53
        E 0 95 4d 53
        E 0 95 4d 54
        E 343 84 59 00
        E 0 84 59 00
        E 0 85 4d 00
        E 0 85 4d 00
        E 0 85 4d 00
        E 0 85 4d 00
        E 0 85 4d 00
        E 0 85 4d 00
        E 0 94 5b 54
        E 0 94 59 54
        E 0 94 59 54
        E 0 94 5b 54
        E 343 85 4d 00
        E 0 85 4d 00
        E 0 85 4d 00
        E 0 85 4d 00
        E 0 85 4d 00
        E 0 85 4d 00
        E 0 85 4d 00
        E 0 85 4d 00
        E 0 94 5b 54
        E 0 94 5b 54
        E 0 94 5b 54
        E 0 94 5b 54
        E 0 94 5b 54
        E 343 84 5b 00
        E 0 84 59 00
        E 0 84 59 00
        E 0 84 5b 00
        E 0 90 52 54
        E 0 95 52 54
        E 0 95 5b 54
        E 0 95 5b 55
        E 0 97 52 54
        E 0 97 52 53
        E 0 97 52 54
        E 343 84 5b 00
        E 0 84 5b 00
        E 0 84 5b 00
        E 0 84 5b 00
        E 0 84 5b 00
        E 0 95 4d 53
        E 0 95 4d 53
        E 0 95 4d 53
        E 0 95 4d 54
        E 0 95 4d 54
        E 0 95 4d 53
        E 0 96 4d 54
        E 343 80 52 00
        E 0 85 52 00
        E 0 85 5b 00
        E 0 85 5b 00
        E 0 87 52 00
        E 0 87 52 00
        E 0 87 52 00
        E 0 94 59 54
        E 0 94 4d 54
        E 0 94 4d 54
        E 0 94 4d 54
        E 0 94 4d 54
        E 0 94 5b 54
        E 0 95 4d 54
        E 0 97 52 54
        E 0 97 52 54
        E 343 85 4d 00
        E 0 85 4d 00
        E 0 85 4d 00
        E 0 85 4d 00
        E 0 85 4d 00
        E 0 85 4d 00
        E 0 86 4d 00
        E 0 90 52 54
        E 0 90 52 54
        E 0 94 59 54
        E 0 94 59 54
        E 0 94 59 54
        E 0 94 5b 54
        E 0 95 39 54
        E 0 95 59 54
        E 0 95 59 54
        E 0 95 59 54
        E 0 95 59 54
        E 0 95 5b 54
        E 343 84 59 00
        E 0 84 4d 00
        E 0 84 4d 00
        E 0 84 4d 00
        E 0 84 4d 00
        E 0 84 5b 00
        E 0 85 4d 00
        E 0 87 52 00
        E 0 87 52 00
        E 0 94 39 54
        E 0 95 4a 52
        E 0 95 4a 53
        E 0 95 4a 53
        E 0 95 4a 53
        E 0 95 4a 53
        E 0 95 4a 53
        E 0 95 4a 54
        E 0 95 4a 54
        E 0 96 35 54
        E 343 80 52 00
        E 0 80 52 00
        E 0 84 59 00
        E 0 84 59 00
        E 0 84 59 00
        E 0 84 5b 00
        E 0 85 39 00
        E 0 85 59 00
        E 0 85 59 00
        E 0 85 59 00
        E 0 85 59 00
        E 0 85 5b 00
        E 0 95 4a 53
        E 0 95 4a 53
        E 0 95 4a 53
        E 0 95 4a 53
        E 0 95 4a 53
        E 0 95 4a 53
        E 0 96 4d 52
        E 0 96 4d 53
        E 0 96 4d 53
        E 344 84 39 00
        E 0 85 4a 00
        E 0 85 4a 00
        E 0 85 4a 00
        E 0 85 4a 00
        E 0 85 4a 00
        E 0 85 4a 00
        E 0 85 4a 00
        E 0 85 4a 00
        E 0 86 35 00
        E 0 95 4d 53
        E 0 95 4d 53
        E 0 96 4d 52
        E 0 96 4d 53
        E 0 96 4d 53
        E 0 96 4d 53
        E 0 96 4d 52
        E 0 96 4d 53
        E 343 85 4a 00
        E 0 85 4a 00
        E 0 85 4a 00
        E 0 85 4a 00
        E 0 85 4a 00
        E 0 85 4a 00
        E 0 86 4d 00
        E 0 86 4d 00
        E 0 86 4d 00
        E 0 94 39 53
        E 0 95 4a 54
        E 0 95 4d 52
        E 0 96 35 53
        E 0 96 35 53
        E 343 85 4d 00
        E 0 85 4d 00
        E 0 86 4d 00
        E 0 86 4d 00
        E 0 86 4d 00
        E 0 86 4d 00
        E 0 86 4d 00
        E 0 86 4d 00
        E 0 96 4d 52
        E 0 96 4d 52
        E 0 96 4d 52
        E 0 96 4d 52
        E 0 96 4d 53
        E 343 84 39 00
        E 0 85 4a 00
        E 0 85 4d 00
        E 0 86 35 00
        E 0 86 35 00
        E 0 94 59 54
        E 0 94 59 54
        E 0 95 4d 53
        E 0 95 4d 53
        E 0 95 5b 54
        E 0 95 5b 54
        E 0 95 5b 54
        E 0 96 35 54
        E 343 86 4d 00
        E 0 86 4d 00
        E 0 86 4d 00
        E 0 86 4d 00
        E 0 86 4d 00
        E 0 94 4a 53
        E 0 94 4a 53
        E 0 94 4a 53
        E 0 94 4a 53
        E 0 94 59 54
        E 0 96 5b 54
        E 0 96 4d 52
        E 0 96 4d 52
        E 0 96 4d 54
        E 343 84 59 00
        E 0 84 59 00
        E 0 85 4d 00
        E 0 85 4d 00
        E 0 85 5b 00
        E 0 85 5b 00
        E 0 85 5b 00
        E 0 86 35 00
        E 0 95 39 53
        E 0 95 4a 52
        E 0 95 4a 52
        E 0 95 4a 53
        E 0 96 4a 52
        E 0 96 4a 52
        E 0 96 4a 52
        E 0 96 4d 53
        E 0 97 4a 53
        E 343 84 4a 00
        E 0 84 4a 00
        E 0 84 4a 00
        E 0 84 4a 00
        E 0 84 59 00
        E 0 86 5b 00
        E 0 86 4d 00
        E 0 86 4d 00
        E 0 86 4d 00
        E 0 96 4a 52
        E 0 96 4c 52
        E 0 97 4a 52
        E 0 97 4a 53
        E 0 97 4c 53
        E 0 97 4c 53
        E 0 97 4c 53
        E 0 97 4c 53
        E 343 85 39 00
        E 0 85 4a 00
        E 0 85 4a 00
        E 0 85 4a 00
        E 0 86 4a 00
        E 0 86 4a 00
        E 0 86 4a 00
        E 0 86 4d 00
        E 0 87 4a 00
        E 0 95 4a 52
        E 0 96 4f 53
        E 0 96 4c 53
        E 343 86 4a 00
        E 0 86 4c 00
        E 0 87 4a 00
        E 0 87 4a 00
        E 0 87 4c 00
        E 0 87 4c 00
        E 0 87 4c 00
        E 0 87 4c 00
        E 0 97 4a 53
        E 343 85 4a 00
        E 0 86 4f 00
        E 0 86 4c 00
        E 0 96 4a 54
        E 0 96 4c 54
        E 0 97 4c 53
        E 0 97 4c 54
        E 0 97 4c 54
        E 0 97 4c 54
        E 343 87 4a 00
        E 0 94 58 55
        E 0 94 37 54
        E 0 96 4c 55
        E 0 97 4c 54
        E 0 97 4c 54
        E 0 97 4c 54
        E 0 97 4c 54
        E 0 97 4c 54
        E 343 86 4a 00
        E 0 86 4c 00
        E 0 87 4c 00
        E 0 87 4c 00
        E 0 87 4c 00
        E 0 87 4c 00
        E 0 96 4c 52
        E 0 96 4c 52
        E 0 96 4c 53
        E 0 96 4c 53
        E 0 97 4c 52
        E 0 97 4c 52
        E 0 97 4c 51
        E 0 97 4c 51
        E 0 97 4c 51
        E 0 97 4c 51
        E 0 97 4c 53
        E 343 84 58 00
        E 0 84 37 00
        E 0 86 4c 00
        E 0 87 4c 00
        E 0 87 4c 00
        E 0 87 4c 00
        E 0 87 4c 00
        E 0 87 4c 00
        E 0 90 4c 51
        E 0 90 4c 52
        E 0 90 4c 52
        E 0 96 4c 51
        E 0 96 4c 51
        E 0 96 4c 51
        E 0 96 4c 52
        E 0 96 4c 52
        E 0 96 4c 52
        E 0 96 4c 52
        E 0 96 4c 52
        E 0 96 4c 52
        E 0 96 4c 52
        E 0 96 4c 52
        E 343 86 4c 00
        E 0 86 4c 00
        E 0 86 4c 00
        E 0 86 4c 00
        E 0 87 4c 00
        E 0 87 4c 00
        E 0 87 4c 00
        E 0 87 4c 00
        E 0 87 4c 00
        E 0 87 4c 00
        E 0 87 4c 00
        E 0 90 4f 52
        E 0 95 4a 52
        E 0 95 4a 53
        E 0 95 4a 53
        E 0 95 4f 53
        E 0 95 4f 53
        E 0 96 4f 53
        E 0 96 4f 53
        E 0 97 4c 52
        E 0 97 4c 53
        E 343 80 4c 00
        E 0 80 4c 00
        E 0 80 4c 00
        E 0 86 4c 00
        E 0 86 4c 00
        E 0 86 4c 00
        E 0 86 4c 00
        E 0 86 4c 00
        E 0 86 4c 00
        E 0 86 4c 00
        E 0 86 4c 00
        E 0 86 4c 00
        E 0 86 4c 00
        E 0 86 4c 00
        E 0 90 4c 53
        E 0 95 4a 53
        E 0 95 4a 53
        E 0 95 3a 53
        E 0 95 4a 53
        E 0 96 4a 53
        E 343 80 4f 00
        E 0 85 4a 00
        E 0 85 4a 00
        E 0 85 4a 00
        E 0 85 4f 00
        E 0 85 4f 00
        E 0 86 4f 00
        E 0 86 4f 00
        E 0 87 4c 00
        E 0 87 4c 00
        E 0 90 4c 52
        E 0 90 4a 52
        E 0 90 4c 52
        E 0 97 4a 52
        E 0 97 4c 52
        E 343 80 4c 00
        E 0 85 4a 00
        E 0 85 4a 00
        E 0 85 3a 00
        E 0 85 4a 00
        E 0 86 4a 00
        E 0 90 4c 53
        E 0 95 34 53
        E 0 97 4a 52
        E 0 97 4a 52
        E 0 97 4a 52
        E 0 97 4a 53
        E 0 97 4a 53
        E 343 80 4c 00
        E 0 80 4a 00
        E 0 80 4c 00
        E 0 87 4a 00
        E 0 87 4c 00
        E 0 90 4c 52
        E 0 90 4c 52
        E 0 94 4f 53
        E 0 94 37 54
        E 0 95 4f 54
        E 0 95 4f 54
        E 0 96 4f 53
        E 0 97 4c 54
        E 343 80 4c 00
        E 0 85 34 00
        E 0 87 4a 00
        E 0 87 4a 00
        E 0 87 4a 00
        E 0 87 4a 00
        E 0 87 4a 00
        E 0 90 4c 54
        E 0 90 4c 54
        E 0 90 4c 54
        E 0 90 5b 54
        E 0 90 4c 53
        E 0 95 28 53
        E 343 80 4c 00
        E 0 80 4c 00
        E 0 84 4f 00
        E 0 84 37 00
        E 0 85 4f 00
        E 0 85 4f 00
        E 0 86 4f 00
        E 0 87 4c 00
        E 0 90 4c 54
        E 0 90 4f 51
        E 0 90 4f 53
        E 0 90 4f 54
        E 0 97 4a 53
        E 0 97 4a 53
        E 0 97 4a 54
        E 0 97 4c 54
        E 343 80 4c 00
        E 0 80 4c 00
        E 0 80 4c 00
        E 0 80 5b 00
        E 0 80 4c 00
        E 0 85 28 00
        E 0 90 4c 51
        E 0 90 4c 51
        E 0 90 4c 51
        E 0 90 4c 51
        E 0 97 4a 51
        E 0 97 4a 51
        E 0 97 4a 51
        E 0 97 4a 51
        E 0 97 4a 51
        E 0 97 4a 51
        E 0 97 4a 52
        E 0 97 4a 52
        E 0 97 4a 52
        E 343 80 4c 00
        E 0 80 4f 00
        E 0 80 4f 00
        E 0 80 4f 00
        E 0 87 4a 00
        E 0 87 4a 00
        E 0 87 4a 00
        E 0 87 4c 00
        E 0 90 4c 50
        E 0 90 4c 50
        E 0 90 4c 50
        E 0 90 4c 50
        E 0 90 4c 51
        E 0 90 4c 51
        E 0 96 4c 50
        E 0 96 4c 50
        E 0 96 4c 51
        E 0 97 4c 51
        E 343 80 4c 00
        E 0 80 4c 00
        E 0 80 4c 00
        E 0 80 4c 00
        E 0 87 4a 00
        E 0 87 4a 00
        E 0 87 4a 00
        E 0 87 4a 00
        E 0 87 4a 00
        E 0 87 4a 00
        E 0 87 4a 00
        E 0 87 4a 00
        E 0 87 4a 00
        E 0 90 32 50
        E 0 90 32 50
        E 0 90 32 51
        E 0 91 32 51
        E 0 97 4c 50
        E 343 80 4c 00
        E 0 80 4c 00
        E 0 80 4c 00
        E 0 80 4c 00
        E 0 80 4c 00
        E 0 86 4c 00
        E 0 86 4c 00
        E 0 86 4c 00
        E 0 87 4c 00
        E 0 90 4c 53
        E 0 90 4c 53
        E 0 97 4a 52
        E 0 97 4c 52
        E 0 97 4c 52
        E 0 97 34 53
        E 343 80 32 00
        E 0 80 32 00
        E 0 80 32 00
        E 0 81 32 00
        E 0 87 4c 00
        E 0 95 37 53
        E 0 95 37 54
        E 0 96 4f 54
        E 0 96 5b 54
        E 0 96 4a 53
        E 0 96 4a 54
        E 0 96 4f 54
        E 0 97 4c 54
        E 0 97 4c 55
        E 0 97 4a 53
        E 0 97 4a 54
        E 343 80 4c 00
        E 0 80 4c 00
        E 0 80 4c 00
        E 0 87 4a 00
        E 0 87 4c 00
        E 0 87 4c 00
        E 0 87 34 00
        E 0 90 4c 53
        E 0 90 4c 53
        E 0 97 4c 54
        E 343 85 37 00
        E 0 85 37 00
        E 0 86 4f 00
        E 0 86 5b 00
        E 0 86 4a 00
        E 0 86 4a 00
        E 0 86 4f 00
        E 0 87 4c 00
        E 0 87 4c 00
        E 0 87 4a 00
        E 0 87 4a 00
        E 0 90 4c 52
        E 0 90 4c 52
        E 343 80 4c 00
        E 0 80 4c 00
        E 0 87 4c 00
        E 0 90 4c 51
        E 0 96 4a 52
        E 0 96 4a 52
        E 0 96 4a 52
        E 0 96 4a 52
        E 0 97 4c 52
        E 0 97 4c 52
        E 0 97 4f 51
        E 0 97 4f 52
        E 0 97 4f 52
        E 0 97 4f 52
        E 343 80 4c 00
        E 0 80 4c 00
        E 0 90 4c 52
        E 0 90 4c 52
        E 0 95 4a 52
        E 0 95 4a 52
        E 0 96 4a 51
        E 0 96 4a 52
        E 0 97 4c 51
        E 0 97 4c 52
        E 343 80 4c 00
        E 0 86 4a 00
        E 0 86 4a 00
        E 0 86 4a 00
        E 0 86 4a 00
        E 0 87 4c 00
        E 0 87 4c 00
        E 0 87 4f 00
        E 0 87 4f 00
        E 0 87 4f 00
        E 0 87 4f 00
        E 0 95 4a 53
        E 0 96 34 53
        E 0 96 4f 53
        E 0 96 4f 53
        E 0 96 4f 53
        E 0 97 4c 53
        E 0 97 4c 53
        E 0 97 5b 52
        E 343 80 4c 00
        E 0 80 4c 00
        E 0 85 4a 00
        E 0 85 4a 00
        E 0 86 4a 00
        E 0 86 4a 00
        E 0 87 4c 00
        E 0 87 4c 00
        E 0 90 4c 53
        E 0 90 4c 53
        E 0 90 4c 53
        E 0 90 4c 53
        E 0 95 4a 54
        E 0 95 4a 54
        E 0 96 4a 53
        E 0 96 4a 54
        E 0 96 4f 53
        E 343 85 4a 00
        E 0 86 34 00
        E 0 86 4f 00
        E 0 86 4f 00
        E 0 86 4f 00
        E 0 87 4c 00
        E 0 87 4c 00
        E 0 87 5b 00
        E 0 90 4c 52
        E 0 90 4c 52
        E 0 90 4c 52
        E 0 90 4c 52
        E 0 91 4c 51
        E 0 91 4c 52
        E 0 96 4f 51
        E 0 96 4f 52
        E 0 97 4c 52
        E 343 80 4c 00
        E 0 80 4c 00
        E 0 80 4c 00
        E 0 80 4c 00
        E 0 85 4a 00
        E 0 85 4a 00
        E 0 86 4a 00
        E 0 86 4a 00
        E 0 86 4f 00
        E 0 90 4c 51
        E 0 90 4c 51
        E 0 90 4c 51
        E 0 90 4c 51
        E 0 90 4c 51
        E 0 90 4c 51
        E 0 90 4c 51
        E 0 90 4c 51
        E 0 97 4c 51
        E 0 97 4c 51
        E 343 80 4c 00
        E 0 80 4c 00
        E 0 80 4c 00
        E 0 80 4c 00
        E 0 81 4c 00
        E 0 81 4c 00
        E 0 86 4f 00
        E 0 86 4f 00
        E 0 87 4c 00
        E 0 90 4c 51
        E 0 90 4c 51
        E 0 90 4c 51
        E 0 95 4a 51
        E 0 96 4f 51
        E 0 97 4f 51
        E 0 97 4f 51
        E 343 80 4c 00
        E 0 80 4c 00
        E 0 80 4c 00
        E 0 80 4c 00
        E 0 80 4c 00
        E 0 80 4c 00
        E 0 80 4c 00
        E 0 80 4c 00
        E 0 87 4c 00
        E 0 87 4c 00
        E 0 96 4f 53
        E 0 96 4f 53
        E 0 96 4f 53
        E 0 96 4f 53
        E 0 96 4f 53
        E 343 80 4c 00
        E 0 80 4c 00
        E 0 80 4c 00
        E 0 85 4a 00
        E 0 86 4f 00
        E 0 87 4f 00
        E 0 87 4f 00
        E 0 90 4c 54
        E 0 90 4c 54
        E 0 95 3a 53
        E 0 95 34 52
        E 0 95 4a 54
        E 0 95 4a 54
        E 0 96 4f 54
        E 0 96 4c 52
        E 0 96 37 54
        E 343 86 4f 00
        E 0 86 4f 00
        E 0 86 4f 00
        E 0 86 4f 00
        E 0 86 4f 00
        E 0 90 4c 52
        E 0 90 4c 53
        E 0 95 4a 52
        E 0 95 4a 52
        E 0 95 4a 52
        E 0 95 4a 52
        E 0 95 4a 53
        E 0 95 4a 53
        E 344 80 4c 00
        E 0 80 4c 00
        E 0 85 3a 00
        E 0 85 34 00
        E 0 85 4a 00
        E 0 85 4a 00
        E 0 86 4f 00
        E 0 86 4c 00
        E 0 86 37 00
        E 0 90 4c 50
        E 0 90 4c 51
        E 0 96 4c 51
        E 0 96 4c 51
        E 0 97 4c 51
        E 0 97 4c 51
        E 0 97 4c 51
        E 343 80 4c 00
        E 0 80 4c 00
        E 0 85 4a 00
        E 0 85 4a 00
        E 0 85 4a 00
        E 0 85 4a 00
        E 0 85 4a 00
        E 0 85 4a 00
        E 0 96 4a 52
        E 0 97 4c 51
        E 0 97 4c 52
        E 0 97 4c 52
        E 0 97 4c 52
        E 343 80 4c 00
        E 0 80 4c 00
        E 0 87 4c 00
        E 0 87 4c 00
        E 0 87 4c 00
        E 0 95 4a 52
        E 0 96 4c 52
        E 0 96 4c 52
        E 0 96 4f 52
        E 0 96 4f 52
        E 0 96 4c 52
        E 0 96 4f 52
        E 343 86 4a 00
        E 0 87 4c 00
        E 0 87 4c 00
        E 0 87 4c 00
        E 0 87 4c 00
        E 0 94 4a 53
        E 0 94 4a 53
        E 0 94 4a 53
        E 0 95 34 53
        E 0 95 3a 53
        E 0 96 4c 54
        E 0 96 4c 54
        E 0 96 4c 54
        E 0 96 4f 54
        E 0 96 4f 53
        E 0 97 4c 53
        E 343 86 4c 00
        E 0 86 4c 00
        E 0 85 4a 00
        E 0 86 4c 00
        E 0 86 4c 00
        E 0 86 4f 00
        E 0 86 4f 00
        E 0 86 4c 00
        E 0 86 4f 00
        E 0 96 4c 52
        E 0 96 4c 52
        E 0 96 4c 53
        E 0 96 4c 53
        E 0 97 4c 53
        E 0 97 4c 53
        E 0 97 4c 53
        E 343 84 4a 00
        E 0 84 4a 00
        E 0 84 4a 00
        E 0 85 34 00
        E 0 85 3a 00
        E 0 86 4c 00
        E 0 86 4c 00
        E 0 86 4c 00
        E 0 86 4f 00
        E 0 86 4f 00
        E 0 87 4c 00
        E 0 95 4c 53
        E 0 96 4c 52
        E 0 96 4c 53
        E 0 96 4c 53
        E 0 96 4c 53
        E 0 96 4f 52
        E 0 96 4f 52
        E 0 96 4c 52
        E 343 86 4c 00
        E 0 86 4c 00
        E 0 86 4c 00
        E 0 86 4c 00
        E 0 87 4c 00
        E 0 87 4c 00
        E 0 87 4c 00
        E 0 95 4a 50
        E 0 95 4a 50
        E 0 95 4a 51
        E 0 96 4c 51
        E 0 96 4c 51
        E 0 96 4c 51
        E 0 96 4c 51
        E 343 85 4c 00
        E 0 86 4c 00
        E 0 86 4c 00
        E 0 86 4c 00
        E 0 86 4c 00
        E 0 86 4f 00
        E 0 86 4f 00
        E 0 86 4c 00
        E 0 95 4a 52
        E 0 95 4c 52
        E 0 95 4c 53
        E 0 96 4c 53
        E 343 85 4a 00
        E 0 85 4a 00
        E 0 85 4a 00
        E 0 86 4c 00
        E 0 86 4c 00
        E 0 86 4c 00
        E 0 86 4c 00
        E 0 95 4c 53
        E 0 95 4c 53
        E 0 96 4c 52
        E 0 96 4c 52
        E 0 96 4c 53
        E 0 96 4c 53
        E 0 96 4c 53
        E 0 96 4c 53
        E 0 96 4c 53
        E 343 85 4a 00
        E 0 85 4c 00
        E 0 85 4c 00
        E 0 86 4c 00
        E 0 95 37 54
        E 0 95 4c 54
        E 0 95 4c 54
        E 0 95 34 54
        E 0 95 37 54
        E 0 96 4c 54
        E 0 96 4c 54
        E 0 96 4c 54
        E 0 96 4f 54
        E 343 85 4c 00
        E 0 85 4c 00
        E 0 86 4c 00
        E 0 86 4c 00
        E 0 86 4c 00
        E 0 86 4c 00
        E 0 86 4c 00
        E 0 86 4c 00
        E 0 86 4c 00
        E 0 95 4c 54
        E 0 95 4c 54
        E 0 95 4c 54
        E 0 95 4c 54
        E 0 95 4c 54
        E 0 95 4c 54
        E 0 96 4c 54
        E 343 85 37 00
        E 0 85 4c 00
        E 0 85 4c 00
        E 0 85 34 00
        E 0 85 37 00
        E 0 86 4c 00
        E 0 86 4c 00
        E 0 86 4c 00
        E 0 86 4f 00
        E 0 95 34 54
        E 0 95 4a 54
        E 0 95 4a 54
        E 0 96 37 54
        E 343 85 4c 00
        E 0 85 4c 00
        E 0 85 4c 00
        E 0 85 4c 00
        E 0 85 4c 00
        E 0 85 4c 00
        E 0 86 4c 00
        E 0 95 4a 53
        E 0 95 4a 53
        E 0 95 4a 53
        E 0 95 4a 52
        E 0 95 4a 52
        E 0 95 4c 53
        E 343 85 34 00
        E 0 85 4a 00
        E 0 85 4a 00
        E 0 86 37 00
        E 0 90 37 54
        E 0 95 4a 53
        E 0 95 4a 53
        E 0 95 4a 54
        E 0 95 4c 54
        E 0 95 4c 54
        E 0 95 4c 54
        E 0 96 37 54
        E 343 85 4a 00
        E 0 85 4a 00
        E 0 85 4a 00
        E 0 85 4a 00
        E 0 85 4c 00
        E 0 95 4a 53
        E 0 95 4a 54
        E 0 95 4a 53
        E 0 96 37 54
        E 0 96 4c 54
        E 343 80 37 00
        E 0 85 4a 00
        E 0 85 4a 00
        E 0 85 4a 00
        E 0 85 4c 00
        E 0 85 4c 00
        E 0 85 4c 00
        E 0 86 37 00
        E 0 90 2e 54
        E 0 95 4a 54
        E 0 95 4c 54
        E 0 96 4c 54
        E 0 96 4c 54
        E 0 96 4c 54
        E 343 85 4a 00
        E 0 85 4a 00
        E 0 85 4a 00
        E 0 85 4a 00
        E 0 86 37 00
        E 0 86 4c 00
        E 0 95 34 52
        E 0 95 37 55
        E 0 95 4c 54
        E 0 95 4c 55
        E 0 95 4c 55
        E 0 95 3a 55
        E 0 95 4f 55
        E 0 96 37 55
        E 343 80 2e 00
        E 0 85 4a 00
        E 0 85 4c 00
        E 0 86 4c 00
        E 0 86 4c 00
        E 0 86 4c 00
        E 0 90 32 54
        E 0 90 32 54
        E 0 90 32 54
        E 0 90 32 54
        E 0 90 34 53
        E 0 91 37 55
        E 0 95 4c 54
        E 0 95 4c 54
        E 0 95 4c 54
        E 343 85 34 00
        E 0 85 37 00
        E 0 85 4c 00
        E 0 85 4c 00
        E 0 85 4c 00
        E 0 85 3a 00
        E 0 85 4f 00
        E 0 86 37 00
        E 0 90 32 52
        E 0 90 32 53
        E 0 96 4c 52
        E 0 96 4c 53
        E 0 96 4c 53
        E 0 96 4c 53
        E 0 96 4c 53
        E 0 96 4c 53
        E 0 96 4c 54
        E 343 80 32 00
        E 0 80 32 00
        E 0 80 32 00
        E 0 80 32 00
        E 0 80 34 00
        E 0 81 37 00
        E 0 85 4c 00
        E 0 85 4c 00
        E 0 85 4c 00
        E 0 90 32 53
        E 0 90 32 53
        E 0 90 32 52
        E 0 90 32 52
        E 0 90 32 52
        E 0 90 32 52
        E 0 90 32 53
        E 0 90 32 53
        E 0 90 32 53
        E 0 90 32 53
        E 343 80 32 00
        E 0 80 32 00
        E 0 86 4c 00
        E 0 86 4c 00
        E 0 86 4c 00
        E 0 86 4c 00
        E 0 86 4c 00
        E 0 86 4c 00
        E 0 86 4c 00
        E 0 90 32 52
        E 0 90 32 52
        E 0 90 32 52
        E 0 90 32 53
        E 0 90 32 53
        E 0 90 32 53
        E 0 95 40 53
        E 0 96 3a 53
        E 343 80 32 00
        E 0 80 32 00
        E 0 80 32 00
        E 0 80 32 00
        E 0 80 32 00
        E 0 80 32 00
        E 0 80 32 00
        E 0 80 32 00
        E 0 80 32 00
        E 0 80 32 00
        E 0 95 46 50
        E 0 95 46 50
        E 0 95 46 50
        E 0 95 4a 50
        E 0 95 4a 50
        E 0 95 4a 50
        E 0 95 4a 50
        E 0 95 4a 50
        E 0 95 4a 50
        E 0 95 46 50
        E 0 95 46 50
        E 0 95 46 50
        E 0 95 46 50
        E 0 95 46 50
        E 343 80 32 00
        E 0 80 32 00
        E 0 80 32 00
        E 0 80 32 00
        E 0 80 32 00
        E 0 80 32 00
        E 0 85 40 00
        E 0 86 3a 00
        E 0 90 4c 50
        E 0 95 46 50
        E 0 95 48 50
        E 0 95 48 50
        E 0 95 4a 50
        E 0 95 4a 50
        E 0 95 4a 50
        E 0 95 4a 50
        E 0 95 4a 50
        E 0 95 4a 50
        E 0 95 4a 50
        E 0 95 4a 50
        E 0 95 4c 50
        E 0 95 46 50
        E 0 95 4a 50
        E 0 95 4a 50
        E 0 96 4c 50
        E 343 85 46 00
        E 0 85 46 00
        E 0 85 46 00
        E 0 85 4a 00
        E 0 85 4a 00
        E 0 85 4a 00
        E 0 85 4a 00
        E 0 85 4a 00
        E 0 85 4a 00
        E 0 85 46 00
        E 0 85 46 00
        E 0 85 46 00
        E 0 85 46 00
        E 0 85 46 00
        E 0 94 4a 50
        E 0 94 46 50
        E 0 95 4a 50
        E 0 95 4a 50
        E 0 95 4a 50
        E 0 95 4a 50
        E 0 96 4c 50
        E 0 96 4c 50
        E 0 96 4c 50
        E 0 96 4c 50
        E 0 96 4c 50
        E 0 96 4c 50
        E 0 97 4c 50
        E 343 80 4c 00
        E 0 85 46 00
        E 0 85 48 00
        E 0 85 48 00
        E 0 85 4a 00
        E 0 85 4a 00
        E 0 85 4a 00
        E 0 85 4a 00
        E 0 85 4a 00
        E 0 85 4a 00
        E 0 85 4a 00
        E 0 85 4a 00
        E 0 85 4c 00
        E 0 85 46 00
        E 0 85 4a 00
        E 0 85 4a 00
        E 0 86 4c 00
        E 0 90 3a 50
        E 0 90 4c 51
        E 0 95 48 51
        E 0 95 48 50
        E 0 95 48 51
        E 0 95 48 51
        E 0 95 48 50
        E 0 96 4c 50
        E 0 96 4c 50
        E 0 96 4c 51
        E 0 97 40 50
        E 0 97 40 50
        E 343 84 4a 00
        E 0 84 46 00
        E 0 85 4a 00
        E 0 85 4a 00
        E 0 85 4a 00
        E 0 85 4a 00
        E 0 86 4c 00
        E 0 86 4c 00
        E 0 86 4c 00
        E 0 86 4c 00
        E 0 86 4c 00
        E 0 86 4c 00
        E 0 87 4c 00
        E 0 95 46 50
        E 0 96 43 50
        E 0 96 43 51
        E 0 96 4c 51
        E 0 96 4c 51
        E 0 96 58 51
        E 0 96 58 51
        E 0 97 58 51
        E 0 97 58 51
        E 0 97 58 51
        E 0 97 58 52
        E 343 80 3a 00
        E 0 80 4c 00
        E 0 85 48 00
        E 0 85 48 00
        E 0 85 48 00
        E 0 85 48 00
        E 0 85 48 00
        E 0 86 4c 00
        E 0 86 4c 00
        E 0 86 4c 00
        E 0 87 40 00
        E 0 87 40 00
        E 0 90 5e 52
        E 0 90 5e 52
        E 0 95 3a 52
        E 0 96 48 52
        E 0 96 43 52
        E 0 96 43 52
        E 0 96 43 53
        E 343 85 46 00
        E 0 86 43 00
        E 0 86 43 00
        E 0 86 4c 00
        E 0 86 4c 00
        E 0 86 58 00
        E 0 86 58 00
        E 0 87 58 00
        E 0 87 58 00
        E 0 87 58 00
        E 0 87 58 00
        E 0 90 5e 52
        E 0 96 5e 52
        E 0 96 5e 52
        E 0 96 5e 52
        E 0 96 5e 52
        E 0 96 5e 52
        E 0 97 5e 52
        E 0 97 5e 52
        E 0 97 5e 52
        E 0 97 5e 52
        E 343 80 5e 00
        E 0 80 5e 00
        E 0 85 3a 00
        E 0 86 48 00
        E 0 86 43 00
        E 0 86 43 00
        E 0 86 43 00
        E 0 90 5b 52
        E 0 96 5e 51
        E 0 96 5e 51
        E 0 96 5e 52
        E 0 96 5e 52
        E 0 96 5e 52
        E 0 96 5e 52
        E 0 96 5e 52
        E 0 96 5e 52
        E 343 80 5e 00
        E 0 86 5e 00
        E 0 86 5e 00
        E 0 86 5e 00
        E 0 86 5e 00
        E 0 86 5e 00
        E 0 87 5e 00
        E 0 87 5e 00
        E 0 87 5e 00
        E 0 87 5e 00
        E 0 90 5b 52
        E 0 90 5b 53
        E 0 90 30 53
        E 0 91 5e 53
        E 0 91 5e 53
        E 0 95 34 52
        E 0 96 3a 52
        E 0 96 58 52
        E 0 97 32 52
        E 343 80 5b 00
        E 0 86 5e 00
        E 0 86 5e 00
        E 0 86 5e 00
        E 0 86 5e 00
        E 0 86 5e 00
        E 0 86 5e 00
        E 0 86 5e 00
        E 0 86 5e 00
        E 0 90 5e 51
        E 0 90 5e 52
        E 0 91 5e 51
        E 0 91 5e 52
        E 0 91 5e 51
        E 0 91 5e 51
        E 0 91 5e 51
        E 0 91 5e 51
        E 0 91 5e 52
        E 0 96 5e 52
        E 343 80 5b 00
        E 0 80 5b 00
        E 0 80 30 00
        E 0 81 5e 00
        E 0 81 5e 00
        E 0 85 34 00
        E 0 86 3a 00
        E 0 87 32 00
        E 0 90 40 52
        E 0 90 40 52
        E 0 90 40 52
        E 0 95 37 52
        E 0 96 58 51
        E 0 96 46 52
        E 343 80 5e 00
        E 0 80 5e 00
        E 0 81 5e 00
        E 0 81 5e 00
        E 0 81 5e 00
        E 0 81 5e 00
        E 0 81 5e 00
        E 0 81 5e 00
        E 0 81 5e 00
        E 0 86 5e 00
        E 0 90 5e 52
        E 0 90 5e 52
        E 0 95 37 52
        E 0 96 48 53
        E 0 97 46 53
        E 0 97 46 53
        E 343 86 58 00
        E 0 80 40 00
        E 0 80 40 00
        E 0 80 40 00
        E 0 85 37 00
        E 0 86 58 00
        E 0 86 46 00
        E 0 91 5b 52
        E 0 91 5b 52
        E 0 91 5b 52
        E 0 97 43 52
        E 0 97 43 52
        E 0 97 43 52
        E 0 97 43 52
        E 0 97 46 52
        E 343 80 5e 00
        E 0 80 5e 00
        E 0 85 37 00
        E 0 86 48 00
        E 0 87 46 00
        E 0 87 46 00
        E 0 90 3a 51
        E 0 95 34 52
        E 0 95 34 52
        E 0 97 46 52
        E 0 97 46 52
        E 0 97 46 52
        E 0 97 46 52
        E 0 97 46 52
        E 0 97 5e 52
        E 0 97 5e 52
        E 343 81 5b 00
        E 0 81 5b 00
        E 0 81 5b 00
        E 0 87 43 00
        E 0 87 43 00
        E 0 87 43 00
        E 0 87 43 00
        E 0 87 46 00
        E 0 90 3a 52
        E 0 91 5b 52
        E 0 95 37 52
        E 0 96 5e 51
        E 0 96 5e 52
        E 344 80 3a 00
        E 0 85 34 00
        E 0 85 34 00
        E 0 87 46 00
        E 0 87 46 00
        E 0 87 46 00
        E 0 87 46 00
        E 0 87 46 00
        E 0 87 5e 00
        E 0 87 5e 00
        E 0 95 43 52
        E 0 95 43 52
        E 343 80 3a 00
        E 0 81 5b 00
        E 0 86 5e 00
        E 0 86 5e 00
        E 0 90 3e 52
        E 0 91 3c 51
        E 343 85 43 00
        E 0 85 43 00
        E 0 90 5e 53
        E 0 90 40 52
        E 0 90 40 52
        E 0 90 40 53
        E 0 91 5b 52
        E 343 85 37 00
        E 0 80 3e 00
        E 0 81 3c 00
        E 0 90 4c 53
        E 0 90 40 53
        E 0 91 40 53
        E 0 91 3c 52
        E 0 95 34 53
        E 0 96 43 53
        E 343 80 5e 00
        E 0 80 40 00
        E 0 80 40 00
        E 0 80 40 00
        E 0 81 5b 00
        E 0 90 5e 53
        E 0 91 3c 52
        E 0 91 5e 52
        E 0 96 34 52
        E 0 96 43 52
        E 0 96 43 52
        E 343 80 4c 00
        E 0 80 40 00
        E 0 81 40 00
        E 0 81 3c 00
        E 0 85 34 00
        E 0 86 43 00
        E 0 96 37 52
        E 0 96 43 51
        E 0 96 43 52
        E 343 81 3c 00
        E 0 81 5e 00
        E 0 86 34 00
        E 0 86 43 00
        E 0 86 43 00
        E 0 90 5e 52
        E 0 91 5e 52
        E 0 96 43 52
        E 0 97 46 52
        E 343 86 37 00
        E 0 86 43 00
        E 0 86 43 00
        E 0 91 5e 52
        E 0 91 5e 53
        E 0 91 5e 52
        E 0 96 37 52
        E 343 80 5e 00
        E 0 80 5e 00
        E 0 81 5e 00
        E 0 86 43 00
        E 0 87 46 00
        E 0 95 5e 53
        E 343 81 5e 00
        E 0 81 5e 00
        E 0 81 5e 00
        E 0 86 37 00
        E 0 91 3a 52
        E 343 85 5e 00
        E 0 91 3a 53
        E 0 96 58 53
        E 343 81 3a 00
        E 0 95 37 53
        E 0 96 48 53
        E 0 97 4a 53
        E 343 81 3a 00
        E 0 86 58 00
        E 0 90 3c 52
        E 0 90 3c 53
        E 0 90 40 52
        E 0 90 40 53
        E 343 85 37 00
        E 0 86 48 00
        E 0 87 4a 00
        E 0 91 3c 51
        E 0 91 3c 51
        E 0 91 3c 52
        E 0 91 3c 52
        E 0 91 3c 52
        E 343 80 3c 00
        E 0 80 3c 00
        E 0 80 40 00
        E 0 80 40 00
        E 0 95 58 52
        E 343 81 3c 00
        E 0 81 3c 00
        E 0 81 3c 00
        E 0 81 3c 00
        E 0 81 3c 00
        E 0 91 3c 52
        E 343 85 58 00
        E 0 91 46 53
        E 0 91 46 53
        E 343 81 3c 00
        E 0 90 3e 52
        E 0 91 3e 51
        E 0 91 3e 52
        E 0 91 3e 51
        E 0 91 3e 51
        E 0 91 3e 51
        E 0 91 3e 51
        E 343 81 46 00
        E 0 81 46 00
        E 0 90 3e 53
        E 0 91 3a 53
        E 0 91 43 53
        E 0 91 58 53
        E 0 96 3a 52
        E 343 80 3e 00
        E 0 81 3e 00
        E 0 81 3e 00
        E 0 81 3e 00
        E 0 81 3e 00
        E 0 81 3e 00
        E 0 81 3e 00
        E 0 90 34 53
        E 0 90 3a 52
        E 0 90 3a 53
        E 0 90 3e 52
        E 0 90 3e 53
        E 343 80 3e 00
        E 0 81 3a 00
        E 0 81 43 00
        E 0 81 58 00
        E 0 86 3a 00
        E 0 91 24 52
        E 0 91 24 52
        E 0 91 24 52
        E 0 91 24 52
        E 0 91 24 52
        E 0 91 24 52
        E 0 91 24 52
        E 0 91 24 52
        E 0 91 24 52
        E 0 91 24 53
        E 343 80 34 00
        E 0 80 3a 00
        E 0 80 3a 00
        E 0 80 3e 00
        E 0 80 3e 00
        E 0 90 26 50
        E 0 90 26 50
        E 0 90 26 50
        E 0 90 26 50
        E 0 90 28 50
        E 0 90 28 50
        E 0 90 28 50
        E 0 90 28 50
        E 0 91 26 50
        E 0 91 26 50
        E 0 91 26 50
        E 0 91 26 50
        E 0 91 26 50
        E 0 91 26 50
        E 0 91 26 50
        E 0 91 26 50
        E 0 91 28 50
        E 0 91 28 50
        E 0 91 28 50
        E 343 81 24 00
        E 0 81 24 00
        E 0 81 24 00
        E 0 81 24 00
        E 0 81 24 00
        E 0 81 24 00
        E 0 81 24 00
        E 0 81 24 00
        E 0 81 24 00
        E 0 81 24 00
        E 0 90 2b 50
        E 0 90 2b 50
        E 0 90 2b 51
        E 0 90 28 50
        E 0 90 28 50
        E 0 90 28 50
        E 0 90 28 50
        E 0 90 2b 50
        E 0 90 2b 50
        E 0 90 2b 50
        E 0 90 2b 50
        E 0 91 3c 51
        E 0 91 2b 50
        E 0 91 2b 50
        E 0 91 2b 50
        E 0 97 34 51
        E 343 80 26 00
        E 0 80 26 00
        E 0 80 26 00
        E 0 80 26 00
        E 0 80 28 00
        E 0 80 28 00
        E 0 80 28 00
        E 0 80 28 00
        E 0 81 26 00
        E 0 81 26 00
        E 0 81 26 00
        E 0 81 26 00
        E 0 81 26 00
        E 0 81 26 00
        E 0 81 26 00
        E 0 81 26 00
        E 0 81 28 00
        E 0 81 28 00
        E 0 81 28 00
        E 0 90 30 51
        E 0 90 30 51
        E 0 90 30 51
        E 0 90 30 51
        E 0 90 30 51
        E 0 97 34 50
        E 343 80 2b 00
        E 0 80 2b 00
        E 0 80 2b 00
        E 0 80 28 00
        E 0 80 28 00
        E 0 80 28 00
        E 0 80 28 00
        E 0 80 2b 00
        E 0 80 2b 00
        E 0 80 2b 00
        E 0 80 2b 00
        E 0 81 3c 00
        E 0 81 2b 00
        E 0 81 2b 00
        E 0 81 2b 00
        E 0 87 34 00
        E 0 95 3a 52
        E 0 96 3a 52
        E 0 96 3a 52
        E 0 96 3a 52
        E 0 97 34 51
        E 343 80 30 00
        E 0 80 30 00
        E 0 80 30 00
        E 0 80 30 00
        E 0 80 30 00
        E 0 87 34 00
        E 0 90 3c 51
        E 0 90 3c 51
        E 0 90 3e 51
        E 0 90 3e 50
        E 0 91 43 51
        E 0 96 3a 51
        E 0 96 43 51
        E 0 96 43 51
        E 0 96 43 51
        E 343 85 3a 00
        E 0 86 3a 00
        E 0 86 3a 00
        E 0 86 3a 00
        E 0 87 34 00
        E 0 90 3c 50
        E 0 90 3e 50
        E 0 90 3e 50
        E 0 90 3e 50
        E 0 90 4f 50
        E 0 90 4f 50
        E 0 90 3c 50
        E 0 90 3c 50
        E 0 90 3c 50
        E 0 90 3e 50
        E 0 90 40 50
        E 343 80 3c 00
        E 0 80 3c 00
        E 0 80 3e 00
        E 0 80 3e 00
        E 0 81 43 00
        E 0 86 3a 00
        E 0 86 43 00
        E 0 86 43 00
        E 0 86 43 00
        E 0 90 4c 50
        E 0 90 4c 50
        E 0 90 4c 50
        E 0 90 4f 50
        E 0 90 4f 50
        E 0 90 4f 50
        E 0 96 3a 50
        E 0 96 3a 50
        E 0 97 4c 50
        E 343 80 3c 00
        E 0 80 3e 00
        E 0 80 3e 00
        E 0 80 3e 00
        E 0 80 4f 00
        E 0 80 4f 00
        E 0 80 3c 00
        E 0 80 3c 00
        E 0 80 3c 00
        E 0 80 3e 00
        E 0 80 40 00
        E 0 90 3c 50
        E 0 90 3c 50
        E 0 90 3c 50
        E 0 90 3c 50
        E 0 90 3c 50
        E 0 90 3c 50
        E 0 90 40 50
        E 0 90 40 50
        E 0 90 40 50
        E 0 90 40 50
        E 0 90 40 50
        E 343 80 4c 00
        E 0 80 4c 00
        E 0 80 4c 00
        E 0 80 4f 00
        E 0 80 4f 00
        E 0 80 4f 00
        E 0 86 3a 00
        E 0 86 3a 00
        E 0 87 4c 00
        E 0 90 3e 50
        E 0 90 3e 50
        E 0 90 3e 50
        E 0 90 3e 50
        E 0 90 3e 50
        E 0 90 5b 50
        E 0 90 5b 50
        E 0 90 5b 50
        E 0 90 5b 50
        E 0 90 5b 50
        E 0 90 5b 50
        E 0 90 5b 50
        E 0 91 58 50
        E 0 91 58 50
        E 0 91 58 50
        E 0 91 58 50
        E 0 91 58 50
        E 343 80 3c 00
        E 0 80 3c 00
        E 0 80 3c 00
        E 0 80 3c 00
        E 0 80 3c 00
        E 0 80 3c 00
        E 0 80 40 00
        E 0 80 40 00
        E 0 80 40 00
        E 0 80 40 00
        E 0 80 40 00
        E 0 90 3e 50
        E 0 90 3e 50
        E 0 90 3e 50
        E 0 90 3e 50
        E 0 90 5b 50
        E 0 90 5b 50
        E 0 90 5b 50
        E 0 90 5b 50
        E 0 90 5b 50
        E 0 90 5b 50
        E 0 90 5b 50
        E 0 90 5b 50
        E 0 90 5b 51
        E 0 90 5b 51
        E 0 90 5b 51
        E 0 90 5b 51
        E 0 90 5b 51
        E 0 90 5b 51
        E 0 95 3a 50
        E 343 80 3e 00
        E 0 80 3e 00
        E 0 80 3e 00
        E 0 80 3e 00
        E 0 80 3e 00
        E 0 80 5b 00
        E 0 80 5b 00
        E 0 80 5b 00
        E 0 80 5b 00
        E 0 80 5b 00
        E 0 80 5b 00
        E 0 80 5b 00
        E 0 81 58 00
        E 0 81 58 00
        E 0 81 58 00
        E 0 81 58 00
        E 0 81 58 00
        E 0 90 5e 50
        E 0 90 5e 50
        E 0 90 5e 50
        E 0 90 5e 50
        E 0 90 5e 50
        E 0 90 5e 50
        E 0 90 5e 50
        E 0 90 5e 50
        E 0 90 5e 51
        E 0 90 3c 50
        E 0 90 5e 51
        E 0 90 3c 51
        E 0 90 3c 51
        E 0 90 5e 50
        E 0 90 5e 51
        E 0 90 5e 51
        E 343 80 3e 00
        E 0 80 3e 00
        E 0 80 3e 00
        E 0 80 3e 00
        E 0 80 5b 00
        E 0 80 5b 00
        E 0 80 5b 00
        E 0 80 5b 00
        E 0 80 5b 00
        E 0 80 5b 00
        E 0 80 5b 00
        E 0 80 5b 00
        E 0 80 5b 00
        E 0 80 5b 00
        E 0 80 5b 00
        E 0 80 5b 00
        E 0 80 5b 00
        E 0 80 5b 00
        E 0 85 3a 00
        E 0 90 3c 50
        E 0 90 3c 50
        E 0 90 3c 50
        E 0 90 5e 50
        E 0 90 5e 50
        E 0 90 5e 50
        E 0 90 5e 50
        E 0 90 5e 50
        E 0 90 5e 50
        E 0 90 5e 50
        E 0 90 5e 50
        E 0 90 3c 50
        E 0 90 3c 50
        E 0 90 5e 50
        E 0 90 3c 50
        E 0 91 3c 50
        E 343 80 5e 00
        E 0 80 5e 00
        E 0 80 5e 00
        E 0 80 5e 00
        E 0 80 5e 00
        E 0 80 5e 00
        E 0 80 5e 00
        E 0 80 5e 00
        E 0 80 5e 00
        E 0 80 3c 00
        E 0 80 5e 00
        E 0 80 3c 00
        E 0 80 3c 00
        E 0 80 5e 00
        E 0 80 5e 00
        E 0 80 5e 00
        E 0 91 3c 51
        E 0 91 3c 51
        E 0 91 3c 51
        E 0 91 3c 51
        E 343 80 3c 00
        E 0 80 3c 00
        E 0 80 3c 00
        E 0 80 5e 00
        E 0 80 5e 00
        E 0 80 5e 00
        E 0 80 5e 00
        E 0 80 5e 00
        E 0 80 5e 00
        E 0 80 5e 00
        E 0 80 5e 00
        E 0 80 3c 00
        E 0 80 3c 00
        E 0 80 5e 00
        E 0 80 3c 00
        E 0 81 3c 00
        E 0 91 3a 51
        E 343 81 3c 00
        E 0 81 3c 00
        E 0 81 3c 00
        E 0 81 3c 00
        E 0 91 58 53
        E 0 91 4a 53
        E 0 94 58 52
        E 0 94 58 52
        E 343 81 3a 00
        E 0 90 5b 53
        E 0 90 5e 53
        E 0 91 3e 53
        E 0 91 3e 53
        E 0 91 58 52
        E 344 81 58 00
        E 0 81 4a 00
        E 0 84 58 00
        E 0 84 58 00
        E 0 90 5e 52
        E 0 90 5e 53
        E 0 90 5e 53
        E 0 90 5e 53
        E 0 90 5e 53
        E 0 91 4a 53
        E 0 94 58 53
        E 343 80 5b 00
        E 0 80 5e 00
        E 0 81 3e 00
        E 0 81 3e 00
        E 0 81 58 00
        E 0 90 4f 51
        E 0 90 4f 51
        E 0 90 4f 51
        E 343 80 5e 00
        E 0 80 5e 00
        E 0 80 5e 00
        E 0 80 5e 00
        E 0 80 5e 00
        E 0 81 4a 00
        E 0 84 58 00
        E 0 90 3c 50
        E 0 90 3c 50
        E 0 90 4f 50
        E 0 90 3c 51
        E 0 91 3c 51
        E 343 80 4f 00
        E 0 80 4f 00
        E 0 80 4f 00
        E 0 90 4f 50
        E 0 90 4f 50
        E 0 90 4f 51
        E 0 90 4f 51
        E 0 90 4f 51
        E 0 91 4f 51
        E 0 91 4f 51
        E 0 91 4f 51
        E 0 91 4f 51
        E 0 95 58 51
        E 0 95 58 51
        E 0 95 58 51
        E 343 80 3c 00
        E 0 80 3c 00
        E 0 80 4f 00
        E 0 80 3c 00
        E 0 81 3c 00
        E 0 91 3a 53
        E 0 94 52 54
        E 0 94 58 52
        E 0 95 58 53
        E 0 95 37 53
        E 0 95 37 54
        E 0 95 58 54
        E 0 96 58 54
        E 0 96 58 54
        E 343 80 4f 00
        E 0 80 4f 00
        E 0 80 4f 00
        E 0 80 4f 00
        E 0 80 4f 00
        E 0 81 4f 00
        E 0 81 4f 00
        E 0 81 4f 00
        E 0 81 4f 00
        E 0 85 58 00
        E 0 85 58 00
        E 0 85 58 00
        E 0 90 5b 54
        E 0 90 5b 53
        E 0 91 4f 53
        E 0 95 3a 53
        E 343 81 3a 00
        E 0 84 52 00
        E 0 84 58 00
        E 0 85 58 00
        E 0 85 37 00
        E 0 85 37 00
        E 0 85 58 00
        E 0 86 58 00
        E 0 86 58 00
        E 0 90 3a 53
        E 0 95 58 54
        E 0 95 34 54
        E 0 95 37 53
        E 0 95 3a 54
        E 0 95 58 54
        E 343 80 5b 00
        E 0 80 5b 00
        E 0 81 4f 00
        E 0 85 3a 00
        E 0 90 5e 53
        E 0 90 5e 53
        E 0 90 5e 53
        E 0 90 5e 53
        E 0 90 5e 52
        E 0 90 5e 53
        E 0 90 5e 53
        E 343 80 3a 00
        E 0 85 58 00
        E 0 85 34 00
        E 0 85 37 00
        E 0 85 3a 00
        E 0 85 58 00
        E 0 90 5e 53
        E 0 90 5e 53
        E 0 90 5e 53
        E 0 90 5e 53
        E 0 90 5b 53
        E 0 91 3a 53
        E 343 80 5e 00
        E 0 80 5e 00
        E 0 80 5e 00
        E 0 80 5e 00
        E 0 80 5e 00
        E 0 80 5e 00
        E 0 80 5e 00
        E 0 90 5b 53
        E 0 90 5b 53
        E 0 90 5b 52
        E 0 90 5b 53
        E 0 90 5b 53
        E 0 90 5b 53
        E 0 91 3a 53
        E 0 95 58 53
        E 343 80 5e 00
        E 0 80 5e 00
        E 0 80 5e 00
        E 0 80 5e 00
        E 0 80 5b 00
        E 0 81 3a 00
        E 0 91 5b 53
        E 0 91 5b 53
        E 0 91 5b 53
        E 0 91 5b 53
        E 0 91 5b 53
        E 0 91 5b 53
        E 0 91 5b 53
        E 0 91 5b 52
        E 0 91 5b 52
        E 343 80 5b 00
        E 0 80 5b 00
        E 0 80 5b 00
        E 0 80 5b 00
        E 0 80 5b 00
        E 0 80 5b 00
        E 0 81 3a 00
        E 0 85 58 00
        E 0 91 26 54
        E 0 91 26 54
        E 0 91 5b 54
        E 0 97 34 54
        E 343 81 5b 00
        E 0 81 5b 00
        E 0 81 5b 00
        E 0 81 5b 00
        E 0 81 5b 00
        E 0 81 5b 00
        E 0 81 5b 00
        E 0 81 5b 00
        E 0 81 5b 00
        E 0 95 37 54
        E 0 96 34 54
        E 343 81 26 00
        E 0 81 26 00
        E 0 81 5b 00
        E 0 87 34 00
        E 0 91 5b 53
        E 0 91 5b 53
        E 0 91 5b 53
        E 0 91 5b 53
        E 0 91 5b 53
        E 0 91 5b 52
        E 0 91 5b 53
        E 0 95 37 51
        E 343 85 37 00
        E 0 86 34 00
        E 0 90 32 53
        E 0 90 32 53
        E 0 90 32 54
        E 0 91 58 53
        E 0 91 32 52
        E 0 94 58 53
        E 0 95 37 54
        E 343 81 5b 00
        E 0 81 5b 00
        E 0 81 5b 00
        E 0 81 5b 00
        E 0 81 5b 00
        E 0 81 5b 00
        E 0 81 5b 00
        E 0 85 37 00
        E 0 90 32 53
        E 0 90 32 53
        E 0 90 32 54
        E 0 95 52 54
        E 0 97 32 53
        E 0 97 32 53
        E 343 80 32 00
        E 0 80 32 00
        E 0 80 32 00
        E 0 81 58 00
        E 0 81 32 00
        E 0 84 58 00
        E 0 85 37 00
        E 0 90 5b 54
        E 0 90 5b 54
        E 0 91 34 53
        E 0 91 34 53
        E 343 80 32 00
        E 0 80 32 00
        E 0 80 32 00
        E 0 85 52 00
        E 0 87 32 00
        E 0 87 32 00
        E 0 90 5b 53
        E 0 90 5b 54
        E 0 91 5b 52
        E 0 91 5b 53
        E 0 91 5b 53
        E 0 91 5b 54
        E 343 80 5b 00
        E 0 80 5b 00
        E 0 81 34 00
        E 0 81 34 00
        E 0 94 37 54
        E 0 95 37 54
        E 343 80 5b 00
        E 0 80 5b 00
        E 0 81 5b 00
        E 0 81 5b 00
        E 0 81 5b 00
        E 0 81 5b 00
        E 0 91 5b 54
        E 0 91 5b 54
        E 0 95 37 54
        E 343 84 37 00
        E 0 85 37 00
        E 0 90 34 54
        E 0 94 37 54
        E 0 95 37 54
        E 0 95 37 54
        E 343 81 5b 00
        E 0 81 5b 00
        E 0 85 37 00
        E 0 91 5e 54
        E 0 95 37 54
        E 0 96 34 54
        E 343 80 34 00
        E 0 84 37 00
        E 0 85 37 00
        E 0 85 37 00
        E 0 91 5b 54
        E 0 91 46 54
        E 0 91 48 54
        E 0 96 37 54
        E 343 81 5e 00
        E 0 85 37 00
        E 0 86 34 00
        E 0 91 5b 54
        E 0 91 37 54
        E 0 95 37 53
        E 0 95 37 54
        E 343 81 5b 00
        E 0 81 46 00
        E 0 81 48 00
        E 0 86 37 00
        E 0 95 37 54
        E 0 95 37 53
        E 343 81 5b 00
        E 0 81 37 00
        E 0 85 37 00
        E 0 85 37 00
        E 0 91 5b 53
        E 0 91 5b 53
        E 0 91 5b 53
        E 0 91 5b 54
        E 0 91 5b 53
        E 0 94 3a 53
        E 0 95 3a 53
        E 343 85 37 00
        E 0 85 37 00
        E 0 95 37 53
        E 0 95 37 53
        E 0 95 37 54
        E 0 96 3a 53
        E 0 97 34 54
        E 343 81 5b 00
        E 0 81 5b 00
        E 0 81 5b 00
        E 0 81 5b 00
        E 0 81 5b 00
        E 0 84 3a 00
        E 0 85 3a 00
        E 0 95 37 54
        E 0 95 34 54
        E 0 95 37 54
        E 343 85 37 00
        E 0 85 37 00
        E 0 85 37 00
        E 0 86 3a 00
        E 0 87 34 00
        E 0 95 34 54
        E 0 95 37 54
        E 343 85 37 00
        E 0 85 34 00
        E 0 85 37 00
        E 0 95 34 54
        E 0 96 37 54
        E 343 85 34 00
        E 0 85 37 00
        E 0 95 34 54
        E 0 95 37 54
        E 0 95 37 53
        E 343 85 34 00
        E 0 86 37 00
        E 0 95 37 52
        E 0 95 52 54
        E 0 96 37 54
        E 343 85 34 00
        E 0 85 37 00
        E 0 85 37 00
        E 0 97 32 53
        E 343 85 37 00
        E 0 85 52 00
        E 0 86 37 00
        E 0 94 3a 54
        E 0 95 34 54
        E 343 87 32 00
        E 0 91 3a 54
        E 0 94 37 54
        E 0 95 37 54
        E 0 95 58 54
        E 0 95 37 54
        E 343 84 3a 00
        E 0 85 34 00
        E 0 96 37 54
        E 0 96 37 54
        E 0 96 37 54
        E 0 97 34 54
        E 344 81 3a 00
        E 0 84 37 00
        E 0 85 37 00
        E 0 85 58 00
        E 0 95 52 54
        E 0 95 37 54
        E 0 96 37 54
        E 343 86 37 00
        E 0 86 37 00
        E 0 86 37 00
        E 0 87 34 00
        E 0 94 3a 52
        E 0 94 52 54
        E 0 95 3a 53
        E 343 85 37 00
        E 0 85 52 00
        E 0 85 37 00
        E 0 86 37 00
        E 0 95 37 53
        E 0 95 37 53
        E 343 84 3a 00
        E 0 84 52 00
        E 0 85 3a 00
        E 0 95 52 54
        E 0 96 37 54
        E 0 96 3a 54
        E 343 85 37 00
        E 0 85 37 00
        E 0 91 3a 53
        E 0 91 3a 53
        E 343 85 52 00
        E 0 86 3a 00
        E 343 81 3a 00
        E 0 81 3a 00
        E 0 95 37 54
        E 0 95 52 54
        E 343 86 37 00
        E 0 95 37 54
        E 0 96 34 54
        E 343 85 37 00
        E 0 85 52 00
        E 0 95 52 54
        E 0 96 3a 54
        E 343 85 37 00
        E 0 86 34 00
        E 0 90 5b 54
        E 0 90 5b 54
        E 0 96 3a 54
        E 343 85 52 00
        E 0 86 3a 00
        E 0 95 37 55
        E 0 95 58 55
        E 343 80 5b 00
        E 0 80 5b 00
        E 0 86 3a 00
        E 0 95 37 53
        E 0 95 3a 54
        E 343 85 37 00
        E 0 85 58 00
        E 0 91 5e 53
        E 0 91 43 54
        E 0 91 5e 53
        E 343 85 37 00
        E 0 85 3a 00
        E 0 91 3a 54
        E 0 95 58 54
        E 0 96 43 54
        E 343 81 5e 00
        E 0 81 43 00
        E 0 81 5e 00
        E 0 91 3c 53
        E 0 91 3c 53
        E 0 91 3c 54
        E 0 95 37 53
        E 0 95 37 54
        E 0 95 58 54
        E 343 81 3a 00
        E 0 85 58 00
        E 0 86 43 00
        E 0 90 3e 53
        E 0 90 3e 54
        E 0 91 3e 53
        E 0 91 3c 53
        E 0 91 3c 54
        E 0 91 3c 54
        E 0 95 37 53
        E 343 81 3c 00
        E 0 81 3c 00
        E 0 81 3c 00
        E 0 85 37 00
        E 0 85 37 00
        E 0 85 58 00
        E 0 91 3a 55
        E 0 95 37 54
        E 343 80 3e 00
        E 0 80 3e 00
        E 0 81 3e 00
        E 0 81 3c 00
        E 0 81 3c 00
        E 0 81 3c 00
        E 0 85 37 00
        E 0 90 5b 54
        E 0 91 3a 53
        E 0 91 3a 54
        E 343 85 37 00
        E 0 95 37 54
        E 0 95 58 54
        E 343 80 5b 00
        E 0 81 3a 00
        E 0 81 3a 00
        E 0 90 43 54
        E 0 95 37 52
        E 0 95 37 54
        E 343 81 3a 00
        E 0 85 37 00
        E 0 85 58 00
        E 0 90 43 54
        E 0 90 3c 53
        E 0 91 58 53
        E 0 91 58 53
        E 0 96 37 54
        E 343 80 43 00
        E 0 85 37 00
        E 0 85 37 00
        E 0 91 58 51
        E 0 91 58 51
        E 0 96 43 53
        E 343 80 43 00
        E 0 80 3c 00
        E 0 81 58 00
        E 0 81 58 00
        E 0 86 37 00
        E 0 96 37 53
        E 343 81 58 00
        E 0 81 58 00
        E 0 86 43 00
        E 0 91 3a 54
        E 0 93 43 53
        E 343 86 37 00
        E 0 90 58 54
        E 0 96 37 54
        E 343 81 3a 00
        E 0 83 43 00
        E 0 91 3e 53
        E 0 91 3e 53
        E 0 97 43 53
        E 0 97 43 53
        E 343 80 58 00
        E 0 86 37 00
        E 0 90 43 52
        E 0 95 43 53
        E 0 96 43 52
        E 0 96 43 52
        E 0 96 43 52
        E 343 81 3e 00
        E 0 81 3e 00
        E 0 87 43 00
        E 0 87 43 00
        E 0 90 43 52
        E 0 91 5e 52
        E 0 91 5e 52
        E 0 95 43 52
        E 0 95 43 52
        E 0 96 43 52
        E 343 80 43 00
        E 0 86 43 00
        E 0 86 43 00
        E 0 91 5e 53
        E 343 80 43 00
        E 0 81 5e 00
        E 0 81 5e 00
        E 0 85 43 00
        E 0 85 43 00
        E 0 86 43 00
        E 0 91 3c 52
        E 0 91 3c 52
        E 0 95 58 53
        E 0 97 43 53
        E 343 85 43 00
        E 0 86 43 00
        E 0 81 5e 00
        E 0 90 43 52
        E 0 90 34 52
        E 343 81 3c 00
        E 0 81 3c 00
        E 0 85 58 00
        E 0 87 43 00
        E 0 91 43 52
        E 0 95 43 53
        E 343 80 43 00
        E 0 80 34 00
        E 343 81 43 00
        E 0 85 43 00
        E 0 91 43 53
        E 343 91 43 52
        E 0 91 43 53
        E 0 91 43 54
        E 0 91 43 54
        E 0 97 43 54
        E 343 81 43 00
        E 0 90 43 53
        E 0 90 43 53
        E 0 90 43 54
        E 343 81 43 00
        E 0 81 43 00
        E 0 81 43 00
        E 0 81 43 00
        E 0 87 43 00
        E 0 90 43 51
        E 0 90 43 53
        E 344 80 43 00
        E 0 80 43 00
        E 0 80 43 00
        E 343 80 43 00
        E 0 80 43 00
        E 0 91 43 54
        E 0 91 40 54
        E 0 91 3a 54
        E 0 97 58 54
        E 343 91 3a 54
        E 0 91 43 54
        E 343 81 43 00
        E 0 81 40 00
        E 0 81 3a 00
        E 0 87 58 00
        E 0 95 4f 55
        E 0 95 4f 55
        E 0 95 4f 55
        E 343 81 3a 00
        E 0 81 43 00
        E 0 95 52 56
        E 0 95 52 56
        E 343 85 4f 00
        E 0 85 4f 00
        E 0 85 4f 00
        E 0 90 43 56
        E 343 85 52 00
        E 0 85 52 00
        E 0 91 43 56
        E 343 80 43 00
        E 0 90 24 55
        E 0 91 43 55
        E 0 91 43 55
        E 343 81 43 00
        E 0 91 3a 54
        E 0 91 3a 53
        E 0 91 3a 53
        E 0 91 3a 54
        E 0 91 3a 54
        E 0 91 3a 54
        E 343 80 24 00
        E 0 81 43 00
        E 0 81 43 00
        E 0 91 34 55
        E 0 91 5e 55
        E 0 91 5e 55
        E 0 91 5e 55
        E 0 91 34 54
        E 0 94 4c 55
        E 0 95 52 55
        E 343 81 3a 00
        E 0 81 3a 00
        E 0 81 3a 00
        E 0 81 3a 00
        E 0 81 3a 00
        E 0 81 3a 00
        E 0 91 3a 55
        E 0 91 3a 54
        E 0 91 3e 55
        E 0 95 52 55
        E 343 81 34 00
        E 0 81 5e 00
        E 0 81 5e 00
        E 0 81 5e 00
        E 0 81 34 00
        E 0 84 4c 00
        E 0 85 52 00
        E 0 91 58 54
        E 0 91 58 54
        E 343 81 3a 00
        E 0 81 3a 00
        E 0 81 3e 00
        E 0 85 52 00
        E 0 91 3a 53
        E 0 91 43 53
        E 0 96 4c 54
        E 343 81 58 00
        E 0 81 58 00
        E 0 91 58 54
        E 0 95 4f 54
        E 0 95 4f 54
        E 0 96 4f 53
        E 0 96 4f 53
        E 0 96 4f 54
        E 0 97 4c 54
        E 343 81 3a 00
        E 0 81 43 00
        E 0 86 4c 00
        E 0 91 3a 54
        E 0 91 58 52
        E 343 81 58 00
        E 0 85 4f 00
        E 0 85 4f 00
        E 0 86 4f 00
        E 0 86 4f 00
        E 0 86 4f 00
        E 0 87 4c 00
        E 0 91 58 54
        E 0 91 58 54
        E 343 81 3a 00
        E 0 81 58 00
        E 0 94 52 56
        E 0 95 52 55
        E 343 81 58 00
        E 0 81 58 00
        E 0 91 3a 55
        E 343 84 52 00
        E 343 81 3a 00
        E 0 90 34 56
        E 343 85 52 00
        E 0 91 3c 55
        E 343 80 34 00
        E 0 91 5b 54
        E 0 91 3a 55
        E 343 81 3c 00
        E 0 95 4f 54
        E 0 95 4f 54
        E 0 96 4f 53
        E 0 96 4f 54
        E 0 96 4f 54
        E 343 81 5b 00
        E 0 81 3a 00
        E 0 91 58 56
        E 343 85 4f 00
        E 0 85 4f 00
        E 0 86 4f 00
        E 0 86 4f 00
        E 0 86 4f 00
        E 343 81 58 00
        E 0 91 5b 56
        E 343 95 52 56
        E 0 95 52 56
        E 0 95 52 56
        E 343 81 5b 00
        E 0 95 52 56
        E 0 95 52 57
        E 343 85 52 00
        E 0 85 52 00
        E 0 85 52 00
        E 0 91 3a 56
        E 0 91 3a 56
        E 0 91 3e 56
        E 0 95 52 57
        E 0 95 52 57
        E 343 85 52 00
        E 0 85 52 00
        E 0 95 52 56
        E 0 95 52 57
        E 0 95 52 57
        E 343 81 3a 00
        E 0 81 3a 00
        E 0 81 3e 00
        E 0 85 52 00
        E 0 85 52 00
        E 0 91 58 55
        E 0 91 58 56
        E 0 91 5b 56
        E 0 91 58 56
        E 343 85 52 00
        E 0 85 52 00
        E 0 85 52 00
        E 0 90 34 56
        E 0 91 58 56
        E 0 95 52 56
        E 343 81 58 00
        E 0 81 58 00
        E 0 81 5b 00
        E 0 81 58 00
        E 0 94 52 57
        E 343 80 34 00
        E 0 81 58 00
        E 0 85 52 00
        E 0 95 52 56
        E 343 84 52 00
        E 0 90 34 56
        E 343 85 52 00
        E 0 90 34 56
        E 343 80 34 00
        E 0 95 52 56
        E 344 80 34 00
        E 0 96 4f 56
        E 0 96 4f 56
        E 0 97 4f 56
        E 0 97 4f 56
        E 343 85 52 00
        E 0 95 52 56
        E 0 95 52 56
        E 0 95 52 56
        E 343 86 4f 00
        E 0 86 4f 00
        E 0 87 4f 00
        E 0 87 4f 00
        E 0 90 58 57
        E 0 94 52 57
        E 0 95 52 57
        E 0 95 52 57
        E 343 85 52 00
        E 0 85 52 00
        E 0 85 52 00
        E 0 91 5b 56
        E 0 95 52 57
        E 0 95 52 57
        E 0 95 52 57
        E 343 80 58 00
        E 0 84 52 00
        E 0 85 52 00
        E 0 85 52 00
        E 0 90 5b 55
        E 0 91 58 54
        E 0 91 58 55
        E 0 91 3c 55
        E 343 81 5b 00
        E 0 85 52 00
        E 0 85 52 00
        E 0 85 52 00
        E 0 90 34 56
        E 0 90 34 57
        E 0 91 3a 56
        E 343 80 5b 00
        E 0 81 58 00
        E 0 81 58 00
        E 0 81 3c 00
        E 343 80 34 00
        E 0 80 34 00
        E 0 81 3a 00
        E 343 91 3c 54
        E 343 91 3a 55
        E 343 81 3c 00
        E 0 90 58 55
        E 343 81 3a 00
        E 0 90 34 55
        E 686 80 34 00
        E 0 90 34 56
        E 343 80 58 00
        E 0 95 52 56
        E 343 80 34 00
        E 343 85 52 00
        E 0 96 58 56
        E 343 94 52 56
        E 343 86 58 00
        E 343 84 52 00
        E 0 90 34 56
        E 343 91 3c 55
        E 343 80 34 00
        E 0 90 58 56
        E 343 81 3c 00
        E 0 91 58 55
        E 0 91 58 56
        E 0 91 3a 56
        E 0 91 3c 55
        E 0 95 52 56
        E 343 80 58 00
        E 0 90 34 56
        E 0 91 34 56
        E 343 81 58 00
        E 0 81 58 00
        E 0 81 3a 00
        E 0 81 3c 00
        E 0 85 52 00
        E 0 95 52 56
        E 343 80 34 00
        E 0 81 34 00
        E 0 95 52 56
        E 0 95 52 57
        E 343 85 52 00
        E 343 85 52 00
        E 0 85 52 00
        E 0 91 5b 57
        E 343 95 52 56
        E 0 95 52 57
        E 0 95 52 57
        E 0 95 52 57
        E 343 81 5b 00
        E 343 85 52 00
        E 0 85 52 00
        E 0 85 52 00
        E 0 96 4c 56
        E 343 95 54 56
        E 343 85 52 00
        E 0 86 4c 00
        E 0 95 52 57
        E 0 95 52 56
        E 343 85 54 00
        E 0 95 52 57
        E 0 95 52 57
        E 343 85 52 00
        E 0 85 52 00
        E 0 95 52 57
        E 343 85 52 00
        E 0 85 52 00
        E 0 90 34 56
        E 0 95 52 56
        E 344 85 52 00
        E 0 91 3a 56
        E 343 80 34 00
        E 0 85 52 00
        E 0 95 51 56
        E 343 81 3a 00
        E 0 95 4d 56
        E 0 95 4d 56
        E 343 85 51 00
        E 0 90 4f 56
        E 343 85 4d 00
        E 0 85 4d 00
        E 0 95 51 56
        E 343 80 4f 00
        E 343 90 4d 56
        E 343 90 35 54
        E 0 96 4d 55
        E 343 85 51 00
        E 0 80 4d 00
        E 0 90 35 54
        E 0 95 51 56
        E 343 80 35 00
        E 0 86 4d 00
        E 0 90 35 56
        E 343 80 35 00
        E 0 85 51 00
        E 343 80 35 00
        E 343 90 34 56
        E 0 90 34 56
        E 0 95 51 56
        E 343 91 59 56
        E 343 80 34 00
        E 0 85 51 00
        E 343 81 59 00
        E 0 95 51 56
        E 343 80 34 00
        E 343 85 51 00
        E 0 91 59 56
        E 686 81 59 00
        E 0 90 34 56
        E 0 90 39 56
        E 343 95 51 56
        E 343 80 34 00
        E 0 80 39 00
        E 0 95 51 56
        E 343 85 51 00
        E 0 95 51 56
        E 343 85 51 00
        E 0 95 51 56
        E 343 85 51 00
        E 0 95 51 56
        E 343 85 51 00
        E 343 85 51 00
        E 0 90 28 55
        E 0 90 28 55
        E 343 90 28 53
        E 0 90 28 54
        E 0 90 28 55
        E 0 94 59 55
        E 343 80 28 00
        E 0 80 28 00
        E 0 90 24 52
        E 0 90 28 51
        E 0 90 28 51
        E 0 90 28 51
        E 0 90 28 51
        E 0 90 28 52
        E 0 90 28 52
        E 0 90 24 52
        E 0 90 24 52
        E 0 97 24 51
        E 0 97 28 52
        E 0 97 29 51
        E 0 97 29 52
        E 343 80 28 00
        E 0 80 28 00
        E 0 80 28 00
        E 0 84 59 00
        E 0 90 34 50
        E 0 90 34 51
        E 0 90 34 51
        E 0 90 28 51
        E 0 90 28 51
        E 0 90 30 51
        E 0 90 34 51
        E 0 90 34 51
        E 0 91 2d 51
        E 0 91 2d 51
        E 0 91 34 51
        E 0 91 34 51
        E 343 80 24 00
        E 0 80 28 00
        E 0 80 28 00
        E 0 80 28 00
        E 0 80 28 00
        E 0 80 28 00
        E 0 80 28 00
        E 0 80 24 00
        E 0 80 24 00
        E 0 87 24 00
        E 0 87 28 00
        E 0 87 29 00
        E 0 87 29 00
        E 0 90 29 50
        E 0 90 28 50
        E 0 95 45 50
        E 0 95 45 50
        E 0 95 45 51
        E 0 96 45 50
        E 0 96 45 50
        E 0 96 45 50
        E 0 96 45 50
        E 0 96 45 50
        E 0 96 45 51
        E 343 80 34 00
        E 0 80 34 00
        E 0 80 34 00
        E 0 80 28 00
        E 0 80 28 00
        E 0 80 30 00
        E 0 80 34 00
        E 0 80 34 00
        E 0 81 2d 00
        E 0 81 2d 00
        E 0 81 34 00
        E 0 81 34 00
        E 0 90 30 51
        E 0 90 45 51
        E 0 90 34 51
        E 0 91 3c 51
        E 0 96 43 51
        E 0 96 43 51
        E 0 96 45 51
        E 0 97 45 51
        E 343 80 29 00
        E 0 80 28 00
        E 0 85 45 00
        E 0 85 45 00
        E 0 85 45 00
        E 0 86 45 00
        E 0 86 45 00
        E 0 86 45 00
        E 0 86 45 00
        E 0 86 45 00
        E 0 86 45 00
        E 0 91 39 50
        E 0 91 39 50
        E 0 91 39 50
        E 0 91 39 50
        E 0 96 45 50
        E 0 96 45 50
        E 0 97 45 50
        E 343 80 30 00
        E 0 80 45 00
        E 0 80 34 00
        E 0 81 3c 00
        E 0 86 43 00
        E 0 86 43 00
        E 0 86 45 00
        E 0 87 45 00
        E 0 91 45 52
        E 0 91 45 52
        E 0 91 45 52
        E 0 91 45 52
        E 0 91 45 52
        E 0 91 45 52
        E 0 91 45 52
        E 0 91 45 51
        E 0 91 45 52
        E 0 91 45 52
        E 0 91 45 52
        E 343 81 39 00
        E 0 81 39 00
        E 0 81 39 00
        E 0 81 39 00
        E 0 86 45 00
        E 0 86 45 00
        E 0 87 45 00
        E 0 90 5b 53
        E 0 91 5b 53
        E 0 91 5b 53
        E 0 91 5b 53
        E 0 91 5b 53
        E 0 91 5b 53
        E 0 91 5b 53
        E 0 91 5b 53
        E 0 91 5b 53
        E 343 81 45 00
        E 0 81 45 00
        E 0 81 45 00
        E 0 81 45 00
        E 0 81 45 00
        E 0 81 45 00
        E 0 81 45 00
        E 0 81 45 00
        E 0 81 45 00
        E 0 81 45 00
        E 0 81 45 00
        E 0 91 5d 53
        E 343 80 5b 00
        E 0 81 5b 00
        E 0 81 5b 00
        E 0 81 5b 00
        E 0 81 5b 00
        E 0 81 5b 00
        E 0 81 5b 00
        E 0 81 5b 00
        E 0 81 5b 00
        E 0 91 59 52
        E 0 91 59 52
        E 0 91 59 52
        E 344 81 5d 00
        E 0 90 5d 53
        E 0 90 5d 53
        E 0 90 5d 53
        E 0 90 5d 54
        E 0 90 5d 54
        E 0 91 39 53
        E 343 81 59 00
        E 0 81 59 00
        E 0 81 59 00
        E 0 90 5d 55
        E 0 90 5d 55
        E 0 91 5d 54
        E 0 91 5d 54
        E 0 91 5d 55
        E 343 80 5d 00
        E 0 80 5d 00
        E 0 80 5d 00
        E 0 80 5d 00
        E 0 80 5d 00
        E 0 81 39 00
        E 0 90 35 56
        E 0 90 34 56
        E 0 90 34 55
        E 0 90 34 56
        E 0 94 51 55
        E 0 94 51 56
        E 343 80 5d 00
        E 0 80 5d 00
        E 0 81 5d 00
        E 0 81 5d 00
        E 0 81 5d 00
        E 0 95 51 56
        E 343 80 35 00
        E 0 80 34 00
        E 0 80 34 00
        E 0 80 34 00
        E 0 84 51 00
        E 0 84 51 00
        E 0 90 4c 56
        E 0 90 4c 56
        E 0 94 51 56
        E 0 97 35 56
        E 343 85 51 00
        E 0 94 51 56
        E 343 80 4c 00
        E 0 80 4c 00
        E 0 84 51 00
        E 0 87 35 00
        E 343 84 51 00
        E 343 94 51 56
        E 686 84 51 00
        E 0 91 39 55
        E 343 94 51 56
        E 343 81 39 00
        E 0 90 35 55
        E 0 95 51 56
        E 343 84 51 00
        E 0 90 45 55
        E 0 95 51 56
        E 0 95 51 56
        E 343 80 35 00
        E 0 85 51 00
        E 0 90 39 54
        E 0 95 51 55
        E 343 80 45 00
        E 0 85 51 00
        E 0 85 51 00
        E 343 80 39 00
        E 0 85 51 00
        E 0 95 51 55
        E 343 91 39 55
        E 343 85 51 00
        E 0 95 51 56
        E 343 81 39 00
        E 0 94 51 55
        E 0 95 51 56
        E 343 85 51 00
        E 0 95 51 55
        E 343 84 51 00
        E 0 85 51 00
        E 0 90 39 55
        E 0 95 59 56
        E 343 85 51 00
        E 0 91 39 55
        E 0 95 51 56
        E 0 95 54 56
        E 343 80 39 00
        E 0 85 59 00
        E 0 90 35 54
        E 0 95 51 56
        E 0 95 51 56
        E 0 95 51 55
        E 343 81 39 00
        E 0 85 51 00
        E 0 85 54 00
        E 0 94 51 55
        E 0 95 51 55
        E 0 95 51 55
        E 343 80 35 00
        E 0 85 51 00
        E 0 85 51 00
        E 0 85 51 00
        E 0 90 34 55
        E 0 94 51 55
        E 0 95 51 56
        E 0 95 51 56
        E 0 95 51 56
        E 343 84 51 00
        E 0 85 51 00
        E 0 85 51 00
        E 0 90 34 55
        E 0 94 51 55
        E 0 95 51 55
        E 0 95 51 56
        E 343 80 34 00
        E 0 84 51 00
        E 0 85 51 00
        E 0 85 51 00
        E 0 85 51 00
        E 0 90 34 55
        E 0 90 39 54
        E 0 94 51 55
        E 343 80 34 00
        E 0 84 51 00
        E 0 85 51 00
        E 0 85 51 00
        E 0 94 51 55
        E 343 80 34 00
        E 0 80 39 00
        E 0 84 51 00
        E 0 95 51 54
        E 343 84 51 00
        E 0 91 39 55
        E 0 94 51 55
        E 0 95 51 55
        E 0 95 51 55
        E 343 85 51 00
        E 0 95 51 55
        E 0 95 51 55
        E 0 95 51 55
        E 343 81 39 00
        E 0 84 51 00
        E 0 85 51 00
        E 0 85 51 00
        E 0 91 39 55
        E 343 85 51 00
        E 0 85 51 00
        E 0 85 51 00
        E 0 90 34 55
        E 343 81 39 00
        E 0 90 34 55
        E 0 95 51 55
        E 0 95 51 55
        E 343 80 34 00
        E 0 90 34 54
        E 0 90 34 55
        E 0 95 59 55
        E 0 95 51 55
        E 343 80 34 00
        E 0 85 51 00
        E 0 85 51 00
        E 0 90 35 54
        E 0 90 35 54
        E 0 90 35 54
        E 0 91 39 55
        E 344 80 34 00
        E 0 80 34 00
        E 0 85 59 00
        E 0 85 51 00
        E 0 94 51 55
        E 0 95 51 55
        E 0 95 51 55
        E 343 80 35 00
        E 0 80 35 00
        E 0 80 35 00
        E 0 81 39 00
        E 0 90 35 55
        E 343 84 51 00
        E 0 85 51 00
        E 0 85 51 00
        E 343 80 35 00
        E 0 95 51 55
        E 343 95 51 55
        E 343 85 51 00
        E 0 95 51 55
        E 343 85 51 00
        E 0 95 51 55
        E 0 95 51 55
        E 343 85 51 00
        E 0 95 51 54
        E 0 95 51 55
        E 343 85 51 00
        E 0 85 51 00
        E 0 95 51 55
        E 343 85 51 00
        E 0 85 51 00
        E 0 95 51 55
        E 343 85 51 00
        E 0 95 51 55
        E 343 85 51 00
        E 0 95 51 55
        E 343 85 51 00
        E 0 91 59 54
        E 0 95 51 55
        E 0 96 51 55
        E 343 85 51 00
        E 0 91 59 53
        E 0 91 59 53
        E 0 91 59 53
        E 0 91 59 53
        E 0 91 59 53
        E 0 91 59 54
        E 0 95 51 54
        E 343 81 59 00
        E 0 85 51 00
        E 0 86 51 00
        E 0 95 51 54
        E 0 95 51 54
        E 0 95 51 53
        E 0 95 51 53
        E 0 96 51 54
        E 343 81 59 00
        E 0 81 59 00
        E 0 81 59 00
        E 0 81 59 00
        E 0 81 59 00
        E 0 81 59 00
        E 0 85 51 00
        E 0 95 51 55
        E 343 85 51 00
        E 0 85 51 00
        E 0 85 51 00
        E 0 85 51 00
        E 0 86 51 00
        E 0 95 51 55
        E 343 85 51 00
        E 343 85 51 00
        E 0 95 51 55
        E 0 96 51 55
        E 0 96 51 55
        E 343 94 54 54
        E 0 95 54 55
        E 0 95 54 55
        E 343 85 51 00
        E 0 86 51 00
        E 0 86 51 00
        E 0 94 51 55
        E 0 96 51 55
        E 343 84 54 00
        E 0 85 54 00
        E 0 85 54 00
        E 0 94 51 55
        E 0 94 51 55
        E 0 94 51 55
        E 0 94 51 55
        E 343 84 51 00
        E 0 86 51 00
        E 0 95 51 55
        E 0 95 51 55
        E 0 95 43 55
        E 0 95 43 55
        E 343 84 51 00
        E 0 84 51 00
        E 0 84 51 00
        E 0 84 51 00
        E 0 95 51 55
        E 0 95 51 55
        E 0 95 43 55
        E 343 85 51 00
        E 0 85 51 00
        E 0 85 43 00
        E 0 85 43 00
        E 0 94 51 56
        E 0 94 51 55
        E 343 85 51 00
        E 0 85 51 00
        E 0 85 43 00
        E 0 94 51 55
        E 0 95 54 55
        E 0 95 51 55
        E 0 95 51 55
        E 343 84 51 00
        E 0 96 51 55
        E 343 84 51 00
        E 0 85 54 00
        E 0 85 51 00
        E 0 85 51 00
        E 0 95 43 54
        E 0 95 43 54
        E 343 84 51 00
        E 0 86 51 00
        E 0 95 51 54
        E 0 95 51 55
        E 0 97 34 54
        E 343 85 43 00
        E 0 85 43 00
        E 343 85 51 00
        E 0 85 51 00
        E 0 87 34 00
        E 343 95 51 56
        E 0 95 51 56
        E 343 94 51 56
        E 0 95 51 55
        E 0 95 51 55
        E 343 85 51 00
        E 0 85 51 00
        E 0 95 51 55
        E 0 97 34 55
        E 0 97 34 56
        E 343 84 51 00
        E 0 85 51 00
        E 0 85 51 00
        E 0 95 51 55
        E 0 95 51 55
        E 343 85 51 00
        E 0 87 34 00
        E 0 87 34 00
        E 0 95 51 56
        E 344 85 51 00
        E 0 85 51 00
        E 0 94 51 55
        E 0 95 51 55
        E 343 85 51 00
        E 0 91 39 55
        E 0 95 51 55
        E 343 84 51 00
        E 0 85 51 00
        E 0 91 39 53
        E 0 91 39 52
        E 0 91 39 53
        E 0 91 39 54
        E 0 91 39 55
        E 343 81 39 00
        E 0 85 51 00
        E 0 95 51 55
        E 343 81 39 00
        E 0 81 39 00
        E 0 81 39 00
        E 0 81 39 00
        E 0 81 39 00
        E 0 94 51 55
        E 0 95 51 55
        E 343 85 51 00
        E 0 94 51 55
        E 0 95 51 54
        E 343 84 51 00
        E 0 85 51 00
        E 343 84 51 00
        E 0 85 51 00
        E 0 95 51 55
        E 686 85 51 00
        E 0 95 51 55
        E 343 95 51 55
        E 343 85 51 00
        E 0 95 51 55
        E 0 95 51 55
        E 343 85 51 00
        E 0 97 34 55
        E 343 85 51 00
        E 0 85 51 00
        E 343 87 34 00
        E 0 95 51 55
        E 343 95 51 53
        E 0 95 51 54
        E 343 95 51 54
        E 0 95 51 55
        E 343 85 51 00
        E 0 85 51 00
        E 0 91 59 54
        E 0 95 51 54
        E 343 85 51 00
        E 0 85 51 00
        E 0 85 51 00
        E 0 95 51 55
        E 0 95 51 55
        E 343 81 59 00
        E 0 85 51 00
        E 0 94 51 54
        E 0 94 51 55
        E 0 95 54 55
        E 0 95 51 55
        E 343 85 51 00
        E 0 85 51 00
        E 0 95 51 54
        E 343 84 51 00
        E 0 84 51 00
        E 0 85 54 00
        E 0 85 51 00
        E 0 95 54 55
        E 0 95 51 55
        E 343 85 51 00
        E 0 90 41 54
        E 0 90 41 54
        E 0 91 39 53
        E 0 95 51 55
        E 0 97 34 54
        E 343 85 54 00
        E 0 85 51 00
        E 0 94 51 55
        E 0 95 51 54
        E 0 95 51 55
        E 0 95 51 55
        E 0 95 51 55
        E 343 80 41 00
        E 0 80 41 00
        E 0 81 39 00
        E 0 85 51 00
        E 0 87 34 00
        E 0 91 59 54
        E 0 91 59 54
        E 343 84 51 00
        E 0 85 51 00
        E 0 85 51 00
        E 0 85 51 00
        E 0 85 51 00
        E 0 91 39 55
        E 0 95 51 55
        E 0 95 51 55
        E 343 81 59 00
        E 0 81 59 00
        E 0 91 39 51
        E 0 95 51 55
        E 343 81 39 00
        E 0 85 51 00
        E 0 85 51 00
        E 343 81 39 00
        E 0 85 51 00
        E 0 95 51 55
        E 343 95 51 54
        E 0 95 51 55
        E 343 85 51 00
        E 0 95 51 55
        E 0 95 51 55
        E 343 85 51 00
        E 0 85 51 00
        E 343 85 51 00
        E 0 85 51 00
        E 0 95 51 55
        E 686 85 51 00
        E 0 95 51 54
        E 0 95 51 55
        E 686 85 51 00
        E 0 85 51 00
        E 0 95 51 55
        E 344 95 51 55
        E 0 95 51 55
        E 343 85 51 00
        E 0 95 51 55
        E 0 95 51 55
        E 343 85 51 00
        E 0 85 51 00
        E 0 95 51 55
        E 0 95 51 55
        E 0 95 51 55
        E 343 85 51 00
        E 0 95 51 55
        E 343 85 51 00
        E 0 85 51 00
        E 0 85 51 00
        E 0 95 52 55
        E 0 95 52 55
        E 343 85 51 00
        E 0 85 51 00
        E 0 95 52 55
        E 343 85 52 00
        E 0 85 52 00
        E 0 95 52 55
        E 343 85 52 00
        E 343 85 52 00
        E 686 90 35 55
        E 343 95 52 55
        E 343 80 35 00
        E 0 90 35 55
        E 0 91 3a 53
        E 0 94 52 55
        E 686 80 35 00
        E 0 81 3a 00
        E 0 84 52 00
        E 0 95 59 55
        E 343 85 52 00
        E 0 90 35 55
        E 343 85 59 00
        E 343 80 35 00
        E 343 94 52 55
        E 0 95 52 55
        E 0 96 59 54
        E 343 94 52 55
        E 343 85 52 00
        E 0 86 59 00
        E 0 94 52 55
        E 343 84 52 00
        E 0 94 52 55
        E 0 95 52 54
        E 343 84 52 00
        E 0 84 52 00
        E 0 94 52 55
        E 0 94 52 55
        E 343 84 52 00
        E 0 85 52 00
        E 0 95 52 55
        E 343 84 52 00
        E 0 84 52 00
        E 0 91 3a 53
        E 343 85 52 00
        E 0 91 3a 54
        E 0 91 3a 54
        E 0 94 52 55
        E 343 81 3a 00
        E 0 94 52 55
        E 0 95 52 55
        E 0 95 52 54
        E 0 95 52 55
        E 0 95 52 55
        E 343 81 3a 00
        E 0 81 3a 00
        E 0 84 52 00
        E 0 91 3a 55
        E 0 94 52 55
        E 0 95 52 55
        E 0 95 52 55
        E 0 95 52 55
        E 343 84 52 00
        E 0 85 52 00
        E 0 85 52 00
        E 0 85 52 00
        E 0 85 52 00
        E 0 90 3a 54
        E 0 95 52 55
        E 0 95 52 55
        E 0 95 52 55
        E 343 81 3a 00
        E 0 84 52 00
        E 0 85 52 00
        E 0 85 52 00
        E 0 85 52 00
        E 0 94 52 55
        E 0 94 52 55
        E 0 95 52 55
        E 0 95 52 55
        E 343 80 3a 00
        E 0 85 52 00
        E 0 85 52 00
        E 0 85 52 00
        E 0 90 3a 55
        E 0 94 52 55
        E 343 84 52 00
        E 0 84 52 00
        E 0 85 52 00
        E 0 94 52 55
        E 343 80 3a 00
        E 0 84 52 00
        E 0 90 35 55
        E 0 91 3a 55
        E 0 94 52 55
        E 0 95 52 55
        E 343 85 52 00
        E 0 84 52 00
        E 0 90 3a 55
        E 0 91 3a 55
        E 0 94 52 55
        E 0 94 52 55
        E 343 80 35 00
        E 0 81 3a 00
        E 0 84 52 00
        E 0 85 52 00
        E 0 91 59 55
        E 343 80 3a 00
        E 0 81 3a 00
        E 0 84 52 00
        E 0 84 52 00
        E 0 94 52 55
        E 0 94 52 55
        E 0 95 59 55
        E 343 81 59 00
        E 0 95 52 55
        E 0 95 52 55
        E 0 95 52 55
        E 344 84 52 00
        E 0 84 52 00
        E 0 85 59 00
        E 0 95 52 55
        E 343 85 52 00
        E 0 85 52 00
        E 0 85 52 00
        E 0 95 52 55
        E 0 95 52 55
        E 0 95 59 54
        E 343 85 52 00
        E 0 94 52 55
        E 0 94 52 55
        E 0 95 52 55
        E 343 85 52 00
        E 0 85 52 00
        E 0 85 59 00
        E 0 90 35 55
        E 0 94 52 55
        E 0 95 52 55
        E 343 84 52 00
        E 0 84 52 00
        E 0 85 52 00
        E 0 90 35 55
        E 0 94 52 55
        E 0 95 52 55
        E 343 80 35 00
        E 0 84 52 00
        E 0 85 52 00
        E 0 90 35 54
        E 0 95 52 55
        E 0 95 59 55
        E 343 80 35 00
        E 0 84 52 00
        E 0 85 52 00
        E 0 90 35 55
        E 0 94 52 55
        E 343 80 35 00
        E 0 85 52 00
        E 0 85 59 00
        E 0 95 52 55
        E 343 80 35 00
        E 0 84 52 00
        E 0 91 3a 55
        E 343 85 52 00
        E 0 94 52 55
        E 0 95 52 55
        E 0 95 52 55
        E 343 81 3a 00
        E 0 95 51 55
        E 0 97 35 55
        E 343 84 52 00
        E 0 85 52 00
        E 0 85 52 00
        E 0 95 52 55
        E 0 95 52 55
        E 0 95 52 55
        E 0 95 52 55
        E 343 87 35 00
        E 0 91 3a 55
        E 0 94 52 55
        E 343 85 52 00
        E 0 85 52 00
        E 0 85 52 00
        E 0 85 52 00
        E 0 90 35 54
        E 0 95 51 55
        E 343 85 51 00
        E 0 81 3a 00
        E 0 84 52 00
        E 0 95 52 55
        E 343 80 35 00
        E 0 85 51 00
        E 0 95 52 55
        E 343 85 52 00
        E 0 95 52 55
        E 343 85 52 00
        E 0 94 51 55
        E 0 95 52 55
        E 343 85 52 00
        E 0 90 34 55
        E 0 95 52 54
        E 0 95 52 55
        E 0 97 34 55
        E 343 84 51 00
        E 0 94 51 55
        E 343 80 34 00
        E 0 85 52 00
        E 0 85 52 00
        E 0 87 34 00
        E 0 94 52 55
        E 0 94 52 55
        E 0 94 52 55
        E 343 85 52 00
        E 0 84 51 00
        E 343 84 52 00
        E 0 84 52 00
        E 0 84 52 00
        E 0 95 52 55
        E 343 95 52 55
        E 343 85 52 00
        E 0 94 51 55
        E 0 94 51 55
        E 0 96 43 54
        E 343 85 52 00
        E 0 91 43 55
        E 0 94 51 55
        E 0 95 52 54
        E 0 95 52 55
        E 343 84 51 00
        E 0 84 51 00
        E 0 86 43 00
        E 0 90 43 55
        E 0 95 52 55
        E 0 95 52 55
        E 343 81 43 00
        E 0 84 51 00
        E 0 85 52 00
        E 0 85 52 00
        E 0 95 52 55
        E 0 95 52 56
        E 343 85 52 00
        E 0 85 52 00
        E 0 90 43 52
        E 0 90 43 54
        E 0 90 43 55
        E 0 91 43 55
        E 343 85 52 00
        E 0 85 52 00
        E 0 94 52 56
        E 0 94 51 55
        E 0 94 51 56
        E 0 94 52 56
        E 343 80 43 00
        E 0 80 43 00
        E 0 80 43 00
        E 0 80 43 00
        E 0 81 43 00
        E 0 94 51 56
        E 0 94 52 56
        E 0 94 52 55
        E 0 95 52 55
        E 343 84 52 00
        E 0 84 51 00
        E 0 84 51 00
        E 0 84 52 00
        E 0 94 52 56
        E 0 95 52 54
        E 0 95 52 56
        E 0 95 58 55
        E 0 97 34 55
        E 343 84 51 00
        E 0 84 52 00
        E 0 84 52 00
        E 0 85 52 00
        E 0 90 45 54
        E 0 90 45 55
        E 0 91 43 54
        E 0 91 43 54
        E 0 91 43 53
        E 0 91 43 54
        E 0 91 43 54
        E 0 91 43 54
        E 0 94 52 55
        E 343 84 52 00
        E 0 85 52 00
        E 0 85 52 00
        E 0 85 58 00
        E 0 87 34 00
        E 0 90 43 53
        E 0 91 45 52
        E 0 91 45 52
        E 0 91 45 53
        E 0 91 45 53
        E 0 91 45 53
        E 0 92 45 52
        E 0 92 45 53
        E 0 92 45 53
        E 0 92 45 53
        E 343 80 45 00
        E 0 80 45 00
        E 0 81 43 00
        E 0 81 43 00
        E 0 81 43 00
        E 0 81 43 00
        E 0 81 43 00
        E 0 81 43 00
        E 0 84 52 00
        E 0 90 34 51
        E 0 90 3c 51
        E 0 91 3a 51
        E 0 91 3a 52
        E 0 96 45 51
        E 343 80 43 00
        E 0 81 45 00
        E 0 81 45 00
        E 0 81 45 00
        E 0 81 45 00
        E 0 81 45 00
        E 0 82 45 00
        E 0 82 45 00
        E 0 82 45 00
        E 0 82 45 00
        E 0 90 3c 51
        E 0 95 2e 51
        E 0 95 2e 51
        E 0 95 2e 51
        E 0 96 2b 51
        E 0 96 2e 51
        E 0 96 2e 51
        E 344 80 34 00
        E 0 80 3c 00
        E 0 81 3a 00
        E 0 81 3a 00
        E 0 86 45 00
        E 0 90 3c 50
        E 0 91 3c 50
        E 0 91 3c 51
        E 0 91 3c 51
        E 0 91 3c 51
        E 343 80 3c 00
        E 0 85 2e 00
        E 0 85 2e 00
        E 0 85 2e 00
        E 0 86 2b 00
        E 0 86 2e 00
        E 0 86 2e 00
        E 0 91 58 50
        E 0 91 58 50
        E 0 91 58 51
        E 343 80 3c 00
        E 0 81 3c 00
        E 0 81 3c 00
        E 0 81 3c 00
        E 0 81 3c 00
        E 0 91 5b 52
        E 0 91 5b 52
        E 0 91 5b 53
        E 0 91 5b 53
        E 343 81 58 00
        E 0 81 58 00
        E 0 81 58 00
        E 0 90 5b 54
        E 0 90 5b 54
        E 0 90 5b 54
        E 0 91 5b 52
        E 0 91 5b 52
        E 0 91 5b 53
        E 0 95 58 54
        E 343 81 5b 00
        E 0 81 5b 00
        E 0 81 5b 00
        E 0 81 5b 00
        E 0 90 5b 53
        E 0 90 5b 53
        E 0 91 5b 53
        E 0 91 5b 53
        E 0 91 5b 53
        E 0 91 5b 53
        E 0 91 5b 53
        E 0 91 5b 53
        E 343 80 5b 00
        E 0 80 5b 00
        E 0 80 5b 00
        E 0 81 5b 00
        E 0 81 5b 00
        E 0 81 5b 00
        E 0 85 58 00
        E 0 90 5e 55
        E 0 90 5e 55
        E 0 90 5e 55
        E 0 90 5e 55
        E 0 90 5e 56
        E 0 95 52 55
        E 343 80 5b 00
        E 0 80 5b 00
        E 0 81 5b 00
        E 0 81 5b 00
        E 0 81 5b 00
        E 0 81 5b 00
        E 0 81 5b 00
        E 0 81 5b 00
        E 0 94 52 55
        E 0 95 52 55
        E 343 80 5e 00
        E 0 80 5e 00
        E 0 80 5e 00
        E 0 80 5e 00
        E 0 80 5e 00
        E 0 85 52 00
        E 0 91 3a 53
        E 343 84 52 00
        E 0 85 52 00
        E 0 94 51 55
        E 0 95 52 55
        E 343 81 3a 00
        E 0 94 52 55
        E 0 94 52 55
        E 0 94 52 55
        E 0 95 52 55
        E 0 95 52 55
        E 0 95 52 55
        E 0 95 52 55
        E 0 95 52 55
        E 343 84 51 00
        E 0 85 52 00
        E 0 91 58 54
        E 0 91 58 55
        E 343 84 52 00
        E 0 84 52 00
        E 0 84 52 00
        E 0 85 52 00
        E 0 85 52 00
        E 0 85 52 00
        E 0 85 52 00
        E 0 85 52 00
        E 0 91 3a 53
        E 0 91 3a 54
        E 0 91 3a 55
        E 0 95 52 55
        E 343 81 58 00
        E 0 81 58 00
        E 0 94 52 55
        E 343 81 3a 00
        E 0 81 3a 00
        E 0 81 3a 00
        E 0 85 52 00
        E 0 94 52 55
        E 0 94 52 55
        E 0 94 52 55
        E 0 94 52 55
        E 343 84 52 00
        E 343 84 52 00
        E 0 84 52 00
        E 0 84 52 00
        E 0 84 52 00
        E 0 94 52 55
        E 0 96 58 55
        E 686 84 52 00
        E 0 86 58 00
        E 343 94 52 55
        E 0 95 52 55
        E 343 94 52 55
        E 0 94 52 55
        E 0 94 52 55
        E 0 94 54 55
        E 343 84 52 00
        E 0 85 52 00
        E 0 94 52 55
        E 0 95 58 55
        E 343 84 52 00
        E 0 84 52 00
        E 0 84 52 00
        E 0 84 54 00
        E 0 90 34 55
        E 343 84 52 00
        E 0 85 58 00
        E 0 94 52 55
        E 0 94 52 56
        E 343 80 34 00
        E 0 95 52 55
        E 343 84 52 00
        E 0 84 52 00
        E 0 94 52 55
        E 343 85 52 00
        E 0 94 52 55
        E 0 94 52 55
        E 0 94 52 55
        E 0 94 52 55
        E 0 95 52 55
        E 343 84 52 00
        E 0 91 3a 55
        E 0 94 52 55
        E 0 95 52 55
        E 343 84 52 00
        E 0 84 52 00
        E 0 84 52 00
        E 0 84 52 00
        E 0 85 52 00
        E 0 94 52 55
        E 343 81 3a 00
        E 0 84 52 00
        E 0 85 52 00
        E 0 94 52 55
        E 343 84 52 00
        E 0 94 52 55
        E 0 95 52 55
        E 0 95 52 55
        E 343 84 52 00
        E 0 95 52 54
        E 0 95 52 55
        E 343 84 52 00
        E 0 85 52 00
        E 0 85 52 00
        E 343 85 52 00
        E 0 85 52 00
        E 0 91 3a 55
        E 0 94 52 55
        E 0 94 58 55
        E 343 94 52 55
        E 0 95 52 55
        E 0 95 52 55
        E 343 81 3a 00
        E 0 84 58 00
        E 0 94 52 55
        E 343 84 52 00
        E 0 85 52 00
        E 0 85 52 00
        E 0 94 52 55
        E 0 94 52 55
        E 343 84 52 00
        E 0 84 52 00
        E 0 91 58 55
        E 344 84 52 00
        E 0 84 52 00
        E 0 95 52 55
        E 343 81 58 00
        E 0 94 52 55
        E 343 85 52 00
        E 0 95 52 55
        E 0 95 52 55
        E 343 84 52 00
        E 0 94 52 55
        E 0 94 52 55
        E 0 95 52 53
        E 0 95 52 55
        E 0 95 52 55
        E 343 85 52 00
        E 0 85 52 00
        E 0 91 3a 54
        E 0 91 3a 54
        E 0 95 51 55
        E 0 95 54 54
        E 0 95 54 55
        E 343 84 52 00
        E 0 84 52 00
        E 0 85 52 00
        E 0 85 52 00
        E 0 95 52 55
        E 343 81 3a 00
        E 0 81 3a 00
        E 0 85 51 00
        E 0 85 54 00
        E 0 85 54 00
        E 0 95 52 55
        E 343 85 52 00
        E 0 85 52 00
        E 0 94 52 55
        E 343 85 52 00
        E 0 94 52 55
        E 0 94 52 55
        E 0 95 52 56
        E 343 84 52 00
        E 0 94 52 56
        E 0 95 51 56
        E 0 95 54 55
        E 343 84 52 00
        E 0 84 52 00
        E 0 85 52 00
        E 0 95 52 56
        E 0 95 52 55
        E 343 84 52 00
        E 0 85 51 00
        E 0 85 54 00
        E 0 90 34 55
        E 0 94 52 55
        E 343 85 52 00
        E 0 85 52 00
        E 0 90 34 55
        E 0 94 52 55
        E 0 95 52 55
        E 0 95 58 55
        E 0 96 58 55
        E 343 80 34 00
        E 0 84 52 00
        E 0 95 58 55
        E 343 80 34 00
        E 0 84 52 00
        E 0 85 52 00
        E 0 85 58 00
        E 0 86 58 00
        E 0 95 52 54
        E 0 95 52 55
        E 343 85 58 00
        E 0 95 52 55
        E 0 95 54 55
        E 343 85 52 00
        E 0 85 52 00
        E 0 91 58 54
        E 0 95 52 55
        E 0 95 52 55
        E 343 85 54 00
        E 0 94 51 55
        E 0 94 52 55
        E 0 94 52 55
        E 0 95 52 55
        E 343 81 58 00
        E 0 85 52 00
        E 0 85 52 00
        E 0 90 4f 55
        E 0 95 52 55
        E 0 95 52 55
        E 0 95 58 55
        E 0 97 4f 54
        E 343 85 52 00
        E 0 84 52 00
        E 0 84 52 00
        E 0 85 52 00
        E 0 94 52 55
        E 343 80 4f 00
        E 0 85 52 00
        E 0 85 52 00
        E 0 85 58 00
        E 0 87 4f 00
        E 343 84 51 00
        E 0 84 52 00
        E 0 91 3a 55
        E 0 95 52 55
        E 343 95 52 55
        E 0 95 52 55
        E 343 81 3a 00
        E 0 85 52 00
        E 0 91 3a 55
        E 0 91 3a 55
        E 0 95 52 55
        E 343 85 52 00
        E 0 85 52 00
        E 0 91 3a 55
        E 0 95 52 55
        E 343 81 3a 00
        E 0 81 3a 00
        E 0 85 52 00
        E 0 95 52 56
        E 343 81 3a 00
        E 0 85 52 00
        E 343 85 52 00
        E 0 95 52 55
        E 0 95 52 55
        E 343 94 51 55
        E 0 95 54 55
        E 0 95 58 55
        E 343 85 52 00
        E 0 85 52 00
        E 0 94 52 56
        E 0 95 52 56
        E 0 95 52 55
        E 0 95 58 55
        E 343 84 51 00
        E 0 85 58 00
        E 0 90 3a 56
        E 0 95 51 56
        E 0 95 52 55
        E 343 84 52 00
        E 0 85 52 00
        E 0 85 52 00
        E 0 85 58 00
        E 0 95 51 55
        E 0 95 52 55
        E 343 85 54 00
        E 0 80 3a 00
        E 0 85 51 00
        E 0 85 52 00
        E 0 95 52 55
        E 0 95 52 56
        E 0 95 52 55
        E 343 85 51 00
        E 0 94 54 55
        E 0 95 54 55
        E 343 85 52 00
        E 0 85 52 00
        E 0 85 52 00
        E 0 95 52 55
        E 0 95 52 55
        E 343 85 52 00
        E 0 84 54 00
        E 0 85 54 00
        E 344 85 52 00
        E 0 85 52 00
        E 0 95 52 56
        E 0 95 58 55
        E 0 95 58 55
        E 343 95 52 56
        E 0 95 52 56
        E 0 95 52 56
        E 343 85 52 00
        E 0 85 58 00
        E 0 85 58 00
        E 0 91 3a 55
        E 0 95 52 55
        E 343 85 52 00
        E 0 85 52 00
        E 0 85 52 00
        E 0 94 52 55
        E 0 95 52 56
        E 343 81 3a 00
        E 0 85 52 00
        E 0 95 52 56
        E 343 84 52 00
        E 0 85 52 00
        E 343 85 52 00
        E 0 95 52 55
        E 0 95 52 55
        E 0 95 52 56
        E 686 85 52 00
        E 0 85 52 00
        E 0 85 52 00
        E 343 95 51 55
        E 0 95 51 56
        E 0 95 52 56
        E 0 96 58 55
        E 343 94 52 56
        E 0 94 52 56
        E 0 95 52 56
        E 0 95 52 54
        E 343 85 51 00
        E 0 85 51 00
        E 0 85 52 00
        E 0 91 58 55
        E 0 94 54 56
        E 0 95 52 56
        E 343 84 52 00
        E 0 84 52 00
        E 0 85 52 00
        E 0 85 52 00
        E 0 91 5b 56
        E 0 91 58 56
        E 0 94 54 56
        E 0 95 51 56
        E 343 86 58 00
        E 0 81 58 00
        E 0 84 54 00
        E 0 95 52 56
        E 0 95 52 56
        E 0 95 52 56
        E 343 81 5b 00
        E 0 81 58 00
        E 0 84 54 00
        E 0 85 51 00
        E 0 95 52 55
        E 0 95 52 55
        E 343 85 52 00
        E 0 85 52 00
        E 0 85 52 00
        E 0 85 52 00
        E 0 95 52 55
        E 0 95 52 55
        E 343 85 52 00
        E 0 85 52 00
        E 0 95 52 55
        E 0 95 52 56
        E 0 95 52 56
        E 0 95 54 55
        E 343 85 52 00
        E 0 85 52 00
        E 0 94 52 56
        E 0 95 52 56
        E 0 95 52 56
        E 343 85 52 00
        E 0 85 52 00
        E 0 85 54 00
        E 0 90 3a 55
        E 0 94 58 56
        E 343 84 52 00
        E 0 85 52 00
        E 0 85 52 00
        E 0 91 3a 56
        E 0 95 51 56
        E 0 95 52 55
        E 343 85 52 00
        E 0 80 3a 00
        E 0 84 58 00
        E 343 81 3a 00
        E 0 85 51 00
        E 0 85 52 00
        E 0 91 3a 56
        E 0 95 52 56
        E 343 95 51 55
        E 0 95 54 56
        E 343 81 3a 00
        E 0 85 52 00
        E 0 95 52 56
        E 0 95 52 56
        E 0 95 52 55
        E 343 85 51 00
        E 0 91 5b 56
        E 343 85 52 00
        E 0 85 52 00
        E 0 85 52 00
        E 0 94 52 56
        E 0 95 51 56
        E 0 95 58 56
        E 0 95 52 56
        E 0 95 54 56
        E 343 85 54 00
        E 0 81 5b 00
        E 0 94 51 56
        E 0 95 54 55
        E 343 84 52 00
        E 0 85 51 00
        E 0 85 58 00
        E 0 85 54 00
        E 343 84 51 00
        E 0 85 54 00
        E 0 95 51 56
        E 0 95 51 56
        E 0 95 52 56
        E 0 95 52 56
        E 343 85 52 00
        E 0 95 52 56
        E 343 85 51 00
        E 0 85 51 00
        E 0 85 52 00
        E 0 85 52 00
        E 0 95 58 54
        E 0 95 58 54
        E 343 85 52 00
        E 0 95 54 55
        E 343 85 58 00
        E 0 85 58 00
        E 0 91 3a 56
        E 0 95 58 56
        E 343 85 54 00
        E 0 95 52 56
        E 343 81 3a 00
        E 0 85 58 00
        E 0 95 51 56
        E 0 95 58 56
        E 0 95 58 56
        E 343 85 52 00
        E 0 95 52 55
        E 0 95 52 56
        E 343 85 51 00
        E 0 85 58 00
        E 0 85 58 00
        E 344 85 52 00
        E 0 85 52 00
        E 343 94 52 56
        E 0 95 58 56
        E 343 95 52 56
        E 0 95 58 57
        E 343 84 52 00
        E 0 85 58 00
        E 0 95 51 57
        E 0 95 52 56
        E 343 85 52 00
        E 0 85 58 00
        E 0 95 58 56
        E 343 85 51 00
        E 0 85 52 00
        E 0 94 52 56
        E 343 95 51 57
        E 0 95 58 57
        E 343 84 52 00
        E 0 94 52 56
        E 343 85 58 00
        E 0 85 51 00
        E 0 85 58 00
        E 0 91 58 56
        E 0 95 58 56
        E 343 84 52 00
        E 0 95 58 55
        E 343 81 58 00
        E 0 85 58 00
        E 0 91 3a 56
        E 0 91 3a 56
        E 0 97 34 56
        E 343 85 58 00
        E 0 95 51 56
        E 343 81 3a 00
        E 0 81 3a 00
        E 0 87 34 00
        E 0 95 51 56
        E 0 95 58 56
        E 343 85 51 00
        E 0 95 51 56
        E 0 95 51 56
        E 343 85 51 00
        E 0 85 58 00
        E 0 95 58 56
        E 343 85 51 00
        E 0 85 51 00
        E 0 95 51 56
        E 0 95 52 55
        E 343 85 58 00
        E 343 85 51 00
        E 0 85 52 00
        E 0 96 34 56
        E 343 90 58 56
        E 0 94 52 56
        E 343 86 34 00
        E 0 95 51 56
        E 343 80 58 00
        E 0 91 3a 56
        E 0 91 3a 56
        E 0 95 51 56
        E 343 85 51 00
        E 0 91 3a 56
        E 0 94 52 56
        E 0 94 52 56
        E 343 84 52 00
        E 0 81 3a 00
        E 0 81 3a 00
        E 0 85 51 00
        E 0 95 51 57
        E 0 95 51 57
        E 0 95 52 56
        E 343 81 3a 00
        E 0 84 52 00
        E 0 84 52 00
        E 0 95 52 57
        E 0 95 56 56
        E 0 95 59 57
        E 343 85 51 00
        E 0 85 51 00
        E 0 85 52 00
        E 0 95 51 56
        E 343 85 52 00
        E 0 85 56 00
        E 0 95 51 56
        E 0 95 51 56
        E 0 95 56 56
        E 0 95 56 56
        E 343 85 51 00
        E 343 85 59 00
        E 0 85 51 00
        E 0 85 51 00
        E 0 85 56 00
        E 0 85 56 00
        E 0 94 52 56
        E 343 97 4f 55
        E 343 84 52 00
        E 0 95 51 56
        E 343 87 4f 00
        E 0 91 32 56
        E 343 85 51 00
        E 0 94 52 55
        E 343 81 32 00
        E 0 95 51 56
        E 0 95 51 56
        E 0 95 51 56
        E 343 84 52 00
        E 0 95 51 56
        E 0 95 56 55
        E 0 95 56 56
        E 343 85 51 00
        E 0 85 51 00
        E 0 85 51 00
        E 0 94 52 56
        E 343 85 51 00
        E 0 85 56 00
        E 0 85 56 00
        E 0 94 52 55
        E 0 95 52 55
        E 0 95 52 56
        E 0 95 51 56
        E 343 84 52 00
        E 0 94 52 56
        E 0 94 52 56
        E 0 95 51 56
        E 0 95 51 56
        E 344 84 52 00
        E 0 85 52 00
        E 0 85 52 00
        E 0 85 51 00
        E 0 94 52 56
        E 0 95 51 56
        E 343 84 52 00
        E 0 84 52 00
        E 0 85 51 00
        E 0 85 51 00
        E 0 91 3a 56
        E 343 84 52 00
        E 0 85 51 00
        E 343 81 3a 00
        E 0 90 3a 55
        E 0 95 52 56
        E 686 80 3a 00
        E 0 85 52 00
        E 0 95 52 55
        E 0 95 59 56
        E 686 85 52 00
        E 686 85 59 00
        E 0 91 59 55
        E 0 94 52 56
        E 686 81 59 00
        E 0 84 52 00
        E 0 95 51 56
        E 343 94 52 56
        E 0 95 56 55
        E 343 85 51 00
        E 0 97 35 56
        E 343 84 52 00
        E 0 85 56 00
        E 0 95 52 56
        E 343 87 35 00
        E 0 95 51 56
        E 0 95 52 56
        E 343 85 52 00
        E 0 95 52 56
        E 343 85 51 00
        E 0 85 52 00
        E 0 95 51 56
        E 343 85 52 00
        E 0 90 32 56
        E 0 90 32 56
        E 343 85 51 00
        E 0 95 51 56
        E 0 95 52 56
        E 343 80 32 00
        E 0 80 32 00
        E 343 85 51 00
        E 0 85 52 00
        E 0 94 52 56
        E 0 94 52 56
        E 343 95 51 56
        E 343 84 52 00
        E 0 84 52 00
        E 0 95 51 55
        E 0 95 51 56
        E 343 85 51 00
        E 0 95 52 56
        E 343 85 51 00
        E 0 85 51 00
        E 0 95 52 55
        E 0 95 52 55
        E 343 85 52 00
        E 0 95 52 56
        E 0 95 52 55
        E 343 85 52 00
        E 0 85 52 00
        E 343 85 52 00
        E 0 85 52 00
        E 0 94 52 56
        E 0 95 52 56
        E 343 95 52 56
        E 0 95 52 56
        E 0 95 52 56
        E 343 84 52 00
        E 0 85 52 00
        E 0 95 52 55
        E 343 85 52 00
        E 0 85 52 00
        E 0 85 52 00
        E 0 96 3a 55
        E 0 96 3a 55
        E 343 85 52 00
        E 343 86 3a 00
        E 0 86 3a 00
        E 0 94 52 54
        E 0 94 52 56
        E 0 95 52 56
        E 343 95 52 56
        E 0 95 52 56
        E 343 84 52 00
        E 0 84 52 00
        E 0 85 52 00
        E 0 95 51 56
        E 344 85 52 00
        E 0 85 52 00
        E 0 94 52 55
        E 0 94 52 56
        E 343 85 51 00
        E 0 90 3a 55
        E 0 90 3a 55
        E 343 84 52 00
        E 0 84 52 00
        E 0 94 52 55
        E 343 80 3a 00
        E 0 80 3a 00
        E 0 96 3a 53
        E 0 96 3a 53
        E 0 96 3e 54
        E 0 96 3e 55
        E 343 84 52 00
        E 0 90 41 55
        E 0 90 3a 54
        E 0 90 32 55
        E 0 94 32 55
        E 0 94 3e 55
        E 0 94 3e 55
        E 0 95 52 55
        E 0 95 56 55
        E 343 86 3a 00
        E 0 86 3a 00
        E 0 86 3e 00
        E 0 86 3e 00
        E 0 90 32 53
        E 0 91 32 53
        E 0 95 32 52
        E 0 95 32 53
        E 0 95 32 53
        E 0 95 32 53
        E 0 95 32 53
        E 0 95 32 53
        E 0 97 32 53
        E 343 80 41 00
        E 0 80 3a 00
        E 0 80 32 00
        E 0 84 32 00
        E 0 84 3e 00
        E 0 84 3e 00
        E 0 85 52 00
        E 0 85 56 00
        E 0 90 32 52
        E 0 90 32 53
        E 0 90 32 53
        E 0 90 32 53
        E 0 91 3a 53
        E 0 95 32 52
        E 0 95 32 52
        E 0 95 32 52
        E 0 95 32 53
        E 0 95 32 53
        E 343 80 32 00
        E 0 81 32 00
        E 0 85 32 00
        E 0 85 32 00
        E 0 85 32 00
        E 0 85 32 00
        E 0 85 32 00
        E 0 85 32 00
        E 0 87 32 00
        E 0 96 32 51
        E 0 96 32 52
        E 0 96 32 51
        E 0 96 32 51
        E 0 96 32 52
        E 0 96 32 52
        E 0 96 32 52
        E 0 96 32 52
        E 0 96 32 52
        E 0 96 32 52
        E 343 80 32 00
        E 0 80 32 00
        E 0 80 32 00
        E 0 80 32 00
        E 0 81 3a 00
        E 0 85 32 00
        E 0 85 32 00
        E 0 85 32 00
        E 0 85 32 00
        E 0 85 32 00
        E 0 91 3a 52
        E 0 96 32 52
        E 343 86 32 00
        E 0 86 32 00
        E 0 86 32 00
        E 0 86 32 00
        E 0 86 32 00
        E 0 86 32 00
        E 0 86 32 00
        E 0 86 32 00
        E 0 86 32 00
        E 0 86 32 00
        E 343 81 3a 00
        E 0 86 32 00
        E 0 90 5d 55
        E 0 90 5d 55
        E 0 97 5e 55
        E 343 94 52 56
        E 0 95 51 56
        E 343 80 5d 00
        E 0 80 5d 00
        E 0 87 5e 00
        E 0 94 52 56
        E 0 95 51 56
        E 0 95 52 56
        E 343 84 52 00
        E 0 85 51 00
        E 0 95 52 56
        E 0 95 56 56
        E 343 84 52 00
        E 0 85 51 00
        E 0 85 52 00
        E 0 91 59 55
        E 0 95 52 56
        E 0 95 52 56
        E 343 85 52 00
        E 0 85 56 00
        E 0 95 51 56
        E 0 95 52 56
        E 0 95 52 56
        E 343 81 59 00
        E 0 85 52 00
        E 0 85 52 00
        E 343 85 51 00
        E 0 85 52 00
        E 0 85 52 00
        E 0 95 52 55
        E 343 91 32 55
        E 0 91 59 55
        E 0 91 59 55
        E 343 85 52 00
        E 0 90 32 55
        E 0 90 32 56
        E 0 90 32 54
        E 0 95 51 55
        E 343 81 32 00
        E 0 81 59 00
        E 0 81 59 00
        E 0 90 32 55
        E 0 90 32 55
        E 0 90 32 55
        E 0 90 32 55
        E 0 90 32 55
        E 0 90 32 55
        E 343 80 32 00
        E 0 80 32 00
        E 0 80 32 00
        E 0 85 51 00
        E 0 91 3a 55
        E 0 91 3a 56
        E 0 94 52 55
        E 0 94 52 55
        E 0 94 52 56
        E 0 94 52 56
        E 0 95 51 56
        E 343 80 32 00
        E 0 80 32 00
        E 0 80 32 00
        E 0 80 32 00
        E 0 80 32 00
        E 0 80 32 00
        E 0 95 51 56
        E 0 95 51 56
        E 0 95 52 56
        E 0 95 52 55
        E 0 95 52 55
        E 0 95 52 56
        E 343 81 3a 00
        E 0 81 3a 00
        E 0 84 52 00
        E 0 84 52 00
        E 0 84 52 00
        E 0 84 52 00
        E 0 85 51 00
        E 0 95 51 56
        E 0 95 51 56
        E 0 95 56 56
        E 0 95 56 56
        E 343 85 51 00
        E 0 85 52 00
        E 0 85 52 00
        E 0 85 52 00
        E 0 85 52 00
        E 0 95 51 56
        E 343 85 51 00
        E 0 85 51 00
        E 0 85 56 00
        E 0 85 56 00
        E 0 94 51 56
        E 0 95 52 56
        E 343 85 51 00
        E 0 85 51 00
        E 0 94 51 56
        E 0 95 52 56
        E 343 84 51 00
        E 0 85 52 00
        E 0 91 3a 56
        E 0 91 3a 56
        E 0 95 51 56
        E 343 84 51 00
        E 0 85 52 00
        E 0 95 51 56
        E 343 81 3a 00
        E 0 81 3a 00
        E 0 85 51 00
        E 0 91 59 55
        E 0 91 59 56
        E 0 95 52 56
        E 343 85 51 00
        E 343 81 59 00
        E 0 81 59 00
        E 0 85 52 00
        E 686 90 3a 51
        E 0 97 35 56
        E 343 94 52 54
        E 343 80 3a 00
        E 0 87 35 00
        E 0 91 59 56
        E 343 84 52 00
        E 0 91 3a 56
        E 0 91 3a 54
        E 0 91 3a 55
        E 0 91 3a 55
        E 0 91 3a 56
        E 0 94 52 56
        E 344 90 35 56
        E 0 91 3e 55
        E 343 81 3a 00
        E 0 81 3a 00
        E 0 81 3a 00
        E 0 81 3a 00
        E 0 81 3a 00
        E 0 84 52 00
        E 0 94 52 56
        E 0 95 51 56
        E 343 81 59 00
        E 0 80 35 00
        E 0 81 3e 00
        E 0 91 3e 56
        E 0 94 52 56
        E 343 84 52 00
        E 0 85 51 00
        E 0 94 51 57
        E 0 94 52 57
        E 343 81 3e 00
        E 0 84 52 00
        E 0 94 51 56
        E 0 94 52 56
        E 343 84 51 00
        E 0 84 52 00
        E 0 94 52 56
        E 0 94 52 56
        E 0 95 52 56
        E 343 84 51 00
        E 0 84 52 00
        E 0 95 56 56
        E 343 84 52 00
        E 0 84 52 00
        E 0 85 52 00
        E 0 95 52 56
        E 343 85 56 00
        E 343 85 52 00
        E 343 95 52 56
        E 686 85 52 00
        E 0 95 52 56
        E 343 95 52 56
        E 0 95 52 56
        E 0 95 52 56
        E 343 85 52 00
        E 0 95 56 56
        E 343 85 52 00
        E 0 85 52 00
        E 0 85 52 00
        E 0 94 51 56
        E 343 85 56 00
        E 343 84 51 00
        E 0 95 56 56
        E 343 90 3e 56
        E 0 95 52 55
        E 343 85 56 00
        E 343 80 3e 00
        E 0 85 52 00
        E 0 91 3a 56
        E 343 93 41 56
        E 0 94 52 57
        E 343 81 3a 00
        E 0 94 52 56
        E 0 95 52 56
        E 0 95 52 56
        E 0 95 56 57
        E 343 83 41 00
        E 0 84 52 00
        E 0 94 52 56
        E 0 94 56 56
        E 0 94 56 57
        E 0 95 56 57
        E 343 84 52 00
        E 0 85 52 00
        E 0 85 52 00
        E 0 94 51 57
        E 343 84 52 00
        E 0 84 56 00
        E 0 84 56 00
        E 0 85 56 00
        E 0 91 59 57
        E 0 94 52 57
        E 0 96 59 56
        E 343 85 56 00
        E 0 84 51 00
        E 0 91 3e 57
        E 0 91 3a 57
        E 343 81 59 00
        E 0 84 52 00
        E 0 86 59 00
        E 0 94 41 56
        E 0 94 41 57
        E 343 81 3e 00
        E 0 81 3a 00
        E 0 90 3e 54
        E 0 94 52 55
        E 0 94 52 56
        E 343 84 41 00
        E 0 84 41 00
        E 0 90 41 55
        E 0 90 41 56
        E 0 90 41 56
        E 0 94 52 56
        E 343 80 3e 00
        E 0 84 52 00
        E 0 84 52 00
        E 0 90 41 55
        E 0 90 3e 55
        E 0 90 3e 55
        E 0 91 3e 54
        E 0 91 3e 54
        E 0 96 59 55
        E 343 80 41 00
        E 0 80 41 00
        E 0 80 41 00
        E 0 84 52 00
        E 0 94 51 56
        E 343 80 41 00
        E 0 80 3e 00
        E 0 80 3e 00
        E 0 81 3e 00
        E 0 81 3e 00
        E 0 86 59 00
        E 0 94 51 55
        E 0 94 51 56
        E 343 84 51 00
        E 343 84 51 00
        E 0 84 51 00
        E 0 94 52 56
        E 343 94 52 56
        E 343 84 52 00
        E 0 94 51 56
        E 344 84 52 00
        E 0 96 4d 56
        E 0 96 4d 56
        E 0 96 4d 56
        E 0 97 3a 56
        E 343 84 51 00
        E 0 90 4f 56
        E 0 92 4d 56
        E 0 92 4d 56
        E 0 97 4f 56
        E 343 86 4d 00
        E 0 86 4d 00
        E 0 86 4d 00
        E 0 87 3a 00
        E 0 94 41 54
        E 0 94 41 55
        E 0 94 41 55
        E 0 94 41 55
        E 343 80 4f 00
        E 0 82 4d 00
        E 0 82 4d 00
        E 0 87 4f 00
        E 0 97 3e 54
        E 0 97 3e 55
        E 0 97 3e 54
        E 0 97 3e 55
        E 343 84 41 00
        E 0 84 41 00
        E 0 84 41 00
        E 0 84 41 00
        E 0 96 3a 53
        E 343 87 3e 00
        E 0 87 3e 00
        E 0 87 3e 00
        E 0 87 3e 00
        E 0 90 4f 57
        E 343 86 3a 00
        E 0 91 59 57
        E 0 91 59 56
        E 0 91 59 57
        E 0 95 56 57
        E 343 94 52 57
        E 0 94 52 57
        E 343 81 59 00
        E 0 81 59 00
        E 0 81 59 00
        E 0 85 56 00
        E 0 94 51 57
        E 0 94 51 57
        E 0 94 52 57
        E 0 94 56 57
        E 343 80 4f 00
        E 0 84 52 00
        E 0 84 52 00
        E 0 95 4f 57
        E 0 96 4f 57
        E 343 84 51 00
        E 0 84 51 00
        E 0 84 52 00
        E 0 84 56 00
        E 0 96 4f 56
        E 343 85 4f 00
        E 0 86 4f 00
        E 0 91 59 56
        E 343 86 4f 00
        E 0 94 56 57
        E 343 81 59 00
        E 0 95 51 57
        E 0 97 4f 56
        E 343 96 4f 57
        E 0 97 4f 56
        E 343 87 4f 00
        E 0 95 51 57
        E 343 84 56 00
        E 0 86 4f 00
        E 0 87 4f 00
        E 0 94 52 57
        E 343 85 51 00
        E 0 85 51 00
        E 0 95 52 57
        E 343 84 52 00
        E 0 95 4f 57
        E 343 85 52 00
        E 0 94 52 57
        E 343 85 4f 00
        E 0 95 51 57
        E 0 95 4f 57
        E 343 84 52 00
        E 0 95 51 57
        E 343 85 51 00
        E 0 85 4f 00
        E 0 95 51 57
        E 343 85 51 00
        E 0 94 56 57
        E 0 95 51 57
        E 0 95 51 57
        E 343 85 51 00
        E 0 95 51 57
        E 0 95 51 57
        E 343 84 56 00
        E 0 85 51 00
        E 0 85 51 00
        E 0 95 51 57
        E 343 85 51 00
        E 0 85 51 00
        E 343 85 51 00
        E 0 97 4d 55
        E 343 96 4d 54
        E 0 97 4d 54
        E 343 87 4d 00
        E 343 86 4d 00
        E 0 87 4d 00
        E 0 90 4d 55
        E 0 91 2d 55
        E 0 91 2d 55
        E 0 91 2d 55
        E 343 91 2d 56
        E 0 95 4d 55
        E 343 80 4d 00
        E 0 81 2d 00
        E 0 81 2d 00
        E 0 81 2d 00
        E 0 95 51 56
        E 343 81 2d 00
        E 0 85 4d 00
        E 0 90 51 56
        E 0 91 2d 55
        E 0 95 51 56
        E 343 85 51 00
        E 0 95 39 56
        E 0 96 4d 55
        E 343 80 51 00
        E 0 81 2d 00
        E 0 85 51 00
        E 344 85 39 00
        E 0 86 4d 00
        E 0 97 4d 53
        E 0 97 4d 53
        E 343 90 4d 55
        E 0 91 59 55
        E 0 91 59 55
        E 343 87 4d 00
        E 0 87 4d 00
        E 0 90 4d 55
        E 0 90 4d 56
        E 0 90 4d 56
        E 0 95 39 56
        E 0 95 51 55
        E 0 97 4d 56
        E 0 97 4d 55
        E 343 80 4d 00
        E 0 81 59 00
        E 0 81 59 00
        E 0 91 30 55
        E 0 91 30 56
        E 0 95 3e 56
        E 0 95 3e 56
        E 0 95 3e 56
        E 343 80 4d 00
        E 0 80 4d 00
        E 0 80 4d 00
        E 0 85 39 00
        E 0 85 51 00
        E 0 87 4d 00
        E 0 87 4d 00
        E 0 90 59 56
        E 0 95 58 56
        E 0 96 4d 56
        E 343 81 30 00
        E 0 81 30 00
        E 0 85 3e 00
        E 0 85 3e 00
        E 0 85 3e 00
        E 0 97 3c 56
        E 343 80 59 00
        E 0 85 58 00
        E 0 86 4d 00
        E 0 91 2d 56
        E 0 96 3c 55
        E 343 87 3c 00
        E 0 91 2d 56
        E 0 91 2d 55
        E 0 91 2d 56
        E 343 81 2d 00
        E 0 86 3c 00
        E 0 95 51 57
        E 343 81 2d 00
        E 0 81 2d 00
        E 0 81 2d 00
        E 0 95 51 56
        E 0 95 51 56
        E 343 85 51 00
        E 343 85 51 00
        E 0 85 51 00
        E 0 96 4d 57
        E 343 95 58 57
        E 343 86 4d 00
        E 0 95 51 56
        E 0 95 4d 56
        E 343 85 58 00
        E 0 94 51 56
        E 0 95 51 55
        E 0 95 51 56
        E 0 95 51 55
        E 0 95 51 55
        E 343 85 51 00
        E 0 85 4d 00
        E 0 91 59 56
        E 0 95 51 55
        E 343 84 51 00
        E 0 85 51 00
        E 0 85 51 00
        E 0 85 51 00
        E 0 85 51 00
        E 0 91 59 55
        E 0 91 59 55
        E 343 81 59 00
        E 0 85 51 00
        E 0 91 2d 56
        E 0 94 51 56
        E 0 95 51 56
        E 343 81 59 00
        E 0 81 59 00
        E 343 81 2d 00
        E 0 84 51 00
        E 0 85 51 00
        E 0 95 51 56
        E 343 94 58 57
        E 0 95 58 57
        E 343 85 51 00
        E 0 94 54 57
        E 343 84 58 00
        E 0 85 58 00
        E 0 94 58 56
        E 343 84 54 00
        E 0 93 59 56
        E 0 95 4d 57
        E 343 84 58 00
        E 343 83 59 00
        E 0 85 4d 00
        E 343 90 54 54
        E 343 96 51 56
        E 343 80 54 00
        E 0 95 58 57
        E 343 86 51 00
        E 0 90 51 57
        E 0 94 51 57
        E 0 96 4d 57
        E 0 96 4d 57
        E 343 85 58 00
        E 0 91 59 54
        E 0 91 59 54
        E 0 97 51 56
        E 343 80 51 00
        E 0 84 51 00
        E 0 86 4d 00
        E 0 86 4d 00
        E 0 94 51 56
        E 343 81 59 00
        E 0 81 59 00
        E 0 87 51 00
        E 0 94 51 57
        E 343 84 51 00
        E 0 90 54 56
        E 0 95 51 55
        E 0 95 51 55
        E 0 96 51 55
        E 0 97 51 56
        E 343 84 51 00
        E 0 90 54 55
        E 0 90 59 56
        E 0 90 59 57
        E 343 80 54 00
        E 0 85 51 00
        E 0 85 51 00
        E 0 86 51 00
        E 0 87 51 00
        E 0 90 51 57
        E 0 95 54 56
        E 0 95 54 57
        E 343 80 54 00
        E 0 80 59 00
        E 0 80 59 00
        E 0 95 54 56
        E 344 80 51 00
        E 0 85 54 00
        E 0 85 54 00
        E 0 97 51 56
        E 343 85 54 00
        E 0 90 51 57
        E 343 87 51 00
        E 0 90 59 56
        E 0 96 51 57
        E 343 80 51 00
        E 0 94 58 57
        E 0 97 51 56
        E 343 80 59 00
        E 0 86 51 00
        E 343 84 58 00
        E 0 87 51 00
        E 0 90 51 57
        E 0 91 51 57
        E 343 91 59 56
        E 0 91 59 56
        E 0 96 4d 57
        E 343 80 51 00
        E 0 81 51 00
        E 0 91 59 54
        E 0 91 59 55
        E 0 91 59 55
        E 0 91 59 55
        E 0 91 59 56
        E 0 95 4a 55
        E 343 81 59 00
        E 0 81 59 00
        E 0 86 4d 00
        E 0 94 4a 56
        E 0 95 4a 57
        E 343 81 59 00
        E 0 81 59 00
        E 0 81 59 00
        E 0 81 59 00
        E 0 81 59 00
        E 0 85 4a 00
        E 0 91 35 57
        E 0 97 51 57
        E 343 84 4a 00
        E 0 85 4a 00
        E 343 81 35 00
        E 0 87 51 00
        E 1372 90 51 56
        E 0 96 4d 57
        E 0 97 51 56
        E 343 94 4a 56
        E 0 97 51 56
        E 343 80 51 00
        E 0 86 4d 00
        E 0 87 51 00
        E 0 91 59 56
        E 343 84 4a 00
        E 0 87 51 00
        E 0 95 58 57
        E 343 81 59 00
        E 343 85 58 00
        E 343 91 35 57
        E 0 95 4a 58
        E 0 97 4d 58
        E 686 81 35 00
        E 0 85 4a 00
        E 0 87 4d 00
        E 0 95 58 56
        E 343 96 56 55
        E 0 96 56 55
        E 343 85 58 00
        E 0 91 59 56
        E 0 93 59 56
        E 0 96 58 55
        E 0 96 58 55
        E 0 97 58 54
        E 0 97 58 55
        E 0 97 58 56
        E 343 86 56 00
        E 0 86 56 00
        E 0 95 58 56
        E 0 96 58 55
        E 0 96 58 55
        E 0 96 58 55
        E 0 96 58 56
        E 0 96 58 55
        E 343 81 59 00
        E 0 83 59 00
        E 0 86 58 00
        E 0 86 58 00
        E 0 87 58 00
        E 0 87 58 00
        E 0 87 58 00
        E 0 95 58 57
        E 0 95 58 56
        E 0 95 58 57
        E 0 96 58 54
        E 0 96 4d 57
        E 343 85 58 00
        E 0 86 58 00
        E 0 86 58 00
        E 0 86 58 00
        E 0 86 58 00
        E 0 86 58 00
        E 0 95 58 57
        E 343 85 58 00
        E 0 85 58 00
        E 0 85 58 00
        E 0 86 58 00
        E 0 86 4d 00
        E 0 96 58 54
        E 343 85 58 00
        E 0 90 58 55
        E 0 90 58 55
        E 0 90 58 56
        E 0 90 58 55
        E 0 97 56 56
        E 343 86 58 00
        E 0 90 58 54
        E 0 90 58 55
        E 0 96 56 55
        E 0 97 58 55
        E 0 97 58 55
        E 343 80 58 00
        E 0 80 58 00
        E 0 80 58 00
        E 0 80 58 00
        E 0 87 56 00
        E 0 96 58 54
        E 0 96 58 55
        E 0 97 58 54
        E 343 80 58 00
        E 0 80 58 00
        E 0 86 56 00
        E 0 87 58 00
        E 0 87 58 00
        E 0 96 59 54
        E 343 86 58 00
        E 0 86 58 00
        E 0 87 58 00
        E 343 86 59 00
        E 0 96 58 51
        E 687 86 58 00
        E 686 95 4d 55
        E 343 96 58 55
        E 0 96 58 55
        E 343 85 4d 00
        E 0 94 59 55
        E 343 86 58 00
        E 0 86 58 00
        E 0 96 58 54
        E 343 84 59 00
        E 0 95 58 55
        E 343 86 58 00
        E 0 90 58 55
        E 343 85 58 00
        E 0 95 58 55
        E 0 95 58 55
        E 0 96 58 55
        E 343 80 58 00
        E 0 95 59 55
        E 0 95 59 56
        E 0 97 58 55
        E 343 85 58 00
        E 0 85 58 00
        E 0 86 58 00
        E 0 97 58 55
        E 343 85 59 00
        E 0 85 59 00
        E 0 87 58 00
        E 343 87 58 00
        E 343 91 59 50
        E 0 91 59 50
        E 0 91 59 50
        E 0 91 59 51
        E 0 91 59 51
        E 686 81 59 00
        E 0 81 59 00
        E 0 81 59 00
        E 0 81 59 00
        E 0 81 59 00
        E 0 90 51 53
        E 0 96 4d 53
        E 0 97 4d 53
        E 0 97 4d 52
        E 343 90 34 53
        E 0 91 34 53
        E 0 91 34 53
        E 0 91 34 53
        E 0 91 34 53
        E 343 80 51 00
        E 0 86 4d 00
        E 0 87 4d 00
        E 0 87 4d 00
        E 0 91 34 53
        E 0 91 34 54
        E 0 96 29 54
        E 0 96 29 54
        E 0 96 29 54
        E 343 80 34 00
        E 0 81 34 00
        E 0 81 34 00
        E 0 81 34 00
        E 0 81 34 00
        E 0 90 2d 53
        E 0 90 2d 53
        E 0 90 2d 54
        E 0 90 2d 54
        E 0 90 2d 54
        E 0 90 2d 54
        E 0 90 2d 54
        E 0 90 2d 54
        E 0 91 2d 54
        E 0 96 2d 53
        E 0 96 2d 54
        E 0 96 2d 54
        E 0 96 2d 54
        E 0 96 2d 54
        E 343 81 34 00
        E 0 81 34 00
        E 0 86 29 00
        E 0 86 29 00
        E 0 86 29 00
        E 0 90 29 55
        E 0 90 29 56
        E 0 90 29 56
        E 0 90 2d 55
        E 0 90 2d 55
        E 0 90 2d 55
        E 0 95 59 55
        E 0 97 29 54
        E 0 97 29 55
        E 0 97 29 55
        E 0 97 29 55
        E 343 80 2d 00
        E 0 80 2d 00
        E 0 80 2d 00
        E 0 80 2d 00
        E 0 80 2d 00
        E 0 80 2d 00
        E 0 80 2d 00
        E 0 80 2d 00
        E 0 81 2d 00
        E 0 86 2d 00
        E 0 86 2d 00
        E 0 86 2d 00
        E 0 86 2d 00
        E 0 86 2d 00
        E 0 90 58 55
        E 0 96 28 55
        E 0 96 28 55
        E 0 96 28 55
        E 0 96 28 55
        E 0 97 58 55
        E 343 80 29 00
        E 0 80 29 00
        E 0 80 29 00
        E 0 80 2d 00
        E 0 80 2d 00
        E 0 80 2d 00
        E 0 85 59 00
        E 0 87 29 00
        E 0 87 29 00
        E 0 87 29 00
        E 0 87 29 00
        E 0 95 59 56
        E 0 97 58 56
        E 343 80 58 00
        E 0 86 28 00
        E 0 86 28 00
        E 0 86 28 00
        E 0 86 28 00
        E 0 95 59 56
        E 0 95 59 56
        E 343 85 59 00
        E 0 87 58 00
        E 0 91 59 57
        E 0 96 59 57
        E 343 87 58 00
        E 0 85 59 00
        E 0 85 59 00
        E 0 96 59 56
        E 343 81 59 00
        E 0 86 59 00
        E 0 95 59 56
        E 343 86 59 00
        E 0 94 4a 55
        E 0 94 4a 54
        E 0 94 4a 54
        E 0 94 4a 55
        E 0 94 4a 55
        E 343 85 59 00
        E 0 90 51 56
        E 343 84 4a 00
        E 0 84 4a 00
        E 0 84 4a 00
        E 0 84 4a 00
        E 0 84 4a 00
        E 0 90 34 54
        E 0 90 34 55
        E 0 90 34 55
        E 0 91 32 55
        E 343 80 51 00
        E 0 90 34 55
        E 0 90 34 55
        E 0 90 34 55
        E 0 91 34 56
        E 343 80 34 00
        E 0 80 34 00
        E 0 80 34 00
        E 0 81 32 00
        E 0 90 59 56
        E 0 91 29 56
        E 0 91 2d 56
        E 0 97 59 55
        E 343 80 34 00
        E 0 80 34 00
        E 0 80 34 00
        E 0 81 34 00
        E 0 90 59 56
        E 0 90 59 56
        E 0 90 2d 56
        E 0 90 59 56
        E 0 91 2d 56
        E 343 80 59 00
        E 0 81 29 00
        E 0 81 2d 00
        E 0 87 59 00
        E 0 90 29 57
        E 0 96 4d 57
        E 0 97 4d 57
        E 343 80 59 00
        E 0 80 59 00
        E 0 80 2d 00
        E 0 80 59 00
        E 0 81 2d 00
        E 0 90 58 57
        E 0 90 58 58
        E 0 90 4d 58
        E 343 80 29 00
        E 0 86 4d 00
        E 0 87 4d 00
        E 343 80 58 00
        E 0 80 58 00
        E 0 80 4d 00
        E 0 94 51 57
        E 344 91 59 56
        E 0 94 4a 55
        E 0 95 4a 56
        E 343 84 51 00
        E 0 91 59 56
        E 343 81 59 00
        E 0 84 4a 00
        E 0 85 4a 00
        E 0 91 59 55
        E 0 91 59 56
        E 0 96 35 56
        E 343 81 59 00
        E 343 81 59 00
        E 0 81 59 00
        E 0 86 35 00
        E 0 90 51 57
        E 343 94 51 57
        E 343 80 51 00
        E 0 90 4d 57
        E 343 84 51 00
        E 0 95 59 56
        E 0 95 4a 56
        E 0 95 4a 57
        E 0 95 4a 56
        E 0 95 4a 56
        E 343 80 4d 00
        E 343 85 59 00
        E 0 85 4a 00
        E 0 85 4a 00
        E 0 85 4a 00
        E 0 85 4a 00
        E 343 91 59 56
        E 343 94 51 56
        E 343 81 59 00
        E 0 90 51 57
        E 0 96 4d 55
        E 0 97 4d 57
        E 343 84 51 00
        E 0 94 51 57
        E 343 80 51 00
        E 0 86 4d 00
        E 0 87 4d 00
        E 343 84 51 00
        E 343 94 51 57
        E 343 90 4d 57
        E 0 91 59 57
        E 0 95 51 57
        E 343 84 51 00
        E 0 94 51 57
        E 343 80 4d 00
        E 0 81 59 00
        E 0 85 51 00
        E 343 84 51 00
        E 0 91 59 57
        E 686 81 59 00
        E 343 97 4d 58
        E 343 90 4d 57
        E 0 94 51 57
        E 0 94 51 57
        E 343 87 4d 00
        E 0 94 51 58
        E 0 94 51 58
        E 343 80 4d 00
        E 0 84 51 00
        E 0 84 51 00
        E 0 95 39 58
        E 0 95 39 58
        E 0 95 39 57
        E 343 84 51 00
        E 0 84 51 00
        E 0 94 51 58
        E 0 94 51 58
        E 0 94 51 58
        E 343 85 39 00
        E 0 85 39 00
        E 0 85 39 00
        E 0 90 4d 57
        E 343 84 51 00
        E 0 84 51 00
        E 0 84 51 00
        E 0 95 39 57
        E 343 90 4d 56
        E 0 90 4d 55
        E 0 90 4d 56
        E 0 95 3c 56
        E 343 85 39 00
        E 0 94 51 57
        E 0 94 51 58
        E 0 94 51 58
        E 343 80 4d 00
        E 0 80 4d 00
        E 0 80 4d 00
        E 0 80 4d 00
        E 0 85 3c 00
        E 0 95 39 56
        E 0 95 39 57
        E 0 95 39 58
        E 343 84 51 00
        E 0 84 51 00
        E 0 84 51 00
        E 0 90 39 58
        E 0 94 51 58
        E 343 85 39 00
        E 0 85 39 00
        E 0 85 39 00
        E 0 91 59 57
        E 0 96 4d 57
        E 343 80 39 00
        E 0 84 51 00
        E 0 90 29 58
        E 343 81 59 00
        E 0 86 4d 00
        E 0 94 51 58
        E 0 94 51 58
        E 0 95 39 57
        E 0 95 39 57
        E 344 80 29 00
        E 0 94 51 58
        E 343 84 51 00
        E 0 84 51 00
        E 0 85 39 00
        E 0 85 39 00
        E 0 95 51 58
        E 0 95 39 59
        E 343 84 51 00
        E 343 85 51 00
        E 0 85 39 00
        E 343 94 51 59
        E 0 95 3e 58
        E 343 94 51 59
        E 0 94 51 59
        E 0 94 51 59
        E 0 94 59 59
        E 343 84 51 00
        E 0 85 3e 00
        E 0 90 39 58
        E 0 95 51 58
        E 0 95 51 58
        E 343 84 51 00
        E 0 84 51 00
        E 0 84 51 00
        E 0 84 59 00
        E 0 90 4d 58
        E 343 80 39 00
        E 0 85 51 00
        E 0 85 51 00
        E 0 97 4d 57
        E 343 80 4d 00
        E 0 91 59 58
        E 0 94 3c 58
        E 0 95 51 58
        E 0 95 4d 58
        E 343 87 4d 00
        E 0 90 51 58
        E 0 95 3c 58
        E 0 95 3c 58
        E 0 95 3c 56
        E 0 96 4d 57
        E 343 81 59 00
        E 0 84 3c 00
        E 0 85 51 00
        E 0 85 4d 00
        E 0 94 3c 56
        E 0 95 39 58
        E 0 95 3c 57
        E 0 95 3c 57
        E 343 80 51 00
        E 0 85 3c 00
        E 0 85 3c 00
        E 0 85 3c 00
        E 0 86 4d 00
        E 0 96 4d 59
        E 343 84 3c 00
        E 0 85 39 00
        E 0 85 3c 00
        E 0 85 3c 00
        E 0 91 59 59
        E 0 94 51 59
        E 0 95 3c 59
        E 343 86 4d 00
        E 0 94 51 58
        E 0 97 4d 58
        E 343 81 59 00
        E 0 84 51 00
        E 0 85 3c 00
        E 0 96 3c 54
        E 0 96 3c 54
        E 0 96 3c 55
        E 0 96 3c 55
        E 0 96 3c 56
        E 0 96 3c 57
        E 343 84 51 00
        E 0 87 4d 00
        E 0 91 59 56
        E 0 91 59 56
        E 0 91 59 56
        E 343 86 3c 00
        E 0 86 3c 00
        E 0 86 3c 00
        E 0 86 3c 00
        E 0 86 3c 00
        E 0 86 3c 00
        E 343 81 59 00
        E 0 81 59 00
        E 0 81 59 00
        E 0 91 59 57
        E 343 90 3c 56
        E 343 81 59 00
        E 0 90 3c 57
        E 0 90 3c 57
        E 343 80 3c 00
        E 0 91 59 57
        E 343 80 3c 00
        E 0 80 3c 00
        E 343 81 59 00
        E 686 91 59 56
        E 343 90 59 56
        E 0 91 59 56
        E 343 81 59 00
        E 0 91 59 56
        E 0 91 59 57
        E 0 91 59 57
        E 343 80 59 00
        E 0 81 59 00
        E 0 91 3e 57
        E 0 94 51 58
        E 343 81 59 00
        E 0 81 59 00
        E 0 81 59 00
        E 0 90 59 59
        E 343 81 3e 00
        E 0 84 51 00
        E 0 97 4d 58
        E 343 80 59 00
        E 0 97 4d 58
        E 343 87 4d 00
        E 343 87 4d 00
        E 1373 91 39 57
        E 686 81 39 00
        E 343 90 4d 57
        E 343 95 39 59
        E 343 80 4d 00
        E 343 85 39 00
        E 0 94 32 56
        E 0 94 32 56
        E 0 94 32 57
        E 343 95 2d 56
        E 0 95 2d 57
        E 343 84 32 00
        E 0 84 32 00
        E 0 84 32 00
        E 0 91 59 56
        E 343 85 2d 00
        E 0 85 2d 00
        E 0 96 24 56
        E 343 81 59 00
        E 0 90 26 56
        E 343 86 24 00
        E 343 80 26 00
        E 686 91 59 57
        E 0 91 59 57
        E 343 96 34 55
        E 343 81 59 00
        E 0 81 59 00
        E 0 95 32 55
        E 0 96 32 54
        E 0 96 32 54
        E 0 96 34 53
        E 0 96 34 54
        E 0 96 34 54
        E 0 96 34 55
        E 343 86 34 00
        E 0 91 39 55
        E 0 94 30 54
        E 0 94 30 55
        E 0 94 2d 55
        E 0 94 30 56
        E 343 85 32 00
        E 0 86 32 00
        E 0 86 32 00
        E 0 86 34 00
        E 0 86 34 00
        E 0 86 34 00
        E 0 86 34 00
        E 0 91 39 57
        E 0 95 2d 56
        E 343 81 39 00
        E 0 84 30 00
        E 0 84 30 00
        E 0 84 2d 00
        E 0 84 30 00
        E 0 95 2d 57
        E 343 81 39 00
        E 0 85 2d 00
        E 343 85 2d 00
        E 1029 91 39 58
        E 686 81 39 00
        E 0 91 39 58
        E 0 96 39 57
        E 343 91 39 58
        E 343 81 39 00
        E 0 86 39 00
        E 0 96 34 57
        E 0 96 34 57
        E 0 96 34 57
        E 343 81 39 00
        E 0 91 39 57
        E 0 96 32 57
        E 343 86 34 00
        E 0 86 34 00
        E 0 86 34 00
        E 0 91 39 58
        E 343 81 39 00
        E 0 86 32 00
        E 0 91 39 58
        E 343 81 39 00
        E 0 91 59 57
        E 343 81 39 00
        E 0 91 39 57
        E 343 81 59 00
        E 0 91 39 59
        E 343 81 39 00
        E 344 81 39 00
        E 0 91 39 59
        E 0 95 51 58
        E 343 91 39 59
        E 0 91 39 59
        E 343 81 39 00
        E 0 85 51 00
        E 0 91 39 58
        E 0 91 39 58
        E 343 81 39 00
        E 0 81 39 00
        E 0 91 59 56
        E 0 91 59 56
        E 343 81 39 00
        E 0 81 39 00
        E 0 91 59 54
        E 0 91 59 54
        E 0 91 59 54
        E 0 91 59 55
        E 343 81 59 00
        E 0 81 59 00
        E 0 91 39 57
        E 343 81 59 00
        E 0 81 59 00
        E 0 81 59 00
        E 0 81 59 00
        E 0 91 39 58
        E 0 91 39 58
        E 343 81 39 00
        E 0 91 39 58
        E 343 81 39 00
        E 0 81 39 00
        E 0 91 39 58
        E 343 81 39 00
        E 0 91 39 59
        E 0 91 39 59
        E 343 81 39 00
        E 0 90 39 58
        E 0 96 34 59
        E 343 81 39 00
        E 0 81 39 00
        E 0 91 59 58
        E 343 80 39 00
        E 0 86 34 00
        E 0 91 59 58
        E 343 81 59 00
        E 0 91 39 58
        E 343 81 59 00
        E 343 81 39 00
        E 0 90 39 58
        E 686 80 39 00
        E 343 90 51 58
        E 0 91 59 56
        E 0 97 51 58
        E 343 91 59 57
        E 0 91 59 57
        E 0 91 59 57
        E 0 91 59 57
        E 343 80 51 00
        E 0 81 59 00
        E 0 87 51 00
        E 0 90 51 57
        E 0 96 51 57
        E 343 81 59 00
        E 0 81 59 00
        E 0 81 59 00
        E 0 81 59 00
        E 0 96 59 57
        E 343 80 51 00
        E 0 86 51 00
        E 343 86 59 00
        E 1029 91 59 58
        E 0 91 3b 58
        E 343 96 4d 58
        E 343 81 59 00
        E 343 86 4d 00
        E 0 91 59 57
        E 343 81 3b 00
        E 343 81 59 00
        E 343 91 3b 59
        E 0 91 59 59
        E 343 91 59 59
        E 343 81 3b 00
        E 0 81 59 00
        E 343 81 59 00
        E 0 91 3b 58
        E 343 91 3b 58
        E 344 81 3b 00
        E 343 81 3b 00
        E 343 91 59 58
        E 686 81 59 00
        E 1372 91 3b 58
        E 343 95 59 58
        E 343 81 3b 00
        E 343 85 59 00
        E 343 91 3b 58
        E 343 90 3b 58
        E 343 81 3b 00
        E 0 91 3b 58
        E 343 80 3b 00
        E 343 81 3b 00
        E 686 95 5d 56
        E 0 95 5d 56
        E 0 95 5d 56
        E 0 95 5f 56
        E 0 95 5f 56
        E 0 96 5d 56
        E 0 96 5d 56
        E 343 91 5d 55
        E 0 91 5d 56
        E 0 96 5d 56
        E 0 96 5d 56
        E 343 85 5d 00
        E 0 85 5d 00
        E 0 85 5d 00
        E 0 85 5f 00
        E 0 85 5f 00
        E 0 86 5d 00
        E 0 86 5d 00
        E 343 81 5d 00
        E 0 81 5d 00
        E 0 86 5d 00
        E 0 86 5d 00
        E 343 95 59 54
        E 0 97 5d 55
        E 0 97 5d 55
        E 0 97 5d 55
        E 343 94 45 54
        E 0 94 4a 54
        E 0 94 4a 54
        E 0 94 4a 54
        E 0 94 4a 54
        E 343 85 59 00
        E 0 87 5d 00
        E 0 87 5d 00
        E 0 87 5d 00
        E 0 91 3b 53
        E 0 94 45 53
        E 0 96 3c 53
        E 0 96 3c 53
        E 0 96 3c 53
        E 0 96 3e 53
        E 0 96 3e 53
        E 343 84 45 00
        E 0 84 4a 00
        E 0 84 4a 00
        E 0 84 4a 00
        E 0 84 4a 00
        E 0 90 41 53
        E 0 90 41 54
        E 0 94 45 54
        E 0 96 45 54
        E 0 96 45 54
        E 343 81 3b 00
        E 0 84 45 00
        E 0 86 3c 00
        E 0 86 3c 00
        E 0 86 3c 00
        E 0 86 3e 00
        E 0 86 3e 00
        E 0 96 3e 54
        E 0 96 3e 54
        E 0 96 3e 54
        E 0 96 3e 54
        E 343 80 41 00
        E 0 80 41 00
        E 0 84 45 00
        E 0 86 45 00
        E 0 86 45 00
        E 0 90 3c 55
        E 0 90 3c 55
        E 343 86 3e 00
        E 0 86 3e 00
        E 0 86 3e 00
        E 0 86 3e 00
        E 343 80 3c 00
        E 0 80 3c 00
        E 0 91 3b 58
        E 686 81 3b 00
        E 1029 91 39 56
        E 0 91 3c 57
        E 687 81 39 00
        E 0 81 3c 00
        E 343 91 39 59
        E 343 91 39 59
        E 343 81 39 00
        E 0 94 51 59
        E 343 81 39 00
        E 0 95 54 59
        E 0 95 59 59
        E 343 84 51 00
        E 0 91 39 59
        E 343 85 54 00
        E 0 85 59 00
        E 0 90 39 58
        E 343 81 39 00
        E 343 80 39 00
        E 0 91 59 57
        E 686 81 59 00
        E 0 94 51 58
        E 0 95 58 58
        E 343 91 39 59
        E 343 84 51 00
        E 0 85 58 00
        E 0 96 34 58
        E 343 81 39 00
        E 0 91 39 59
        E 0 95 58 59
        E 343 86 34 00
        E 0 96 34 59
        E 343 81 39 00
        E 0 85 58 00
        E 0 95 54 58
        E 0 95 54 58
        E 343 86 34 00
        E 0 91 39 59
        E 343 85 54 00
        E 0 85 54 00
        E 343 81 39 00
        E 343 90 39 59
        E 343 95 51 59
        E 343 80 39 00
        E 0 95 51 58
        E 343 85 51 00
        E 0 90 39 59
        E 343 85 51 00
        E 0 94 51 59
        E 0 94 51 59
        E 343 80 39 00
        E 0 95 51 58
        E 0 95 58 58
        E 343 84 51 00
        E 0 84 51 00
        E 0 90 59 58
        E 0 91 59 58
        E 0 95 51 58
        E 343 85 51 00
        E 0 85 58 00
        E 343 80 59 00
        E 0 81 59 00
        E 0 85 51 00
        E 0 96 50 57
        E 686 86 50 00
        E 0 95 51 59
        E 343 95 51 59
        E 343 85 51 00
        E 343 85 51 00
        E 1029 95 54 59
        E 687 91 59 58
        E 0 91 59 58
        E 0 91 59 58
        E 343 94 51 59
        E 0 94 54 59
        E 0 95 50 59
        E 343 85 54 00
        E 0 81 59 00
        E 0 81 59 00
        E 0 81 59 00
        E 0 91 3c 58
        E 343 84 51 00
        E 0 84 54 00
        E 0 85 50 00
        E 343 81 3c 00
        E 343 95 50 58
        E 343 94 54 58
        E 343 85 50 00
        E 0 95 58 58
        E 343 84 54 00
        E 0 91 59 57
        E 0 91 59 57
        E 343 85 58 00
        E 0 91 59 55
        E 0 91 59 56
        E 343 81 59 00
        E 0 81 59 00
        E 0 91 39 57
        E 343 81 59 00
        E 0 81 59 00
        E 0 91 39 58
        E 343 81 39 00
        E 0 94 51 59
        E 343 81 39 00
        E 0 95 54 57
        E 343 84 51 00
        E 0 90 39 58
        E 0 91 59 58
        E 0 95 58 58
        E 343 85 54 00
        E 0 91 59 57
        E 0 91 59 58
        E 0 95 54 58
        E 343 80 39 00
        E 0 81 59 00
        E 0 85 58 00
        E 343 81 59 00
        E 0 81 59 00
        E 0 85 54 00
        E 0 91 39 57
        E 686 81 39 00
        E 1715 95 51 57
        E 686 85 51 00
        E 0 95 54 58
        E 343 95 51 58
        E 0 95 54 58
        E 343 85 54 00
        E 0 95 51 58
        E 343 85 51 00
        E 0 85 54 00
        E 0 95 54 58
        E 343 85 51 00
        E 0 91 39 58
        E 0 91 39 58
        E 343 85 54 00
        E 0 90 59 57
        E 343 81 39 00
        E 0 81 39 00
        E 343 80 59 00
        E 343 91 59 55
        E 686 81 59 00
        E 0 91 39 56
        E 344 90 59 56
        E 343 81 39 00
        E 0 95 54 57
        E 343 80 59 00
        E 0 96 34 58
        E 343 85 54 00
        E 0 90 39 58
        E 0 95 50 58
        E 343 86 34 00
        E 0 90 59 58
        E 0 90 59 57
        E 0 90 59 58
        E 343 80 39 00
        E 0 85 50 00
        E 0 90 59 59
        E 0 94 51 58
        E 343 80 59 00
        E 0 80 59 00
        E 0 80 59 00
        E 0 95 51 58
        E 0 95 51 58
        E 343 80 59 00
        E 0 84 51 00
        E 0 90 59 58
        E 0 90 59 58
        E 0 96 34 58
        E 0 96 34 58
        E 343 85 51 00
        E 0 85 51 00
        E 0 91 39 59
        E 0 95 51 59
        E 0 95 54 59
        E 0 95 54 58
        E 343 80 59 00
        E 0 80 59 00
        E 0 86 34 00
        E 0 86 34 00
        E 0 90 34 57
        E 0 97 30 57
        E 0 97 30 57
        E 343 81 39 00
        E 0 85 51 00
        E 0 85 54 00
        E 0 85 54 00
        E 0 91 4d 58
        E 0 97 4d 57
        E 0 97 4d 57
        E 343 80 34 00
        E 0 87 30 00
        E 0 87 30 00
        E 0 90 39 58
        E 0 91 39 58
        E 0 96 30 58
        E 343 81 4d 00
        E 0 87 4d 00
        E 0 87 4d 00
        E 0 94 51 58
        E 0 95 54 59
        E 343 80 39 00
        E 0 81 39 00
        E 0 86 30 00
        E 343 84 51 00
        E 0 85 54 00
        E 1029 91 4d 58
        E 0 91 4d 58
        E 0 96 4d 57
        E 0 96 50 57
        E 343 94 51 58
        E 0 94 51 58
        E 0 95 54 58
        E 0 97 4d 58
        E 343 81 4d 00
        E 0 81 4d 00
        E 0 86 4d 00
        E 0 86 50 00
        E 0 94 51 58
        E 343 84 51 00
        E 0 84 51 00
        E 0 85 54 00
        E 0 87 4d 00
        E 343 84 51 00
        E 0 94 51 58
        E 0 95 54 58
        E 686 84 51 00
        E 0 85 54 00
        E 0 94 51 58
        E 0 96 39 58
        E 343 94 54 58
        E 0 95 54 58
        E 343 84 51 00
        E 0 86 39 00
        E 0 94 51 58
        E 0 95 51 58
        E 343 84 54 00
        E 0 85 54 00
        E 0 90 59 57
        E 0 94 51 58
        E 0 97 34 57
        E 343 84 51 00
        E 0 85 51 00
        E 0 94 51 58
        E 343 80 59 00
        E 0 84 51 00
        E 0 87 34 00
        E 0 90 59 58
        E 0 96 59 57
        E 343 84 51 00
        E 343 80 59 00
        E 0 86 59 00
        E 0 94 51 58
        E 343 95 51 58
        E 343 84 51 00
        E 0 94 51 58
        E 343 85 51 00
        E 0 95 51 58
        E 0 95 51 58
        E 343 84 51 00
        E 0 94 51 58
        E 0 94 51 58
        E 0 94 51 57
        E 0 95 51 58
        E 343 85 51 00
        E 0 85 51 00
        E 0 95 2d 56
        E 0 96 2d 56
        E 0 96 2d 56
        E 0 96 2d 56
        E 0 96 2d 57
        E 0 96 30 57
        E 344 84 51 00
        E 0 84 51 00
        E 0 85 51 00
        E 0 95 50 57
        E 0 96 2d 57
        E 0 97 2d 57
        E 343 85 2d 00
        E 0 86 2d 00
        E 0 86 2d 00
        E 0 86 2d 00
        E 0 86 2d 00
        E 0 86 30 00
        E 0 95 51 57
        E 0 95 34 57
        E 343 84 51 00
        E 0 85 50 00
        E 0 86 2d 00
        E 0 87 2d 00
        E 0 90 30 57
        E 0 90 30 57
        E 0 95 51 57
        E 0 96 34 57
        E 0 97 2d 57
        E 343 85 51 00
        E 0 85 34 00
        E 0 97 2d 55
        E 0 97 2d 57
        E 0 97 2d 57
        E 343 80 30 00
        E 0 80 30 00
        E 0 85 51 00
        E 0 86 34 00
        E 0 87 2d 00
        E 0 94 51 57
        E 0 95 51 57
        E 0 96 59 57
        E 343 87 2d 00
        E 0 87 2d 00
        E 0 87 2d 00
        E 0 90 2d 57
        E 0 90 2d 57
        E 0 91 2c 55
        E 0 91 2c 56
        E 0 91 2d 56
        E 0 91 2d 57
        E 0 95 50 57
        E 343 84 51 00
        E 0 85 51 00
        E 0 86 59 00
        E 0 90 2d 57
        E 0 90 30 57
        E 0 90 30 57
        E 0 90 30 57
        E 343 80 2d 00
        E 0 80 2d 00
        E 0 81 2c 00
        E 0 81 2c 00
        E 0 81 2d 00
        E 0 81 2d 00
        E 0 85 50 00
        E 0 95 51 57
        E 0 97 34 56
        E 0 97 34 57
        E 343 80 2d 00
        E 0 80 30 00
        E 0 80 30 00
        E 0 80 30 00
        E 0 90 2d 57
        E 0 95 51 57
        E 343 85 51 00
        E 0 87 34 00
        E 0 87 34 00
        E 0 90 2d 57
        E 0 95 51 57
        E 343 80 2d 00
        E 0 85 51 00
        E 0 90 2d 56
        E 0 94 51 57
        E 0 95 51 57
        E 343 80 2d 00
        E 0 85 51 00
        E 0 90 2d 56
        E 0 90 2d 57
        E 0 90 2d 56
        E 343 84 51 00
        E 0 85 51 00
        E 0 90 2d 56
        E 0 90 2d 57
        E 0 90 2d 57
        E 343 80 2d 00
        E 0 80 2d 00
        E 0 80 2d 00
        E 0 90 2d 57
        E 0 95 51 57
        E 343 80 2d 00
        E 0 80 2d 00
        E 0 80 2d 00
        E 0 95 50 57
        E 343 80 2d 00
        E 0 85 51 00
        E 0 90 2d 57
        E 0 95 51 57
        E 0 95 50 57
        E 343 80 2d 00
        E 0 85 50 00
        E 343 80 2d 00
        E 0 85 51 00
        E 0 85 50 00
        E 0 95 51 57
        E 343 95 51 58
        E 0 95 51 58
        E 343 85 51 00
        E 0 90 2d 58
        E 0 95 51 58
        E 0 95 51 58
        E 0 95 54 58
        E 343 85 51 00
        E 0 85 51 00
        E 0 95 51 58
        E 343 85 51 00
        E 0 85 51 00
        E 0 85 54 00
        E 0 96 50 58
        E 0 96 50 58
        E 343 85 51 00
        E 0 95 51 58
        E 0 95 51 58
        E 343 80 2d 00
        E 0 86 50 00
        E 0 86 50 00
        E 0 95 51 58
        E 343 85 51 00
        E 0 85 51 00
        E 0 95 51 58
        E 343 85 51 00
        E 343 85 51 00
        E 0 95 51 58
        E 0 95 54 58
        E 343 95 51 58
        E 343 85 51 00
        E 0 85 54 00
        E 0 95 51 58
        E 0 95 54 58
        E 343 85 51 00
        E 0 95 54 58
        E 0 95 54 58
        E 343 85 51 00
        E 0 85 54 00
        E 0 95 54 59
        E 0 95 54 59
        E 343 85 54 00
        E 0 85 54 00
        E 0 95 51 58
        E 343 85 54 00
        E 343 85 51 00
        E 0 95 51 58
        E 0 95 51 58
        E 0 96 50 58
        E 343 85 54 00
        E 0 91 39 59
        E 0 95 54 59
        E 343 85 51 00
        E 0 85 51 00
        E 0 86 50 00
        E 0 95 54 58
        E 343 81 39 00
        E 0 85 54 00
        E 0 95 51 58
        E 0 95 51 59
        E 0 95 54 58
        E 0 95 54 59
        E 344 85 54 00
        E 0 94 54 58
        E 0 95 54 58
        E 0 95 54 59
        E 343 85 51 00
        E 0 85 51 00
        E 0 85 54 00
        E 0 85 54 00
        E 0 95 51 59
        E 0 95 51 59
        E 0 95 54 58
        E 0 95 54 59
        E 0 95 54 59
        E 343 84 54 00
        E 0 85 54 00
        E 0 91 39 59
        E 343 85 51 00
        E 0 85 51 00
        E 0 85 54 00
        E 0 85 54 00
        E 0 85 54 00
        E 0 95 54 59
        E 343 85 54 00
        E 0 81 39 00
        E 0 95 54 58
        E 0 96 50 58
        E 0 96 50 59
        E 343 85 54 00
        E 0 95 51 59
        E 0 95 51 59
        E 0 95 54 59
        E 0 95 54 59
        E 343 85 54 00
        E 0 86 50 00
        E 0 86 50 00
        E 0 95 54 58
        E 343 85 51 00
        E 0 85 54 00
        E 0 85 54 00
        E 0 91 39 59
        E 343 85 54 00
        E 343 85 51 00
        E 0 81 39 00
        E 0 95 54 59
        E 343 95 54 58
        E 0 96 50 59
        E 343 85 54 00
        E 0 94 51 59
        E 343 85 54 00
        E 0 86 50 00
        E 0 94 51 59
        E 0 95 54 58
        E 343 84 51 00
        E 0 95 50 59
        E 343 84 51 00
        E 0 85 54 00
        E 0 90 39 59
        E 0 95 54 59
        E 343 85 50 00
        E 0 95 54 58
        E 343 80 39 00
        E 0 85 54 00
        E 343 85 54 00
        E 343 95 54 58
        E 0 95 51 59
        E 343 94 51 58
        E 343 85 54 00
        E 0 85 51 00
        E 0 94 54 58
        E 343 84 51 00
        E 343 84 54 00
        E 0 94 51 59
        E 343 94 51 58
        E 0 94 54 59
        E 0 95 54 59
        E 343 84 51 00
        E 0 91 39 59
        E 0 95 51 59
        E 0 95 54 59
        E 0 95 51 59
        E 0 96 58 59
        E 343 84 51 00
        E 0 84 54 00
        E 0 85 54 00
        E 0 91 39 59
        E 0 94 51 58
        E 0 95 51 58
        E 0 95 51 59
        E 343 81 39 00
        E 0 85 51 00
        E 0 86 58 00
        E 343 81 39 00
        E 0 84 51 00
        E 0 85 51 00
        E 0 85 51 00
        E 0 95 50 58
        E 343 85 54 00
        E 0 85 51 00
        E 0 94 54 58
        E 0 95 51 59
        E 0 95 51 59
        E 0 95 54 58
        E 0 95 50 59
        E 343 85 50 00
        E 0 94 48 56
        E 0 94 4c 56
        E 0 94 4c 56
        E 0 94 4c 56
        E 0 94 4c 56
        E 0 94 4c 56
        E 0 94 4c 56
        E 0 94 4c 56
        E 0 94 4c 56
        E 0 94 4c 56
        E 0 94 4c 56
        E 0 94 4c 56
        E 0 94 4c 56
        E 0 94 4d 56
        E 0 94 4c 56
        E 0 94 4c 56
        E 343 84 54 00
        E 0 85 51 00
        E 0 85 51 00
        E 0 85 54 00
        E 0 85 50 00
        E 0 94 48 55
        E 0 94 4c 55
        E 0 94 4c 55
        E 0 94 4c 55
        E 0 94 4c 55
        E 0 94 4c 55
        E 0 94 4c 55
        E 0 95 4c 55
        E 0 95 4d 55
        E 0 95 4d 55
        E 0 95 4d 55
        E 0 95 4d 55
        E 0 95 4d 55
        E 0 97 4d 55
        E 0 97 4d 55
        E 0 97 4d 55
        E 0 97 4d 55
        E 0 97 50 55
        E 343 84 48 00
        E 0 84 4c 00
        E 0 84 4c 00
        E 0 84 4c 00
        E 0 84 4c 00
        E 0 84 4c 00
        E 0 84 4c 00
        E 0 84 4c 00
        E 0 84 4c 00
        E 0 84 4c 00
        E 0 84 4c 00
        E 0 84 4c 00
        E 0 84 4c 00
        E 0 84 4d 00
        E 0 84 4c 00
        E 0 84 4c 00
        E 0 94 45 52
        E 0 94 45 52
        E 0 94 45 53
        E 0 94 45 53
        E 0 94 45 53
        E 0 94 45 53
        E 0 95 45 53
        E 0 95 45 53
        E 0 95 45 53
        E 0 95 45 53
        E 0 95 45 53
        E 0 95 45 53
        E 0 95 45 53
        E 0 95 45 53
        E 0 95 45 53
        E 0 95 45 53
        E 0 95 45 53
        E 0 95 45 53
        E 343 84 48 00
        E 0 84 4c 00
        E 0 84 4c 00
        E 0 84 4c 00
        E 0 84 4c 00
        E 0 84 4c 00
        E 0 84 4c 00
        E 0 85 4c 00
        E 0 85 4d 00
        E 0 85 4d 00
        E 0 85 4d 00
        E 0 85 4d 00
        E 0 85 4d 00
        E 0 87 4d 00
        E 0 87 4d 00
        E 0 87 4d 00
        E 0 87 4d 00
        E 0 87 50 00
        E 0 94 40 53
        E 0 94 40 53
        E 0 94 40 53
        E 0 94 40 53
        E 0 94 40 52
        E 0 94 40 52
        E 0 94 40 53
        E 0 94 40 53
        E 0 94 40 53
        E 0 94 40 53
        E 343 84 45 00
        E 0 84 45 00
        E 0 84 45 00
        E 0 84 45 00
        E 0 84 45 00
        E 0 84 45 00
        E 0 85 45 00
        E 0 85 45 00
        E 0 85 45 00
        E 0 85 45 00
        E 0 85 45 00
        E 0 85 45 00
        E 0 85 45 00
        E 0 85 45 00
        E 0 85 45 00
        E 0 85 45 00
        E 0 85 45 00
        E 0 85 45 00
        E 0 91 39 53
        E 0 91 39 53
        E 0 91 3c 53
        E 0 91 3c 53
        E 0 96 40 53
        E 0 96 40 53
        E 343 84 40 00
        E 0 84 40 00
        E 0 84 40 00
        E 0 84 40 00
        E 0 84 40 00
        E 0 84 40 00
        E 0 84 40 00
        E 0 84 40 00
        E 0 84 40 00
        E 0 84 40 00
        E 0 96 41 54
        E 0 96 41 54
        E 0 96 41 54
        E 0 97 41 54
        E 0 97 41 54
        E 0 97 41 54
        E 0 97 41 54
        E 0 97 41 54
        E 0 97 41 54
        E 343 81 39 00
        E 0 81 39 00
        E 0 81 3c 00
        E 0 81 3c 00
        E 0 86 40 00
        E 0 86 40 00
        E 0 95 34 54
        E 0 97 40 54
        E 0 97 40 53
        E 0 97 40 54
        E 0 97 40 54
        E 0 97 40 53
        E 0 97 40 53
        E 0 97 40 53
        E 0 97 40 54
        E 0 97 40 54
        E 343 86 41 00
        E 0 86 41 00
        E 0 86 41 00
        E 0 87 41 00
        E 0 87 41 00
        E 0 87 41 00
        E 0 87 41 00
        E 0 87 41 00
        E 0 87 41 00
        E 0 90 3c 54
        E 0 90 3c 55
        E 0 97 40 54
        E 0 97 40 54
        E 0 97 40 54
        E 0 97 40 54
        E 0 97 40 54
        E 0 97 40 54
        E 0 97 40 55
        E 344 85 34 00
        E 0 87 40 00
        E 0 87 40 00
        E 0 87 40 00
        E 0 87 40 00
        E 0 87 40 00
        E 0 87 40 00
        E 0 87 40 00
        E 0 87 40 00
        E 0 87 40 00
        E 0 94 29 54
        E 0 94 29 54
        E 0 95 29 54
        E 0 95 29 54
        E 343 80 3c 00
        E 0 80 3c 00
        E 0 87 40 00
        E 0 87 40 00
        E 0 87 40 00
        E 0 87 40 00
        E 0 87 40 00
        E 0 87 40 00
        E 0 87 40 00
        E 0 94 24 55
        E 0 94 24 55
        E 0 95 28 54
        E 0 95 28 55
        E 0 95 28 54
        E 0 95 28 55
        E 0 95 29 54
        E 0 95 29 55
        E 0 95 29 54
        E 0 95 29 54
        E 343 84 29 00
        E 0 84 29 00
        E 0 85 29 00
        E 0 85 29 00
        E 0 95 24 54
        E 0 95 24 54
        E 0 95 24 54
        E 0 95 24 54
        E 0 95 24 54
        E 0 95 24 54
        E 0 96 24 54
        E 0 96 24 54
        E 0 96 24 54
        E 0 96 28 54
        E 0 96 24 54
        E 343 84 24 00
        E 0 84 24 00
        E 0 85 28 00
        E 0 85 28 00
        E 0 85 28 00
        E 0 85 28 00
        E 0 85 29 00
        E 0 85 29 00
        E 0 85 29 00
        E 0 85 29 00
        E 0 95 24 53
        E 0 95 24 53
        E 0 96 24 53
        E 0 96 24 53
        E 0 96 24 53
        E 0 96 24 53
        E 0 96 28 53
        E 0 96 24 53
        E 0 96 24 53
        E 343 85 24 00
        E 0 85 24 00
        E 0 85 24 00
        E 0 85 24 00
        E 0 85 24 00
        E 0 85 24 00
        E 0 86 24 00
        E 0 86 24 00
        E 0 86 24 00
        E 0 86 28 00
        E 0 86 24 00
        E 0 96 24 54
        E 0 96 24 54
        E 0 96 24 53
        E 0 96 24 53
        E 0 96 24 53
        E 0 96 24 53
        E 0 96 24 53
        E 0 96 24 53
        E 0 96 24 53
        E 0 96 24 53
        E 0 96 24 53
        E 0 96 24 53
        E 0 96 24 53
        E 0 96 30 53
        E 0 96 30 53
        E 0 96 30 53
        E 0 96 30 53
        E 343 85 24 00
        E 0 85 24 00
        E 0 86 24 00
        E 0 86 24 00
        E 0 86 24 00
        E 0 86 24 00
        E 0 86 28 00
        E 0 86 24 00
        E 0 86 24 00
        E 0 95 24 58
        E 0 96 24 56
        E 0 96 24 57
        E 0 96 24 57
        E 0 96 24 57
        E 0 96 24 58
        E 0 96 30 57
        E 0 96 30 57
        E 0 96 30 58
        E 0 97 30 57
        E 0 97 30 57
        E 0 97 30 58
        E 0 97 30 58
        E 0 97 34 58
        E 343 86 24 00
        E 0 86 24 00
        E 0 86 24 00
        E 0 86 24 00
        E 0 86 24 00
        E 0 86 24 00
        E 0 86 24 00
        E 0 86 24 00
        E 0 86 24 00
        E 0 86 24 00
        E 0 86 24 00
        E 0 86 24 00
        E 0 86 24 00
        E 0 86 30 00
        E 0 86 30 00
        E 0 86 30 00
        E 0 86 30 00
        E 0 95 51 59
        E 0 95 58 58
        E 0 95 58 58
        E 0 95 50 58
        E 0 95 59 58
        E 0 96 50 58
        E 343 85 24 00
        E 0 86 24 00
        E 0 86 24 00
        E 0 86 24 00
        E 0 86 24 00
        E 0 86 24 00
        E 0 86 30 00
        E 0 86 30 00
        E 0 86 30 00
        E 0 87 30 00
        E 0 87 30 00
        E 0 87 30 00
        E 0 87 30 00
        E 0 87 34 00
        E 0 90 48 59
        E 0 95 58 58
        E 343 85 51 00
        E 0 85 58 00
        E 0 85 50 00
        E 0 85 59 00
        E 0 86 50 00
        E 0 95 54 59
        E 343 80 48 00
        E 0 85 58 00
        E 0 91 39 59
        E 0 95 51 59
        E 343 85 58 00
        E 0 85 54 00
        E 0 95 54 59
        E 0 97 4d 58
        E 0 97 4d 59
        E 343 81 39 00
        E 0 85 51 00
        E 0 91 39 58
        E 0 95 54 58
        E 343 85 54 00
        E 0 87 4d 00
        E 0 87 4d 00
        E 0 91 3c 57
        E 0 91 3c 57
        E 0 91 3c 58
        E 0 91 3c 58
        E 0 95 51 58
        E 343 81 39 00
        E 0 85 54 00
        E 0 95 54 58
        E 0 95 54 58
        E 0 95 54 59
        E 0 96 50 59
        E 343 81 3c 00
        E 0 81 3c 00
        E 0 81 3c 00
        E 0 81 3c 00
        E 0 85 51 00
        E 0 90 34 58
        E 0 91 39 58
        E 0 95 51 58
        E 0 95 51 59
        E 0 95 50 59
        E 0 95 59 59
        E 343 85 54 00
        E 0 85 54 00
        E 0 85 54 00
        E 0 86 50 00
        E 0 90 34 59
        E 0 94 54 58
        E 0 94 54 59
        E 0 95 51 59
        E 0 95 54 59
        E 0 96 50 59
        E 343 80 34 00
        E 0 81 39 00
        E 0 85 51 00
        E 0 85 51 00
        E 0 85 50 00
        E 0 85 59 00
        E 0 94 51 59
        E 0 95 51 59
        E 0 95 54 59
        E 343 80 34 00
        E 0 84 54 00
        E 0 84 54 00
        E 0 85 54 00
        E 0 86 50 00
        E 0 95 51 59
        E 343 84 51 00
        E 0 85 51 00
        E 0 85 54 00
        E 0 95 51 59
        E 0 95 51 59
        E 0 95 54 59
        E 343 85 51 00
        E 0 85 51 00
        E 0 95 54 59
        E 0 96 50 59
        E 0 97 50 58
        E 343 85 51 00
        E 0 85 51 00
        E 0 85 54 00
        E 343 85 54 00
        E 0 86 50 00
        E 0 87 50 00
        E 0 95 54 59
        E 0 95 51 59
        E 343 95 50 59
        E 0 95 50 59
        E 343 85 51 00
        E 343 85 50 00
        E 0 85 50 00
        E 343 85 54 00
        E 343 90 40 59
        E 343 95 54 59
        E 343 80 40 00
        E 0 95 58 59
        E 343 85 54 00
        E 0 95 54 59
        E 343 85 58 00
        E 0 95 54 59
        E 0 95 50 59
        E 343 85 54 00
        E 0 94 58 58
        E 0 95 54 59
        E 343 85 54 00
        E 0 85 50 00
        E 0 94 50 59
        E 0 95 51 59
        E 0 95 54 59
        E 0 95 58 58
        E 343 84 58 00
        E 0 85 54 00
        E 0 95 54 59
        E 343 84 50 00
        E 0 85 51 00
        E 0 85 54 00
        E 0 85 58 00
        E 0 95 50 58
        E 343 85 54 00
        E 0 90 41 58
        E 0 90 41 58
        E 344 85 50 00
        E 0 91 39 58
        E 343 80 41 00
        E 0 80 41 00
        E 0 90 40 57
        E 0 90 41 57
        E 343 81 39 00
        E 343 80 40 00
        E 0 80 41 00
        E 686 95 54 59
        E 343 95 51 59
        E 343 85 54 00
        E 0 90 2d 59
        E 0 94 54 59
        E 343 85 51 00
        E 0 95 54 59
        E 343 80 2d 00
        E 0 84 54 00
        E 0 95 51 58
        E 343 90 34 58
        E 343 85 51 00
        E 0 91 3c 58
        E 0 91 3c 58
        E 0 91 3c 58
        E 343 85 54 00
        E 0 80 34 00
        E 0 95 54 58
        E 343 81 3c 00
        E 0 81 3c 00
        E 0 81 3c 00
        E 343 85 54 00
        E 0 95 54 59
        E 343 95 58 59
        E 0 95 54 59
        E 343 85 54 00
        E 0 91 39 59
        E 343 85 58 00
        E 0 85 54 00
        E 0 95 51 58
        E 343 81 39 00
        E 0 95 58 59
        E 0 95 54 59
        E 0 96 50 59
        E 343 85 51 00
        E 0 95 54 58
        E 0 96 2d 59
        E 343 85 58 00
        E 0 85 54 00
        E 0 86 50 00
        E 343 85 54 00
        E 0 86 2d 00
        E 0 96 59 59
        E 343 95 51 59
        E 343 86 59 00
        E 0 95 51 59
        E 343 85 51 00
        E 0 94 51 58
        E 343 85 51 00
        E 0 94 54 59
        E 0 95 58 58
        E 0 95 51 59
        E 343 84 51 00
        E 0 90 5c 58
        E 0 90 5c 58
        E 0 94 56 58
        E 343 84 54 00
        E 0 85 58 00
        E 0 85 51 00
        E 0 95 59 58
        E 0 96 59 58
        E 343 80 5c 00
        E 0 80 5c 00
        E 0 84 56 00
        E 0 95 50 58
        E 0 96 59 57
        E 343 85 59 00
        E 0 90 59 57
        E 0 90 59 57
        E 0 90 59 57
        E 0 91 5c 57
        E 343 85 50 00
        E 0 86 59 00
        E 0 96 59 58
        E 343 86 59 00
        E 0 80 59 00
        E 0 80 59 00
        E 0 80 59 00
        E 0 81 5c 00
        E 0 97 2c 57
        E 343 86 59 00
        E 0 90 59 56
        E 0 91 59 57
        E 0 91 59 58
        E 0 94 56 58
        E 343 87 2c 00
        E 0 91 59 58
        E 0 91 59 58
        E 0 97 5c 58
        E 343 80 59 00
        E 0 81 59 00
        E 0 81 59 00
        E 0 84 56 00
        E 0 91 3b 58
        E 0 91 3b 59
        E 0 95 59 59
        E 343 81 59 00
        E 0 81 59 00
        E 0 87 5c 00
        E 0 95 50 58
        E 0 95 50 58
        E 343 81 3b 00
        E 0 81 3b 00
        E 0 85 59 00
        E 0 95 50 58
        E 0 95 50 58
        E 344 85 50 00
        E 0 85 50 00
        E 0 96 59 57
        E 0 96 59 58
        E 343 85 50 00
        E 0 85 50 00
        E 0 91 3b 59
        E 0 95 56 58
        E 0 95 56 59
        E 343 86 59 00
        E 0 86 59 00
        E 0 94 56 59
        E 0 94 56 59
        E 0 95 50 58
        E 0 95 50 59
        E 343 81 3b 00
        E 0 85 56 00
        E 0 85 56 00
        E 0 90 5c 58
        E 0 90 5c 58
        E 0 90 5c 58
        E 0 94 56 58
        E 343 84 56 00
        E 0 84 56 00
        E 0 85 50 00
        E 0 85 50 00
        E 0 90 5c 58
        E 0 95 53 58
        E 0 95 56 58
        E 0 95 56 58
        E 0 97 5c 58
        E 343 80 5c 00
        E 0 80 5c 00
        E 0 80 5c 00
        E 0 84 56 00
        E 0 90 5c 58
        E 0 97 5c 55
        E 0 97 5c 56
        E 0 97 5c 58
        E 343 80 5c 00
        E 0 85 53 00
        E 0 85 56 00
        E 0 85 56 00
        E 0 87 5c 00
        E 0 90 59 55
        E 0 90 59 56
        E 343 80 5c 00
        E 0 87 5c 00
        E 0 87 5c 00
        E 0 87 5c 00
        E 0 90 5c 58
        E 0 90 5c 58
        E 0 90 59 56
        E 0 94 50 58
        E 0 95 50 58
        E 0 95 50 58
        E 343 80 59 00
        E 0 80 59 00
        E 343 80 5c 00
        E 0 80 5c 00
        E 0 80 59 00
        E 0 84 50 00
        E 0 85 50 00
        E 0 85 50 00
        E 0 90 5c 58
        E 0 91 3b 58
        E 0 95 56 58
        E 343 95 50 58
        E 0 95 50 58
        E 0 95 50 58
        E 0 95 50 58
        E 343 80 5c 00
        E 0 81 3b 00
        E 0 85 56 00
        E 343 85 50 00
        E 0 85 50 00
        E 0 85 50 00
        E 0 85 50 00
        E 0 91 59 56
        E 0 91 59 57
        E 343 91 59 56
        E 343 81 59 00
        E 0 81 59 00
        E 0 90 59 57
        E 343 81 59 00
        E 0 90 3b 58
        E 343 80 59 00
        E 343 80 3b 00
        E 0 90 3b 58
        E 343 95 56 58
        E 0 97 59 57
        E 0 97 59 57
        E 0 97 59 57
        E 0 97 59 58
        E 343 80 3b 00
        E 0 90 59 58
        E 0 95 50 58
        E 343 85 56 00
        E 0 87 59 00
        E 0 87 59 00
        E 0 87 59 00
        E 0 87 59 00
        E 343 80 59 00
        E 0 85 50 00
        E 343 96 59 58
        E 343 96 29 57
        E 343 86 59 00
        E 343 86 29 00
        E 0 95 58 58
        E 343 97 34 57
        E 343 85 58 00
        E 0 96 32 58
        E 343 87 34 00
        E 343 86 32 00
        E 0 97 59 56
        E 686 87 59 00
        E 343 95 58 58
        E 343 90 3b 58
        E 0 91 3b 58
        E 343 85 58 00
        E 343 80 3b 00
        E 0 81 3b 00
        E 0 95 58 58
        E 344 96 34 57
        E 0 96 34 58
        E 343 85 58 00
        E 0 95 58 58
        E 0 96 34 58
        E 343 86 34 00
        E 0 86 34 00
        E 0 92 3b 58
        E 0 96 59 57
        E 343 85 58 00
        E 0 86 34 00
        E 0 95 56 58
        E 0 96 2c 58
        E 343 82 3b 00
        E 0 86 59 00
        E 0 91 3b 58
        E 0 95 53 58
        E 343 85 56 00
        E 0 86 2c 00
        E 0 90 59 58
        E 0 90 59 57
        E 0 95 58 58
        E 343 81 3b 00
        E 0 85 53 00
        E 0 90 59 58
        E 0 91 3b 57
        E 343 80 59 00
        E 0 80 59 00
        E 0 85 58 00
        E 0 91 59 58
        E 343 80 59 00
        E 0 81 3b 00
        E 0 91 3b 58
        E 0 95 50 58
        E 343 81 59 00
        E 343 81 3b 00
        E 0 85 50 00
        E 686 90 2c 58
        E 0 95 58 58
        E 343 90 59 59
        E 0 91 3b 58
        E 343 80 2c 00
        E 0 85 58 00
        E 0 96 2c 58
        E 343 81 3b 00
        E 343 86 2c 00
        E 0 91 3b 58
        E 343 80 59 00
        E 343 81 3b 00
        E 686 91 3b 58
        E 0 91 3b 58
        E 343 91 3b 57
        E 343 81 3b 00
        E 0 81 3b 00
        E 0 95 56 58
        E 0 95 58 58
        E 343 81 3b 00
        E 0 95 56 58
        E 343 85 56 00
        E 0 85 58 00
        E 0 91 59 58
        E 0 95 56 58
        E 343 85 56 00
        E 0 90 3b 58
        E 0 91 59 58
        E 343 81 59 00
        E 0 85 56 00
        E 0 95 50 58
        E 343 81 59 00
        E 0 95 50 58
        E 343 85 50 00
        E 0 90 39 59
        E 343 80 3b 00
        E 0 85 50 00
        E 0 94 54 58
        E 0 94 54 59
        E 343 80 39 00
        E 0 94 54 58
        E 0 94 54 59
        E 0 94 54 59
        E 0 95 58 59
        E 343 84 54 00
        E 0 84 54 00
        E 0 94 54 58
        E 0 95 51 59
        E 0 95 51 59
        E 343 84 54 00
        E 0 84 54 00
        E 0 84 54 00
        E 0 85 58 00
        E 0 94 54 59
        E 343 84 54 00
        E 0 85 51 00
        E 0 95 51 59
        E 343 84 54 00
        E 0 97 51 58
        E 343 85 51 00
        E 0 85 51 00
        E 0 95 51 59
        E 0 95 51 59
        E 343 87 51 00
        E 344 85 51 00
        E 0 85 51 00
        E 0 96 39 59
        E 686 86 39 00
        E 343 94 54 59
        E 343 91 39 59
        E 0 94 54 59
        E 343 84 54 00
        E 0 91 39 58
        E 0 94 54 58
        E 0 96 34 59
        E 343 81 39 00
        E 0 84 54 00
        E 343 81 39 00
        E 0 84 54 00
        E 0 86 34 00
        E 0 96 35 59
        E 686 86 35 00
        E 0 94 54 59
        E 0 94 54 59
        E 686 84 54 00
        E 0 84 54 00
        E 0 91 39 57
        E 686 81 39 00
        E 686 95 51 59
        E 343 94 51 58
        E 343 85 51 00
        E 343 84 51 00
        E 0 95 58 58
        E 343 95 54 58
        E 343 85 58 00
        E 343 85 54 00
        E 0 90 39 59
        E 686 80 39 00
        E 0 95 54 59
        E 0 95 51 59
        E 343 90 39 59
        E 0 94 51 59
        E 0 97 35 5a
        E 343 85 54 00
        E 0 85 51 00
        E 0 91 39 59
        E 343 80 39 00
        E 0 84 51 00
        E 0 87 35 00
        E 343 81 39 00
        E 343 95 29 58
        E 686 85 29 00
        E 0 90 34 59
        E 0 91 39 59
        E 686 80 34 00
        E 0 81 39 00
        E 343 94 51 59
        E 0 94 51 59
        E 0 95 51 59
        E 343 90 39 59
        E 343 84 51 00
        E 0 84 51 00
        E 0 85 51 00
        E 0 94 51 59
        E 343 80 39 00
        E 344 84 51 00
        E 686 90 5d 55
        E 343 96 59 55
        E 0 96 59 55
        E 343 80 5d 00
        E 0 90 5d 55
        E 0 90 5d 55
        E 0 91 5d 55
        E 0 96 5d 55
        E 0 96 59 55
        E 0 96 59 55
        E 0 96 5d 55
        E 0 97 59 55
        E 343 86 59 00
        E 0 86 59 00
        E 0 94 51 56
        E 0 96 5d 56
        E 0 96 5d 56
        E 0 96 5d 56
        E 0 96 5d 56
        E 0 96 5d 56
        E 0 96 5d 56
        E 0 96 5d 56
        E 343 80 5d 00
        E 0 80 5d 00
        E 0 81 5d 00
        E 0 86 5d 00
        E 0 86 59 00
        E 0 86 59 00
        E 0 86 5d 00
        E 0 87 59 00
        E 0 90 45 55
        E 0 90 45 55
        E 0 90 45 55
        E 0 90 45 55
        E 0 90 45 55
        E 0 90 45 55
        E 0 90 45 55
        E 0 90 45 55
        E 0 90 45 55
        E 0 90 45 55
        E 0 95 45 55
        E 0 95 45 55
        E 0 95 45 55
        E 343 84 51 00
        E 0 86 5d 00
        E 0 86 5d 00
        E 0 86 5d 00
        E 0 86 5d 00
        E 0 86 5d 00
        E 0 86 5d 00
        E 0 86 5d 00
        E 0 94 41 54
        E 0 94 41 54
        E 0 95 41 54
        E 0 95 41 54
        E 0 95 41 55
        E 0 95 41 55
        E 0 95 41 55
        E 0 95 41 55
        E 0 95 41 55
        E 0 95 41 55
        E 0 95 41 55
        E 0 95 41 55
        E 0 95 41 54
        E 0 95 41 54
        E 0 95 41 55
        E 0 96 45 54
        E 343 80 45 00
        E 0 80 45 00
        E 0 80 45 00
        E 0 80 45 00
        E 0 80 45 00
        E 0 80 45 00
        E 0 80 45 00
        E 0 80 45 00
        E 0 80 45 00
        E 0 80 45 00
        E 0 85 45 00
        E 0 85 45 00
        E 0 85 45 00
        E 0 95 41 52
        E 0 95 41 52
        E 0 95 41 52
        E 0 95 41 52
        E 0 95 41 53
        E 0 95 41 53
        E 0 95 41 53
        E 0 95 41 53
        E 0 96 41 53
        E 0 96 41 53
        E 0 96 41 53
        E 0 96 41 53
        E 0 96 41 53
        E 0 96 41 53
        E 0 96 41 53
        E 343 84 41 00
        E 0 84 41 00
        E 0 85 41 00
        E 0 85 41 00
        E 0 85 41 00
        E 0 85 41 00
        E 0 85 41 00
        E 0 85 41 00
        E 0 85 41 00
        E 0 85 41 00
        E 0 85 41 00
        E 0 85 41 00
        E 0 85 41 00
        E 0 85 41 00
        E 0 85 41 00
        E 0 86 45 00
        E 0 90 39 53
        E 0 95 3e 53
        E 0 95 3e 53
        E 0 96 3e 53
        E 0 96 3e 53
        E 0 96 3e 53
        E 343 85 41 00
        E 0 85 41 00
        E 0 85 41 00
        E 0 85 41 00
        E 0 85 41 00
        E 0 85 41 00
        E 0 85 41 00
        E 0 85 41 00
        E 0 86 41 00
        E 0 86 41 00
        E 0 86 41 00
        E 0 86 41 00
        E 0 86 41 00
        E 0 86 41 00
        E 0 86 41 00
        E 0 96 3e 52
        E 0 96 3e 52
        E 0 96 3e 52
        E 0 96 3e 52
        E 0 96 3e 52
        E 0 96 3e 52
        E 343 80 39 00
        E 0 85 3e 00
        E 0 85 3e 00
        E 0 86 3e 00
        E 0 86 3e 00
        E 0 86 3e 00
        E 0 91 39 53
        E 0 91 3c 53
        E 0 91 3c 55
        E 0 91 3c 55
        E 0 91 39 52
        E 0 96 3c 54
        E 0 96 3c 54
        E 343 86 3e 00
        E 0 86 3e 00
        E 0 86 3e 00
        E 0 86 3e 00
        E 0 86 3e 00
        E 0 86 3e 00
        E 0 97 4d 58
        E 343 81 39 00
        E 0 81 3c 00
        E 0 81 3c 00
        E 0 81 3c 00
        E 0 81 39 00
        E 0 86 3c 00
        E 0 86 3c 00
        E 0 91 39 58
        E 0 95 59 57
        E 343 87 4d 00
        E 0 96 32 57
        E 343 81 39 00
        E 0 85 59 00
        E 0 96 30 56
        E 0 96 30 57
        E 0 96 30 57
        E 0 96 30 57
        E 343 86 32 00
        E 0 90 39 58
        E 0 90 4d 58
        E 0 91 39 58
        E 0 94 51 57
        E 0 95 29 58
        E 343 86 30 00
        E 0 86 30 00
        E 0 86 30 00
        E 0 86 30 00
        E 0 95 28 57
        E 0 95 28 57
        E 0 95 28 57
        E 0 95 28 57
        E 0 95 28 57
        E 0 95 29 58
        E 0 95 29 57
        E 343 80 39 00
        E 0 80 4d 00
        E 0 81 39 00
        E 0 84 51 00
        E 0 85 29 00
        E 0 97 4d 57
        E 0 97 4d 57
        E 343 85 28 00
        E 0 85 28 00
        E 0 85 28 00
        E 0 85 28 00
        E 0 85 28 00
        E 0 85 29 00
        E 0 85 29 00
        E 0 96 26 58
        E 343 87 4d 00
        E 0 87 4d 00
        E 0 96 39 58
        E 343 86 26 00
        E 0 90 59 58
        E 0 91 39 57
        E 343 86 39 00
        E 0 95 51 58
        E 343 80 59 00
        E 0 81 39 00
        E 343 85 51 00
        E 343 95 51 58
        E 343 95 51 58
        E 343 85 51 00
        E 343 85 51 00
        E 343 95 53 58
        E 343 96 58 57
        E 343 85 53 00
        E 343 86 58 00
        E 0 90 3b 58
        E 0 90 3b 58
        E 0 95 51 58
        E 686 80 3b 00
        E 0 80 3b 00
        E 0 85 51 00
        E 0 94 53 57
        E 0 95 53 57
        E 343 95 51 58
        E 0 95 51 58
        E 344 84 53 00
        E 0 85 53 00
        E 0 90 3b 58
        E 0 90 3b 58
        E 0 90 3b 58
        E 0 95 53 58
        E 343 85 51 00
        E 0 85 51 00
        E 0 95 53 58
        E 343 80 3b 00
        E 0 80 3b 00
        E 0 80 3b 00
        E 0 85 53 00
        E 0 96 3b 58
        E 343 85 53 00
        E 0 95 53 58
        E 0 95 53 58
        E 0 95 53 59
        E 343 90 50 58
        E 0 96 3b 57
        E 343 85 53 00
        E 0 85 53 00
        E 0 85 53 00
        E 0 90 3b 58
        E 0 90 3b 59
        E 343 86 3b 00
        E 0 80 50 00
        E 0 86 3b 00
        E 0 95 53 58
        E 0 95 53 58
        E 343 80 3b 00
        E 0 80 3b 00
        E 0 95 54 57
        E 343 85 53 00
        E 0 85 53 00
        E 0 91 58 57
        E 0 95 53 57
        E 343 85 54 00
        E 0 95 54 57
        E 0 96 53 58
        E 343 81 58 00
        E 0 85 53 00
        E 0 95 53 57
        E 0 95 53 58
        E 343 85 54 00
        E 0 86 53 00
        E 343 85 53 00
        E 0 85 53 00
        E 0 91 58 57
        E 0 91 58 57
        E 0 91 58 57
        E 0 91 58 57
        E 343 95 53 57
        E 0 96 53 57
        E 343 81 58 00
        E 0 81 58 00
        E 0 81 58 00
        E 0 81 58 00
        E 0 96 53 57
        E 343 85 53 00
        E 0 86 53 00
        E 0 97 53 56
        E 0 97 53 57
        E 343 86 53 00
        E 0 97 53 57
        E 343 87 53 00
        E 0 87 53 00
        E 0 96 53 58
        E 0 96 53 58
        E 343 87 53 00
        E 0 90 58 58
        E 0 91 3b 58
        E 343 86 53 00
        E 0 86 53 00
        E 0 94 51 58
        E 0 96 53 58
        E 343 80 58 00
        E 0 81 3b 00
        E 0 96 53 58
        E 343 84 51 00
        E 0 86 53 00
        E 0 90 3b 58
        E 0 91 3b 58
        E 0 96 53 58
        E 343 86 53 00
        E 0 96 53 57
        E 0 97 53 57
        E 0 97 53 57
        E 343 80 3b 00
        E 0 81 3b 00
        E 0 86 53 00
        E 0 95 51 58
        E 343 86 53 00
        E 0 87 53 00
        E 0 87 53 00
        E 343 85 51 00
        E 0 96 53 57
        E 0 96 53 58
        E 343 94 51 58
        E 0 94 2c 57
        E 0 96 51 58
        E 0 96 51 58
        E 0 96 51 58
        E 343 86 53 00
        E 0 86 53 00
        E 0 91 58 58
        E 0 94 51 58
        E 0 94 2c 56
        E 0 96 51 58
        E 0 96 51 58
        E 0 97 58 57
        E 343 84 51 00
        E 0 84 2c 00
        E 0 86 51 00
        E 0 86 51 00
        E 0 86 51 00
        E 0 90 58 57
        E 0 91 58 57
        E 0 96 3b 57
        E 343 81 58 00
        E 0 84 51 00
        E 0 84 2c 00
        E 0 86 51 00
        E 0 86 51 00
        E 0 87 58 00
        E 0 90 58 57
        E 0 90 58 57
        E 343 80 58 00
        E 0 81 58 00
        E 0 86 3b 00
        E 0 94 51 57
        E 343 80 58 00
        E 0 80 58 00
        E 0 94 51 58
        E 0 95 51 58
        E 0 96 3b 58
        E 343 84 51 00
        E 0 94 51 58
        E 0 95 51 58
        E 0 96 3b 58
        E 343 84 51 00
        E 0 85 51 00
        E 0 86 3b 00
        E 0 94 51 58
        E 0 95 51 58
        E 0 95 2c 58
        E 343 84 51 00
        E 0 85 51 00
        E 0 86 3b 00
        E 0 94 51 58
        E 0 95 53 57
        E 0 95 2c 57
        E 0 95 2c 58
        E 343 84 51 00
        E 0 85 51 00
        E 0 85 2c 00
        E 0 90 3b 57
        E 0 96 51 57
        E 343 84 51 00
        E 0 85 53 00
        E 0 85 2c 00
        E 0 85 2c 00
        E 0 95 51 57
        E 344 80 3b 00
        E 0 86 51 00
        E 0 91 3b 58
        E 0 95 51 58
        E 343 85 51 00
        E 0 94 50 58
        E 0 95 51 57
        E 343 85 51 00
        E 0 94 50 58
        E 343 84 50 00
        E 0 85 51 00
        E 0 95 53 57
        E 343 81 3b 00
        E 0 84 50 00
        E 343 85 53 00
        E 0 96 3b 58
        E 343 94 50 58
        E 343 86 3b 00
        E 0 94 50 58
        E 343 84 50 00
        E 343 84 50 00
        E 0 94 50 58
        E 343 96 3b 58
        E 0 97 3b 58
        E 343 84 50 00
        E 0 95 53 58
        E 0 96 3b 58
        E 343 86 3b 00
        E 0 87 3b 00
        E 0 95 53 58
        E 343 85 53 00
        E 0 86 3b 00
        E 0 95 53 58
        E 0 95 50 58
        E 0 95 50 58
        E 343 85 53 00
        E 343 85 53 00
        E 0 85 50 00
        E 0 85 50 00
        E 1372 96 3b 59
        E 343 97 3b 58
        E 343 86 3b 00
        E 343 87 3b 00
        E 0 95 53 59
        E 343 96 50 59
        E 343 85 53 00
        E 0 90 3b 59
        E 343 86 50 00
        E 0 91 58 58
        E 343 80 3b 00
        E 0 96 58 57
        E 343 81 58 00
        E 343 86 58 00
        E 1715 90 4d 58
        E 343 90 59 57
        E 343 80 4d 00
        E 0 91 59 56
        E 343 80 59 00
        E 344 81 59 00
        E 343 95 59 59
        E 343 96 50 59
        E 343 85 59 00
        E 0 90 3b 58
        E 343 86 50 00
        E 0 95 32 57
        E 0 95 32 57
        E 0 96 32 57
        E 0 96 32 57
        E 0 96 32 57
        E 0 96 32 57
        E 343 80 3b 00
        E 0 94 4d 56
        E 0 95 4d 56
        E 0 95 4d 57
        E 343 85 32 00
        E 0 85 32 00
        E 0 86 32 00
        E 0 86 32 00
        E 0 86 32 00
        E 0 86 32 00
        E 0 90 4d 56
        E 0 90 4d 56
        E 0 90 4d 57
        E 0 90 4d 57
        E 343 84 4d 00
        E 0 85 4d 00
        E 0 85 4d 00
        E 0 93 47 57
        E 0 94 4a 56
        E 0 94 4a 56
        E 0 94 4d 57
        E 343 80 4d 00
        E 0 80 4d 00
        E 0 80 4d 00
        E 0 80 4d 00
        E 0 94 47 57
        E 0 94 47 57
        E 0 95 3b 57
        E 343 83 47 00
        E 0 84 4a 00
        E 0 84 4a 00
        E 0 84 4d 00
        E 0 94 41 56
        E 0 94 41 57
        E 343 84 47 00
        E 0 84 47 00
        E 0 85 3b 00
        E 0 95 3e 58
        E 343 84 41 00
        E 0 84 41 00
        E 0 95 59 59
        E 343 85 3e 00
        E 0 95 4a 59
        E 0 95 4a 59
        E 343 85 59 00
        E 343 85 4a 00
        E 0 85 4a 00
        E 343 96 32 57
        E 343 90 4d 57
        E 0 95 4d 57
        E 343 86 32 00
        E 0 95 47 57
        E 0 95 47 57
        E 0 96 3b 57
        E 343 80 4d 00
        E 0 85 4d 00
        E 0 95 50 57
        E 0 96 3e 57
        E 0 96 3e 58
        E 343 85 47 00
        E 0 85 47 00
        E 0 86 3b 00
        E 0 96 44 56
        E 0 96 44 56
        E 0 96 44 57
        E 0 96 44 57
        E 343 85 50 00
        E 0 86 3e 00
        E 0 86 3e 00
        E 0 96 44 56
        E 0 96 44 56
        E 0 96 44 57
        E 0 96 44 57
        E 0 96 44 57
        E 0 96 44 57
        E 343 86 44 00
        E 0 86 44 00
        E 0 86 44 00
        E 0 86 44 00
        E 0 94 41 57
        E 0 94 41 57
        E 0 95 41 57
        E 0 96 3b 56
        E 0 96 3b 56
        E 0 96 3b 57
        E 343 86 44 00
        E 0 86 44 00
        E 0 86 44 00
        E 0 86 44 00
        E 0 86 44 00
        E 0 86 44 00
        E 0 94 59 58
        E 0 96 45 58
        E 0 96 45 58
        E 343 84 41 00
        E 0 84 41 00
        E 0 85 41 00
        E 0 86 3b 00
        E 0 86 3b 00
        E 0 86 3b 00
        E 0 90 4d 58
        E 0 96 50 57
        E 0 96 50 58
        E 0 96 50 58
        E 343 84 59 00
        E 0 86 45 00
        E 0 86 45 00
        E 0 96 4d 57
        E 0 96 4d 57
        E 0 96 4d 56
        E 0 96 4d 56
        E 0 97 4d 57
        E 0 97 4d 57
        E 343 80 4d 00
        E 0 86 50 00
        E 0 86 50 00
        E 0 86 50 00
        E 0 90 4d 58
        E 0 90 4d 58
        E 0 91 4d 58
        E 0 91 4d 58
        E 0 91 4d 58
        E 343 86 4d 00
        E 0 86 4d 00
        E 0 86 4d 00
        E 0 86 4d 00
        E 0 87 4d 00
        E 0 87 4d 00
        E 0 94 4a 59
        E 0 94 4a 59
        E 343 80 4d 00
        E 0 80 4d 00
        E 0 81 4d 00
        E 0 81 4d 00
        E 0 81 4d 00
        E 0 90 50 58
        E 0 94 4a 58
        E 0 95 41 58
        E 343 84 4a 00
        E 0 84 4a 00
        E 0 94 47 58
        E 0 95 4a 58
        E 343 80 50 00
        E 0 84 4a 00
        E 0 85 41 00
        E 0 91 59 58
        E 0 95 59 59
        E 343 84 47 00
        E 0 85 4a 00
        E 0 95 4d 58
        E 0 95 4d 58
        E 0 95 4d 58
        E 343 81 59 00
        E 0 85 59 00
        E 0 91 59 59
        E 0 91 59 59
        E 0 94 59 59
        E 343 85 4d 00
        E 0 85 4d 00
        E 0 85 4d 00
        E 343 81 59 00
        E 0 81 59 00
        E 0 84 59 00
        E 686 90 4d 57
        E 344 90 4d 57
        E 343 80 4d 00
        E 0 97 4d 58
        E 343 80 4d 00
        E 0 90 4d 56
        E 0 90 4d 57
        E 0 90 4d 57
        E 343 87 4d 00
        E 0 90 4d 57
        E 0 96 32 58
        E 343 80 4d 00
        E 0 80 4d 00
        E 0 80 4d 00
        E 0 94 53 58
        E 0 97 4d 58
        E 343 80 4d 00
        E 0 86 32 00
        E 0 90 4d 58
        E 0 90 4d 58
        E 343 84 53 00
        E 0 87 4d 00
        E 0 90 4d 57
        E 0 90 4d 57
        E 343 80 4d 00
        E 0 80 4d 00
        E 0 94 59 57
        E 0 97 50 58
        E 343 80 4d 00
        E 0 80 4d 00
        E 0 90 4d 56
        E 0 90 4d 57
        E 0 90 4d 57
        E 343 84 59 00
        E 0 87 50 00
        E 343 80 4d 00
        E 0 80 4d 00
        E 0 80 4d 00
        E 0 94 59 59
        E 0 95 53 59
        E 686 84 59 00
        E 0 85 53 00
        E 686 90 3e 58
        E 343 95 59 58
        E 0 97 35 58
        E 343 80 3e 00
        E 0 90 3e 58
        E 0 90 3e 58
        E 343 85 59 00
        E 0 87 35 00
        E 0 90 3e 58
        E 0 97 35 58
        E 343 80 3e 00
        E 0 80 3e 00
        E 343 80 3e 00
        E 0 87 35 00
        E 0 90 3b 57
        E 343 90 3b 57
        E 0 90 3b 57
        E 343 80 3b 00
        E 0 90 3b 57
        E 343 80 3b 00
        E 0 80 3b 00
        E 0 95 53 58
        E 343 80 3b 00
        E 343 85 53 00
        E 343 95 53 58
        E 343 97 3b 58
        E 343 85 53 00
        E 343 87 3b 00
        E 2058 95 53 58
        E 343 97 50 58
        E 343 85 53 00
        E 344 87 50 00
        E 3087 95 53 57
        E 686 85 53 00
        E 0 95 53 57
        E 343 95 56 57
        E 0 95 53 57
        E 0 95 50 57
        E 343 85 53 00
        E 0 90 5f 56
        E 0 91 5c 55
        E 0 91 5c 56
        E 343 85 56 00
        E 0 85 53 00
        E 0 85 50 00
        E 0 90 59 53
        E 0 90 59 53
        E 0 90 59 54
        E 0 90 59 55
        E 343 80 5f 00
        E 0 81 5c 00
        E 0 81 5c 00
        E 343 80 59 00
        E 0 80 59 00
        E 0 80 59 00
        E 0 80 59 00
        E 343 94 53 56
        E 686 84 53 00
        E 0 95 50 57
        E 343 94 53 57
        E 0 94 53 57
        E 343 85 50 00
        E 343 84 53 00
        E 0 84 53 00
        E 1029 94 53 56
        E 0 95 53 56
        E 0 95 53 56
        E 0 95 56 56
        E 343 95 32 56
        E 0 95 32 56
        E 0 95 32 56
        E 0 96 32 56
        E 343 84 53 00
        E 0 85 53 00
        E 0 85 53 00
        E 0 85 56 00
        E 0 95 32 54
        E 0 95 32 54
        E 0 95 32 54
        E 0 95 32 55
        E 0 95 32 55
        E 0 95 32 55
        E 343 85 32 00
        E 0 85 32 00
        E 0 85 32 00
        E 0 86 32 00
        E 0 95 32 54
        E 0 95 32 54
        E 0 95 32 55
        E 0 95 32 55
        E 0 95 32 55
        E 0 95 2f 54
        E 0 95 32 54
        E 0 95 32 55
        E 0 95 32 55
        E 0 95 32 54
        E 0 95 32 54
        E 0 95 32 55
        E 343 85 32 00
        E 0 85 32 00
        E 0 85 32 00
        E 0 85 32 00
        E 0 85 32 00
        E 0 85 32 00
        E 0 95 2d 55
        E 0 95 2d 55
        E 0 95 2d 55
        E 0 95 2d 55
        E 0 95 2d 55
        E 0 95 2d 55
        E 0 95 2d 55
        E 0 95 2f 55
        E 0 95 2f 55
        E 0 95 2f 55
        E 0 95 2f 55
        E 343 85 32 00
        E 0 85 32 00
        E 0 85 32 00
        E 0 85 32 00
        E 0 85 32 00
        E 0 85 2f 00
        E 0 85 32 00
        E 0 85 32 00
        E 0 85 32 00
        E 0 85 32 00
        E 0 85 32 00
        E 0 85 32 00
        E 0 95 2c 54
        E 0 95 2c 55
        E 0 95 2c 55
        E 0 95 2c 55
        E 0 95 2c 55
        E 0 95 2d 55
        E 0 95 2d 55
        E 0 95 2d 55
        E 0 95 2c 54
        E 0 95 2c 55
        E 0 95 2c 55
        E 0 95 2c 55
        E 343 85 2d 00
        E 0 85 2d 00
        E 0 85 2d 00
        E 0 85 2d 00
        E 0 85 2d 00
        E 0 85 2d 00
        E 0 85 2d 00
        E 0 85 2f 00
        E 0 85 2f 00
        E 0 85 2f 00
        E 0 85 2f 00
        E 0 95 29 56
        E 0 95 29 56
        E 0 95 2c 56
        E 0 95 2c 56
        E 0 95 2c 56
        E 0 95 2c 55
        E 0 95 2c 55
        E 0 95 2c 56
        E 343 85 2c 00
        E 0 85 2c 00
        E 0 85 2c 00
        E 0 85 2c 00
        E 0 85 2c 00
        E 0 85 2d 00
        E 0 85 2d 00
        E 0 85 2d 00
        E 0 85 2c 00
        E 0 85 2c 00
        E 0 85 2c 00
        E 0 85 2c 00
        E 0 94 56 56
        E 0 94 53 56
        E 0 94 53 56
        E 0 95 59 56
        E 0 95 3b 56
        E 0 95 29 56
        E 343 85 29 00
        E 0 85 29 00
        E 0 85 2c 00
        E 0 85 2c 00
        E 0 85 2c 00
        E 0 85 2c 00
        E 0 85 2c 00
        E 0 85 2c 00
        E 0 95 29 55
        E 0 95 29 55
        E 0 95 29 56
        E 0 95 29 55
        E 343 84 56 00
        E 0 84 53 00
        E 0 84 53 00
        E 0 85 59 00
        E 0 85 3b 00
        E 0 85 29 00
        E 0 95 26 55
        E 0 95 26 55
        E 0 95 26 55
        E 0 95 26 55
        E 0 95 26 56
        E 0 95 29 55
        E 343 85 29 00
        E 0 85 29 00
        E 0 85 29 00
        E 0 85 29 00
        E 0 94 53 56
        E 0 94 53 56
        E 0 94 53 56
        E 0 94 53 56
        E 343 85 26 00
        E 0 85 26 00
        E 0 85 26 00
        E 0 85 26 00
        E 0 85 26 00
        E 0 85 29 00
        E 0 94 56 56
        E 0 96 32 55
        E 344 84 53 00
        E 0 84 53 00
        E 0 84 53 00
        E 0 84 53 00
        E 0 94 56 56
        E 343 84 56 00
        E 0 86 32 00
        E 0 95 56 56
        E 343 84 56 00
        E 0 94 56 56
        E 0 94 56 56
        E 343 85 56 00
        E 0 94 56 57
        E 0 94 53 57
        E 0 96 50 56
        E 343 84 56 00
        E 0 84 56 00
        E 0 94 53 56
        E 343 84 56 00
        E 0 84 53 00
        E 0 86 50 00
        E 0 95 59 57
        E 343 84 53 00
        E 0 94 56 56
        E 0 95 56 56
        E 343 85 59 00
        E 0 94 53 57
        E 0 95 56 56
        E 0 95 56 57
        E 0 95 56 57
        E 343 84 56 00
        E 0 85 56 00
        E 0 94 53 57
        E 0 94 56 57
        E 343 84 53 00
        E 0 85 56 00
        E 0 85 56 00
        E 0 85 56 00
        E 0 94 53 56
        E 343 84 53 00
        E 0 84 56 00
        E 0 94 56 56
        E 343 84 53 00
        E 0 94 53 56
        E 343 84 56 00
        E 0 94 53 56
        E 0 95 56 56
        E 343 84 53 00
        E 0 94 53 56
        E 0 94 56 56
        E 0 95 56 57
        E 343 84 53 00
        E 0 85 56 00
        E 0 94 53 56
        E 0 94 56 56
        E 0 95 56 56
        E 343 84 53 00
        E 0 84 56 00
        E 0 94 53 57
        E 0 94 56 56
        E 0 94 53 57
        E 0 95 56 57
        E 343 84 53 00
        E 0 84 56 00
        E 0 95 53 56
        E 0 95 53 56
        E 0 96 50 57
        E 343 85 56 00
        E 0 84 53 00
        E 0 84 56 00
        E 0 84 53 00
        E 0 85 56 00
        E 0 94 53 56
        E 0 95 56 56
        E 343 85 56 00
        E 0 85 53 00
        E 0 85 53 00
        E 0 86 50 00
        E 0 95 56 56
        E 343 84 53 00
        E 0 85 56 00
        E 0 95 53 57
        E 0 95 53 57
        E 0 95 59 57
        E 0 96 50 57
        E 343 85 56 00
        E 0 95 53 56
        E 0 95 56 56
        E 343 85 53 00
        E 0 85 53 00
        E 0 85 59 00
        E 0 86 50 00
        E 0 95 53 56
        E 0 95 53 56
        E 343 85 53 00
        E 0 85 56 00
        E 343 85 53 00
        E 0 85 53 00
        E 343 95 53 56
        E 686 85 53 00
        E 343 95 53 57
        E 343 95 56 57
        E 343 85 53 00
        E 0 95 53 56
        E 343 85 56 00
        E 343 85 53 00
        E 0 95 53 55
        E 686 85 53 00
        E 0 95 56 57
        E 0 95 56 57
        E 343 95 51 56
        E 0 95 54 57
        E 0 95 51 57
        E 343 85 56 00
        E 0 85 56 00
        E 0 95 54 57
        E 344 85 51 00
        E 0 85 54 00
        E 0 85 51 00
        E 0 95 54 57
        E 0 95 59 56
        E 343 85 54 00
        E 0 94 51 56
        E 0 95 51 56
        E 343 85 54 00
        E 0 85 59 00
        E 0 95 51 56
        E 343 84 51 00
        E 0 85 51 00
        E 0 95 51 56
        E 0 95 51 57
        E 343 85 51 00
        E 343 85 51 00
        E 0 85 51 00
        E 0 97 34 55
        E 343 95 51 56
        E 343 87 34 00
        E 0 94 51 56
        E 343 95 51 56
        E 343 84 51 00
        E 343 85 51 00
        E 0 85 51 00
        E 0 94 51 56
        E 0 95 51 56
        E 343 94 51 56
        E 0 95 54 56
        E 343 84 51 00
        E 0 85 51 00
        E 0 94 51 56
        E 0 94 51 56
        E 0 95 51 55
        E 343 85 54 00
        E 0 95 51 57
        E 0 95 51 57
        E 343 84 51 00
        E 0 84 51 00
        E 0 85 51 00
        E 0 95 54 57
        E 0 95 54 57
        E 343 84 51 00
        E 0 85 51 00
        E 0 85 51 00
        E 343 85 54 00
        E 0 85 54 00
        E 0 95 54 56
        E 0 95 51 56
        E 343 94 51 56
        E 343 85 54 00
        E 0 85 51 00
        E 343 84 51 00
        E 0 95 54 56
        E 343 94 51 56
        E 343 85 54 00
        E 343 84 51 00
        E 343 90 4d 56
        E 343 95 51 56
        E 343 80 4d 00
        E 0 94 51 56
        E 0 95 39 56
        E 343 85 51 00
        E 0 95 51 55
        E 343 84 51 00
        E 0 85 39 00
        E 343 85 51 00
        E 343 90 4d 54
        E 343 90 4d 55
        E 0 95 51 55
        E 343 80 4d 00
        E 0 95 51 56
        E 0 95 54 56
        E 0 95 54 56
        E 343 80 4d 00
        E 0 85 51 00
        E 0 95 51 56
        E 343 85 51 00
        E 0 85 54 00
        E 0 85 54 00
        E 0 95 51 56
        E 343 85 51 00
        E 343 85 51 00
        E 0 94 51 56
        E 0 95 51 56
        E 343 94 59 56
        E 0 95 54 56
        E 344 84 51 00
        E 0 85 51 00
        E 0 95 39 55
        E 0 95 39 56
        E 0 95 39 56
        E 343 84 59 00
        E 0 85 54 00
        E 0 94 51 56
        E 343 85 39 00
        E 0 85 39 00
        E 0 85 39 00
        E 0 90 3c 56
        E 343 84 51 00
        E 0 94 51 56
        E 0 95 54 56
        E 343 80 3c 00
        E 0 94 51 56
        E 343 84 51 00
        E 0 85 54 00
        E 343 84 51 00
        E 0 95 54 56
        E 343 94 51 56
        E 0 94 51 56
        E 0 94 51 56
        E 0 94 51 56
        E 0 94 54 56
        E 343 94 51 56
        E 0 94 51 56
        E 0 95 54 56
        E 343 84 51 00
        E 0 84 51 00
        E 0 84 51 00
        E 0 84 51 00
        E 0 84 54 00
        E 0 94 51 56
        E 0 95 51 56
        E 343 85 54 00
        E 0 84 51 00
        E 0 85 54 00
        E 343 84 51 00
        E 0 85 51 00
        E 0 94 51 56
        E 0 95 54 57
        E 343 84 51 00
        E 0 94 51 56
        E 0 94 51 56
        E 343 84 51 00
        E 0 85 54 00
        E 0 95 54 56
        E 0 95 54 56
        E 343 84 51 00
        E 0 84 51 00
        E 0 94 51 56
        E 0 95 51 56
        E 0 95 51 56
        E 0 95 51 56
        E 0 95 54 56
        E 343 85 54 00
        E 0 85 54 00
        E 0 94 51 56
        E 0 95 59 56
        E 343 84 51 00
        E 0 85 51 00
        E 0 85 51 00
        E 0 85 54 00
        E 0 95 54 57
        E 343 84 51 00
        E 0 85 59 00
        E 0 95 54 56
        E 0 95 56 56
        E 0 95 56 57
        E 343 85 54 00
        E 0 95 51 57
        E 343 85 54 00
        E 0 85 56 00
        E 0 85 56 00
        E 0 94 51 57
        E 0 95 54 57
        E 343 85 51 00
        E 0 85 51 00
        E 0 95 51 57
        E 0 95 54 57
        E 0 95 54 57
        E 343 84 51 00
        E 0 85 54 00
        E 0 95 51 57
        E 0 95 54 57
        E 0 95 54 56
        E 343 85 51 00
        E 0 85 54 00
        E 0 95 51 57
        E 0 95 51 57
        E 343 85 51 00
        E 0 85 54 00
        E 0 95 51 57
        E 343 85 54 00
        E 0 85 51 00
        E 0 85 51 00
        E 343 85 54 00
        E 0 85 51 00
        E 343 95 54 57
        E 343 95 54 57
        E 0 95 54 57
        E 343 85 54 00
        E 343 85 54 00
        E 0 85 54 00
        E 0 95 54 57
        E 686 85 54 00
        E 0 95 51 57
        E 343 95 54 57
        E 0 95 56 57
        E 0 95 51 56
        E 343 85 51 00
        E 343 85 56 00
        E 0 85 51 00
        E 687 85 54 00
        E 0 b0 7b 00
        CCINTERP 32
        CHASE_CC_TAKEOFFS 1
        GUID {16748DE6-3B3E-E449-8403-9A492A76261B}
        IGNTEMPO 0 120 4 4
        SRCCOLOR 7
        VELLANE -1 100 0 0 1
        CFGEDITVIEW 0 0.001104 22 12 0 -1 0 0 0 0.5
        KEYSNAP 0
        TRACKSEL 252
        EVTFILTER 0 -1 -1 -1 -1 0 0 0 0 -1 -1 -1 -1 0 -1 0 -1 -1
        CFGEDIT 1 1 0 1 1 32 1 1 1 1 1 4 175 32 1352 843 0 0 0 0 0 0 0 0 3 0.5 0 0 1 64
      >
    >
  >
  <TRACK {F3D47E07-39AA-0A49-8883-0F73ADC94B4F}
    NAME Dexed
    PEAKCOL 16576
    BEAT -1
    AUTOMODE 0
    PANLAWFLAGS 3
    VOLPAN 1.48015541418744 0.344 -1 -1 1
    MUTESOLO 0 0 0
    IPHASE 0
    PLAYOFFS 0 1
    ISBUS 0 0
    BUSCOMP 0 0 0 0 0
    SHOWINMIX 1 0.6667 0.5 1 0.5 0 0 0
    FIXEDLANES 9 0 0 0 0
    SEL 0
    REC 1 5088 1 0 0 0 0 0
    VU 2
    TRACKHEIGHT 0 0 0 0 0 0 0
    INQ 0 0 0 0.5 100 0 0 100
    NCHAN 2
    FX 1
    TRACKID {F3D47E07-39AA-0A49-8883-0F73ADC94B4F}
    PERF 0
    AUXRECV 0 0 1 0 0 0 0 0 0 -1:U 33 -1 ''
    AUXRECV 0 0 1 0 0 0 0 0 0 -1:U 66 -1 ''
    AUXRECV 0 0 1 0 0 0 0 0 0 -1:U 99 -1 ''
    MIDIOUT -1
    MAINSEND 1 0
    <FXCHAIN
      WNDRECT 32 56 1081 755
      SHOW 0
      LASTSEL 0
      DOCKED 0
      BYPASS 1 0 0
      <VST "VST3i: Dexed (Digital Suburban)" Dexed.vst3 0 "" 475117838{ABCDEF019182FAEB4447534244657864} ""
        DrlRHO5e7f4AAAAAAgAAAAEAAAAAAAAAAgAAAAAAAAAAGAAAAQAAAAMAEAA=
        8BcAAAEAAABWQzIhqxcAADw/eG1sIHZlcnNpb249IjEuMCIgZW5jb2Rpbmc9IlVURi04Ij8+IDxkZXhlZFN0YXRlIGN1dG9mZj0iMS4wIiByZXNvPSIwLjAiIGdhaW49
        IjEuMCIgY3VycmVudFByb2dyYW09IjMiIGVuZ2luZVR5cGU9IjEiIG1hc3RlclR1bmU9IjAiIG9wU3dpdGNoPSIxMTExMTEiIHRyYW5zcG9zZTEyQXNTY2FsZT0iMSIg
        bXBlRW5hYmxlZD0iMCIgbXBlUGl0Y2hCZW5kUmFuZ2U9IjI0IiB3aGVlbE1vZD0iMCAwIDAgMCIgZm9vdE1vZD0iMCAwIDAgMCIgYnJlYXRoTW9kPSIwIDAgMCAwIiBh
        ZnRlcnRvdWNoTW9kPSIwIDAgMCAwIj48ZGV4ZWRCbG9iIGJhc2U2NDpzeXNleD0iNDEwNC52T0QuSS5CLkcuVEtpMHhYLi4uLi4uLi4zLnZYLi5mQi5FeVh0TEYuLi4u
        Li4uLk4uTEZBLnouUHdMbEtpQS4uLi4uLi5mQy5pQS4uTy5UTGl3eFguLi4uLi4uLjMudlhELlBGLkV5WHhMRi4uLi4uLi4uTi5MRi4uWERKd0wxWGJBLi4uLi4uLmZD
        LmlJLi5pTTFYaUlpTHhIeUdPTEIuLi5QTFhMVVg0QVJQbUVWWnQ0QlJMby5IaVVFVC5EQy4uLi5OSFBFRS52VFJKdndYYm9FLnguLi4uZkFBWlEuLnduakJmSGxYaEFQ
        SjguakJIZ3ZRRC52TU9udktpd0VXLmZ5Vi5MLmJETEZBLmJDSGZ6UVdkb0UuREF2WEIuLkFYUVAuMmZpQnVMbFguQXZJaUF2Q1hnZlhERGZYaElsWDBEaUx4M3ZDZ0xC
        RC4uQUNMRVRVUmtUUWYuQkhmTGxLMVQwWGZNRi40Li4uLm5DQWlVdlJpNGhIYU0xV2lBLi4uLi4ueUFmU0dEQ1ZJVVNXaTBELi4uLi4uLmZiYnJFRENmRU43ejBYTUEu
        Li4uLi4uTEVFT0kuR1hnQ09jTVZTLi4uLi4uLi5pZndUQkhsU2Z2Qk9pVUUuLi4uLi4uZkouTEYuR1hVV2lNRi56LlBXUTd2SC4uLi53LmZQa0VGY3NVRlp4UWxiaVlS
        Rm9MRlJIQXZJLkR2Q3ZRZlRELnZYbWpRSGljRFAuYkIuLjcuYi5QQ0EuTEZTaTh4WFhBRi5tLi4uTy5HLmJJLi5pY1JGZ0wxUS5BdkkuRHZDM1B2WEQudlhsakFJaWdE
        Ui5iQi4uNy5OLjNEQi5MRlNpOHhYWEFGLm0uLi5PZkMuLkguLlQ4MFc3SGlMeEh5R05UQi4uLi5QWC5FUkFJMFNIQUJIZi54WHZELkZkOEQuLnZpTS5EdlFMTGxHLjcw
        SEh2d1hGQS4uei52SEN2RURPWS4uZUFSRmdMbFEuLi4uLi4uLmFid1hCLlBVeEhmQmlZRC4ubkMuay52Qi43akQucmpLUHZ2WEZBLi56Zi4uQ3JCQ09RLi5KNHdGZUxs
        US4uLk8uLi4uaWN3WEIuZldDOEVPeEhpTHhIZkNoREIuLmpBQ0NnbGJ1MFZYZlRDSGJVa09YenhYaUEuLmYuLi5DUHcuTG9QVFRvaURqTFZXLi4uSC5IQS42dlFWRC52
        VXNyUUtpTUYuLi54WC5MZi5QTGwuLlRrT1gzeFhpQS4uZi4uLkN2Li5Hb1AuVm9pRGpMVlcuLi5ILkhBLkNQUVZERC5Wc3JRS2lNRi4uLnhYLkxmLlBMbC5BLi4uLi5m
        THhIaUxDZlBGLm4uLkh2LlNnWVdaekVsYmYuQlcuLi5EZUwxWGlBLi4uUC4uUE0uVEIuZlEuLlFFYU0xWC4uLi4uLi5ULjNqLi4zQi5PWEJXaU1GLi4uLi4uLkUuaUku
        Li4uLi5mTDFYaUEuLi4uLi5uSC5ULkxsTC5qZkRmTTFYLmZBLkUuLk4uSEUuaTRCLmJYUldpTUYuLi4uLi4uLi5pRVBBaU0xWGlJaUx4SHkuS2JBLk8uUERMTEVhdU0w
        Y3JBeEt1dmtTZVl6QmlBMVIuYkMuYS5QYi43Q0EuZmhHWVB4WFpvRS55Li4uLkR3LmlJLi45N2tRTExGWE9BLkwuM0EuWS4uUUQuLkpkakFJaW9rVi5MQy4uLlBYV0xs
        LkFqeVdGc3ZYZnNFLmguZkguakYuSEkuLm4zUUZqTGxWWkF2TC4uLi5JTHdYQi5QTlNBRVVxTGlMeFRQQWIuaUhpZ0JGT0lESEdVbGExa2xjYk0xRUszdlhZd0UuTy4u
        LkRYRS4wUFMuQjR2QmIzVVZaQXZDLi4uQVZRLlJGLi5WTkxqSWlrMFEuNy4uLlBmSy5ma0suZmtDR2N4WFlnRS5PLi4uRDNDLmdJLi5oQTFGcExGR1JBdkMuMy5BdkEu
        WEQ3MlhKYi5LaUFWVi43Li5OUC5iLkxGLi5MMVhpTTFJeFRpS043UEEuTEYuekF2VEFjRUhFMERIVUFFSHlueEhRTDFYaUFmRy5YLi5mTS5LQi52TFFIaEVpTTFYLjNB
        LlEuLlhCTGwuLm5oSVQzd1hpTUYuZi4uLi4uRkJpSS4uMG5SSVlMMVhpTWxHLkwuLi5NZk8uTFZNUUh4RWlNMVguM0EuTS4uUEJIRi5pb2hJVDd3WGlNRi5mLi4uLi5E
        QmlBdlhpTTFUaTh4TXhIeS5NRC4uLlRFQkx2alFPSVVZNUF4SnF2MFhYTEZKLi52WC4uLi4uLlBOLi5mLi5MRkhpZ0IuLkxGLi4uLi4uakMuaUF2TGlNeFhuLi4uaEEu
        Li4uLi40LnZYLi52WG1MRkouLnZYLi4uLi4uUE4uTGwuLkxWS2lnQi4uTEYuLi4uLi5qQy5pSWZGaU14WG5MMVEuLi4uLi4uLjQudlhCenZYaU1GSnhIaUx4N0FCVDdq
        R0JiQUZFNHpQT1VrU1RValRTc3ZDV2ZpU0tNRi4uLi4uLi5HLmlVUElpTTFYMkwxWGlBLi4uLi4udkFmVy4udkJPYlFOTnN6WC4uLi4uLi5GLkxWQWxMMVhpZ3lYaU1G
        Li4uLi4uLi4uZEEuLks3dkUxM3pSaUEuLi4uLi52QXZYRVh4WGlNVk1pTTFYLi4uLi4uLk4uM0UuLkxGR2lNbEx4SGlMRDdmSy4zUEswZkFVblVtYWpVbGJmLnhMLlRV
        Q3FIeVguLmZDLi4uLk5BdlRILi5DV1V4SjBMRi4uMy4uLi4uRC5MRkEuandVaHJoTmlBLi5OLi4uLi5GLmlRLi4uYjBKcTd4WC4uZkMuLi4uMy52V0QuLi5Zd3lKQU1G
        Li4zLi4uLi5YLkhFQy43VEU3cnhYUEEuLk4uLi4uZkMuaVEuLi4uLi4uSGlMeEhTRU9uQUVpLlBETFR6WG44VlFpZzFhZkxTTUdIQktpUWtHLkRpLi5MLlREVENELkh3
        Qm9YeFg2dkEueC4uSUMuREJiSS4uVmZQSXFMMVVzLlBNUS52LklnLlFKLi5IUXJ3SmlvRFAubkIuLi4uSkUubC4uSGdEWnZ3WEdRQy50UHZIQ0hnQVJJLi43WFBFa0xs
        VzAuZlguLnZDWGt2WEIudlhpTTFYeEhpTHhmdkFwLi4uLkRDQ3NEalNBd3pTR0FSTHNQUkZ3N3dYREEuLi4uLi4uZkNCOS54UmtYZ0V4TGxFTy4uLi4uLi5uOHZYSi4u
        SWpYQUtpb1JJLi4uLi4uLlZBdkJOLm5CRGdqeFhmLi4uLi5QQS4ueS5pby4uWWZnRWFMbFAuLi4uLi4uLlhBLklkLnZIUlh3SGlBMEouLi4uLi4uLkNMbEIuTDFYaU1s
        THhIaUxEdnZJLlguLlhMQVR0anpQRUFoTDAzUkxpd0NKd0wxVy4uLi4uLi4uMy5mU0czeFg3TFJMaThFLi4uLi4uLi5KLmIwQXRMRk9mRHlYZUEuLi4uLi4uZkMuU2Mu
        RFpjdi5HTGxXLi4uLi4uLi42Li5ORkR5WHdYQkdpNEUuLi4uLi4udk4uLmsuK00xRjByeFhhQS4uLi4uLi5mQy5pSS4uaW9TS1hIQ0xiSWkuSExCLi4uUExYWERTRWdV
        UmYuQkhmUHlYVU1sS013a1guYlJNVC52Ty4zLkEuTGxWVmJDVGNVRS52TEZEQjdDLkpJLi5pb2hFRk1WWDcudklic1RCKy5mUkIudlhTWXdQaXdFVC5IUkIuLnZPLmpr
        Li5MRlFtTDFYaU1WWC4uUFAuN0MuUkkuLlNjaEg4LjFYY0EuLi4uLi4rLnZYQi5mV0M4RU94SGlMeER3QXliQi4uakNGQUlFVGZIaU12LkNIZkxsSy52d1hjY0UuMS4u
        Li5EQy5HUS4uaTRCLmJMVldXQWZNLi4uLjQuUFNCLnZYdC4uR2kwMFUuWEMuLi5QSkRQay4uM1JIVEx4WGJRRS4uLi4uLkguQ2lFLi5pTTFYWUwxWGlBLkpUYi4udkFQ
        Vy4uZkxpTWxHaU0xWC4uLi4uLi5iLkxGQS5MMVhpTWxMeEhpTEFYZklnLi4uNGZRUHhBMkpCVW1kNUkwYk44a1FjTEZYS0F2TS5yRC40SHZYRC5QRll2UE9pTTFYLkxD
        Li4uUE4uVGsuLkR4V0Ywd1hpTUYudi5mRy5ERy5aUS4ueGpBQ0ZNbFZnQXZMLi4uLjRQd1hCRC5HZVlUR2lBMVMuLkMuQ0FQLkRuRUEuSFJGTER4WGlrQy55Li4uLmpD
        QmlJLi5KVGZBRkhpTHhIaUVzVGhKbFBCRlhQa1RXQUJIZi5CSGYueFRNblNEaW9rVi4uUi4uLlBILkRrSC5IRUNlLndYWGdFLmtELi4uREIuNjMuLllNRk5qTDFYaUEu
        Li5ILi5vLnZULi5QRGVYUUhpTTFYLi4uLkcuUEouTGwuLjNqQ0tqd1hSYzBLTC4uLi5ERS5BSUIuUS5oSGRMMVhpQS4uLi4uLlFBdlhCLnZYaU1sUHlIaUx4YlBDaU1m
        Ry5IQUZNa2pUSVF6U1JBUkxmM0VLbzN4WCtYQy5pSFRBTmppLk9BQS5lRVJMaUwxTDEuUEouUC5DNkhnVEYuZldXLlRNaU1pTS5iRExHUGZOUmJEQS5IakVwYnhYeVRD
        Lm1ieEFMVGZDaUlQLmlVd1hiTEYuLi52S2RuLkJGSUFTQkR2WFVMRkdpQS4uLm5mR0pmZmFWTGwuQXp6VjN2eUx4SGlMR3ouUC4udlh5ZkFRRVlVUkxBQlVBTXpSS25R
        QWJMMVcuLi4uLi4uLjYudlJFTGhCWS5mSmk0RS4uLi4uLi4uTi5YREFpa1BGLm54WGRBLi4uLi4uLmZDLk9NZlNMLlFER0xsVy4uLi4uLi4uNjdtVS4uVEQuZi5HaUVs
        VS4uLi4uLnZOLi4wLjBud0JaYndYLi4uLi4uLi4uZkMuaUFQUVJBLi5OSENNdkhDREZMQi4uLnZOLkhVVU1JRFNFQUJIZkR5WFAzLkR4SHhYLmJCLi4uLkguUERILmJ2
        Q1FQeFhVb0MubS4uLi4uQi5pQUEuRnp2QlhYU1VpQXZJLi4uLjMudlZELi5GT0R3SWlVRUguYkIuLi4uTi5MRkEuZi5DT1RBTVVNRi5tLi4uLmZELlZ3Li5nUGdGbUxW
        VTAudkkuLi4uSEF2WEYudlhpTTFYeEhpTHhULkNMdlBBLmZCQ0NFelRDRURRRUFoTHdMMVhpTTFYaU1GLkNNRi4uLjIuaWMuRGlNMVhpTTFYaUF2UGlNRi4uTFBXLi54
        WGlNRlFpTTFYLnJ4WGlBLkJDTDFBTEwxWGlNMVhpTUYucUwxWC5mdy5pUS5IaU0xWGlNMVhpQS5FLkxGLlBMdlhHZnZUaU0xWGlNMVguUEEuaUEuLkNuRUNNTTFYaU1s
        THhIaUxlai4uLi4uLnlmd1ByUERLRUlGS0ZBQkhYZmtLa3Z5WC4uLi4uLi4uM0x2WFJiLkdYQVNJN0xGLi4uLi4uLi5OQ0xsQ0kuQlZ0VEJPaUEuLi4uLi4uZnkuaW92
        Q2pqa0trdnlYLi4uLi4uLi4zTHZYSi5QS1g0Ukk3TEYuLi4uLi4uLk5DTEZBS0xGVnVYeFhpQS4uLi4uLi5meS5pUS4uaU0xWGlJaUx4SHlHSExGLi4udk1MUFVjdFEx
        VHpFRmNpNGtIZEhRSWljREYuWEIuQXd2RFBqaUZIYmdHWjN4WFFVQy54WEQuT0hWQnJQLi5kWHhMc0xGUmIudko4UHcuWkRRTkIuUEtXUHhKaXNUTS4uLi4uLnZMRkxs
        Li5MMUY3blFSaUEuLi43UUJDZlFDaUkuLmlVUUlwTDFYYUEuLi4uLi5qa3ZYQi52WGlNMVh4SGlMeFh2Q1hqU0JZRENDc2IwU0JJRFNFQVJMc2pDSE00d1hpb0MuSi4u
        LkRmQ0JpQS4uSzNRRmJMMVguLmZCLi4uQTNmLldKLmZGR1F3SWlNRi4uLi4uLlAuTkh6RUEubnZYVGp4WGlBLi4uLi4uLmZDQWNBUC5STEZFaU0xWC4uLi4uLi4uM2Zm
        VkQuLkdpUXdIaU1WRC4uLi4uLi5ORExGLi5MbFhLd2lMeEhpTFBMdkhZQS4uSGZnUUl3RFVFSVVLU2NFVFRuLkdYMzBULkFmSjEuUC4zdi5QRi52R0hiQUdpY2tQLnZS
        QU5MLk5IdmsuLm5ETExQUlRpUUQudWZQQy5mQ0VpSS4uWG5SQ0pMRldCQVBLSXYuLjMuUE9ELmZHdGYuQ2lNMVAuekJCTEQuTi5Qay4udmpERHZCVWlZRC5yblBDLi5H
        RWlJLi5kTXpXN0hpTHhIaS5OZkNRLjd5RVhMVVBIRWpUQUFCSGYueFhpUVFOaU1sQi4uLi4uLi5OLnJpSGljdlhpa3dYaU1GLi4uLi4uZkMuc1hRTWlMMVhjTDFYaUEu
        Li4uLi4zLnZYSm54RWlNVkZpTTFYLi4uLi4uLk4uTGxDR3NnRWlvUlVpTUYuLi4uLi5mQy5SSUIubkwxWGpMMVhpQS4uLi4uLlBBdlhUWFBQaU0xWHhIaUx4M2ZBaS4u
        Li5EQy5Fd1RRQ1FrVE80REh3TEYuLi52WGlNRi5PLi4uRGIuLkxJLi5Lb3hRaEwxWGlBdkMuLi5BeUF2WEIudlhIOFFELlhELi43Li4uUHZPLkxGRC5MMVhqTHhYaUEu
        Lk8uLi5EckMuaUkuLmlBLi4uTDFYaUF2Qy4uLkFtQVBVLi4uTXBiakhpTTFYLjcuLi5QdlguTGwuLkwxWGlNbEx4SGlMVzd2Rm4uQS5mZmdQQTR6UlN3QkhUNEJIWEwx
        WFl6d0ZlTEYuLi4uLnZBLlYuLnZYaU1sRkZVQ01pQS4uLi4uQi5YVC4uenZYaWNRU004RC4uLi4uLmZDLk13Li41TDFYa0wxWGlBLi4uLi4uMy52WEIudlhpTTFFTTB6
        U2lBLi4uLi5OLlREQ1hqd1hpVXhYaU1GLi4uLi4uZkEuVlEuRmlNMVhpSWlMeEhDQk5qdi5HLi5ETExFYXVjMkxEQUJUZ1FWTmZ6akdpTWxOLm4uLi5QLkxETFYuWXJm
        R1l2d1hpQS4uSi4uLkRmQ0FiZy4uWmJERW1MMVguLi4uLi4uQUhRUFd5VC5CSlBRSmlNRi4uLi4uLi4uTkV6a0MuSHdYVFB4WGlBLi4uLi4uLi5UQVpRLi5iTEZFaUwx
        WFEuLi4uLi4uM1R2WEwuZlhoc0RPeEhpTHgudy5pTGxCSC5DQ0xZelNmTDBVRVVEVGZmMDgiIGJhc2U2NDpwcm9ncmFtPSIxNjEuaVlSRm9MRlJIQXZJLkR2LkMuLi5B
        SEUuQi5mQ2ljUkZnTDFRLkF2SS4udi5DLi4uLlBDLkIuZkNpd3pYdUxGVmZBdkkuLnYuQy4uLi52RS5BLmZDaWNSRmdMMVEuQXZJLkR2LkMuLi5BTEYuQi52QWlZUkZq
        TEZSSEF2SS4udi5DLi4uLjNELkQudkFpd3pYdUxGVmZBdkkuLnYuQy4uLi4uLi5BLnZBVDgwVzdIaUx4SHlHRkRQSS4uLi4uLi5BWC5FUkFJMFNIQUJIZi5SeE0uLi4u
        Li4iLz48bWlkaUNDLz48L2RleGVkU3RhdGU+AAAAAAAAAAAASlVDRVByaXZhdGVEYXRhAAEBQnlwYXNzAAEBAwAdAAAAAAAAAEpVQ0VQcml2YXRlRGF0YQAAAAAAAAAA
        AFBIQVJPSCAgICAAEAAAAA==
      >
      PRESETNAME "PHAROH    "
      FLOATPOS 0 0 0 0
      FXID {C2E15427-549D-C94E-B480-BFCE05FCF897}
      WAK 0 0
    >
  >
  <TRACK {C144E98F-78D7-E34F-BD8E-AE232D5654B8}
    NAME "Surge XT"
    PEAKCOL 16576
    BEAT -1
    AUTOMODE 0
    PANLAWFLAGS 3
    VOLPAN 0.02142091252416 -0.344 -1 -1 1
    MUTESOLO 0 0 0
    IPHASE 0
    PLAYOFFS 0 1
    ISBUS 0 0
    BUSCOMP 0 0 0 0 0
    SHOWINMIX 1 0.6667 0.5 1 0.5 0 0 0
    FIXEDLANES 9 0 0 0 0
    SEL 0
    REC 1 5088 1 0 0 0 0 0
    VU 2
    TRACKHEIGHT 0 0 0 0 0 0 0
    INQ 0 0 0 0.5 100 0 0 100
    NCHAN 2
    FX 1
    TRACKID {C144E98F-78D7-E34F-BD8E-AE232D5654B8}
    PERF 0
    AUXRECV 0 0 1 0 0 0 0 0 0 -1:U 4 -1 ''
    AUXRECV 0 0 1 0 0 0 0 0 0 -1:U 5 -1 ''
    AUXRECV 0 0 1 0 0 0 0 0 0 -1:U 0 -1 ''
    AUXRECV 0 0 1 0 0 0 0 0 0 -1:U 6 -1 ''
    AUXRECV 0 0 1 0 0 0 0 0 0 -1:U 7 -1 ''
    MIDIOUT -1
    MAINSEND 1 0
    <FXCHAIN
      WNDRECT 32 364 920 447
      SHOW 0
      LASTSEL 1
      DOCKED 0
      BYPASS 0 0 0
      <AU "AUi: Surge XT (Surge Synth Team)" "Surge Synth Team: Surge XT" "" 1635085685 1399281748 1450009153
        6QMAAAAAAAACAAAAAQAAAAAAAAACAAAAAAAAAAYAAAABAAAAAAAAAAIAAAAAAAAAAAAAAAAAAAAAAAAAAAAAAAAAAAAAAAAAAAAAAAAAAADDCQMAPD94bWwgdmVyc2lv
        bj0iMS4wIiBlbmNvZGluZz0iVVRGLTgiPz4KPCFET0NUWVBFIHBsaXN0IFBVQkxJQyAiLS8vQXBwbGUvL0RURCBQTElTVCAxLjAvL0VOIiAiaHR0cDovL3d3dy5hcHBs
        ZS5jb20vRFREcy9Qcm9wZXJ0eUxpc3QtMS4wLmR0ZCI+CjxwbGlzdCB2ZXJzaW9uPSIxLjAiPgo8ZGljdD4KCTxrZXk+ZGF0YTwva2V5PgoJPGRhdGE+CglBQUFBQUFB
        QUFBQUFBQU1IQUNXZEl6OEFBQUFBZTRicUFBQUFBQUNCV1F3QUFBQUFBSlN4blQrQUFBQUJDVE9GUDRBQQoJQUFLejJFcy9mcmhTQXlhR1B6OEFBQUFEdVRTQk82UFhD
        Z1FRaEFnL0FBQUFCRllXVHo4QUFBQUVsZk5FUDRBQUFBVnUKCURTQTdvOWNLQllQSHZ6OEFBQUFGa2Q5QVB3QUFBQVhPeldFQUFBQUFCaEpmd1FBQUFBQUdFbC9DQUFB
        QUFBWWRldHMvCglnQUFBQmlCM1FnQUFBQUFHSUhkREFBQUFBQVl1anNNQUFBQUFCaTZPeEFBQUFBQUdQS1pFQUFBQUFBWThwa1VBQUFBQQoJQmoxc01EK0FBQUFHU3Iz
        RkFBQUFBQVpLdmNZQUFBQUFCbGpWUmdBQUFBQUdXTlZIQUFBQUFBWm03TWNBQUFBQUJtYnMKCXlBQUFBQUFHbXBZSFB3QUFBQWN4WWVZQUFBQUFDREZqYndBQUFBQUlz
        bVhhTzZQWENnamhPNm8vZ0FBQUNUYiswUUFBCglBQUFKdXk5M1B4MkoyUW03VVVBQUFBQUFDYzc1b3o4QUFBQUoxUzZWUHdBQUFBblZMcFkvQUFBQUNkVXVsejhBQUFB
        SgoJNitRZlB3QUFBQXBsb1RnQUFBQUFDbWMrZVR1ajF3b0tkSGQ2UDRBQUFBcDBkM3MvZ0FBQUNuUjNmRCtBQUFBS2orZGUKCU82UFhDZ3FiR05NQUFBQUFDcHNZOHdB
        QUFBQUs5aVFTUDRBQUFBcjdXVDQvZ0FBQUMyL2JKaitBQUFBTGRtUmpQd0FBCglBQXV1RDM0L0FBQUFDOXdzQkQ4QUFBQU1IQmNZTzZQWENndzM1KzBBQUFBQURIWmw3
        RDhBQUFBTktuVUZQdklINXcxRgoJenhFL0FBQUFEVVhQRWo4QUFBQU5SYzhUUHdBQUFBMUZ6eFFBQUFBQURVWFBGUUFBQUFBTlJjOFdQY3pNelExRnp4YzcKCW85Y0tE
        V0h0ZnorQUFBQU5rU1p5UHgySjJRMlJTRHNBQUFBQURkRHZ0enVqMXdvT081Z3pBQUFBQUE1UnMyOCthZ2lYCglEbVhlV1R1ajF3b09jN3FrUDRBQUFBNjk4Nm9BQUFB
        QURyM3pxeitBQUFBT3ZmT3NQNEFBQUE3ZEZTQS9BQUFBRDRYSQoJVmp1ajF3b1BxL2UxQUFBQUFBKzVkNGsvZ0FBQUQ4YmJrRCtBQUFBUDBvKy9BQUFBQUJBdU52TS9B
        QUFBRVRxZzlUdWoKCTF3b1JTSHNLQUFBQUFCRnMxTlkvSFluWkVXejJud0FBQUFBUjFBbThQNEFBQUJIVlFTQS9nQUFBRWhkR2x3QUFBQUFTCglPbGU4UHgySjJSSTZl
        WVVBQUFBQUVrR012VHVqMXdvU1Qra2dQd0FBQUJKcXF3by9nQUFBRXFmSmNUK0FBQUFTNU1sOQoJQUFBQUFCTHZlWlE3bzljS0V3OFBvenVqMXdvVGVqLzlBQUFBQUJO
        NlAvNEFBQUFBRTNvLy93QUFBQUFUZWtBQUFBQUEKCUFCUG5xTE0vQUFBQUUrZW90RDhBQUFBVDU2aTFQd0FBQUJQbnFMWUFBQUFBRStlb3R3QUFBQUFUNTZpNFBjek16
        UlBuCglxTGs3bzljS0ZGbXM5VHVqMXdvVXBGSXpPNlBYQ2hUWklKNC9nQUFBRk8yTnNnQUFBQUFWVGFLR1A0QUFBQlZnT2FzQQoJQUFBQUZZdTlkajhBQUFBVmk3MTNQ
        d0FBQUJXTHZYZy9BQUFBRlkxOWh6OEFBQUFXQXhLRlA0QUFBQllyQmxzL2dBQUEKCUZpc0dYRCtBQUFBV0t3WmRQNEFBQUJaWkt0STdvOWNLRjVLNjVUOEFBQUFYMzl4
        U1B3QUFBQmZxVkt3QUFBQUFGKzUyCgl6Z0FBQUFBWXJsdGxBQUFBQUJqYVlrVS9nQUFBR1ZJcFJ6OEFBQUFaNi8wYlB4MkoyUm5zSHVRQUFBQUFHcE9rQVQ4QQoJQUFB
        YWxtN2NBQUFBQUJyQXRRSTdvOWNLR3c3SWlENnFxcXNiRWdIc1AzNjRVaHNpSHZFL2dBQUFHekhZM3p1ajF3b2IKCVlvYVdBQUFBQUJ3dlZ5ay9BQUFBSFBOZDRqOEFB
        QUFkQ1JwWUFBQUFBQjJGQmFVL0FBQUFIY1h1YXorQUFBQWZEaC94CglQeDJKMlI4T1Fib0FBQUFBSHovSVB6K0FBQUFmVURVSEFBQUFBQiswU2ljL2dBQUFIN2lSc2dB
        QUFBQWY0dGZZTzZQWAoJQ2gvdXVQVS9IWW5aSCs3YXZnQUFBQUFnSG81K1B1eE94U0JRTnBBQUFBQUFJSXVCdVQrQUFBQWdtU3EyQUFBQUFDQ2sKCUhKTUFBQUFBSU1O
        dzNEdWoxd29pdUNtbFA0QUFBQ01DWXFzQUFBQUFJd0ppckQrQUFBQWpBbUt0UDRBQUFDTkpTY1kvCglBQUFBSTNvSytqK0FBQUFqZWdyN1A0QUFBQ042Q3Z3L2dBQUFJ
        M29LL1QrQUFBQWpsVGVFUHdBQUFDT1dJdHMvZ0FBQQoJSTZVRnJ3QUFBQUFqek9LZlB3QUFBQ1JDV09zQUFBQUFKSlU1RFQ4QUFBQWtxNDVSUDRBQUFDUzZ2N2NBQUFB
        QUpRaTQKCUtEOEFBQUFsWktJeVB3QUFBQ1Zrb2pNL0FBQUFKV1NpTkQ4QUFBQWxaS0kxQUFBQUFDVmtvallBQUFBQUpXU2lOejNNCgl6TTBsWktJNE82UFhDaVlac0NF
        L2dBQUFKa295NGo4QUFBQW1VNW5RQUFBQUFDWmh3SEUvQUFBQUpzVlhhVDZxcXFzbgoJVDEzTFA0QUFBQ2RyVGtJL2dBQUFKNkJlVkQ4ZGlka25vSUFkQUFBQUFDZlFN
        OTArN0U3RktFclFGUUFBQUFBb1h2SysKCUFBQUFBQ2hlOHI4QUFBQUFLRjd5d0FBQUFBQW9YdkxCQUFBQUFDaHQ0VG8vSFluWktHNERBd0FBQUFBb2RSWTdPNlBYCglD
        aWlaQVJjN285Y0tLTFprTFQ4QUFBQXBHRkw3QUFBQUFDa2RqNTgvZ0FBQUtVS1pJVHVqMXdvcFowNHJBQUFBQUNtUwoJRVljL2dBQUFLaWRTdFFBQUFBQXFLdWJIUDRB
        QUFDbzQwV2MvQUFBQUtrZUJoaitBQUFBcW1KeE5Qd0FBQUNyMU1GTS8KCWdBQUFLd0dLckR1ajF3b3NRaENhUDRBQUFDeGFxM1FBQUFBQUxLb0k4aitBQUFBdHJGQ29Q
        d0FBQUM0VFpkQS9BQUFBCglMaG9aMWdBQUFBQXVncGQ1UDRBQUFDODF6NWcvQUFBQUwxdVVrQUFBQUFBdmRrZmdPNlBYQ2kvM2Q0RS9nQUFBTUFiUgoJc2orQUFBQXdD
        U2ZOQUFBQUFEQWZocGsvSFluWk1CK29ZZ0FBQUFBd0tSUEVQd0FBQURBcEUrUS9BQUFBTU1uNFdnQUEKCUFBQXd6UzZHQUFBQUFERDBQb0E3bzljS01UWGtmUUFBQUFB
        eE5lUitBQUFBQURFMTVIOEFBQUFBTVRYa2dBQUFBQUF4CglOZVNCQUFBQUFERTE1SUlBQUFBQU1UWGtnd0FBQUFBeE5lU0VBQUFBQURJQXdjTS9BQUFBTW1tNFpqOEFB
        QUF5cXFFcwoJUDRBQUFETVBia3NBQUFBQU00UTNRRCtBQUFBenRKbmlQd0FBQURQNHVTZy9nQUFBTkEybFR6OEFBQUEwSlVqbVA0QUEKCUFEUk9La28vQUFBQU5NRU1Z
        QUFBQUFBMHdReGhBQUFBQURUQkRHSUFBQUFBTk1FTVl3QUFBQUEwd1F4a0FBQUFBRFRCCglER1VBQUFBQU5NRU1aZ0FBQUFBMHdReG5BQUFBQURUQkRHZ0FBQUFBTk1F
        TWFRQUFBQUEwd1lDL0FBQUFBRFRCZ01BQQoJQUFBQU5NR0F3UUFBQUFBMHdZRENBQUFBQURUQmdNTUFBQUFBTk1HQXhBQUFBQUEwd1lERkFBQUFBRFRCZ01ZQUFBQUEK
        CU5NR0F4d0FBQUFBMHdZRElBQUFBQURUQjlSNEFBQUFBTk1IMUh3QUFBQUEwd2ZVZ0FBQUFBRFRCOVNFQUFBQUFOTUgxCglJZ0FBQUFBMHdmVWpBQUFBQURUQjlTUUFB
        QUFBTk1IMUpRQUFBQUEwd2ZVbUFBQUFBRFRCOVNjQUFBQUFOTUpwZlFBQQoJQUFBMHdtbCtBQUFBQURUQ2FYOEFBQUFBTk1KcGdBQUFBQUEwd21tQkFBQUFBRFRDYVlJ
        QUFBQUFOTUpwZ3dBQUFBQTAKCXdtbUVBQUFBQURUQ2FZVUFBQUFBTk1KcGhnQUFBQUEwd3QzY0FBQUFBRFRDM2QwQUFBQUFOTUxkM2dBQUFBQTB3dDNmCglBQUFBQURU
        QzNlQUFBQUFBTk1MZDRRQUFBQUEwd3QzaUFBQUFBRFRDM2VNQUFBQUFOTUxkNUFBQUFBQTB3dDNsQUFBQQoJQURURFVqc0FBQUFBTk1OU1BBQUFBQUEwdzFJOUFBQUFB
        RFREVWo0QUFBQUFOTU5TUHdBQUFBQTB3MUpBQUFBQUFEVEQKCVVrRUFBQUFBTk1OU1FnQUFBQUEwdzFKREFBQUFBRFREVWtRQUFBQUFOTVBHbWdBQUFBQTB3OGFiQUFB
        QUFEVER4cHdBCglBQUFBTk1QR25RQUFBQUEwdzhhZUFBQUFBRFREeHA4QUFBQUFOTVBHb0FBQUFBQTB3OGFoQUFBQUFEVER4cUlBQUFBQQoJTk1QR293QUFBQUEweERy
        NUFBQUFBRFRFT3ZvQUFBQUFOTVE2K3dBQUFBQTB4RHI4QUFBQUFEVEVPdjBBQUFBQU5NUTYKCS9nQUFBQUEweERyL0FBQUFBRFRFT3dBQUFBQUFOTVE3QVFBQUFBQTB4
        RHNDQUFBQUFEVEVyMWdBQUFBQU5NU3ZXUUFBCglBQUEweEs5YUFBQUFBRFRFcjFzQUFBQUFOTVN2WEFBQUFBQTB4SzlkQUFBQUFEVEVyMTRBQUFBQU5NU3ZYd0FBQUFB
        MAoJeEs5Z0FBQUFBRFRFcjJFQUFBQUFOUkl4QXo4QUFBQTFUaEdYUDJRUjlUV1U1SUUrOGdmbk5yZ1pqVHVqMXdvMi9KaW0KCVA0QUFBRGR2Q0NnQUFBQUFOOXFSM0Qr
        QUFBQTMrSjk3UDRBQUFEZ1JPbFVBQUFBQU9PaEh3VCtBQUFBNWtFRVNQNEFBCglBRG5RcUxjQUFBQUFPZDVEM1Q4QUFBQTZENTNIUDM2NFVqcGVIeUkvZ0FBQU94SWpj
        UUFBQUFBN1NmRnJBQUFBQUR0SwoJSFc4QUFBQUFPN1FLcFQ4QUFBQThOQkNNUDRBQUFEdzhnRWc3bzljS1BHRXNEQUFBQUFBODNYQVlPNlBYQ2owQXpMOC8KCUFBQUFQ
        V0grb0QrQUFBQTladDJQUHZnZmdqMkZxTDA3bzljS1BiZFFwRDhBQUFBOTFvQ0lQNEFBQUQzeFdPYzdvOWNLCglQbTMxcEQ4QUFBQStjbXp4QUFBQUFENmhhcmcvSFlu
        WlBxR01nUUFBQUFBL0RBVjJBQUFBQUQ4UG1ZZy9nQUFBUHpxQgoJWER1ajF3by9SMzFIUHdBQUFEOUwzSGtBQUFBQVAzWWluenVqMXdvL3BqR0dPNlBYQ2ovRU5EQS9B
        QUFBUUc3TWx6OEEKCUFBQkExVGRPUHdBQUFFRkxjMkkrOGdmblFWc0tKVHVqMXdwQmVoTWtBQUFBQUVGNkV5VUFBQUFBUVhvVEpnQUFBQUJCCgloaUZNQUFBQUFFSW9M
        ZjRBQUFBQVFuZGhzejhkaWRsQ2Q0TjhBQUFBQUVLM2IyNC9BQUFBUXZ2Q3pnQUFBQUJERCtMRQoJTzZQWENrTWgwM1FBQUFBQVEwd1ptanVqMXdwRUdvSlpQd0FBQUVR
        NzVvSS9nQUFBUk1TN1l6dWoxd3BGWmRocFBteE8KCXhVV0U1SHNBQUFBQVJaVFN2ajhBQUFCRnl5UEpQd0FBQUVaVEVCYy9IWW5aUmxNeDRBQUFBQUJHZVpRQ082UFhD
        a2JJCglzbElBQUFBQVJ2MkIyQUFBQUFCSElKTDlQeDJKMlVjZ3RNWUFBQUFBUnlmSC9qdWoxd3BIajFQdFA0QUFBRWZJcGtFLwoJZ0FBQVI4c0V2Z0FBQUFCSDlVcmtP
        NlBYQ2tnbit1NEFBQUFBU0Qwb0tUK0FBQUJJV3dmSVB3QUFBRWhwdCtjL2dBQUEKCVNKVjAxZ0FBQUFCSTBremFQNEFBQUVqU1RQby9nQUFBU093QnB3QUFBQUJKQXF4
        N1B3QUFBRWx0MzRVL0FBQUFTYWRuCgloUUFBQUFCSnE3K21QdUFBQUVtNnVKby9nQUFBU2lTRWhUOEFBQUJMWEVBa0FBQUFBRXRnbUVVKzRBQUFUR3o5YXo4QQoJQUFC
        TWVMOU9PNlBYQ2t4L1lpay9nQUFBVEg5aVNUK0FBQUJNcE0zYVA0QUFBRTBSR01NQUFBQUFUUlZ3NUQ3Z0FBQk4KCU1RUWtQd0FBQUUxczVMZy9aQkgxVGZMV2hRQUFB
        QUJPSmVpckFBQUFBRTVMU2lVL0FBQUFUa3RLUlQ4QUFBQk9kUFBUCglQNEFBQUU1OXhqNC9BQUFBVHFLT0l6K0FBQUJPcGpSc0FBQUFBRTdGOFdJQUFBQUFUc3BKZ3o3
        Z0FBQk8wamhjUHgySgoJMlU3U1dpVUFBQUFBVHZSUWlEOSt1RkpQZGdtb0FBQUFBRTk2WWNrKzRBQUFUM3lxSFFBQUFBQlBqZHRKQUFBQUFFK20KCThFTTdvOWNLVDZy
        bkdqK0FBQUJRZXNvQkFBQUFBRkIvSWlJKzRBQUFVTVIyeGo4QUFBQlJHTU5OUDRBQUFGRXE0a2NBCglBQUFBVVM4NmFEN2dBQUJSUzJHZlB3QUFBRkdtYmFFL2dBQUFV
        aHJ2aVQrQUFBQlNMNktnQUFBQUFGSXorc0UrNEFBQQoJVW45Qk13QUFBQUJTK09pL1A0QUFBRlBTM2NZL0FBQUFVOU9uNlR1ajF3cFQ1SHMvQUFBQUFGUG8wMkErNEFB
        QVUvQzQKCU53QUFBQUJUOUZzeVB4MkoyVlAwZlBzQUFBQUFWSjdNOHdBQUFBQlV5Uk1aTzZQWENsVFU5RFkvSFluWlZOVVYvd0FBCglBQUJWZjJYM0FBQUFBRldGc0xB
        KytCK0NWWWlBaUR1ajF3cFZtVlBlQUFBQUFGV2RxLzgrNEFBQVZhbXNIVHVqMXdwVgoJdm9JbEFBQUFBRlcrZ2lZQUFBQUFWYjZDSndBQUFBQlZ5RXRqUHdBQUFGWjRx
        MklBQUFBQVZ5ZXZCd0FBQUFCWExBY28KCVB1QUFBRmM5V1NjN285Y0tWMDRzZlFBQUFBQlhVb1NlUHVBQUFGZnZJeFk3bzljS1dJQlZneitBQUFCWWpaKzRQd0FBCglB
        RmpjaDZZQUFBQUFXT0RmeHo3Z0FBQlpBd1VjQUFBQUFGa0hYVDArNEFBQVdhVDBiUUFBQUFCWnFrZHFQbXhPeFZwUAoJUmxrL2dBQUFXazlHZVQrQUFBQmFYTU5OQUFB
        QUFGdEgrN0kvQUFBQVc2ZmZIanVqMXdwYjFQK3dQdmdmZ2x3TkZVSS8KCWdBQUFYSFFHcmorQUFBQmNocG1WUHgySjJWeUd1MTRBQUFBQVhJNXZwajhBQUFCY2owS01Q
        MzY0VWx5VVRWdzlzek16CglYSlJQYlQyek16TmRBZkNBUHdBQUFGMHhDMVlBQUFBQVhUdTdLVDhBQUFCZFZCeDdQeDJKMlYxVVBrUUFBQUFBWFZ0UgoJZkR1ajF3cGRY
        TGU5TzZQWENsMTZKNWNBQUFBQVhlZGZQRDhBQUFCZDZmYnFQd0FBQUYzK2pqd0FBQUFBWGY4bm16K0EKCUFBQmVLTlJpTzZQWENsNDEwQlFBQUFBQVhvd2FSZ0FBQUFC
        ZWtISm5QdUFBQUY3YzdyZy9BQUFBWDIvUUJBQUFBQUJnCglBdG1jUHdBQUFHQkE4dVVBQUFBQVlFVkxCajdnQUFCZ1JzNFBBQUFBQUdFSzFNZ0FBQUFBWVYxeUR6dWox
        d3BoZnRwRQoJUHdBQUFHSDF5NFFBQUFBQVlmb2pwVDdnQUFCaUVrTGVQd0FBQUdKeWV6dy9nQUFBWXViOUpEK0FBQUJpK2FFUlB3QUEKCUFHTUttMndBQUFBQVkwcnFU
        Z0FBQUFCalN1cFBBQUFBQUdOSzZsQUFBQUFBWTBycVVRQUFBQUJqU3VwU0FBQUFBR05LCgk2bE1BQUFBQVkwcnFWQUFBQUFCalN1cFZBQUFBQUdOSzZsWUFBQUFBWTBy
        cVZ3QUFBQUJqUzE2dEFBQUFBR05MWHE0QQoJQUFBQVkwdGVyd0FBQUFCalMxNndBQUFBQUdOTFhyRUFBQUFBWTB0ZXNnQUFBQUJqUzE2ekFBQUFBR05MWHJRQUFBQUEK
        CVkwdGV0UUFBQUFCalMxNjJBQUFBQUdOTDB3d0FBQUFBWTB2VERRQUFBQUJqUzlNT0FBQUFBR05MMHc4QUFBQUFZMHZUCglFQUFBQUFCalM5TVJBQUFBQUdOTDB4SUFB
        QUFBWTB2VEV3QUFBQUJqUzlNVUFBQUFBR05MMHhVQUFBQUFZMHhIYXdBQQoJQUFCalRFZHNBQUFBQUdOTVIyMEFBQUFBWTB4SGJnQUFBQUJqVEVkdkFBQUFBR05NUjNB
        QUFBQUFZMHhIY1FBQUFBQmoKCVRFZHlBQUFBQUdOTVIzTUFBQUFBWTB4SGRBQUFBQUJqVEx2S0FBQUFBR05NdThzQUFBQUFZMHk3ekFBQUFBQmpUTHZOCglBQUFBQUdO
        TXU4NEFBQUFBWTB5N3p3QUFBQUJqVEx2UUFBQUFBR05NdTlFQUFBQUFZMHk3MGdBQUFBQmpUTHZUQUFBQQoJQUdOTk1Da0FBQUFBWTAwd0tnQUFBQUJqVFRBckFBQUFB
        R05OTUN3QUFBQUFZMDB3TFFBQUFBQmpUVEF1QUFBQUFHTk4KCU1DOEFBQUFBWTAwd01BQUFBQUJqVFRBeEFBQUFBR05OTURJQUFBQUFZMDJraUFBQUFBQmpUYVNKQUFB
        QUFHTk5wSW9BCglBQUFBWTAya2l3QUFBQUJqVGFTTUFBQUFBR05OcEkwQUFBQUFZMDJramdBQUFBQmpUYVNQQUFBQUFHTk5wSkFBQUFBQQoJWTAya2tRQUFBQUJqWUgv
        dkFBQUFBR05nZi9BQUFBQUFZMjZYY0FBQUFBQmpicGR4QUFBQUFHTjhydkVBQUFBQVkzeXUKCThnQUFBQUJqaUE3S1BteE94V09LeG5JQUFBQUFZNHJHY3dBQUFBQmpt
        TjN6QUFBQUFHT1kzZlFBQUFBQVk2YjFkQUFBCglBQUJqcHZWMUFBQUFBR09xQW5FL0FBQUFZNm9DY2o4QUFBQmpxZ0p6UHdBQUFHT3FBblFBQUFBQVk2b0NkUUFBQUFC
        agoJcWdKMlBjek16V09xQW5jN285Y0tZNnFrSXdBQUFBQmpydnhFUHVBQUFHTzFEUFVBQUFBQVk3VU05Z0FBQUFCand5UjIKCUFBQUFBR1BESkhjQUFBQUFZOUU3OXdB
        QUFBQmowVHY0QUFBQUFHUkY4cnM5c3pNelpFWDB6RDJ6TXpOa2k5Q01Qd0FBCglBR1VGd2RvL0hZblpaUVhqb3dBQUFBQmxUOWRGUHdBQUFHVmZmTUlBQUFBQVpXUFU0
        ejdnQUFCbHNET2JBQUFBQUdYYQoJZWNFN285Y0taZXJjb2orQUFBQmwvWFlPUDRBQUFHWVJxYVlBQUFBQVpoTlNMZ0FBQUFCbVgxNktQNEFBQUdjVVZXRUEKCUFBQUFa
        eGl0Z2o3Z0FBQm5IeXd2TzZQWENtYzlWOEEvZ0FBQVo2eXVhZ0FBQUFCbjlhbU1BQUFBQUdnVjdoazdvOWNLCglhSnJWSXo4QUFBQm91RnFxTzZQWENtaTRmMkUvQUFB
        QWFNa3VBQUFBQUFCb3pZWWhQdUFBQUdwdE0wazdvOWNLYW40RwoJbndBQUFBQnFnbDdBUHVBQUFHcWhtSW8vZ0FBQWFxR1lxaitBQUFCckNIMjBQeDJKMldzSW4zMEFB
        QUFBYXpoVFBUN3MKCVRzVnJzdTkxQUFBQUFHdTVhSDAvQUFBQWE5MDFtenVqMXdwcjhiRG5Qd0FBQUd3aUMrZzdvOWNLYkRMZlBnQUFBQUJzCglNNUlYTzZQWENtdzNO
        MTgrNEFBQWJNVEVoRCtBQUFCdDU3ZmRBQUFBQUczc0QvNCs0QUFBYnRTQndEdWoxd3B3VVlSRAoJUDRBQUFIQ0pXbDg3bzljS2NWaTVieitBQUFCeHc4ZU9BQUFBQUhI
        SjRROEFBQUFBY2w3YVdBQUFBQUJ5dWlNVFB4MkoKCTJYSzZSTndBQUFBQWN1bjRuRDdzVHNWelpKVFVBQUFBQUhPSHBmay9IWW5aYzRmSHdnQUFBQUJ6anRyNk82UFhD
        bk9QCglQRjAvQUFBQWMvUFMwVDc0SDRKei9JanBQNEFBQUhReUY3b0FBQUFBZEZ4ZDREdWoxd3AwYnc1Q1B3QUFBSFRLeWlzQQoJQUFBQWRPMXNMVDkrdUZKMUp2dndQ
        d0FBQUhVbSsvRS9BQUFBZFNiNzhqOEFBQUIxSnZ2ekFBQUFBSFVtKy9RQUFBQUEKCWRTYjc5VDNNek0xMUp2djJPNlBYQ25ZSXlncy9BQUFBZHJicVBUK0FBQUIyKzhI
        WlB3QUFBSGNyYkNVL2dBQUFkMi8zCglYajhBQUFCM2pxTWxBQUFBQUhmTWZjcytiRTdGZUc3cW9EOEFBQUI0bjRkdVB3QUFBSGtkZm40L2dBQUFlUjRmVkFBQQoJQUFC
        NUhoOTBBQUFBQUhrcHAra0FBQUFBZWk5TG96K0FBQUI2TVJYL1B3QUFBSHBtNi9vL2dBQUFlckNtQno4QUFBQjYKCTFNVElQNEFBQUhyaUtNOC9nQUFBZXVRSEpqOEFB
        QUI3T1V0WVB4MkoyWHM1YlNFQUFBQUFlOGpWa2o4QUFBQjd5TldUCglQd0FBQUh2STFaUS9BQUFBZThqVmxRQUFBQUI3eU5XV0FBQUFBSHZJMVpjOXpNek5lOGpWbUR1
        ajF3cDc0NzBaQUFBQQoJQUh3T0F6ODdvOWNLZlc2cVpqOEFBQUI5Z0cvd0FBQUFBSDRZYXNJL0FBQUFmOHVCaXdBQUFBQT0KCTwvZGF0YT4KCTxrZXk+ZWxlbWVudC1u
        YW1lPC9rZXk+Cgk8ZGljdD4KCQk8a2V5PjE8L2tleT4KCQk8ZGljdD4KCQkJPGtleT4wPC9rZXk+CgkJCTxzdHJpbmc+U2lkZWNoYWluPC9zdHJpbmc+CgkJPC9kaWN0
        PgoJCTxrZXk+Mjwva2V5PgoJCTxkaWN0PgoJCQk8a2V5PjA8L2tleT4KCQkJPHN0cmluZz5PdXRwdXQ8L3N0cmluZz4KCQkJPGtleT4xPC9rZXk+CgkJCTxzdHJpbmc+
        U2NlbmUgQTwvc3RyaW5nPgoJCQk8a2V5PjI8L2tleT4KCQkJPHN0cmluZz5TY2VuZSBCPC9zdHJpbmc+CgkJPC9kaWN0PgoJPC9kaWN0PgoJPGtleT5qdWNlUGx1Z2lu
        U3RhdGU8L2tleT4KCTxkYXRhPgoJYzNWaU05TFdBQUFNZ0FBQURJQUFBQUFBQUFBTVB3QUFEQVlBQUFBQUFBQThQM2h0YkNCMlpYSnphVzl1UFNJeExqQWkKCUlHVnVZ
        MjlrYVc1blBTSlZWRVl0T0NJZ2MzUmhibVJoYkc5dVpUMGllV1Z6SWlBL1BqeHdZWFJqYUNCeVpYWnBjMmx2CgliajBpTWpJaVBqeHRaWFJoSUc1aGJXVTlJbEIxY25C
        c1pTQlBZMlZoYmlJZ1kyRjBaV2R2Y25rOUlrNXBZMnNnVFc5eQoJYVhSNkwxQmhaSE1pSUdOdmJXMWxiblE5SWlBZ0lDQWdJQ0FnSUNBZ0lDQWdJQ0FnSUNBZ0lDQWdJ
        Q0FnSUNBZ0lDQWcKCUlDQWdJQ0FnSUNBZ0lDQWdMam82SUU1cFkyc2dUVzl5YVhSNklEbzZMaVlqZURCRU95WWplREJCT3kwZ0xTQXRJQzBnCglMU0F0SUMwZ0xTQXRJ
        QzBnTFNBdElDMGdMU0F0SUMwZ0xTQWdXeUJ1YVdOcmJXOXlhWFI2UUcxaGFXd3VjblVnWFNBdAoJSUMwZ0xTQXRJQzBnTFNBdElDMGdMU0F0SUMwZ0xTQXRJQzBnTFNB
        dElDMGdMU0F0SUMwZ0xTSWdZWFYwYUc5eVBTSk8KCWFXTnJJRTF2Y21sMGVpSWdiR2xqWlc1elpUMGlJajQ4ZEdGbmN5QXZQand2YldWMFlUNDhjR0Z5WVcxbGRHVnlj
        ejQ4CglkbTlzZFcxbFgwWllNU0IwZVhCbFBTSXlJaUIyWVd4MVpUMGlNUzR3TURBd01EQXdNREF3TURBd01DSWdMejQ4ZG05cwoJZFcxbFgwWllNaUIwZVhCbFBTSXlJ
        aUIyWVd4MVpUMGlNUzR3TURBd01EQXdNREF3TURBd01DSWdMejQ4ZG05c2RXMWwKCVgwWllNeUIwZVhCbFBTSXlJaUIyWVd4MVpUMGlNUzR3TURBd01EQXdNREF3TURB
        d01DSWdMejQ4ZG05c2RXMWxYMFpZCglOQ0IwZVhCbFBTSXlJaUIyWVd4MVpUMGlNUzR3TURBd01EQXdNREF3TURBd01DSWdMejQ4ZG05c2RXMWxJSFI1Y0dVOQoJSWpJ
        aUlIWmhiSFZsUFNJd0xqQXdNREF3TURBd01EQXdNREF3SWlBdlBqeHpZMlZ1WlY5aFkzUnBkbVVnZEhsd1pUMGkKCU1DSWdkbUZzZFdVOUlqQWlJQzgrUEhOalpXNWxi
        VzlrWlNCMGVYQmxQU0l3SWlCMllXeDFaVDBpTUNJZ0x6NDhjM0JzCglhWFJyWlhrZ2RIbHdaVDBpTUNJZ2RtRnNkV1U5SWpZd0lpQXZQanhtZUY5a2FYTmhZbXhsSUhS
        NWNHVTlJakFpSUhaaAoJYkhWbFBTSXdJaUF2UGp4d2IyeDViR2x0YVhRZ2RIbHdaVDBpTUNJZ2RtRnNkV1U5SWpFMklpQXZQanhtZUY5aWVYQmgKCWMzTWdkSGx3WlQw
        aU1DSWdkbUZzZFdVOUlqQWlJQzgrUEdaNE1WOTBlWEJsSUhSNWNHVTlJakFpSUhaaGJIVmxQU0kyCglJaUF2UGp4bWVERmZjREFnZEhsd1pUMGlNaUlnZG1Gc2RXVTlJ
        aTAyTGpZNE5UY3hPVEF4TXpJeE5ERXhJaUJrWldGagoJZEdsMllYUmxaRDBpTUNJZ0x6NDhabmd4WDNBeElIUjVjR1U5SWpJaUlIWmhiSFZsUFNJdE5TNHpNVFF5TnpB
        d01UazEKCU16RXlOU0lnTHo0OFpuZ3hYM0F5SUhSNWNHVTlJaklpSUhaaGJIVmxQU0l3TGpZeU1EVXpOVEF4TmpBMU9UZzRJaUF2CglQanhtZURGZmNETWdkSGx3WlQw
        aU1pSWdkbUZzZFdVOUlpMHhOUzQyT0RVM01qSXpOVEV3TnpReU1pSWdaR1ZoWTNScAoJZG1GMFpXUTlJakFpSUM4K1BHWjRNVjl3TkNCMGVYQmxQU0l5SWlCMllXeDFa
        VDBpTFRNdU5EQXhOemczTURReU5qRTMKCU9EQWlQanh0YjJSeWIzVjBhVzVuSUhOdmRYSmpaVDBpTWpjaUlHUmxjSFJvUFNJek1pNHpPRE01TWlJZ2JYVjBaV1E5CglJ
        akFpSUhOdmRYSmpaVjlwYm1SbGVEMGlNQ0lnYzI5MWNtTmxYM05qWlc1bFBTSXdJaUF2UGp3dlpuZ3hYM0EwUGp4bQoJZURGZmNEVWdkSGx3WlQwaU1pSWdkbUZzZFdV
        OUlqRXVOak00TXpreE9UY3hOVGc0TVRNaUlDOCtQR1o0TVY5d05pQjAKCWVYQmxQU0l5SWlCMllXeDFaVDBpTFRJdU9ESTROVGd6TURBeU1Ea3dORFVpSUdSbFlXTjBh
        WFpoZEdWa1BTSXdJaUF2CglQanhtZURGZmNEY2dkSGx3WlQwaU1pSWdkbUZzZFdVOUlqUTRMakF3TURBeU1qZzRPREU0TXpVNUlpQXZQanhtZURGZgoJY0RnZ2RIbHda
        VDBpTWlJZ2RtRnNkV1U5SWpFdU5UWTJPVFkwT1Rnek9UUXdNVElpSUM4K1BHWjRNVjl3T1NCMGVYQmwKCVBTSXlJaUIyWVd4MVpUMGlOQzR4TVRReU9EYzROVE15TkRB
        NU55SWdMejQ4Wm5neFgzQXhNQ0IwZVhCbFBTSXlJaUIyCglZV3gxWlQwaU1TNHdNREF3TURBd01EQXdNREF3TUNJZ0x6NDhabmd4WDNBeE1TQjBlWEJsUFNJd0lpQjJZ
        V3gxWlQwaQoJTUNJZ0x6NDhabmcxWDNSNWNHVWdkSGx3WlQwaU1DSWdkbUZzZFdVOUlqSWlJQzgrUEdaNE5WOXdNQ0IwZVhCbFBTSXkKCUlpQjJZV3gxWlQwaUxUUXVO
        alkyTURjeU9EUTFORFU0T1RnaUlDOCtQR1o0TlY5d01TQjBlWEJsUFNJd0lpQjJZV3gxCglaVDBpTWlJZ0x6NDhabmcxWDNBeUlIUjVjR1U5SWpJaUlIWmhiSFZsUFNJ
        d0xqZ3dOVE0xTmpBeU5UWTVOVGd3SWlBdgoJUGp4bWVEVmZjRE1nZEhsd1pUMGlNaUlnZG1Gc2RXVTlJakV1TlRBME5EWTBNRE13TWpZMU9ERWlJQzgrUEdaNE5WOXcK
        CU5DQjBlWEJsUFNJeUlpQjJZV3gxWlQwaU1DNHlOemcxTnpFd01EazJNelU1TXlJZ0x6NDhabmcxWDNBMUlIUjVjR1U5CglJaklpSUhaaGJIVmxQU0l0TVRRdU56azJO
        RFF6T1RNNU1qQTRPVGdpSUdSbFlXTjBhWFpoZEdWa1BTSXdJaUF2UGp4bQoJZURWZmNEWWdkSGx3WlQwaU1pSWdkbUZzZFdVOUlqQXVNREF3TURBd01EQXdNREF3TURB
        aUlDOCtQR1o0TlY5d055QjAKCWVYQmxQU0l5SWlCMllXeDFaVDBpTFRndU1qSTROVGMyTmpZd01UVTJNalVpSUM4K1BHWjROVjl3T0NCMGVYQmxQU0l5CglJaUIyWVd4
        MVpUMGlOREF1TkRrME5qSTRPVEEyTWpVd01EQWlJR1JsWVdOMGFYWmhkR1ZrUFNJd0lpQXZQanhtZURWZgoJY0RrZ2RIbHdaVDBpTWlJZ2RtRnNkV1U5SWpFdU1EQXdN
        REF3TURBd01EQXdNREFpSUM4K1BHWjROVjl3TVRBZ2RIbHcKCVpUMGlNaUlnZG1Gc2RXVTlJamN1TXpJNE5UYzFNVE0wTWpjM016UWlJQzgrUEdaNE5WOXdNVEVnZEhs
        d1pUMGlNQ0lnCglkbUZzZFdVOUlqQWlJQzgrUEdaNE5sOTBlWEJsSUhSNWNHVTlJakFpSUhaaGJIVmxQU0l4SWlBdlBqeG1lRFpmY0RBZwoJZEhsd1pUMGlNaUlnZG1G
        c2RXVTlJaTB5TGpBd01EQXdNREF3TURBd01EQXdJaUIwWlcxd2IzTjVibU05SWpFaUlDOCsKCVBHWjRObDl3TVNCMGVYQmxQU0l5SWlCMllXeDFaVDBpTFRBdU5ERTFN
        RE0zT1RnNU5qRTJNemtpSUhSbGJYQnZjM2x1CglZejBpTVNJZ1pHVmhZM1JwZG1GMFpXUTlJakFpSUM4K1BHWjRObDl3TWlCMGVYQmxQU0l5SWlCMllXeDFaVDBpTUM0
        eQoJT1RFNU5qTTVPVFExTURNd01pSWdaWGgwWlc1a1gzSmhibWRsUFNJd0lpQmtaV1p2Y20xZmRIbHdaVDBpTVNJZ0x6NDgKCVpuZzJYM0F6SUhSNWNHVTlJaklpSUha
        aGJIVmxQU0l3TGpnek1ETTFOekF4TlRFek1qa3dJaUJsZUhSbGJtUmZjbUZ1CglaMlU5SWpBaUlDOCtQR1o0Tmw5d05DQjBlWEJsUFNJeUlpQjJZV3gxWlQwaU1UQXVP
        VFkyTVRBeU5qQXdNRGszTmpZaQoJSUdSbFlXTjBhWFpoZEdWa1BTSXdJaUF2UGp4bWVEWmZjRFVnZEhsd1pUMGlNaUlnZG1Gc2RXVTlJalF6TGprd01UYzMKCU5UTTJN
        REV3TnpReUlpQmtaV0ZqZEdsMllYUmxaRDBpTUNJZ0x6NDhabmcyWDNBMklIUjVjR1U5SWpJaUlIWmhiSFZsCglQU0l0TVM0eE56azBOak13TWpnNU1EYzNPQ0lnTHo0
        OFpuZzJYM0EzSUhSNWNHVTlJaklpSUhaaGJIVmxQU0l3TGpBNQoJTVRBM01UQXdNakU0TlRNMElpQmxlSFJsYm1SZmNtRnVaMlU5SWpBaUlDOCtQR1o0Tmw5d09DQjBl
        WEJsUFNJeUlpQjIKCVlXeDFaVDBpTUM0d01EQXdNREF3TURBd01EQXdNQ0lnTHo0OFpuZzJYM0E1SUhSNWNHVTlJakFpSUhaaGJIVmxQU0l3CglJaUF2UGp4bWVEWmZj
        REV3SUhSNWNHVTlJaklpSUhaaGJIVmxQU0l4TGpBd01EQXdNREF3TURBd01EQXdJaUF2UGp4bQoJZURaZmNERXhJSFI1Y0dVOUlqSWlJSFpoYkhWbFBTSXdMakF3TURB
        d01EQXdNREF3TURBd0lpQXZQanhoWDI5amRHRjIKCVpTQjBlWEJsUFNJd0lpQjJZV3gxWlQwaU1DSWdMejQ4WVY5d2FYUmphQ0IwZVhCbFBTSXlJaUIyWVd4MVpUMGlN
        QzR3CglNREF3TURBd01EQXdNREF3TUNJZ1pYaDBaVzVrWDNKaGJtZGxQU0l3SWlBdlBqeGhYM0J2Y25SaGJXVnVkRzhnZEhsdwoJWlQwaU1pSWdkbUZzZFdVOUlpMDNM
        amcyTmpBM01USXlOREl4TWpZMUlpQndiM0owWVY5amIyNXpkRjl5WVhSbFBTSXcKCUlpQndiM0owWVY5bmJHbHpjejBpTUNJZ2NHOXlkR0ZmY21WMGNtbG5aMlZ5UFNJ
        d0lpQndiM0owWVY5amRYSjJaVDBpCglNQ0lnTHo0OFlWOXZjMk14WDNSNWNHVWdkSGx3WlQwaU1DSWdkbUZzZFdVOUlqSWlJQzgrUEdGZmIzTmpNVjl2WTNSaAoJZG1V
        Z2RIbHdaVDBpTUNJZ2RtRnNkV1U5SWpFaUlDOCtQR0ZmYjNOak1WOXdhWFJqYUNCMGVYQmxQU0l5SWlCMllXeDEKCVpUMGlNQzR3TURBd01EQXdNREF3TURBd01DSWda
        WGgwWlc1a1gzSmhibWRsUFNJd0lqNDhiVzlrY205MWRHbHVaeUJ6CgliM1Z5WTJVOUlqSTBJaUJrWlhCMGFEMGlNUzR3TmpnM05TSWdiWFYwWldROUlqQWlJSE52ZFhK
        alpWOXBibVJsZUQwaQoJTUNJZ0x6NDhMMkZmYjNOak1WOXdhWFJqYUQ0OFlWOXZjMk14WDNCaGNtRnRNQ0IwZVhCbFBTSXlJaUIyWVd4MVpUMGkKCU1DNHdNREF3TURB
        d01EQXdNREF3TUNJZ1pYaDBaVzVrWDNKaGJtZGxQU0l4SWlBdlBqeGhYMjl6WXpGZmNHRnlZVzB4CglJSFI1Y0dVOUlqSWlJSFpoYkhWbFBTSXdMakF3TURBd01EQXdN
        REF3TURBd0lpQXZQanhoWDI5ell6RmZjR0Z5WVcweQoJSUhSNWNHVTlJaklpSUhaaGJIVmxQU0l3TGpBd01EQXdNREF3TURBd01EQXdJaUF2UGp4aFgyOXpZekZmY0dG
        eVlXMHoKCUlIUjVjR1U5SWpJaUlIWmhiSFZsUFNJd0xqQXdNREF3TURBd01EQXdNREF3SWlBdlBqeGhYMjl6WXpGZmNHRnlZVzAwCglJSFI1Y0dVOUlqSWlJSFpoYkhW
        bFBTSXdMakF3TURBd01EQXdNREF3TURBd0lpQXZQanhoWDI5ell6RmZjR0Z5WVcwMQoJSUhSNWNHVTlJaklpSUhaaGJIVmxQU0l3TGpBM05ERXdOams1T0RjME1UWXpJ
        aUJsZUhSbGJtUmZjbUZ1WjJVOUlqQWkKCUlDOCtQR0ZmYjNOak1WOXdZWEpoYlRZZ2RIbHdaVDBpTUNJZ2RtRnNkV1U5SWpJaUlDOCtQR0ZmYjNOak1WOXJaWGwwCglj
        bUZqYXlCMGVYQmxQU0l3SWlCMllXeDFaVDBpTVNJZ0x6NDhZVjl2YzJNeFgzSmxkSEpwWjJkbGNpQjBlWEJsUFNJdwoJSWlCMllXeDFaVDBpTVNJZ0x6NDhZVjl2YzJN
        eVgzUjVjR1VnZEhsd1pUMGlNQ0lnZG1Gc2RXVTlJaklpSUM4K1BHRmYKCWIzTmpNbDl2WTNSaGRtVWdkSGx3WlQwaU1DSWdkbUZzZFdVOUlqSWlJQzgrUEdGZmIzTmpN
        bDl3YVhSamFDQjBlWEJsCglQU0l5SWlCMllXeDFaVDBpTnk0d01EQXdNREF3TURBd01EQXdNQ0lnWlhoMFpXNWtYM0poYm1kbFBTSXdJajQ4Ylc5awoJY205MWRHbHVa
        eUJ6YjNWeVkyVTlJakkxSWlCa1pYQjBhRDBpTFRBdU1qWXlOU0lnYlhWMFpXUTlJakFpSUhOdmRYSmoKCVpWOXBibVJsZUQwaU1DSWdMejQ4Ylc5a2NtOTFkR2x1WnlC
        emIzVnlZMlU5SWpJMElpQmtaWEIwYUQwaU1TNHdOamczCglOU0lnYlhWMFpXUTlJakFpSUhOdmRYSmpaVjlwYm1SbGVEMGlNQ0lnTHo0OEwyRmZiM05qTWw5d2FYUmph
        RDQ4WVY5dgoJYzJNeVgzQmhjbUZ0TUNCMGVYQmxQU0l5SWlCMllXeDFaVDBpTUM0d01EQXdNREF3TURBd01EQXdNQ0lnWlhoMFpXNWsKCVgzSmhibWRsUFNJeElpQXZQ
        anhoWDI5ell6SmZjR0Z5WVcweElIUjVjR1U5SWpJaUlIWmhiSFZsUFNJdE1DNDJOall3CglOekl3TVRBNU9UTTVOaUlnTHo0OFlWOXZjMk15WDNCaGNtRnRNaUIwZVhC
        bFBTSXlJaUIyWVd4MVpUMGlNQzR3TURBdwoJTURBd01EQXdNREF3TUNJZ0x6NDhZVjl2YzJNeVgzQmhjbUZ0TXlCMGVYQmxQU0l5SWlCMllXeDFaVDBpT1M0ME9ESXgK
        CU5EVXpNRGswTkRneU5DSWdMejQ4WVY5dmMyTXlYM0JoY21GdE5DQjBlWEJsUFNJeUlpQjJZV3gxWlQwaU1DNHdNREF3CglNREF3TURBd01EQXdNQ0lnTHo0OFlWOXZj
        Mk15WDNCaGNtRnROU0IwZVhCbFBTSXlJaUIyWVd4MVpUMGlNQzR3TnpReAoJTURZNU9UZzNOREUyTXlJZ1pYaDBaVzVrWDNKaGJtZGxQU0l3SWlBdlBqeGhYMjl6WXpK
        ZmNHRnlZVzAySUhSNWNHVTkKCUlqQWlJSFpoYkhWbFBTSXhJaUF2UGp4aFgyOXpZekpmYTJWNWRISmhZMnNnZEhsd1pUMGlNQ0lnZG1Gc2RXVTlJakVpCglJQzgrUEdG
        ZmIzTmpNbDl5WlhSeWFXZG5aWElnZEhsd1pUMGlNQ0lnZG1Gc2RXVTlJakVpSUM4K1BHRmZiM05qTTE5MAoJZVhCbElIUjVjR1U5SWpBaUlIWmhiSFZsUFNJd0lpQXZQ
        anhoWDI5ell6TmZiMk4wWVhabElIUjVjR1U5SWpBaUlIWmgKCWJIVmxQU0l3SWlBdlBqeGhYMjl6WXpOZmNHbDBZMmdnZEhsd1pUMGlNaUlnZG1Gc2RXVTlJakF1TURB
        d01EQXdNREF3CglNREF3TURBaUlHVjRkR1Z1WkY5eVlXNW5aVDBpTUNJZ0x6NDhZVjl2YzJNelgzQmhjbUZ0TUNCMGVYQmxQU0l5SWlCMgoJWVd4MVpUMGlNQzR3TURB
        d01EQXdNREF3TURBd01DSWdMejQ4WVY5dmMyTXpYM0JoY21GdE1TQjBlWEJsUFNJeUlpQjIKCVlXeDFaVDBpTUM0MU1EQXdNREF3TURBd01EQXdNQ0lnTHo0OFlWOXZj
        Mk16WDNCaGNtRnRNaUIwZVhCbFBTSXlJaUIyCglZV3gxWlQwaU1DNHdNREF3TURBd01EQXdNREF3TUNJZ0x6NDhZVjl2YzJNelgzQmhjbUZ0TXlCMGVYQmxQU0l5SWlC
        MgoJWVd4MVpUMGlNQzR3TURBd01EQXdNREF3TURBd01DSWdMejQ4WVY5dmMyTXpYM0JoY21GdE5DQjBlWEJsUFNJeUlpQjIKCVlXeDFaVDBpTUM0d01EQXdNREF3TURB
        d01EQXdNQ0lnTHo0OFlWOXZjMk16WDNCaGNtRnROU0IwZVhCbFBTSXlJaUIyCglZV3gxWlQwaU1DNHlNREF3TURBd01ESTVPREF5TXlJZ1pYaDBaVzVrWDNKaGJtZGxQ
        U0l3SWlBdlBqeGhYMjl6WXpOZgoJY0dGeVlXMDJJSFI1Y0dVOUlqQWlJSFpoYkhWbFBTSXhJaUF2UGp4aFgyOXpZek5mYTJWNWRISmhZMnNnZEhsd1pUMGkKCU1DSWdk
        bUZzZFdVOUlqRWlJQzgrUEdGZmIzTmpNMTl5WlhSeWFXZG5aWElnZEhsd1pUMGlNQ0lnZG1Gc2RXVTlJakFpCglJQzgrUEdGZmNHOXNlVzF2WkdVZ2RIbHdaVDBpTUNJ
        Z2RtRnNkV1U5SWpBaUlDOCtQR0ZmWm0xZmMzZHBkR05vSUhSNQoJY0dVOUlqQWlJSFpoYkhWbFBTSXdJaUF2UGp4aFgyWnRYMlJsY0hSb0lIUjVjR1U5SWpJaUlIWmhi
        SFZsUFNJd0xqQXcKCU1EQXdNREF3TURBd01EQXdJaUF2UGp4aFgyUnlhV1owSUhSNWNHVTlJaklpSUhaaGJIVmxQU0l3TGpBd01EQXdNREF3CglNREF3TURBd0lpQmxl
        SFJsYm1SZmNtRnVaMlU5SWpBaUlDOCtQR0ZmYm05cGMyVmpiMndnZEhsd1pUMGlNaUlnZG1GcwoJZFdVOUlpMHdMamcyTmpBM01EazROVGM1TkRBM0lpQmtaV1p2Y20x
        ZmRIbHdaVDBpTUNJK1BHMXZaSEp2ZFhScGJtY2cKCWMyOTFjbU5sUFNJeU5pSWdaR1Z3ZEdnOUlqQXVNamc1TWpnMklpQnRkWFJsWkQwaU1DSWdjMjkxY21ObFgybHVa
        R1Y0CglQU0l3SWlBdlBqd3ZZVjl1YjJselpXTnZiRDQ4WVY5cmRISnJjbTl2ZENCMGVYQmxQU0l3SWlCMllXeDFaVDBpTmpBaQoJSUM4K1BHRmZkbTlzZFcxbElIUjVj
        R1U5SWpJaUlIWmhiSFZsUFNJeExqQXdNREF3TURBd01EQXdNREF3SWlCa1pXRmoKCWRHbDJZWFJsWkQwaU1DSWdMejQ4WVY5d1lXNGdkSGx3WlQwaU1pSWdkbUZzZFdV
        OUlqQXVNREF3TURBd01EQXdNREF3CglNREFpSUM4K1BHRmZjR0Z1TWlCMGVYQmxQU0l5SWlCMllXeDFaVDBpTVM0d01EQXdNREF3TURBd01EQXdNQ0lnTHo0OAoJWVY5
        elpXNWtYMlo0WHpFZ2RIbHdaVDBpTWlJZ2RtRnNkV1U5SWpBdU56UTBNRGswTURFME1UWTNOemtpSUM4K1BHRmYKCWMyVnVaRjltZUY4eUlIUjVjR1U5SWpJaUlIWmhi
        SFZsUFNJeExqQXlORGN5TkRBd05qWTFNamd6SWlBdlBqeGhYM05sCglibVJmWm5oZk15QjBlWEJsUFNJeUlpQjJZV3gxWlQwaU1DNHdNREF3TURBd01EQXdNREF3TUNJ
        Z0x6NDhZVjl6Wlc1awoJWDJaNFh6UWdkSGx3WlQwaU1pSWdkbUZzZFdVOUlqQXVNREF3TURBd01EQXdNREF3TURBaUlDOCtQR0ZmYkdWMlpXeGYKCWJ6RWdkSGx3WlQw
        aU1pSWdkbUZzZFdVOUlqQXVOVFl3TnpFME1EQTJOREl6T1RVaUlDOCtQR0ZmYlhWMFpWOXZNU0IwCgllWEJsUFNJd0lpQjJZV3gxWlQwaU1DSWdMejQ4WVY5emIyeHZY
        Mjh4SUhSNWNHVTlJakFpSUhaaGJIVmxQU0l3SWlBdgoJUGp4aFgzSnZkWFJsWDI4eElIUjVjR1U5SWpBaUlIWmhiSFZsUFNJeElpQXZQanhoWDJ4bGRtVnNYMjh5SUhS
        NWNHVTkKCUlqSWlJSFpoYkhWbFBTSXdMakk1TWpnMU5qazVNVEk1TVRBMUlpQXZQanhoWDIxMWRHVmZieklnZEhsd1pUMGlNQ0lnCglkbUZzZFdVOUlqQWlJQzgrUEdG
        ZmMyOXNiMTl2TWlCMGVYQmxQU0l3SWlCMllXeDFaVDBpTUNJZ0x6NDhZVjl5YjNWMAoJWlY5dk1pQjBlWEJsUFNJd0lpQjJZV3gxWlQwaU1TSWdMejQ4WVY5c1pYWmxi
        Rjl2TXlCMGVYQmxQU0l5SWlCMllXeDEKCVpUMGlNUzR3TURBd01EQXdNREF3TURBd01DSWdMejQ4WVY5dGRYUmxYMjh6SUhSNWNHVTlJakFpSUhaaGJIVmxQU0l4CglJ
        aUF2UGp4aFgzTnZiRzlmYnpNZ2RIbHdaVDBpTUNJZ2RtRnNkV1U5SWpBaUlDOCtQR0ZmY205MWRHVmZiek1nZEhsdwoJWlQwaU1DSWdkbUZzZFdVOUlqRWlJQzgrUEdG
        ZmJHVjJaV3hmY21sdVp6RXlJSFI1Y0dVOUlqSWlJSFpoYkhWbFBTSXgKCUxqQXdNREF3TURBd01EQXdNREF3SWlCa1pXWnZjbTFmZEhsd1pUMGlNQ0lnTHo0OFlWOXRk
        WFJsWDNKcGJtY3hNaUIwCgllWEJsUFNJd0lpQjJZV3gxWlQwaU1TSWdMejQ4WVY5emIyeHZYM0pwYm1jeE1pQjBlWEJsUFNJd0lpQjJZV3gxWlQwaQoJTUNJZ0x6NDhZ
        Vjl5YjNWMFpWOXlhVzVuTVRJZ2RIbHdaVDBpTUNJZ2RtRnNkV1U5SWpFaUlDOCtQR0ZmYkdWMlpXeGYKCWNtbHVaekl6SUhSNWNHVTlJaklpSUhaaGJIVmxQU0l4TGpB
        d01EQXdNREF3TURBd01EQXdJaUJrWldadmNtMWZkSGx3CglaVDBpTUNJZ0x6NDhZVjl0ZFhSbFgzSnBibWN5TXlCMGVYQmxQU0l3SWlCMllXeDFaVDBpTVNJZ0x6NDhZ
        Vjl6YjJ4dgoJWDNKcGJtY3lNeUIwZVhCbFBTSXdJaUIyWVd4MVpUMGlNQ0lnTHo0OFlWOXliM1YwWlY5eWFXNW5Nak1nZEhsd1pUMGkKCU1DSWdkbUZzZFdVOUlqRWlJ
        QzgrUEdGZmJHVjJaV3hmYm05cGMyVWdkSGx3WlQwaU1pSWdkbUZzZFdVOUlqQXVNekF3CglNREF3TURFeE9USXdPVE1pSUM4K1BHRmZiWFYwWlY5dWIybHpaU0IwZVhC
        bFBTSXdJaUIyWVd4MVpUMGlNQ0lnTHo0OAoJWVY5emIyeHZYMjV2YVhObElIUjVjR1U5SWpBaUlIWmhiSFZsUFNJd0lpQXZQanhoWDNKdmRYUmxYMjV2YVhObElIUjUK
        CWNHVTlJakFpSUhaaGJIVmxQU0l4SWlBdlBqeGhYMnhsZG1Wc1gzQm1aeUIwZVhCbFBTSXlJaUIyWVd4MVpUMGlNQzR3CglNREF3TURBd01EQXdNREF3TUNJZ0x6NDhZ
        Vjl3WW5KaGJtZGxYM1Z3SUhSNWNHVTlJakFpSUhaaGJIVmxQU0l5SWlCbAoJZUhSbGJtUmZjbUZ1WjJVOUlqQWlJQzgrUEdGZmNHSnlZVzVuWlY5a2JpQjBlWEJsUFNJ
        d0lpQjJZV3gxWlQwaU1pSWcKCVpYaDBaVzVrWDNKaGJtZGxQU0l3SWlBdlBqeGhYM1pqWVY5c1pYWmxiQ0IwZVhCbFBTSXlJaUIyWVd4MVpUMGlNQzR3CglNREF3TURB
        d01EQXdNREF3TUNJZ0x6NDhZVjkyWTJGZmRtVnNjMlZ1YzJVZ2RIbHdaVDBpTWlJZ2RtRnNkV1U5SWpBdQoJTURBd01EQXdNREF3TURBd01EQWlJQzgrUEdGZlptVmxa
        R0poWTJzZ2RIbHdaVDBpTWlJZ2RtRnNkV1U5SWpBdU1EQXcKCU1EQXdNREF3TURBd01EQWlJR1Y0ZEdWdVpGOXlZVzVuWlQwaU1DSWdaR1ZtYjNKdFgzUjVjR1U5SWpB
        aUlDOCtQR0ZmCglabUpmWTI5dVptbG5JSFI1Y0dVOUlqQWlJSFpoYkhWbFBTSXdJaUF2UGp4aFgyWmZZbUZzWVc1alpTQjBlWEJsUFNJeQoJSWlCMllXeDFaVDBpTUM0
        d01EQXdNREF3TURBd01EQXdNQ0lnTHo0OFlWOXNiM2RqZFhRZ2RIbHdaVDBpTWlJZ2RtRnMKCWRXVTlJaTAzTWk0d01EQXdNREF3TURBd01EQXdNQ0lnWkdWaFkzUnBk
        bUYwWldROUlqQWlJR1JsWm05eWJWOTBlWEJsCglQU0l3SWlBdlBqeGhYM2R6WDNSNWNHVWdkSGx3WlQwaU1DSWdkbUZzZFdVOUlqRWlJR1JsWVdOMGFYWmhkR1ZrUFNJ
        dwoJSWlBdlBqeGhYM2R6WDJSeWFYWmxJSFI1Y0dVOUlqSWlJSFpoYkhWbFBTSXhNaTR6TkRJNE5qUTVPVEF5TXpRek9DSWcKCVpYaDBaVzVrWDNKaGJtZGxQU0l3SWlB
        dlBqeGhYMlpwYkhSbGNqRmZkSGx3WlNCMGVYQmxQU0l3SWlCMllXeDFaVDBpCglNaUlnWkdWaFkzUnBkbUYwWldROUlqQWlJQzgrUEdGZlptbHNkR1Z5TVY5emRXSjBl
        WEJsSUhSNWNHVTlJakFpSUhaaAoJYkhWbFBTSXdJaUF2UGp4aFgyWnBiSFJsY2pGZlkzVjBiMlptSUhSNWNHVTlJaklpSUhaaGJIVmxQU0kyT0M0NU5UVXoKCU5USTNP
        RE15TURNeE1pSWdaWGgwWlc1a1gzSmhibWRsUFNJd0lpQXZQanhoWDJacGJIUmxjakZmY21WemIyNWhibU5sCglJSFI1Y0dVOUlqSWlJSFpoYkhWbFBTSXdMakF3TURB
        d01EQXdNREF3TURBd0lpQXZQanhoWDJacGJIUmxjakZmWlc1MgoJYlc5a0lIUjVjR1U5SWpJaUlIWmhiSFZsUFNJM09DNHhOekUwTnpneU56RTBPRFF6T0NJZ0x6NDhZ
        VjltYVd4MFpYSXgKCVgydGxlWFJ5WVdOcklIUjVjR1U5SWpJaUlIWmhiSFZsUFNJd0xqQXdNREF3TURBd01EQXdNREF3SWlBdlBqeGhYMlpwCgliSFJsY2pKZmRIbHda
        U0IwZVhCbFBTSXdJaUIyWVd4MVpUMGlOU0lnWkdWaFkzUnBkbUYwWldROUlqQWlJQzgrUEdGZgoJWm1sc2RHVnlNbDl6ZFdKMGVYQmxJSFI1Y0dVOUlqQWlJSFpoYkhW
        bFBTSXdJaUF2UGp4aFgyWnBiSFJsY2pKZlkzVjAKCWIyWm1JSFI1Y0dVOUlqSWlJSFpoYkhWbFBTSXRNVFF1TURZeU5URXhORFEwTURreE9EQWlJR1Y0ZEdWdVpGOXlZ
        VzVuCglaVDBpTUNJZ0x6NDhZVjltTWw5alpsOXBjMTl2Wm1aelpYUWdkSGx3WlQwaU1DSWdkbUZzZFdVOUlqQWlJQzgrUEdGZgoJWm1sc2RHVnlNbDl5WlhOdmJtRnVZ
        MlVnZEhsd1pUMGlNaUlnZG1Gc2RXVTlJakF1TURBd01EQXdNREF3TURBd01EQWkKCUlDOCtQR0ZmWmpKZmJHbHVhMTl5WlhOdmJtRnVZMlVnZEhsd1pUMGlNQ0lnZG1G
        c2RXVTlJakFpSUM4K1BHRmZabWxzCglkR1Z5TWw5bGJuWnRiMlFnZEhsd1pUMGlNaUlnZG1Gc2RXVTlJakF1TURBd01EQXdNREF3TURBd01EQWlJQzgrUEdGZgoJWm1s
        c2RHVnlNbDlyWlhsMGNtRmpheUIwZVhCbFBTSXlJaUIyWVd4MVpUMGlNQzR3TURBd01EQXdNREF3TURBd01DSWcKCUx6NDhZVjlsYm5ZeFgyRjBkR0ZqYXlCMGVYQmxQ
        U0l5SWlCMllXeDFaVDBpTFRZdU9ERTJNRGN4T1RnM01UVXlNVEFpCglJQzgrUEdGZlpXNTJNVjloZEhSaFkydGZjMmhoY0dVZ2RIbHdaVDBpTUNJZ2RtRnNkV1U5SWpJ
        aUlDOCtQR0ZmWlc1MgoJTVY5a1pXTmhlU0IwZVhCbFBTSXlJaUIyWVd4MVpUMGlMVEl1TURFNU5qUXpNRFk0TXpFek5qQWlJQzgrUEdGZlpXNTIKCU1WOWtaV05oZVY5
        emFHRndaU0IwZVhCbFBTSXdJaUIyWVd4MVpUMGlNaUlnTHo0OFlWOWxibll4WDNOMWMzUmhhVzRnCglkSGx3WlQwaU1pSWdkbUZzZFdVOUlqQXVOVFkzT0RVM01ESTNN
        RFV6T0RNaUlDOCtQR0ZmWlc1Mk1WOXlaV3hsWVhObAoJSUhSNWNHVTlJaklpSUhaaGJIVmxQU0l0TUM0eU16a3lPRE01T1RNNE5EQXlNaUlnTHo0OFlWOWxibll4WDNK
        bGJHVmgKCWMyVmZjMmhoY0dVZ2RIbHdaVDBpTUNJZ2RtRnNkV1U5SWpFaUlDOCtQR0ZmWlc1Mk1WOXRiMlJsSUhSNWNHVTlJakFpCglJSFpoYkhWbFBTSXdJaUF2UGp4
        aFgyVnVkakpmWVhSMFlXTnJJSFI1Y0dVOUlqSWlJSFpoYkhWbFBTSXRPQzR3TURBdwoJTURBd01EQXdNREF3TUNJZ0x6NDhZVjlsYm5ZeVgyRjBkR0ZqYTE5emFHRnda
        U0IwZVhCbFBTSXdJaUIyWVd4MVpUMGkKCU1TSWdMejQ4WVY5bGJuWXlYMlJsWTJGNUlIUjVjR1U5SWpJaUlIWmhiSFZsUFNJdE5DNHdPRGt5T0RZNE1EUXhPVGt5CglN
        aUlnTHo0OFlWOWxibll5WDJSbFkyRjVYM05vWVhCbElIUjVjR1U5SWpBaUlIWmhiSFZsUFNJd0lpQXZQanhoWDJWdQoJZGpKZmMzVnpkR0ZwYmlCMGVYQmxQU0l5SWlC
        MllXeDFaVDBpTUM0eU5URTNPRFU1T1RNMU56WXdOU0lnTHo0OFlWOWwKCWJuWXlYM0psYkdWaGMyVWdkSGx3WlQwaU1pSWdkbUZzZFdVOUlpMDBMakF3TURBd01EQXdN
        REF3TURBd0lpQXZQanhoCglYMlZ1ZGpKZmNtVnNaV0Z6WlY5emFHRndaU0IwZVhCbFBTSXdJaUIyWVd4MVpUMGlNQ0lnTHo0OFlWOWxibll5WDIxdgoJWkdVZ2RIbHda
        VDBpTUNJZ2RtRnNkV1U5SWpBaUlDOCtQR0ZmYkdadk1GOXphR0Z3WlNCMGVYQmxQU0l3SWlCMllXeDEKCVpUMGlNQ0lnTHo0OFlWOXNabTh3WDNKaGRHVWdkSGx3WlQw
        aU1pSWdkbUZzZFdVOUlqQXVNREF3TURBd01EQXdNREF3CglNREFpSUdSbFlXTjBhWFpoZEdWa1BTSXdJaUF2UGp4aFgyeG1iekJmY0doaGMyVWdkSGx3WlQwaU1pSWdk
        bUZzZFdVOQoJSWpBdU1EQXdNREF3TURBd01EQXdNREFpSUdWNGRHVnVaRjl5WVc1blpUMGlNQ0lnTHo0OFlWOXNabTh3WDIxaFoyNXAKCWRIVmtaU0IwZVhCbFBTSXlJ
        aUIyWVd4MVpUMGlNUzR3TURBd01EQXdNREF3TURBd01DSWdaWGgwWlc1a1gzSmhibWRsCglQU0l3SWlBdlBqeGhYMnhtYnpCZlpHVm1iM0p0SUhSNWNHVTlJaklpSUha
        aGJIVmxQU0l3TGpBd01EQXdNREF3TURBdwoJTURBd0lpQmtaV1p2Y20xZmRIbHdaVDBpTUNJZ0x6NDhZVjlzWm04d1gzUnlhV2R0YjJSbElIUjVjR1U5SWpBaUlIWmgK
        CWJIVmxQU0l3SWlBdlBqeGhYMnhtYnpCZmRXNXBjRzlzWVhJZ2RIbHdaVDBpTUNJZ2RtRnNkV1U5SWpBaUlDOCtQR0ZmCgliR1p2TUY5a1pXeGhlU0IwZVhCbFBTSXlJ
        aUIyWVd4MVpUMGlMVGd1TURBd01EQXdNREF3TURBd01EQWlJR1JsWVdOMAoJYVhaaGRHVmtQU0l3SWlBdlBqeGhYMnhtYnpCZllYUjBZV05ySUhSNWNHVTlJaklpSUha
        aGJIVmxQU0l0T0M0d01EQXcKCU1EQXdNREF3TURBd01DSWdMejQ4WVY5c1ptOHdYMmh2YkdRZ2RIbHdaVDBpTWlJZ2RtRnNkV1U5SWkwNExqQXdNREF3CglNREF3TURB
        d01EQXdJaUF2UGp4aFgyeG1iekJmWkdWallYa2dkSGx3WlQwaU1pSWdkbUZzZFdVOUlqVXVNREF3TURBdwoJTURBd01EQXdNREFpSUM4K1BHRmZiR1p2TUY5emRYTjBZ
        V2x1SUhSNWNHVTlJaklpSUhaaGJIVmxQU0l4TGpBd01EQXcKCU1EQXdNREF3TURBd0lpQXZQanhoWDJ4bWJ6QmZjbVZzWldGelpTQjBlWEJsUFNJeUlpQjJZV3gxWlQw
        aU5TNHdNREF3CglNREF3TURBd01EQXdNQ0lnTHo0OFlWOXNabTh4WDNOb1lYQmxJSFI1Y0dVOUlqQWlJSFpoYkhWbFBTSXdJaUF2UGp4aAoJWDJ4bWJ6RmZjbUYwWlNC
        MGVYQmxQU0l5SWlCMllXeDFaVDBpTUM0d01EQXdNREF3TURBd01EQXdNQ0lnWkdWaFkzUnAKCWRtRjBaV1E5SWpBaUlDOCtQR0ZmYkdadk1WOXdhR0Z6WlNCMGVYQmxQ
        U0l5SWlCMllXeDFaVDBpTUM0d01EQXdNREF3CglNREF3TURBd01DSWdaWGgwWlc1a1gzSmhibWRsUFNJd0lpQXZQanhoWDJ4bWJ6RmZiV0ZuYm1sMGRXUmxJSFI1Y0dV
        OQoJSWpJaUlIWmhiSFZsUFNJeExqQXdNREF3TURBd01EQXdNREF3SWlCbGVIUmxibVJmY21GdVoyVTlJakFpSUM4K1BHRmYKCWJHWnZNVjlrWldadmNtMGdkSGx3WlQw
        aU1pSWdkbUZzZFdVOUlqQXVNREF3TURBd01EQXdNREF3TURBaUlHUmxabTl5CgliVjkwZVhCbFBTSXdJaUF2UGp4aFgyeG1iekZmZEhKcFoyMXZaR1VnZEhsd1pUMGlN
        Q0lnZG1Gc2RXVTlJakFpSUM4KwoJUEdGZmJHWnZNVjkxYm1sd2IyeGhjaUIwZVhCbFBTSXdJaUIyWVd4MVpUMGlNQ0lnTHo0OFlWOXNabTh4WDJSbGJHRjUKCUlIUjVj
        R1U5SWpJaUlIWmhiSFZsUFNJdE9DNHdNREF3TURBd01EQXdNREF3TUNJZ1pHVmhZM1JwZG1GMFpXUTlJakFpCglJQzgrUEdGZmJHWnZNVjloZEhSaFkyc2dkSGx3WlQw
        aU1pSWdkbUZzZFdVOUlpMDRMakF3TURBd01EQXdNREF3TURBdwoJSWlBdlBqeGhYMnhtYnpGZmFHOXNaQ0IwZVhCbFBTSXlJaUIyWVd4MVpUMGlMVGd1TURBd01EQXdN
        REF3TURBd01EQWkKCUlDOCtQR0ZmYkdadk1WOWtaV05oZVNCMGVYQmxQU0l5SWlCMllXeDFaVDBpTlM0d01EQXdNREF3TURBd01EQXdNQ0lnCglMejQ4WVY5c1ptOHhY
        M04xYzNSaGFXNGdkSGx3WlQwaU1pSWdkbUZzZFdVOUlqRXVNREF3TURBd01EQXdNREF3TURBaQoJSUM4K1BHRmZiR1p2TVY5eVpXeGxZWE5sSUhSNWNHVTlJaklpSUha
        aGJIVmxQU0kxTGpBd01EQXdNREF3TURBd01EQXcKCUlpQXZQanhoWDJ4bWJ6SmZjMmhoY0dVZ2RIbHdaVDBpTUNJZ2RtRnNkV1U5SWpBaUlDOCtQR0ZmYkdadk1sOXlZ
        WFJsCglJSFI1Y0dVOUlqSWlJSFpoYkhWbFBTSXdMakF3TURBd01EQXdNREF3TURBd0lpQmtaV0ZqZEdsMllYUmxaRDBpTUNJZwoJTHo0OFlWOXNabTh5WDNCb1lYTmxJ
        SFI1Y0dVOUlqSWlJSFpoYkhWbFBTSXdMakF3TURBd01EQXdNREF3TURBd0lpQmwKCWVIUmxibVJmY21GdVoyVTlJakFpSUM4K1BHRmZiR1p2TWw5dFlXZHVhWFIxWkdV
        Z2RIbHdaVDBpTWlJZ2RtRnNkV1U5CglJakV1TURBd01EQXdNREF3TURBd01EQWlJR1Y0ZEdWdVpGOXlZVzVuWlQwaU1DSWdMejQ4WVY5c1ptOHlYMlJsWm05eQoJYlNC
        MGVYQmxQU0l5SWlCMllXeDFaVDBpTUM0d01EQXdNREF3TURBd01EQXdNQ0lnWkdWbWIzSnRYM1I1Y0dVOUlqQWkKCUlDOCtQR0ZmYkdadk1sOTBjbWxuYlc5a1pTQjBl
        WEJsUFNJd0lpQjJZV3gxWlQwaU1DSWdMejQ4WVY5c1ptOHlYM1Z1CglhWEJ2YkdGeUlIUjVjR1U5SWpBaUlIWmhiSFZsUFNJd0lpQXZQanhoWDJ4bWJ6SmZaR1ZzWVhr
        Z2RIbHdaVDBpTWlJZwoJZG1Gc2RXVTlJaTA0TGpBd01EQXdNREF3TURBd01EQXdJaUJrWldGamRHbDJZWFJsWkQwaU1DSWdMejQ4WVY5c1ptOHkKCVgyRjBkR0ZqYXlC
        MGVYQmxQU0l5SWlCMllXeDFaVDBpTFRndU1EQXdNREF3TURBd01EQXdNREFpSUM4K1BHRmZiR1p2CglNbDlvYjJ4a0lIUjVjR1U5SWpJaUlIWmhiSFZsUFNJdE9DNHdN
        REF3TURBd01EQXdNREF3TUNJZ0x6NDhZVjlzWm04eQoJWDJSbFkyRjVJSFI1Y0dVOUlqSWlJSFpoYkhWbFBTSTFMakF3TURBd01EQXdNREF3TURBd0lpQXZQanhoWDJ4
        bWJ6SmYKCWMzVnpkR0ZwYmlCMGVYQmxQU0l5SWlCMllXeDFaVDBpTVM0d01EQXdNREF3TURBd01EQXdNQ0lnTHo0OFlWOXNabTh5CglYM0psYkdWaGMyVWdkSGx3WlQw
        aU1pSWdkbUZzZFdVOUlqVXVNREF3TURBd01EQXdNREF3TURBaUlDOCtQR0ZmYkdadgoJTTE5emFHRndaU0IwZVhCbFBTSXdJaUIyWVd4MVpUMGlNQ0lnTHo0OFlWOXNa
        bTh6WDNKaGRHVWdkSGx3WlQwaU1pSWcKCWRtRnNkV1U5SWpBdU1EQXdNREF3TURBd01EQXdNREFpSUdSbFlXTjBhWFpoZEdWa1BTSXdJaUF2UGp4aFgyeG1iek5mCglj
        R2hoYzJVZ2RIbHdaVDBpTWlJZ2RtRnNkV1U5SWpBdU1EQXdNREF3TURBd01EQXdNREFpSUdWNGRHVnVaRjl5WVc1bgoJWlQwaU1DSWdMejQ4WVY5c1ptOHpYMjFoWjI1
        cGRIVmtaU0IwZVhCbFBTSXlJaUIyWVd4MVpUMGlNUzR3TURBd01EQXcKCU1EQXdNREF3TUNJZ1pYaDBaVzVrWDNKaGJtZGxQU0l3SWlBdlBqeGhYMnhtYnpOZlpHVm1i
        M0p0SUhSNWNHVTlJaklpCglJSFpoYkhWbFBTSXdMakF3TURBd01EQXdNREF3TURBd0lpQmtaV1p2Y20xZmRIbHdaVDBpTUNJZ0x6NDhZVjlzWm04egoJWDNSeWFXZHRi
        MlJsSUhSNWNHVTlJakFpSUhaaGJIVmxQU0l3SWlBdlBqeGhYMnhtYnpOZmRXNXBjRzlzWVhJZ2RIbHcKCVpUMGlNQ0lnZG1Gc2RXVTlJakFpSUM4K1BHRmZiR1p2TTE5
        a1pXeGhlU0IwZVhCbFBTSXlJaUIyWVd4MVpUMGlMVGd1CglNREF3TURBd01EQXdNREF3TURBaUlHUmxZV04wYVhaaGRHVmtQU0l3SWlBdlBqeGhYMnhtYnpOZllYUjBZ
        V05ySUhSNQoJY0dVOUlqSWlJSFpoYkhWbFBTSXRPQzR3TURBd01EQXdNREF3TURBd01DSWdMejQ4WVY5c1ptOHpYMmh2YkdRZ2RIbHcKCVpUMGlNaUlnZG1Gc2RXVTlJ
        aTA0TGpBd01EQXdNREF3TURBd01EQXdJaUF2UGp4aFgyeG1iek5mWkdWallYa2dkSGx3CglaVDBpTWlJZ2RtRnNkV1U5SWpVdU1EQXdNREF3TURBd01EQXdNREFpSUM4
        K1BHRmZiR1p2TTE5emRYTjBZV2x1SUhSNQoJY0dVOUlqSWlJSFpoYkhWbFBTSXhMakF3TURBd01EQXdNREF3TURBd0lpQXZQanhoWDJ4bWJ6TmZjbVZzWldGelpTQjAK
        CWVYQmxQU0l5SWlCMllXeDFaVDBpTlM0d01EQXdNREF3TURBd01EQXdNQ0lnTHo0OFlWOXNabTgwWDNOb1lYQmxJSFI1CgljR1U5SWpBaUlIWmhiSFZsUFNJd0lpQXZQ
        anhoWDJ4bWJ6UmZjbUYwWlNCMGVYQmxQU0l5SWlCMllXeDFaVDBpTUM0dwoJTURBd01EQXdNREF3TURBd01DSWdaR1ZoWTNScGRtRjBaV1E5SWpBaUlDOCtQR0ZmYkda
        dk5GOXdhR0Z6WlNCMGVYQmwKCVBTSXlJaUIyWVd4MVpUMGlNQzR3TURBd01EQXdNREF3TURBd01DSWdaWGgwWlc1a1gzSmhibWRsUFNJd0lpQXZQanhoCglYMnhtYnpS
        ZmJXRm5ibWwwZFdSbElIUjVjR1U5SWpJaUlIWmhiSFZsUFNJeExqQXdNREF3TURBd01EQXdNREF3SWlCbAoJZUhSbGJtUmZjbUZ1WjJVOUlqQWlJQzgrUEdGZmJHWnZO
        RjlrWldadmNtMGdkSGx3WlQwaU1pSWdkbUZzZFdVOUlqQXUKCU1EQXdNREF3TURBd01EQXdNREFpSUdSbFptOXliVjkwZVhCbFBTSXdJaUF2UGp4aFgyeG1ielJmZEhK
        cFoyMXZaR1VnCglkSGx3WlQwaU1DSWdkbUZzZFdVOUlqQWlJQzgrUEdGZmJHWnZORjkxYm1sd2IyeGhjaUIwZVhCbFBTSXdJaUIyWVd4MQoJWlQwaU1DSWdMejQ4WVY5
        c1ptODBYMlJsYkdGNUlIUjVjR1U5SWpJaUlIWmhiSFZsUFNJdE9DNHdNREF3TURBd01EQXcKCU1EQXdNQ0lnWkdWaFkzUnBkbUYwWldROUlqQWlJQzgrUEdGZmJHWnZO
        RjloZEhSaFkyc2dkSGx3WlQwaU1pSWdkbUZzCglkV1U5SWkwNExqQXdNREF3TURBd01EQXdNREF3SWlBdlBqeGhYMnhtYnpSZmFHOXNaQ0IwZVhCbFBTSXlJaUIyWVd4
        MQoJWlQwaUxUZ3VNREF3TURBd01EQXdNREF3TURBaUlDOCtQR0ZmYkdadk5GOWtaV05oZVNCMGVYQmxQU0l5SWlCMllXeDEKCVpUMGlOUzR3TURBd01EQXdNREF3TURB
        d01DSWdMejQ4WVY5c1ptODBYM04xYzNSaGFXNGdkSGx3WlQwaU1pSWdkbUZzCglkV1U5SWpFdU1EQXdNREF3TURBd01EQXdNREFpSUM4K1BHRmZiR1p2TkY5eVpXeGxZ
        WE5sSUhSNWNHVTlJaklpSUhaaAoJYkhWbFBTSTFMakF3TURBd01EQXdNREF3TURBd0lpQXZQanhoWDJ4bWJ6VmZjMmhoY0dVZ2RIbHdaVDBpTUNJZ2RtRnMKCWRXVTlJ
        akFpSUM4K1BHRmZiR1p2TlY5eVlYUmxJSFI1Y0dVOUlqSWlJSFpoYkhWbFBTSXdMakF3TURBd01EQXdNREF3CglNREF3SWlCa1pXRmpkR2wyWVhSbFpEMGlNQ0lnTHo0
        OFlWOXNabTgxWDNCb1lYTmxJSFI1Y0dVOUlqSWlJSFpoYkhWbAoJUFNJd0xqQXdNREF3TURBd01EQXdNREF3SWlCbGVIUmxibVJmY21GdVoyVTlJakFpSUM4K1BHRmZi
        R1p2TlY5dFlXZHUKCWFYUjFaR1VnZEhsd1pUMGlNaUlnZG1Gc2RXVTlJakV1TURBd01EQXdNREF3TURBd01EQWlJR1Y0ZEdWdVpGOXlZVzVuCglaVDBpTUNJZ0x6NDhZ
        VjlzWm04MVgyUmxabTl5YlNCMGVYQmxQU0l5SWlCMllXeDFaVDBpTUM0d01EQXdNREF3TURBdwoJTURBd01DSWdaR1ZtYjNKdFgzUjVjR1U5SWpBaUlDOCtQR0ZmYkda
        dk5WOTBjbWxuYlc5a1pTQjBlWEJsUFNJd0lpQjIKCVlXeDFaVDBpTUNJZ0x6NDhZVjlzWm04MVgzVnVhWEJ2YkdGeUlIUjVjR1U5SWpBaUlIWmhiSFZsUFNJd0lpQXZQ
        anhoCglYMnhtYnpWZlpHVnNZWGtnZEhsd1pUMGlNaUlnZG1Gc2RXVTlJaTA0TGpBd01EQXdNREF3TURBd01EQXdJaUJrWldGagoJZEdsMllYUmxaRDBpTUNJZ0x6NDhZ
        VjlzWm04MVgyRjBkR0ZqYXlCMGVYQmxQU0l5SWlCMllXeDFaVDBpTFRndU1EQXcKCU1EQXdNREF3TURBd01EQWlJQzgrUEdGZmJHWnZOVjlvYjJ4a0lIUjVjR1U5SWpJ
        aUlIWmhiSFZsUFNJdE9DNHdNREF3CglNREF3TURBd01EQXdNQ0lnTHo0OFlWOXNabTgxWDJSbFkyRjVJSFI1Y0dVOUlqSWlJSFpoYkhWbFBTSTFMakF3TURBdwoJTURB
        d01EQXdNREF3SWlBdlBqeGhYMnhtYnpWZmMzVnpkR0ZwYmlCMGVYQmxQU0l5SWlCMllXeDFaVDBpTVM0d01EQXcKCU1EQXdNREF3TURBd01DSWdMejQ4WVY5c1ptODFY
        M0psYkdWaGMyVWdkSGx3WlQwaU1pSWdkbUZzZFdVOUlqVXVNREF3CglNREF3TURBd01EQXdNREFpSUM4K1BHRmZiR1p2Tmw5emFHRndaU0IwZVhCbFBTSXdJaUIyWVd4
        MVpUMGlNQ0lnTHo0OAoJWVY5c1ptODJYM0poZEdVZ2RIbHdaVDBpTWlJZ2RtRnNkV1U5SWpBdU1EQXdNREF3TURBd01EQXdNREFpSUdSbFlXTjAKCWFYWmhkR1ZrUFNJ
        d0lpQXZQanhoWDJ4bWJ6WmZjR2hoYzJVZ2RIbHdaVDBpTWlJZ2RtRnNkV1U5SWpBdU1EQXdNREF3CglNREF3TURBd01EQWlJR1Y0ZEdWdVpGOXlZVzVuWlQwaU1DSWdM
        ejQ4WVY5c1ptODJYMjFoWjI1cGRIVmtaU0IwZVhCbAoJUFNJeUlpQjJZV3gxWlQwaU1TNHdNREF3TURBd01EQXdNREF3TUNJZ1pYaDBaVzVrWDNKaGJtZGxQU0l3SWlB
        dlBqeGgKCVgyeG1ielpmWkdWbWIzSnRJSFI1Y0dVOUlqSWlJSFpoYkhWbFBTSXdMakF3TURBd01EQXdNREF3TURBd0lpQmtaV1p2CgljbTFmZEhsd1pUMGlNQ0lnTHo0
        OFlWOXNabTgyWDNSeWFXZHRiMlJsSUhSNWNHVTlJakFpSUhaaGJIVmxQU0l3SWlBdgoJUGp4aFgyeG1ielpmZFc1cGNHOXNZWElnZEhsd1pUMGlNQ0lnZG1Gc2RXVTlJ
        akFpSUM4K1BHRmZiR1p2Tmw5a1pXeGgKCWVTQjBlWEJsUFNJeUlpQjJZV3gxWlQwaUxUZ3VNREF3TURBd01EQXdNREF3TURBaUlHUmxZV04wYVhaaGRHVmtQU0l3CglJ
        aUF2UGp4aFgyeG1ielpmWVhSMFlXTnJJSFI1Y0dVOUlqSWlJSFpoYkhWbFBTSXRPQzR3TURBd01EQXdNREF3TURBdwoJTUNJZ0x6NDhZVjlzWm04MlgyaHZiR1FnZEhs
        d1pUMGlNaUlnZG1Gc2RXVTlJaTA0TGpBd01EQXdNREF3TURBd01EQXcKCUlpQXZQanhoWDJ4bWJ6WmZaR1ZqWVhrZ2RIbHdaVDBpTWlJZ2RtRnNkV1U5SWpVdU1EQXdN
        REF3TURBd01EQXdNREFpCglJQzgrUEdGZmJHWnZObDl6ZFhOMFlXbHVJSFI1Y0dVOUlqSWlJSFpoYkhWbFBTSXhMakF3TURBd01EQXdNREF3TURBdwoJSWlBdlBqeGhY
        MnhtYnpaZmNtVnNaV0Z6WlNCMGVYQmxQU0l5SWlCMllXeDFaVDBpTlM0d01EQXdNREF3TURBd01EQXcKCU1DSWdMejQ4WVY5c1ptODNYM05vWVhCbElIUjVjR1U5SWpB
        aUlIWmhiSFZsUFNJd0lpQXZQanhoWDJ4bWJ6ZGZjbUYwCglaU0IwZVhCbFBTSXlJaUIyWVd4MVpUMGlNaTQxT0RRNU5qRTRPVEV4TnpRek1pSWdkR1Z0Y0c5emVXNWpQ
        U0l4SWlCawoJWldGamRHbDJZWFJsWkQwaU1DSWdMejQ4WVY5c1ptODNYM0JvWVhObElIUjVjR1U5SWpJaUlIWmhiSFZsUFNJd0xqQXcKCU1EQXdNREF3TURBd01EQXdJ
        aUJsZUhSbGJtUmZjbUZ1WjJVOUlqQWlJQzgrUEdGZmJHWnZOMTl0WVdkdWFYUjFaR1VnCglkSGx3WlQwaU1pSWdkbUZzZFdVOUlqQXVNVGsyTkRJNE1EQXdPVEkyT1Rj
        aUlHVjRkR1Z1WkY5eVlXNW5aVDBpTUNJZwoJTHo0OFlWOXNabTgzWDJSbFptOXliU0IwZVhCbFBTSXlJaUIyWVd4MVpUMGlNQzR3TURBd01EQXdNREF3TURBd01DSWcK
        CVpHVm1iM0p0WDNSNWNHVTlJakFpSUM4K1BHRmZiR1p2TjE5MGNtbG5iVzlrWlNCMGVYQmxQU0l3SWlCMllXeDFaVDBpCglNQ0lnTHo0OFlWOXNabTgzWDNWdWFYQnZi
        R0Z5SUhSNWNHVTlJakFpSUhaaGJIVmxQU0l3SWlBdlBqeGhYMnhtYnpkZgoJWkdWc1lYa2dkSGx3WlQwaU1pSWdkbUZzZFdVOUlpMDRMakF3TURBd01EQXdNREF3TURB
        d0lpQmtaV0ZqZEdsMllYUmwKCVpEMGlNQ0lnTHo0OFlWOXNabTgzWDJGMGRHRmpheUIwZVhCbFBTSXlJaUIyWVd4MVpUMGlMVGd1TURBd01EQXdNREF3CglNREF3TURB
        aUlDOCtQR0ZmYkdadk4xOW9iMnhrSUhSNWNHVTlJaklpSUhaaGJIVmxQU0l0T0M0d01EQXdNREF3TURBdwoJTURBd01DSWdMejQ4WVY5c1ptODNYMlJsWTJGNUlIUjVj
        R1U5SWpJaUlIWmhiSFZsUFNJMUxqQXdNREF3TURBd01EQXcKCU1EQXdJaUF2UGp4aFgyeG1iemRmYzNWemRHRnBiaUIwZVhCbFBTSXlJaUIyWVd4MVpUMGlNUzR3TURB
        d01EQXdNREF3CglNREF3TUNJZ0x6NDhZVjlzWm04M1gzSmxiR1ZoYzJVZ2RIbHdaVDBpTWlJZ2RtRnNkV1U5SWpVdU1EQXdNREF3TURBdwoJTURBd01EQWlJQzgrUEdG
        ZmJHWnZPRjl6YUdGd1pTQjBlWEJsUFNJd0lpQjJZV3gxWlQwaU1DSWdMejQ4WVY5c1ptODQKCVgzSmhkR1VnZEhsd1pUMGlNaUlnZG1Gc2RXVTlJakV1TlRnME9UWXlN
        REV3TXpnek5qRWlJSFJsYlhCdmMzbHVZejBpCglNU0lnWkdWaFkzUnBkbUYwWldROUlqQWlJQzgrUEdGZmJHWnZPRjl3YUdGelpTQjBlWEJsUFNJeUlpQjJZV3gxWlQw
        aQoJTUM0d01EQXdNREF3TURBd01EQXdNQ0lnWlhoMFpXNWtYM0poYm1kbFBTSXdJaUF2UGp4aFgyeG1iemhmYldGbmJtbDAKCWRXUmxJSFI1Y0dVOUlqSWlJSFpoYkhW
        bFBTSXdMalEyTkRJNE5EazROakkxTnpVMUlpQmxlSFJsYm1SZmNtRnVaMlU5CglJakFpSUM4K1BHRmZiR1p2T0Y5a1pXWnZjbTBnZEhsd1pUMGlNaUlnZG1Gc2RXVTlJ
        akF1TURBd01EQXdNREF3TURBdwoJTURBaUlHUmxabTl5YlY5MGVYQmxQU0l3SWlBdlBqeGhYMnhtYnpoZmRISnBaMjF2WkdVZ2RIbHdaVDBpTUNJZ2RtRnMKCWRXVTlJ
        akFpSUM4K1BHRmZiR1p2T0Y5MWJtbHdiMnhoY2lCMGVYQmxQU0l3SWlCMllXeDFaVDBpTUNJZ0x6NDhZVjlzCglabTg0WDJSbGJHRjVJSFI1Y0dVOUlqSWlJSFpoYkhW
        bFBTSXRPQzR3TURBd01EQXdNREF3TURBd01DSWdaR1ZoWTNScAoJZG1GMFpXUTlJakFpSUM4K1BHRmZiR1p2T0Y5aGRIUmhZMnNnZEhsd1pUMGlNaUlnZG1Gc2RXVTlJ
        aTA0TGpBd01EQXcKCU1EQXdNREF3TURBd0lpQXZQanhoWDJ4bWJ6aGZhRzlzWkNCMGVYQmxQU0l5SWlCMllXeDFaVDBpTFRndU1EQXdNREF3CglNREF3TURBd01EQWlJ
        QzgrUEdGZmJHWnZPRjlrWldOaGVTQjBlWEJsUFNJeUlpQjJZV3gxWlQwaU5TNHdNREF3TURBdwoJTURBd01EQXdNQ0lnTHo0OFlWOXNabTg0WDNOMWMzUmhhVzRnZEhs
        d1pUMGlNaUlnZG1Gc2RXVTlJakV1TURBd01EQXcKCU1EQXdNREF3TURBaUlDOCtQR0ZmYkdadk9GOXlaV3hsWVhObElIUjVjR1U5SWpJaUlIWmhiSFZsUFNJMUxqQXdN
        REF3CglNREF3TURBd01EQXdJaUF2UGp4aFgyeG1iemxmYzJoaGNHVWdkSGx3WlQwaU1DSWdkbUZzZFdVOUlqQWlJQzgrUEdGZgoJYkdadk9WOXlZWFJsSUhSNWNHVTlJ
        aklpSUhaaGJIVmxQU0l0TVM0d05EWTFOams1TkRNME1qZ3dOQ0lnWkdWaFkzUnAKCWRtRjBaV1E5SWpBaUlDOCtQR0ZmYkdadk9WOXdhR0Z6WlNCMGVYQmxQU0l5SWlC
        MllXeDFaVDBpTUM0d01EQXdNREF3CglNREF3TURBd01DSWdaWGgwWlc1a1gzSmhibWRsUFNJd0lpQXZQanhoWDJ4bWJ6bGZiV0ZuYm1sMGRXUmxJSFI1Y0dVOQoJSWpJ
        aUlIWmhiSFZsUFNJd0xqY3hOakEzTVRBd09UWXpOVGt6SWlCbGVIUmxibVJmY21GdVoyVTlJakFpSUM4K1BHRmYKCWJHWnZPVjlrWldadmNtMGdkSGx3WlQwaU1pSWdk
        bUZzZFdVOUlqQXVNREF3TURBd01EQXdNREF3TURBaUlHUmxabTl5CgliVjkwZVhCbFBTSXdJaUF2UGp4aFgyeG1iemxmZEhKcFoyMXZaR1VnZEhsd1pUMGlNQ0lnZG1G
        c2RXVTlJakFpSUM4KwoJUEdGZmJHWnZPVjkxYm1sd2IyeGhjaUIwZVhCbFBTSXdJaUIyWVd4MVpUMGlNU0lnTHo0OFlWOXNabTg1WDJSbGJHRjUKCUlIUjVjR1U5SWpJ
        aUlIWmhiSFZsUFNJdE9DNHdNREF3TURBd01EQXdNREF3TUNJZ1pHVmhZM1JwZG1GMFpXUTlJakFpCglJQzgrUEdGZmJHWnZPVjloZEhSaFkyc2dkSGx3WlQwaU1pSWdk
        bUZzZFdVOUlpMDRMakF3TURBd01EQXdNREF3TURBdwoJSWlBdlBqeGhYMnhtYnpsZmFHOXNaQ0IwZVhCbFBTSXlJaUIyWVd4MVpUMGlMVGd1TURBd01EQXdNREF3TURB
        d01EQWkKCUlDOCtQR0ZmYkdadk9WOWtaV05oZVNCMGVYQmxQU0l5SWlCMllXeDFaVDBpTlM0d01EQXdNREF3TURBd01EQXdNQ0lnCglMejQ4WVY5c1ptODVYM04xYzNS
        aGFXNGdkSGx3WlQwaU1pSWdkbUZzZFdVOUlqRXVNREF3TURBd01EQXdNREF3TURBaQoJSUM4K1BHRmZiR1p2T1Y5eVpXeGxZWE5sSUhSNWNHVTlJaklpSUhaaGJIVmxQ
        U0kxTGpBd01EQXdNREF3TURBd01EQXcKCUlpQXZQanhoWDJ4bWJ6RXdYM05vWVhCbElIUjVjR1U5SWpBaUlIWmhiSFZsUFNJd0lpQXZQanhoWDJ4bWJ6RXdYM0poCglk
        R1VnZEhsd1pUMGlNaUlnZG1Gc2RXVTlJaTB3TGpReE5UQXpOems0T1RZeE5qTTVJaUIwWlcxd2IzTjVibU05SWpFaQoJSUdSbFlXTjBhWFpoZEdWa1BTSXdJaUF2UGp4
        aFgyeG1iekV3WDNCb1lYTmxJSFI1Y0dVOUlqSWlJSFpoYkhWbFBTSXcKCUxqQXdNREF3TURBd01EQXdNREF3SWlCbGVIUmxibVJmY21GdVoyVTlJakFpSUM4K1BHRmZi
        R1p2TVRCZmJXRm5ibWwwCglkV1JsSUhSNWNHVTlJaklpSUhaaGJIVmxQU0l3TGpnNE1qRTBNekF5TURZeU9UZzRJaUJsZUhSbGJtUmZjbUZ1WjJVOQoJSWpBaUlDOCtQ
        R0ZmYkdadk1UQmZaR1ZtYjNKdElIUjVjR1U5SWpJaUlIWmhiSFZsUFNJd0xqQXdNREF3TURBd01EQXcKCU1EQXdJaUJrWldadmNtMWZkSGx3WlQwaU1DSWdMejQ4WVY5
        c1ptOHhNRjkwY21sbmJXOWtaU0IwZVhCbFBTSXdJaUIyCglZV3gxWlQwaU1DSWdMejQ4WVY5c1ptOHhNRjkxYm1sd2IyeGhjaUIwZVhCbFBTSXdJaUIyWVd4MVpUMGlN
        U0lnTHo0OAoJWVY5c1ptOHhNRjlrWld4aGVTQjBlWEJsUFNJeUlpQjJZV3gxWlQwaUxUZ3VNREF3TURBd01EQXdNREF3TURBaUlHUmwKCVlXTjBhWFpoZEdWa1BTSXdJ
        aUF2UGp4aFgyeG1iekV3WDJGMGRHRmpheUIwZVhCbFBTSXlJaUIyWVd4MVpUMGlMVGd1CglNREF3TURBd01EQXdNREF3TURBaUlDOCtQR0ZmYkdadk1UQmZhRzlzWkNC
        MGVYQmxQU0l5SWlCMllXeDFaVDBpTFRndQoJTURBd01EQXdNREF3TURBd01EQWlJQzgrUEdGZmJHWnZNVEJmWkdWallYa2dkSGx3WlQwaU1pSWdkbUZzZFdVOUlqVXUK
        CU1EQXdNREF3TURBd01EQXdNREFpSUM4K1BHRmZiR1p2TVRCZmMzVnpkR0ZwYmlCMGVYQmxQU0l5SWlCMllXeDFaVDBpCglNUzR3TURBd01EQXdNREF3TURBd01DSWdM
        ejQ4WVY5c1ptOHhNRjl5Wld4bFlYTmxJSFI1Y0dVOUlqSWlJSFpoYkhWbAoJUFNJMUxqQXdNREF3TURBd01EQXdNREF3SWlBdlBqeGhYMnhtYnpFeFgzTm9ZWEJsSUhS
        NWNHVTlJakFpSUhaaGJIVmwKCVBTSXdJaUF2UGp4aFgyeG1iekV4WDNKaGRHVWdkSGx3WlQwaU1pSWdkbUZzZFdVOUlqQXVNREF3TURBd01EQXdNREF3CglNREFpSUdS
        bFlXTjBhWFpoZEdWa1BTSXdJaUF2UGp4aFgyeG1iekV4WDNCb1lYTmxJSFI1Y0dVOUlqSWlJSFpoYkhWbAoJUFNJd0xqQXdNREF3TURBd01EQXdNREF3SWlCbGVIUmxi
        bVJmY21GdVoyVTlJakFpSUM4K1BHRmZiR1p2TVRGZmJXRm4KCWJtbDBkV1JsSUhSNWNHVTlJaklpSUhaaGJIVmxQU0l4TGpBd01EQXdNREF3TURBd01EQXdJaUJsZUhS
        bGJtUmZjbUZ1CglaMlU5SWpBaUlDOCtQR0ZmYkdadk1URmZaR1ZtYjNKdElIUjVjR1U5SWpJaUlIWmhiSFZsUFNJd0xqQXdNREF3TURBdwoJTURBd01EQXdJaUJrWlda
        dmNtMWZkSGx3WlQwaU1DSWdMejQ4WVY5c1ptOHhNVjkwY21sbmJXOWtaU0IwZVhCbFBTSXcKCUlpQjJZV3gxWlQwaU1DSWdMejQ4WVY5c1ptOHhNVjkxYm1sd2IyeGhj
        aUIwZVhCbFBTSXdJaUIyWVd4MVpUMGlNQ0lnCglMejQ4WVY5c1ptOHhNVjlrWld4aGVTQjBlWEJsUFNJeUlpQjJZV3gxWlQwaUxUZ3VNREF3TURBd01EQXdNREF3TURB
        aQoJSUdSbFlXTjBhWFpoZEdWa1BTSXdJaUF2UGp4aFgyeG1iekV4WDJGMGRHRmpheUIwZVhCbFBTSXlJaUIyWVd4MVpUMGkKCUxUZ3VNREF3TURBd01EQXdNREF3TURB
        aUlDOCtQR0ZmYkdadk1URmZhRzlzWkNCMGVYQmxQU0l5SWlCMllXeDFaVDBpCglMVGd1TURBd01EQXdNREF3TURBd01EQWlJQzgrUEdGZmJHWnZNVEZmWkdWallYa2dk
        SGx3WlQwaU1pSWdkbUZzZFdVOQoJSWpVdU1EQXdNREF3TURBd01EQXdNREFpSUM4K1BHRmZiR1p2TVRGZmMzVnpkR0ZwYmlCMGVYQmxQU0l5SWlCMllXeDEKCVpUMGlN
        UzR3TURBd01EQXdNREF3TURBd01DSWdMejQ4WVY5c1ptOHhNVjl5Wld4bFlYTmxJSFI1Y0dVOUlqSWlJSFpoCgliSFZsUFNJMUxqQXdNREF3TURBd01EQXdNREF3SWlB
        dlBqeGlYMjlqZEdGMlpTQjBlWEJsUFNJd0lpQjJZV3gxWlQwaQoJTUNJZ0x6NDhZbDl3YVhSamFDQjBlWEJsUFNJeUlpQjJZV3gxWlQwaU1DNHdNREF3TURBd01EQXdN
        REF3TUNJZ1pYaDAKCVpXNWtYM0poYm1kbFBTSXdJaUF2UGp4aVgzQnZjblJoYldWdWRHOGdkSGx3WlQwaU1pSWdkbUZzZFdVOUlpMDRMakF3CglNREF3TURBd01EQXdN
        REF3SWlCd2IzSjBZVjlqYjI1emRGOXlZWFJsUFNJd0lpQndiM0owWVY5bmJHbHpjejBpTUNJZwoJY0c5eWRHRmZjbVYwY21sbloyVnlQU0l3SWlCd2IzSjBZVjlqZFhK
        MlpUMGlNQ0lnTHo0OFlsOXZjMk14WDNSNWNHVWcKCWRIbHdaVDBpTUNJZ2RtRnNkV1U5SWpJaUlDOCtQR0pmYjNOak1WOXZZM1JoZG1VZ2RIbHdaVDBpTUNJZ2RtRnNk
        V1U5CglJaklpSUM4K1BHSmZiM05qTVY5d2FYUmphQ0IwZVhCbFBTSXlJaUIyWVd4MVpUMGlMVEF1TURFNE56VXdNREF3TnpRMQoJTURZaUlHVjRkR1Z1WkY5eVlXNW5a
        VDBpTUNJK1BHMXZaSEp2ZFhScGJtY2djMjkxY21ObFBTSXlOQ0lnWkdWd2RHZzkKCUlqRXVNRFk0TnpVaUlHMTFkR1ZrUFNJd0lpQnpiM1Z5WTJWZmFXNWtaWGc5SWpB
        aUlDOCtQQzlpWDI5ell6RmZjR2wwCglZMmcrUEdKZmIzTmpNVjl3WVhKaGJUQWdkSGx3WlQwaU1pSWdkbUZzZFdVOUlqQXVNREkyTnpnMU9UazVOVE0yTlRFaQoJSUdW
        NGRHVnVaRjl5WVc1blpUMGlNU0lnTHo0OFlsOXZjMk14WDNCaGNtRnRNU0IwZVhCbFBTSXlJaUIyWVd4MVpUMGkKCUxUQXVORGs0TWpFME9UZzVPVEF3TlRraUlDOCtQ
        R0pmYjNOak1WOXdZWEpoYlRJZ2RIbHdaVDBpTWlJZ2RtRnNkV1U5CglJakF1TmpZME1qZzJNREUzTkRFM09URWlJQzgrUEdKZmIzTmpNVjl3WVhKaGJUTWdkSGx3WlQw
        aU1pSWdkbUZzZFdVOQoJSWpBdU1EQXdNREF3TURBd01EQXdNREFpSUM4K1BHSmZiM05qTVY5d1lYSmhiVFFnZEhsd1pUMGlNaUlnZG1Gc2RXVTkKCUlqQXVNREF3TURB
        d01EQXdNREF3TURBaUlDOCtQR0pmYjNOak1WOXdZWEpoYlRVZ2RIbHdaVDBpTWlJZ2RtRnNkV1U5CglJakF1TWpBd01EQXdNREF5T1Rnd01qTWlJR1Y0ZEdWdVpGOXlZ
        VzVuWlQwaU1DSWdMejQ4WWw5dmMyTXhYM0JoY21GdAoJTmlCMGVYQmxQU0l3SWlCMllXeDFaVDBpTVNJZ0x6NDhZbDl2YzJNeFgydGxlWFJ5WVdOcklIUjVjR1U5SWpB
        aUlIWmgKCWJIVmxQU0l4SWlBdlBqeGlYMjl6WXpGZmNtVjBjbWxuWjJWeUlIUjVjR1U5SWpBaUlIWmhiSFZsUFNJeElpQXZQanhpCglYMjl6WXpKZmRIbHdaU0IwZVhC
        bFBTSXdJaUIyWVd4MVpUMGlNaUlnTHo0OFlsOXZjMk15WDI5amRHRjJaU0IwZVhCbAoJUFNJd0lpQjJZV3gxWlQwaU1TSWdMejQ4WWw5dmMyTXlYM0JwZEdOb0lIUjVj
        R1U5SWpJaUlIWmhiSFZsUFNJM0xqQXcKCU1EQXdNREF3TURBd01EQXdJaUJsZUhSbGJtUmZjbUZ1WjJVOUlqQWlQanh0YjJSeWIzVjBhVzVuSUhOdmRYSmpaVDBpCglN
        alVpSUdSbGNIUm9QU0l0TUM0eU5qSTFJaUJ0ZFhSbFpEMGlNQ0lnYzI5MWNtTmxYMmx1WkdWNFBTSXdJaUF2UGp3dgoJWWw5dmMyTXlYM0JwZEdOb1BqeGlYMjl6WXpK
        ZmNHRnlZVzB3SUhSNWNHVTlJaklpSUhaaGJIVmxQU0l3TGpBd01EQXcKCU1EQXdNREF3TURBd0lpQmxlSFJsYm1SZmNtRnVaMlU5SWpFaUlDOCtQR0pmYjNOak1sOXdZ
        WEpoYlRFZ2RIbHdaVDBpCglNaUlnZG1Gc2RXVTlJakF1TURBd01EQXdNREF3TURBd01EQWlJQzgrUEdKZmIzTmpNbDl3WVhKaGJUSWdkSGx3WlQwaQoJTWlJZ2RtRnNk
        V1U5SWpBdU5UTXdNelUzTURBek1qRXhPVGdpSUM4K1BHSmZiM05qTWw5d1lYSmhiVE1nZEhsd1pUMGkKCU1pSWdkbUZzZFdVOUlqQXVNREF3TURBd01EQXdNREF3TURB
        aUlDOCtQR0pmYjNOak1sOXdZWEpoYlRRZ2RIbHdaVDBpCglNaUlnZG1Gc2RXVTlJakF1TURBd01EQXdNREF3TURBd01EQWlJQzgrUEdKZmIzTmpNbDl3WVhKaGJUVWdk
        SGx3WlQwaQoJTWlJZ2RtRnNkV1U5SWpBdU1qQXdNREF3TURBeU9UZ3dNak1pSUdWNGRHVnVaRjl5WVc1blpUMGlNQ0lnTHo0OFlsOXYKCWMyTXlYM0JoY21GdE5pQjBl
        WEJsUFNJd0lpQjJZV3gxWlQwaU1TSWdMejQ4WWw5dmMyTXlYMnRsZVhSeVlXTnJJSFI1CgljR1U5SWpBaUlIWmhiSFZsUFNJeElpQXZQanhpWDI5ell6SmZjbVYwY21s
        bloyVnlJSFI1Y0dVOUlqQWlJSFpoYkhWbAoJUFNJd0lpQXZQanhpWDI5ell6TmZkSGx3WlNCMGVYQmxQU0l3SWlCMllXeDFaVDBpTUNJZ0x6NDhZbDl2YzJNelgyOWoK
        CWRHRjJaU0IwZVhCbFBTSXdJaUIyWVd4MVpUMGlNQ0lnTHo0OFlsOXZjMk16WDNCcGRHTm9JSFI1Y0dVOUlqSWlJSFpoCgliSFZsUFNJd0xqQXdNREF3TURBd01EQXdN
        REF3SWlCbGVIUmxibVJmY21GdVoyVTlJakFpSUM4K1BHSmZiM05qTTE5dwoJWVhKaGJUQWdkSGx3WlQwaU1pSWdkbUZzZFdVOUlqQXVNREF3TURBd01EQXdNREF3TURB
        aUlDOCtQR0pmYjNOak0xOXcKCVlYSmhiVEVnZEhsd1pUMGlNaUlnZG1Gc2RXVTlJakF1TlRBd01EQXdNREF3TURBd01EQWlJQzgrUEdKZmIzTmpNMTl3CglZWEpoYlRJ
        Z2RIbHdaVDBpTWlJZ2RtRnNkV1U5SWpBdU1EQXdNREF3TURBd01EQXdNREFpSUM4K1BHSmZiM05qTTE5dwoJWVhKaGJUTWdkSGx3WlQwaU1pSWdkbUZzZFdVOUlqQXVN
        REF3TURBd01EQXdNREF3TURBaUlDOCtQR0pmYjNOak0xOXcKCVlYSmhiVFFnZEhsd1pUMGlNaUlnZG1Gc2RXVTlJakF1TURBd01EQXdNREF3TURBd01EQWlJQzgrUEdK
        ZmIzTmpNMTl3CglZWEpoYlRVZ2RIbHdaVDBpTWlJZ2RtRnNkV1U5SWpBdU1qQXdNREF3TURBeU9UZ3dNak1pSUdWNGRHVnVaRjl5WVc1bgoJWlQwaU1DSWdMejQ4WWw5
        dmMyTXpYM0JoY21GdE5pQjBlWEJsUFNJd0lpQjJZV3gxWlQwaU1TSWdMejQ4WWw5dmMyTXoKCVgydGxlWFJ5WVdOcklIUjVjR1U5SWpBaUlIWmhiSFZsUFNJeElpQXZQ
        anhpWDI5ell6TmZjbVYwY21sbloyVnlJSFI1CgljR1U5SWpBaUlIWmhiSFZsUFNJd0lpQXZQanhpWDNCdmJIbHRiMlJsSUhSNWNHVTlJakFpSUhaaGJIVmxQU0l3SWlB
        dgoJUGp4aVgyWnRYM04zYVhSamFDQjBlWEJsUFNJd0lpQjJZV3gxWlQwaU1DSWdMejQ4WWw5bWJWOWtaWEIwYUNCMGVYQmwKCVBTSXlJaUIyWVd4MVpUMGlNQzR3TURB
        d01EQXdNREF3TURBd01DSWdMejQ4WWw5a2NtbG1kQ0IwZVhCbFBTSXlJaUIyCglZV3gxWlQwaU1DNHdNREF3TURBd01EQXdNREF3TUNJZ1pYaDBaVzVrWDNKaGJtZGxQ
        U0l3SWlBdlBqeGlYMjV2YVhObAoJWTI5c0lIUjVjR1U5SWpJaUlIWmhiSFZsUFNJdE1DNDVOemcxTnpBNU9UYzNNVFV3TUNJZ1pHVm1iM0p0WDNSNWNHVTkKCUlqQWlQ
        anh0YjJSeWIzVjBhVzVuSUhOdmRYSmpaVDBpTWpZaUlHUmxjSFJvUFNJd0xqSTRPVEk0TmlJZ2JYVjBaV1E5CglJakFpSUhOdmRYSmpaVjlwYm1SbGVEMGlNQ0lnTHo0
        OEwySmZibTlwYzJWamIydytQR0pmYTNSeWEzSnZiM1FnZEhsdwoJWlQwaU1DSWdkbUZzZFdVOUlqWXdJaUF2UGp4aVgzWnZiSFZ0WlNCMGVYQmxQU0l5SWlCMllXeDFa
        VDBpTVM0d01EQXcKCU1EQXdNREF3TURBd01DSWdaR1ZoWTNScGRtRjBaV1E5SWpBaUlDOCtQR0pmY0dGdUlIUjVjR1U5SWpJaUlIWmhiSFZsCglQU0l3TGpBd01EQXdN
        REF3TURBd01EQXdJaUF2UGp4aVgzQmhiaklnZEhsd1pUMGlNaUlnZG1Gc2RXVTlJakV1TURBdwoJTURBd01EQXdNREF3TURBaUlDOCtQR0pmYzJWdVpGOW1lRjh4SUhS
        NWNHVTlJaklpSUhaaGJIVmxQU0l3TGpZM01UZ3gKCU1EazRORFl4TVRVeElpQXZQanhpWDNObGJtUmZabmhmTWlCMGVYQmxQU0l5SWlCMllXeDFaVDBpTUM0MU9UVXlO
        elE1CglPRFE0TXpZMU9DSWdMejQ4WWw5elpXNWtYMlo0WHpNZ2RIbHdaVDBpTWlJZ2RtRnNkV1U5SWpBdU1EQXdNREF3TURBdwoJTURBd01EQWlJQzgrUEdKZmMyVnVa
        RjltZUY4MElIUjVjR1U5SWpJaUlIWmhiSFZsUFNJd0xqQXdNREF3TURBd01EQXcKCU1EQXdJaUF2UGp4aVgyeGxkbVZzWDI4eElIUjVjR1U5SWpJaUlIWmhiSFZsUFNJ
        d0xqSTJNRGN4TXprNU5EVXdNekF5CglJaUF2UGp4aVgyMTFkR1ZmYnpFZ2RIbHdaVDBpTUNJZ2RtRnNkV1U5SWpBaUlDOCtQR0pmYzI5c2IxOXZNU0IwZVhCbAoJUFNJ
        d0lpQjJZV3gxWlQwaU1DSWdMejQ4WWw5eWIzVjBaVjl2TVNCMGVYQmxQU0l3SWlCMllXeDFaVDBpTVNJZ0x6NDgKCVlsOXNaWFpsYkY5dk1pQjBlWEJsUFNJeUlpQjJZ
        V3gxWlQwaU1DNHpOemcxTnpFd01ETTJOelUwTmlJZ0x6NDhZbDl0CglkWFJsWDI4eUlIUjVjR1U5SWpBaUlIWmhiSFZsUFNJd0lpQXZQanhpWDNOdmJHOWZieklnZEhs
        d1pUMGlNQ0lnZG1GcwoJZFdVOUlqQWlJQzgrUEdKZmNtOTFkR1ZmYnpJZ2RIbHdaVDBpTUNJZ2RtRnNkV1U5SWpFaUlDOCtQR0pmYkdWMlpXeGYKCWJ6TWdkSGx3WlQw
        aU1pSWdkbUZzZFdVOUlqRXVNREF3TURBd01EQXdNREF3TURBaUlDOCtQR0pmYlhWMFpWOXZNeUIwCgllWEJsUFNJd0lpQjJZV3gxWlQwaU1TSWdMejQ4WWw5emIyeHZY
        Mjh6SUhSNWNHVTlJakFpSUhaaGJIVmxQU0l3SWlBdgoJUGp4aVgzSnZkWFJsWDI4eklIUjVjR1U5SWpBaUlIWmhiSFZsUFNJeElpQXZQanhpWDJ4bGRtVnNYM0pwYm1j
        eE1pQjAKCWVYQmxQU0l5SWlCMllXeDFaVDBpTVM0d01EQXdNREF3TURBd01EQXdNQ0lnWkdWbWIzSnRYM1I1Y0dVOUlqQWlJQzgrCglQR0pmYlhWMFpWOXlhVzVuTVRJ
        Z2RIbHdaVDBpTUNJZ2RtRnNkV1U5SWpFaUlDOCtQR0pmYzI5c2IxOXlhVzVuTVRJZwoJZEhsd1pUMGlNQ0lnZG1Gc2RXVTlJakFpSUM4K1BHSmZjbTkxZEdWZmNtbHVa
        ekV5SUhSNWNHVTlJakFpSUhaaGJIVmwKCVBTSXhJaUF2UGp4aVgyeGxkbVZzWDNKcGJtY3lNeUIwZVhCbFBTSXlJaUIyWVd4MVpUMGlNUzR3TURBd01EQXdNREF3CglN
        REF3TUNJZ1pHVm1iM0p0WDNSNWNHVTlJakFpSUM4K1BHSmZiWFYwWlY5eWFXNW5Nak1nZEhsd1pUMGlNQ0lnZG1GcwoJZFdVOUlqRWlJQzgrUEdKZmMyOXNiMTl5YVc1
        bk1qTWdkSGx3WlQwaU1DSWdkbUZzZFdVOUlqQWlJQzgrUEdKZmNtOTEKCWRHVmZjbWx1WnpJeklIUjVjR1U5SWpBaUlIWmhiSFZsUFNJeElpQXZQanhpWDJ4bGRtVnNY
        MjV2YVhObElIUjVjR1U5CglJaklpSUhaaGJIVmxQU0l3TGpJMk1EY3hNems1TkRVd016QXlJaUF2UGp4aVgyMTFkR1ZmYm05cGMyVWdkSGx3WlQwaQoJTUNJZ2RtRnNk
        V1U5SWpBaUlDOCtQR0pmYzI5c2IxOXViMmx6WlNCMGVYQmxQU0l3SWlCMllXeDFaVDBpTUNJZ0x6NDgKCVlsOXliM1YwWlY5dWIybHpaU0IwZVhCbFBTSXdJaUIyWVd4
        MVpUMGlNU0lnTHo0OFlsOXNaWFpsYkY5d1ptY2dkSGx3CglaVDBpTWlJZ2RtRnNkV1U5SWpBdU1EQXdNREF3TURBd01EQXdNREFpSUM4K1BHSmZjR0p5WVc1blpWOTFj
        Q0IwZVhCbAoJUFNJd0lpQjJZV3gxWlQwaU1pSWdaWGgwWlc1a1gzSmhibWRsUFNJd0lpQXZQanhpWDNCaWNtRnVaMlZmWkc0Z2RIbHcKCVpUMGlNQ0lnZG1Gc2RXVTlJ
        aklpSUdWNGRHVnVaRjl5WVc1blpUMGlNQ0lnTHo0OFlsOTJZMkZmYkdWMlpXd2dkSGx3CglaVDBpTWlJZ2RtRnNkV1U5SWpBdU1EQXdNREF3TURBd01EQXdNREFpSUM4
        K1BHSmZkbU5oWDNabGJITmxibk5sSUhSNQoJY0dVOUlqSWlJSFpoYkhWbFBTSXdMakF3TURBd01EQXdNREF3TURBd0lpQXZQanhpWDJabFpXUmlZV05ySUhSNWNHVTkK
        CUlqSWlJSFpoYkhWbFBTSXdMakF3TURBd01EQXdNREF3TURBd0lpQmxlSFJsYm1SZmNtRnVaMlU5SWpBaUlHUmxabTl5CgliVjkwZVhCbFBTSXdJaUF2UGp4aVgyWmlY
        Mk52Ym1acFp5QjBlWEJsUFNJd0lpQjJZV3gxWlQwaU1DSWdMejQ4WWw5bQoJWDJKaGJHRnVZMlVnZEhsd1pUMGlNaUlnZG1Gc2RXVTlJakF1TURBd01EQXdNREF3TURB
        d01EQWlJQzgrUEdKZmJHOTMKCVkzVjBJSFI1Y0dVOUlqSWlJSFpoYkhWbFBTSXROekl1TURBd01EQXdNREF3TURBd01EQWlJR1JsWVdOMGFYWmhkR1ZrCglQU0l3SWlC
        a1pXWnZjbTFmZEhsd1pUMGlNQ0lnTHo0OFlsOTNjMTkwZVhCbElIUjVjR1U5SWpBaUlIWmhiSFZsUFNJdwoJSWlCa1pXRmpkR2wyWVhSbFpEMGlNQ0lnTHo0OFlsOTNj
        MTlrY21sMlpTQjBlWEJsUFNJeUlpQjJZV3gxWlQwaU1DNHcKCU1EQXdNREF3TURBd01EQXdNQ0lnWlhoMFpXNWtYM0poYm1kbFBTSXdJaUF2UGp4aVgyWnBiSFJsY2pG
        ZmRIbHdaU0IwCgllWEJsUFNJd0lpQjJZV3gxWlQwaU1DSWdaR1ZoWTNScGRtRjBaV1E5SWpBaUlDOCtQR0pmWm1sc2RHVnlNVjl6ZFdKMAoJZVhCbElIUjVjR1U5SWpB
        aUlIWmhiSFZsUFNJd0lpQXZQanhpWDJacGJIUmxjakZmWTNWMGIyWm1JSFI1Y0dVOUlqSWkKCUlIWmhiSFZsUFNJekxqQXdNREF3TURBd01EQXdNREF3SWlCbGVIUmxi
        bVJmY21GdVoyVTlJakFpSUM4K1BHSmZabWxzCglkR1Z5TVY5eVpYTnZibUZ1WTJVZ2RIbHdaVDBpTWlJZ2RtRnNkV1U5SWpBdU1EQXdNREF3TURBd01EQXdNREFpSUM4
        KwoJUEdKZlptbHNkR1Z5TVY5bGJuWnRiMlFnZEhsd1pUMGlNaUlnZG1Gc2RXVTlJakF1TURBd01EQXdNREF3TURBd01EQWkKCUlDOCtQR0pmWm1sc2RHVnlNVjlyWlhs
        MGNtRmpheUIwZVhCbFBTSXlJaUIyWVd4MVpUMGlNQzR3TURBd01EQXdNREF3CglNREF3TUNJZ0x6NDhZbDltYVd4MFpYSXlYM1I1Y0dVZ2RIbHdaVDBpTUNJZ2RtRnNk
        V1U5SWpBaUlHUmxZV04wYVhaaAoJZEdWa1BTSXdJaUF2UGp4aVgyWnBiSFJsY2pKZmMzVmlkSGx3WlNCMGVYQmxQU0l3SWlCMllXeDFaVDBpTUNJZ0x6NDgKCVlsOW1h
        V3gwWlhJeVgyTjFkRzltWmlCMGVYQmxQU0l5SWlCMllXeDFaVDBpTXk0d01EQXdNREF3TURBd01EQXdNQ0lnCglaWGgwWlc1a1gzSmhibWRsUFNJd0lpQXZQanhpWDJZ
        eVgyTm1YMmx6WDI5bVpuTmxkQ0IwZVhCbFBTSXdJaUIyWVd4MQoJWlQwaU1DSWdMejQ4WWw5bWFXeDBaWEl5WDNKbGMyOXVZVzVqWlNCMGVYQmxQU0l5SWlCMllXeDFa
        VDBpTUM0d01EQXcKCU1EQXdNREF3TURBd01DSWdMejQ4WWw5bU1sOXNhVzVyWDNKbGMyOXVZVzVqWlNCMGVYQmxQU0l3SWlCMllXeDFaVDBpCglNQ0lnTHo0OFlsOW1h
        V3gwWlhJeVgyVnVkbTF2WkNCMGVYQmxQU0l5SWlCMllXeDFaVDBpTUM0d01EQXdNREF3TURBdwoJTURBd01DSWdMejQ4WWw5bWFXeDBaWEl5WDJ0bGVYUnlZV05ySUhS
        NWNHVTlJaklpSUhaaGJIVmxQU0l3TGpBd01EQXcKCU1EQXdNREF3TURBd0lpQXZQanhpWDJWdWRqRmZZWFIwWVdOcklIUjVjR1U5SWpJaUlIWmhiSFZsUFNJdE9DNHdN
        REF3CglNREF3TURBd01EQXdNQ0lnTHo0OFlsOWxibll4WDJGMGRHRmphMTl6YUdGd1pTQjBlWEJsUFNJd0lpQjJZV3gxWlQwaQoJTWlJZ0x6NDhZbDlsYm5ZeFgyUmxZ
        MkY1SUhSNWNHVTlJaklpSUhaaGJIVmxQU0l3TGpBd01EQXdNREF3TURBd01EQXcKCUlpQXZQanhpWDJWdWRqRmZaR1ZqWVhsZmMyaGhjR1VnZEhsd1pUMGlNQ0lnZG1G
        c2RXVTlJakVpSUM4K1BHSmZaVzUyCglNVjl6ZFhOMFlXbHVJSFI1Y0dVOUlqSWlJSFpoYkhWbFBTSXhMakF3TURBd01EQXdNREF3TURBd0lpQXZQanhpWDJWdQoJZGpG
        ZmNtVnNaV0Z6WlNCMGVYQmxQU0l5SWlCMllXeDFaVDBpTFRRdU1EQXdNREF3TURBd01EQXdNREFpSUM4K1BHSmYKCVpXNTJNVjl5Wld4bFlYTmxYM05vWVhCbElIUjVj
        R1U5SWpBaUlIWmhiSFZsUFNJeElpQXZQanhpWDJWdWRqRmZiVzlrCglaU0IwZVhCbFBTSXdJaUIyWVd4MVpUMGlNQ0lnTHo0OFlsOWxibll5WDJGMGRHRmpheUIwZVhC
        bFBTSXlJaUIyWVd4MQoJWlQwaUxUZ3VNREF3TURBd01EQXdNREF3TURBaUlDOCtQR0pmWlc1Mk1sOWhkSFJoWTJ0ZmMyaGhjR1VnZEhsd1pUMGkKCU1DSWdkbUZzZFdV
        OUlqRWlJQzgrUEdKZlpXNTJNbDlrWldOaGVTQjBlWEJsUFNJeUlpQjJZV3gxWlQwaUxUSXVNREF3CglNREF3TURBd01EQXdNREFpSUM4K1BHSmZaVzUyTWw5a1pXTmhl
        Vjl6YUdGd1pTQjBlWEJsUFNJd0lpQjJZV3gxWlQwaQoJTUNJZ0x6NDhZbDlsYm5ZeVgzTjFjM1JoYVc0Z2RIbHdaVDBpTWlJZ2RtRnNkV1U5SWpBdU1EQXdNREF3TURB
        d01EQXcKCU1EQWlJQzgrUEdKZlpXNTJNbDl5Wld4bFlYTmxJSFI1Y0dVOUlqSWlJSFpoYkhWbFBTSXROQzR3TURBd01EQXdNREF3CglNREF3TUNJZ0x6NDhZbDlsYm5Z
        eVgzSmxiR1ZoYzJWZmMyaGhjR1VnZEhsd1pUMGlNQ0lnZG1Gc2RXVTlJakFpSUM4KwoJUEdKZlpXNTJNbDl0YjJSbElIUjVjR1U5SWpBaUlIWmhiSFZsUFNJd0lpQXZQ
        anhpWDJ4bWJ6QmZjMmhoY0dVZ2RIbHcKCVpUMGlNQ0lnZG1Gc2RXVTlJakFpSUM4K1BHSmZiR1p2TUY5eVlYUmxJSFI1Y0dVOUlqSWlJSFpoYkhWbFBTSXdMakF3CglN
        REF3TURBd01EQXdNREF3SWlCa1pXRmpkR2wyWVhSbFpEMGlNQ0lnTHo0OFlsOXNabTh3WDNCb1lYTmxJSFI1Y0dVOQoJSWpJaUlIWmhiSFZsUFNJd0xqQXdNREF3TURB
        d01EQXdNREF3SWlCbGVIUmxibVJmY21GdVoyVTlJakFpSUM4K1BHSmYKCWJHWnZNRjl0WVdkdWFYUjFaR1VnZEhsd1pUMGlNaUlnZG1Gc2RXVTlJakV1TURBd01EQXdN
        REF3TURBd01EQWlJR1Y0CglkR1Z1WkY5eVlXNW5aVDBpTUNJZ0x6NDhZbDlzWm04d1gyUmxabTl5YlNCMGVYQmxQU0l5SWlCMllXeDFaVDBpTUM0dwoJTURBd01EQXdN
        REF3TURBd01DSWdaR1ZtYjNKdFgzUjVjR1U5SWpBaUlDOCtQR0pmYkdadk1GOTBjbWxuYlc5a1pTQjAKCWVYQmxQU0l3SWlCMllXeDFaVDBpTUNJZ0x6NDhZbDlzWm04
        d1gzVnVhWEJ2YkdGeUlIUjVjR1U5SWpBaUlIWmhiSFZsCglQU0l3SWlBdlBqeGlYMnhtYnpCZlpHVnNZWGtnZEhsd1pUMGlNaUlnZG1Gc2RXVTlJaTA0TGpBd01EQXdN
        REF3TURBdwoJTURBd0lpQmtaV0ZqZEdsMllYUmxaRDBpTUNJZ0x6NDhZbDlzWm04d1gyRjBkR0ZqYXlCMGVYQmxQU0l5SWlCMllXeDEKCVpUMGlMVGd1TURBd01EQXdN
        REF3TURBd01EQWlJQzgrUEdKZmJHWnZNRjlvYjJ4a0lIUjVjR1U5SWpJaUlIWmhiSFZsCglQU0l0T0M0d01EQXdNREF3TURBd01EQXdNQ0lnTHo0OFlsOXNabTh3WDJS
        bFkyRjVJSFI1Y0dVOUlqSWlJSFpoYkhWbAoJUFNJMUxqQXdNREF3TURBd01EQXdNREF3SWlBdlBqeGlYMnhtYnpCZmMzVnpkR0ZwYmlCMGVYQmxQU0l5SWlCMllXeDEK
        CVpUMGlNUzR3TURBd01EQXdNREF3TURBd01DSWdMejQ4WWw5c1ptOHdYM0psYkdWaGMyVWdkSGx3WlQwaU1pSWdkbUZzCglkV1U5SWpVdU1EQXdNREF3TURBd01EQXdN
        REFpSUM4K1BHSmZiR1p2TVY5emFHRndaU0IwZVhCbFBTSXdJaUIyWVd4MQoJWlQwaU1DSWdMejQ4WWw5c1ptOHhYM0poZEdVZ2RIbHdaVDBpTWlJZ2RtRnNkV1U5SWpB
        dU1EQXdNREF3TURBd01EQXcKCU1EQWlJR1JsWVdOMGFYWmhkR1ZrUFNJd0lpQXZQanhpWDJ4bWJ6RmZjR2hoYzJVZ2RIbHdaVDBpTWlJZ2RtRnNkV1U5CglJakF1TURB
        d01EQXdNREF3TURBd01EQWlJR1Y0ZEdWdVpGOXlZVzVuWlQwaU1DSWdMejQ4WWw5c1ptOHhYMjFoWjI1cAoJZEhWa1pTQjBlWEJsUFNJeUlpQjJZV3gxWlQwaU1TNHdN
        REF3TURBd01EQXdNREF3TUNJZ1pYaDBaVzVrWDNKaGJtZGwKCVBTSXdJaUF2UGp4aVgyeG1iekZmWkdWbWIzSnRJSFI1Y0dVOUlqSWlJSFpoYkhWbFBTSXdMakF3TURB
        d01EQXdNREF3CglNREF3SWlCa1pXWnZjbTFmZEhsd1pUMGlNQ0lnTHo0OFlsOXNabTh4WDNSeWFXZHRiMlJsSUhSNWNHVTlJakFpSUhaaAoJYkhWbFBTSXdJaUF2UGp4
        aVgyeG1iekZmZFc1cGNHOXNZWElnZEhsd1pUMGlNQ0lnZG1Gc2RXVTlJakFpSUM4K1BHSmYKCWJHWnZNVjlrWld4aGVTQjBlWEJsUFNJeUlpQjJZV3gxWlQwaUxUZ3VN
        REF3TURBd01EQXdNREF3TURBaUlHUmxZV04wCglhWFpoZEdWa1BTSXdJaUF2UGp4aVgyeG1iekZmWVhSMFlXTnJJSFI1Y0dVOUlqSWlJSFpoYkhWbFBTSXRPQzR3TURB
        dwoJTURBd01EQXdNREF3TUNJZ0x6NDhZbDlzWm04eFgyaHZiR1FnZEhsd1pUMGlNaUlnZG1Gc2RXVTlJaTA0TGpBd01EQXcKCU1EQXdNREF3TURBd0lpQXZQanhpWDJ4
        bWJ6RmZaR1ZqWVhrZ2RIbHdaVDBpTWlJZ2RtRnNkV1U5SWpVdU1EQXdNREF3CglNREF3TURBd01EQWlJQzgrUEdKZmJHWnZNVjl6ZFhOMFlXbHVJSFI1Y0dVOUlqSWlJ
        SFpoYkhWbFBTSXhMakF3TURBdwoJTURBd01EQXdNREF3SWlBdlBqeGlYMnhtYnpGZmNtVnNaV0Z6WlNCMGVYQmxQU0l5SWlCMllXeDFaVDBpTlM0d01EQXcKCU1EQXdN
        REF3TURBd01DSWdMejQ4WWw5c1ptOHlYM05vWVhCbElIUjVjR1U5SWpBaUlIWmhiSFZsUFNJd0lpQXZQanhpCglYMnhtYnpKZmNtRjBaU0IwZVhCbFBTSXlJaUIyWVd4
        MVpUMGlNQzR3TURBd01EQXdNREF3TURBd01DSWdaR1ZoWTNScAoJZG1GMFpXUTlJakFpSUM4K1BHSmZiR1p2TWw5d2FHRnpaU0IwZVhCbFBTSXlJaUIyWVd4MVpUMGlN
        QzR3TURBd01EQXcKCU1EQXdNREF3TUNJZ1pYaDBaVzVrWDNKaGJtZGxQU0l3SWlBdlBqeGlYMnhtYnpKZmJXRm5ibWwwZFdSbElIUjVjR1U5CglJaklpSUhaaGJIVmxQ
        U0l4TGpBd01EQXdNREF3TURBd01EQXdJaUJsZUhSbGJtUmZjbUZ1WjJVOUlqQWlJQzgrUEdKZgoJYkdadk1sOWtaV1p2Y20wZ2RIbHdaVDBpTWlJZ2RtRnNkV1U5SWpB
        dU1EQXdNREF3TURBd01EQXdNREFpSUdSbFptOXkKCWJWOTBlWEJsUFNJd0lpQXZQanhpWDJ4bWJ6SmZkSEpwWjIxdlpHVWdkSGx3WlQwaU1DSWdkbUZzZFdVOUlqQWlJ
        QzgrCglQR0pmYkdadk1sOTFibWx3YjJ4aGNpQjBlWEJsUFNJd0lpQjJZV3gxWlQwaU1DSWdMejQ4WWw5c1ptOHlYMlJsYkdGNQoJSUhSNWNHVTlJaklpSUhaaGJIVmxQ
        U0l0T0M0d01EQXdNREF3TURBd01EQXdNQ0lnWkdWaFkzUnBkbUYwWldROUlqQWkKCUlDOCtQR0pmYkdadk1sOWhkSFJoWTJzZ2RIbHdaVDBpTWlJZ2RtRnNkV1U5SWkw
        NExqQXdNREF3TURBd01EQXdNREF3CglJaUF2UGp4aVgyeG1iekpmYUc5c1pDQjBlWEJsUFNJeUlpQjJZV3gxWlQwaUxUZ3VNREF3TURBd01EQXdNREF3TURBaQoJSUM4
        K1BHSmZiR1p2TWw5a1pXTmhlU0IwZVhCbFBTSXlJaUIyWVd4MVpUMGlOUzR3TURBd01EQXdNREF3TURBd01DSWcKCUx6NDhZbDlzWm04eVgzTjFjM1JoYVc0Z2RIbHda
        VDBpTWlJZ2RtRnNkV1U5SWpFdU1EQXdNREF3TURBd01EQXdNREFpCglJQzgrUEdKZmJHWnZNbDl5Wld4bFlYTmxJSFI1Y0dVOUlqSWlJSFpoYkhWbFBTSTFMakF3TURB
        d01EQXdNREF3TURBdwoJSWlBdlBqeGlYMnhtYnpOZmMyaGhjR1VnZEhsd1pUMGlNQ0lnZG1Gc2RXVTlJakFpSUM4K1BHSmZiR1p2TTE5eVlYUmwKCUlIUjVjR1U5SWpJ
        aUlIWmhiSFZsUFNJd0xqQXdNREF3TURBd01EQXdNREF3SWlCa1pXRmpkR2wyWVhSbFpEMGlNQ0lnCglMejQ4WWw5c1ptOHpYM0JvWVhObElIUjVjR1U5SWpJaUlIWmhi
        SFZsUFNJd0xqQXdNREF3TURBd01EQXdNREF3SWlCbAoJZUhSbGJtUmZjbUZ1WjJVOUlqQWlJQzgrUEdKZmJHWnZNMTl0WVdkdWFYUjFaR1VnZEhsd1pUMGlNaUlnZG1G
        c2RXVTkKCUlqRXVNREF3TURBd01EQXdNREF3TURBaUlHVjRkR1Z1WkY5eVlXNW5aVDBpTUNJZ0x6NDhZbDlzWm04elgyUmxabTl5CgliU0IwZVhCbFBTSXlJaUIyWVd4
        MVpUMGlNQzR3TURBd01EQXdNREF3TURBd01DSWdaR1ZtYjNKdFgzUjVjR1U5SWpBaQoJSUM4K1BHSmZiR1p2TTE5MGNtbG5iVzlrWlNCMGVYQmxQU0l3SWlCMllXeDFa
        VDBpTUNJZ0x6NDhZbDlzWm04elgzVnUKCWFYQnZiR0Z5SUhSNWNHVTlJakFpSUhaaGJIVmxQU0l3SWlBdlBqeGlYMnhtYnpOZlpHVnNZWGtnZEhsd1pUMGlNaUlnCglk
        bUZzZFdVOUlpMDRMakF3TURBd01EQXdNREF3TURBd0lpQmtaV0ZqZEdsMllYUmxaRDBpTUNJZ0x6NDhZbDlzWm04egoJWDJGMGRHRmpheUIwZVhCbFBTSXlJaUIyWVd4
        MVpUMGlMVGd1TURBd01EQXdNREF3TURBd01EQWlJQzgrUEdKZmJHWnYKCU0xOW9iMnhrSUhSNWNHVTlJaklpSUhaaGJIVmxQU0l0T0M0d01EQXdNREF3TURBd01EQXdN
        Q0lnTHo0OFlsOXNabTh6CglYMlJsWTJGNUlIUjVjR1U5SWpJaUlIWmhiSFZsUFNJMUxqQXdNREF3TURBd01EQXdNREF3SWlBdlBqeGlYMnhtYnpOZgoJYzNWemRHRnBi
        aUIwZVhCbFBTSXlJaUIyWVd4MVpUMGlNUzR3TURBd01EQXdNREF3TURBd01DSWdMejQ4WWw5c1ptOHoKCVgzSmxiR1ZoYzJVZ2RIbHdaVDBpTWlJZ2RtRnNkV1U5SWpV
        dU1EQXdNREF3TURBd01EQXdNREFpSUM4K1BHSmZiR1p2CglORjl6YUdGd1pTQjBlWEJsUFNJd0lpQjJZV3gxWlQwaU1DSWdMejQ4WWw5c1ptODBYM0poZEdVZ2RIbHda
        VDBpTWlJZwoJZG1Gc2RXVTlJakF1TURBd01EQXdNREF3TURBd01EQWlJR1JsWVdOMGFYWmhkR1ZrUFNJd0lpQXZQanhpWDJ4bWJ6UmYKCWNHaGhjMlVnZEhsd1pUMGlN
        aUlnZG1Gc2RXVTlJakF1TURBd01EQXdNREF3TURBd01EQWlJR1Y0ZEdWdVpGOXlZVzVuCglaVDBpTUNJZ0x6NDhZbDlzWm04MFgyMWhaMjVwZEhWa1pTQjBlWEJsUFNJ
        eUlpQjJZV3gxWlQwaU1TNHdNREF3TURBdwoJTURBd01EQXdNQ0lnWlhoMFpXNWtYM0poYm1kbFBTSXdJaUF2UGp4aVgyeG1ielJmWkdWbWIzSnRJSFI1Y0dVOUlqSWkK
        CUlIWmhiSFZsUFNJd0xqQXdNREF3TURBd01EQXdNREF3SWlCa1pXWnZjbTFmZEhsd1pUMGlNQ0lnTHo0OFlsOXNabTgwCglYM1J5YVdkdGIyUmxJSFI1Y0dVOUlqQWlJ
        SFpoYkhWbFBTSXdJaUF2UGp4aVgyeG1ielJmZFc1cGNHOXNZWElnZEhsdwoJWlQwaU1DSWdkbUZzZFdVOUlqQWlJQzgrUEdKZmJHWnZORjlrWld4aGVTQjBlWEJsUFNJ
        eUlpQjJZV3gxWlQwaUxUZ3UKCU1EQXdNREF3TURBd01EQXdNREFpSUdSbFlXTjBhWFpoZEdWa1BTSXdJaUF2UGp4aVgyeG1ielJmWVhSMFlXTnJJSFI1CgljR1U5SWpJ
        aUlIWmhiSFZsUFNJdE9DNHdNREF3TURBd01EQXdNREF3TUNJZ0x6NDhZbDlzWm04MFgyaHZiR1FnZEhsdwoJWlQwaU1pSWdkbUZzZFdVOUlpMDRMakF3TURBd01EQXdN
        REF3TURBd0lpQXZQanhpWDJ4bWJ6UmZaR1ZqWVhrZ2RIbHcKCVpUMGlNaUlnZG1Gc2RXVTlJalV1TURBd01EQXdNREF3TURBd01EQWlJQzgrUEdKZmJHWnZORjl6ZFhO
        MFlXbHVJSFI1CgljR1U5SWpJaUlIWmhiSFZsUFNJeExqQXdNREF3TURBd01EQXdNREF3SWlBdlBqeGlYMnhtYnpSZmNtVnNaV0Z6WlNCMAoJZVhCbFBTSXlJaUIyWVd4
        MVpUMGlOUzR3TURBd01EQXdNREF3TURBd01DSWdMejQ4WWw5c1ptODFYM05vWVhCbElIUjUKCWNHVTlJakFpSUhaaGJIVmxQU0l3SWlBdlBqeGlYMnhtYnpWZmNtRjBa
        U0IwZVhCbFBTSXlJaUIyWVd4MVpUMGlNQzR3CglNREF3TURBd01EQXdNREF3TUNJZ1pHVmhZM1JwZG1GMFpXUTlJakFpSUM4K1BHSmZiR1p2TlY5d2FHRnpaU0IwZVhC
        bAoJUFNJeUlpQjJZV3gxWlQwaU1DNHdNREF3TURBd01EQXdNREF3TUNJZ1pYaDBaVzVrWDNKaGJtZGxQU0l3SWlBdlBqeGkKCVgyeG1ielZmYldGbmJtbDBkV1JsSUhS
        NWNHVTlJaklpSUhaaGJIVmxQU0l4TGpBd01EQXdNREF3TURBd01EQXdJaUJsCgllSFJsYm1SZmNtRnVaMlU5SWpBaUlDOCtQR0pmYkdadk5WOWtaV1p2Y20wZ2RIbHda
        VDBpTWlJZ2RtRnNkV1U5SWpBdQoJTURBd01EQXdNREF3TURBd01EQWlJR1JsWm05eWJWOTBlWEJsUFNJd0lpQXZQanhpWDJ4bWJ6VmZkSEpwWjIxdlpHVWcKCWRIbHda
        VDBpTUNJZ2RtRnNkV1U5SWpBaUlDOCtQR0pmYkdadk5WOTFibWx3YjJ4aGNpQjBlWEJsUFNJd0lpQjJZV3gxCglaVDBpTUNJZ0x6NDhZbDlzWm04MVgyUmxiR0Y1SUhS
        NWNHVTlJaklpSUhaaGJIVmxQU0l0T0M0d01EQXdNREF3TURBdwoJTURBd01DSWdaR1ZoWTNScGRtRjBaV1E5SWpBaUlDOCtQR0pmYkdadk5WOWhkSFJoWTJzZ2RIbHda
        VDBpTWlJZ2RtRnMKCWRXVTlJaTA0TGpBd01EQXdNREF3TURBd01EQXdJaUF2UGp4aVgyeG1ielZmYUc5c1pDQjBlWEJsUFNJeUlpQjJZV3gxCglaVDBpTFRndU1EQXdN
        REF3TURBd01EQXdNREFpSUM4K1BHSmZiR1p2TlY5a1pXTmhlU0IwZVhCbFBTSXlJaUIyWVd4MQoJWlQwaU5TNHdNREF3TURBd01EQXdNREF3TUNJZ0x6NDhZbDlzWm04
        MVgzTjFjM1JoYVc0Z2RIbHdaVDBpTWlJZ2RtRnMKCWRXVTlJakV1TURBd01EQXdNREF3TURBd01EQWlJQzgrUEdKZmJHWnZOVjl5Wld4bFlYTmxJSFI1Y0dVOUlqSWlJ
        SFpoCgliSFZsUFNJMUxqQXdNREF3TURBd01EQXdNREF3SWlBdlBqeGlYMnhtYnpaZmMyaGhjR1VnZEhsd1pUMGlNQ0lnZG1GcwoJZFdVOUlqQWlJQzgrUEdKZmJHWnZO
        bDl5WVhSbElIUjVjR1U5SWpJaUlIWmhiSFZsUFNJd0xqQXdNREF3TURBd01EQXcKCU1EQXdJaUJrWldGamRHbDJZWFJsWkQwaU1DSWdMejQ4WWw5c1ptODJYM0JvWVhO
        bElIUjVjR1U5SWpJaUlIWmhiSFZsCglQU0l3TGpBd01EQXdNREF3TURBd01EQXdJaUJsZUhSbGJtUmZjbUZ1WjJVOUlqQWlJQzgrUEdKZmJHWnZObDl0WVdkdQoJYVhS
        MVpHVWdkSGx3WlQwaU1pSWdkbUZzZFdVOUlqRXVNREF3TURBd01EQXdNREF3TURBaUlHVjRkR1Z1WkY5eVlXNW4KCVpUMGlNQ0lnTHo0OFlsOXNabTgyWDJSbFptOXli
        U0IwZVhCbFBTSXlJaUIyWVd4MVpUMGlNQzR3TURBd01EQXdNREF3CglNREF3TUNJZ1pHVm1iM0p0WDNSNWNHVTlJakFpSUM4K1BHSmZiR1p2Tmw5MGNtbG5iVzlrWlNC
        MGVYQmxQU0l3SWlCMgoJWVd4MVpUMGlNQ0lnTHo0OFlsOXNabTgyWDNWdWFYQnZiR0Z5SUhSNWNHVTlJakFpSUhaaGJIVmxQU0l3SWlBdlBqeGkKCVgyeG1ielpmWkdW
        c1lYa2dkSGx3WlQwaU1pSWdkbUZzZFdVOUlpMDRMakF3TURBd01EQXdNREF3TURBd0lpQmtaV0ZqCglkR2wyWVhSbFpEMGlNQ0lnTHo0OFlsOXNabTgyWDJGMGRHRmph
        eUIwZVhCbFBTSXlJaUIyWVd4MVpUMGlMVGd1TURBdwoJTURBd01EQXdNREF3TURBaUlDOCtQR0pmYkdadk5sOW9iMnhrSUhSNWNHVTlJaklpSUhaaGJIVmxQU0l0T0M0
        d01EQXcKCU1EQXdNREF3TURBd01DSWdMejQ4WWw5c1ptODJYMlJsWTJGNUlIUjVjR1U5SWpJaUlIWmhiSFZsUFNJMUxqQXdNREF3CglNREF3TURBd01EQXdJaUF2UGp4
        aVgyeG1ielpmYzNWemRHRnBiaUIwZVhCbFBTSXlJaUIyWVd4MVpUMGlNUzR3TURBdwoJTURBd01EQXdNREF3TUNJZ0x6NDhZbDlzWm04MlgzSmxiR1ZoYzJVZ2RIbHda
        VDBpTWlJZ2RtRnNkV1U5SWpVdU1EQXcKCU1EQXdNREF3TURBd01EQWlJQzgrUEdKZmJHWnZOMTl6YUdGd1pTQjBlWEJsUFNJd0lpQjJZV3gxWlQwaU1DSWdMejQ4CglZ
        bDlzWm04M1gzSmhkR1VnZEhsd1pUMGlNaUlnZG1Gc2RXVTlJak11TURBd01EQXdNREF3TURBd01EQWlJSFJsYlhCdgoJYzNsdVl6MGlNU0lnWkdWaFkzUnBkbUYwWldR
        OUlqQWlJQzgrUEdKZmJHWnZOMTl3YUdGelpTQjBlWEJsUFNJeUlpQjIKCVlXeDFaVDBpTUM0d01EQXdNREF3TURBd01EQXdNQ0lnWlhoMFpXNWtYM0poYm1kbFBTSXdJ
        aUF2UGp4aVgyeG1iemRmCgliV0ZuYm1sMGRXUmxJSFI1Y0dVOUlqSWlJSFpoYkhWbFBTSXdMakV4T0RjME9UazVPRFV3T1RnNElpQmxlSFJsYm1SZgoJY21GdVoyVTlJ
        akFpSUM4K1BHSmZiR1p2TjE5a1pXWnZjbTBnZEhsd1pUMGlNaUlnZG1Gc2RXVTlJakF1TURBd01EQXcKCU1EQXdNREF3TURBaUlHUmxabTl5YlY5MGVYQmxQU0l3SWlB
        dlBqeGlYMnhtYnpkZmRISnBaMjF2WkdVZ2RIbHdaVDBpCglNQ0lnZG1Gc2RXVTlJakFpSUM4K1BHSmZiR1p2TjE5MWJtbHdiMnhoY2lCMGVYQmxQU0l3SWlCMllXeDFa
        VDBpTUNJZwoJTHo0OFlsOXNabTgzWDJSbGJHRjVJSFI1Y0dVOUlqSWlJSFpoYkhWbFBTSXRPQzR3TURBd01EQXdNREF3TURBd01DSWcKCVpHVmhZM1JwZG1GMFpXUTlJ
        akFpSUM4K1BHSmZiR1p2TjE5aGRIUmhZMnNnZEhsd1pUMGlNaUlnZG1Gc2RXVTlJaTA0CglMakF3TURBd01EQXdNREF3TURBd0lpQXZQanhpWDJ4bWJ6ZGZhRzlzWkNC
        MGVYQmxQU0l5SWlCMllXeDFaVDBpTFRndQoJTURBd01EQXdNREF3TURBd01EQWlJQzgrUEdKZmJHWnZOMTlrWldOaGVTQjBlWEJsUFNJeUlpQjJZV3gxWlQwaU5TNHcK
        CU1EQXdNREF3TURBd01EQXdNQ0lnTHo0OFlsOXNabTgzWDNOMWMzUmhhVzRnZEhsd1pUMGlNaUlnZG1Gc2RXVTlJakV1CglNREF3TURBd01EQXdNREF3TURBaUlDOCtQ
        R0pmYkdadk4xOXlaV3hsWVhObElIUjVjR1U5SWpJaUlIWmhiSFZsUFNJMQoJTGpBd01EQXdNREF3TURBd01EQXdJaUF2UGp4aVgyeG1iemhmYzJoaGNHVWdkSGx3WlQw
        aU1DSWdkbUZzZFdVOUlqQWkKCUlDOCtQR0pmYkdadk9GOXlZWFJsSUhSNWNHVTlJaklpSUhaaGJIVmxQU0l4TGpVNE5EazJNakF4TURNNE16WXhJaUIwCglaVzF3YjNO
        NWJtTTlJakVpSUdSbFlXTjBhWFpoZEdWa1BTSXdJaUF2UGp4aVgyeG1iemhmY0doaGMyVWdkSGx3WlQwaQoJTWlJZ2RtRnNkV1U5SWpBdU1EQXdNREF3TURBd01EQXdN
        REFpSUdWNGRHVnVaRjl5WVc1blpUMGlNQ0lnTHo0OFlsOXMKCVptODRYMjFoWjI1cGRIVmtaU0IwZVhCbFBTSXlJaUIyWVd4MVpUMGlNQzR5TmpnM05UQXdNVEU1TWpB
        NU15SWdaWGgwCglaVzVrWDNKaGJtZGxQU0l3SWlBdlBqeGlYMnhtYnpoZlpHVm1iM0p0SUhSNWNHVTlJaklpSUhaaGJIVmxQU0l3TGpBdwoJTURBd01EQXdNREF3TURB
        d0lpQmtaV1p2Y20xZmRIbHdaVDBpTUNJZ0x6NDhZbDlzWm04NFgzUnlhV2R0YjJSbElIUjUKCWNHVTlJakFpSUhaaGJIVmxQU0l3SWlBdlBqeGlYMnhtYnpoZmRXNXBj
        RzlzWVhJZ2RIbHdaVDBpTUNJZ2RtRnNkV1U5CglJakFpSUM4K1BHSmZiR1p2T0Y5a1pXeGhlU0IwZVhCbFBTSXlJaUIyWVd4MVpUMGlMVGd1TURBd01EQXdNREF3TURB
        dwoJTURBaUlHUmxZV04wYVhaaGRHVmtQU0l3SWlBdlBqeGlYMnhtYnpoZllYUjBZV05ySUhSNWNHVTlJaklpSUhaaGJIVmwKCVBTSXRPQzR3TURBd01EQXdNREF3TURB
        d01DSWdMejQ4WWw5c1ptODRYMmh2YkdRZ2RIbHdaVDBpTWlJZ2RtRnNkV1U5CglJaTA0TGpBd01EQXdNREF3TURBd01EQXdJaUF2UGp4aVgyeG1iemhmWkdWallYa2dk
        SGx3WlQwaU1pSWdkbUZzZFdVOQoJSWpVdU1EQXdNREF3TURBd01EQXdNREFpSUM4K1BHSmZiR1p2T0Y5emRYTjBZV2x1SUhSNWNHVTlJaklpSUhaaGJIVmwKCVBTSXhM
        akF3TURBd01EQXdNREF3TURBd0lpQXZQanhpWDJ4bWJ6aGZjbVZzWldGelpTQjBlWEJsUFNJeUlpQjJZV3gxCglaVDBpTlM0d01EQXdNREF3TURBd01EQXdNQ0lnTHo0
        OFlsOXNabTg1WDNOb1lYQmxJSFI1Y0dVOUlqQWlJSFpoYkhWbAoJUFNJd0lpQXZQanhpWDJ4bWJ6bGZjbUYwWlNCMGVYQmxQU0l5SWlCMllXeDFaVDBpTFRBdU56TTFO
        REkzTURJeE9UZ3cKCU1qa2lJR1JsWVdOMGFYWmhkR1ZrUFNJd0lpQXZQanhpWDJ4bWJ6bGZjR2hoYzJVZ2RIbHdaVDBpTWlJZ2RtRnNkV1U5CglJakF1TURBd01EQXdN
        REF3TURBd01EQWlJR1Y0ZEdWdVpGOXlZVzVuWlQwaU1DSWdMejQ4WWw5c1ptODVYMjFoWjI1cAoJZEhWa1pTQjBlWEJsUFNJeUlpQjJZV3gxWlQwaU1DNHpPREV5TkRr
        NU9UUXdNemsxTkNJZ1pYaDBaVzVrWDNKaGJtZGwKCVBTSXdJaUF2UGp4aVgyeG1iemxmWkdWbWIzSnRJSFI1Y0dVOUlqSWlJSFpoYkhWbFBTSXdMakF3TURBd01EQXdN
        REF3CglNREF3SWlCa1pXWnZjbTFmZEhsd1pUMGlNQ0lnTHo0OFlsOXNabTg1WDNSeWFXZHRiMlJsSUhSNWNHVTlJakFpSUhaaAoJYkhWbFBTSXdJaUF2UGp4aVgyeG1i
        emxmZFc1cGNHOXNZWElnZEhsd1pUMGlNQ0lnZG1Gc2RXVTlJakVpSUM4K1BHSmYKCWJHWnZPVjlrWld4aGVTQjBlWEJsUFNJeUlpQjJZV3gxWlQwaUxUZ3VNREF3TURB
        d01EQXdNREF3TURBaUlHUmxZV04wCglhWFpoZEdWa1BTSXdJaUF2UGp4aVgyeG1iemxmWVhSMFlXTnJJSFI1Y0dVOUlqSWlJSFpoYkhWbFBTSXRPQzR3TURBdwoJTURB
        d01EQXdNREF3TUNJZ0x6NDhZbDlzWm04NVgyaHZiR1FnZEhsd1pUMGlNaUlnZG1Gc2RXVTlJaTA0TGpBd01EQXcKCU1EQXdNREF3TURBd0lpQXZQanhpWDJ4bWJ6bGZa
        R1ZqWVhrZ2RIbHdaVDBpTWlJZ2RtRnNkV1U5SWpVdU1EQXdNREF3CglNREF3TURBd01EQWlJQzgrUEdKZmJHWnZPVjl6ZFhOMFlXbHVJSFI1Y0dVOUlqSWlJSFpoYkhW
        bFBTSXhMakF3TURBdwoJTURBd01EQXdNREF3SWlBdlBqeGlYMnhtYnpsZmNtVnNaV0Z6WlNCMGVYQmxQU0l5SWlCMllXeDFaVDBpTlM0d01EQXcKCU1EQXdNREF3TURB
        d01DSWdMejQ4WWw5c1ptOHhNRjl6YUdGd1pTQjBlWEJsUFNJd0lpQjJZV3gxWlQwaU1DSWdMejQ4CglZbDlzWm04eE1GOXlZWFJsSUhSNWNHVTlJaklpSUhaaGJIVmxQ
        U0l3TGpBd01EQXdNREF3TURBd01EQXdJaUJrWldGagoJZEdsMllYUmxaRDBpTUNJZ0x6NDhZbDlzWm04eE1GOXdhR0Z6WlNCMGVYQmxQU0l5SWlCMllXeDFaVDBpTUM0
        d01EQXcKCU1EQXdNREF3TURBd01DSWdaWGgwWlc1a1gzSmhibWRsUFNJd0lpQXZQanhpWDJ4bWJ6RXdYMjFoWjI1cGRIVmtaU0IwCgllWEJsUFNJeUlpQjJZV3gxWlQw
        aU1TNHdNREF3TURBd01EQXdNREF3TUNJZ1pYaDBaVzVrWDNKaGJtZGxQU0l3SWlBdgoJUGp4aVgyeG1iekV3WDJSbFptOXliU0IwZVhCbFBTSXlJaUIyWVd4MVpUMGlN
        QzR3TURBd01EQXdNREF3TURBd01DSWcKCVpHVm1iM0p0WDNSNWNHVTlJakFpSUM4K1BHSmZiR1p2TVRCZmRISnBaMjF2WkdVZ2RIbHdaVDBpTUNJZ2RtRnNkV1U5CglJ
        akFpSUM4K1BHSmZiR1p2TVRCZmRXNXBjRzlzWVhJZ2RIbHdaVDBpTUNJZ2RtRnNkV1U5SWpBaUlDOCtQR0pmYkdadgoJTVRCZlpHVnNZWGtnZEhsd1pUMGlNaUlnZG1G
        c2RXVTlJaTA0TGpBd01EQXdNREF3TURBd01EQXdJaUJrWldGamRHbDIKCVlYUmxaRDBpTUNJZ0x6NDhZbDlzWm04eE1GOWhkSFJoWTJzZ2RIbHdaVDBpTWlJZ2RtRnNk
        V1U5SWkwNExqQXdNREF3CglNREF3TURBd01EQXdJaUF2UGp4aVgyeG1iekV3WDJodmJHUWdkSGx3WlQwaU1pSWdkbUZzZFdVOUlpMDRMakF3TURBdwoJTURBd01EQXdN
        REF3SWlBdlBqeGlYMnhtYnpFd1gyUmxZMkY1SUhSNWNHVTlJaklpSUhaaGJIVmxQU0kxTGpBd01EQXcKCU1EQXdNREF3TURBd0lpQXZQanhpWDJ4bWJ6RXdYM04xYzNS
        aGFXNGdkSGx3WlQwaU1pSWdkbUZzZFdVOUlqRXVNREF3CglNREF3TURBd01EQXdNREFpSUM4K1BHSmZiR1p2TVRCZmNtVnNaV0Z6WlNCMGVYQmxQU0l5SWlCMllXeDFa
        VDBpTlM0dwoJTURBd01EQXdNREF3TURBd01DSWdMejQ4WWw5c1ptOHhNVjl6YUdGd1pTQjBlWEJsUFNJd0lpQjJZV3gxWlQwaU1DSWcKCUx6NDhZbDlzWm04eE1WOXlZ
        WFJsSUhSNWNHVTlJaklpSUhaaGJIVmxQU0l3TGpBd01EQXdNREF3TURBd01EQXdJaUJrCglaV0ZqZEdsMllYUmxaRDBpTUNJZ0x6NDhZbDlzWm04eE1WOXdhR0Z6WlNC
        MGVYQmxQU0l5SWlCMllXeDFaVDBpTUM0dwoJTURBd01EQXdNREF3TURBd01DSWdaWGgwWlc1a1gzSmhibWRsUFNJd0lpQXZQanhpWDJ4bWJ6RXhYMjFoWjI1cGRIVmsK
        CVpTQjBlWEJsUFNJeUlpQjJZV3gxWlQwaU1TNHdNREF3TURBd01EQXdNREF3TUNJZ1pYaDBaVzVrWDNKaGJtZGxQU0l3CglJaUF2UGp4aVgyeG1iekV4WDJSbFptOXli
        U0IwZVhCbFBTSXlJaUIyWVd4MVpUMGlNQzR3TURBd01EQXdNREF3TURBdwoJTUNJZ1pHVm1iM0p0WDNSNWNHVTlJakFpSUM4K1BHSmZiR1p2TVRGZmRISnBaMjF2WkdV
        Z2RIbHdaVDBpTUNJZ2RtRnMKCWRXVTlJakFpSUM4K1BHSmZiR1p2TVRGZmRXNXBjRzlzWVhJZ2RIbHdaVDBpTUNJZ2RtRnNkV1U5SWpBaUlDOCtQR0pmCgliR1p2TVRG
        ZlpHVnNZWGtnZEhsd1pUMGlNaUlnZG1Gc2RXVTlJaTA0TGpBd01EQXdNREF3TURBd01EQXdJaUJrWldGagoJZEdsMllYUmxaRDBpTUNJZ0x6NDhZbDlzWm04eE1WOWhk
        SFJoWTJzZ2RIbHdaVDBpTWlJZ2RtRnNkV1U5SWkwNExqQXcKCU1EQXdNREF3TURBd01EQXdJaUF2UGp4aVgyeG1iekV4WDJodmJHUWdkSGx3WlQwaU1pSWdkbUZzZFdV
        OUlpMDRMakF3CglNREF3TURBd01EQXdNREF3SWlBdlBqeGlYMnhtYnpFeFgyUmxZMkY1SUhSNWNHVTlJaklpSUhaaGJIVmxQU0kxTGpBdwoJTURBd01EQXdNREF3TURB
        d0lpQXZQanhpWDJ4bWJ6RXhYM04xYzNSaGFXNGdkSGx3WlQwaU1pSWdkbUZzZFdVOUlqRXUKCU1EQXdNREF3TURBd01EQXdNREFpSUM4K1BHSmZiR1p2TVRGZmNtVnNa
        V0Z6WlNCMGVYQmxQU0l5SWlCMllXeDFaVDBpCglOUzR3TURBd01EQXdNREF3TURBd01DSWdMejQ4WTJoaGNtRmpkR1Z5SUhSNWNHVTlJakFpSUhaaGJIVmxQU0l3SWlB
        dgoJUGp3dmNHRnlZVzFsZEdWeWN6NDhibTl1Y0dGeVlXMWpiMjVtYVdjK1BHMXZibTlXYjJsalpWQnliM0pwZEhsZk1DQjIKCVBTSXdJaUF2UGp4dGIyNXZWbTlwWTJW
        UWNtOXlhWFI1WHpFZ2RqMGlNQ0lnTHo0OGJXOXViMVp2YVdObFJXNTJaV3h2CgljR1ZmTUNCMlBTSXdJaUF2UGp4dGIyNXZWbTlwWTJWRmJuWmxiRzl3WlY4eElIWTlJ
        akFpSUM4K1BIQnZiSGxXYjJsagoJWlZKbGNHVmhkR1ZrUzJWNVRXOWtaVjh3SUhZOUlqQWlJQzgrUEhCdmJIbFdiMmxqWlZKbGNHVmhkR1ZrUzJWNVRXOWsKCVpWOHhJ
        SFk5SWpBaUlDOCtQR2hoY21SamJHbHdiVzlrWlhNZ1oyeHZZbUZzUFNJeElpQnpZekE5SWpFaUlITmpNVDBpCglNU0lnTHo0OGRIVnVhVzVuUVhCd2JHbGpZWFJwYjI1
        TmIyUmxJSFk5SWpBaUlDOCtQQzl1YjI1d1lYSmhiV052Ym1acAoJWno0OFpYaDBjbUZ2YzJOa1lYUmhQanh2YzJOZlpYaDBjbUZmYzJNd1gyOXpZekFnYzJObGJtVTlJ
        akFpSUc5ell6MGkKCU1DSWdkMkYyWlhSaFlteGxYMlJwYzNCc1lYbGZibUZ0WlQwaUtGQmhkR05vSUZkaGRtVjBZV0pzWlNraUlIZGhkbVYwCglZV0pzWlY5bWIzSnRk
        V3hoUFNJaUlIZGhkbVYwWVdKc1pWOW1iM0p0ZFd4aFgyNW1jbUZ0WlhNOUlqRXdJaUIzWVhabAoJZEdGaWJHVmZabTl5YlhWc1lWOXlaWE5mWW1GelpUMGlOU0lnWlho
        MGNtRmZiajBpTUNJZ0x6NDhiM05qWDJWNGRISmgKCVgzTmpNRjl2YzJNeElITmpaVzVsUFNJd0lpQnZjMk05SWpFaUlIZGhkbVYwWVdKc1pWOWthWE53YkdGNVgyNWhi
        V1U5CglJaWhRWVhSamFDQlhZWFpsZEdGaWJHVXBJaUIzWVhabGRHRmliR1ZmWm05eWJYVnNZVDBpSWlCM1lYWmxkR0ZpYkdWZgoJWm05eWJYVnNZVjl1Wm5KaGJXVnpQ
        U0l4TUNJZ2QyRjJaWFJoWW14bFgyWnZjbTExYkdGZmNtVnpYMkpoYzJVOUlqVWkKCUlHVjRkSEpoWDI0OUlqQWlJQzgrUEc5elkxOWxlSFJ5WVY5ell6QmZiM05qTWlC
        elkyVnVaVDBpTUNJZ2IzTmpQU0l5CglJaUJsZUhSeVlWOXVQU0l3SWlBdlBqeHZjMk5mWlhoMGNtRmZjMk14WDI5ell6QWdjMk5sYm1VOUlqRWlJRzl6WXowaQoJTUNJ
        Z2QyRjJaWFJoWW14bFgyUnBjM0JzWVhsZmJtRnRaVDBpS0ZCaGRHTm9JRmRoZG1WMFlXSnNaU2tpSUhkaGRtVjAKCVlXSnNaVjltYjNKdGRXeGhQU0lpSUhkaGRtVjBZ
        V0pzWlY5bWIzSnRkV3hoWDI1bWNtRnRaWE05SWpFd0lpQjNZWFpsCglkR0ZpYkdWZlptOXliWFZzWVY5eVpYTmZZbUZ6WlQwaU5TSWdaWGgwY21GZmJqMGlNQ0lnTHo0
        OGIzTmpYMlY0ZEhKaAoJWDNOak1WOXZjMk14SUhOalpXNWxQU0l4SWlCdmMyTTlJakVpSUhkaGRtVjBZV0pzWlY5a2FYTndiR0Y1WDI1aGJXVTkKCUlpaFFZWFJqYUNC
        WFlYWmxkR0ZpYkdVcElpQjNZWFpsZEdGaWJHVmZabTl5YlhWc1lUMGlJaUIzWVhabGRHRmliR1ZmCglabTl5YlhWc1lWOXVabkpoYldWelBTSXhNQ0lnZDJGMlpYUmhZ
        bXhsWDJadmNtMTFiR0ZmY21WelgySmhjMlU5SWpVaQoJSUdWNGRISmhYMjQ5SWpBaUlDOCtQRzl6WTE5bGVIUnlZVjl6WXpGZmIzTmpNaUJ6WTJWdVpUMGlNU0lnYjNO
        alBTSXkKCUlpQmxlSFJ5WVY5dVBTSXdJaUF2UGp3dlpYaDBjbUZ2YzJOa1lYUmhQanh6ZEdWd2MyVnhkV1Z1WTJWeklDOCtQRzF6CglaV2R6SUM4K1BHWnZjbTExYkdG
        bElDOCtQR1Y0ZEhKaGJHWnZQanhzWm04Z2MyTmxibVU5SWpBaUlHazlJakFpSUdWNAoJZEhKaFFXMXdiR2wwZFdSbFBTSXdJaUF2UGp4c1ptOGdjMk5sYm1VOUlqQWlJ
        R2s5SWpFaUlHVjRkSEpoUVcxd2JHbDAKCWRXUmxQU0l3SWlBdlBqeHNabThnYzJObGJtVTlJakFpSUdrOUlqSWlJR1Y0ZEhKaFFXMXdiR2wwZFdSbFBTSXdJaUF2CglQ
        anhzWm04Z2MyTmxibVU5SWpBaUlHazlJak1pSUdWNGRISmhRVzF3YkdsMGRXUmxQU0l3SWlBdlBqeHNabThnYzJObAoJYm1VOUlqQWlJR2s5SWpRaUlHVjRkSEpoUVcx
        d2JHbDBkV1JsUFNJd0lpQXZQanhzWm04Z2MyTmxibVU5SWpBaUlHazkKCUlqVWlJR1Y0ZEhKaFFXMXdiR2wwZFdSbFBTSXdJaUF2UGp4c1ptOGdjMk5sYm1VOUlqQWlJ
        R2s5SWpZaUlHVjRkSEpoCglRVzF3YkdsMGRXUmxQU0l3SWlBdlBqeHNabThnYzJObGJtVTlJakFpSUdrOUlqY2lJR1Y0ZEhKaFFXMXdiR2wwZFdSbAoJUFNJd0lpQXZQ
        anhzWm04Z2MyTmxibVU5SWpBaUlHazlJamdpSUdWNGRISmhRVzF3YkdsMGRXUmxQU0l3SWlBdlBqeHMKCVptOGdjMk5sYm1VOUlqQWlJR2s5SWpraUlHVjRkSEpoUVcx
        d2JHbDBkV1JsUFNJd0lpQXZQanhzWm04Z2MyTmxibVU5CglJakFpSUdrOUlqRXdJaUJsZUhSeVlVRnRjR3hwZEhWa1pUMGlNQ0lnTHo0OGJHWnZJSE5qWlc1bFBTSXdJ
        aUJwUFNJeAoJTVNJZ1pYaDBjbUZCYlhCc2FYUjFaR1U5SWpBaUlDOCtQR3htYnlCelkyVnVaVDBpTVNJZ2FUMGlNQ0lnWlhoMGNtRkIKCWJYQnNhWFIxWkdVOUlqQWlJ
        QzgrUEd4bWJ5QnpZMlZ1WlQwaU1TSWdhVDBpTVNJZ1pYaDBjbUZCYlhCc2FYUjFaR1U5CglJakFpSUM4K1BHeG1ieUJ6WTJWdVpUMGlNU0lnYVQwaU1pSWdaWGgwY21G
        QmJYQnNhWFIxWkdVOUlqQWlJQzgrUEd4bQoJYnlCelkyVnVaVDBpTVNJZ2FUMGlNeUlnWlhoMGNtRkJiWEJzYVhSMVpHVTlJakFpSUM4K1BHeG1ieUJ6WTJWdVpUMGkK
        CU1TSWdhVDBpTkNJZ1pYaDBjbUZCYlhCc2FYUjFaR1U5SWpBaUlDOCtQR3htYnlCelkyVnVaVDBpTVNJZ2FUMGlOU0lnCglaWGgwY21GQmJYQnNhWFIxWkdVOUlqQWlJ
        QzgrUEd4bWJ5QnpZMlZ1WlQwaU1TSWdhVDBpTmlJZ1pYaDBjbUZCYlhCcwoJYVhSMVpHVTlJakFpSUM4K1BHeG1ieUJ6WTJWdVpUMGlNU0lnYVQwaU55SWdaWGgwY21G
        QmJYQnNhWFIxWkdVOUlqQWkKCUlDOCtQR3htYnlCelkyVnVaVDBpTVNJZ2FUMGlPQ0lnWlhoMGNtRkJiWEJzYVhSMVpHVTlJakFpSUM4K1BHeG1ieUJ6CglZMlZ1WlQw
        aU1TSWdhVDBpT1NJZ1pYaDBjbUZCYlhCc2FYUjFaR1U5SWpBaUlDOCtQR3htYnlCelkyVnVaVDBpTVNJZwoJYVQwaU1UQWlJR1Y0ZEhKaFFXMXdiR2wwZFdSbFBTSXdJ
        aUF2UGp4c1ptOGdjMk5sYm1VOUlqRWlJR2s5SWpFeElpQmwKCWVIUnlZVUZ0Y0d4cGRIVmtaVDBpTUNJZ0x6NDhMMlY0ZEhKaGJHWnZQanhqZFhOMGIyMWpiMjUwY205
        c2JHVnlQanhsCgliblJ5ZVNCcFBTSXdJaUJpYVhCdmJHRnlQU0l3SWlCMlBTSXdMakF3TURBd01EQXdNREF3TURBd0lpQnNZV0psYkQwaQoJTFNJZ0x6NDhaVzUwY25r
        Z2FUMGlNU0lnWW1sd2IyeGhjajBpTUNJZ2RqMGlNQzR3TURBd01EQXdNREF3TURBd01DSWcKCWJHRmlaV3c5SWkwaUlDOCtQR1Z1ZEhKNUlHazlJaklpSUdKcGNHOXNZ
        WEk5SWpBaUlIWTlJakF1TURBd01EQXdNREF3CglNREF3TURBaUlHeGhZbVZzUFNJdElpQXZQanhsYm5SeWVTQnBQU0l6SWlCaWFYQnZiR0Z5UFNJd0lpQjJQU0l3TGpB
        dwoJTURBd01EQXdNREF3TURBd0lpQnNZV0psYkQwaUxTSWdMejQ4Wlc1MGNua2dhVDBpTkNJZ1ltbHdiMnhoY2owaU1DSWcKCWRqMGlNQzR3TURBd01EQXdNREF3TURB
        d01DSWdiR0ZpWld3OUlpMGlJQzgrUEdWdWRISjVJR2s5SWpVaUlHSnBjRzlzCglZWEk5SWpBaUlIWTlJakF1TURBd01EQXdNREF3TURBd01EQWlJR3hoWW1Wc1BTSXRJ
        aUF2UGp4bGJuUnllU0JwUFNJMgoJSWlCaWFYQnZiR0Z5UFNJd0lpQjJQU0l3TGpBd01EQXdNREF3TURBd01EQXdJaUJzWVdKbGJEMGlMU0lnTHo0OFpXNTAKCWNua2dh
        VDBpTnlJZ1ltbHdiMnhoY2owaU1DSWdkajBpTUM0d01EQXdNREF3TURBd01EQXdNQ0lnYkdGaVpXdzlJaTBpCglJQzgrUEM5amRYTjBiMjFqYjI1MGNtOXNiR1Z5UGp4
        c1ptOWlZVzVyYkdGaVpXeHpJQzgrUEcxdlpIZG9aV1ZzSUhNdwoJUFNJd0lpQnpNVDBpTUNJZ0x6NDhZMjl0Y0dGMFlXSnBiR2wwZVQ0OFkyOXljbVZqZEd4NVZIVnVa
        V1JEYjIxaVJtbHMKCWRHVnlJSFk5SWpBaUlDOCtQQzlqYjIxd1lYUmhZbWxzYVhSNVBqeGtZWGRGZUhSeVlWTjBZWFJsSUhCdmNIVnNZWFJsCglaRDBpTVNJK1BHbHVj
        M1JoYm1ObFdtOXZiVVpoWTNSdmNpQjJQU0l0TVNJZ0x6NDhaV1JwZEc5eUlHTjFjbkpsYm5SZgoJYzJObGJtVTlJakFpSUdOMWNuSmxiblJmWm5nOUlqQWlJRzF2WkhO
        dmRYSmpaVDBpTVRjaUlHTjFjbkpsYm5SZmIzTmoKCVh6QTlJakFpSUcxdlpITnZkWEpqWlY5bFpHbDBiM0pmTUQwaU1UY2lJR04xY25KbGJuUmZiM05qWHpFOUlqQWlJ
        RzF2CglaSE52ZFhKalpWOWxaR2wwYjNKZk1UMGlNVGNpUGp4dmRtVnliR0Y1Y3lBdlBqeHRjMlZuWDNOMFlYUmxYekJmTUNCbwoJVTI1aGNEMGlNQzR3TURBd01EQWlJ
        SFpUYm1Gd1BTSXdMakF3TURBd01DSWdkR2x0WlVWa2FYUk5iMlJsUFNJd0lpQXYKCVBqeHRjMlZuWDNOMFlYUmxYekJmTVNCb1UyNWhjRDBpTUM0d01EQXdNREFpSUha
        VGJtRndQU0l3TGpBd01EQXdNQ0lnCglkR2x0WlVWa2FYUk5iMlJsUFNJd0lpQXZQanh0YzJWblgzTjBZWFJsWHpCZk1pQm9VMjVoY0QwaU1DNHdNREF3TURBaQoJSUha
        VGJtRndQU0l3TGpBd01EQXdNQ0lnZEdsdFpVVmthWFJOYjJSbFBTSXdJaUF2UGp4dGMyVm5YM04wWVhSbFh6QmYKCU15Qm9VMjVoY0QwaU1DNHdNREF3TURBaUlIWlRi
        bUZ3UFNJd0xqQXdNREF3TUNJZ2RHbHRaVVZrYVhSTmIyUmxQU0l3CglJaUF2UGp4dGMyVm5YM04wWVhSbFh6QmZOQ0JvVTI1aGNEMGlNQzR3TURBd01EQWlJSFpUYm1G
        d1BTSXdMakF3TURBdwoJTUNJZ2RHbHRaVVZrYVhSTmIyUmxQU0l3SWlBdlBqeHRjMlZuWDNOMFlYUmxYekJmTlNCb1UyNWhjRDBpTUM0d01EQXcKCU1EQWlJSFpUYm1G
        d1BTSXdMakF3TURBd01DSWdkR2x0WlVWa2FYUk5iMlJsUFNJd0lpQXZQanh0YzJWblgzTjBZWFJsCglYekJmTmlCb1UyNWhjRDBpTUM0d01EQXdNREFpSUhaVGJtRndQ
        U0l3TGpBd01EQXdNQ0lnZEdsdFpVVmthWFJOYjJSbAoJUFNJd0lpQXZQanh0YzJWblgzTjBZWFJsWHpCZk55Qm9VMjVoY0QwaU1DNHdNREF3TURBaUlIWlRibUZ3UFNJ
        d0xqQXcKCU1EQXdNQ0lnZEdsdFpVVmthWFJOYjJSbFBTSXdJaUF2UGp4dGMyVm5YM04wWVhSbFh6QmZPQ0JvVTI1aGNEMGlNQzR3CglNREF3TURBaUlIWlRibUZ3UFNJ
        d0xqQXdNREF3TUNJZ2RHbHRaVVZrYVhSTmIyUmxQU0l3SWlBdlBqeHRjMlZuWDNOMAoJWVhSbFh6QmZPU0JvVTI1aGNEMGlNQzR3TURBd01EQWlJSFpUYm1Gd1BTSXdM
        akF3TURBd01DSWdkR2x0WlVWa2FYUk4KCWIyUmxQU0l3SWlBdlBqeHRjMlZuWDNOMFlYUmxYekJmTVRBZ2FGTnVZWEE5SWpBdU1EQXdNREF3SWlCMlUyNWhjRDBpCglN
        QzR3TURBd01EQWlJSFJwYldWRlpHbDBUVzlrWlQwaU1DSWdMejQ4YlhObFoxOXpkR0YwWlY4d1h6RXhJR2hUYm1GdwoJUFNJd0xqQXdNREF3TUNJZ2RsTnVZWEE5SWpB
        dU1EQXdNREF3SWlCMGFXMWxSV1JwZEUxdlpHVTlJakFpSUM4K1BHWnYKCWNtMTFiR0ZmYzNSaGRHVmZNRjh3SUdOdlpHVlBjbEJ5Wld4MVpHVTlJakFpSUdSbFluVm5a
        MlZ5VDNCbGJqMGlNQ0lnCglMejQ4Wm05eWJYVnNZVjl6ZEdGMFpWOHdYekVnWTI5a1pVOXlVSEpsYkhWa1pUMGlNQ0lnWkdWaWRXZG5aWEpQY0dWdQoJUFNJd0lpQXZQ
        anhtYjNKdGRXeGhYM04wWVhSbFh6QmZNaUJqYjJSbFQzSlFjbVZzZFdSbFBTSXdJaUJrWldKMVoyZGwKCWNrOXdaVzQ5SWpBaUlDOCtQR1p2Y20xMWJHRmZjM1JoZEdW
        Zk1GOHpJR052WkdWUGNsQnlaV3gxWkdVOUlqQWlJR1JsCglZblZuWjJWeVQzQmxiajBpTUNJZ0x6NDhabTl5YlhWc1lWOXpkR0YwWlY4d1h6UWdZMjlrWlU5eVVISmxi
        SFZrWlQwaQoJTUNJZ1pHVmlkV2RuWlhKUGNHVnVQU0l3SWlBdlBqeG1iM0p0ZFd4aFgzTjBZWFJsWHpCZk5TQmpiMlJsVDNKUWNtVnMKCWRXUmxQU0l3SWlCa1pXSjFa
        MmRsY2s5d1pXNDlJakFpSUM4K1BHWnZjbTExYkdGZmMzUmhkR1ZmTUY4MklHTnZaR1ZQCgljbEJ5Wld4MVpHVTlJakFpSUdSbFluVm5aMlZ5VDNCbGJqMGlNQ0lnTHo0
        OFptOXliWFZzWVY5emRHRjBaVjh3WHpjZwoJWTI5a1pVOXlVSEpsYkhWa1pUMGlNQ0lnWkdWaWRXZG5aWEpQY0dWdVBTSXdJaUF2UGp4bWIzSnRkV3hoWDNOMFlYUmwK
        CVh6QmZPQ0JqYjJSbFQzSlFjbVZzZFdSbFBTSXdJaUJrWldKMVoyZGxjazl3Wlc0OUlqQWlJQzgrUEdadmNtMTFiR0ZmCgljM1JoZEdWZk1GODVJR052WkdWUGNsQnla
        V3gxWkdVOUlqQWlJR1JsWW5WbloyVnlUM0JsYmowaU1DSWdMejQ4Wm05eQoJYlhWc1lWOXpkR0YwWlY4d1h6RXdJR052WkdWUGNsQnlaV3gxWkdVOUlqQWlJR1JsWW5W
        bloyVnlUM0JsYmowaU1DSWcKCUx6NDhabTl5YlhWc1lWOXpkR0YwWlY4d1h6RXhJR052WkdWUGNsQnlaV3gxWkdVOUlqQWlJR1JsWW5WbloyVnlUM0JsCgliajBpTUNJ
        Z0x6NDhiVzlrZFd4aGRHbHZibDlsWkdsMGIzSWdjMjl5ZEU5eVpHVnlQU0l3SWlCbWFXeDBaWEpQYmowaQoJTUNJZ1ptbHNkR1Z5U1c1MFBTSXdJaUJtYVd4MFpYSlRk
        SEpwYm1jOUlpSWdMejQ4ZEhWdWFXNW5YMjkyWlhKc1lYa2cKCVpXUnBkRTF2WkdVOUlqQWlJQzgrUEcxelpXZGZjM1JoZEdWZk1WOHdJR2hUYm1Gd1BTSXdMakF3TURB
        d01DSWdkbE51CglZWEE5SWpBdU1EQXdNREF3SWlCMGFXMWxSV1JwZEUxdlpHVTlJakFpSUM4K1BHMXpaV2RmYzNSaGRHVmZNVjh4SUdoVAoJYm1Gd1BTSXdMakF3TURB
        d01DSWdkbE51WVhBOUlqQXVNREF3TURBd0lpQjBhVzFsUldScGRFMXZaR1U5SWpBaUlDOCsKCVBHMXpaV2RmYzNSaGRHVmZNVjh5SUdoVGJtRndQU0l3TGpBd01EQXdN
        Q0lnZGxOdVlYQTlJakF1TURBd01EQXdJaUIwCglhVzFsUldScGRFMXZaR1U5SWpBaUlDOCtQRzF6WldkZmMzUmhkR1ZmTVY4eklHaFRibUZ3UFNJd0xqQXdNREF3TUNJ
        ZwoJZGxOdVlYQTlJakF1TURBd01EQXdJaUIwYVcxbFJXUnBkRTF2WkdVOUlqQWlJQzgrUEcxelpXZGZjM1JoZEdWZk1WODAKCUlHaFRibUZ3UFNJd0xqQXdNREF3TUNJ
        Z2RsTnVZWEE5SWpBdU1EQXdNREF3SWlCMGFXMWxSV1JwZEUxdlpHVTlJakFpCglJQzgrUEcxelpXZGZjM1JoZEdWZk1WODFJR2hUYm1Gd1BTSXdMakF3TURBd01DSWdk
        bE51WVhBOUlqQXVNREF3TURBdwoJSWlCMGFXMWxSV1JwZEUxdlpHVTlJakFpSUM4K1BHMXpaV2RmYzNSaGRHVmZNVjgySUdoVGJtRndQU0l3TGpBd01EQXcKCU1DSWdk
        bE51WVhBOUlqQXVNREF3TURBd0lpQjBhVzFsUldScGRFMXZaR1U5SWpBaUlDOCtQRzF6WldkZmMzUmhkR1ZmCglNVjgzSUdoVGJtRndQU0l3TGpBd01EQXdNQ0lnZGxO
        dVlYQTlJakF1TURBd01EQXdJaUIwYVcxbFJXUnBkRTF2WkdVOQoJSWpBaUlDOCtQRzF6WldkZmMzUmhkR1ZmTVY4NElHaFRibUZ3UFNJd0xqQXdNREF3TUNJZ2RsTnVZ
        WEE5SWpBdU1EQXcKCU1EQXdJaUIwYVcxbFJXUnBkRTF2WkdVOUlqQWlJQzgrUEcxelpXZGZjM1JoZEdWZk1WODVJR2hUYm1Gd1BTSXdMakF3CglNREF3TUNJZ2RsTnVZ
        WEE5SWpBdU1EQXdNREF3SWlCMGFXMWxSV1JwZEUxdlpHVTlJakFpSUM4K1BHMXpaV2RmYzNSaAoJZEdWZk1WOHhNQ0JvVTI1aGNEMGlNQzR3TURBd01EQWlJSFpUYm1G
        d1BTSXdMakF3TURBd01DSWdkR2x0WlVWa2FYUk4KCWIyUmxQU0l3SWlBdlBqeHRjMlZuWDNOMFlYUmxYekZmTVRFZ2FGTnVZWEE5SWpBdU1EQXdNREF3SWlCMlUyNWhj
        RDBpCglNQzR3TURBd01EQWlJSFJwYldWRlpHbDBUVzlrWlQwaU1DSWdMejQ4Wm05eWJYVnNZVjl6ZEdGMFpWOHhYekFnWTI5awoJWlU5eVVISmxiSFZrWlQwaU1DSWda
        R1ZpZFdkblpYSlBjR1Z1UFNJd0lpQXZQanhtYjNKdGRXeGhYM04wWVhSbFh6RmYKCU1TQmpiMlJsVDNKUWNtVnNkV1JsUFNJd0lpQmtaV0oxWjJkbGNrOXdaVzQ5SWpB
        aUlDOCtQR1p2Y20xMWJHRmZjM1JoCglkR1ZmTVY4eUlHTnZaR1ZQY2xCeVpXeDFaR1U5SWpBaUlHUmxZblZuWjJWeVQzQmxiajBpTUNJZ0x6NDhabTl5YlhWcwoJWVY5
        emRHRjBaVjh4WHpNZ1kyOWtaVTl5VUhKbGJIVmtaVDBpTUNJZ1pHVmlkV2RuWlhKUGNHVnVQU0l3SWlBdlBqeG0KCWIzSnRkV3hoWDNOMFlYUmxYekZmTkNCamIyUmxU
        M0pRY21Wc2RXUmxQU0l3SWlCa1pXSjFaMmRsY2s5d1pXNDlJakFpCglJQzgrUEdadmNtMTFiR0ZmYzNSaGRHVmZNVjgxSUdOdlpHVlBjbEJ5Wld4MVpHVTlJakFpSUdS
        bFluVm5aMlZ5VDNCbAoJYmowaU1DSWdMejQ4Wm05eWJYVnNZVjl6ZEdGMFpWOHhYellnWTI5a1pVOXlVSEpsYkhWa1pUMGlNQ0lnWkdWaWRXZG4KCVpYSlBjR1Z1UFNJ
        d0lpQXZQanhtYjNKdGRXeGhYM04wWVhSbFh6RmZOeUJqYjJSbFQzSlFjbVZzZFdSbFBTSXdJaUJrCglaV0oxWjJkbGNrOXdaVzQ5SWpBaUlDOCtQR1p2Y20xMWJHRmZj
        M1JoZEdWZk1WODRJR052WkdWUGNsQnlaV3gxWkdVOQoJSWpBaUlHUmxZblZuWjJWeVQzQmxiajBpTUNJZ0x6NDhabTl5YlhWc1lWOXpkR0YwWlY4eFh6a2dZMjlrWlU5
        eVVISmwKCWJIVmtaVDBpTUNJZ1pHVmlkV2RuWlhKUGNHVnVQU0l3SWlBdlBqeG1iM0p0ZFd4aFgzTjBZWFJsWHpGZk1UQWdZMjlrCglaVTl5VUhKbGJIVmtaVDBpTUNJ
        Z1pHVmlkV2RuWlhKUGNHVnVQU0l3SWlBdlBqeG1iM0p0ZFd4aFgzTjBZWFJsWHpGZgoJTVRFZ1kyOWtaVTl5VUhKbGJIVmtaVDBpTUNJZ1pHVmlkV2RuWlhKUGNHVnVQ
        U0l3SWlBdlBqeHRiMlIxYkdGMGFXOXUKCVgyVmthWFJ2Y2lCemIzSjBUM0prWlhJOUlqQWlJR1pwYkhSbGNrOXVQU0l3SWlCbWFXeDBaWEpKYm5ROUlqQWlJR1pwCgli
        SFJsY2xOMGNtbHVaejBpSWlBdlBqeDBkVzVwYm1kZmIzWmxjbXhoZVNCbFpHbDBUVzlrWlQwaU1DSWdMejQ4YjNOagoJYVd4c2IzTmpiM0JsWDI5MlpYSnNZWGtnYlc5
        a1pUMGlNQ0lnZEhKcFoyZGxjbDl6Y0dWbFpEMGlNQzQxTURBd01EQWkKCUlIUnlhV2RuWlhKZmJHVjJaV3c5SWpBdU5UQXdNREF3SWlCMGNtbG5aMlZ5WDJ4cGJXbDBQ
        U0l3TGpVd01EQXdNQ0lnCglkR2x0WlY5M2FXNWtiM2M5SWpBdU5UQXdNREF3SWlCaGJYQmZkMmx1Wkc5M1BTSXdMalV3TURBd01DSWdkSEpwWjJkbAoJY2w5MGVYQmxQ
        U0l3SWlCa1kxOXJhV3hzUFNJd0lpQnplVzVqWDJSeVlYYzlJakFpSUc1dmFYTmxYMlpzYjI5eVBTSXcKCUxqQXdNREF3TUNJZ2JXRjRYMlJpUFNJeExqQXdNREF3TUNJ
        Z1pHVmpZWGxmY21GMFpUMGlNUzR3TURBd01EQWlJQzgrCglQQzlsWkdsMGIzSStQRzF3WlVWdVlXSnNaV1FnZGowaU1DSWdMejQ4YjNOalVHOXlkRWx1SUhZOUlqVXpN
        amd3SWlBdgoJUGp4dmMyTlFiM0owVDNWMElIWTlJalV6TWpneElpQXZQanh2YzJOVGRHRnlkRWx1SUhZOUlqQWlJQzgrUEc5elkxTjAKCVlYSjBUM1YwSUhZOUlqQWlJ
        QzgrUEcxd1pWQnBkR05vUW1WdVpGSmhibWRsSUhZOUlqUTRJaUF2UGp4cGMwUnBjblI1CglJSFk5SWpBaUlDOCtQR1JwYzJOdmJtNWxZM1JHY205dFQyUmtVMjkxYm1S
        TlZGTWdkajBpTUNJZ0x6NDhiVzl1YjFCbAoJWkdGc1RXOWtaU0IyUFNJd0lpQXZQanh2WkdSemIzVnVaRkpsZEhWdVpVMXZaR1VnZGowaU1DSWdMejQ4YUdGelZIVnUK
        CWFXNW5JSFk5SWpBaUlDOCtQRzlrWkhOdmRXNWtYMjEwYzE5aFkzUnBkbVZmWVhOZmJXRnBiaUIyUFNJd0lpQXZQangwCglkVzVwYm1kRGIyNTBaVzUwY3lCMlBTSWlJ
        QzgrUEdoaGMwMWhjSEJwYm1jZ2RqMGlNQ0lnTHo0OGJXRndjR2x1WjBOdgoJYm5SbGJuUnpJSFk5SWlJZ0x6NDhiV0Z3Y0dsdVowNWhiV1VnZGowaUlpQXZQanh0WVhC
        RGFHRnVibVZzVkc5UFkzUmgKCWRtVWdkajBpTUNJZ0x6NDhiV2xrYVdOMGNteGZiV0Z3SUM4K1BHMXBaR2xqYUdGdVgyMWhjRDQ4WTJnZ2NEMGlNQ0lnCglkajBpTFRF
        aUlDOCtQR05vSUhBOUlqRWlJSFk5SWkweElpQXZQanhqYUNCd1BTSXlJaUIyUFNJdE1TSWdMejQ4WTJnZwoJY0QwaU15SWdkajBpTFRFaUlDOCtQR05vSUhBOUlqUWlJ
        SFk5SWkweElpQXZQanhqYUNCd1BTSTFJaUIyUFNJdE1TSWcKCUx6NDhZMmdnY0QwaU5pSWdkajBpTFRFaUlDOCtQR05vSUhBOUlqY2lJSFk5SWkweElpQXZQanhqYUNC
        d1BTSTRJaUIyCglQU0l0TVNJZ0x6NDhZMmdnY0QwaU9TSWdkajBpTFRFaUlDOCtQR05vSUhBOUlqRXdJaUIyUFNJdE1TSWdMejQ4WTJnZwoJY0QwaU1URWlJSFk5SWkw
        eElpQXZQanhqYUNCd1BTSXhNaUlnZGowaUxURWlJQzgrUEdOb0lIQTlJakV6SWlCMlBTSXQKCU1TSWdMejQ4WTJnZ2NEMGlNVFFpSUhZOUlpMHhJaUF2UGp4amFDQndQ
        U0l4TlNJZ2RqMGlMVEVpSUM4K1BHTm9JSEE5CglJakUySWlCMlBTSXRNU0lnTHo0OFkyZ2djRDBpTVRjaUlIWTlJaTB4SWlBdlBqeGphQ0J3UFNJeE9DSWdkajBpTFRF
        aQoJSUM4K1BHTm9JSEE5SWpFNUlpQjJQU0l0TVNJZ0x6NDhZMmdnY0QwaU1qQWlJSFk5SWkweElpQXZQanhqYUNCd1BTSXkKCU1TSWdkajBpTFRFaUlDOCtQR05vSUhB
        OUlqSXlJaUIyUFNJdE1TSWdMejQ4WTJnZ2NEMGlNak1pSUhZOUlpMHhJaUF2CglQanhqYUNCd1BTSXlOQ0lnZGowaUxURWlJQzgrUEdOb0lIQTlJakkxSWlCMlBTSXRN
        U0lnTHo0OFkyZ2djRDBpTWpZaQoJSUhZOUlpMHhJaUF2UGp4amFDQndQU0l5TnlJZ2RqMGlMVEVpSUM4K1BHTm9JSEE5SWpJNElpQjJQU0l0TVNJZ0x6NDgKCVkyZ2dj
        RDBpTWpraUlIWTlJaTB4SWlBdlBqeGphQ0J3UFNJek1DSWdkajBpTFRFaUlDOCtQR05vSUhBOUlqTXhJaUIyCglQU0l0TVNJZ0x6NDhZMmdnY0QwaU16SWlJSFk5SWkw
        eElpQXZQanhqYUNCd1BTSXpNeUlnZGowaUxURWlJQzgrUEdObwoJSUhBOUlqTTBJaUIyUFNJdE1TSWdMejQ4WTJnZ2NEMGlNelVpSUhZOUlpMHhJaUF2UGp4amFDQndQ
        U0l6TmlJZ2RqMGkKCUxURWlJQzgrUEdOb0lIQTlJak0zSWlCMlBTSXRNU0lnTHo0OFkyZ2djRDBpTXpnaUlIWTlJaTB4SWlBdlBqeGphQ0J3CglQU0l6T1NJZ2RqMGlM
        VEVpSUM4K1BHTm9JSEE5SWpRd0lpQjJQU0l0TVNJZ0x6NDhZMmdnY0QwaU5ERWlJSFk5SWkweAoJSWlBdlBqeGphQ0J3UFNJME1pSWdkajBpTFRFaUlDOCtQR05vSUhB
        OUlqUXpJaUIyUFNJdE1TSWdMejQ4WTJnZ2NEMGkKCU5EUWlJSFk5SWkweElpQXZQanhqYUNCd1BTSTBOU0lnZGowaUxURWlJQzgrUEdOb0lIQTlJalEySWlCMlBTSXRN
        U0lnCglMejQ4WTJnZ2NEMGlORGNpSUhZOUlpMHhJaUF2UGp4amFDQndQU0kwT0NJZ2RqMGlMVEVpSUM4K1BHTm9JSEE5SWpRNQoJSWlCMlBTSXRNU0lnTHo0OFkyZ2dj
        RDBpTlRBaUlIWTlJaTB4SWlBdlBqeGphQ0J3UFNJMU1TSWdkajBpTFRFaUlDOCsKCVBHTm9JSEE5SWpVeUlpQjJQU0l0TVNJZ0x6NDhZMmdnY0QwaU5UTWlJSFk5SWkw
        eElpQXZQanhqYUNCd1BTSTFOQ0lnCglkajBpTFRFaUlDOCtQR05vSUhBOUlqVTFJaUIyUFNJdE1TSWdMejQ4WTJnZ2NEMGlOVFlpSUhZOUlpMHhJaUF2UGp4agoJYUNC
        d1BTSTFOeUlnZGowaUxURWlJQzgrUEdOb0lIQTlJalU0SWlCMlBTSXRNU0lnTHo0OFkyZ2djRDBpTlRraUlIWTkKCUlpMHhJaUF2UGp4amFDQndQU0kyTUNJZ2RqMGlM
        VEVpSUM4K1BHTm9JSEE5SWpZeElpQjJQU0l0TVNJZ0x6NDhZMmdnCgljRDBpTmpJaUlIWTlJaTB4SWlBdlBqeGphQ0J3UFNJMk15SWdkajBpTFRFaUlDOCtQR05vSUhB
        OUlqWTBJaUIyUFNJdAoJTVNJZ0x6NDhZMmdnY0QwaU5qVWlJSFk5SWkweElpQXZQanhqYUNCd1BTSTJOaUlnZGowaUxURWlJQzgrUEdOb0lIQTkKCUlqWTNJaUIyUFNJ
        dE1TSWdMejQ4WTJnZ2NEMGlOamdpSUhZOUlpMHhJaUF2UGp4amFDQndQU0kyT1NJZ2RqMGlMVEVpCglJQzgrUEdOb0lIQTlJamN3SWlCMlBTSXRNU0lnTHo0OFkyZ2dj
        RDBpTnpFaUlIWTlJaTB4SWlBdlBqeGphQ0J3UFNJMwoJTWlJZ2RqMGlMVEVpSUM4K1BHTm9JSEE5SWpjeklpQjJQU0l0TVNJZ0x6NDhZMmdnY0QwaU56UWlJSFk5SWkw
        eElpQXYKCVBqeGphQ0J3UFNJM05TSWdkajBpTFRFaUlDOCtQR05vSUhBOUlqYzJJaUIyUFNJdE1TSWdMejQ4WTJnZ2NEMGlOemNpCglJSFk5SWkweElpQXZQanhqYUNC
        d1BTSTNPQ0lnZGowaUxURWlJQzgrUEdOb0lIQTlJamM1SWlCMlBTSXRNU0lnTHo0OAoJWTJnZ2NEMGlPREFpSUhZOUlpMHhJaUF2UGp4amFDQndQU0k0TVNJZ2RqMGlM
        VEVpSUM4K1BHTm9JSEE5SWpneUlpQjIKCVBTSXRNU0lnTHo0OFkyZ2djRDBpT0RNaUlIWTlJaTB4SWlBdlBqeGphQ0J3UFNJNE5DSWdkajBpTFRFaUlDOCtQR05vCglJ
        SEE5SWpnMUlpQjJQU0l0TVNJZ0x6NDhZMmdnY0QwaU9EWWlJSFk5SWkweElpQXZQanhqYUNCd1BTSTROeUlnZGowaQoJTFRFaUlDOCtQR05vSUhBOUlqZzRJaUIyUFNJ
        dE1TSWdMejQ4WTJnZ2NEMGlPRGtpSUhZOUlpMHhJaUF2UGp4amFDQncKCVBTSTVNQ0lnZGowaUxURWlJQzgrUEdOb0lIQTlJamt4SWlCMlBTSXRNU0lnTHo0OFkyZ2dj
        RDBpT1RJaUlIWTlJaTB4CglJaUF2UGp4amFDQndQU0k1TXlJZ2RqMGlMVEVpSUM4K1BHTm9JSEE5SWprMElpQjJQU0l0TVNJZ0x6NDhZMmdnY0QwaQoJT1RVaUlIWTlJ
        aTB4SWlBdlBqeGphQ0J3UFNJNU5pSWdkajBpTFRFaUlDOCtQR05vSUhBOUlqazNJaUIyUFNJdE1TSWcKCUx6NDhZMmdnY0QwaU9UZ2lJSFk5SWkweElpQXZQanhqYUNC
        d1BTSTVPU0lnZGowaUxURWlJQzgrUEdOb0lIQTlJakV3CglNQ0lnZGowaUxURWlJQzgrUEdOb0lIQTlJakV3TVNJZ2RqMGlMVEVpSUM4K1BHTm9JSEE5SWpFd01pSWdk
        ajBpTFRFaQoJSUM4K1BHTm9JSEE5SWpFd015SWdkajBpTFRFaUlDOCtQR05vSUhBOUlqRXdOQ0lnZGowaUxURWlJQzgrUEdOb0lIQTkKCUlqRXdOU0lnZGowaUxURWlJ
        QzgrUEdOb0lIQTlJakV3TmlJZ2RqMGlMVEVpSUM4K1BHTm9JSEE5SWpFd055SWdkajBpCglMVEVpSUM4K1BHTm9JSEE5SWpFd09DSWdkajBpTFRFaUlDOCtQR05vSUhB
        OUlqRXdPU0lnZGowaUxURWlJQzgrUEdObwoJSUhBOUlqRXhNQ0lnZGowaUxURWlJQzgrUEdOb0lIQTlJakV4TVNJZ2RqMGlMVEVpSUM4K1BHTm9JSEE5SWpFeE1pSWcK
        CWRqMGlMVEVpSUM4K1BHTm9JSEE5SWpFeE15SWdkajBpTFRFaUlDOCtQR05vSUhBOUlqRXhOQ0lnZGowaUxURWlJQzgrCglQR05vSUhBOUlqRXhOU0lnZGowaUxURWlJ
        QzgrUEdOb0lIQTlJakV4TmlJZ2RqMGlMVEVpSUM4K1BHTm9JSEE5SWpFeAoJTnlJZ2RqMGlMVEVpSUM4K1BHTm9JSEE5SWpFeE9DSWdkajBpTFRFaUlDOCtQR05vSUhB
        OUlqRXhPU0lnZGowaUxURWkKCUlDOCtQR05vSUhBOUlqRXlNQ0lnZGowaUxURWlJQzgrUEdOb0lIQTlJakV5TVNJZ2RqMGlMVEVpSUM4K1BHTm9JSEE5CglJakV5TWlJ
        Z2RqMGlMVEVpSUM4K1BHTm9JSEE5SWpFeU15SWdkajBpTFRFaUlDOCtQR05vSUhBOUlqRXlOQ0lnZGowaQoJTFRFaUlDOCtQR05vSUhBOUlqRXlOU0lnZGowaUxURWlJ
        QzgrUEdOb0lIQTlJakV5TmlJZ2RqMGlMVEVpSUM4K1BHTm8KCUlIQTlJakV5TnlJZ2RqMGlMVEVpSUM4K1BHTm9JSEE5SWpFeU9DSWdkajBpTFRFaUlDOCtQR05vSUhB
        OUlqRXlPU0lnCglkajBpTFRFaUlDOCtQR05vSUhBOUlqRXpNQ0lnZGowaUxURWlJQzgrUEdOb0lIQTlJakV6TVNJZ2RqMGlMVEVpSUM4KwoJUEdOb0lIQTlJakV6TWlJ
        Z2RqMGlMVEVpSUM4K1BHTm9JSEE5SWpFek15SWdkajBpTFRFaUlDOCtQR05vSUhBOUlqRXoKCU5DSWdkajBpTFRFaUlDOCtQR05vSUhBOUlqRXpOU0lnZGowaUxURWlJ
        QzgrUEdOb0lIQTlJakV6TmlJZ2RqMGlMVEVpCglJQzgrUEdOb0lIQTlJakV6TnlJZ2RqMGlMVEVpSUM4K1BHTm9JSEE5SWpFek9DSWdkajBpTFRFaUlDOCtQR05vSUhB
        OQoJSWpFek9TSWdkajBpTFRFaUlDOCtQR05vSUhBOUlqRTBNQ0lnZGowaUxURWlJQzgrUEdOb0lIQTlJakUwTVNJZ2RqMGkKCUxURWlJQzgrUEdOb0lIQTlJakUwTWlJ
        Z2RqMGlMVEVpSUM4K1BHTm9JSEE5SWpFME15SWdkajBpTFRFaUlDOCtQR05vCglJSEE5SWpFME5DSWdkajBpTFRFaUlDOCtQR05vSUhBOUlqRTBOU0lnZGowaUxURWlJ
        QzgrUEdOb0lIQTlJakUwTmlJZwoJZGowaUxURWlJQzgrUEdOb0lIQTlJakUwTnlJZ2RqMGlMVEVpSUM4K1BHTm9JSEE5SWpFME9DSWdkajBpTFRFaUlDOCsKCVBHTm9J
        SEE5SWpFME9TSWdkajBpTFRFaUlDOCtQR05vSUhBOUlqRTFNQ0lnZGowaUxURWlJQzgrUEdOb0lIQTlJakUxCglNU0lnZGowaUxURWlJQzgrUEdOb0lIQTlJakUxTWlJ
        Z2RqMGlMVEVpSUM4K1BHTm9JSEE5SWpFMU15SWdkajBpTFRFaQoJSUM4K1BHTm9JSEE5SWpFMU5DSWdkajBpTFRFaUlDOCtQR05vSUhBOUlqRTFOU0lnZGowaUxURWlJ
        QzgrUEdOb0lIQTkKCUlqRTFOaUlnZGowaUxURWlJQzgrUEdOb0lIQTlJakUxTnlJZ2RqMGlMVEVpSUM4K1BHTm9JSEE5SWpFMU9DSWdkajBpCglMVEVpSUM4K1BHTm9J
        SEE5SWpFMU9TSWdkajBpTFRFaUlDOCtQR05vSUhBOUlqRTJNQ0lnZGowaUxURWlJQzgrUEdObwoJSUhBOUlqRTJNU0lnZGowaUxURWlJQzgrUEdOb0lIQTlJakUyTWlJ
        Z2RqMGlMVEVpSUM4K1BHTm9JSEE5SWpFMk15SWcKCWRqMGlMVEVpSUM4K1BHTm9JSEE5SWpFMk5DSWdkajBpTFRFaUlDOCtQR05vSUhBOUlqRTJOU0lnZGowaUxURWlJ
        QzgrCglQR05vSUhBOUlqRTJOaUlnZGowaUxURWlJQzgrUEdOb0lIQTlJakUyTnlJZ2RqMGlMVEVpSUM4K1BHTm9JSEE5SWpFMgoJT0NJZ2RqMGlMVEVpSUM4K1BHTm9J
        SEE5SWpFMk9TSWdkajBpTFRFaUlDOCtQR05vSUhBOUlqRTNNQ0lnZGowaUxURWkKCUlDOCtQR05vSUhBOUlqRTNNU0lnZGowaUxURWlJQzgrUEdOb0lIQTlJakUzTWlJ
        Z2RqMGlMVEVpSUM4K1BHTm9JSEE5CglJakUzTXlJZ2RqMGlMVEVpSUM4K1BHTm9JSEE5SWpFM05DSWdkajBpTFRFaUlDOCtQR05vSUhBOUlqRTNOU0lnZGowaQoJTFRF
        aUlDOCtQR05vSUhBOUlqRTNOaUlnZGowaUxURWlJQzgrUEdOb0lIQTlJakUzTnlJZ2RqMGlMVEVpSUM4K1BHTm8KCUlIQTlJakUzT0NJZ2RqMGlMVEVpSUM4K1BHTm9J
        SEE5SWpFM09TSWdkajBpTFRFaUlDOCtQR05vSUhBOUlqRTRNQ0lnCglkajBpTFRFaUlDOCtQR05vSUhBOUlqRTRNU0lnZGowaUxURWlJQzgrUEdOb0lIQTlJakU0TWlJ
        Z2RqMGlMVEVpSUM4KwoJUEdOb0lIQTlJakU0TXlJZ2RqMGlMVEVpSUM4K1BHTm9JSEE5SWpFNE5DSWdkajBpTFRFaUlDOCtQR05vSUhBOUlqRTQKCU5TSWdkajBpTFRF
        aUlDOCtQR05vSUhBOUlqRTROaUlnZGowaUxURWlJQzgrUEdOb0lIQTlJakU0TnlJZ2RqMGlMVEVpCglJQzgrUEdOb0lIQTlJakU0T0NJZ2RqMGlMVEVpSUM4K1BHTm9J
        SEE5SWpFNE9TSWdkajBpTFRFaUlDOCtQR05vSUhBOQoJSWpFNU1DSWdkajBpTFRFaUlDOCtQR05vSUhBOUlqRTVNU0lnZGowaUxURWlJQzgrUEdOb0lIQTlJakU1TWlJ
        Z2RqMGkKCUxURWlJQzgrUEdOb0lIQTlJakU1TXlJZ2RqMGlMVEVpSUM4K1BHTm9JSEE5SWpFNU5DSWdkajBpTFRFaUlDOCtQR05vCglJSEE5SWpFNU5TSWdkajBpTFRF
        aUlDOCtQR05vSUhBOUlqRTVOaUlnZGowaUxURWlJQzgrUEdOb0lIQTlJakU1TnlJZwoJZGowaUxURWlJQzgrUEdOb0lIQTlJakU1T0NJZ2RqMGlMVEVpSUM4K1BHTm9J
        SEE5SWpFNU9TSWdkajBpTFRFaUlDOCsKCVBHTm9JSEE5SWpJd01DSWdkajBpTFRFaUlDOCtQR05vSUhBOUlqSXdNU0lnZGowaUxURWlJQzgrUEdOb0lIQTlJakl3CglN
        aUlnZGowaUxURWlJQzgrUEdOb0lIQTlJakl3TXlJZ2RqMGlMVEVpSUM4K1BHTm9JSEE5SWpJd05DSWdkajBpTFRFaQoJSUM4K1BHTm9JSEE5SWpJd05TSWdkajBpTFRF
        aUlDOCtQR05vSUhBOUlqSXdOaUlnZGowaUxURWlJQzgrUEdOb0lIQTkKCUlqSXdOeUlnZGowaUxURWlJQzgrUEdOb0lIQTlJakl3T0NJZ2RqMGlMVEVpSUM4K1BHTm9J
        SEE5SWpJd09TSWdkajBpCglMVEVpSUM4K1BHTm9JSEE5SWpJeE1DSWdkajBpTFRFaUlDOCtQR05vSUhBOUlqSXhNU0lnZGowaUxURWlJQzgrUEdObwoJSUhBOUlqSXhN
        aUlnZGowaUxURWlJQzgrUEdOb0lIQTlJakl4TXlJZ2RqMGlMVEVpSUM4K1BHTm9JSEE5SWpJeE5DSWcKCWRqMGlMVEVpSUM4K1BHTm9JSEE5SWpJeE5TSWdkajBpTFRF
        aUlDOCtQR05vSUhBOUlqSXhOaUlnZGowaUxURWlJQzgrCglQR05vSUhBOUlqSXhOeUlnZGowaUxURWlJQzgrUEdOb0lIQTlJakl4T0NJZ2RqMGlMVEVpSUM4K1BHTm9J
        SEE5SWpJeAoJT1NJZ2RqMGlMVEVpSUM4K1BHTm9JSEE5SWpJeU1DSWdkajBpTFRFaUlDOCtQR05vSUhBOUlqSXlNU0lnZGowaUxURWkKCUlDOCtQR05vSUhBOUlqSXlN
        aUlnZGowaUxURWlJQzgrUEdOb0lIQTlJakl5TXlJZ2RqMGlMVEVpSUM4K1BHTm9JSEE5CglJakl5TkNJZ2RqMGlMVEVpSUM4K1BHTm9JSEE5SWpJeU5TSWdkajBpTFRF
        aUlDOCtQR05vSUhBOUlqSXlOaUlnZGowaQoJTFRFaUlDOCtQR05vSUhBOUlqSXlOeUlnZGowaUxURWlJQzgrUEdOb0lIQTlJakl5T0NJZ2RqMGlMVEVpSUM4K1BHTm8K
        CUlIQTlJakl5T1NJZ2RqMGlMVEVpSUM4K1BHTm9JSEE5SWpJek1DSWdkajBpTFRFaUlDOCtQR05vSUhBOUlqSXpNU0lnCglkajBpTFRFaUlDOCtQR05vSUhBOUlqSXpN
        aUlnZGowaUxURWlJQzgrUEdOb0lIQTlJakl6TXlJZ2RqMGlMVEVpSUM4KwoJUEdOb0lIQTlJakl6TkNJZ2RqMGlMVEVpSUM4K1BHTm9JSEE5SWpJek5TSWdkajBpTFRF
        aUlDOCtQR05vSUhBOUlqSXoKCU5pSWdkajBpTFRFaUlDOCtQR05vSUhBOUlqSXpOeUlnZGowaUxURWlJQzgrUEdOb0lIQTlJakl6T0NJZ2RqMGlMVEVpCglJQzgrUEdO
        b0lIQTlJakl6T1NJZ2RqMGlMVEVpSUM4K1BHTm9JSEE5SWpJME1DSWdkajBpTFRFaUlDOCtQR05vSUhBOQoJSWpJME1TSWdkajBpTFRFaUlDOCtQR05vSUhBOUlqSTBN
        aUlnZGowaUxURWlJQzgrUEdOb0lIQTlJakkwTXlJZ2RqMGkKCUxURWlJQzgrUEdOb0lIQTlJakkwTkNJZ2RqMGlMVEVpSUM4K1BHTm9JSEE5SWpJME5TSWdkajBpTFRF
        aUlDOCtQR05vCglJSEE5SWpJME5pSWdkajBpTFRFaUlDOCtQR05vSUhBOUlqSTBOeUlnZGowaUxURWlJQzgrUEdOb0lIQTlJakkwT0NJZwoJZGowaUxURWlJQzgrUEdO
        b0lIQTlJakkwT1NJZ2RqMGlMVEVpSUM4K1BHTm9JSEE5SWpJMU1DSWdkajBpTFRFaUlDOCsKCVBHTm9JSEE5SWpJMU1TSWdkajBpTFRFaUlDOCtQR05vSUhBOUlqSTFN
        aUlnZGowaUxURWlJQzgrUEdOb0lIQTlJakkxCglNeUlnZGowaUxURWlJQzgrUEdOb0lIQTlJakkxTkNJZ2RqMGlMVEVpSUM4K1BHTm9JSEE5SWpJMU5TSWdkajBpTFRF
        aQoJSUM4K1BHTm9JSEE5SWpJMU5pSWdkajBpTFRFaUlDOCtQR05vSUhBOUlqSTFOeUlnZGowaUxURWlJQzgrUEdOb0lIQTkKCUlqSTFPQ0lnZGowaUxURWlJQzgrUEdO
        b0lIQTlJakkxT1NJZ2RqMGlMVEVpSUM4K1BHTm9JSEE5SWpJMk1DSWdkajBpCglMVEVpSUM4K1BHTm9JSEE5SWpJMk1TSWdkajBpTFRFaUlDOCtQR05vSUhBOUlqSTJN
        aUlnZGowaUxURWlJQzgrUEdObwoJSUhBOUlqSTJNeUlnZGowaUxURWlJQzgrUEdOb0lIQTlJakkyTkNJZ2RqMGlMVEVpSUM4K1BHTm9JSEE5SWpJMk5TSWcKCWRqMGlM
        VEVpSUM4K1BHTm9JSEE5SWpJMk5pSWdkajBpTFRFaUlDOCtQR05vSUhBOUlqSTJOeUlnZGowaUxURWlJQzgrCglQR05vSUhBOUlqSTJPQ0lnZGowaUxURWlJQzgrUEdO
        b0lIQTlJakkyT1NJZ2RqMGlMVEVpSUM4K1BHTm9JSEE5SWpJMwoJTUNJZ2RqMGlMVEVpSUM4K1BHTm9JSEE5SWpJM01TSWdkajBpTFRFaUlDOCtQR05vSUhBOUlqSTNN
        aUlnZGowaUxURWkKCUlDOCtQR05vSUhBOUlqSTNNeUlnZGowaUxURWlJQzgrUEdOb0lIQTlJakkzTkNJZ2RqMGlMVEVpSUM4K1BHTm9JSEE5CglJakkzTlNJZ2RqMGlM
        VEVpSUM4K1BHTm9JSEE5SWpJM05pSWdkajBpTFRFaUlDOCtQR05vSUhBOUlqSTNOeUlnZGowaQoJTFRFaUlDOCtQR05vSUhBOUlqSTNPQ0lnZGowaUxURWlJQzgrUEdO
        b0lIQTlJakkzT1NJZ2RqMGlMVEVpSUM4K1BHTm8KCUlIQTlJakk0TUNJZ2RqMGlMVEVpSUM4K1BHTm9JSEE5SWpJNE1TSWdkajBpTFRFaUlDOCtQR05vSUhBOUlqSTRN
        aUlnCglkajBpTFRFaUlDOCtQR05vSUhBOUlqSTRNeUlnZGowaUxURWlJQzgrUEdOb0lIQTlJakk0TkNJZ2RqMGlMVEVpSUM4KwoJUEdOb0lIQTlJakk0TlNJZ2RqMGlM
        VEVpSUM4K1BHTm9JSEE5SWpJNE5pSWdkajBpTFRFaUlDOCtQR05vSUhBOUlqSTQKCU55SWdkajBpTFRFaUlDOCtQR05vSUhBOUlqSTRPQ0lnZGowaUxURWlJQzgrUEdO
        b0lIQTlJakk0T1NJZ2RqMGlMVEVpCglJQzgrUEdOb0lIQTlJakk1TUNJZ2RqMGlMVEVpSUM4K1BHTm9JSEE5SWpJNU1TSWdkajBpTFRFaUlDOCtQR05vSUhBOQoJSWpJ
        NU1pSWdkajBpTFRFaUlDOCtQR05vSUhBOUlqSTVNeUlnZGowaUxURWlJQzgrUEdOb0lIQTlJakk1TkNJZ2RqMGkKCUxURWlJQzgrUEdOb0lIQTlJakk1TlNJZ2RqMGlM
        VEVpSUM4K1BHTm9JSEE5SWpJNU5pSWdkajBpTFRFaUlDOCtQR05vCglJSEE5SWpJNU55SWdkajBpTFRFaUlDOCtQR05vSUhBOUlqSTVPQ0lnZGowaUxURWlJQzgrUEdO
        b0lIQTlJakk1T1NJZwoJZGowaUxURWlJQzgrUEdOb0lIQTlJak13TUNJZ2RqMGlMVEVpSUM4K1BHTm9JSEE5SWpNd01TSWdkajBpTFRFaUlDOCsKCVBHTm9JSEE5SWpN
        d01pSWdkajBpTFRFaUlDOCtQR05vSUhBOUlqTXdNeUlnZGowaUxURWlJQzgrUEdOb0lIQTlJak13CglOQ0lnZGowaUxURWlJQzgrUEdOb0lIQTlJak13TlNJZ2RqMGlM
        VEVpSUM4K1BHTm9JSEE5SWpNd05pSWdkajBpTFRFaQoJSUM4K1BHTm9JSEE5SWpNd055SWdkajBpTFRFaUlDOCtQR05vSUhBOUlqTXdPQ0lnZGowaUxURWlJQzgrUEdO
        b0lIQTkKCUlqTXdPU0lnZGowaUxURWlJQzgrUEdOb0lIQTlJak14TUNJZ2RqMGlMVEVpSUM4K1BHTm9JSEE5SWpNeE1TSWdkajBpCglMVEVpSUM4K1BHTm9JSEE5SWpN
        eE1pSWdkajBpTFRFaUlDOCtQR05vSUhBOUlqTXhNeUlnZGowaUxURWlJQzgrUEdObwoJSUhBOUlqTXhOQ0lnZGowaUxURWlJQzgrUEdOb0lIQTlJak14TlNJZ2RqMGlM
        VEVpSUM4K1BHTm9JSEE5SWpNeE5pSWcKCWRqMGlMVEVpSUM4K1BHTm9JSEE5SWpNeE55SWdkajBpTFRFaUlDOCtQR05vSUhBOUlqTXhPQ0lnZGowaUxURWlJQzgrCglQ
        R05vSUhBOUlqTXhPU0lnZGowaUxURWlJQzgrUEdOb0lIQTlJak15TUNJZ2RqMGlMVEVpSUM4K1BHTm9JSEE5SWpNeQoJTVNJZ2RqMGlMVEVpSUM4K1BHTm9JSEE5SWpN
        eU1pSWdkajBpTFRFaUlDOCtQR05vSUhBOUlqTXlNeUlnZGowaUxURWkKCUlDOCtQR05vSUhBOUlqTXlOQ0lnZGowaUxURWlJQzgrUEdOb0lIQTlJak15TlNJZ2RqMGlM
        VEVpSUM4K1BHTm9JSEE5CglJak15TmlJZ2RqMGlMVEVpSUM4K1BHTm9JSEE5SWpNeU55SWdkajBpTFRFaUlDOCtQR05vSUhBOUlqTXlPQ0lnZGowaQoJTFRFaUlDOCtQ
        R05vSUhBOUlqTXlPU0lnZGowaUxURWlJQzgrUEdOb0lIQTlJak16TUNJZ2RqMGlMVEVpSUM4K1BHTm8KCUlIQTlJak16TVNJZ2RqMGlMVEVpSUM4K1BHTm9JSEE5SWpN
        ek1pSWdkajBpTFRFaUlDOCtQR05vSUhBOUlqTXpNeUlnCglkajBpTFRFaUlDOCtQR05vSUhBOUlqTXpOQ0lnZGowaUxURWlJQzgrUEdOb0lIQTlJak16TlNJZ2RqMGlM
        VEVpSUM4KwoJUEdOb0lIQTlJak16TmlJZ2RqMGlMVEVpSUM4K1BHTm9JSEE5SWpNek55SWdkajBpTFRFaUlDOCtQR05vSUhBOUlqTXoKCU9DSWdkajBpTFRFaUlDOCtQ
        R05vSUhBOUlqTXpPU0lnZGowaUxURWlJQzgrUEdOb0lIQTlJak0wTUNJZ2RqMGlMVEVpCglJQzgrUEdOb0lIQTlJak0wTVNJZ2RqMGlMVEVpSUM4K1BHTm9JSEE5SWpN
        ME1pSWdkajBpTFRFaUlDOCtQR05vSUhBOQoJSWpNME15SWdkajBpTFRFaUlDOCtQR05vSUhBOUlqTTBOQ0lnZGowaUxURWlJQzgrUEdOb0lIQTlJak0wTlNJZ2RqMGkK
        CUxURWlJQzgrUEdOb0lIQTlJak0wTmlJZ2RqMGlMVEVpSUM4K1BHTm9JSEE5SWpNME55SWdkajBpTFRFaUlDOCtQR05vCglJSEE5SWpNME9DSWdkajBpTFRFaUlDOCtQ
        R05vSUhBOUlqTTBPU0lnZGowaUxURWlJQzgrUEdOb0lIQTlJak0xTUNJZwoJZGowaUxURWlJQzgrUEdOb0lIQTlJak0xTVNJZ2RqMGlMVEVpSUM4K1BHTm9JSEE5SWpN
        MU1pSWdkajBpTFRFaUlDOCsKCVBHTm9JSEE5SWpNMU15SWdkajBpTFRFaUlDOCtQR05vSUhBOUlqTTFOQ0lnZGowaUxURWlJQzgrUEdOb0lIQTlJak0xCglOU0lnZGow
        aUxURWlJQzgrUEdOb0lIQTlJak0xTmlJZ2RqMGlMVEVpSUM4K1BHTm9JSEE5SWpNMU55SWdkajBpTFRFaQoJSUM4K1BHTm9JSEE5SWpNMU9DSWdkajBpTFRFaUlDOCtQ
        R05vSUhBOUlqTTFPU0lnZGowaUxURWlJQzgrUEdOb0lIQTkKCUlqTTJNQ0lnZGowaUxURWlJQzgrUEdOb0lIQTlJak0yTVNJZ2RqMGlMVEVpSUM4K1BHTm9JSEE5SWpN
        Mk1pSWdkajBpCglMVEVpSUM4K1BHTm9JSEE5SWpNMk15SWdkajBpTFRFaUlDOCtQR05vSUhBOUlqTTJOQ0lnZGowaUxURWlJQzgrUEdObwoJSUhBOUlqTTJOU0lnZGow
        aUxURWlJQzgrUEdOb0lIQTlJak0yTmlJZ2RqMGlMVEVpSUM4K1BHTm9JSEE5SWpNMk55SWcKCWRqMGlMVEVpSUM4K1BHTm9JSEE5SWpNMk9DSWdkajBpTFRFaUlDOCtQ
        R05vSUhBOUlqTTJPU0lnZGowaUxURWlJQzgrCglQR05vSUhBOUlqTTNNQ0lnZGowaUxURWlJQzgrUEdOb0lIQTlJak0zTVNJZ2RqMGlMVEVpSUM4K1BHTm9JSEE5SWpN
        MwoJTWlJZ2RqMGlMVEVpSUM4K1BHTm9JSEE5SWpNM015SWdkajBpTFRFaUlDOCtQR05vSUhBOUlqTTNOQ0lnZGowaUxURWkKCUlDOCtQR05vSUhBOUlqTTNOU0lnZGow
        aUxURWlJQzgrUEdOb0lIQTlJak0zTmlJZ2RqMGlMVEVpSUM4K1BHTm9JSEE5CglJak0zTnlJZ2RqMGlMVEVpSUM4K1BHTm9JSEE5SWpNM09DSWdkajBpTFRFaUlDOCtQ
        R05vSUhBOUlqTTNPU0lnZGowaQoJTFRFaUlDOCtQR05vSUhBOUlqTTRNQ0lnZGowaUxURWlJQzgrUEdOb0lIQTlJak00TVNJZ2RqMGlMVEVpSUM4K1BHTm8KCUlIQTlJ
        ak00TWlJZ2RqMGlMVEVpSUM4K1BHTm9JSEE5SWpNNE15SWdkajBpTFRFaUlDOCtQR05vSUhBOUlqTTROQ0lnCglkajBpTFRFaUlDOCtQR05vSUhBOUlqTTROU0lnZGow
        aUxURWlJQzgrUEdOb0lIQTlJak00TmlJZ2RqMGlMVEVpSUM4KwoJUEdOb0lIQTlJak00TnlJZ2RqMGlMVEVpSUM4K1BHTm9JSEE5SWpNNE9DSWdkajBpTFRFaUlDOCtQ
        R05vSUhBOUlqTTQKCU9TSWdkajBpTFRFaUlDOCtQR05vSUhBOUlqTTVNQ0lnZGowaUxURWlJQzgrUEdOb0lIQTlJak01TVNJZ2RqMGlMVEVpCglJQzgrUEdOb0lIQTlJ
        ak01TWlJZ2RqMGlMVEVpSUM4K1BHTm9JSEE5SWpNNU15SWdkajBpTFRFaUlDOCtQR05vSUhBOQoJSWpNNU5DSWdkajBpTFRFaUlDOCtQR05vSUhBOUlqTTVOU0lnZGow
        aUxURWlJQzgrUEdOb0lIQTlJak01TmlJZ2RqMGkKCUxURWlJQzgrUEdOb0lIQTlJak01TnlJZ2RqMGlMVEVpSUM4K1BHTm9JSEE5SWpNNU9DSWdkajBpTFRFaUlDOCtQ
        R05vCglJSEE5SWpNNU9TSWdkajBpTFRFaUlDOCtQR05vSUhBOUlqUXdNQ0lnZGowaUxURWlJQzgrUEdOb0lIQTlJalF3TVNJZwoJZGowaUxURWlJQzgrUEdOb0lIQTlJ
        alF3TWlJZ2RqMGlMVEVpSUM4K1BHTm9JSEE5SWpRd015SWdkajBpTFRFaUlDOCsKCVBHTm9JSEE5SWpRd05DSWdkajBpTFRFaUlDOCtQR05vSUhBOUlqUXdOU0lnZGow
        aUxURWlJQzgrUEdOb0lIQTlJalF3CglOaUlnZGowaUxURWlJQzgrUEdOb0lIQTlJalF3TnlJZ2RqMGlMVEVpSUM4K1BHTm9JSEE5SWpRd09DSWdkajBpTFRFaQoJSUM4
        K1BHTm9JSEE5SWpRd09TSWdkajBpTFRFaUlDOCtQR05vSUhBOUlqUXhNQ0lnZGowaUxURWlJQzgrUEdOb0lIQTkKCUlqUXhNU0lnZGowaUxURWlJQzgrUEdOb0lIQTlJ
        alF4TWlJZ2RqMGlMVEVpSUM4K1BHTm9JSEE5SWpReE15SWdkajBpCglMVEVpSUM4K1BHTm9JSEE5SWpReE5DSWdkajBpTFRFaUlDOCtQR05vSUhBOUlqUXhOU0lnZGow
        aUxURWlJQzgrUEdObwoJSUhBOUlqUXhOaUlnZGowaUxURWlJQzgrUEdOb0lIQTlJalF4TnlJZ2RqMGlMVEVpSUM4K1BHTm9JSEE5SWpReE9DSWcKCWRqMGlMVEVpSUM4
        K1BHTm9JSEE5SWpReE9TSWdkajBpTFRFaUlDOCtQR05vSUhBOUlqUXlNQ0lnZGowaUxURWlJQzgrCglQR05vSUhBOUlqUXlNU0lnZGowaUxURWlJQzgrUEdOb0lIQTlJ
        alF5TWlJZ2RqMGlMVEVpSUM4K1BHTm9JSEE5SWpReQoJTXlJZ2RqMGlMVEVpSUM4K1BHTm9JSEE5SWpReU5DSWdkajBpTFRFaUlDOCtQR05vSUhBOUlqUXlOU0lnZGow
        aUxURWkKCUlDOCtQR05vSUhBOUlqUXlOaUlnZGowaUxURWlJQzgrUEdOb0lIQTlJalF5TnlJZ2RqMGlMVEVpSUM4K1BHTm9JSEE5CglJalF5T0NJZ2RqMGlMVEVpSUM4
        K1BHTm9JSEE5SWpReU9TSWdkajBpTFRFaUlDOCtQR05vSUhBOUlqUXpNQ0lnZGowaQoJTFRFaUlDOCtQR05vSUhBOUlqUXpNU0lnZGowaUxURWlJQzgrUEdOb0lIQTlJ
        alF6TWlJZ2RqMGlMVEVpSUM4K1BHTm8KCUlIQTlJalF6TXlJZ2RqMGlMVEVpSUM4K1BHTm9JSEE5SWpRek5DSWdkajBpTFRFaUlDOCtQR05vSUhBOUlqUXpOU0lnCglk
        ajBpTFRFaUlDOCtQR05vSUhBOUlqUXpOaUlnZGowaUxURWlJQzgrUEdOb0lIQTlJalF6TnlJZ2RqMGlMVEVpSUM4KwoJUEdOb0lIQTlJalF6T0NJZ2RqMGlMVEVpSUM4
        K1BHTm9JSEE5SWpRek9TSWdkajBpTFRFaUlDOCtQR05vSUhBOUlqUTAKCU1DSWdkajBpTFRFaUlDOCtQR05vSUhBOUlqUTBNU0lnZGowaUxURWlJQzgrUEdOb0lIQTlJ
        alEwTWlJZ2RqMGlMVEVpCglJQzgrUEdOb0lIQTlJalEwTXlJZ2RqMGlMVEVpSUM4K1BHTm9JSEE5SWpRME5DSWdkajBpTFRFaUlDOCtQR05vSUhBOQoJSWpRME5TSWdk
        ajBpTFRFaUlDOCtQR05vSUhBOUlqUTBOaUlnZGowaUxURWlJQzgrUEdOb0lIQTlJalEwTnlJZ2RqMGkKCUxURWlJQzgrUEdOb0lIQTlJalEwT0NJZ2RqMGlMVEVpSUM4
        K1BHTm9JSEE5SWpRME9TSWdkajBpTFRFaUlDOCtQR05vCglJSEE5SWpRMU1DSWdkajBpTFRFaUlDOCtQR05vSUhBOUlqUTFNU0lnZGowaUxURWlJQzgrUEdOb0lIQTlJ
        alExTWlJZwoJZGowaUxURWlJQzgrUEdOb0lIQTlJalExTXlJZ2RqMGlMVEVpSUM4K1BHTm9JSEE5SWpRMU5DSWdkajBpTFRFaUlDOCsKCVBHTm9JSEE5SWpRMU5TSWdk
        ajBpTFRFaUlDOCtQR05vSUhBOUlqUTFOaUlnZGowaUxURWlJQzgrUEdOb0lIQTlJalExCglOeUlnZGowaUxURWlJQzgrUEdOb0lIQTlJalExT0NJZ2RqMGlMVEVpSUM4
        K1BHTm9JSEE5SWpRMU9TSWdkajBpTFRFaQoJSUM4K1BHTm9JSEE5SWpRMk1DSWdkajBpTFRFaUlDOCtQR05vSUhBOUlqUTJNU0lnZGowaUxURWlJQzgrUEdOb0lIQTkK
        CUlqUTJNaUlnZGowaUxURWlJQzgrUEdOb0lIQTlJalEyTXlJZ2RqMGlMVEVpSUM4K1BHTm9JSEE5SWpRMk5DSWdkajBpCglMVEVpSUM4K1BHTm9JSEE5SWpRMk5TSWdk
        ajBpTFRFaUlDOCtQR05vSUhBOUlqUTJOaUlnZGowaUxURWlJQzgrUEdObwoJSUhBOUlqUTJOeUlnZGowaUxURWlJQzgrUEdOb0lIQTlJalEyT0NJZ2RqMGlMVEVpSUM4
        K1BHTm9JSEE5SWpRMk9TSWcKCWRqMGlMVEVpSUM4K1BHTm9JSEE5SWpRM01DSWdkajBpTFRFaUlDOCtQR05vSUhBOUlqUTNNU0lnZGowaUxURWlJQzgrCglQR05vSUhB
        OUlqUTNNaUlnZGowaUxURWlJQzgrUEdOb0lIQTlJalEzTXlJZ2RqMGlMVEVpSUM4K1BHTm9JSEE5SWpRMwoJTkNJZ2RqMGlMVEVpSUM4K1BHTm9JSEE5SWpRM05TSWdk
        ajBpTFRFaUlDOCtQR05vSUhBOUlqUTNOaUlnZGowaUxURWkKCUlDOCtQR05vSUhBOUlqUTNOeUlnZGowaUxURWlJQzgrUEdOb0lIQTlJalEzT0NJZ2RqMGlMVEVpSUM4
        K1BHTm9JSEE5CglJalEzT1NJZ2RqMGlMVEVpSUM4K1BHTm9JSEE5SWpRNE1DSWdkajBpTFRFaUlDOCtQR05vSUhBOUlqUTRNU0lnZGowaQoJTFRFaUlDOCtQR05vSUhB
        OUlqUTRNaUlnZGowaUxURWlJQzgrUEdOb0lIQTlJalE0TXlJZ2RqMGlMVEVpSUM4K1BHTm8KCUlIQTlJalE0TkNJZ2RqMGlMVEVpSUM4K1BHTm9JSEE5SWpRNE5TSWdk
        ajBpTFRFaUlDOCtQR05vSUhBOUlqUTROaUlnCglkajBpTFRFaUlDOCtQR05vSUhBOUlqUTROeUlnZGowaUxURWlJQzgrUEdOb0lIQTlJalE0T0NJZ2RqMGlMVEVpSUM4
        KwoJUEdOb0lIQTlJalE0T1NJZ2RqMGlMVEVpSUM4K1BHTm9JSEE5SWpRNU1DSWdkajBpTFRFaUlDOCtQR05vSUhBOUlqUTUKCU1TSWdkajBpTFRFaUlDOCtQR05vSUhB
        OUlqUTVNaUlnZGowaUxURWlJQzgrUEdOb0lIQTlJalE1TXlJZ2RqMGlMVEVpCglJQzgrUEdOb0lIQTlJalE1TkNJZ2RqMGlMVEVpSUM4K1BHTm9JSEE5SWpRNU5TSWdk
        ajBpTFRFaUlDOCtQR05vSUhBOQoJSWpRNU5pSWdkajBpTFRFaUlDOCtQR05vSUhBOUlqUTVOeUlnZGowaUxURWlJQzgrUEdOb0lIQTlJalE1T0NJZ2RqMGkKCUxURWlJ
        QzgrUEdOb0lIQTlJalE1T1NJZ2RqMGlMVEVpSUM4K1BHTm9JSEE5SWpVd01DSWdkajBpTFRFaUlDOCtQR05vCglJSEE5SWpVd01TSWdkajBpTFRFaUlDOCtQR05vSUhB
        OUlqVXdNaUlnZGowaUxURWlJQzgrUEdOb0lIQTlJalV3TXlJZwoJZGowaUxURWlJQzgrUEdOb0lIQTlJalV3TkNJZ2RqMGlMVEVpSUM4K1BHTm9JSEE5SWpVd05TSWdk
        ajBpTFRFaUlDOCsKCVBHTm9JSEE5SWpVd05pSWdkajBpTFRFaUlDOCtQR05vSUhBOUlqVXdOeUlnZGowaUxURWlJQzgrUEdOb0lIQTlJalV3CglPQ0lnZGowaUxURWlJ
        QzgrUEdOb0lIQTlJalV3T1NJZ2RqMGlMVEVpSUM4K1BHTm9JSEE5SWpVeE1DSWdkajBpTFRFaQoJSUM4K1BHTm9JSEE5SWpVeE1TSWdkajBpTFRFaUlDOCtQR05vSUhB
        OUlqVXhNaUlnZGowaUxURWlJQzgrUEdOb0lIQTkKCUlqVXhNeUlnZGowaUxURWlJQzgrUEdOb0lIQTlJalV4TkNJZ2RqMGlMVEVpSUM4K1BHTm9JSEE5SWpVeE5TSWdk
        ajBpCglMVEVpSUM4K1BHTm9JSEE5SWpVeE5pSWdkajBpTFRFaUlDOCtQR05vSUhBOUlqVXhOeUlnZGowaUxURWlJQzgrUEdObwoJSUhBOUlqVXhPQ0lnZGowaUxURWlJ
        QzgrUEdOb0lIQTlJalV4T1NJZ2RqMGlMVEVpSUM4K1BHTm9JSEE5SWpVeU1DSWcKCWRqMGlMVEVpSUM4K1BHTm9JSEE5SWpVeU1TSWdkajBpTFRFaUlDOCtQR05vSUhB
        OUlqVXlNaUlnZGowaUxURWlJQzgrCglQR05vSUhBOUlqVXlNeUlnZGowaUxURWlJQzgrUEdOb0lIQTlJalV5TkNJZ2RqMGlMVEVpSUM4K1BHTm9JSEE5SWpVeQoJTlNJ
        Z2RqMGlMVEVpSUM4K1BHTm9JSEE5SWpVeU5pSWdkajBpTFRFaUlDOCtQR05vSUhBOUlqVXlOeUlnZGowaUxURWkKCUlDOCtQR05vSUhBOUlqVXlPQ0lnZGowaUxURWlJ
        QzgrUEdOb0lIQTlJalV5T1NJZ2RqMGlMVEVpSUM4K1BHTm9JSEE5CglJalV6TUNJZ2RqMGlMVEVpSUM4K1BHTm9JSEE5SWpVek1TSWdkajBpTFRFaUlDOCtQR05vSUhB
        OUlqVXpNaUlnZGowaQoJTFRFaUlDOCtQR05vSUhBOUlqVXpNeUlnZGowaUxURWlJQzgrUEdOb0lIQTlJalV6TkNJZ2RqMGlMVEVpSUM4K1BHTm8KCUlIQTlJalV6TlNJ
        Z2RqMGlMVEVpSUM4K1BHTm9JSEE5SWpVek5pSWdkajBpTFRFaUlDOCtQR05vSUhBOUlqVXpOeUlnCglkajBpTFRFaUlDOCtQR05vSUhBOUlqVXpPQ0lnZGowaUxURWlJ
        QzgrUEdOb0lIQTlJalV6T1NJZ2RqMGlMVEVpSUM4KwoJUEdOb0lIQTlJalUwTUNJZ2RqMGlMVEVpSUM4K1BHTm9JSEE5SWpVME1TSWdkajBpTFRFaUlDOCtQR05vSUhB
        OUlqVTAKCU1pSWdkajBpTFRFaUlDOCtQR05vSUhBOUlqVTBNeUlnZGowaUxURWlJQzgrUEdOb0lIQTlJalUwTkNJZ2RqMGlMVEVpCglJQzgrUEdOb0lIQTlJalUwTlNJ
        Z2RqMGlMVEVpSUM4K1BHTm9JSEE5SWpVME5pSWdkajBpTFRFaUlDOCtQR05vSUhBOQoJSWpVME55SWdkajBpTFRFaUlDOCtQR05vSUhBOUlqVTBPQ0lnZGowaUxURWlJ
        QzgrUEdOb0lIQTlJalUwT1NJZ2RqMGkKCUxURWlJQzgrUEdOb0lIQTlJalUxTUNJZ2RqMGlMVEVpSUM4K1BHTm9JSEE5SWpVMU1TSWdkajBpTFRFaUlDOCtQR05vCglJ
        SEE5SWpVMU1pSWdkajBpTFRFaUlDOCtQR05vSUhBOUlqVTFNeUlnZGowaUxURWlJQzgrUEdOb0lIQTlJalUxTkNJZwoJZGowaUxURWlJQzgrUEdOb0lIQTlJalUxTlNJ
        Z2RqMGlMVEVpSUM4K1BHTm9JSEE5SWpVMU5pSWdkajBpTFRFaUlDOCsKCVBHTm9JSEE5SWpVMU55SWdkajBpTFRFaUlDOCtQR05vSUhBOUlqVTFPQ0lnZGowaUxURWlJ
        QzgrUEdOb0lIQTlJalUxCglPU0lnZGowaUxURWlJQzgrUEdOb0lIQTlJalUyTUNJZ2RqMGlMVEVpSUM4K1BHTm9JSEE5SWpVMk1TSWdkajBpTFRFaQoJSUM4K1BHTm9J
        SEE5SWpVMk1pSWdkajBpTFRFaUlDOCtQR05vSUhBOUlqVTJNeUlnZGowaUxURWlJQzgrUEdOb0lIQTkKCUlqVTJOQ0lnZGowaUxURWlJQzgrUEdOb0lIQTlJalUyTlNJ
        Z2RqMGlMVEVpSUM4K1BHTm9JSEE5SWpVMk5pSWdkajBpCglMVEVpSUM4K1BHTm9JSEE5SWpVMk55SWdkajBpTFRFaUlDOCtQR05vSUhBOUlqVTJPQ0lnZGowaUxURWlJ
        QzgrUEdObwoJSUhBOUlqVTJPU0lnZGowaUxURWlJQzgrUEdOb0lIQTlJalUzTUNJZ2RqMGlMVEVpSUM4K1BHTm9JSEE5SWpVM01TSWcKCWRqMGlMVEVpSUM4K1BHTm9J
        SEE5SWpVM01pSWdkajBpTFRFaUlDOCtQR05vSUhBOUlqVTNNeUlnZGowaUxURWlJQzgrCglQR05vSUhBOUlqVTNOQ0lnZGowaUxURWlJQzgrUEdOb0lIQTlJalUzTlNJ
        Z2RqMGlMVEVpSUM4K1BHTm9JSEE5SWpVMwoJTmlJZ2RqMGlMVEVpSUM4K1BHTm9JSEE5SWpVM055SWdkajBpTFRFaUlDOCtQR05vSUhBOUlqVTNPQ0lnZGowaUxURWkK
        CUlDOCtQR05vSUhBOUlqVTNPU0lnZGowaUxURWlJQzgrUEdOb0lIQTlJalU0TUNJZ2RqMGlMVEVpSUM4K1BHTm9JSEE5CglJalU0TVNJZ2RqMGlMVEVpSUM4K1BHTm9J
        SEE5SWpVNE1pSWdkajBpTFRFaUlDOCtQR05vSUhBOUlqVTRNeUlnZGowaQoJTFRFaUlDOCtQR05vSUhBOUlqVTROQ0lnZGowaUxURWlJQzgrUEdOb0lIQTlJalU0TlNJ
        Z2RqMGlMVEVpSUM4K1BHTm8KCUlIQTlJalU0TmlJZ2RqMGlMVEVpSUM4K1BHTm9JSEE5SWpVNE55SWdkajBpTFRFaUlDOCtQR05vSUhBOUlqVTRPQ0lnCglkajBpTFRF
        aUlDOCtQR05vSUhBOUlqVTRPU0lnZGowaUxURWlJQzgrUEdOb0lIQTlJalU1TUNJZ2RqMGlMVEVpSUM4KwoJUEdOb0lIQTlJalU1TVNJZ2RqMGlMVEVpSUM4K1BHTm9J
        SEE5SWpVNU1pSWdkajBpTFRFaUlDOCtQR05vSUhBOUlqVTUKCU15SWdkajBpTFRFaUlDOCtQR05vSUhBOUlqVTVOQ0lnZGowaUxURWlJQzgrUEdOb0lIQTlJalU1TlNJ
        Z2RqMGlMVEVpCglJQzgrUEdOb0lIQTlJalU1TmlJZ2RqMGlMVEVpSUM4K1BHTm9JSEE5SWpVNU55SWdkajBpTFRFaUlDOCtQR05vSUhBOQoJSWpVNU9DSWdkajBpTFRF
        aUlDOCtQR05vSUhBOUlqVTVPU0lnZGowaUxURWlJQzgrUEdOb0lIQTlJall3TUNJZ2RqMGkKCUxURWlJQzgrUEdOb0lIQTlJall3TVNJZ2RqMGlMVEVpSUM4K1BHTm9J
        SEE5SWpZd01pSWdkajBpTFRFaUlDOCtQR05vCglJSEE5SWpZd015SWdkajBpTFRFaUlDOCtQR05vSUhBOUlqWXdOQ0lnZGowaUxURWlJQzgrUEdOb0lIQTlJall3TlNJ
        ZwoJZGowaUxURWlJQzgrUEdOb0lIQTlJall3TmlJZ2RqMGlMVEVpSUM4K1BHTm9JSEE5SWpZd055SWdkajBpTFRFaUlDOCsKCVBHTm9JSEE5SWpZd09DSWdkajBpTFRF
        aUlDOCtQR05vSUhBOUlqWXdPU0lnZGowaUxURWlJQzgrUEdOb0lIQTlJall4CglNQ0lnZGowaUxURWlJQzgrUEdOb0lIQTlJall4TVNJZ2RqMGlMVEVpSUM4K1BHTm9J
        SEE5SWpZeE1pSWdkajBpTFRFaQoJSUM4K1BHTm9JSEE5SWpZeE15SWdkajBpTFRFaUlDOCtQR05vSUhBOUlqWXhOQ0lnZGowaUxURWlJQzgrUEdOb0lIQTkKCUlqWXhO
        U0lnZGowaUxURWlJQzgrUEdOb0lIQTlJall4TmlJZ2RqMGlMVEVpSUM4K1BHTm9JSEE5SWpZeE55SWdkajBpCglMVEVpSUM4K1BHTm9JSEE5SWpZeE9DSWdkajBpTFRF
        aUlDOCtQR05vSUhBOUlqWXhPU0lnZGowaUxURWlJQzgrUEdObwoJSUhBOUlqWXlNQ0lnZGowaUxURWlJQzgrUEdOb0lIQTlJall5TVNJZ2RqMGlMVEVpSUM4K1BHTm9J
        SEE5SWpZeU1pSWcKCWRqMGlMVEVpSUM4K1BHTm9JSEE5SWpZeU15SWdkajBpTFRFaUlDOCtQR05vSUhBOUlqWXlOQ0lnZGowaUxURWlJQzgrCglQR05vSUhBOUlqWXlO
        U0lnZGowaUxURWlJQzgrUEdOb0lIQTlJall5TmlJZ2RqMGlMVEVpSUM4K1BHTm9JSEE5SWpZeQoJTnlJZ2RqMGlMVEVpSUM4K1BHTm9JSEE5SWpZeU9DSWdkajBpTFRF
        aUlDOCtQR05vSUhBOUlqWXlPU0lnZGowaUxURWkKCUlDOCtQR05vSUhBOUlqWXpNQ0lnZGowaUxURWlJQzgrUEdOb0lIQTlJall6TVNJZ2RqMGlMVEVpSUM4K1BHTm9J
        SEE5CglJall6TWlJZ2RqMGlMVEVpSUM4K1BHTm9JSEE5SWpZek15SWdkajBpTFRFaUlDOCtQR05vSUhBOUlqWXpOQ0lnZGowaQoJTFRFaUlDOCtQR05vSUhBOUlqWXpO
        U0lnZGowaUxURWlJQzgrUEdOb0lIQTlJall6TmlJZ2RqMGlMVEVpSUM4K1BHTm8KCUlIQTlJall6TnlJZ2RqMGlMVEVpSUM4K1BHTm9JSEE5SWpZek9DSWdkajBpTFRF
        aUlDOCtQR05vSUhBOUlqWXpPU0lnCglkajBpTFRFaUlDOCtQR05vSUhBOUlqWTBNQ0lnZGowaUxURWlJQzgrUEdOb0lIQTlJalkwTVNJZ2RqMGlMVEVpSUM4KwoJUEdO
        b0lIQTlJalkwTWlJZ2RqMGlMVEVpSUM4K1BHTm9JSEE5SWpZME15SWdkajBpTFRFaUlDOCtQR05vSUhBOUlqWTAKCU5DSWdkajBpTFRFaUlDOCtQR05vSUhBOUlqWTBO
        U0lnZGowaUxURWlJQzgrUEdOb0lIQTlJalkwTmlJZ2RqMGlMVEVpCglJQzgrUEdOb0lIQTlJalkwTnlJZ2RqMGlMVEVpSUM4K1BHTm9JSEE5SWpZME9DSWdkajBpTFRF
        aUlDOCtQR05vSUhBOQoJSWpZME9TSWdkajBpTFRFaUlDOCtQR05vSUhBOUlqWTFNQ0lnZGowaUxURWlJQzgrUEdOb0lIQTlJalkxTVNJZ2RqMGkKCUxURWlJQzgrUEdO
        b0lIQTlJalkxTWlJZ2RqMGlMVEVpSUM4K1BHTm9JSEE5SWpZMU15SWdkajBpTFRFaUlDOCtQR05vCglJSEE5SWpZMU5DSWdkajBpTFRFaUlDOCtQR05vSUhBOUlqWTFO
        U0lnZGowaUxURWlJQzgrUEdOb0lIQTlJalkxTmlJZwoJZGowaUxURWlJQzgrUEdOb0lIQTlJalkxTnlJZ2RqMGlMVEVpSUM4K1BHTm9JSEE5SWpZMU9DSWdkajBpTFRF
        aUlDOCsKCVBHTm9JSEE5SWpZMU9TSWdkajBpTFRFaUlDOCtQR05vSUhBOUlqWTJNQ0lnZGowaUxURWlJQzgrUEdOb0lIQTlJalkyCglNU0lnZGowaUxURWlJQzgrUEdO
        b0lIQTlJalkyTWlJZ2RqMGlMVEVpSUM4K1BHTm9JSEE5SWpZMk15SWdkajBpTFRFaQoJSUM4K1BHTm9JSEE5SWpZMk5DSWdkajBpTFRFaUlDOCtQR05vSUhBOUlqWTJO
        U0lnZGowaUxURWlJQzgrUEdOb0lIQTkKCUlqWTJOaUlnZGowaUxURWlJQzgrUEdOb0lIQTlJalkyTnlJZ2RqMGlMVEVpSUM4K1BHTm9JSEE5SWpZMk9DSWdkajBpCglM
        VEVpSUM4K1BHTm9JSEE5SWpZMk9TSWdkajBpTFRFaUlDOCtQR05vSUhBOUlqWTNNQ0lnZGowaUxURWlJQzgrUEdObwoJSUhBOUlqWTNNU0lnZGowaUxURWlJQzgrUEdO
        b0lIQTlJalkzTWlJZ2RqMGlMVEVpSUM4K1BHTm9JSEE5SWpZM015SWcKCWRqMGlMVEVpSUM4K1BHTm9JSEE5SWpZM05DSWdkajBpTFRFaUlDOCtQR05vSUhBOUlqWTNO
        U0lnZGowaUxURWlJQzgrCglQR05vSUhBOUlqWTNOaUlnZGowaUxURWlJQzgrUEdOb0lIQTlJalkzTnlJZ2RqMGlMVEVpSUM4K1BHTm9JSEE5SWpZMwoJT0NJZ2RqMGlM
        VEVpSUM4K1BHTm9JSEE5SWpZM09TSWdkajBpTFRFaUlDOCtQR05vSUhBOUlqWTRNQ0lnZGowaUxURWkKCUlDOCtQR05vSUhBOUlqWTRNU0lnZGowaUxURWlJQzgrUEdO
        b0lIQTlJalk0TWlJZ2RqMGlMVEVpSUM4K1BHTm9JSEE5CglJalk0TXlJZ2RqMGlMVEVpSUM4K1BHTm9JSEE5SWpZNE5DSWdkajBpTFRFaUlDOCtQR05vSUhBOUlqWTRO
        U0lnZGowaQoJTFRFaUlDOCtQR05vSUhBOUlqWTROaUlnZGowaUxURWlJQzgrUEdOb0lIQTlJalk0TnlJZ2RqMGlMVEVpSUM4K1BHTm8KCUlIQTlJalk0T0NJZ2RqMGlM
        VEVpSUM4K1BHTm9JSEE5SWpZNE9TSWdkajBpTFRFaUlDOCtQR05vSUhBOUlqWTVNQ0lnCglkajBpTFRFaUlDOCtQR05vSUhBOUlqWTVNU0lnZGowaUxURWlJQzgrUEdO
        b0lIQTlJalk1TWlJZ2RqMGlMVEVpSUM4KwoJUEdOb0lIQTlJalk1TXlJZ2RqMGlMVEVpSUM4K1BHTm9JSEE5SWpZNU5DSWdkajBpTFRFaUlDOCtQR05vSUhBOUlqWTUK
        CU5TSWdkajBpTFRFaUlDOCtQR05vSUhBOUlqWTVOaUlnZGowaUxURWlJQzgrUEdOb0lIQTlJalk1TnlJZ2RqMGlMVEVpCglJQzgrUEdOb0lIQTlJalk1T0NJZ2RqMGlM
        VEVpSUM4K1BHTm9JSEE5SWpZNU9TSWdkajBpTFRFaUlDOCtQR05vSUhBOQoJSWpjd01DSWdkajBpTFRFaUlDOCtQR05vSUhBOUlqY3dNU0lnZGowaUxURWlJQzgrUEdO
        b0lIQTlJamN3TWlJZ2RqMGkKCUxURWlJQzgrUEdOb0lIQTlJamN3TXlJZ2RqMGlMVEVpSUM4K1BHTm9JSEE5SWpjd05DSWdkajBpTFRFaUlDOCtQR05vCglJSEE5SWpj
        d05TSWdkajBpTFRFaUlDOCtQR05vSUhBOUlqY3dOaUlnZGowaUxURWlJQzgrUEdOb0lIQTlJamN3TnlJZwoJZGowaUxURWlJQzgrUEdOb0lIQTlJamN3T0NJZ2RqMGlM
        VEVpSUM4K1BHTm9JSEE5SWpjd09TSWdkajBpTFRFaUlDOCsKCVBHTm9JSEE5SWpjeE1DSWdkajBpTFRFaUlDOCtQR05vSUhBOUlqY3hNU0lnZGowaUxURWlJQzgrUEdO
        b0lIQTlJamN4CglNaUlnZGowaUxURWlJQzgrUEdOb0lIQTlJamN4TXlJZ2RqMGlMVEVpSUM4K1BHTm9JSEE5SWpjeE5DSWdkajBpTFRFaQoJSUM4K1BHTm9JSEE5SWpj
        eE5TSWdkajBpTFRFaUlDOCtQR05vSUhBOUlqY3hOaUlnZGowaUxURWlJQzgrUEdOb0lIQTkKCUlqY3hOeUlnZGowaUxURWlJQzgrUEdOb0lIQTlJamN4T0NJZ2RqMGlM
        VEVpSUM4K1BHTm9JSEE5SWpjeE9TSWdkajBpCglMVEVpSUM4K1BHTm9JSEE5SWpjeU1DSWdkajBpTFRFaUlDOCtQR05vSUhBOUlqY3lNU0lnZGowaUxURWlJQzgrUEdO
        bwoJSUhBOUlqY3lNaUlnZGowaUxURWlJQzgrUEdOb0lIQTlJamN5TXlJZ2RqMGlMVEVpSUM4K1BHTm9JSEE5SWpjeU5DSWcKCWRqMGlMVEVpSUM4K1BHTm9JSEE5SWpj
        eU5TSWdkajBpTFRFaUlDOCtQR05vSUhBOUlqY3lOaUlnZGowaUxURWlJQzgrCglQR05vSUhBOUlqY3lOeUlnZGowaUxURWlJQzgrUEdOb0lIQTlJamN5T0NJZ2RqMGlM
        VEVpSUM4K1BHTm9JSEE5SWpjeQoJT1NJZ2RqMGlMVEVpSUM4K1BHTm9JSEE5SWpjek1DSWdkajBpTFRFaUlDOCtQR05vSUhBOUlqY3pNU0lnZGowaUxURWkKCUlDOCtQ
        R05vSUhBOUlqY3pNaUlnZGowaUxURWlJQzgrUEdOb0lIQTlJamN6TXlJZ2RqMGlMVEVpSUM4K1BHTm9JSEE5CglJamN6TkNJZ2RqMGlMVEVpSUM4K1BHTm9JSEE5SWpj
        ek5TSWdkajBpTFRFaUlDOCtQR05vSUhBOUlqY3pOaUlnZGowaQoJTFRFaUlDOCtQR05vSUhBOUlqY3pOeUlnZGowaUxURWlJQzgrUEdOb0lIQTlJamN6T0NJZ2RqMGlM
        VEVpSUM4K1BHTm8KCUlIQTlJamN6T1NJZ2RqMGlMVEVpSUM4K1BHTm9JSEE5SWpjME1DSWdkajBpTFRFaUlDOCtQR05vSUhBOUlqYzBNU0lnCglkajBpTFRFaUlDOCtQ
        R05vSUhBOUlqYzBNaUlnZGowaUxURWlJQzgrUEdOb0lIQTlJamMwTXlJZ2RqMGlMVEVpSUM4KwoJUEdOb0lIQTlJamMwTkNJZ2RqMGlMVEVpSUM4K1BHTm9JSEE5SWpj
        ME5TSWdkajBpTFRFaUlDOCtQR05vSUhBOUlqYzAKCU5pSWdkajBpTFRFaUlDOCtQR05vSUhBOUlqYzBOeUlnZGowaUxURWlJQzgrUEdOb0lIQTlJamMwT0NJZ2RqMGlM
        VEVpCglJQzgrUEdOb0lIQTlJamMwT1NJZ2RqMGlMVEVpSUM4K1BHTm9JSEE5SWpjMU1DSWdkajBpTFRFaUlDOCtQR05vSUhBOQoJSWpjMU1TSWdkajBpTFRFaUlDOCtQ
        R05vSUhBOUlqYzFNaUlnZGowaUxURWlJQzgrUEdOb0lIQTlJamMxTXlJZ2RqMGkKCUxURWlJQzgrUEdOb0lIQTlJamMxTkNJZ2RqMGlMVEVpSUM4K1BHTm9JSEE5SWpj
        MU5TSWdkajBpTFRFaUlDOCtQR05vCglJSEE5SWpjMU5pSWdkajBpTFRFaUlDOCtQR05vSUhBOUlqYzFOeUlnZGowaUxURWlJQzgrUEdOb0lIQTlJamMxT0NJZwoJZGow
        aUxURWlJQzgrUEdOb0lIQTlJamMxT1NJZ2RqMGlMVEVpSUM4K1BHTm9JSEE5SWpjMk1DSWdkajBpTFRFaUlDOCsKCVBHTm9JSEE5SWpjMk1TSWdkajBpTFRFaUlDOCtQ
        R05vSUhBOUlqYzJNaUlnZGowaUxURWlJQzgrUEdOb0lIQTlJamMyCglNeUlnZGowaUxURWlJQzgrUEdOb0lIQTlJamMyTkNJZ2RqMGlMVEVpSUM4K1BDOXRhV1JwWTJo
        aGJsOXRZWEErUEdOMQoJYzNSdmJXTnZiblJ5YjJ4ZmJXRndQanhqSUhBOUlqQWlJSFk5SWpReElpQXZQanhqSUhBOUlqRWlJSFk5SWpReUlpQXYKCVBqeGpJSEE5SWpJ
        aUlIWTlJalF6SWlBdlBqeGpJSEE5SWpNaUlIWTlJalEwSWlBdlBqeGpJSEE5SWpRaUlIWTlJalExCglJaUF2UGp4aklIQTlJalVpSUhZOUlqUTJJaUF2UGp4aklIQTlJ
        allpSUhZOUlqUTNJaUF2UGp4aklIQTlJamNpSUhZOQoJSWpRNElpQXZQand2WTNWemRHOXRZMjl1ZEhKdmJGOXRZWEErUEdOMWMzUnZiV052Ym5SeWIyeGZZMmhoYmw5
        dFlYQSsKCVBHTm9JSEE5SWpBaUlIWTlJaTB4SWlBdlBqeGphQ0J3UFNJeElpQjJQU0l0TVNJZ0x6NDhZMmdnY0QwaU1pSWdkajBpCglMVEVpSUM4K1BHTm9JSEE5SWpN
        aUlIWTlJaTB4SWlBdlBqeGphQ0J3UFNJMElpQjJQU0l0TVNJZ0x6NDhZMmdnY0QwaQoJTlNJZ2RqMGlMVEVpSUM4K1BHTm9JSEE5SWpZaUlIWTlJaTB4SWlBdlBqeGph
        Q0J3UFNJM0lpQjJQU0l0TVNJZ0x6NDgKCUwyTjFjM1J2YldOdmJuUnliMnhmWTJoaGJsOXRZWEErUEM5a1lYZEZlSFJ5WVZOMFlYUmxQand2Y0dGMFkyZytBQUFBCglB
        QUFFQUFBUUFBUUFBQUJBQUlBQXdBQUFBVUFCZ0FIQUFRQUNRQUtBQXNBQ0FBTkFBNEFEd0FNQUJFQUVnQVRBQkFBRgoJUUFXQUJjQUZBQVpBQm9BR3dBWUFCMEFIZ0Fm
        QUJ3QUlRQWlBQ01BSUFBbEFDWUFKd0FrQUNrQUtnQXJBQ2dBTFFBdUEKCUM4QUxBQXhBRElBTXdBd0FEVUFOZ0EzQURRQU9RQTZBRHNBT0FBOUFENEFQd0E4QUVFQVFn
        QkRBRUFBUlFCR0FFY0FSCglBQkpBRW9BU3dCSUFFMEFUZ0JQQUV3QVVRQlNBRk1BVUFCVkFGWUFWd0JVQUZrQVdnQmJBRmdBWFFCZUFGOEFYQUJoQQoJR0lBWXdCZ0FH
        VUFaZ0JuQUdRQWFRQnFBR3NBYUFCdEFHNEFid0JzQUhFQWNnQnpBSEFBZFFCMkFIY0FkQUI1QUhvQWUKCXdCNEFIMEFmZ0IvQUh3QWdRQ0NBSU1BZ0FDRkFJWUFod0NF
        QUlrQWlnQ0xBSWdBalFDT0FJOEFqQUNSQUpJQWt3Q1FBCglKVUFsZ0NYQUpRQW1RQ2FBSnNBbUFDZEFKNEFud0NjQUtFQW9nQ2pBS0FBcFFDbUFLY0FwQUNwQUtvQXF3
        Q29BSzBBcgoJZ0N2QUt3QXNRQ3lBTE1Bc0FDMUFMWUF0d0MwQUxrQXVnQzdBTGdBdlFDK0FMOEF2QURCQU1JQXd3REFBTVVBeGdESEEKCU1RQXlRREtBTXNBeUFETkFN
        NEF6d0RNQU5FQTBnRFRBTkFBMVFEV0FOY0ExQURaQU5vQTJ3RFlBTjBBM2dEZkFOd0E0CglRRGlBT01BNEFEbEFPWUE1d0RrQU9rQTZnRHJBT2dBN1FEdUFPOEE3QUR4
        QVBJQTh3RHdBUFVBOWdEM0FQUUErUUQ2QQoJUHNBK0FEOUFQNEEvd0Q4QVFNQS9nRDlBUHdBL3dENkFQa0ErQUQ3QVBZQTlRRDBBUGNBOGdEeEFQQUE4d0R1QU8wQTcK
        CUFEdkFPb0E2UURvQU9zQTVnRGxBT1FBNXdEaUFPRUE0QURqQU40QTNRRGNBTjhBMmdEWkFOZ0Eyd0RXQU5VQTFBRFhBCglOSUEwUURRQU5NQXpnRE5BTXdBendES0FN
        a0F5QURMQU1ZQXhRREVBTWNBd2dEQkFNQUF3d0MrQUwwQXZBQy9BTG9BdQoJUUM0QUxzQXRnQzFBTFFBdHdDeUFMRUFzQUN6QUs0QXJRQ3NBSzhBcWdDcEFLZ0Fxd0Nt
        QUtVQXBBQ25BS0lBb1FDZ0EKCUtNQW5nQ2RBSndBbndDYUFKa0FtQUNiQUpZQWxRQ1VBSmNBa2dDUkFKQUFrd0NPQUkwQWpBQ1BBSW9BaVFDSUFJc0FoCglnQ0ZBSVFB
        aHdDQ0FJRUFnQUNEQUg0QWZRQjhBSDhBZWdCNUFIZ0Fld0IyQUhVQWRBQjNBSElBY1FCd0FITUFiZ0J0QQoJR3dBYndCcUFHa0FhQUJyQUdZQVpRQmtBR2NBWWdCaEFH
        QUFZd0JlQUYwQVhBQmZBRm9BV1FCWUFGc0FWZ0JWQUZRQVYKCXdCU0FGRUFVQUJUQUU0QVRRQk1BRThBU2dCSkFFZ0FTd0JHQUVVQVJBQkhBRUlBUVFCQUFFTUFQZ0E5
        QUR3QVB3QTZBCglEa0FPQUE3QURZQU5RQTBBRGNBTWdBeEFEQUFNd0F1QUMwQUxBQXZBQ29BS1FBb0FDc0FKZ0FsQUNRQUp3QWlBQ0VBSQoJQUFqQUI0QUhRQWNBQjhB
        R2dBWkFCZ0FHd0FXQUJVQUZBQVhBQklBRVFBUUFCTUFEZ0FOQUF3QUR3QUtBQWtBQ0FBTEEKCUFZQUJRQUVBQWNBQWdBQkFBQUFBd1ArQS8wRC9BUC9BL29EK1FQNEEv
        c0Q5Z1AxQS9RRDl3UHlBL0VEOEFQekErNEQ3CglRUHNBKzhENmdQcEErZ0Q2d1BtQStVRDVBUG5BK0lENFFQZ0ErTUQzZ1BkQTl3RDN3UGFBOWtEMkFQYkE5WUQxUVBV
        QQoJOWNEMGdQUkE5QUQwd1BPQTgwRHpBUFBBOG9EeVFQSUE4c0R4Z1BGQThRRHh3UENBOEVEd0FQREE3NER2UU84QTc4RHUKCWdPNUE3Z0R1d08yQTdVRHRBTzNBN0lE
        c1FPd0E3TURyZ090QTZ3RHJ3T3FBNmtEcUFPckE2WURwUU9rQTZjRG9nT2hBCgk2QURvd09lQTUwRG5BT2ZBNW9EbVFPWUE1c0RsZ09WQTVRRGx3T1NBNUVEa0FPVEE0
        NERqUU9NQTQ4RGlnT0pBNGdEaQoJd09HQTRVRGhBT0hBNElEZ1FPQUE0TURmZ045QTN3RGZ3TjZBM2tEZUFON0EzWURkUU4wQTNjRGNnTnhBM0FEY3dOdUEKCTIwRGJB
        TnZBMm9EYVFOb0Eyc0RaZ05sQTJRRFp3TmlBMkVEWUFOakExNERYUU5jQTE4RFdnTlpBMWdEV3dOV0ExVURWCglBTlhBMUlEVVFOUUExTURUZ05OQTB3RFR3TktBMGtE
        U0FOTEEwWURSUU5FQTBjRFFnTkJBMEFEUXdNK0F6MERQQU0vQQoJem9ET1FNNEF6c0ROZ00xQXpRRE53TXlBekVETUFNekF5NERMUU1zQXk4REtnTXBBeWdES3dNbUF5
        VURKQU1uQXlJREkKCVFNZ0F5TURIZ01kQXh3REh3TWFBeGtER0FNYkF4WURGUU1VQXhjREVnTVJBeEFERXdNT0F3MEREQU1QQXdvRENRTUlBCgl3c0RCZ01GQXdRREJ3
        TUNBd0VEQUFNQkF3SURBd01BQXdVREJnTUhBd1FEQ1FNS0F3c0RDQU1OQXc0RER3TU1BeEVERQoJZ01UQXhBREZRTVdBeGNERkFNWkF4b0RHd01ZQXgwREhnTWZBeHdE
        SVFNaUF5TURJQU1sQXlZREp3TWtBeWtES2dNckEKCXlnRExRTXVBeThETEFNeEF6SURNd013QXpVRE5nTTNBelFET1FNNkF6c0RPQU05QXo0RFB3TThBMEVEUWdOREEw
        QURSCglRTkdBMGNEUkFOSkEwb0RTd05JQTAwRFRnTlBBMHdEVVFOU0ExTURVQU5WQTFZRFZ3TlVBMWtEV2dOYkExZ0RYUU5lQQoJMThEWEFOaEEySURZd05nQTJVRFpn
        Tm5BMlFEYVFOcUEyc0RhQU50QTI0RGJ3TnNBM0VEY2dOekEzQURkUU4yQTNjRGQKCUFONUEzb0Rld040QTMwRGZnTi9BM3dEZ1FPQ0E0TURnQU9GQTRZRGh3T0VBNGtE
        aWdPTEE0Z0RqUU9PQTQ4RGpBT1JBCgk1SURrd09RQTVVRGxnT1hBNVFEbVFPYUE1c0RtQU9kQTU0RG53T2NBNkVEb2dPakE2QURwUU9tQTZjRHBBT3BBNm9EcQoJd09v
        QTYwRHJnT3ZBNndEc1FPeUE3TURzQU8xQTdZRHR3TzBBN2tEdWdPN0E3Z0R2UU8rQTc4RHZBUEJBOElEd3dQQUEKCThVRHhnUEhBOFFEeVFQS0E4c0R5QVBOQTg0RHp3
        UE1BOUVEMGdQVEE5QUQxUVBXQTljRDFBUFpBOW9EMndQWUE5MEQzCglnUGZBOXdENFFQaUErTUQ0QVBsQStZRDV3UGtBK2tENmdQckErZ0Q3UVB1QSs4RDdBUHhBL0lE
        OHdQd0EvVUQ5Z1AzQQoJL1FEK1FQNkEvc0QrQVA5QS80RC93UDhBQUVBQWdBREFBQUFCUUFHQUFjQUJBQUpBQW9BQ3dBSUFBMEFEZ0FQQUF3QUUKCVFBU0FCTUFFQUFW
        QUJZQUZ3QVVBQmtBR2dBYkFCZ0FIUUFlQUI4QUhBQWhBQ0lBSXdBZ0FDVUFKZ0FuQUNRQUtRQXFBCglDc0FLQUF0QUM0QUx3QXNBREVBTWdBekFEQUFOUUEyQURjQU5B
        QTVBRG9BT3dBNEFEMEFQZ0EvQUR3QVFRQkNBRU1BUQoJQUJGQUVZQVJ3QkVBRWtBU2dCTEFFZ0FUUUJPQUU4QVRBQlJBRklBVXdCUUFGVUFWZ0JYQUZRQVdRQmFBRnNB
        V0FCZEEKCUY0QVh3QmNBR0VBWWdCakFHQUFaUUJtQUdjQVpBQnBBR29BYXdCb0FHMEFiZ0J2QUd3QWNRQnlBSE1BY0FCMUFIWUFkCgl3QjBBSGtBZWdCN0FIZ0FmUUIr
        QUg4QWZBQ0JBSUlBZ3dDQUFJVUFoZ0NIQUlRQWlRQ0tBSXNBaUFDTkFJNEFqd0NNQQoJSkVBa2dDVEFKQUFsUUNXQUpjQWxBQ1pBSm9BbXdDWUFKMEFuZ0NmQUp3QW9R
        Q2lBS01Bb0FDbEFLWUFwd0NrQUtrQXEKCWdDckFLZ0FyUUN1QUs4QXJBQ3hBTElBc3dDd0FMVUF0Z0MzQUxRQXVRQzZBTHNBdUFDOUFMNEF2d0M4QU1FQXdnRERBCglN
        QUF4UURHQU1jQXhBREpBTW9BeXdESUFNMEF6Z0RQQU13QTBRRFNBTk1BMEFEVkFOWUExd0RVQU5rQTJnRGJBTmdBMwoJUURlQU44QTNBRGhBT0lBNHdEZ0FPVUE1Z0Ru
        QU9RQTZRRHFBT3NBNkFEdEFPNEE3d0RzQVBFQThnRHpBUEFBOVFEMkEKCVBjQTlBRDVBUG9BK3dENEFQMEEvZ0QvQVB3QkF3RCtBUDBBL0FEL0FQb0ErUUQ0QVBzQTln
        RDFBUFFBOXdEeUFQRUE4CglBRHpBTzRBN1FEc0FPOEE2Z0RwQU9nQTZ3RG1BT1VBNUFEbkFPSUE0UURnQU9NQTNnRGRBTndBM3dEYUFOa0EyQURiQQoJTllBMVFEVUFO
        Y0EwZ0RSQU5BQTB3RE9BTTBBekFEUEFNb0F5UURJQU1zQXhnREZBTVFBeHdEQ0FNRUF3QUREQUw0QXYKCVFDOEFMOEF1Z0M1QUxnQXV3QzJBTFVBdEFDM0FMSUFzUUN3
        QUxNQXJnQ3RBS3dBcndDcUFLa0FxQUNyQUtZQXBRQ2tBCglLY0FvZ0NoQUtBQW93Q2VBSjBBbkFDZkFKb0FtUUNZQUpzQWxnQ1ZBSlFBbHdDU0FKRUFrQUNUQUk0QWpR
        Q01BSThBaQoJZ0NKQUlnQWl3Q0dBSVVBaEFDSEFJSUFnUUNBQUlNQWZnQjlBSHdBZndCNkFIa0FlQUI3QUhZQWRRQjBBSGNBY2dCeEEKCUhBQWN3QnVBRzBBYkFCdkFH
        b0FhUUJvQUdzQVpnQmxBR1FBWndCaUFHRUFZQUJqQUY0QVhRQmNBRjhBV2dCWkFGZ0FXCgl3QldBRlVBVkFCWEFGSUFVUUJRQUZNQVRnQk5BRXdBVHdCS0FFa0FTQUJM
        QUVZQVJRQkVBRWNBUWdCQkFFQUFRd0ErQQoJRDBBUEFBL0FEb0FPUUE0QURzQU5nQTFBRFFBTndBeUFERUFNQUF6QUM0QUxRQXNBQzhBS2dBcEFDZ0FLd0FtQUNVQUoK
        CUFBbkFDSUFJUUFnQUNNQUhnQWRBQndBSHdBYUFCa0FHQUFiQUJZQUZRQVVBQmNBRWdBUkFCQUFFd0FPQUEwQURBQVBBCglBb0FDUUFJQUFzQUJnQUZBQVFBQndBQ0FB
        RUFBQUFEQS80RC9RUDhBLzhEK2dQNUEvZ0Qrd1AyQS9VRDlBUDNBL0lEOAoJUVB3QS9NRDdnUHRBK3dEN3dQcUEra0Q2QVByQStZRDVRUGtBK2NENGdQaEErQUQ0d1Bl
        QTkwRDNBUGZBOW9EMlFQWUEKCTlzRDFnUFZBOVFEMXdQU0E5RUQwQVBUQTg0RHpRUE1BODhEeWdQSkE4Z0R5d1BHQThVRHhBUEhBOElEd1FQQUE4TUR2CglnTzlBN3dE
        dndPNkE3a0R1QU83QTdZRHRRTzBBN2NEc2dPeEE3QURzd091QTYwRHJBT3ZBNm9EcVFPb0E2c0RwZ09sQQoJNlFEcHdPaUE2RURvQU9qQTU0RG5RT2NBNThEbWdPWkE1
        Z0Rtd09XQTVVRGxBT1hBNUlEa1FPUUE1TURqZ09OQTR3RGoKCXdPS0E0a0RpQU9MQTRZRGhRT0VBNGNEZ2dPQkE0QURnd04rQTMwRGZBTi9BM29EZVFONEEzc0RkZ04x
        QTNRRGR3TnlBCgkzRURjQU56QTI0RGJRTnNBMjhEYWdOcEEyZ0Rhd05tQTJVRFpBTm5BMklEWVFOZ0EyTURYZ05kQTF3RFh3TmFBMWtEVwoJQU5iQTFZRFZRTlVBMWNE
        VWdOUkExQURVd05PQTAwRFRBTlBBMG9EU1FOSUEwc0RSZ05GQTBRRFJ3TkNBMEVEUUFOREEKCXo0RFBRTThBejhET2dNNUF6Z0RPd00yQXpVRE5BTTNBeklETVFNd0F6
        TURMZ010QXl3REx3TXFBeWtES0FNckF5WURKCglRTWtBeWNESWdNaEF5QURJd01lQXgwREhBTWZBeG9ER1FNWUF4c0RGZ01WQXhRREZ3TVNBeEVERUFNVEF3NEREUU1N
        QQoJdzhEQ2dNSkF3Z0RDd01HQXdVREJBTUhBd0lEQVFNQUF3RURBZ01EQXdBREJRTUdBd2NEQkFNSkF3b0RDd01JQXcwREQKCWdNUEF3d0RFUU1TQXhNREVBTVZBeFlE
        RndNVUF4a0RHZ01iQXhnREhRTWVBeDhESEFNaEF5SURJd01nQXlVREpnTW5BCgl5UURLUU1xQXlzREtBTXRBeTRETHdNc0F6RURNZ016QXpBRE5RTTJBemNETkFNNUF6
        b0RPd000QXowRFBnTS9BendEUQoJUU5DQTBNRFFBTkZBMFlEUndORUEwa0RTZ05MQTBnRFRRTk9BMDhEVEFOUkExSURVd05RQTFVRFZnTlhBMVFEV1FOYUEKCTFzRFdB
        TmRBMTREWHdOY0EyRURZZ05qQTJBRFpRTm1BMmNEWkFOcEEyb0Rhd05vQTIwRGJnTnZBMndEY1FOeUEzTURjCglBTjFBM1lEZHdOMEEza0RlZ043QTNnRGZRTitBMzhE
        ZkFPQkE0SURnd09BQTRVRGhnT0hBNFFEaVFPS0E0c0RpQU9OQQoJNDREandPTUE1RURrZ09UQTVBRGxRT1dBNWNEbEFPWkE1b0Rtd09ZQTUwRG5nT2ZBNXdEb1FPaUE2
        TURvQU9sQTZZRHAKCXdPa0E2a0RxZ09yQTZnRHJRT3VBNjhEckFPeEE3SURzd093QTdVRHRnTzNBN1FEdVFPNkE3c0R1QU85QTc0RHZ3TzhBCgk4RUR3Z1BEQThBRHhR
        UEdBOGNEeEFQSkE4b0R5d1BJQTgwRHpnUFBBOHdEMFFQU0E5TUQwQVBWQTlZRDF3UFVBOWtEMgoJZ1BiQTlnRDNRUGVBOThEM0FQaEErSUQ0d1BnQStVRDVnUG5BK1FE
        NlFQcUErc0Q2QVB0QSs0RDd3UHNBL0VEOGdQekEKCS9BRDlRUDJBL2NEOUFQNUEvb0Qrd1A0QS8wRC9nUC9BL3dBQVFBQ0FBTUFBQUFGQUFZQUJ3QUVBQWtBQ2dBTEFB
        Z0FECglRQU9BQThBREFBUkFCSUFFd0FRQUJVQUZnQVhBQlFBR1FBYUFCc0FHQUFkQUI0QUh3QWNBQ0VBSWdBakFDQUFKUUFtQQoJQ2NBSkFBcEFDb0FLd0FvQUMwQUxn
        QXZBQ3dBTVFBeUFETUFNQUExQURZQU53QTBBRGtBT2dBN0FEZ0FQUUErQUQ4QVAKCUFCQkFFSUFRd0JBQUVVQVJnQkhBRVFBU1FCS0FFc0FTQUJOQUU0QVR3Qk1BRkVB
        VWdCVEFGQUFWUUJXQUZjQVZBQlpBCglGb0FXd0JZQUYwQVhnQmZBRndBWVFCaUFHTUFZQUJsQUdZQVp3QmtBR2tBYWdCckFHZ0FiUUJ1QUc4QWJBQnhBSElBYwoJd0J3
        QUhVQWRnQjNBSFFBZVFCNkFIc0FlQUI5QUg0QWZ3QjhBSUVBZ2dDREFJQUFoUUNHQUljQWhBQ0pBSW9BaXdDSUEKCUkwQWpnQ1BBSXdBa1FDU0FKTUFrQUNWQUpZQWx3
        Q1VBSmtBbWdDYkFKZ0FuUUNlQUo4QW5BQ2hBS0lBb3dDZ0FLVUFwCglnQ25BS1FBcVFDcUFLc0FxQUN0QUs0QXJ3Q3NBTEVBc2dDekFMQUF0UUMyQUxjQXRBQzVBTG9B
        dXdDNEFMMEF2Z0MvQQoJTHdBd1FEQ0FNTUF3QURGQU1ZQXh3REVBTWtBeWdETEFNZ0F6UURPQU04QXpBRFJBTklBMHdEUUFOVUExZ0RYQU5RQTIKCVFEYUFOc0EyQURk
        QU40QTN3RGNBT0VBNGdEakFPQUE1UURtQU9jQTVBRHBBT29BNndEb0FPMEE3Z0R2QU93QThRRHlBCglQTUE4QUQxQVBZQTl3RDBBUGtBK2dEN0FQZ0EvUUQrQVA4QS9B
        RURBUDRBL1FEOEFQOEErZ0Q1QVBnQSt3RDJBUFVBOQoJQUQzQVBJQThRRHdBUE1BN2dEdEFPd0E3d0RxQU9rQTZBRHJBT1lBNVFEa0FPY0E0Z0RoQU9BQTR3RGVBTjBB
        M0FEZkEKCU5vQTJRRFlBTnNBMWdEVkFOUUExd0RTQU5FQTBBRFRBTTRBelFETUFNOEF5Z0RKQU1nQXl3REdBTVVBeEFESEFNSUF3CglRREFBTU1BdmdDOUFMd0F2d0M2
        QUxrQXVBQzdBTFlBdFFDMEFMY0FzZ0N4QUxBQXN3Q3VBSzBBckFDdkFLb0FxUUNvQQoJS3NBcGdDbEFLUUFwd0NpQUtFQW9BQ2pBSjRBblFDY0FKOEFtZ0NaQUpnQW13
        Q1dBSlVBbEFDWEFKSUFrUUNRQUpNQWoKCWdDTkFJd0Fqd0NLQUlrQWlBQ0xBSVlBaFFDRUFJY0FnZ0NCQUlBQWd3QitBSDBBZkFCL0FIb0FlUUI0QUhzQWRnQjFBCglI
        UUFkd0J5QUhFQWNBQnpBRzRBYlFCc0FHOEFhZ0JwQUdnQWF3Qm1BR1VBWkFCbkFHSUFZUUJnQUdNQVhnQmRBRndBWAoJd0JhQUZrQVdBQmJBRllBVlFCVUFGY0FVZ0JS
        QUZBQVV3Qk9BRTBBVEFCUEFFb0FTUUJJQUVzQVJnQkZBRVFBUndCQ0EKCUVFQVFBQkRBRDRBUFFBOEFEOEFPZ0E1QURnQU93QTJBRFVBTkFBM0FESUFNUUF3QURNQUxn
        QXRBQ3dBTHdBcUFDa0FLCglBQXJBQ1lBSlFBa0FDY0FJZ0FoQUNBQUl3QWVBQjBBSEFBZkFCb0FHUUFZQUJzQUZnQVZBQlFBRndBU0FCRUFFQUFUQQoJQTRBRFFBTUFB
        OEFDZ0FKQUFnQUN3QUdBQVVBQkFBSEFBSUFBUUFBQUFNRC9nUDlBL3dEL3dQNkEva0QrQVA3QS9ZRDkKCVFQMEEvY0Q4Z1B4QS9BRDh3UHVBKzBEN0FQdkErb0Q2UVBv
        QStzRDVnUGxBK1FENXdQaUErRUQ0QVBqQTk0RDNRUGNBCgk5OEQyZ1BaQTlnRDJ3UFdBOVVEMUFQWEE5SUQwUVBRQTlNRHpnUE5BOHdEendQS0E4a0R5QVBMQThZRHhR
        UEVBOGNEdwoJZ1BCQThBRHd3TytBNzBEdkFPL0E3b0R1UU80QTdzRHRnTzFBN1FEdHdPeUE3RURzQU96QTY0RHJRT3NBNjhEcWdPcEEKCTZnRHF3T21BNlVEcEFPbkE2
        SURvUU9nQTZNRG5nT2RBNXdEbndPYUE1a0RtQU9iQTVZRGxRT1VBNWNEa2dPUkE1QURrCgl3T09BNDBEakFPUEE0b0RpUU9JQTRzRGhnT0ZBNFFEaHdPQ0E0RURnQU9E
        QTM0RGZRTjhBMzhEZWdONUEzZ0Rld04yQQoJM1VEZEFOM0EzSURjUU53QTNNRGJnTnRBMndEYndOcUEya0RhQU5yQTJZRFpRTmtBMmNEWWdOaEEyQURZd05lQTEwRFgK
        CUFOZkExb0RXUU5ZQTFzRFZnTlZBMVFEVndOU0ExRURVQU5UQTA0RFRRTk1BMDhEU2dOSkEwZ0RTd05HQTBVRFJBTkhBCgkwSURRUU5BQTBNRFBnTTlBendEUHdNNkF6
        a0RPQU03QXpZRE5RTTBBemNETWdNeEF6QURNd011QXkwRExBTXZBeW9ESwoJUU1vQXlzREpnTWxBeVFESndNaUF5RURJQU1qQXg0REhRTWNBeDhER2dNWkF4Z0RHd01X
        QXhVREZBTVhBeElERVFNUUEKCXhNRERnTU5Bd3dERHdNS0F3a0RDQU1MQXdZREJRTUVBd2NEQWdNQkF3QURBUU1DQXdNREFBTUZBd1lEQndNRUF3a0RDCglnTUxBd2dE
        RFFNT0F3OEREQU1SQXhJREV3TVFBeFVERmdNWEF4UURHUU1hQXhzREdBTWRBeDRESHdNY0F5RURJZ01qQQoJeUFESlFNbUF5Y0RKQU1wQXlvREt3TW9BeTBETGdNdkF5
        d0RNUU15QXpNRE1BTTFBellETndNMEF6a0RPZ003QXpnRFAKCVFNK0F6OERQQU5CQTBJRFF3TkFBMFVEUmdOSEEwUURTUU5LQTBzRFNBTk5BMDREVHdOTUExRURVZ05U
        QTFBRFZRTldBCgkxY0RWQU5aQTFvRFd3TllBMTBEWGdOZkExd0RZUU5pQTJNRFlBTmxBMllEWndOa0Eya0RhZ05yQTJnRGJRTnVBMjhEYgoJQU54QTNJRGN3TndBM1VE
        ZGdOM0EzUURlUU42QTNzRGVBTjlBMzREZndOOEE0RURnZ09EQTRBRGhRT0dBNGNEaEFPSkEKCTRvRGl3T0lBNDBEamdPUEE0d0RrUU9TQTVNRGtBT1ZBNVlEbHdPVUE1
        a0RtZ09iQTVnRG5RT2VBNThEbkFPaEE2SURvCgl3T2dBNlVEcGdPbkE2UURxUU9xQTZzRHFBT3RBNjREcndPc0E3RURzZ096QTdBRHRRTzJBN2NEdEFPNUE3b0R1d080
        QQoJNzBEdmdPL0E3d0R3UVBDQThNRHdBUEZBOFlEeHdQRUE4a0R5Z1BMQThnRHpRUE9BODhEekFQUkE5SUQwd1BRQTlVRDEKCWdQWEE5UUQyUVBhQTlzRDJBUGRBOTRE
        M3dQY0ErRUQ0Z1BqQStBRDVRUG1BK2NENUFQcEErb0Q2d1BvQSswRDdnUHZBCgkrd0Q4UVB5QS9NRDhBUDFBL1lEOXdQMEEva0QrZ1A3QS9nRC9RUCtBLzhEL0FBQkFB
        SUFBd0FBQUFVQUJnQUhBQVFBQwoJUUFLQUFzQUNBQU5BQTRBRHdBTUFCRUFFZ0FUQUJBQUZRQVdBQmNBRkFBWkFCb0FHd0FZQUIwQUhnQWZBQndBSVFBaUEKCUNNQUlB
        QWxBQ1lBSndBa0FDa0FLZ0FyQUNnQUxRQXVBQzhBTEFBeEFESUFNd0F3QURVQU5nQTNBRFFBT1FBNkFEc0FPCglBQTlBRDRBUHdBOEFFRUFRZ0JEQUVBQVJRQkdBRWNB
        UkFCSkFFb0FTd0JJQUUwQVRnQlBBRXdBVVFCU0FGTUFVQUJWQQoJRllBVndCVUFGa0FXZ0JiQUZnQVhRQmVBRjhBWEFCaEFHSUFZd0JnQUdVQVpnQm5BR1FBYVFCcUFH
        c0FhQUJ0QUc0QWIKCXdCc0FIRUFjZ0J6QUhBQWRRQjJBSGNBZEFCNUFIb0Fld0I0QUgwQWZnQi9BSHdBZ1FDQ0FJTUFnQUNGQUlZQWh3Q0VBCglJa0FpZ0NMQUlnQWpR
        Q09BSThBakFDUkFKSUFrd0NRQUpVQWxnQ1hBSlFBbVFDYUFKc0FtQUNkQUo0QW53Q2NBS0VBbwoJZ0NqQUtBQXBRQ21BS2NBcEFDcEFLb0Fxd0NvQUswQXJnQ3ZBS3dB
        c1FDeUFMTUFzQUMxQUxZQXR3QzBBTGtBdWdDN0EKCUxnQXZRQytBTDhBdkFEQkFNSUF3d0RBQU1VQXhnREhBTVFBeVFES0FNc0F5QUROQU00QXp3RE1BTkVBMGdEVEFO
        QUExCglRRFdBTmNBMUFEWkFOb0Eyd0RZQU4wQTNnRGZBTndBNFFEaUFPTUE0QURsQU9ZQTV3RGtBT2tBNmdEckFPZ0E3UUR1QQoJTzhBN0FEeEFQSUE4d0R3QVBVQTln
        RDNBUFFBK1FENkFQc0ErQUQ5QVA0QS93RDhBUU1BL2dEOUFQd0Evd0Q2QVBrQSsKCUFEN0FQWUE5UUQwQVBjQThnRHhBUEFBOHdEdUFPMEE3QUR2QU9vQTZRRG9BT3NB
        NWdEbEFPUUE1d0RpQU9FQTRBRGpBCglONEEzUURjQU44QTJnRFpBTmdBMndEV0FOVUExQURYQU5JQTBRRFFBTk1BemdETkFNd0F6d0RLQU1rQXlBRExBTVlBeAoJUURF
        QU1jQXdnREJBTUFBd3dDK0FMMEF2QUMvQUxvQXVRQzRBTHNBdGdDMUFMUUF0d0N5QUxFQXNBQ3pBSzRBclFDc0EKCUs4QXFnQ3BBS2dBcXdDbUFLVUFwQUNuQUtJQW9R
        Q2dBS01BbmdDZEFKd0Fud0NhQUprQW1BQ2JBSllBbFFDVUFKY0FrCglnQ1JBSkFBa3dDT0FJMEFqQUNQQUlvQWlRQ0lBSXNBaGdDRkFJUUFod0NDQUlFQWdBQ0RBSDRB
        ZlFCOEFIOEFlZ0I1QQoJSGdBZXdCMkFIVUFkQUIzQUhJQWNRQndBSE1BYmdCdEFHd0Fid0JxQUdrQWFBQnJBR1lBWlFCa0FHY0FZZ0JoQUdBQVkKCXdCZUFGMEFYQUJm
        QUZvQVdRQllBRnNBVmdCVkFGUUFWd0JTQUZFQVVBQlRBRTRBVFFCTUFFOEFTZ0JKQUVnQVN3QkdBCglFVUFSQUJIQUVJQVFRQkFBRU1BUGdBOUFEd0FQd0E2QURrQU9B
        QTdBRFlBTlFBMEFEY0FNZ0F4QURBQU13QXVBQzBBTAoJQUF2QUNvQUtRQW9BQ3NBSmdBbEFDUUFKd0FpQUNFQUlBQWpBQjRBSFFBY0FCOEFHZ0FaQUJnQUd3QVdBQlVB
        RkFBWEEKCUJJQUVRQVFBQk1BRGdBTkFBd0FEd0FLQUFrQUNBQUxBQVlBQlFBRUFBY0FBZ0FCQUFBQUF3UCtBLzBEL0FQL0Evb0QrCglRUDRBL3NEOWdQMUEvUUQ5d1B5
        QS9FRDhBUHpBKzREN1FQc0ErOEQ2Z1BwQStnRDZ3UG1BK1VENUFQbkErSUQ0UVBnQQoJK01EM2dQZEE5d0Qzd1BhQTlrRDJBUGJBOVlEMVFQVUE5Y0QwZ1BSQTlBRDB3
        UE9BODBEekFQUEE4b0R5UVBJQThzRHgKCWdQRkE4UUR4d1BDQThFRHdBUERBNzREdlFPOEE3OER1Z081QTdnRHV3TzJBN1VEdEFPM0E3SURzUU93QTdNRHJnT3RBCgk2
        d0Ryd09xQTZrRHFBT3JBNllEcFFPa0E2Y0RvZ09oQTZBRG93T2VBNTBEbkFPZkE1b0RtUU9ZQTVzRGxnT1ZBNVFEbAoJd09TQTVFRGtBT1RBNDREalFPTUE0OERpZ09K
        QTRnRGl3T0dBNFVEaEFPSEE0SURnUU9BQTRNRGZnTjlBM3dEZndONkEKCTNrRGVBTjdBM1lEZFFOMEEzY0RjZ054QTNBRGN3TnVBMjBEYkFOdkEyb0RhUU5vQTJzRFpn
        TmxBMlFEWndOaUEyRURZCglBTmpBMTREWFFOY0ExOERXZ05aQTFnRFd3TldBMVVEVkFOWEExSURVUU5RQTFNRFRnTk5BMHdEVHdOS0Ewa0RTQU5MQQoJMFlEUlFORUEw
        Y0RRZ05CQTBBRFF3TStBejBEUEFNL0F6b0RPUU00QXpzRE5nTTFBelFETndNeUF6RURNQU16QXk0REwKCVFNc0F5OERLZ01wQXlnREt3TW1BeVVESkFNbkF5SURJUU1n
        QXlNREhnTWRBeHdESHdNYUF4a0RHQU1iQXhZREZRTVVBCgl4Y0RFZ01SQXhBREV3TU9BdzBEREFNUEF3b0RDUU1JQXdzREJnTUZBd1FEQndNQ0F3RURBQU1CQXdJREF3
        TUFBd1VEQgoJZ01IQXdRRENRTUtBd3NEQ0FNTkF3NEREd01NQXhFREVnTVRBeEFERlFNV0F4Y0RGQU1aQXhvREd3TVlBeDBESGdNZkEKCXh3RElRTWlBeU1ESUFNbEF5
        WURKd01rQXlrREtnTXJBeWdETFFNdUF5OERMQU14QXpJRE13TXdBelVETmdNM0F6UURPCglRTTZBenNET0FNOUF6NERQd004QTBFRFFnTkRBMEFEUlFOR0EwY0RSQU5K
        QTBvRFN3TklBMDBEVGdOUEEwd0RVUU5TQQoJMU1EVUFOVkExWURWd05VQTFrRFdnTmJBMWdEWFFOZUExOERYQU5oQTJJRFl3TmdBMlVEWmdObkEyUURhUU5xQTJzRGEK
        CUFOdEEyNERid05zQTNFRGNnTnpBM0FEZFFOMkEzY0RkQU41QTNvRGV3TjRBMzBEZmdOL0Ezd0RnUU9DQTRNRGdBT0ZBCgk0WURod09FQTRrRGlnT0xBNGdEalFPT0E0
        OERqQU9SQTVJRGt3T1FBNVVEbGdPWEE1UURtUU9hQTVzRG1BT2RBNTREbgoJd09jQTZFRG9nT2pBNkFEcFFPbUE2Y0RwQU9wQTZvRHF3T29BNjBEcmdPdkE2d0RzUU95
        QTdNRHNBTzFBN1lEdHdPMEEKCTdrRHVnTzdBN2dEdlFPK0E3OER2QVBCQThJRHd3UEFBOFVEeGdQSEE4UUR5UVBLQThzRHlBUE5BODREendQTUE5RUQwCglnUFRBOUFE
        MVFQV0E5Y0QxQVBaQTlvRDJ3UFlBOTBEM2dQZkE5d0Q0UVBpQStNRDRBUGxBK1lENXdQa0Era0Q2Z1ByQQoJK2dEN1FQdUErOEQ3QVB4QS9JRDh3UHdBL1VEOWdQM0Ev
        UUQrUVA2QS9zRCtBUDlBLzREL3dQOEFBRUFBZ0FEQUFBQUIKCVFBR0FBY0FCQUFKQUFvQUN3QUlBQTBBRGdBUEFBd0FFUUFTQUJNQUVBQVZBQllBRndBVUFCa0FHZ0Fi
        QUJnQUhRQWVBCglCOEFIQUFoQUNJQUl3QWdBQ1VBSmdBbkFDUUFLUUFxQUNzQUtBQXRBQzRBTHdBc0FERUFNZ0F6QURBQU5RQTJBRGNBTgoJQUE1QURvQU93QTRBRDBB
        UGdBL0FEd0FRUUJDQUVNQVFBQkZBRVlBUndCRUFFa0FTZ0JMQUVnQVRRQk9BRThBVEFCUkEKCUZJQVV3QlFBRlVBVmdCWEFGUUFXUUJhQUZzQVdBQmRBRjRBWHdCY0FH
        RUFZZ0JqQUdBQVpRQm1BR2NBWkFCcEFHb0FhCgl3Qm9BRzBBYmdCdkFHd0FjUUJ5QUhNQWNBQjFBSFlBZHdCMEFIa0FlZ0I3QUhnQWZRQitBSDhBZkFDQkFJSUFnd0NB
        QQoJSVVBaGdDSEFJUUFpUUNLQUlzQWlBQ05BSTRBandDTUFKRUFrZ0NUQUpBQWxRQ1dBSmNBbEFDWkFKb0Ftd0NZQUowQW4KCWdDZkFKd0FvUUNpQUtNQW9BQ2xBS1lB
        cHdDa0FLa0FxZ0NyQUtnQXJRQ3VBSzhBckFDeEFMSUFzd0N3QUxVQXRnQzNBCglMUUF1UUM2QUxzQXVBQzlBTDRBdndDOEFNRUF3Z0REQU1BQXhRREdBTWNBeEFESkFN
        b0F5d0RJQU0wQXpnRFBBTXdBMAoJUURTQU5NQTBBRFZBTllBMXdEVUFOa0EyZ0RiQU5nQTNRRGVBTjhBM0FEaEFPSUE0d0RnQU9VQTVnRG5BT1FBNlFEcUEKCU9zQTZB
        RHRBTzRBN3dEc0FQRUE4Z0R6QVBBQTlRRDJBUGNBOUFENUFQb0Erd0Q0QVAwQS9nRC9BUHdCQXdEK0FQMEEvCglBRC9BUG9BK1FENEFQc0E5Z0QxQVBRQTl3RHlBUEVB
        OEFEekFPNEE3UURzQU84QTZnRHBBT2dBNndEbUFPVUE1QURuQQoJT0lBNFFEZ0FPTUEzZ0RkQU53QTN3RGFBTmtBMkFEYkFOWUExUURVQU5jQTBnRFJBTkFBMHdET0FN
        MEF6QURQQU1vQXkKCVFESUFNc0F4Z0RGQU1RQXh3RENBTUVBd0FEREFMNEF2UUM4QUw4QXVnQzVBTGdBdXdDMkFMVUF0QUMzQUxJQXNRQ3dBCglMTUFyZ0N0QUt3QXJ3
        Q3FBS2tBcUFDckFLWUFwUUNrQUtjQW9nQ2hBS0FBb3dDZUFKMEFuQUNmQUpvQW1RQ1lBSnNBbAoJZ0NWQUpRQWx3Q1NBSkVBa0FDVEFJNEFqUUNNQUk4QWlnQ0pBSWdB
        aXdDR0FJVUFoQUNIQUlJQWdRQ0FBSU1BZmdCOUEKCUh3QWZ3QjZBSGtBZUFCN0FIWUFkUUIwQUhjQWNnQnhBSEFBY3dCdUFHMEFiQUJ2QUdvQWFRQm9BR3NBWmdCbEFH
        UUFaCgl3QmlBR0VBWUFCakFGNEFYUUJjQUY4QVdnQlpBRmdBV3dCV0FGVUFWQUJYQUZJQVVRQlFBRk1BVGdCTkFFd0FUd0JLQQoJRWtBU0FCTEFFWUFSUUJFQUVjQVFn
        QkJBRUFBUXdBK0FEMEFQQUEvQURvQU9RQTRBRHNBTmdBMUFEUUFOd0F5QURFQU0KCUFBekFDNEFMUUFzQUM4QUtnQXBBQ2dBS3dBbUFDVUFKQUFuQUNJQUlRQWdBQ01B
        SGdBZEFCd0FId0FhQUJrQUdBQWJBCglCWUFGUUFVQUJjQUVnQVJBQkFBRXdBT0FBMEFEQUFQQUFvQUNRQUlBQXNBQmdBRkFBUUFCd0FDQUFFQUFBQURBLzRELwoJUVA4
        QS84RCtnUDVBL2dEK3dQMkEvVUQ5QVAzQS9JRDhRUHdBL01EN2dQdEErd0Q3d1BxQStrRDZBUHJBK1lENVFQa0EKCStjRDRnUGhBK0FENHdQZUE5MEQzQVBmQTlvRDJR
        UFlBOXNEMWdQVkE5UUQxd1BTQTlFRDBBUFRBODREelFQTUE4OER5CglnUEpBOGdEeXdQR0E4VUR4QVBIQThJRHdRUEFBOE1EdmdPOUE3d0R2d082QTdrRHVBTzdBN1lE
        dFFPMEE3Y0RzZ094QQoJN0FEc3dPdUE2MERyQU92QTZvRHFRT29BNnNEcGdPbEE2UURwd09pQTZFRG9BT2pBNTREblFPY0E1OERtZ09aQTVnRG0KCXdPV0E1VURsQU9Y
        QTVJRGtRT1FBNU1EamdPTkE0d0Rqd09LQTRrRGlBT0xBNFlEaFFPRUE0Y0RnZ09CQTRBRGd3TitBCgkzMERmQU4vQTNvRGVRTjRBM3NEZGdOMUEzUURkd055QTNFRGNB
        TnpBMjREYlFOc0EyOERhZ05wQTJnRGF3Tm1BMlVEWgoJQU5uQTJJRFlRTmdBMk1EWGdOZEExd0RYd05hQTFrRFdBTmJBMVlEVlFOVUExY0RVZ05SQTFBRFV3Tk9BMDBE
        VEFOUEEKCTBvRFNRTklBMHNEUmdORkEwUURSd05DQTBFRFFBTkRBejREUFFNOEF6OERPZ001QXpnRE93TTJBelVETkFNM0F6SURNCglRTXdBek1ETGdNdEF5d0RMd01x
        QXlrREtBTXJBeVlESlFNa0F5Y0RJZ01oQXlBREl3TWVBeDBESEFNZkF4b0RHUU1ZQQoJeHNERmdNVkF4UURGd01TQXhFREVBTVRBdzRERFFNTUF3OERDZ01KQXdnREN3
        TUdBd1VEQkFNSEF3SURBUU1BQXdFREEKCWdNREF3QURCUU1HQXdjREJBTUpBd29EQ3dNSUF3MEREZ01QQXd3REVRTVNBeE1ERUFNVkF4WURGd01VQXhrREdnTWJBCgl4
        Z0RIUU1lQXg4REhBTWhBeUlESXdNZ0F5VURKZ01uQXlRREtRTXFBeXNES0FNdEF5NERMd01zQXpFRE1nTXpBekFETgoJUU0yQXpjRE5BTTVBem9ET3dNNEF6MERQZ00v
        QXp3RFFRTkNBME1EUUFORkEwWURSd05FQTBrRFNnTkxBMGdEVFFOT0EKCTA4RFRBTlJBMUlEVXdOUUExVURWZ05YQTFRRFdRTmFBMXNEV0FOZEExNERYd05jQTJFRFln
        TmpBMkFEWlFObUEyY0RaCglBTnBBMm9EYXdOb0EyMERiZ052QTJ3RGNRTnlBM01EY0FOMUEzWURkd04wQTNrRGVnTjdBM2dEZlFOK0EzOERmQU9CQQoJNElEZ3dPQUE0
        VURoZ09IQTRRRGlRT0tBNHNEaUFPTkE0NERqd09NQTVFRGtnT1RBNUFEbFFPV0E1Y0RsQU9aQTVvRG0KCXdPWUE1MERuZ09mQTV3RG9RT2lBNk1Eb0FPbEE2WURwd09r
        QTZrRHFnT3JBNmdEclFPdUE2OERyQU94QTdJRHN3T3dBCgk3VUR0Z08zQTdRRHVRTzZBN3NEdUFPOUE3NER2d084QThFRHdnUERBOEFEeFFQR0E4Y0R4QVBKQThvRHl3
        UElBODBEegoJZ1BQQTh3RDBRUFNBOU1EMEFQVkE5WUQxd1BVQTlrRDJnUGJBOWdEM1FQZUE5OEQzQVBoQStJRDR3UGdBK1VENWdQbkEKCStRRDZRUHFBK3NENkFQdEEr
        NEQ3d1BzQS9FRDhnUHpBL0FEOVFQMkEvY0Q5QVA1QS9vRCt3UDRBLzBEL2dQL0Evd0FBCglRQUNBQU1BQUFBRkFBWUFCd0FFQUFrQUNnQUxBQWdBRFFBT0FBOEFEQUFS
        QUJJQUV3QVFBQlVBRmdBWEFCUUFHUUFhQQoJQnNBR0FBZEFCNEFId0FjQUNFQUlnQWpBQ0FBSlFBbUFDY0FKQUFwQUNvQUt3QW9BQzBBTGdBdkFDd0FNUUF5QURNQU0K
        CUFBMUFEWUFOd0EwQURrQU9nQTdBRGdBUFFBK0FEOEFQQUJCQUVJQVF3QkFBRVVBUmdCSEFFUUFTUUJLQUVzQVNBQk5BCglFNEFUd0JNQUZFQVVnQlRBRkFBVlFCV0FG
        Y0FWQUJaQUZvQVd3QllBRjBBWGdCZkFGd0FZUUJpQUdNQVlBQmxBR1lBWgoJd0JrQUdrQWFnQnJBR2dBYlFCdUFHOEFiQUJ4QUhJQWN3QndBSFVBZGdCM0FIUUFlUUI2
        QUhzQWVBQjlBSDRBZndCOEEKCUlFQWdnQ0RBSUFBaFFDR0FJY0FoQUNKQUlvQWl3Q0lBSTBBamdDUEFJd0FrUUNTQUpNQWtBQ1ZBSllBbHdDVUFKa0FtCglnQ2JBSmdB
        blFDZUFKOEFuQUNoQUtJQW93Q2dBS1VBcGdDbkFLUUFxUUNxQUtzQXFBQ3RBSzRBcndDc0FMRUFzZ0N6QQoJTEFBdFFDMkFMY0F0QUM1QUxvQXV3QzRBTDBBdmdDL0FM
        d0F3UURDQU1NQXdBREZBTVlBeHdERUFNa0F5Z0RMQU1nQXoKCVFET0FNOEF6QURSQU5JQTB3RFFBTlVBMWdEWEFOUUEyUURhQU5zQTJBRGRBTjRBM3dEY0FPRUE0Z0Rq
        QU9BQTVRRG1BCglPY0E1QURwQU9vQTZ3RG9BTzBBN2dEdkFPd0E4UUR5QVBNQThBRDFBUFlBOXdEMEFQa0ErZ0Q3QVBnQS9RRCtBUDhBLwoJQUVEQVA0QS9RRDhBUDhB
        K2dENUFQZ0Erd0QyQVBVQTlBRDNBUElBOFFEd0FQTUE3Z0R0QU93QTd3RHFBT2tBNkFEckEKCU9ZQTVRRGtBT2NBNGdEaEFPQUE0d0RlQU4wQTNBRGZBTm9BMlFEWUFO
        c0ExZ0RWQU5RQTF3RFNBTkVBMEFEVEFNNEF6CglRRE1BTThBeWdESkFNZ0F5d0RHQU1VQXhBREhBTUlBd1FEQUFNTUF2Z0M5QUx3QXZ3QzZBTGtBdUFDN0FMWUF0UUMw
        QQoJTGNBc2dDeEFMQUFzd0N1QUswQXJBQ3ZBS29BcVFDb0FLc0FwZ0NsQUtRQXB3Q2lBS0VBb0FDakFKNEFuUUNjQUo4QW0KCWdDWkFKZ0Ftd0NXQUpVQWxBQ1hBSklB
        a1FDUUFKTUFqZ0NOQUl3QWp3Q0tBSWtBaUFDTEFJWUFoUUNFQUljQWdnQ0JBCglJQUFnd0IrQUgwQWZBQi9BSG9BZVFCNEFIc0FkZ0IxQUhRQWR3QnlBSEVBY0FCekFH
        NEFiUUJzQUc4QWFnQnBBR2dBYQoJd0JtQUdVQVpBQm5BR0lBWVFCZ0FHTUFYZ0JkQUZ3QVh3QmFBRmtBV0FCYkFGWUFWUUJVQUZjQVVnQlJBRkFBVXdCT0EKCUUwQVRB
        QlBBRW9BU1FCSUFFc0FSZ0JGQUVRQVJ3QkNBRUVBUUFCREFENEFQUUE4QUQ4QU9nQTVBRGdBT3dBMkFEVUFOCglBQTNBRElBTVFBd0FETUFMZ0F0QUN3QUx3QXFBQ2tB
        S0FBckFDWUFKUUFrQUNjQUlnQWhBQ0FBSXdBZUFCMEFIQUFmQQoJQm9BR1FBWUFCc0FGZ0FWQUJRQUZ3QVNBQkVBRUFBVEFBNEFEUUFNQUE4QUNnQUpBQWdBQ3dBR0FB
        VUFCQUFIQUFJQUEKCVFBQUFBTUQvZ1A5QS93RC93UDZBL2tEK0FQN0EvWUQ5UVAwQS9jRDhnUHhBL0FEOHdQdUErMEQ3QVB2QStvRDZRUG9BCgkrc0Q1Z1BsQStRRDV3
        UGlBK0VENEFQakE5NEQzUVBjQTk4RDJnUFpBOWdEMndQV0E5VUQxQVBYQTlJRDBRUFFBOU1EegoJZ1BOQTh3RHp3UEtBOGtEeUFQTEE4WUR4UVBFQThjRHdnUEJBOEFE
        d3dPK0E3MER2QU8vQTdvRHVRTzRBN3NEdGdPMUEKCTdRRHR3T3lBN0VEc0FPekE2NERyUU9zQTY4RHFnT3BBNmdEcXdPbUE2VURwQU9uQTZJRG9RT2dBNk1EbmdPZEE1
        d0RuCgl3T2FBNWtEbUFPYkE1WURsUU9VQTVjRGtnT1JBNUFEa3dPT0E0MERqQU9QQTRvRGlRT0lBNHNEaGdPRkE0UURod09DQQoJNEVEZ0FPREEzNERmUU44QTM4RGVn
        TjVBM2dEZXdOMkEzVURkQU4zQTNJRGNRTndBM01EYmdOdEEyd0Rid05xQTJrRGEKCUFOckEyWURaUU5rQTJjRFlnTmhBMkFEWXdOZUExMERYQU5mQTFvRFdRTllBMXNE
        VmdOVkExUURWd05TQTFFRFVBTlRBCgkwNERUUU5NQTA4RFNnTkpBMGdEU3dOR0EwVURSQU5IQTBJRFFRTkFBME1EUGdNOUF6d0RQd002QXprRE9BTTdBellETgoJUU0w
        QXpjRE1nTXhBekFETXdNdUF5MERMQU12QXlvREtRTW9BeXNESmdNbEF5UURKd01pQXlFRElBTWpBeDRESFFNY0EKCXg4REdnTVpBeGdER3dNV0F4VURGQU1YQXhJREVR
        TVFBeE1ERGdNTkF3d0REd01LQXdrRENBTUxBd1lEQlFNRUF3Y0RBCglnTUJBd0FEQVFNQ0F3TURBQU1GQXdZREJ3TUVBd2tEQ2dNTEF3Z0REUU1PQXc4RERBTVJBeElE
        RXdNUUF4VURGZ01YQQoJeFFER1FNYUF4c0RHQU1kQXg0REh3TWNBeUVESWdNakF5QURKUU1tQXljREpBTXBBeW9ES3dNb0F5MERMZ012QXl3RE0KCVFNeUF6TURNQU0x
        QXpZRE53TTBBemtET2dNN0F6Z0RQUU0rQXo4RFBBTkJBMElEUXdOQUEwVURSZ05IQTBRRFNRTktBCgkwc0RTQU5OQTA0RFR3Tk1BMUVEVWdOVEExQURWUU5XQTFjRFZB
        TlpBMW9EV3dOWUExMERYZ05mQTF3RFlRTmlBMk1EWQoJQU5sQTJZRFp3TmtBMmtEYWdOckEyZ0RiUU51QTI4RGJBTnhBM0lEY3dOd0EzVURkZ04zQTNRRGVRTjZBM3NE
        ZUFOOUEKCTM0RGZ3TjhBNEVEZ2dPREE0QURoUU9HQTRjRGhBT0pBNG9EaXdPSUE0MERqZ09QQTR3RGtRT1NBNU1Ea0FPVkE1WURsCgl3T1VBNWtEbWdPYkE1Z0RuUU9l
        QTU4RG5BT2hBNklEb3dPZ0E2VURwZ09uQTZRRHFRT3FBNnNEcUFPdEE2NERyd09zQQoJN0VEc2dPekE3QUR0UU8yQTdjRHRBTzVBN29EdXdPNEE3MER2Z08vQTd3RHdR
        UENBOE1Ed0FQRkE4WUR4d1BFQThrRHkKCWdQTEE4Z0R6UVBPQTg4RHpBUFJBOUlEMHdQUUE5VUQxZ1BYQTlRRDJRUGFBOXNEMkFQZEE5NEQzd1BjQStFRDRnUGpBCgkr
        QUQ1UVBtQStjRDVBUHBBK29ENndQb0ErMEQ3Z1B2QSt3RDhRUHlBL01EOEFQMUEvWUQ5d1AwQS9rRCtnUDdBL2dELwoJUVArQS84RC9BQUJBQUlBQXdBQUFBVUFCZ0FI
        QUFRQUNRQUtBQXNBQ0FBTkFBNEFEd0FNQUJFQUVnQVRBQkFBRlFBV0EKCUJjQUZBQVpBQm9BR3dBWUFCMEFIZ0FmQUJ3QUlRQWlBQ01BSUFBbEFDWUFKd0FrQUNrQUtn
        QXJBQ2dBTFFBdUFDOEFMCglBQXhBRElBTXdBd0FEVUFOZ0EzQURRQU9RQTZBRHNBT0FBOUFENEFQd0E4QUVFQVFnQkRBRUFBUlFCR0FFY0FSQUJKQQoJRW9BU3dCSUFF
        MEFUZ0JQQUV3QVVRQlNBRk1BVUFCVkFGWUFWd0JVQUZrQVdnQmJBRmdBWFFCZUFGOEFYQUJoQUdJQVkKCXdCZ0FHVUFaZ0JuQUdRQWFRQnFBR3NBYUFCdEFHNEFid0Jz
        QUhFQWNnQnpBSEFBZFFCMkFIY0FkQUI1QUhvQWV3QjRBCglIMEFmZ0IvQUh3QWdRQ0NBSU1BZ0FDRkFJWUFod0NFQUlrQWlnQ0xBSWdBalFDT0FJOEFqQUNSQUpJQWt3
        Q1FBSlVBbAoJZ0NYQUpRQW1RQ2FBSnNBbUFDZEFKNEFud0NjQUtFQW9nQ2pBS0FBcFFDbUFLY0FwQUNwQUtvQXF3Q29BSzBBcmdDdkEKCUt3QXNRQ3lBTE1Bc0FDMUFM
        WUF0d0MwQUxrQXVnQzdBTGdBdlFDK0FMOEF2QURCQU1JQXd3REFBTVVBeGdESEFNUUF5CglRREtBTXNBeUFETkFNNEF6d0RNQU5FQTBnRFRBTkFBMVFEV0FOY0ExQURa
        QU5vQTJ3RFlBTjBBM2dEZkFOd0E0UURpQQoJT01BNEFEbEFPWUE1d0RrQU9rQTZnRHJBT2dBN1FEdUFPOEE3QUR4QVBJQTh3RHdBUFVBOWdEM0FQUUErUUQ2QVBzQSsK
        CUFEOUFQNEEvd0Q4QVFNQS9nRDlBUHdBL3dENkFQa0ErQUQ3QVBZQTlRRDBBUGNBOGdEeEFQQUE4d0R1QU8wQTdBRHZBCglPb0E2UURvQU9zQTVnRGxBT1FBNXdEaUFP
        RUE0QURqQU40QTNRRGNBTjhBMmdEWkFOZ0Eyd0RXQU5VQTFBRFhBTklBMAoJUURRQU5NQXpnRE5BTXdBendES0FNa0F5QURMQU1ZQXhRREVBTWNBd2dEQkFNQUF3d0Mr
        QUwwQXZBQy9BTG9BdVFDNEEKCUxzQXRnQzFBTFFBdHdDeUFMRUFzQUN6QUs0QXJRQ3NBSzhBcWdDcEFLZ0Fxd0NtQUtVQXBBQ25BS0lBb1FDZ0FLTUFuCglnQ2RBSndB
        bndDYUFKa0FtQUNiQUpZQWxRQ1VBSmNBa2dDUkFKQUFrd0NPQUkwQWpBQ1BBSW9BaVFDSUFJc0FoZ0NGQQoJSVFBaHdDQ0FJRUFnQUNEQUg0QWZRQjhBSDhBZWdCNUFI
        Z0Fld0IyQUhVQWRBQjNBSElBY1FCd0FITUFiZ0J0QUd3QWIKCXdCcUFHa0FhQUJyQUdZQVpRQmtBR2NBWWdCaEFHQUFZd0JlQUYwQVhBQmZBRm9BV1FCWUFGc0FWZ0JW
        QUZRQVZ3QlNBCglGRUFVQUJUQUU0QVRRQk1BRThBU2dCSkFFZ0FTd0JHQUVVQVJBQkhBRUlBUVFCQUFFTUFQZ0E5QUR3QVB3QTZBRGtBTwoJQUE3QURZQU5RQTBBRGNB
        TWdBeEFEQUFNd0F1QUMwQUxBQXZBQ29BS1FBb0FDc0FKZ0FsQUNRQUp3QWlBQ0VBSUFBakEKCUI0QUhRQWNBQjhBR2dBWkFCZ0FHd0FXQUJVQUZBQVhBQklBRVFBUUFC
        TUFEZ0FOQUF3QUR3QUtBQWtBQ0FBTEFBWUFCCglRQUVBQWNBQWdBQkFBQUFBd1ArQS8wRC9BUC9BL29EK1FQNEEvc0Q5Z1AxQS9RRDl3UHlBL0VEOEFQekErNEQ3UVBz
        QQoJKzhENmdQcEErZ0Q2d1BtQStVRDVBUG5BK0lENFFQZ0ErTUQzZ1BkQTl3RDN3UGFBOWtEMkFQYkE5WUQxUVBVQTljRDAKCWdQUkE5QUQwd1BPQTgwRHpBUFBBOG9E
        eVFQSUE4c0R4Z1BGQThRRHh3UENBOEVEd0FQREE3NER2UU84QTc4RHVnTzVBCgk3Z0R1d08yQTdVRHRBTzNBN0lEc1FPd0E3TURyZ090QTZ3RHJ3T3FBNmtEcUFPckE2
        WURwUU9rQTZjRG9nT2hBNkFEbwoJd09lQTUwRG5BT2ZBNW9EbVFPWUE1c0RsZ09WQTVRRGx3T1NBNUVEa0FPVEE0NERqUU9NQTQ4RGlnT0pBNGdEaXdPR0EKCTRVRGhB
        T0hBNElEZ1FPQUE0TURmZ045QTN3RGZ3TjZBM2tEZUFON0EzWURkUU4wQTNjRGNnTnhBM0FEY3dOdUEyMERiCglBTnZBMm9EYVFOb0Eyc0RaZ05sQTJRRFp3TmlBMkVE
        WUFOakExNERYUU5jQTE4RFdnTlpBMWdEV3dOV0ExVURWQU5YQQoJMUlEVVFOUUExTURUZ05OQTB3RFR3TktBMGtEU0FOTEEwWURSUU5FQTBjRFFnTkJBMEFEUXdNK0F6
        MERQQU0vQXpvRE8KCVFNNEF6c0ROZ00xQXpRRE53TXlBekVETUFNekF5NERMUU1zQXk4REtnTXBBeWdES3dNbUF5VURKQU1uQXlJRElRTWdBCgl5TURIZ01kQXh3REh3
        TWFBeGtER0FNYkF4WURGUU1VQXhjREVnTVJBeEFERXdNT0F3MEREQU1QQXdvRENRTUlBd3NEQgoJZ01GQXdRREJ3TUNBd0VEQUFNQkF3SURBd01BQXdVREJnTUhBd1FE
        Q1FNS0F3c0RDQU1OQXc0RER3TU1BeEVERWdNVEEKCXhBREZRTVdBeGNERkFNWkF4b0RHd01ZQXgwREhnTWZBeHdESVFNaUF5TURJQU1sQXlZREp3TWtBeWtES2dNckF5
        Z0RMCglRTXVBeThETEFNeEF6SURNd013QXpVRE5nTTNBelFET1FNNkF6c0RPQU05QXo0RFB3TThBMEVEUWdOREEwQURSUU5HQQoJMGNEUkFOSkEwb0RTd05JQTAwRFRn
        TlBBMHdEVVFOU0ExTURVQU5WQTFZRFZ3TlVBMWtEV2dOYkExZ0RYUU5lQTE4RFgKCUFOaEEySURZd05nQTJVRFpnTm5BMlFEYVFOcUEyc0RhQU50QTI0RGJ3TnNBM0VE
        Y2dOekEzQURkUU4yQTNjRGRBTjVBCgkzb0Rld040QTMwRGZnTi9BM3dEZ1FPQ0E0TURnQU9GQTRZRGh3T0VBNGtEaWdPTEE0Z0RqUU9PQTQ4RGpBT1JBNUlEawoJd09R
        QTVVRGxnT1hBNVFEbVFPYUE1c0RtQU9kQTU0RG53T2NBNkVEb2dPakE2QURwUU9tQTZjRHBBT3BBNm9EcXdPb0EKCTYwRHJnT3ZBNndEc1FPeUE3TURzQU8xQTdZRHR3
        TzBBN2tEdWdPN0E3Z0R2UU8rQTc4RHZBUEJBOElEd3dQQUE4VUR4CglnUEhBOFFEeVFQS0E4c0R5QVBOQTg0RHp3UE1BOUVEMGdQVEE5QUQxUVBXQTljRDFBUFpBOW9E
        MndQWUE5MEQzZ1BmQQoJOXdENFFQaUErTUQ0QVBsQStZRDV3UGtBK2tENmdQckErZ0Q3UVB1QSs4RDdBUHhBL0lEOHdQd0EvVUQ5Z1AzQS9RRCsKCVFQNkEvc0QrQVA5
        QS80RC93UDhBQUVBQWdBREFBQUFCUUFHQUFjQUJBQUpBQW9BQ3dBSUFBMEFEZ0FQQUF3QUVRQVNBCglCTUFFQUFWQUJZQUZ3QVVBQmtBR2dBYkFCZ0FIUUFlQUI4QUhB
        QWhBQ0lBSXdBZ0FDVUFKZ0FuQUNRQUtRQXFBQ3NBSwoJQUF0QUM0QUx3QXNBREVBTWdBekFEQUFOUUEyQURjQU5BQTVBRG9BT3dBNEFEMEFQZ0EvQUR3QVFRQkNBRU1B
        UUFCRkEKCUVZQVJ3QkVBRWtBU2dCTEFFZ0FUUUJPQUU4QVRBQlJBRklBVXdCUUFGVUFWZ0JYQUZRQVdRQmFBRnNBV0FCZEFGNEFYCgl3QmNBR0VBWWdCakFHQUFaUUJt
        QUdjQVpBQnBBR29BYXdCb0FHMEFiZ0J2QUd3QWNRQnlBSE1BY0FCMUFIWUFkd0IwQQoJSGtBZWdCN0FIZ0FmUUIrQUg4QWZBQ0JBSUlBZ3dDQUFJVUFoZ0NIQUlRQWlR
        Q0tBSXNBaUFDTkFJNEFqd0NNQUpFQWsKCWdDVEFKQUFsUUNXQUpjQWxBQ1pBSm9BbXdDWUFKMEFuZ0NmQUp3QW9RQ2lBS01Bb0FDbEFLWUFwd0NrQUtrQXFnQ3JBCglL
        Z0FyUUN1QUs4QXJBQ3hBTElBc3dDd0FMVUF0Z0MzQUxRQXVRQzZBTHNBdUFDOUFMNEF2d0M4QU1FQXdnRERBTUFBeAoJUURHQU1jQXhBREpBTW9BeXdESUFNMEF6Z0RQ
        QU13QTBRRFNBTk1BMEFEVkFOWUExd0RVQU5rQTJnRGJBTmdBM1FEZUEKCU44QTNBRGhBT0lBNHdEZ0FPVUE1Z0RuQU9RQTZRRHFBT3NBNkFEdEFPNEE3d0RzQVBFQThn
        RHpBUEFBOVFEMkFQY0E5CglBRDVBUG9BK3dENEFQMEEvZ0QvQVB3QkF3RCtBUDBBL0FEL0FQb0ErUUQ0QVBzQTlnRDFBUFFBOXdEeUFQRUE4QUR6QQoJTzRBN1FEc0FP
        OEE2Z0RwQU9nQTZ3RG1BT1VBNUFEbkFPSUE0UURnQU9NQTNnRGRBTndBM3dEYUFOa0EyQURiQU5ZQTEKCVFEVUFOY0EwZ0RSQU5BQTB3RE9BTTBBekFEUEFNb0F5UURJ
        QU1zQXhnREZBTVFBeHdEQ0FNRUF3QUREQUw0QXZRQzhBCglMOEF1Z0M1QUxnQXV3QzJBTFVBdEFDM0FMSUFzUUN3QUxNQXJnQ3RBS3dBcndDcUFLa0FxQUNyQUtZQXBR
        Q2tBS2NBbwoJZ0NoQUtBQW93Q2VBSjBBbkFDZkFKb0FtUUNZQUpzQWxnQ1ZBSlFBbHdDU0FKRUFrQUNUQUk0QWpRQ01BSThBaWdDSkEKCUlnQWl3Q0dBSVVBaEFDSEFJ
        SUFnUUNBQUlNQWZnQjlBSHdBZndCNkFIa0FlQUI3QUhZQWRRQjBBSGNBY2dCeEFIQUFjCgl3QnVBRzBBYkFCdkFHb0FhUUJvQUdzQVpnQmxBR1FBWndCaUFHRUFZQUJq
        QUY0QVhRQmNBRjhBV2dCWkFGZ0FXd0JXQQoJRlVBVkFCWEFGSUFVUUJRQUZNQVRnQk5BRXdBVHdCS0FFa0FTQUJMQUVZQVJRQkVBRWNBUWdCQkFFQUFRd0ErQUQwQVAK
        CUFBL0FEb0FPUUE0QURzQU5nQTFBRFFBTndBeUFERUFNQUF6QUM0QUxRQXNBQzhBS2dBcEFDZ0FLd0FtQUNVQUpBQW5BCglDSUFJUUFnQUNNQUhnQWRBQndBSHdBYUFC
        a0FHQUFiQUJZQUZRQVVBQmNBRWdBUkFCQUFFd0FPQUEwQURBQVBBQW9BQwoJUUFJQUFzQUJnQUZBQVFBQndBQ0FBRUFBQUFEQS80RC9RUDhBLzhEK2dQNUEvZ0Qrd1Ay
        QS9VRDlBUDNBL0lEOFFQd0EKCS9NRDdnUHRBK3dEN3dQcUEra0Q2QVByQStZRDVRUGtBK2NENGdQaEErQUQ0d1BlQTkwRDNBUGZBOW9EMlFQWUE5c0QxCglnUFZBOVFE
        MXdQU0E5RUQwQVBUQTg0RHpRUE1BODhEeWdQSkE4Z0R5d1BHQThVRHhBUEhBOElEd1FQQUE4TUR2Z085QQoJN3dEdndPNkE3a0R1QU83QTdZRHRRTzBBN2NEc2dPeEE3
        QURzd091QTYwRHJBT3ZBNm9EcVFPb0E2c0RwZ09sQTZRRHAKCXdPaUE2RURvQU9qQTU0RG5RT2NBNThEbWdPWkE1Z0Rtd09XQTVVRGxBT1hBNUlEa1FPUUE1TURqZ09O
        QTR3RGp3T0tBCgk0a0RpQU9MQTRZRGhRT0VBNGNEZ2dPQkE0QURnd04rQTMwRGZBTi9BM29EZVFONEEzc0RkZ04xQTNRRGR3TnlBM0VEYwoJQU56QTI0RGJRTnNBMjhE
        YWdOcEEyZ0Rhd05tQTJVRFpBTm5BMklEWVFOZ0EyTURYZ05kQTF3RFh3TmFBMWtEV0FOYkEKCTFZRFZRTlVBMWNEVWdOUkExQURVd05PQTAwRFRBTlBBMG9EU1FOSUEw
        c0RSZ05GQTBRRFJ3TkNBMEVEUUFOREF6NERQCglRTThBejhET2dNNUF6Z0RPd00yQXpVRE5BTTNBeklETVFNd0F6TURMZ010QXl3REx3TXFBeWtES0FNckF5WURKUU1r
        QQoJeWNESWdNaEF5QURJd01lQXgwREhBTWZBeG9ER1FNWUF4c0RGZ01WQXhRREZ3TVNBeEVERUFNVEF3NEREUU1NQXc4REMKCWdNSkF3Z0RDd01HQXdVREJBTUhBd0lE
        QVFNQUF3RURBZ01EQXdBREJRTUdBd2NEQkFNSkF3b0RDd01JQXcwRERnTVBBCgl3d0RFUU1TQXhNREVBTVZBeFlERndNVUF4a0RHZ01iQXhnREhRTWVBeDhESEFNaEF5
        SURJd01nQXlVREpnTW5BeVFESwoJUU1xQXlzREtBTXRBeTRETHdNc0F6RURNZ016QXpBRE5RTTJBemNETkFNNUF6b0RPd000QXowRFBnTS9BendEUVFOQ0EKCTBNRFFB
        TkZBMFlEUndORUEwa0RTZ05MQTBnRFRRTk9BMDhEVEFOUkExSURVd05RQTFVRFZnTlhBMVFEV1FOYUExc0RXCglBTmRBMTREWHdOY0EyRURZZ05qQTJBRFpRTm1BMmNE
        WkFOcEEyb0Rhd05vQTIwRGJnTnZBMndEY1FOeUEzTURjQU4xQQoJM1lEZHdOMEEza0RlZ043QTNnRGZRTitBMzhEZkFPQkE0SURnd09BQTRVRGhnT0hBNFFEaVFPS0E0
        c0RpQU9OQTQ0RGoKCXdPTUE1RURrZ09UQTVBRGxRT1dBNWNEbEFPWkE1b0Rtd09ZQTUwRG5nT2ZBNXdEb1FPaUE2TURvQU9sQTZZRHB3T2tBCgk2a0RxZ09yQTZnRHJR
        T3VBNjhEckFPeEE3SURzd093QTdVRHRnTzNBN1FEdVFPNkE3c0R1QU85QTc0RHZ3TzhBOEVEdwoJZ1BEQThBRHhRUEdBOGNEeEFQSkE4b0R5d1BJQTgwRHpnUFBBOHdE
        MFFQU0E5TUQwQVBWQTlZRDF3UFVBOWtEMmdQYkEKCTlnRDNRUGVBOThEM0FQaEErSUQ0d1BnQStVRDVnUG5BK1FENlFQcUErc0Q2QVB0QSs0RDd3UHNBL0VEOGdQekEv
        QUQ5CglRUDJBL2NEOUFQNUEvb0Qrd1A0QS8wRC9nUC9BL3dBQVFBQ0FBTUFBQUFGQUFZQUJ3QUVBQWtBQ2dBTEFBZ0FEUUFPQQoJQThBREFBUkFCSUFFd0FRQUJVQUZn
        QVhBQlFBR1FBYUFCc0FHQUFkQUI0QUh3QWNBQ0VBSWdBakFDQUFKUUFtQUNjQUoKCUFBcEFDb0FLd0FvQUMwQUxnQXZBQ3dBTVFBeUFETUFNQUExQURZQU53QTBBRGtB
        T2dBN0FEZ0FQUUErQUQ4QVBBQkJBCglFSUFRd0JBQUVVQVJnQkhBRVFBU1FCS0FFc0FTQUJOQUU0QVR3Qk1BRkVBVWdCVEFGQUFWUUJXQUZjQVZBQlpBRm9BVwoJd0JZ
        QUYwQVhnQmZBRndBWVFCaUFHTUFZQUJsQUdZQVp3QmtBR2tBYWdCckFHZ0FiUUJ1QUc4QWJBQnhBSElBY3dCd0EKCUhVQWRnQjNBSFFBZVFCNkFIc0FlQUI5QUg0QWZ3
        QjhBSUVBZ2dDREFJQUFoUUNHQUljQWhBQ0pBSW9BaXdDSUFJMEFqCglnQ1BBSXdBa1FDU0FKTUFrQUNWQUpZQWx3Q1VBSmtBbWdDYkFKZ0FuUUNlQUo4QW5BQ2hBS0lB
        b3dDZ0FLVUFwZ0NuQQoJS1FBcVFDcUFLc0FxQUN0QUs0QXJ3Q3NBTEVBc2dDekFMQUF0UUMyQUxjQXRBQzVBTG9BdXdDNEFMMEF2Z0MvQUx3QXcKCVFEQ0FNTUF3QURG
        QU1ZQXh3REVBTWtBeWdETEFNZ0F6UURPQU04QXpBRFJBTklBMHdEUUFOVUExZ0RYQU5RQTJRRGFBCglOc0EyQURkQU40QTN3RGNBT0VBNGdEakFPQUE1UURtQU9jQTVB
        RHBBT29BNndEb0FPMEE3Z0R2QU93QThRRHlBUE1BOAoJQUQxQVBZQTl3RDBBUGtBK2dEN0FQZ0EvUUQrQVA4QS9BRURBUDRBL1FEOEFQOEErZ0Q1QVBnQSt3RDJBUFVB
        OUFEM0EKCVBJQThRRHdBUE1BN2dEdEFPd0E3d0RxQU9rQTZBRHJBT1lBNVFEa0FPY0E0Z0RoQU9BQTR3RGVBTjBBM0FEZkFOb0EyCglRRFlBTnNBMWdEVkFOUUExd0RT
        QU5FQTBBRFRBTTRBelFETUFNOEF5Z0RKQU1nQXl3REdBTVVBeEFESEFNSUF3UURBQQoJTU1BdmdDOUFMd0F2d0M2QUxrQXVBQzdBTFlBdFFDMEFMY0FzZ0N4QUxBQXN3
        Q3VBSzBBckFDdkFLb0FxUUNvQUtzQXAKCWdDbEFLUUFwd0NpQUtFQW9BQ2pBSjRBblFDY0FKOEFtZ0NaQUpnQW13Q1dBSlVBbEFDWEFKSUFrUUNRQUpNQWpnQ05BCglJ
        d0Fqd0NLQUlrQWlBQ0xBSVlBaFFDRUFJY0FnZ0NCQUlBQWd3QitBSDBBZkFCL0FIb0FlUUI0QUhzQWRnQjFBSFFBZAoJd0J5QUhFQWNBQnpBRzRBYlFCc0FHOEFhZ0Jw
        QUdnQWF3Qm1BR1VBWkFCbkFHSUFZUUJnQUdNQVhnQmRBRndBWHdCYUEKCUZrQVdBQmJBRllBVlFCVUFGY0FVZ0JSQUZBQVV3Qk9BRTBBVEFCUEFFb0FTUUJJQUVzQVJn
        QkZBRVFBUndCQ0FFRUFRCglBQkRBRDRBUFFBOEFEOEFPZ0E1QURnQU93QTJBRFVBTkFBM0FESUFNUUF3QURNQUxnQXRBQ3dBTHdBcUFDa0FLQUFyQQoJQ1lBSlFBa0FD
        Y0FJZ0FoQUNBQUl3QWVBQjBBSEFBZkFCb0FHUUFZQUJzQUZnQVZBQlFBRndBU0FCRUFFQUFUQUE0QUQKCVFBTUFBOEFDZ0FKQUFnQUN3QUdBQVVBQkFBSEFBSUFBUUFB
        QUFNRC9nUDlBL3dEL3dQNkEva0QrQVA3QS9ZRDlRUDBBCgkvY0Q4Z1B4QS9BRDh3UHVBKzBEN0FQdkErb0Q2UVBvQStzRDVnUGxBK1FENXdQaUErRUQ0QVBqQTk0RDNR
        UGNBOThEMgoJZ1BaQTlnRDJ3UFdBOVVEMUFQWEE5SUQwUVBRQTlNRHpnUE5BOHdEendQS0E4a0R5QVBMQThZRHhRUEVBOGNEd2dQQkEKCThBRHd3TytBNzBEdkFPL0E3
        b0R1UU80QTdzRHRnTzFBN1FEdHdPeUE3RURzQU96QTY0RHJRT3NBNjhEcWdPcEE2Z0RxCgl3T21BNlVEcEFPbkE2SURvUU9nQTZNRG5nT2RBNXdEbndPYUE1a0RtQU9i
        QTVZRGxRT1VBNWNEa2dPUkE1QURrd09PQQoJNDBEakFPUEE0b0RpUU9JQTRzRGhnT0ZBNFFEaHdPQ0E0RURnQU9EQTM0RGZRTjhBMzhEZWdONUEzZ0Rld04yQTNVRGQK
        CUFOM0EzSURjUU53QTNNRGJnTnRBMndEYndOcUEya0RhQU5yQTJZRFpRTmtBMmNEWWdOaEEyQURZd05lQTEwRFhBTmZBCgkxb0RXUU5ZQTFzRFZnTlZBMVFEVndOU0Ex
        RURVQU5UQTA0RFRRTk1BMDhEU2dOSkEwZ0RTd05HQTBVRFJBTkhBMElEUQoJUU5BQTBNRFBnTTlBendEUHdNNkF6a0RPQU03QXpZRE5RTTBBemNETWdNeEF6QURNd011
        QXkwRExBTXZBeW9ES1FNb0EKCXlzREpnTWxBeVFESndNaUF5RURJQU1qQXg0REhRTWNBeDhER2dNWkF4Z0RHd01XQXhVREZBTVhBeElERVFNUUF4TURECglnTU5Bd3dE
        RHdNS0F3a0RDQU1MQXdZREJRTUVBd2NEQWdNQkF3QURBUU1DQXdNREFBTUZBd1lEQndNRUF3a0RDZ01MQQoJd2dERFFNT0F3OEREQU1SQXhJREV3TVFBeFVERmdNWEF4
        UURHUU1hQXhzREdBTWRBeDRESHdNY0F5RURJZ01qQXlBREoKCVFNbUF5Y0RKQU1wQXlvREt3TW9BeTBETGdNdkF5d0RNUU15QXpNRE1BTTFBellETndNMEF6a0RPZ003
        QXpnRFBRTStBCgl6OERQQU5CQTBJRFF3TkFBMFVEUmdOSEEwUURTUU5LQTBzRFNBTk5BMDREVHdOTUExRURVZ05UQTFBRFZRTldBMWNEVgoJQU5aQTFvRFd3TllBMTBE
        WGdOZkExd0RZUU5pQTJNRFlBTmxBMllEWndOa0Eya0RhZ05yQTJnRGJRTnVBMjhEYkFOeEEKCTNJRGN3TndBM1VEZGdOM0EzUURlUU42QTNzRGVBTjlBMzREZndOOEE0
        RURnZ09EQTRBRGhRT0dBNGNEaEFPSkE0b0RpCgl3T0lBNDBEamdPUEE0d0RrUU9TQTVNRGtBT1ZBNVlEbHdPVUE1a0RtZ09iQTVnRG5RT2VBNThEbkFPaEE2SURvd09n
        QQoJNlVEcGdPbkE2UURxUU9xQTZzRHFBT3RBNjREcndPc0E3RURzZ096QTdBRHRRTzJBN2NEdEFPNUE3b0R1d080QTcwRHYKCWdPL0E3d0R3UVBDQThNRHdBUEZBOFlE
        eHdQRUE4a0R5Z1BMQThnRHpRUE9BODhEekFQUkE5SUQwd1BRQTlVRDFnUFhBCgk5UUQyUVBhQTlzRDJBUGRBOTREM3dQY0ErRUQ0Z1BqQStBRDVRUG1BK2NENUFQcEEr
        b0Q2d1BvQSswRDdnUHZBK3dEOAoJUVB5QS9NRDhBUDFBL1lEOXdQMEEva0QrZ1A3QS9nRC9RUCtBLzhEL0FBQkFBSUFBd0FBQUFVQUJnQUhBQVFBQ1FBS0EKCUFzQUNB
        QU5BQTRBRHdBTUFCRUFFZ0FUQUJBQUZRQVdBQmNBRkFBWkFCb0FHd0FZQUIwQUhnQWZBQndBSVFBaUFDTUFJCglBQWxBQ1lBSndBa0FDa0FLZ0FyQUNnQUxRQXVBQzhB
        TEFBeEFESUFNd0F3QURVQU5nQTNBRFFBT1FBNkFEc0FPQUE5QQoJRDRBUHdBOEFFRUFRZ0JEQUVBQVJRQkdBRWNBUkFCSkFFb0FTd0JJQUUwQVRnQlBBRXdBVVFCU0FG
        TUFVQUJWQUZZQVYKCXdCVUFGa0FXZ0JiQUZnQVhRQmVBRjhBWEFCaEFHSUFZd0JnQUdVQVpnQm5BR1FBYVFCcUFHc0FhQUJ0QUc0QWJ3QnNBCglIRUFjZ0J6QUhBQWRR
        QjJBSGNBZEFCNUFIb0Fld0I0QUgwQWZnQi9BSHdBZ1FDQ0FJTUFnQUNGQUlZQWh3Q0VBSWtBaQoJZ0NMQUlnQWpRQ09BSThBakFDUkFKSUFrd0NRQUpVQWxnQ1hBSlFB
        bVFDYUFKc0FtQUNkQUo0QW53Q2NBS0VBb2dDakEKCUtBQXBRQ21BS2NBcEFDcEFLb0Fxd0NvQUswQXJnQ3ZBS3dBc1FDeUFMTUFzQUMxQUxZQXR3QzBBTGtBdWdDN0FM
        Z0F2CglRQytBTDhBdkFEQkFNSUF3d0RBQU1VQXhnREhBTVFBeVFES0FNc0F5QUROQU00QXp3RE1BTkVBMGdEVEFOQUExUURXQQoJTmNBMUFEWkFOb0Eyd0RZQU4wQTNn
        RGZBTndBNFFEaUFPTUE0QURsQU9ZQTV3RGtBT2tBNmdEckFPZ0E3UUR1QU84QTcKCUFEeEFQSUE4d0R3QVBVQTlnRDNBUFFBK1FENkFQc0ErQUQ5QVA0QS93RDhBUU1B
        L2dEOUFQd0Evd0Q2QVBrQStBRDdBCglQWUE5UUQwQVBjQThnRHhBUEFBOHdEdUFPMEE3QUR2QU9vQTZRRG9BT3NBNWdEbEFPUUE1d0RpQU9FQTRBRGpBTjRBMwoJUURj
        QU44QTJnRFpBTmdBMndEV0FOVUExQURYQU5JQTBRRFFBTk1BemdETkFNd0F6d0RLQU1rQXlBRExBTVlBeFFERUEKCU1jQXdnREJBTUFBd3dDK0FMMEF2QUMvQUxvQXVR
        QzRBTHNBdGdDMUFMUUF0d0N5QUxFQXNBQ3pBSzRBclFDc0FLOEFxCglnQ3BBS2dBcXdDbUFLVUFwQUNuQUtJQW9RQ2dBS01BbmdDZEFKd0Fud0NhQUprQW1BQ2JBSllB
        bFFDVUFKY0FrZ0NSQQoJSkFBa3dDT0FJMEFqQUNQQUlvQWlRQ0lBSXNBaGdDRkFJUUFod0NDQUlFQWdBQ0RBSDRBZlFCOEFIOEFlZ0I1QUhnQWUKCXdCMkFIVUFkQUIz
        QUhJQWNRQndBSE1BYmdCdEFHd0Fid0JxQUdrQWFBQnJBR1lBWlFCa0FHY0FZZ0JoQUdBQVl3QmVBCglGMEFYQUJmQUZvQVdRQllBRnNBVmdCVkFGUUFWd0JTQUZFQVVB
        QlRBRTRBVFFCTUFFOEFTZ0JKQUVnQVN3QkdBRVVBUgoJQUJIQUVJQVFRQkFBRU1BUGdBOUFEd0FQd0E2QURrQU9BQTdBRFlBTlFBMEFEY0FNZ0F4QURBQU13QXVBQzBB
        TEFBdkEKCUNvQUtRQW9BQ3NBSmdBbEFDUUFKd0FpQUNFQUlBQWpBQjRBSFFBY0FCOEFHZ0FaQUJnQUd3QVdBQlVBRkFBWEFCSUFFCglRQVFBQk1BRGdBTkFBd0FEd0FL
        QUFrQUNBQUxBQVlBQlFBRUFBY0FBZ0FCQUFBQUF3UCtBLzBEL0FQL0Evb0QrUVA0QQoJL3NEOWdQMUEvUUQ5d1B5QS9FRDhBUHpBKzREN1FQc0ErOEQ2Z1BwQStnRDZ3
        UG1BK1VENUFQbkErSUQ0UVBnQStNRDMKCWdQZEE5d0Qzd1BhQTlrRDJBUGJBOVlEMVFQVUE5Y0QwZ1BSQTlBRDB3UE9BODBEekFQUEE4b0R5UVBJQThzRHhnUEZBCgk4
        UUR4d1BDQThFRHdBUERBNzREdlFPOEE3OER1Z081QTdnRHV3TzJBN1VEdEFPM0E3SURzUU93QTdNRHJnT3RBNndEcgoJd09xQTZrRHFBT3JBNllEcFFPa0E2Y0RvZ09o
        QTZBRG93T2VBNTBEbkFPZkE1b0RtUU9ZQTVzRGxnT1ZBNVFEbHdPU0EKCTVFRGtBT1RBNDREalFPTUE0OERpZ09KQTRnRGl3T0dBNFVEaEFPSEE0SURnUU9BQTRNRGZn
        TjlBM3dEZndONkEza0RlCglBTjdBM1lEZFFOMEEzY0RjZ054QTNBRGN3TnVBMjBEYkFOdkEyb0RhUU5vQTJzRFpnTmxBMlFEWndOaUEyRURZQU5qQQoJMTREWFFOY0Ex
        OERXZ05aQTFnRFd3TldBMVVEVkFOWEExSURVUU5RQTFNRFRnTk5BMHdEVHdOS0Ewa0RTQU5MQTBZRFIKCVFORUEwY0RRZ05CQTBBRFF3TStBejBEUEFNL0F6b0RPUU00
        QXpzRE5nTTFBelFETndNeUF6RURNQU16QXk0RExRTXNBCgl5OERLZ01wQXlnREt3TW1BeVVESkFNbkF5SURJUU1nQXlNREhnTWRBeHdESHdNYUF4a0RHQU1iQXhZREZR
        TVVBeGNERQoJZ01SQXhBREV3TU9BdzBEREFNUEF3b0RDUU1JQXdzREJnTUZBd1FEQndNQ0F3RURBQU1CQXdJREF3TUFBd1VEQmdNSEEKCXdRRENRTUtBd3NEQ0FNTkF3
        NEREd01NQXhFREVnTVRBeEFERlFNV0F4Y0RGQU1aQXhvREd3TVlBeDBESGdNZkF4d0RJCglRTWlBeU1ESUFNbEF5WURKd01rQXlrREtnTXJBeWdETFFNdUF5OERMQU14
        QXpJRE13TXdBelVETmdNM0F6UURPUU02QQoJenNET0FNOUF6NERQd004QTBFRFFnTkRBMEFEUlFOR0EwY0RSQU5KQTBvRFN3TklBMDBEVGdOUEEwd0RVUU5TQTFNRFUK
        CUFOVkExWURWd05VQTFrRFdnTmJBMWdEWFFOZUExOERYQU5oQTJJRFl3TmdBMlVEWmdObkEyUURhUU5xQTJzRGFBTnRBCgkyNERid05zQTNFRGNnTnpBM0FEZFFOMkEz
        Y0RkQU41QTNvRGV3TjRBMzBEZmdOL0Ezd0RnUU9DQTRNRGdBT0ZBNFlEaAoJd09FQTRrRGlnT0xBNGdEalFPT0E0OERqQU9SQTVJRGt3T1FBNVVEbGdPWEE1UURtUU9h
        QTVzRG1BT2RBNTREbndPY0EKCTZFRG9nT2pBNkFEcFFPbUE2Y0RwQU9wQTZvRHF3T29BNjBEcmdPdkE2d0RzUU95QTdNRHNBTzFBN1lEdHdPMEE3a0R1CglnTzdBN2dE
        dlFPK0E3OER2QVBCQThJRHd3UEFBOFVEeGdQSEE4UUR5UVBLQThzRHlBUE5BODREendQTUE5RUQwZ1BUQQoJOUFEMVFQV0E5Y0QxQVBaQTlvRDJ3UFlBOTBEM2dQZkE5
        d0Q0UVBpQStNRDRBUGxBK1lENXdQa0Era0Q2Z1ByQStnRDcKCVFQdUErOEQ3QVB4QS9JRDh3UHdBL1VEOWdQM0EvUUQrUVA2QS9zRCtBUDlBLzREL3dQOEFBRUFBZ0FE
        QUFBQUJRQUdBCglBY0FCQUFKQUFvQUN3QUlBQTBBRGdBUEFBd0FFUUFTQUJNQUVBQVZBQllBRndBVUFCa0FHZ0FiQUJnQUhRQWVBQjhBSAoJQUFoQUNJQUl3QWdBQ1VB
        SmdBbkFDUUFLUUFxQUNzQUtBQXRBQzRBTHdBc0FERUFNZ0F6QURBQU5RQTJBRGNBTkFBNUEKCURvQU93QTRBRDBBUGdBL0FEd0FRUUJDQUVNQVFBQkZBRVlBUndCRUFF
        a0FTZ0JMQUVnQVRRQk9BRThBVEFCUkFGSUFVCgl3QlFBRlVBVmdCWEFGUUFXUUJhQUZzQVdBQmRBRjRBWHdCY0FHRUFZZ0JqQUdBQVpRQm1BR2NBWkFCcEFHb0Fhd0Jv
        QQoJRzBBYmdCdkFHd0FjUUJ5QUhNQWNBQjFBSFlBZHdCMEFIa0FlZ0I3QUhnQWZRQitBSDhBZkFDQkFJSUFnd0NBQUlVQWgKCWdDSEFJUUFpUUNLQUlzQWlBQ05BSTRB
        andDTUFKRUFrZ0NUQUpBQWxRQ1dBSmNBbEFDWkFKb0Ftd0NZQUowQW5nQ2ZBCglKd0FvUUNpQUtNQW9BQ2xBS1lBcHdDa0FLa0FxZ0NyQUtnQXJRQ3VBSzhBckFDeEFM
        SUFzd0N3QUxVQXRnQzNBTFFBdQoJUUM2QUxzQXVBQzlBTDRBdndDOEFNRUF3Z0REQU1BQXhRREdBTWNBeEFESkFNb0F5d0RJQU0wQXpnRFBBTXdBMFFEU0EKCU5NQTBB
        RFZBTllBMXdEVUFOa0EyZ0RiQU5nQTNRRGVBTjhBM0FEaEFPSUE0d0RnQU9VQTVnRG5BT1FBNlFEcUFPc0E2CglBRHRBTzRBN3dEc0FQRUE4Z0R6QVBBQTlRRDJBUGNB
        OUFENUFQb0Erd0Q0QVAwQS9nRC9BUHdCQXdEK0FQMEEvQUQvQQoJUG9BK1FENEFQc0E5Z0QxQVBRQTl3RHlBUEVBOEFEekFPNEE3UURzQU84QTZnRHBBT2dBNndEbUFP
        VUE1QURuQU9JQTQKCVFEZ0FPTUEzZ0RkQU53QTN3RGFBTmtBMkFEYkFOWUExUURVQU5jQTBnRFJBTkFBMHdET0FNMEF6QURQQU1vQXlRRElBCglNc0F4Z0RGQU1RQXh3
        RENBTUVBd0FEREFMNEF2UUM4QUw4QXVnQzVBTGdBdXdDMkFMVUF0QUMzQUxJQXNRQ3dBTE1BcgoJZ0N0QUt3QXJ3Q3FBS2tBcUFDckFLWUFwUUNrQUtjQW9nQ2hBS0FB
        b3dDZUFKMEFuQUNmQUpvQW1RQ1lBSnNBbGdDVkEKCUpRQWx3Q1NBSkVBa0FDVEFJNEFqUUNNQUk4QWlnQ0pBSWdBaXdDR0FJVUFoQUNIQUlJQWdRQ0FBSU1BZmdCOUFI
        d0FmCgl3QjZBSGtBZUFCN0FIWUFkUUIwQUhjQWNnQnhBSEFBY3dCdUFHMEFiQUJ2QUdvQWFRQm9BR3NBWmdCbEFHUUFad0JpQQoJR0VBWUFCakFGNEFYUUJjQUY4QVdn
        QlpBRmdBV3dCV0FGVUFWQUJYQUZJQVVRQlFBRk1BVGdCTkFFd0FUd0JLQUVrQVMKCUFCTEFFWUFSUUJFQUVjQVFnQkJBRUFBUXdBK0FEMEFQQUEvQURvQU9RQTRBRHNB
        TmdBMUFEUUFOd0F5QURFQU1BQXpBCglDNEFMUUFzQUM4QUtnQXBBQ2dBS3dBbUFDVUFKQUFuQUNJQUlRQWdBQ01BSGdBZEFCd0FId0FhQUJrQUdBQWJBQllBRgoJUUFV
        QUJjQUVnQVJBQkFBRXdBT0FBMEFEQUFQQUFvQUNRQUlBQXNBQmdBRkFBUUFCd0FDQUFFQUFBQURBLzREL1FQOEEKCS84RCtnUDVBL2dEK3dQMkEvVUQ5QVAzQS9JRDhR
        UHdBL01EN2dQdEErd0Q3d1BxQStrRDZBUHJBK1lENVFQa0ErY0Q0CglnUGhBK0FENHdQZUE5MEQzQVBmQTlvRDJRUFlBOXNEMWdQVkE5UUQxd1BTQTlFRDBBUFRBODRE
        elFQTUE4OER5Z1BKQQoJOGdEeXdQR0E4VUR4QVBIQThJRHdRUEFBOE1EdmdPOUE3d0R2d082QTdrRHVBTzdBN1lEdFFPMEE3Y0RzZ094QTdBRHMKCXdPdUE2MERyQU92
        QTZvRHFRT29BNnNEcGdPbEE2UURwd09pQTZFRG9BT2pBNTREblFPY0E1OERtZ09aQTVnRG13T1dBCgk1VURsQU9YQTVJRGtRT1FBNU1EamdPTkE0d0Rqd09LQTRrRGlB
        T0xBNFlEaFFPRUE0Y0RnZ09CQTRBRGd3TitBMzBEZgoJQU4vQTNvRGVRTjRBM3NEZGdOMUEzUURkd055QTNFRGNBTnpBMjREYlFOc0EyOERhZ05wQTJnRGF3Tm1BMlVE
        WkFObkEKCTJJRFlRTmdBMk1EWGdOZEExd0RYd05hQTFrRFdBTmJBMVlEVlFOVUExY0RVZ05SQTFBRFV3Tk9BMDBEVEFOUEEwb0RTCglRTklBMHNEUmdORkEwUURSd05D
        QTBFRFFBTkRBejREUFFNOEF6OERPZ001QXpnRE93TTJBelVETkFNM0F6SURNUU13QQoJek1ETGdNdEF5d0RMd01xQXlrREtBTXJBeVlESlFNa0F5Y0RJZ01oQXlBREl3
        TWVBeDBESEFNZkF4b0RHUU1ZQXhzREYKCWdNVkF4UURGd01TQXhFREVBTVRBdzRERFFNTUF3OERDZ01KQXdnREN3TUdBd1VEQkFNSEF3SURBUU1BQXdFREFnTURBCgl3
        QURCUU1HQXdjREJBTUpBd29EQ3dNSUF3MEREZ01QQXd3REVRTVNBeE1ERUFNVkF4WURGd01VQXhrREdnTWJBeGdESAoJUU1lQXg4REhBTWhBeUlESXdNZ0F5VURKZ01u
        QXlRREtRTXFBeXNES0FNdEF5NERMd01zQXpFRE1nTXpBekFETlFNMkEKCXpjRE5BTTVBem9ET3dNNEF6MERQZ00vQXp3RFFRTkNBME1EUUFORkEwWURSd05FQTBrRFNn
        TkxBMGdEVFFOT0EwOERUCglBTlJBMUlEVXdOUUExVURWZ05YQTFRRFdRTmFBMXNEV0FOZEExNERYd05jQTJFRFlnTmpBMkFEWlFObUEyY0RaQU5wQQoJMm9EYXdOb0Ey
        MERiZ052QTJ3RGNRTnlBM01EY0FOMUEzWURkd04wQTNrRGVnTjdBM2dEZlFOK0EzOERmQU9CQTRJRGcKCXdPQUE0VURoZ09IQTRRRGlRT0tBNHNEaUFPTkE0NERqd09N
        QTVFRGtnT1RBNUFEbFFPV0E1Y0RsQU9aQTVvRG13T1lBCgk1MERuZ09mQTV3RG9RT2lBNk1Eb0FPbEE2WURwd09rQTZrRHFnT3JBNmdEclFPdUE2OERyQU94QTdJRHN3
        T3dBN1VEdAoJZ08zQTdRRHVRTzZBN3NEdUFPOUE3NER2d084QThFRHdnUERBOEFEeFFQR0E4Y0R4QVBKQThvRHl3UElBODBEemdQUEEKCTh3RDBRUFNBOU1EMEFQVkE5
        WUQxd1BVQTlrRDJnUGJBOWdEM1FQZUE5OEQzQVBoQStJRDR3UGdBK1VENWdQbkErUUQ2CglRUHFBK3NENkFQdEErNEQ3d1BzQS9FRDhnUHpBL0FEOVFQMkEvY0Q5QVA1
        QS9vRCt3UDRBLzBEL2dQL0Evd0FBUUFDQQoJQU1BQUFBRkFBWUFCd0FFQUFrQUNnQUxBQWdBRFFBT0FBOEFEQUFSQUJJQUV3QVFBQlVBRmdBWEFCUUFHUUFhQUJzQUcK
        CUFBZEFCNEFId0FjQUNFQUlnQWpBQ0FBSlFBbUFDY0FKQUFwQUNvQUt3QW9BQzBBTGdBdkFDd0FNUUF5QURNQU1BQTFBCglEWUFOd0EwQURrQU9nQTdBRGdBUFFBK0FE
        OEFQQUJCQUVJQVF3QkFBRVVBUmdCSEFFUUFTUUJLQUVzQVNBQk5BRTRBVAoJd0JNQUZFQVVnQlRBRkFBVlFCV0FGY0FWQUJaQUZvQVd3QllBRjBBWGdCZkFGd0FZUUJp
        QUdNQVlBQmxBR1lBWndCa0EKCUdrQWFnQnJBR2dBYlFCdUFHOEFiQUJ4QUhJQWN3QndBSFVBZGdCM0FIUUFlUUI2QUhzQWVBQjlBSDRBZndCOEFJRUFnCglnQ0RBSUFB
        aFFDR0FJY0FoQUNKQUlvQWl3Q0lBSTBBamdDUEFJd0FrUUNTQUpNQWtBQ1ZBSllBbHdDVUFKa0FtZ0NiQQoJSmdBblFDZUFKOEFuQUNoQUtJQW93Q2dBS1VBcGdDbkFL
        UUFxUUNxQUtzQXFBQ3RBSzRBcndDc0FMRUFzZ0N6QUxBQXQKCVFDMkFMY0F0QUM1QUxvQXV3QzRBTDBBdmdDL0FMd0F3UURDQU1NQXdBREZBTVlBeHdERUFNa0F5Z0RM
        QU1nQXpRRE9BCglNOEF6QURSQU5JQTB3RFFBTlVBMWdEWEFOUUEyUURhQU5zQTJBRGRBTjRBM3dEY0FPRUE0Z0RqQU9BQTVRRG1BT2NBNQoJQURwQU9vQTZ3RG9BTzBB
        N2dEdkFPd0E4UUR5QVBNQThBRDFBUFlBOXdEMEFQa0ErZ0Q3QVBnQS9RRCtBUDhBL0FFREEKCVA0QS9RRDhBUDhBK2dENUFQZ0Erd0QyQVBVQTlBRDNBUElBOFFEd0FQ
        TUE3Z0R0QU93QTd3RHFBT2tBNkFEckFPWUE1CglRRGtBT2NBNGdEaEFPQUE0d0RlQU4wQTNBRGZBTm9BMlFEWUFOc0ExZ0RWQU5RQTF3RFNBTkVBMEFEVEFNNEF6UURN
        QQoJTThBeWdESkFNZ0F5d0RHQU1VQXhBREhBTUlBd1FEQUFNTUF2Z0M5QUx3QXZ3QzZBTGtBdUFDN0FMWUF0UUMwQUxjQXMKCWdDeEFMQUFzd0N1QUswQXJBQ3ZBS29B
        cVFDb0FLc0FwZ0NsQUtRQXB3Q2lBS0VBb0FDakFKNEFuUUNjQUo4QW1nQ1pBCglKZ0Ftd0NXQUpVQWxBQ1hBSklBa1FDUUFKTUFqZ0NOQUl3QWp3Q0tBSWtBaUFDTEFJ
        WUFoUUNFQUljQWdnQ0JBSUFBZwoJd0IrQUgwQWZBQi9BSG9BZVFCNEFIc0FkZ0IxQUhRQWR3QnlBSEVBY0FCekFHNEFiUUJzQUc4QWFnQnBBR2dBYXdCbUEKCUdVQVpB
        Qm5BR0lBWVFCZ0FHTUFYZ0JkQUZ3QVh3QmFBRmtBV0FCYkFGWUFWUUJVQUZjQVVnQlJBRkFBVXdCT0FFMEFUCglBQlBBRW9BU1FCSUFFc0FSZ0JGQUVRQVJ3QkNBRUVB
        UUFCREFENEFQUUE4QUQ4QU9nQTVBRGdBT3dBMkFEVUFOQUEzQQoJRElBTVFBd0FETUFMZ0F0QUN3QUx3QXFBQ2tBS0FBckFDWUFKUUFrQUNjQUlnQWhBQ0FBSXdBZUFC
        MEFIQUFmQUJvQUcKCVFBWUFCc0FGZ0FWQUJRQUZ3QVNBQkVBRUFBVEFBNEFEUUFNQUE4QUNnQUpBQWdBQ3dBR0FBVUFCQUFIQUFJQUFRQUFBCglBTUQvZ1A5QS93RC93
        UDZBL2tEK0FQN0EvWUQ5UVAwQS9jRDhnUHhBL0FEOHdQdUErMEQ3QVB2QStvRDZRUG9BK3NENQoJZ1BsQStRRDV3UGlBK0VENEFQakE5NEQzUVBjQTk4RDJnUFpBOWdE
        MndQV0E5VUQxQVBYQTlJRDBRUFFBOU1EemdQTkEKCTh3RHp3UEtBOGtEeUFQTEE4WUR4UVBFQThjRHdnUEJBOEFEd3dPK0E3MER2QU8vQTdvRHVRTzRBN3NEdGdPMUE3
        UUR0Cgl3T3lBN0VEc0FPekE2NERyUU9zQTY4RHFnT3BBNmdEcXdPbUE2VURwQU9uQTZJRG9RT2dBNk1EbmdPZEE1d0Rud09hQQoJNWtEbUFPYkE1WURsUU9VQTVjRGtn
        T1JBNUFEa3dPT0E0MERqQU9QQTRvRGlRT0lBNHNEaGdPRkE0UURod09DQTRFRGcKCUFPREEzNERmUU44QTM4RGVnTjVBM2dEZXdOMkEzVURkQU4zQTNJRGNRTndBM01E
        YmdOdEEyd0Rid05xQTJrRGFBTnJBCgkyWURaUU5rQTJjRFlnTmhBMkFEWXdOZUExMERYQU5mQTFvRFdRTllBMXNEVmdOVkExUURWd05TQTFFRFVBTlRBMDREVAoJUU5N
        QTA4RFNnTkpBMGdEU3dOR0EwVURSQU5IQTBJRFFRTkFBME1EUGdNOUF6d0RQd002QXprRE9BTTdBellETlFNMEEKCXpjRE1nTXhBekFETXdNdUF5MERMQU12QXlvREtR
        TW9BeXNESmdNbEF5UURKd01pQXlFRElBTWpBeDRESFFNY0F4OERHCglnTVpBeGdER3dNV0F4VURGQU1YQXhJREVRTVFBeE1ERGdNTkF3d0REd01LQXdrRENBTUxBd1lE
        QlFNRUF3Y0RBZ01CQQoJd0FEQVFNQ0F3TURBQU1GQXdZREJ3TUVBd2tEQ2dNTEF3Z0REUU1PQXc4RERBTVJBeElERXdNUUF4VURGZ01YQXhRREcKCVFNYUF4c0RHQU1k
        QXg0REh3TWNBeUVESWdNakF5QURKUU1tQXljREpBTXBBeW9ES3dNb0F5MERMZ012QXl3RE1RTXlBCgl6TURNQU0xQXpZRE53TTBBemtET2dNN0F6Z0RQUU0rQXo4RFBB
        TkJBMElEUXdOQUEwVURSZ05IQTBRRFNRTktBMHNEUwoJQU5OQTA0RFR3Tk1BMUVEVWdOVEExQURWUU5XQTFjRFZBTlpBMW9EV3dOWUExMERYZ05mQTF3RFlRTmlBMk1E
        WUFObEEKCTJZRFp3TmtBMmtEYWdOckEyZ0RiUU51QTI4RGJBTnhBM0lEY3dOd0EzVURkZ04zQTNRRGVRTjZBM3NEZUFOOUEzNERmCgl3TjhBNEVEZ2dPREE0QURoUU9H
        QTRjRGhBT0pBNG9EaXdPSUE0MERqZ09QQTR3RGtRT1NBNU1Ea0FPVkE1WURsd09VQQoJNWtEbWdPYkE1Z0RuUU9lQTU4RG5BT2hBNklEb3dPZ0E2VURwZ09uQTZRRHFR
        T3FBNnNEcUFPdEE2NERyd09zQTdFRHMKCWdPekE3QUR0UU8yQTdjRHRBTzVBN29EdXdPNEE3MER2Z08vQTd3RHdRUENBOE1Ed0FQRkE4WUR4d1BFQThrRHlnUExBCgk4
        Z0R6UVBPQTg4RHpBUFJBOUlEMHdQUUE5VUQxZ1BYQTlRRDJRUGFBOXNEMkFQZEE5NEQzd1BjQStFRDRnUGpBK0FENQoJUVBtQStjRDVBUHBBK29ENndQb0ErMEQ3Z1B2
        QSt3RDhRUHlBL01EOEFQMUEvWUQ5d1AwQS9rRCtnUDdBL2dEL1FQK0EKCS84RC9BQUJBQUlBQXdBQUFBVUFCZ0FIQUFRQUNRQUtBQXNBQ0FBTkFBNEFEd0FNQUJFQUVn
        QVRBQkFBRlFBV0FCY0FGCglBQVpBQm9BR3dBWUFCMEFIZ0FmQUJ3QUlRQWlBQ01BSUFBbEFDWUFKd0FrQUNrQUtnQXJBQ2dBTFFBdUFDOEFMQUF4QQoJRElBTXdBd0FE
        VUFOZ0EzQURRQU9RQTZBRHNBT0FBOUFENEFQd0E4QUVFQVFnQkRBRUFBUlFCR0FFY0FSQUJKQUVvQVMKCXdCSUFFMEFUZ0JQQUV3QVVRQlNBRk1BVUFCVkFGWUFWd0JV
        QUZrQVdnQmJBRmdBWFFCZUFGOEFYQUJoQUdJQVl3QmdBCglHVUFaZ0JuQUdRQWFRQnFBR3NBYUFCdEFHNEFid0JzQUhFQWNnQnpBSEFBZFFCMkFIY0FkQUI1QUhvQWV3
        QjRBSDBBZgoJZ0IvQUh3QWdRQ0NBSU1BZ0FDRkFJWUFod0NFQUlrQWlnQ0xBSWdBalFDT0FJOEFqQUNSQUpJQWt3Q1FBSlVBbGdDWEEKCUpRQW1RQ2FBSnNBbUFDZEFK
        NEFud0NjQUtFQW9nQ2pBS0FBcFFDbUFLY0FwQUNwQUtvQXF3Q29BSzBBcmdDdkFLd0FzCglRQ3lBTE1Bc0FDMUFMWUF0d0MwQUxrQXVnQzdBTGdBdlFDK0FMOEF2QURC
        QU1JQXd3REFBTVVBeGdESEFNUUF5UURLQQoJTXNBeUFETkFNNEF6d0RNQU5FQTBnRFRBTkFBMVFEV0FOY0ExQURaQU5vQTJ3RFlBTjBBM2dEZkFOd0E0UURpQU9NQTQK
        CUFEbEFPWUE1d0RrQU9rQTZnRHJBT2dBN1FEdUFPOEE3QUR4QVBJQTh3RHdBUFVBOWdEM0FQUUErUUQ2QVBzQStBRDlBCglQNEEvd0Q4QVFNQS9nRDlBUHdBL3dENkFQ
        a0ErQUQ3QVBZQTlRRDBBUGNBOGdEeEFQQUE4d0R1QU8wQTdBRHZBT29BNgoJUURvQU9zQTVnRGxBT1FBNXdEaUFPRUE0QURqQU40QTNRRGNBTjhBMmdEWkFOZ0Eyd0RX
        QU5VQTFBRFhBTklBMFFEUUEKCU5NQXpnRE5BTXdBendES0FNa0F5QURMQU1ZQXhRREVBTWNBd2dEQkFNQUF3d0MrQUwwQXZBQy9BTG9BdVFDNEFMc0F0CglnQzFBTFFB
        dHdDeUFMRUFzQUN6QUs0QXJRQ3NBSzhBcWdDcEFLZ0Fxd0NtQUtVQXBBQ25BS0lBb1FDZ0FLTUFuZ0NkQQoJSndBbndDYUFKa0FtQUNiQUpZQWxRQ1VBSmNBa2dDUkFK
        QUFrd0NPQUkwQWpBQ1BBSW9BaVFDSUFJc0FoZ0NGQUlRQWgKCXdDQ0FJRUFnQUNEQUg0QWZRQjhBSDhBZWdCNUFIZ0Fld0IyQUhVQWRBQjNBSElBY1FCd0FITUFiZ0J0
        QUd3QWJ3QnFBCglHa0FhQUJyQUdZQVpRQmtBR2NBWWdCaEFHQUFZd0JlQUYwQVhBQmZBRm9BV1FCWUFGc0FWZ0JWQUZRQVZ3QlNBRkVBVQoJQUJUQUU0QVRRQk1BRThB
        U2dCSkFFZ0FTd0JHQUVVQVJBQkhBRUlBUVFCQUFFTUFQZ0E5QUR3QVB3QTZBRGtBT0FBN0EKCURZQU5RQTBBRGNBTWdBeEFEQUFNd0F1QUMwQUxBQXZBQ29BS1FBb0FD
        c0FKZ0FsQUNRQUp3QWlBQ0VBSUFBakFCNEFICglRQWNBQjhBR2dBWkFCZ0FHd0FXQUJVQUZBQVhBQklBRVFBUUFCTUFEZ0FOQUF3QUR3QUtBQWtBQ0FBTEFBWUFCUUFF
        QQoJQWNBQWdBQkFBQUFBd1ArQS8wRC9BUC9BL29EK1FQNEEvc0Q5Z1AxQS9RRDl3UHlBL0VEOEFQekErNEQ3UVBzQSs4RDYKCWdQcEErZ0Q2d1BtQStVRDVBUG5BK0lE
        NFFQZ0ErTUQzZ1BkQTl3RDN3UGFBOWtEMkFQYkE5WUQxUVBVQTljRDBnUFJBCgk5QUQwd1BPQTgwRHpBUFBBOG9EeVFQSUE4c0R4Z1BGQThRRHh3UENBOEVEd0FQREE3
        NER2UU84QTc4RHVnTzVBN2dEdQoJd08yQTdVRHRBTzNBN0lEc1FPd0E3TURyZ090QTZ3RHJ3T3FBNmtEcUFPckE2WURwUU9rQTZjRG9nT2hBNkFEb3dPZUEKCTUwRG5B
        T2ZBNW9EbVFPWUE1c0RsZ09WQTVRRGx3T1NBNUVEa0FPVEE0NERqUU9NQTQ4RGlnT0pBNGdEaXdPR0E0VURoCglBT0hBNElEZ1FPQUE0TURmZ045QTN3RGZ3TjZBM2tE
        ZUFON0EzWURkUU4wQTNjRGNnTnhBM0FEY3dOdUEyMERiQU52QQoJMm9EYVFOb0Eyc0RaZ05sQTJRRFp3TmlBMkVEWUFOakExNERYUU5jQTE4RFdnTlpBMWdEV3dOV0Ex
        VURWQU5YQTFJRFUKCVFOUUExTURUZ05OQTB3RFR3TktBMGtEU0FOTEEwWURSUU5FQTBjRFFnTkJBMEFEUXdNK0F6MERQQU0vQXpvRE9RTTRBCgl6c0ROZ00xQXpRRE53
        TXlBekVETUFNekF5NERMUU1zQXk4REtnTXBBeWdES3dNbUF5VURKQU1uQXlJRElRTWdBeU1ESAoJZ01kQXh3REh3TWFBeGtER0FNYkF4WURGUU1VQXhjREVnTVJBeEFE
        RXdNT0F3MEREQU1QQXdvRENRTUlBd3NEQmdNRkEKCXdRREJ3TUNBd0VEQUFNQkF3SURBd01BQXdVREJnTUhBd1FEQ1FNS0F3c0RDQU1OQXc0RER3TU1BeEVERWdNVEF4
        QURGCglRTVdBeGNERkFNWkF4b0RHd01ZQXgwREhnTWZBeHdESVFNaUF5TURJQU1sQXlZREp3TWtBeWtES2dNckF5Z0RMUU11QQoJeThETEFNeEF6SURNd013QXpVRE5n
        TTNBelFET1FNNkF6c0RPQU05QXo0RFB3TThBMEVEUWdOREEwQURSUU5HQTBjRFIKCUFOSkEwb0RTd05JQTAwRFRnTlBBMHdEVVFOU0ExTURVQU5WQTFZRFZ3TlVBMWtE
        V2dOYkExZ0RYUU5lQTE4RFhBTmhBCgkySURZd05nQTJVRFpnTm5BMlFEYVFOcUEyc0RhQU50QTI0RGJ3TnNBM0VEY2dOekEzQURkUU4yQTNjRGRBTjVBM29EZQoJd040
        QTMwRGZnTi9BM3dEZ1FPQ0E0TURnQU9GQTRZRGh3T0VBNGtEaWdPTEE0Z0RqUU9PQTQ4RGpBT1JBNUlEa3dPUUEKCTVVRGxnT1hBNVFEbVFPYUE1c0RtQU9kQTU0RG53
        T2NBNkVEb2dPakE2QURwUU9tQTZjRHBBT3BBNm9EcXdPb0E2MERyCglnT3ZBNndEc1FPeUE3TURzQU8xQTdZRHR3TzBBN2tEdWdPN0E3Z0R2UU8rQTc4RHZBUEJBOElE
        d3dQQUE4VUR4Z1BIQQoJOFFEeVFQS0E4c0R5QVBOQTg0RHp3UE1BOUVEMGdQVEE5QUQxUVBXQTljRDFBUFpBOW9EMndQWUE5MEQzZ1BmQTl3RDQKCVFQaUErTUQ0QVBs
        QStZRDV3UGtBK2tENmdQckErZ0Q3UVB1QSs4RDdBUHhBL0lEOHdQd0EvVUQ5Z1AzQS9RRCtRUDZBCgkvc0QrQVA5QS80RC93UDhBQUVBQWdBREFBQUFCUUFHQUFjQUJB
        QUpBQW9BQ3dBSUFBMEFEZ0FQQUF3QUVRQVNBQk1BRQoJQUFWQUJZQUZ3QVVBQmtBR2dBYkFCZ0FIUUFlQUI4QUhBQWhBQ0lBSXdBZ0FDVUFKZ0FuQUNRQUtRQXFBQ3NB
        S0FBdEEKCUM0QUx3QXNBREVBTWdBekFEQUFOUUEyQURjQU5BQTVBRG9BT3dBNEFEMEFQZ0EvQUR3QVFRQkNBRU1BUUFCRkFFWUFSCgl3QkVBRWtBU2dCTEFFZ0FUUUJP
        QUU4QVRBQlJBRklBVXdCUUFGVUFWZ0JYQUZRQVdRQmFBRnNBV0FCZEFGNEFYd0JjQQoJR0VBWWdCakFHQUFaUUJtQUdjQVpBQnBBR29BYXdCb0FHMEFiZ0J2QUd3QWNR
        QnlBSE1BY0FCMUFIWUFkd0IwQUhrQWUKCWdCN0FIZ0FmUUIrQUg4QWZBQ0JBSUlBZ3dDQUFJVUFoZ0NIQUlRQWlRQ0tBSXNBaUFDTkFJNEFqd0NNQUpFQWtnQ1RBCglK
        QUFsUUNXQUpjQWxBQ1pBSm9BbXdDWUFKMEFuZ0NmQUp3QW9RQ2lBS01Bb0FDbEFLWUFwd0NrQUtrQXFnQ3JBS2dBcgoJUUN1QUs4QXJBQ3hBTElBc3dDd0FMVUF0Z0Mz
        QUxRQXVRQzZBTHNBdUFDOUFMNEF2d0M4QU1FQXdnRERBTUFBeFFER0EKCU1jQXhBREpBTW9BeXdESUFNMEF6Z0RQQU13QTBRRFNBTk1BMEFEVkFOWUExd0RVQU5rQTJn
        RGJBTmdBM1FEZUFOOEEzCglBRGhBT0lBNHdEZ0FPVUE1Z0RuQU9RQTZRRHFBT3NBNkFEdEFPNEE3d0RzQVBFQThnRHpBUEFBOVFEMkFQY0E5QUQ1QQoJUG9BK3dENEFQ
        MEEvZ0QvQVB3QkF3RCtBUDBBL0FEL0FQb0ErUUQ0QVBzQTlnRDFBUFFBOXdEeUFQRUE4QUR6QU80QTcKCVFEc0FPOEE2Z0RwQU9nQTZ3RG1BT1VBNUFEbkFPSUE0UURn
        QU9NQTNnRGRBTndBM3dEYUFOa0EyQURiQU5ZQTFRRFVBCglOY0EwZ0RSQU5BQTB3RE9BTTBBekFEUEFNb0F5UURJQU1zQXhnREZBTVFBeHdEQ0FNRUF3QUREQUw0QXZR
        QzhBTDhBdQoJZ0M1QUxnQXV3QzJBTFVBdEFDM0FMSUFzUUN3QUxNQXJnQ3RBS3dBcndDcUFLa0FxQUNyQUtZQXBRQ2tBS2NBb2dDaEEKCUtBQW93Q2VBSjBBbkFDZkFK
        b0FtUUNZQUpzQWxnQ1ZBSlFBbHdDU0FKRUFrQUNUQUk0QWpRQ01BSThBaWdDSkFJZ0FpCgl3Q0dBSVVBaEFDSEFJSUFnUUNBQUlNQWZnQjlBSHdBZndCNkFIa0FlQUI3
        QUhZQWRRQjBBSGNBY2dCeEFIQUFjd0J1QQoJRzBBYkFCdkFHb0FhUUJvQUdzQVpnQmxBR1FBWndCaUFHRUFZQUJqQUY0QVhRQmNBRjhBV2dCWkFGZ0FXd0JXQUZVQVYK
        CUFCWEFGSUFVUUJRQUZNQVRnQk5BRXdBVHdCS0FFa0FTQUJMQUVZQVJRQkVBRWNBUWdCQkFFQUFRd0ErQUQwQVBBQS9BCglEb0FPUUE0QURzQU5nQTFBRFFBTndBeUFE
        RUFNQUF6QUM0QUxRQXNBQzhBS2dBcEFDZ0FLd0FtQUNVQUpBQW5BQ0lBSQoJUUFnQUNNQUhnQWRBQndBSHdBYUFCa0FHQUFiQUJZQUZRQVVBQmNBRWdBUkFCQUFFd0FP
        QUEwQURBQVBBQW9BQ1FBSUEKCUFzQUJnQUZBQVFBQndBQ0FBRUFBQUFEQS80RC9RUDhBLzhEK2dQNUEvZ0Qrd1AyQS9VRDlBUDNBL0lEOFFQd0EvTUQ3CglnUHRBK3dE
        N3dQcUEra0Q2QVByQStZRDVRUGtBK2NENGdQaEErQUQ0d1BlQTkwRDNBUGZBOW9EMlFQWUE5c0QxZ1BWQQoJOVFEMXdQU0E5RUQwQVBUQTg0RHpRUE1BODhEeWdQSkE4
        Z0R5d1BHQThVRHhBUEhBOElEd1FQQUE4TUR2Z085QTd3RHYKCXdPNkE3a0R1QU83QTdZRHRRTzBBN2NEc2dPeEE3QURzd091QTYwRHJBT3ZBNm9EcVFPb0E2c0RwZ09s
        QTZRRHB3T2lBCgk2RURvQU9qQTU0RG5RT2NBNThEbWdPWkE1Z0Rtd09XQTVVRGxBT1hBNUlEa1FPUUE1TURqZ09OQTR3RGp3T0tBNGtEaQoJQU9MQTRZRGhRT0VBNGNE
        Z2dPQkE0QURnd04rQTMwRGZBTi9BM29EZVFONEEzc0RkZ04xQTNRRGR3TnlBM0VEY0FOekEKCTI0RGJRTnNBMjhEYWdOcEEyZ0Rhd05tQTJVRFpBTm5BMklEWVFOZ0Ey
        TURYZ05kQTF3RFh3TmFBMWtEV0FOYkExWURWCglRTlVBMWNEVWdOUkExQURVd05PQTAwRFRBTlBBMG9EU1FOSUEwc0RSZ05GQTBRRFJ3TkNBMEVEUUFOREF6NERQUU04
        QQoJejhET2dNNUF6Z0RPd00yQXpVRE5BTTNBeklETVFNd0F6TURMZ010QXl3REx3TXFBeWtES0FNckF5WURKUU1rQXljREkKCWdNaEF5QURJd01lQXgwREhBTWZBeG9E
        R1FNWUF4c0RGZ01WQXhRREZ3TVNBeEVERUFNVEF3NEREUU1NQXc4RENnTUpBCgl3Z0RDd01HQXdVREJBTUhBd0lEQVFNQUF3RURBZ01EQXdBREJRTUdBd2NEQkFNSkF3
        b0RDd01JQXcwRERnTVBBd3dERQoJUU1TQXhNREVBTVZBeFlERndNVUF4a0RHZ01iQXhnREhRTWVBeDhESEFNaEF5SURJd01nQXlVREpnTW5BeVFES1FNcUEKCXlzREtB
        TXRBeTRETHdNc0F6RURNZ016QXpBRE5RTTJBemNETkFNNUF6b0RPd000QXowRFBnTS9BendEUVFOQ0EwTURRCglBTkZBMFlEUndORUEwa0RTZ05MQTBnRFRRTk9BMDhE
        VEFOUkExSURVd05RQTFVRFZnTlhBMVFEV1FOYUExc0RXQU5kQQoJMTREWHdOY0EyRURZZ05qQTJBRFpRTm1BMmNEWkFOcEEyb0Rhd05vQTIwRGJnTnZBMndEY1FOeUEz
        TURjQU4xQTNZRGQKCXdOMEEza0RlZ043QTNnRGZRTitBMzhEZkFPQkE0SURnd09BQTRVRGhnT0hBNFFEaVFPS0E0c0RpQU9OQTQ0RGp3T01BCgk1RURrZ09UQTVBRGxR
        T1dBNWNEbEFPWkE1b0Rtd09ZQTUwRG5nT2ZBNXdEb1FPaUE2TURvQU9sQTZZRHB3T2tBNmtEcQoJZ09yQTZnRHJRT3VBNjhEckFPeEE3SURzd093QTdVRHRnTzNBN1FE
        dVFPNkE3c0R1QU85QTc0RHZ3TzhBOEVEd2dQREEKCThBRHhRUEdBOGNEeEFQSkE4b0R5d1BJQTgwRHpnUFBBOHdEMFFQU0E5TUQwQVBWQTlZRDF3UFVBOWtEMmdQYkE5
        Z0QzCglRUGVBOThEM0FQaEErSUQ0d1BnQStVRDVnUG5BK1FENlFQcUErc0Q2QVB0QSs0RDd3UHNBL0VEOGdQekEvQUQ5UVAyQQoJL2NEOUFQNUEvb0Qrd1A0QS8wRC9n
        UC9BL3dBQVFBQ0FBTUFBQUFGQUFZQUJ3QUVBQWtBQ2dBTEFBZ0FEUUFPQUE4QUQKCUFBUkFCSUFFd0FRQUJVQUZnQVhBQlFBR1FBYUFCc0FHQUFkQUI0QUh3QWNBQ0VB
        SWdBakFDQUFKUUFtQUNjQUpBQXBBCglDb0FLd0FvQUMwQUxnQXZBQ3dBTVFBeUFETUFNQUExQURZQU53QTBBRGtBT2dBN0FEZ0FQUUErQUQ4QVBBQkJBRUlBUQoJd0JB
        QUVVQVJnQkhBRVFBU1FCS0FFc0FTQUJOQUU0QVR3Qk1BRkVBVWdCVEFGQUFWUUJXQUZjQVZBQlpBRm9BV3dCWUEKCUYwQVhnQmZBRndBWVFCaUFHTUFZQUJsQUdZQVp3
        QmtBR2tBYWdCckFHZ0FiUUJ1QUc4QWJBQnhBSElBY3dCd0FIVUFkCglnQjNBSFFBZVFCNkFIc0FlQUI5QUg0QWZ3QjhBSUVBZ2dDREFJQUFoUUNHQUljQWhBQ0pBSW9B
        aXdDSUFJMEFqZ0NQQQoJSXdBa1FDU0FKTUFrQUNWQUpZQWx3Q1VBSmtBbWdDYkFKZ0FuUUNlQUo4QW5BQ2hBS0lBb3dDZ0FLVUFwZ0NuQUtRQXEKCVFDcUFLc0FxQUN0
        QUs0QXJ3Q3NBTEVBc2dDekFMQUF0UUMyQUxjQXRBQzVBTG9BdXdDNEFMMEF2Z0MvQUx3QXdRRENBCglNTUF3QURGQU1ZQXh3REVBTWtBeWdETEFNZ0F6UURPQU04QXpB
        RFJBTklBMHdEUUFOVUExZ0RYQU5RQTJRRGFBTnNBMgoJQURkQU40QTN3RGNBT0VBNGdEakFPQUE1UURtQU9jQTVBRHBBT29BNndEb0FPMEE3Z0R2QU93QThRRHlBUE1B
        OEFEMUEKCVBZQTl3RDBBUGtBK2dEN0FQZ0EvUUQrQVA4QS9BRURBUDRBL1FEOEFQOEErZ0Q1QVBnQSt3RDJBUFVBOUFEM0FQSUE4CglRRHdBUE1BN2dEdEFPd0E3d0Rx
        QU9rQTZBRHJBT1lBNVFEa0FPY0E0Z0RoQU9BQTR3RGVBTjBBM0FEZkFOb0EyUURZQQoJTnNBMWdEVkFOUUExd0RTQU5FQTBBRFRBTTRBelFETUFNOEF5Z0RKQU1nQXl3
        REdBTVVBeEFESEFNSUF3UURBQU1NQXYKCWdDOUFMd0F2d0M2QUxrQXVBQzdBTFlBdFFDMEFMY0FzZ0N4QUxBQXN3Q3VBSzBBckFDdkFLb0FxUUNvQUtzQXBnQ2xBCglL
        UUFwd0NpQUtFQW9BQ2pBSjRBblFDY0FKOEFtZ0NaQUpnQW13Q1dBSlVBbEFDWEFKSUFrUUNRQUpNQWpnQ05BSXdBagoJd0NLQUlrQWlBQ0xBSVlBaFFDRUFJY0FnZ0NC
        QUlBQWd3QitBSDBBZkFCL0FIb0FlUUI0QUhzQWRnQjFBSFFBZHdCeUEKCUhFQWNBQnpBRzRBYlFCc0FHOEFhZ0JwQUdnQWF3Qm1BR1VBWkFCbkFHSUFZUUJnQUdNQVhn
        QmRBRndBWHdCYUFGa0FXCglBQmJBRllBVlFCVUFGY0FVZ0JSQUZBQVV3Qk9BRTBBVEFCUEFFb0FTUUJJQUVzQVJnQkZBRVFBUndCQ0FFRUFRQUJEQQoJRDRBUFFBOEFE
        OEFPZ0E1QURnQU93QTJBRFVBTkFBM0FESUFNUUF3QURNQUxnQXRBQ3dBTHdBcUFDa0FLQUFyQUNZQUoKCVFBa0FDY0FJZ0FoQUNBQUl3QWVBQjBBSEFBZkFCb0FHUUFZ
        QUJzQUZnQVZBQlFBRndBU0FCRUFFQUFUQUE0QURRQU1BCglBOEFDZ0FKQUFnQUN3QUdBQVVBQkFBSEFBSUFBUUFBQUFNRC9nUDlBL3dEL3dQNkEva0QrQVA3QS9ZRDlR
        UDBBL2NEOAoJZ1B4QS9BRDh3UHVBKzBEN0FQdkErb0Q2UVBvQStzRDVnUGxBK1FENXdQaUErRUQ0QVBqQTk0RDNRUGNBOThEMmdQWkEKCTlnRDJ3UFdBOVVEMUFQWEE5
        SUQwUVBRQTlNRHpnUE5BOHdEendQS0E4a0R5QVBMQThZRHhRUEVBOGNEd2dQQkE4QUR3Cgl3TytBNzBEdkFPL0E3b0R1UU80QTdzRHRnTzFBN1FEdHdPeUE3RURzQU96
        QTY0RHJRT3NBNjhEcWdPcEE2Z0Rxd09tQQoJNlVEcEFPbkE2SURvUU9nQTZNRG5nT2RBNXdEbndPYUE1a0RtQU9iQTVZRGxRT1VBNWNEa2dPUkE1QURrd09PQTQwRGoK
        CUFPUEE0b0RpUU9JQTRzRGhnT0ZBNFFEaHdPQ0E0RURnQU9EQTM0RGZRTjhBMzhEZWdONUEzZ0Rld04yQTNVRGRBTjNBCgkzSURjUU53QTNNRGJnTnRBMndEYndOcUEy
        a0RhQU5yQTJZRFpRTmtBMmNEWWdOaEEyQURZd05lQTEwRFhBTmZBMW9EVwoJUU5ZQTFzRFZnTlZBMVFEVndOU0ExRURVQU5UQTA0RFRRTk1BMDhEU2dOSkEwZ0RTd05H
        QTBVRFJBTkhBMElEUVFOQUEKCTBNRFBnTTlBendEUHdNNkF6a0RPQU03QXpZRE5RTTBBemNETWdNeEF6QURNd011QXkwRExBTXZBeW9ES1FNb0F5c0RKCglnTWxBeVFE
        SndNaUF5RURJQU1qQXg0REhRTWNBeDhER2dNWkF4Z0RHd01XQXhVREZBTVhBeElERVFNUUF4TUREZ01OQQoJd3dERHdNS0F3a0RDQU1MQXdZREJRTUVBd2NEQWdNQkF3
        QURBUU1DQXdNREFBTUZBd1lEQndNRUF3a0RDZ01MQXdnREQKCVFNT0F3OEREQU1SQXhJREV3TVFBeFVERmdNWEF4UURHUU1hQXhzREdBTWRBeDRESHdNY0F5RURJZ01q
        QXlBREpRTW1BCgl5Y0RKQU1wQXlvREt3TW9BeTBETGdNdkF5d0RNUU15QXpNRE1BTTFBellETndNMEF6a0RPZ003QXpnRFBRTStBejhEUAoJQU5CQTBJRFF3TkFBMFVE
        UmdOSEEwUURTUU5LQTBzRFNBTk5BMDREVHdOTUExRURVZ05UQTFBRFZRTldBMWNEVkFOWkEKCTFvRFd3TllBMTBEWGdOZkExd0RZUU5pQTJNRFlBTmxBMllEWndOa0Ey
        a0RhZ05yQTJnRGJRTnVBMjhEYkFOeEEzSURjCgl3TndBM1VEZGdOM0EzUURlUU42QTNzRGVBTjlBMzREZndOOEE0RURnZ09EQTRBRGhRT0dBNGNEaEFPSkE0b0Rpd09J
        QQoJNDBEamdPUEE0d0RrUU9TQTVNRGtBT1ZBNVlEbHdPVUE1a0RtZ09iQTVnRG5RT2VBNThEbkFPaEE2SURvd09nQTZVRHAKCWdPbkE2UURxUU9xQTZzRHFBT3RBNjRE
        cndPc0E3RURzZ096QTdBRHRRTzJBN2NEdEFPNUE3b0R1d080QTcwRHZnTy9BCgk3d0R3UVBDQThNRHdBUEZBOFlEeHdQRUE4a0R5Z1BMQThnRHpRUE9BODhEekFQUkE5
        SUQwd1BRQTlVRDFnUFhBOVFEMgoJUVBhQTlzRDJBUGRBOTREM3dQY0ErRUQ0Z1BqQStBRDVRUG1BK2NENUFQcEErb0Q2d1BvQSswRDdnUHZBK3dEOFFQeUEKCS9NRDhB
        UDFBL1lEOXdQMEEva0QrZ1A3QS9nRC9RUCtBLzhEL0FBQkFBSUFBd0FBQUFVQUJnQUhBQVFBQ1FBS0FBc0FDCglBQU5BQTRBRHdBTUFCRUFFZ0FUQUJBQUZRQVdBQmNB
        RkFBWkFCb0FHd0FZQUIwQUhnQWZBQndBSVFBaUFDTUFJQUFsQQoJQ1lBSndBa0FDa0FLZ0FyQUNnQUxRQXVBQzhBTEFBeEFESUFNd0F3QURVQU5nQTNBRFFBT1FBNkFE
        c0FPQUE5QUQ0QVAKCXdBOEFFRUFRZ0JEQUVBQVJRQkdBRWNBUkFCSkFFb0FTd0JJQUUwQVRnQlBBRXdBVVFCU0FGTUFVQUJWQUZZQVZ3QlVBCglGa0FXZ0JiQUZnQVhR
        QmVBRjhBWEFCaEFHSUFZd0JnQUdVQVpnQm5BR1FBYVFCcUFHc0FhQUJ0QUc0QWJ3QnNBSEVBYwoJZ0J6QUhBQWRRQjJBSGNBZEFCNUFIb0Fld0I0QUgwQWZnQi9BSHdB
        Z1FDQ0FJTUFnQUNGQUlZQWh3Q0VBSWtBaWdDTEEKCUlnQWpRQ09BSThBakFDUkFKSUFrd0NRQUpVQWxnQ1hBSlFBbVFDYUFKc0FtQUNkQUo0QW53Q2NBS0VBb2dDakFL
        QUFwCglRQ21BS2NBcEFDcEFLb0Fxd0NvQUswQXJnQ3ZBS3dBc1FDeUFMTUFzQUMxQUxZQXR3QzBBTGtBdWdDN0FMZ0F2UUMrQQoJTDhBdkFEQkFNSUF3d0RBQU1VQXhn
        REhBTVFBeVFES0FNc0F5QUROQU00QXp3RE1BTkVBMGdEVEFOQUExUURXQU5jQTEKCUFEWkFOb0Eyd0RZQU4wQTNnRGZBTndBNFFEaUFPTUE0QURsQU9ZQTV3RGtBT2tB
        NmdEckFPZ0E3UUR1QU84QTdBRHhBCglQSUE4d0R3QVBVQTlnRDNBUFFBK1FENkFQc0ErQUQ5QVA0QS93RDhBUU1BL2dEOUFQd0Evd0Q2QVBrQStBRDdBUFlBOQoJUUQw
        QVBjQThnRHhBUEFBOHdEdUFPMEE3QUR2QU9vQTZRRG9BT3NBNWdEbEFPUUE1d0RpQU9FQTRBRGpBTjRBM1FEY0EKCU44QTJnRFpBTmdBMndEV0FOVUExQURYQU5JQTBR
        RFFBTk1BemdETkFNd0F6d0RLQU1rQXlBRExBTVlBeFFERUFNY0F3CglnREJBTUFBd3dDK0FMMEF2QUMvQUxvQXVRQzRBTHNBdGdDMUFMUUF0d0N5QUxFQXNBQ3pBSzRB
        clFDc0FLOEFxZ0NwQQoJS2dBcXdDbUFLVUFwQUNuQUtJQW9RQ2dBS01BbmdDZEFKd0Fud0NhQUprQW1BQ2JBSllBbFFDVUFKY0FrZ0NSQUpBQWsKCXdDT0FJMEFqQUNQ
        QUlvQWlRQ0lBSXNBaGdDRkFJUUFod0NDQUlFQWdBQ0RBSDRBZlFCOEFIOEFlZ0I1QUhnQWV3QjJBCglIVUFkQUIzQUhJQWNRQndBSE1BYmdCdEFHd0Fid0JxQUdrQWFB
        QnJBR1lBWlFCa0FHY0FZZ0JoQUdBQVl3QmVBRjBBWAoJQUJmQUZvQVdRQllBRnNBVmdCVkFGUUFWd0JTQUZFQVVBQlRBRTRBVFFCTUFFOEFTZ0JKQUVnQVN3QkdBRVVB
        UkFCSEEKCUVJQVFRQkFBRU1BUGdBOUFEd0FQd0E2QURrQU9BQTdBRFlBTlFBMEFEY0FNZ0F4QURBQU13QXVBQzBBTEFBdkFDb0FLCglRQW9BQ3NBSmdBbEFDUUFKd0Fp
        QUNFQUlBQWpBQjRBSFFBY0FCOEFHZ0FaQUJnQUd3QVdBQlVBRkFBWEFCSUFFUUFRQQoJQk1BRGdBTkFBd0FEd0FLQUFrQUNBQUxBQVlBQlFBRUFBY0FBZ0FCQUFBQUF3
        UCtBLzBEL0FQL0Evb0QrUVA0QS9zRDkKCWdQMUEvUUQ5d1B5QS9FRDhBUHpBKzREN1FQc0ErOEQ2Z1BwQStnRDZ3UG1BK1VENUFQbkErSUQ0UVBnQStNRDNnUGRBCgk5
        d0Qzd1BhQTlrRDJBUGJBOVlEMVFQVUE5Y0QwZ1BSQTlBRDB3UE9BODBEekFQUEE4b0R5UVBJQThzRHhnUEZBOFFEeAoJd1BDQThFRHdBUERBNzREdlFPOEE3OER1Z081
        QTdnRHV3TzJBN1VEdEFPM0E3SURzUU93QTdNRHJnT3RBNndEcndPcUEKCTZrRHFBT3JBNllEcFFPa0E2Y0RvZ09oQTZBRG93T2VBNTBEbkFPZkE1b0RtUU9ZQTVzRGxn
        T1ZBNVFEbHdPU0E1RURrCglBT1RBNDREalFPTUE0OERpZ09KQTRnRGl3T0dBNFVEaEFPSEE0SURnUU9BQTRNRGZnTjlBM3dEZndONkEza0RlQU43QQoJM1lEZFFOMEEz
        Y0RjZ054QTNBRGN3TnVBMjBEYkFOdkEyb0RhUU5vQTJzRFpnTmxBMlFEWndOaUEyRURZQU5qQTE0RFgKCVFOY0ExOERXZ05aQTFnRFd3TldBMVVEVkFOWEExSURVUU5R
        QTFNRFRnTk5BMHdEVHdOS0Ewa0RTQU5MQTBZRFJRTkVBCgkwY0RRZ05CQTBBRFF3TStBejBEUEFNL0F6b0RPUU00QXpzRE5nTTFBelFETndNeUF6RURNQU16QXk0RExR
        TXNBeThESwoJZ01wQXlnREt3TW1BeVVESkFNbkF5SURJUU1nQXlNREhnTWRBeHdESHdNYUF4a0RHQU1iQXhZREZRTVVBeGNERWdNUkEKCXhBREV3TU9BdzBEREFNUEF3
        b0RDUU1JQXdzREJnTUZBd1FEQndNQ0F3RURBQU1CQXdJREF3TUFBd1VEQmdNSEF3UURDCglRTUtBd3NEQ0FNTkF3NEREd01NQXhFREVnTVRBeEFERlFNV0F4Y0RGQU1a
        QXhvREd3TVlBeDBESGdNZkF4d0RJUU1pQQoJeU1ESUFNbEF5WURKd01rQXlrREtnTXJBeWdETFFNdUF5OERMQU14QXpJRE13TXdBelVETmdNM0F6UURPUU02QXpzRE8K
        CUFNOUF6NERQd004QTBFRFFnTkRBMEFEUlFOR0EwY0RSQU5KQTBvRFN3TklBMDBEVGdOUEEwd0RVUU5TQTFNRFVBTlZBCgkxWURWd05VQTFrRFdnTmJBMWdEWFFOZUEx
        OERYQU5oQTJJRFl3TmdBMlVEWmdObkEyUURhUU5xQTJzRGFBTnRBMjREYgoJd05zQTNFRGNnTnpBM0FEZFFOMkEzY0RkQU41QTNvRGV3TjRBMzBEZmdOL0Ezd0RnUU9D
        QTRNRGdBT0ZBNFlEaHdPRUEKCTRrRGlnT0xBNGdEalFPT0E0OERqQU9SQTVJRGt3T1FBNVVEbGdPWEE1UURtUU9hQTVzRG1BT2RBNTREbndPY0E2RURvCglnT2pBNkFE
        cFFPbUE2Y0RwQU9wQTZvRHF3T29BNjBEcmdPdkE2d0RzUU95QTdNRHNBTzFBN1lEdHdPMEE3a0R1Z083QQoJN2dEdlFPK0E3OER2QVBCQThJRHd3UEFBOFVEeGdQSEE4
        UUR5UVBLQThzRHlBUE5BODREendQTUE5RUQwZ1BUQTlBRDEKCVFQV0E5Y0QxQVBaQTlvRDJ3UFlBOTBEM2dQZkE5d0Q0UVBpQStNRDRBUGxBK1lENXdQa0Era0Q2Z1By
        QStnRDdRUHVBCgkrOEQ3QVB4QS9JRDh3UHdBL1VEOWdQM0EvUUQrUVA2QS9zRCtBUDlBLzREL3dQOEFBQUFBQUFRQUFCQUFCQUFBQUVBQQoJZ0FEQUFBQUJRQUdBQWNB
        QkFBSkFBb0FDd0FJQUEwQURnQVBBQXdBRVFBU0FCTUFFQUFWQUJZQUZ3QVVBQmtBR2dBYkEKCUJnQUhRQWVBQjhBSEFBaEFDSUFJd0FnQUNVQUpnQW5BQ1FBS1FBcUFD
        c0FLQUF0QUM0QUx3QXNBREVBTWdBekFEQUFOCglRQTJBRGNBTkFBNUFEb0FPd0E0QUQwQVBnQS9BRHdBUVFCQ0FFTUFRQUJGQUVZQVJ3QkVBRWtBU2dCTEFFZ0FUUUJP
        QQoJRThBVEFCUkFGSUFVd0JRQUZVQVZnQlhBRlFBV1FCYUFGc0FXQUJkQUY0QVh3QmNBR0VBWWdCakFHQUFaUUJtQUdjQVoKCUFCcEFHb0Fhd0JvQUcwQWJnQnZBR3dB
        Y1FCeUFITUFjQUIxQUhZQWR3QjBBSGtBZWdCN0FIZ0FmUUIrQUg4QWZBQ0JBCglJSUFnd0NBQUlVQWhnQ0hBSVFBaVFDS0FJc0FpQUNOQUk0QWp3Q01BSkVBa2dDVEFK
        QUFsUUNXQUpjQWxBQ1pBSm9BbQoJd0NZQUowQW5nQ2ZBSndBb1FDaUFLTUFvQUNsQUtZQXB3Q2tBS2tBcWdDckFLZ0FyUUN1QUs4QXJBQ3hBTElBc3dDd0EKCUxVQXRn
        QzNBTFFBdVFDNkFMc0F1QUM5QUw0QXZ3QzhBTUVBd2dEREFNQUF4UURHQU1jQXhBREpBTW9BeXdESUFNMEF6CglnRFBBTXdBMFFEU0FOTUEwQURWQU5ZQTF3RFVBTmtB
        MmdEYkFOZ0EzUURlQU44QTNBRGhBT0lBNHdEZ0FPVUE1Z0RuQQoJT1FBNlFEcUFPc0E2QUR0QU80QTd3RHNBUEVBOGdEekFQQUE5UUQyQVBjQTlBRDVBUG9BK3dENEFQ
        MEEvZ0QvQVB3QkEKCXdEK0FQMEEvQUQvQVBvQStRRDRBUHNBOWdEMUFQUUE5d0R5QVBFQThBRHpBTzRBN1FEc0FPOEE2Z0RwQU9nQTZ3RG1BCglPVUE1QURuQU9JQTRR
        RGdBT01BM2dEZEFOd0Ezd0RhQU5rQTJBRGJBTllBMVFEVUFOY0EwZ0RSQU5BQTB3RE9BTTBBegoJQURQQU1vQXlRRElBTXNBeGdERkFNUUF4d0RDQU1FQXdBRERBTDRB
        dlFDOEFMOEF1Z0M1QUxnQXV3QzJBTFVBdEFDM0EKCUxJQXNRQ3dBTE1BcmdDdEFLd0Fyd0NxQUtrQXFBQ3JBS1lBcFFDa0FLY0FvZ0NoQUtBQW93Q2VBSjBBbkFDZkFK
        b0FtCglRQ1lBSnNBbGdDVkFKUUFsd0NTQUpFQWtBQ1RBSTRBalFDTUFJOEFpZ0NKQUlnQWl3Q0dBSVVBaEFDSEFJSUFnUUNBQQoJSU1BZmdCOUFId0Fmd0I2QUhrQWVB
        QjdBSFlBZFFCMEFIY0FjZ0J4QUhBQWN3QnVBRzBBYkFCdkFHb0FhUUJvQUdzQVoKCWdCbEFHUUFad0JpQUdFQVlBQmpBRjRBWFFCY0FGOEFXZ0JaQUZnQVd3QldBRlVB
        VkFCWEFGSUFVUUJRQUZNQVRnQk5BCglFd0FUd0JLQUVrQVNBQkxBRVlBUlFCRUFFY0FRZ0JCQUVBQVF3QStBRDBBUEFBL0FEb0FPUUE0QURzQU5nQTFBRFFBTgoJd0F5
        QURFQU1BQXpBQzRBTFFBc0FDOEFLZ0FwQUNnQUt3QW1BQ1VBSkFBbkFDSUFJUUFnQUNNQUhnQWRBQndBSHdBYUEKCUJrQUdBQWJBQllBRlFBVUFCY0FFZ0FSQUJBQUV3
        QU9BQTBBREFBUEFBb0FDUUFJQUFzQUJnQUZBQVFBQndBQ0FBRUFBCglBQURBLzREL1FQOEEvOEQrZ1A1QS9nRCt3UDJBL1VEOUFQM0EvSUQ4UVB3QS9NRDdnUHRBK3dE
        N3dQcUEra0Q2QVByQQoJK1lENVFQa0ErY0Q0Z1BoQStBRDR3UGVBOTBEM0FQZkE5b0QyUVBZQTlzRDFnUFZBOVFEMXdQU0E5RUQwQVBUQTg0RHoKCVFQTUE4OER5Z1BK
        QThnRHl3UEdBOFVEeEFQSEE4SUR3UVBBQThNRHZnTzlBN3dEdndPNkE3a0R1QU83QTdZRHRRTzBBCgk3Y0RzZ094QTdBRHN3T3VBNjBEckFPdkE2b0RxUU9vQTZzRHBn
        T2xBNlFEcHdPaUE2RURvQU9qQTU0RG5RT2NBNThEbQoJZ09aQTVnRG13T1dBNVVEbEFPWEE1SURrUU9RQTVNRGpnT05BNHdEandPS0E0a0RpQU9MQTRZRGhRT0VBNGNE
        Z2dPQkEKCTRBRGd3TitBMzBEZkFOL0Ezb0RlUU40QTNzRGRnTjFBM1FEZHdOeUEzRURjQU56QTI0RGJRTnNBMjhEYWdOcEEyZ0RhCgl3Tm1BMlVEWkFObkEySURZUU5n
        QTJNRFhnTmRBMXdEWHdOYUExa0RXQU5iQTFZRFZRTlVBMWNEVWdOUkExQURVd05PQQoJMDBEVEFOUEEwb0RTUU5JQTBzRFJnTkZBMFFEUndOQ0EwRURRQU5EQXo0RFBR
        TThBejhET2dNNUF6Z0RPd00yQXpVRE4KCUFNM0F6SURNUU13QXpNRExnTXRBeXdETHdNcUF5a0RLQU1yQXlZREpRTWtBeWNESWdNaEF5QURJd01lQXgwREhBTWZBCgl4
        b0RHUU1ZQXhzREZnTVZBeFFERndNU0F4RURFQU1UQXc0RERRTU1BdzhEQ2dNSkF3Z0RDd01HQXdVREJBTUhBd0lEQQoJUU1BQXdFREFnTURBd0FEQlFNR0F3Y0RCQU1K
        QXdvREN3TUlBdzBERGdNUEF3d0RFUU1TQXhNREVBTVZBeFlERndNVUEKCXhrREdnTWJBeGdESFFNZUF4OERIQU1oQXlJREl3TWdBeVVESmdNbkF5UURLUU1xQXlzREtB
        TXRBeTRETHdNc0F6RURNCglnTXpBekFETlFNMkF6Y0ROQU01QXpvRE93TTRBejBEUGdNL0F6d0RRUU5DQTBNRFFBTkZBMFlEUndORUEwa0RTZ05MQQoJMGdEVFFOT0Ew
        OERUQU5SQTFJRFV3TlFBMVVEVmdOWEExUURXUU5hQTFzRFdBTmRBMTREWHdOY0EyRURZZ05qQTJBRFoKCVFObUEyY0RaQU5wQTJvRGF3Tm9BMjBEYmdOdkEyd0RjUU55
        QTNNRGNBTjFBM1lEZHdOMEEza0RlZ043QTNnRGZRTitBCgkzOERmQU9CQTRJRGd3T0FBNFVEaGdPSEE0UURpUU9LQTRzRGlBT05BNDREandPTUE1RURrZ09UQTVBRGxR
        T1dBNWNEbAoJQU9aQTVvRG13T1lBNTBEbmdPZkE1d0RvUU9pQTZNRG9BT2xBNllEcHdPa0E2a0RxZ09yQTZnRHJRT3VBNjhEckFPeEEKCTdJRHN3T3dBN1VEdGdPM0E3
        UUR1UU82QTdzRHVBTzlBNzREdndPOEE4RUR3Z1BEQThBRHhRUEdBOGNEeEFQSkE4b0R5Cgl3UElBODBEemdQUEE4d0QwUVBTQTlNRDBBUFZBOVlEMXdQVUE5a0QyZ1Bi
        QTlnRDNRUGVBOThEM0FQaEErSUQ0d1BnQQoJK1VENWdQbkErUUQ2UVBxQStzRDZBUHRBKzREN3dQc0EvRUQ4Z1B6QS9BRDlRUDJBL2NEOUFQNUEvb0Qrd1A0QS8wRC8K
        CWdQL0Evd0FBUUFDQUFNQUFBQUZBQVlBQndBRUFBa0FDZ0FMQUFnQURRQU9BQThBREFBUkFCSUFFd0FRQUJVQUZnQVhBCglCUUFHUUFhQUJzQUdBQWRBQjRBSHdBY0FD
        RUFJZ0FqQUNBQUpRQW1BQ2NBSkFBcEFDb0FLd0FvQUMwQUxnQXZBQ3dBTQoJUUF5QURNQU1BQTFBRFlBTndBMEFEa0FPZ0E3QURnQVBRQStBRDhBUEFCQkFFSUFRd0JB
        QUVVQVJnQkhBRVFBU1FCS0EKCUVzQVNBQk5BRTRBVHdCTUFGRUFVZ0JUQUZBQVZRQldBRmNBVkFCWkFGb0FXd0JZQUYwQVhnQmZBRndBWVFCaUFHTUFZCglBQmxBR1lB
        WndCa0FHa0FhZ0JyQUdnQWJRQnVBRzhBYkFCeEFISUFjd0J3QUhVQWRnQjNBSFFBZVFCNkFIc0FlQUI5QQoJSDRBZndCOEFJRUFnZ0NEQUlBQWhRQ0dBSWNBaEFDSkFJ
        b0Fpd0NJQUkwQWpnQ1BBSXdBa1FDU0FKTUFrQUNWQUpZQWwKCXdDVUFKa0FtZ0NiQUpnQW5RQ2VBSjhBbkFDaEFLSUFvd0NnQUtVQXBnQ25BS1FBcVFDcUFLc0FxQUN0
        QUs0QXJ3Q3NBCglMRUFzZ0N6QUxBQXRRQzJBTGNBdEFDNUFMb0F1d0M0QUwwQXZnQy9BTHdBd1FEQ0FNTUF3QURGQU1ZQXh3REVBTWtBeQoJZ0RMQU1nQXpRRE9BTThB
        ekFEUkFOSUEwd0RRQU5VQTFnRFhBTlFBMlFEYUFOc0EyQURkQU40QTN3RGNBT0VBNGdEakEKCU9BQTVRRG1BT2NBNUFEcEFPb0E2d0RvQU8wQTdnRHZBT3dBOFFEeUFQ
        TUE4QUQxQVBZQTl3RDBBUGtBK2dEN0FQZ0EvCglRRCtBUDhBL0FFREFQNEEvUUQ4QVA4QStnRDVBUGdBK3dEMkFQVUE5QUQzQVBJQThRRHdBUE1BN2dEdEFPd0E3d0Rx
        QQoJT2tBNkFEckFPWUE1UURrQU9jQTRnRGhBT0FBNHdEZUFOMEEzQURmQU5vQTJRRFlBTnNBMWdEVkFOUUExd0RTQU5FQTAKCUFEVEFNNEF6UURNQU04QXlnREpBTWdB
        eXdER0FNVUF4QURIQU1JQXdRREFBTU1BdmdDOUFMd0F2d0M2QUxrQXVBQzdBCglMWUF0UUMwQUxjQXNnQ3hBTEFBc3dDdUFLMEFyQUN2QUtvQXFRQ29BS3NBcGdDbEFL
        UUFwd0NpQUtFQW9BQ2pBSjRBbgoJUUNjQUo4QW1nQ1pBSmdBbXdDV0FKVUFsQUNYQUpJQWtRQ1FBSk1BamdDTkFJd0Fqd0NLQUlrQWlBQ0xBSVlBaFFDRUEKCUljQWdn
        Q0JBSUFBZ3dCK0FIMEFmQUIvQUhvQWVRQjRBSHNBZGdCMUFIUUFkd0J5QUhFQWNBQnpBRzRBYlFCc0FHOEFhCglnQnBBR2dBYXdCbUFHVUFaQUJuQUdJQVlRQmdBR01B
        WGdCZEFGd0FYd0JhQUZrQVdBQmJBRllBVlFCVUFGY0FVZ0JSQQoJRkFBVXdCT0FFMEFUQUJQQUVvQVNRQklBRXNBUmdCRkFFUUFSd0JDQUVFQVFBQkRBRDRBUFFBOEFE
        OEFPZ0E1QURnQU8KCXdBMkFEVUFOQUEzQURJQU1RQXdBRE1BTGdBdEFDd0FMd0FxQUNrQUtBQXJBQ1lBSlFBa0FDY0FJZ0FoQUNBQUl3QWVBCglCMEFIQUFmQUJvQUdR
        QVlBQnNBRmdBVkFCUUFGd0FTQUJFQUVBQVRBQTRBRFFBTUFBOEFDZ0FKQUFnQUN3QUdBQVVBQgoJQUFIQUFJQUFRQUFBQU1EL2dQOUEvd0Qvd1A2QS9rRCtBUDdBL1lE
        OVFQMEEvY0Q4Z1B4QS9BRDh3UHVBKzBEN0FQdkEKCStvRDZRUG9BK3NENWdQbEErUUQ1d1BpQStFRDRBUGpBOTREM1FQY0E5OEQyZ1BaQTlnRDJ3UFdBOVVEMUFQWEE5
        SUQwCglRUFFBOU1EemdQTkE4d0R6d1BLQThrRHlBUExBOFlEeFFQRUE4Y0R3Z1BCQThBRHd3TytBNzBEdkFPL0E3b0R1UU80QQoJN3NEdGdPMUE3UUR0d095QTdFRHNB
        T3pBNjREclFPc0E2OERxZ09wQTZnRHF3T21BNlVEcEFPbkE2SURvUU9nQTZNRG4KCWdPZEE1d0Rud09hQTVrRG1BT2JBNVlEbFFPVUE1Y0RrZ09SQTVBRGt3T09BNDBE
        akFPUEE0b0RpUU9JQTRzRGhnT0ZBCgk0UURod09DQTRFRGdBT0RBMzREZlFOOEEzOERlZ041QTNnRGV3TjJBM1VEZEFOM0EzSURjUU53QTNNRGJnTnRBMndEYgoJd05x
        QTJrRGFBTnJBMllEWlFOa0EyY0RZZ05oQTJBRFl3TmVBMTBEWEFOZkExb0RXUU5ZQTFzRFZnTlZBMVFEVndOU0EKCTFFRFVBTlRBMDREVFFOTUEwOERTZ05KQTBnRFN3
        TkdBMFVEUkFOSEEwSURRUU5BQTBNRFBnTTlBendEUHdNNkF6a0RPCglBTTdBellETlFNMEF6Y0RNZ014QXpBRE13TXVBeTBETEFNdkF5b0RLUU1vQXlzREpnTWxBeVFE
        SndNaUF5RURJQU1qQQoJeDRESFFNY0F4OERHZ01aQXhnREd3TVdBeFVERkFNWEF4SURFUU1RQXhNRERnTU5Bd3dERHdNS0F3a0RDQU1MQXdZREIKCVFNRUF3Y0RBZ01C
        QXdBREFRTUNBd01EQUFNRkF3WURCd01FQXdrRENnTUxBd2dERFFNT0F3OEREQU1SQXhJREV3TVFBCgl4VURGZ01YQXhRREdRTWFBeHNER0FNZEF4NERId01jQXlFREln
        TWpBeUFESlFNbUF5Y0RKQU1wQXlvREt3TW9BeTBETAoJZ012QXl3RE1RTXlBek1ETUFNMUF6WUROd00wQXprRE9nTTdBemdEUFFNK0F6OERQQU5CQTBJRFF3TkFBMFVE
        UmdOSEEKCTBRRFNRTktBMHNEU0FOTkEwNERUd05NQTFFRFVnTlRBMUFEVlFOV0ExY0RWQU5aQTFvRFd3TllBMTBEWGdOZkExd0RZCglRTmlBMk1EWUFObEEyWURad05r
        QTJrRGFnTnJBMmdEYlFOdUEyOERiQU54QTNJRGN3TndBM1VEZGdOM0EzUURlUU42QQoJM3NEZUFOOUEzNERmd044QTRFRGdnT0RBNEFEaFFPR0E0Y0RoQU9KQTRvRGl3
        T0lBNDBEamdPUEE0d0RrUU9TQTVNRGsKCUFPVkE1WURsd09VQTVrRG1nT2JBNWdEblFPZUE1OERuQU9oQTZJRG93T2dBNlVEcGdPbkE2UURxUU9xQTZzRHFBT3RBCgk2
        NERyd09zQTdFRHNnT3pBN0FEdFFPMkE3Y0R0QU81QTdvRHV3TzRBNzBEdmdPL0E3d0R3UVBDQThNRHdBUEZBOFlEeAoJd1BFQThrRHlnUExBOGdEelFQT0E4OER6QVBS
        QTlJRDB3UFFBOVVEMWdQWEE5UUQyUVBhQTlzRDJBUGRBOTREM3dQY0EKCStFRDRnUGpBK0FENVFQbUErY0Q1QVBwQStvRDZ3UG9BKzBEN2dQdkErd0Q4UVB5QS9NRDhB
        UDFBL1lEOXdQMEEva0QrCglnUDdBL2dEL1FQK0EvOEQvQUFCQUFJQUF3QUFBQVVBQmdBSEFBUUFDUUFLQUFzQUNBQU5BQTRBRHdBTUFCRUFFZ0FUQQoJQkFBRlFBV0FC
        Y0FGQUFaQUJvQUd3QVlBQjBBSGdBZkFCd0FJUUFpQUNNQUlBQWxBQ1lBSndBa0FDa0FLZ0FyQUNnQUwKCVFBdUFDOEFMQUF4QURJQU13QXdBRFVBTmdBM0FEUUFPUUE2
        QURzQU9BQTlBRDRBUHdBOEFFRUFRZ0JEQUVBQVJRQkdBCglFY0FSQUJKQUVvQVN3QklBRTBBVGdCUEFFd0FVUUJTQUZNQVVBQlZBRllBVndCVUFGa0FXZ0JiQUZnQVhR
        QmVBRjhBWAoJQUJoQUdJQVl3QmdBR1VBWmdCbkFHUUFhUUJxQUdzQWFBQnRBRzRBYndCc0FIRUFjZ0J6QUhBQWRRQjJBSGNBZEFCNUEKCUhvQWV3QjRBSDBBZmdCL0FI
        d0FnUUNDQUlNQWdBQ0ZBSVlBaHdDRUFJa0FpZ0NMQUlnQWpRQ09BSThBakFDUkFKSUFrCgl3Q1FBSlVBbGdDWEFKUUFtUUNhQUpzQW1BQ2RBSjRBbndDY0FLRUFvZ0Nq
        QUtBQXBRQ21BS2NBcEFDcEFLb0Fxd0NvQQoJSzBBcmdDdkFLd0FzUUN5QUxNQXNBQzFBTFlBdHdDMEFMa0F1Z0M3QUxnQXZRQytBTDhBdkFEQkFNSUF3d0RBQU1VQXgK
        CWdESEFNUUF5UURLQU1zQXlBRE5BTTRBendETUFORUEwZ0RUQU5BQTFRRFdBTmNBMUFEWkFOb0Eyd0RZQU4wQTNnRGZBCglOd0E0UURpQU9NQTRBRGxBT1lBNXdEa0FP
        a0E2Z0RyQU9nQTdRRHVBTzhBN0FEeEFQSUE4d0R3QVBVQTlnRDNBUFFBKwoJUUQ2QVBzQStBRDlBUDRBL3dEOEFRTUEvZ0Q5QVB3QS93RDZBUGtBK0FEN0FQWUE5UUQw
        QVBjQThnRHhBUEFBOHdEdUEKCU8wQTdBRHZBT29BNlFEb0FPc0E1Z0RsQU9RQTV3RGlBT0VBNEFEakFONEEzUURjQU44QTJnRFpBTmdBMndEV0FOVUExCglBRFhBTklB
        MFFEUUFOTUF6Z0ROQU13QXp3REtBTWtBeUFETEFNWUF4UURFQU1jQXdnREJBTUFBd3dDK0FMMEF2QUMvQQoJTG9BdVFDNEFMc0F0Z0MxQUxRQXR3Q3lBTEVBc0FDekFL
        NEFyUUNzQUs4QXFnQ3BBS2dBcXdDbUFLVUFwQUNuQUtJQW8KCVFDZ0FLTUFuZ0NkQUp3QW53Q2FBSmtBbUFDYkFKWUFsUUNVQUpjQWtnQ1JBSkFBa3dDT0FJMEFqQUNQ
        QUlvQWlRQ0lBCglJc0FoZ0NGQUlRQWh3Q0NBSUVBZ0FDREFINEFmUUI4QUg4QWVnQjVBSGdBZXdCMkFIVUFkQUIzQUhJQWNRQndBSE1BYgoJZ0J0QUd3QWJ3QnFBR2tB
        YUFCckFHWUFaUUJrQUdjQVlnQmhBR0FBWXdCZUFGMEFYQUJmQUZvQVdRQllBRnNBVmdCVkEKCUZRQVZ3QlNBRkVBVUFCVEFFNEFUUUJNQUU4QVNnQkpBRWdBU3dCR0FF
        VUFSQUJIQUVJQVFRQkFBRU1BUGdBOUFEd0FQCgl3QTZBRGtBT0FBN0FEWUFOUUEwQURjQU1nQXhBREFBTXdBdUFDMEFMQUF2QUNvQUtRQW9BQ3NBSmdBbEFDUUFKd0Fp
        QQoJQ0VBSUFBakFCNEFIUUFjQUI4QUdnQVpBQmdBR3dBV0FCVUFGQUFYQUJJQUVRQVFBQk1BRGdBTkFBd0FEd0FLQUFrQUMKCUFBTEFBWUFCUUFFQUFjQUFnQUJBQUFB
        QXdQK0EvMEQvQVAvQS9vRCtRUDRBL3NEOWdQMUEvUUQ5d1B5QS9FRDhBUHpBCgkrNEQ3UVBzQSs4RDZnUHBBK2dENndQbUErVUQ1QVBuQStJRDRRUGdBK01EM2dQZEE5
        d0Qzd1BhQTlrRDJBUGJBOVlEMQoJUVBVQTljRDBnUFJBOUFEMHdQT0E4MER6QVBQQThvRHlRUElBOHNEeGdQRkE4UUR4d1BDQThFRHdBUERBNzREdlFPOEEKCTc4RHVn
        TzVBN2dEdXdPMkE3VUR0QU8zQTdJRHNRT3dBN01EcmdPdEE2d0Ryd09xQTZrRHFBT3JBNllEcFFPa0E2Y0RvCglnT2hBNkFEb3dPZUE1MERuQU9mQTVvRG1RT1lBNXNE
        bGdPVkE1UURsd09TQTVFRGtBT1RBNDREalFPTUE0OERpZ09KQQoJNGdEaXdPR0E0VURoQU9IQTRJRGdRT0FBNE1EZmdOOUEzd0Rmd042QTNrRGVBTjdBM1lEZFFOMEEz
        Y0RjZ054QTNBRGMKCXdOdUEyMERiQU52QTJvRGFRTm9BMnNEWmdObEEyUURad05pQTJFRFlBTmpBMTREWFFOY0ExOERXZ05aQTFnRFd3TldBCgkxVURWQU5YQTFJRFVR
        TlFBMU1EVGdOTkEwd0RUd05LQTBrRFNBTkxBMFlEUlFORUEwY0RRZ05CQTBBRFF3TStBejBEUAoJQU0vQXpvRE9RTTRBenNETmdNMUF6UUROd015QXpFRE1BTXpBeTRE
        TFFNc0F5OERLZ01wQXlnREt3TW1BeVVESkFNbkEKCXlJRElRTWdBeU1ESGdNZEF4d0RId01hQXhrREdBTWJBeFlERlFNVUF4Y0RFZ01SQXhBREV3TU9BdzBEREFNUEF3
        b0RDCglRTUlBd3NEQmdNRkF3UURCd01DQXdFREFBTUJBd0lEQXdNQUF3VURCZ01IQXdRRENRTUtBd3NEQ0FNTkF3NEREd01NQQoJeEVERWdNVEF4QURGUU1XQXhjREZB
        TVpBeG9ER3dNWUF4MERIZ01mQXh3RElRTWlBeU1ESUFNbEF5WURKd01rQXlrREsKCWdNckF5Z0RMUU11QXk4RExBTXhBeklETXdNd0F6VUROZ00zQXpRRE9RTTZBenNE
        T0FNOUF6NERQd004QTBFRFFnTkRBCgkwQURSUU5HQTBjRFJBTkpBMG9EU3dOSUEwMERUZ05QQTB3RFVRTlNBMU1EVUFOVkExWURWd05VQTFrRFdnTmJBMWdEWAoJUU5l
        QTE4RFhBTmhBMklEWXdOZ0EyVURaZ05uQTJRRGFRTnFBMnNEYUFOdEEyNERid05zQTNFRGNnTnpBM0FEZFFOMkEKCTNjRGRBTjVBM29EZXdONEEzMERmZ04vQTN3RGdR
        T0NBNE1EZ0FPRkE0WURod09FQTRrRGlnT0xBNGdEalFPT0E0OERqCglBT1JBNUlEa3dPUUE1VURsZ09YQTVRRG1RT2FBNXNEbUFPZEE1NERud09jQTZFRG9nT2pBNkFE
        cFFPbUE2Y0RwQU9wQQoJNm9EcXdPb0E2MERyZ092QTZ3RHNRT3lBN01Ec0FPMUE3WUR0d08wQTdrRHVnTzdBN2dEdlFPK0E3OER2QVBCQThJRHcKCXdQQUE4VUR4Z1BI
        QThRRHlRUEtBOHNEeUFQTkE4NER6d1BNQTlFRDBnUFRBOUFEMVFQV0E5Y0QxQVBaQTlvRDJ3UFlBCgk5MEQzZ1BmQTl3RDRRUGlBK01ENEFQbEErWUQ1d1BrQStrRDZn
        UHJBK2dEN1FQdUErOEQ3QVB4QS9JRDh3UHdBL1VEOQoJZ1AzQS9RRCtRUDZBL3NEK0FQOUEvNEQvd1A4QUFFQUFnQURBQUFBQlFBR0FBY0FCQUFKQUFvQUN3QUlBQTBB
        RGdBUEEKCUF3QUVRQVNBQk1BRUFBVkFCWUFGd0FVQUJrQUdnQWJBQmdBSFFBZUFCOEFIQUFoQUNJQUl3QWdBQ1VBSmdBbkFDUUFLCglRQXFBQ3NBS0FBdEFDNEFMd0Fz
        QURFQU1nQXpBREFBTlFBMkFEY0FOQUE1QURvQU93QTRBRDBBUGdBL0FEd0FRUUJDQQoJRU1BUUFCRkFFWUFSd0JFQUVrQVNnQkxBRWdBVFFCT0FFOEFUQUJSQUZJQVV3
        QlFBRlVBVmdCWEFGUUFXUUJhQUZzQVcKCUFCZEFGNEFYd0JjQUdFQVlnQmpBR0FBWlFCbUFHY0FaQUJwQUdvQWF3Qm9BRzBBYmdCdkFHd0FjUUJ5QUhNQWNBQjFBCglI
        WUFkd0IwQUhrQWVnQjdBSGdBZlFCK0FIOEFmQUNCQUlJQWd3Q0FBSVVBaGdDSEFJUUFpUUNLQUlzQWlBQ05BSTRBagoJd0NNQUpFQWtnQ1RBSkFBbFFDV0FKY0FsQUNa
        QUpvQW13Q1lBSjBBbmdDZkFKd0FvUUNpQUtNQW9BQ2xBS1lBcHdDa0EKCUtrQXFnQ3JBS2dBclFDdUFLOEFyQUN4QUxJQXN3Q3dBTFVBdGdDM0FMUUF1UUM2QUxzQXVB
        QzlBTDRBdndDOEFNRUF3CglnRERBTUFBeFFER0FNY0F4QURKQU1vQXl3RElBTTBBemdEUEFNd0EwUURTQU5NQTBBRFZBTllBMXdEVUFOa0EyZ0RiQQoJTmdBM1FEZUFO
        OEEzQURoQU9JQTR3RGdBT1VBNWdEbkFPUUE2UURxQU9zQTZBRHRBTzRBN3dEc0FQRUE4Z0R6QVBBQTkKCVFEMkFQY0E5QUQ1QVBvQSt3RDRBUDBBL2dEL0FQd0JBd0Qr
        QVAwQS9BRC9BUG9BK1FENEFQc0E5Z0QxQVBRQTl3RHlBCglQRUE4QUR6QU80QTdRRHNBTzhBNmdEcEFPZ0E2d0RtQU9VQTVBRG5BT0lBNFFEZ0FPTUEzZ0RkQU53QTN3
        RGFBTmtBMgoJQURiQU5ZQTFRRFVBTmNBMGdEUkFOQUEwd0RPQU0wQXpBRFBBTW9BeVFESUFNc0F4Z0RGQU1RQXh3RENBTUVBd0FEREEKCUw0QXZRQzhBTDhBdWdDNUFM
        Z0F1d0MyQUxVQXRBQzNBTElBc1FDd0FMTUFyZ0N0QUt3QXJ3Q3FBS2tBcUFDckFLWUFwCglRQ2tBS2NBb2dDaEFLQUFvd0NlQUowQW5BQ2ZBSm9BbVFDWUFKc0FsZ0NW
        QUpRQWx3Q1NBSkVBa0FDVEFJNEFqUUNNQQoJSThBaWdDSkFJZ0Fpd0NHQUlVQWhBQ0hBSUlBZ1FDQUFJTUFmZ0I5QUh3QWZ3QjZBSGtBZUFCN0FIWUFkUUIwQUhjQWMK
        CWdCeEFIQUFjd0J1QUcwQWJBQnZBR29BYVFCb0FHc0FaZ0JsQUdRQVp3QmlBR0VBWUFCakFGNEFYUUJjQUY4QVdnQlpBCglGZ0FXd0JXQUZVQVZBQlhBRklBVVFCUUFG
        TUFUZ0JOQUV3QVR3QktBRWtBU0FCTEFFWUFSUUJFQUVjQVFnQkJBRUFBUQoJd0ErQUQwQVBBQS9BRG9BT1FBNEFEc0FOZ0ExQURRQU53QXlBREVBTUFBekFDNEFMUUFz
        QUM4QUtnQXBBQ2dBS3dBbUEKCUNVQUpBQW5BQ0lBSVFBZ0FDTUFIZ0FkQUJ3QUh3QWFBQmtBR0FBYkFCWUFGUUFVQUJjQUVnQVJBQkFBRXdBT0FBMEFECglBQVBBQW9B
        Q1FBSUFBc0FCZ0FGQUFRQUJ3QUNBQUVBQUFBREEvNEQvUVA4QS84RCtnUDVBL2dEK3dQMkEvVUQ5QVAzQQoJL0lEOFFQd0EvTUQ3Z1B0QSt3RDd3UHFBK2tENkFQckEr
        WUQ1UVBrQStjRDRnUGhBK0FENHdQZUE5MEQzQVBmQTlvRDIKCVFQWUE5c0QxZ1BWQTlRRDF3UFNBOUVEMEFQVEE4NER6UVBNQTg4RHlnUEpBOGdEeXdQR0E4VUR4QVBI
        QThJRHdRUEFBCgk4TUR2Z085QTd3RHZ3TzZBN2tEdUFPN0E3WUR0UU8wQTdjRHNnT3hBN0FEc3dPdUE2MERyQU92QTZvRHFRT29BNnNEcAoJZ09sQTZRRHB3T2lBNkVE
        b0FPakE1NERuUU9jQTU4RG1nT1pBNWdEbXdPV0E1VURsQU9YQTVJRGtRT1FBNU1EamdPTkEKCTR3RGp3T0tBNGtEaUFPTEE0WURoUU9FQTRjRGdnT0JBNEFEZ3dOK0Ez
        MERmQU4vQTNvRGVRTjRBM3NEZGdOMUEzUURkCgl3TnlBM0VEY0FOekEyNERiUU5zQTI4RGFnTnBBMmdEYXdObUEyVURaQU5uQTJJRFlRTmdBMk1EWGdOZEExd0RYd05h
        QQoJMWtEV0FOYkExWURWUU5VQTFjRFVnTlJBMUFEVXdOT0EwMERUQU5QQTBvRFNRTklBMHNEUmdORkEwUURSd05DQTBFRFEKCUFOREF6NERQUU04QXo4RE9nTTVBemdE
        T3dNMkF6VUROQU0zQXpJRE1RTXdBek1ETGdNdEF5d0RMd01xQXlrREtBTXJBCgl5WURKUU1rQXljRElnTWhBeUFESXdNZUF4MERIQU1mQXhvREdRTVlBeHNERmdNVkF4
        UURGd01TQXhFREVBTVRBdzRERAoJUU1NQXc4RENnTUpBd2dEQ3dNR0F3VURCQU1IQXdJREFRTUFBd0VEQWdNREF3QURCUU1HQXdjREJBTUpBd29EQ3dNSUEKCXcwRERn
        TVBBd3dERVFNU0F4TURFQU1WQXhZREZ3TVVBeGtER2dNYkF4Z0RIUU1lQXg4REhBTWhBeUlESXdNZ0F5VURKCglnTW5BeVFES1FNcUF5c0RLQU10QXk0REx3TXNBekVE
        TWdNekF6QUROUU0yQXpjRE5BTTVBem9ET3dNNEF6MERQZ00vQQoJendEUVFOQ0EwTURRQU5GQTBZRFJ3TkVBMGtEU2dOTEEwZ0RUUU5PQTA4RFRBTlJBMUlEVXdOUUEx
        VURWZ05YQTFRRFcKCVFOYUExc0RXQU5kQTE0RFh3TmNBMkVEWWdOakEyQURaUU5tQTJjRFpBTnBBMm9EYXdOb0EyMERiZ052QTJ3RGNRTnlBCgkzTURjQU4xQTNZRGR3
        TjBBM2tEZWdON0EzZ0RmUU4rQTM4RGZBT0JBNElEZ3dPQUE0VURoZ09IQTRRRGlRT0tBNHNEaQoJQU9OQTQ0RGp3T01BNUVEa2dPVEE1QURsUU9XQTVjRGxBT1pBNW9E
        bXdPWUE1MERuZ09mQTV3RG9RT2lBNk1Eb0FPbEEKCTZZRHB3T2tBNmtEcWdPckE2Z0RyUU91QTY4RHJBT3hBN0lEc3dPd0E3VUR0Z08zQTdRRHVRTzZBN3NEdUFPOUE3
        NER2Cgl3TzhBOEVEd2dQREE4QUR4UVBHQThjRHhBUEpBOG9EeXdQSUE4MER6Z1BQQTh3RDBRUFNBOU1EMEFQVkE5WUQxd1BVQQoJOWtEMmdQYkE5Z0QzUVBlQTk4RDNB
        UGhBK0lENHdQZ0ErVUQ1Z1BuQStRRDZRUHFBK3NENkFQdEErNEQ3d1BzQS9FRDgKCWdQekEvQUQ5UVAyQS9jRDlBUDVBL29EK3dQNEEvMEQvZ1AvQS93QUFRQUNBQU1B
        QUFBRkFBWUFCd0FFQUFrQUNnQUxBCglBZ0FEUUFPQUE4QURBQVJBQklBRXdBUUFCVUFGZ0FYQUJRQUdRQWFBQnNBR0FBZEFCNEFId0FjQUNFQUlnQWpBQ0FBSgoJUUFt
        QUNjQUpBQXBBQ29BS3dBb0FDMEFMZ0F2QUN3QU1RQXlBRE1BTUFBMUFEWUFOd0EwQURrQU9nQTdBRGdBUFFBK0EKCUQ4QVBBQkJBRUlBUXdCQUFFVUFSZ0JIQUVRQVNR
        QktBRXNBU0FCTkFFNEFUd0JNQUZFQVVnQlRBRkFBVlFCV0FGY0FWCglBQlpBRm9BV3dCWUFGMEFYZ0JmQUZ3QVlRQmlBR01BWUFCbEFHWUFad0JrQUdrQWFnQnJBR2dB
        YlFCdUFHOEFiQUJ4QQoJSElBY3dCd0FIVUFkZ0IzQUhRQWVRQjZBSHNBZUFCOUFINEFmd0I4QUlFQWdnQ0RBSUFBaFFDR0FJY0FoQUNKQUlvQWkKCXdDSUFJMEFqZ0NQ
        QUl3QWtRQ1NBSk1Ba0FDVkFKWUFsd0NVQUprQW1nQ2JBSmdBblFDZUFKOEFuQUNoQUtJQW93Q2dBCglLVUFwZ0NuQUtRQXFRQ3FBS3NBcUFDdEFLNEFyd0NzQUxFQXNn
        Q3pBTEFBdFFDMkFMY0F0QUM1QUxvQXV3QzRBTDBBdgoJZ0MvQUx3QXdRRENBTU1Bd0FERkFNWUF4d0RFQU1rQXlnRExBTWdBelFET0FNOEF6QURSQU5JQTB3RFFBTlVB
        MWdEWEEKCU5RQTJRRGFBTnNBMkFEZEFONEEzd0RjQU9FQTRnRGpBT0FBNVFEbUFPY0E1QURwQU9vQTZ3RG9BTzBBN2dEdkFPd0E4CglRRHlBUE1BOEFEMUFQWUE5d0Qw
        QVBrQStnRDdBUGdBL1FEK0FQOEEvQUVEQVA0QS9RRDhBUDhBK2dENUFQZ0Erd0QyQQoJUFVBOUFEM0FQSUE4UUR3QVBNQTdnRHRBT3dBN3dEcUFPa0E2QURyQU9ZQTVR
        RGtBT2NBNGdEaEFPQUE0d0RlQU4wQTMKCUFEZkFOb0EyUURZQU5zQTFnRFZBTlFBMXdEU0FORUEwQURUQU00QXpRRE1BTThBeWdESkFNZ0F5d0RHQU1VQXhBREhBCglN
        SUF3UURBQU1NQXZnQzlBTHdBdndDNkFMa0F1QUM3QUxZQXRRQzBBTGNBc2dDeEFMQUFzd0N1QUswQXJBQ3ZBS29BcQoJUUNvQUtzQXBnQ2xBS1FBcHdDaUFLRUFvQUNq
        QUo0QW5RQ2NBSjhBbWdDWkFKZ0Ftd0NXQUpVQWxBQ1hBSklBa1FDUUEKCUpNQWpnQ05BSXdBandDS0FJa0FpQUNMQUlZQWhRQ0VBSWNBZ2dDQkFJQUFnd0IrQUgwQWZB
        Qi9BSG9BZVFCNEFIc0FkCglnQjFBSFFBZHdCeUFIRUFjQUJ6QUc0QWJRQnNBRzhBYWdCcEFHZ0Fhd0JtQUdVQVpBQm5BR0lBWVFCZ0FHTUFYZ0JkQQoJRndBWHdCYUFG
        a0FXQUJiQUZZQVZRQlVBRmNBVWdCUkFGQUFVd0JPQUUwQVRBQlBBRW9BU1FCSUFFc0FSZ0JGQUVRQVIKCXdCQ0FFRUFRQUJEQUQ0QVBRQThBRDhBT2dBNUFEZ0FPd0Ey
        QURVQU5BQTNBRElBTVFBd0FETUFMZ0F0QUN3QUx3QXFBCglDa0FLQUFyQUNZQUpRQWtBQ2NBSWdBaEFDQUFJd0FlQUIwQUhBQWZBQm9BR1FBWUFCc0FGZ0FWQUJRQUZ3
        QVNBQkVBRQoJQUFUQUE0QURRQU1BQThBQ2dBSkFBZ0FDd0FHQUFVQUJBQUhBQUlBQVFBQUFBTUQvZ1A5QS93RC93UDZBL2tEK0FQN0EKCS9ZRDlRUDBBL2NEOGdQeEEv
        QUQ4d1B1QSswRDdBUHZBK29ENlFQb0Erc0Q1Z1BsQStRRDV3UGlBK0VENEFQakE5NEQzCglRUGNBOThEMmdQWkE5Z0Qyd1BXQTlVRDFBUFhBOUlEMFFQUUE5TUR6Z1BO
        QTh3RHp3UEtBOGtEeUFQTEE4WUR4UVBFQQoJOGNEd2dQQkE4QUR3d08rQTcwRHZBTy9BN29EdVFPNEE3c0R0Z08xQTdRRHR3T3lBN0VEc0FPekE2NERyUU9zQTY4RHEK
        CWdPcEE2Z0Rxd09tQTZVRHBBT25BNklEb1FPZ0E2TURuZ09kQTV3RG53T2FBNWtEbUFPYkE1WURsUU9VQTVjRGtnT1JBCgk1QURrd09PQTQwRGpBT1BBNG9EaVFPSUE0
        c0RoZ09GQTRRRGh3T0NBNEVEZ0FPREEzNERmUU44QTM4RGVnTjVBM2dEZQoJd04yQTNVRGRBTjNBM0lEY1FOd0EzTURiZ050QTJ3RGJ3TnFBMmtEYUFOckEyWURaUU5r
        QTJjRFlnTmhBMkFEWXdOZUEKCTEwRFhBTmZBMW9EV1FOWUExc0RWZ05WQTFRRFZ3TlNBMUVEVUFOVEEwNERUUU5NQTA4RFNnTkpBMGdEU3dOR0EwVURSCglBTkhBMElE
        UVFOQUEwTURQZ005QXp3RFB3TTZBemtET0FNN0F6WUROUU0wQXpjRE1nTXhBekFETXdNdUF5MERMQU12QQoJeW9ES1FNb0F5c0RKZ01sQXlRREp3TWlBeUVESUFNakF4
        NERIUU1jQXg4REdnTVpBeGdER3dNV0F4VURGQU1YQXhJREUKCVFNUUF4TUREZ01OQXd3RER3TUtBd2tEQ0FNTEF3WURCUU1FQXdjREFnTUJBd0FEQVFNQ0F3TURBQU1G
        QXdZREJ3TUVBCgl3a0RDZ01MQXdnRERRTU9BdzhEREFNUkF4SURFd01RQXhVREZnTVhBeFFER1FNYUF4c0RHQU1kQXg0REh3TWNBeUVESQoJZ01qQXlBREpRTW1BeWNE
        SkFNcEF5b0RLd01vQXkwRExnTXZBeXdETVFNeUF6TURNQU0xQXpZRE53TTBBemtET2dNN0EKCXpnRFBRTStBejhEUEFOQkEwSURRd05BQTBVRFJnTkhBMFFEU1FOS0Ew
        c0RTQU5OQTA0RFR3Tk1BMUVEVWdOVEExQURWCglRTldBMWNEVkFOWkExb0RXd05ZQTEwRFhnTmZBMXdEWVFOaUEyTURZQU5sQTJZRFp3TmtBMmtEYWdOckEyZ0RiUU51
        QQoJMjhEYkFOeEEzSURjd053QTNVRGRnTjNBM1FEZVFONkEzc0RlQU45QTM0RGZ3TjhBNEVEZ2dPREE0QURoUU9HQTRjRGgKCUFPSkE0b0Rpd09JQTQwRGpnT1BBNHdE
        a1FPU0E1TURrQU9WQTVZRGx3T1VBNWtEbWdPYkE1Z0RuUU9lQTU4RG5BT2hBCgk2SURvd09nQTZVRHBnT25BNlFEcVFPcUE2c0RxQU90QTY0RHJ3T3NBN0VEc2dPekE3
        QUR0UU8yQTdjRHRBTzVBN29EdQoJd080QTcwRHZnTy9BN3dEd1FQQ0E4TUR3QVBGQThZRHh3UEVBOGtEeWdQTEE4Z0R6UVBPQTg4RHpBUFJBOUlEMHdQUUEKCTlVRDFn
        UFhBOVFEMlFQYUE5c0QyQVBkQTk0RDN3UGNBK0VENGdQakErQUQ1UVBtQStjRDVBUHBBK29ENndQb0ErMEQ3CglnUHZBK3dEOFFQeUEvTUQ4QVAxQS9ZRDl3UDBBL2tE
        K2dQN0EvZ0QvUVArQS84RC9BQUJBQUlBQXdBQUFBVUFCZ0FIQQoJQVFBQ1FBS0FBc0FDQUFOQUE0QUR3QU1BQkVBRWdBVEFCQUFGUUFXQUJjQUZBQVpBQm9BR3dBWUFC
        MEFIZ0FmQUJ3QUkKCVFBaUFDTUFJQUFsQUNZQUp3QWtBQ2tBS2dBckFDZ0FMUUF1QUM4QUxBQXhBRElBTXdBd0FEVUFOZ0EzQURRQU9RQTZBCglEc0FPQUE5QUQ0QVB3
        QThBRUVBUWdCREFFQUFSUUJHQUVjQVJBQkpBRW9BU3dCSUFFMEFUZ0JQQUV3QVVRQlNBRk1BVQoJQUJWQUZZQVZ3QlVBRmtBV2dCYkFGZ0FYUUJlQUY4QVhBQmhBR0lB
        WXdCZ0FHVUFaZ0JuQUdRQWFRQnFBR3NBYUFCdEEKCUc0QWJ3QnNBSEVBY2dCekFIQUFkUUIyQUhjQWRBQjVBSG9BZXdCNEFIMEFmZ0IvQUh3QWdRQ0NBSU1BZ0FDRkFJ
        WUFoCgl3Q0VBSWtBaWdDTEFJZ0FqUUNPQUk4QWpBQ1JBSklBa3dDUUFKVUFsZ0NYQUpRQW1RQ2FBSnNBbUFDZEFKNEFud0NjQQoJS0VBb2dDakFLQUFwUUNtQUtjQXBB
        Q3BBS29BcXdDb0FLMEFyZ0N2QUt3QXNRQ3lBTE1Bc0FDMUFMWUF0d0MwQUxrQXUKCWdDN0FMZ0F2UUMrQUw4QXZBREJBTUlBd3dEQUFNVUF4Z0RIQU1RQXlRREtBTXNB
        eUFETkFNNEF6d0RNQU5FQTBnRFRBCglOQUExUURXQU5jQTFBRFpBTm9BMndEWUFOMEEzZ0RmQU53QTRRRGlBT01BNEFEbEFPWUE1d0RrQU9rQTZnRHJBT2dBNwoJUUR1
        QU84QTdBRHhBUElBOHdEd0FQVUE5Z0QzQVBRQStRRDZBUHNBK0FEOUFQNEEvd0Q4QVFNQS9nRDlBUHdBL3dENkEKCVBrQStBRDdBUFlBOVFEMEFQY0E4Z0R4QVBBQTh3
        RHVBTzBBN0FEdkFPb0E2UURvQU9zQTVnRGxBT1FBNXdEaUFPRUE0CglBRGpBTjRBM1FEY0FOOEEyZ0RaQU5nQTJ3RFdBTlVBMUFEWEFOSUEwUURRQU5NQXpnRE5BTXdB
        endES0FNa0F5QURMQQoJTVlBeFFERUFNY0F3Z0RCQU1BQXd3QytBTDBBdkFDL0FMb0F1UUM0QUxzQXRnQzFBTFFBdHdDeUFMRUFzQUN6QUs0QXIKCVFDc0FLOEFxZ0Nw
        QUtnQXF3Q21BS1VBcEFDbkFLSUFvUUNnQUtNQW5nQ2RBSndBbndDYUFKa0FtQUNiQUpZQWxRQ1VBCglKY0FrZ0NSQUpBQWt3Q09BSTBBakFDUEFJb0FpUUNJQUlzQWhn
        Q0ZBSVFBaHdDQ0FJRUFnQUNEQUg0QWZRQjhBSDhBZQoJZ0I1QUhnQWV3QjJBSFVBZEFCM0FISUFjUUJ3QUhNQWJnQnRBR3dBYndCcUFHa0FhQUJyQUdZQVpRQmtBR2NB
        WWdCaEEKCUdBQVl3QmVBRjBBWEFCZkFGb0FXUUJZQUZzQVZnQlZBRlFBVndCU0FGRUFVQUJUQUU0QVRRQk1BRThBU2dCSkFFZ0FTCgl3QkdBRVVBUkFCSEFFSUFRUUJB
        QUVNQVBnQTlBRHdBUHdBNkFEa0FPQUE3QURZQU5RQTBBRGNBTWdBeEFEQUFNd0F1QQoJQzBBTEFBdkFDb0FLUUFvQUNzQUpnQWxBQ1FBSndBaUFDRUFJQUFqQUI0QUhR
        QWNBQjhBR2dBWkFCZ0FHd0FXQUJVQUYKCUFBWEFCSUFFUUFRQUJNQURnQU5BQXdBRHdBS0FBa0FDQUFMQUFZQUJRQUVBQWNBQWdBQkFBQUFBd1ArQS8wRC9BUC9BCgkv
        b0QrUVA0QS9zRDlnUDFBL1FEOXdQeUEvRUQ4QVB6QSs0RDdRUHNBKzhENmdQcEErZ0Q2d1BtQStVRDVBUG5BK0lENAoJUVBnQStNRDNnUGRBOXdEM3dQYUE5a0QyQVBi
        QTlZRDFRUFVBOWNEMGdQUkE5QUQwd1BPQTgwRHpBUFBBOG9EeVFQSUEKCThzRHhnUEZBOFFEeHdQQ0E4RUR3QVBEQTc0RHZRTzhBNzhEdWdPNUE3Z0R1d08yQTdVRHRB
        TzNBN0lEc1FPd0E3TURyCglnT3RBNndEcndPcUE2a0RxQU9yQTZZRHBRT2tBNmNEb2dPaEE2QURvd09lQTUwRG5BT2ZBNW9EbVFPWUE1c0RsZ09WQQoJNVFEbHdPU0E1
        RURrQU9UQTQ0RGpRT01BNDhEaWdPSkE0Z0Rpd09HQTRVRGhBT0hBNElEZ1FPQUE0TURmZ045QTN3RGYKCXdONkEza0RlQU43QTNZRGRRTjBBM2NEY2dOeEEzQURjd051
        QTIwRGJBTnZBMm9EYVFOb0Eyc0RaZ05sQTJRRFp3TmlBCgkyRURZQU5qQTE0RFhRTmNBMThEV2dOWkExZ0RXd05XQTFVRFZBTlhBMUlEVVFOUUExTURUZ05OQTB3RFR3
        TktBMGtEUwoJQU5MQTBZRFJRTkVBMGNEUWdOQkEwQURRd00rQXowRFBBTS9Bem9ET1FNNEF6c0ROZ00xQXpRRE53TXlBekVETUFNekEKCXk0RExRTXNBeThES2dNcEF5
        Z0RLd01tQXlVREpBTW5BeUlESVFNZ0F5TURIZ01kQXh3REh3TWFBeGtER0FNYkF4WURGCglRTVVBeGNERWdNUkF4QURFd01PQXcwRERBTVBBd29EQ1FNSUF3c0RCZ01G
        QXdRREJ3TUNBd0VEQUFNQkF3SURBd01BQQoJd1VEQmdNSEF3UURDUU1LQXdzRENBTU5BdzRERHdNTUF4RURFZ01UQXhBREZRTVdBeGNERkFNWkF4b0RHd01ZQXgwREgK
        CWdNZkF4d0RJUU1pQXlNRElBTWxBeVlESndNa0F5a0RLZ01yQXlnRExRTXVBeThETEFNeEF6SURNd013QXpVRE5nTTNBCgl6UURPUU02QXpzRE9BTTlBejREUHdNOEEw
        RURRZ05EQTBBRFJRTkdBMGNEUkFOSkEwb0RTd05JQTAwRFRnTlBBMHdEVQoJUU5TQTFNRFVBTlZBMVlEVndOVUExa0RXZ05iQTFnRFhRTmVBMThEWEFOaEEySURZd05n
        QTJVRFpnTm5BMlFEYVFOcUEKCTJzRGFBTnRBMjREYndOc0EzRURjZ056QTNBRGRRTjJBM2NEZEFONUEzb0Rld040QTMwRGZnTi9BM3dEZ1FPQ0E0TURnCglBT0ZBNFlE
        aHdPRUE0a0RpZ09MQTRnRGpRT09BNDhEakFPUkE1SURrd09RQTVVRGxnT1hBNVFEbVFPYUE1c0RtQU9kQQoJNTREbndPY0E2RURvZ09qQTZBRHBRT21BNmNEcEFPcEE2
        b0Rxd09vQTYwRHJnT3ZBNndEc1FPeUE3TURzQU8xQTdZRHQKCXdPMEE3a0R1Z083QTdnRHZRTytBNzhEdkFQQkE4SUR3d1BBQThVRHhnUEhBOFFEeVFQS0E4c0R5QVBO
        QTg0RHp3UE1BCgk5RUQwZ1BUQTlBRDFRUFdBOWNEMUFQWkE5b0Qyd1BZQTkwRDNnUGZBOXdENFFQaUErTUQ0QVBsQStZRDV3UGtBK2tENgoJZ1ByQStnRDdRUHVBKzhE
        N0FQeEEvSUQ4d1B3QS9VRDlnUDNBL1FEK1FQNkEvc0QrQVA5QS80RC93UDhBQUVBQWdBREEKCUFBQUJRQUdBQWNBQkFBSkFBb0FDd0FJQUEwQURnQVBBQXdBRVFBU0FC
        TUFFQUFWQUJZQUZ3QVVBQmtBR2dBYkFCZ0FICglRQWVBQjhBSEFBaEFDSUFJd0FnQUNVQUpnQW5BQ1FBS1FBcUFDc0FLQUF0QUM0QUx3QXNBREVBTWdBekFEQUFOUUEy
        QQoJRGNBTkFBNUFEb0FPd0E0QUQwQVBnQS9BRHdBUVFCQ0FFTUFRQUJGQUVZQVJ3QkVBRWtBU2dCTEFFZ0FUUUJPQUU4QVQKCUFCUkFGSUFVd0JRQUZVQVZnQlhBRlFB
        V1FCYUFGc0FXQUJkQUY0QVh3QmNBR0VBWWdCakFHQUFaUUJtQUdjQVpBQnBBCglHb0Fhd0JvQUcwQWJnQnZBR3dBY1FCeUFITUFjQUIxQUhZQWR3QjBBSGtBZWdCN0FI
        Z0FmUUIrQUg4QWZBQ0JBSUlBZwoJd0NBQUlVQWhnQ0hBSVFBaVFDS0FJc0FpQUNOQUk0QWp3Q01BSkVBa2dDVEFKQUFsUUNXQUpjQWxBQ1pBSm9BbXdDWUEKCUowQW5n
        Q2ZBSndBb1FDaUFLTUFvQUNsQUtZQXB3Q2tBS2tBcWdDckFLZ0FyUUN1QUs4QXJBQ3hBTElBc3dDd0FMVUF0CglnQzNBTFFBdVFDNkFMc0F1QUM5QUw0QXZ3QzhBTUVB
        d2dEREFNQUF4UURHQU1jQXhBREpBTW9BeXdESUFNMEF6Z0RQQQoJTXdBMFFEU0FOTUEwQURWQU5ZQTF3RFVBTmtBMmdEYkFOZ0EzUURlQU44QTNBRGhBT0lBNHdEZ0FP
        VUE1Z0RuQU9RQTYKCVFEcUFPc0E2QUR0QU80QTd3RHNBUEVBOGdEekFQQUE5UUQyQVBjQTlBRDVBUG9BK3dENEFQMEEvZ0QvQVB3QkF3RCtBCglQMEEvQUQvQVBvQStR
        RDRBUHNBOWdEMUFQUUE5d0R5QVBFQThBRHpBTzRBN1FEc0FPOEE2Z0RwQU9nQTZ3RG1BT1VBNQoJQURuQU9JQTRRRGdBT01BM2dEZEFOd0Ezd0RhQU5rQTJBRGJBTllB
        MVFEVUFOY0EwZ0RSQU5BQTB3RE9BTTBBekFEUEEKCU1vQXlRRElBTXNBeGdERkFNUUF4d0RDQU1FQXdBRERBTDRBdlFDOEFMOEF1Z0M1QUxnQXV3QzJBTFVBdEFDM0FM
        SUFzCglRQ3dBTE1BcmdDdEFLd0Fyd0NxQUtrQXFBQ3JBS1lBcFFDa0FLY0FvZ0NoQUtBQW93Q2VBSjBBbkFDZkFKb0FtUUNZQQoJSnNBbGdDVkFKUUFsd0NTQUpFQWtB
        Q1RBSTRBalFDTUFJOEFpZ0NKQUlnQWl3Q0dBSVVBaEFDSEFJSUFnUUNBQUlNQWYKCWdCOUFId0Fmd0I2QUhrQWVBQjdBSFlBZFFCMEFIY0FjZ0J4QUhBQWN3QnVBRzBB
        YkFCdkFHb0FhUUJvQUdzQVpnQmxBCglHUUFad0JpQUdFQVlBQmpBRjRBWFFCY0FGOEFXZ0JaQUZnQVd3QldBRlVBVkFCWEFGSUFVUUJRQUZNQVRnQk5BRXdBVAoJd0JL
        QUVrQVNBQkxBRVlBUlFCRUFFY0FRZ0JCQUVBQVF3QStBRDBBUEFBL0FEb0FPUUE0QURzQU5nQTFBRFFBTndBeUEKCURFQU1BQXpBQzRBTFFBc0FDOEFLZ0FwQUNnQUt3
        QW1BQ1VBSkFBbkFDSUFJUUFnQUNNQUhnQWRBQndBSHdBYUFCa0FHCglBQWJBQllBRlFBVUFCY0FFZ0FSQUJBQUV3QU9BQTBBREFBUEFBb0FDUUFJQUFzQUJnQUZBQVFB
        QndBQ0FBRUFBQUFEQQoJLzREL1FQOEEvOEQrZ1A1QS9nRCt3UDJBL1VEOUFQM0EvSUQ4UVB3QS9NRDdnUHRBK3dEN3dQcUEra0Q2QVByQStZRDUKCVFQa0ErY0Q0Z1Bo
        QStBRDR3UGVBOTBEM0FQZkE5b0QyUVBZQTlzRDFnUFZBOVFEMXdQU0E5RUQwQVBUQTg0RHpRUE1BCgk4OER5Z1BKQThnRHl3UEdBOFVEeEFQSEE4SUR3UVBBQThNRHZn
        TzlBN3dEdndPNkE3a0R1QU83QTdZRHRRTzBBN2NEcwoJZ094QTdBRHN3T3VBNjBEckFPdkE2b0RxUU9vQTZzRHBnT2xBNlFEcHdPaUE2RURvQU9qQTU0RG5RT2NBNThE
        bWdPWkEKCTVnRG13T1dBNVVEbEFPWEE1SURrUU9RQTVNRGpnT05BNHdEandPS0E0a0RpQU9MQTRZRGhRT0VBNGNEZ2dPQkE0QURnCgl3TitBMzBEZkFOL0Ezb0RlUU40
        QTNzRGRnTjFBM1FEZHdOeUEzRURjQU56QTI0RGJRTnNBMjhEYWdOcEEyZ0Rhd05tQQoJMlVEWkFObkEySURZUU5nQTJNRFhnTmRBMXdEWHdOYUExa0RXQU5iQTFZRFZR
        TlVBMWNEVWdOUkExQURVd05PQTAwRFQKCUFOUEEwb0RTUU5JQTBzRFJnTkZBMFFEUndOQ0EwRURRQU5EQXo0RFBRTThBejhET2dNNUF6Z0RPd00yQXpVRE5BTTNBCgl6
        SURNUU13QXpNRExnTXRBeXdETHdNcUF5a0RLQU1yQXlZREpRTWtBeWNESWdNaEF5QURJd01lQXgwREhBTWZBeG9ERwoJUU1ZQXhzREZnTVZBeFFERndNU0F4RURFQU1U
        QXc0RERRTU1BdzhEQ2dNSkF3Z0RDd01HQXdVREJBTUhBd0lEQVFNQUEKCXdFREFnTURBd0FEQlFNR0F3Y0RCQU1KQXdvREN3TUlBdzBERGdNUEF3d0RFUU1TQXhNREVB
        TVZBeFlERndNVUF4a0RHCglnTWJBeGdESFFNZUF4OERIQU1oQXlJREl3TWdBeVVESmdNbkF5UURLUU1xQXlzREtBTXRBeTRETHdNc0F6RURNZ016QQoJekFETlFNMkF6
        Y0ROQU01QXpvRE93TTRBejBEUGdNL0F6d0RRUU5DQTBNRFFBTkZBMFlEUndORUEwa0RTZ05MQTBnRFQKCVFOT0EwOERUQU5SQTFJRFV3TlFBMVVEVmdOWEExUURXUU5h
        QTFzRFdBTmRBMTREWHdOY0EyRURZZ05qQTJBRFpRTm1BCgkyY0RaQU5wQTJvRGF3Tm9BMjBEYmdOdkEyd0RjUU55QTNNRGNBTjFBM1lEZHdOMEEza0RlZ043QTNnRGZR
        TitBMzhEZgoJQU9CQTRJRGd3T0FBNFVEaGdPSEE0UURpUU9LQTRzRGlBT05BNDREandPTUE1RURrZ09UQTVBRGxRT1dBNWNEbEFPWkEKCTVvRG13T1lBNTBEbmdPZkE1
        d0RvUU9pQTZNRG9BT2xBNllEcHdPa0E2a0RxZ09yQTZnRHJRT3VBNjhEckFPeEE3SURzCgl3T3dBN1VEdGdPM0E3UUR1UU82QTdzRHVBTzlBNzREdndPOEE4RUR3Z1BE
        QThBRHhRUEdBOGNEeEFQSkE4b0R5d1BJQQoJODBEemdQUEE4d0QwUVBTQTlNRDBBUFZBOVlEMXdQVUE5a0QyZ1BiQTlnRDNRUGVBOThEM0FQaEErSUQ0d1BnQStVRDUK
        CWdQbkErUUQ2UVBxQStzRDZBUHRBKzREN3dQc0EvRUQ4Z1B6QS9BRDlRUDJBL2NEOUFQNUEvb0Qrd1A0QS8wRC9nUC9BCgkvd0FBUUFDQUFNQUFBQUZBQVlBQndBRUFB
        a0FDZ0FMQUFnQURRQU9BQThBREFBUkFCSUFFd0FRQUJVQUZnQVhBQlFBRwoJUUFhQUJzQUdBQWRBQjRBSHdBY0FDRUFJZ0FqQUNBQUpRQW1BQ2NBSkFBcEFDb0FLd0Fv
        QUMwQUxnQXZBQ3dBTVFBeUEKCURNQU1BQTFBRFlBTndBMEFEa0FPZ0E3QURnQVBRQStBRDhBUEFCQkFFSUFRd0JBQUVVQVJnQkhBRVFBU1FCS0FFc0FTCglBQk5BRTRB
        VHdCTUFGRUFVZ0JUQUZBQVZRQldBRmNBVkFCWkFGb0FXd0JZQUYwQVhnQmZBRndBWVFCaUFHTUFZQUJsQQoJR1lBWndCa0FHa0FhZ0JyQUdnQWJRQnVBRzhBYkFCeEFI
        SUFjd0J3QUhVQWRnQjNBSFFBZVFCNkFIc0FlQUI5QUg0QWYKCXdCOEFJRUFnZ0NEQUlBQWhRQ0dBSWNBaEFDSkFJb0Fpd0NJQUkwQWpnQ1BBSXdBa1FDU0FKTUFrQUNW
        QUpZQWx3Q1VBCglKa0FtZ0NiQUpnQW5RQ2VBSjhBbkFDaEFLSUFvd0NnQUtVQXBnQ25BS1FBcVFDcUFLc0FxQUN0QUs0QXJ3Q3NBTEVBcwoJZ0N6QUxBQXRRQzJBTGNB
        dEFDNUFMb0F1d0M0QUwwQXZnQy9BTHdBd1FEQ0FNTUF3QURGQU1ZQXh3REVBTWtBeWdETEEKCU1nQXpRRE9BTThBekFEUkFOSUEwd0RRQU5VQTFnRFhBTlFBMlFEYUFO
        c0EyQURkQU40QTN3RGNBT0VBNGdEakFPQUE1CglRRG1BT2NBNUFEcEFPb0E2d0RvQU8wQTdnRHZBT3dBOFFEeUFQTUE4QUQxQVBZQTl3RDBBUGtBK2dEN0FQZ0EvUUQr
        QQoJUDhBL0FFREFQNEEvUUQ4QVA4QStnRDVBUGdBK3dEMkFQVUE5QUQzQVBJQThRRHdBUE1BN2dEdEFPd0E3d0RxQU9rQTYKCUFEckFPWUE1UURrQU9jQTRnRGhBT0FB
        NHdEZUFOMEEzQURmQU5vQTJRRFlBTnNBMWdEVkFOUUExd0RTQU5FQTBBRFRBCglNNEF6UURNQU04QXlnREpBTWdBeXdER0FNVUF4QURIQU1JQXdRREFBTU1BdmdDOUFM
        d0F2d0M2QUxrQXVBQzdBTFlBdAoJUUMwQUxjQXNnQ3hBTEFBc3dDdUFLMEFyQUN2QUtvQXFRQ29BS3NBcGdDbEFLUUFwd0NpQUtFQW9BQ2pBSjRBblFDY0EKCUo4QW1n
        Q1pBSmdBbXdDV0FKVUFsQUNYQUpJQWtRQ1FBSk1BamdDTkFJd0Fqd0NLQUlrQWlBQ0xBSVlBaFFDRUFJY0FnCglnQ0JBSUFBZ3dCK0FIMEFmQUIvQUhvQWVRQjRBSHNB
        ZGdCMUFIUUFkd0J5QUhFQWNBQnpBRzRBYlFCc0FHOEFhZ0JwQQoJR2dBYXdCbUFHVUFaQUJuQUdJQVlRQmdBR01BWGdCZEFGd0FYd0JhQUZrQVdBQmJBRllBVlFCVUFG
        Y0FVZ0JSQUZBQVUKCXdCT0FFMEFUQUJQQUVvQVNRQklBRXNBUmdCRkFFUUFSd0JDQUVFQVFBQkRBRDRBUFFBOEFEOEFPZ0E1QURnQU93QTJBCglEVUFOQUEzQURJQU1R
        QXdBRE1BTGdBdEFDd0FMd0FxQUNrQUtBQXJBQ1lBSlFBa0FDY0FJZ0FoQUNBQUl3QWVBQjBBSAoJQUFmQUJvQUdRQVlBQnNBRmdBVkFCUUFGd0FTQUJFQUVBQVRBQTRB
        RFFBTUFBOEFDZ0FKQUFnQUN3QUdBQVVBQkFBSEEKCUFJQUFRQUFBQU1EL2dQOUEvd0Qvd1A2QS9rRCtBUDdBL1lEOVFQMEEvY0Q4Z1B4QS9BRDh3UHVBKzBEN0FQdkEr
        b0Q2CglRUG9BK3NENWdQbEErUUQ1d1BpQStFRDRBUGpBOTREM1FQY0E5OEQyZ1BaQTlnRDJ3UFdBOVVEMUFQWEE5SUQwUVBRQQoJOU1EemdQTkE4d0R6d1BLQThrRHlB
        UExBOFlEeFFQRUE4Y0R3Z1BCQThBRHd3TytBNzBEdkFPL0E3b0R1UU80QTdzRHQKCWdPMUE3UUR0d095QTdFRHNBT3pBNjREclFPc0E2OERxZ09wQTZnRHF3T21BNlVE
        cEFPbkE2SURvUU9nQTZNRG5nT2RBCgk1d0Rud09hQTVrRG1BT2JBNVlEbFFPVUE1Y0RrZ09SQTVBRGt3T09BNDBEakFPUEE0b0RpUU9JQTRzRGhnT0ZBNFFEaAoJd09D
        QTRFRGdBT0RBMzREZlFOOEEzOERlZ041QTNnRGV3TjJBM1VEZEFOM0EzSURjUU53QTNNRGJnTnRBMndEYndOcUEKCTJrRGFBTnJBMllEWlFOa0EyY0RZZ05oQTJBRFl3
        TmVBMTBEWEFOZkExb0RXUU5ZQTFzRFZnTlZBMVFEVndOU0ExRURVCglBTlRBMDREVFFOTUEwOERTZ05KQTBnRFN3TkdBMFVEUkFOSEEwSURRUU5BQTBNRFBnTTlBendE
        UHdNNkF6a0RPQU03QQoJellETlFNMEF6Y0RNZ014QXpBRE13TXVBeTBETEFNdkF5b0RLUU1vQXlzREpnTWxBeVFESndNaUF5RURJQU1qQXg0REgKCVFNY0F4OERHZ01a
        QXhnREd3TVdBeFVERkFNWEF4SURFUU1RQXhNRERnTU5Bd3dERHdNS0F3a0RDQU1MQXdZREJRTUVBCgl3Y0RBZ01CQXdBREFRTUNBd01EQUFNRkF3WURCd01FQXdrRENn
        TUxBd2dERFFNT0F3OEREQU1SQXhJREV3TVFBeFVERgoJZ01YQXhRREdRTWFBeHNER0FNZEF4NERId01jQXlFRElnTWpBeUFESlFNbUF5Y0RKQU1wQXlvREt3TW9BeTBE
        TGdNdkEKCXl3RE1RTXlBek1ETUFNMUF6WUROd00wQXprRE9nTTdBemdEUFFNK0F6OERQQU5CQTBJRFF3TkFBMFVEUmdOSEEwUURTCglRTktBMHNEU0FOTkEwNERUd05N
        QTFFRFVnTlRBMUFEVlFOV0ExY0RWQU5aQTFvRFd3TllBMTBEWGdOZkExd0RZUU5pQQoJMk1EWUFObEEyWURad05rQTJrRGFnTnJBMmdEYlFOdUEyOERiQU54QTNJRGN3
        TndBM1VEZGdOM0EzUURlUU42QTNzRGUKCUFOOUEzNERmd044QTRFRGdnT0RBNEFEaFFPR0E0Y0RoQU9KQTRvRGl3T0lBNDBEamdPUEE0d0RrUU9TQTVNRGtBT1ZBCgk1
        WURsd09VQTVrRG1nT2JBNWdEblFPZUE1OERuQU9oQTZJRG93T2dBNlVEcGdPbkE2UURxUU9xQTZzRHFBT3RBNjREcgoJd09zQTdFRHNnT3pBN0FEdFFPMkE3Y0R0QU81
        QTdvRHV3TzRBNzBEdmdPL0E3d0R3UVBDQThNRHdBUEZBOFlEeHdQRUEKCThrRHlnUExBOGdEelFQT0E4OER6QVBSQTlJRDB3UFFBOVVEMWdQWEE5UUQyUVBhQTlzRDJB
        UGRBOTREM3dQY0ErRUQ0CglnUGpBK0FENVFQbUErY0Q1QVBwQStvRDZ3UG9BKzBEN2dQdkErd0Q4UVB5QS9NRDhBUDFBL1lEOXdQMEEva0QrZ1A3QQoJL2dEL1FQK0Ev
        OEQvQUFCQUFJQUF3QUFBQVVBQmdBSEFBUUFDUUFLQUFzQUNBQU5BQTRBRHdBTUFCRUFFZ0FUQUJBQUYKCVFBV0FCY0FGQUFaQUJvQUd3QVlBQjBBSGdBZkFCd0FJUUFp
        QUNNQUlBQWxBQ1lBSndBa0FDa0FLZ0FyQUNnQUxRQXVBCglDOEFMQUF4QURJQU13QXdBRFVBTmdBM0FEUUFPUUE2QURzQU9BQTlBRDRBUHdBOEFFRUFRZ0JEQUVBQVJR
        QkdBRWNBUgoJQUJKQUVvQVN3QklBRTBBVGdCUEFFd0FVUUJTQUZNQVVBQlZBRllBVndCVUFGa0FXZ0JiQUZnQVhRQmVBRjhBWEFCaEEKCUdJQVl3QmdBR1VBWmdCbkFH
        UUFhUUJxQUdzQWFBQnRBRzRBYndCc0FIRUFjZ0J6QUhBQWRRQjJBSGNBZEFCNUFIb0FlCgl3QjRBSDBBZmdCL0FId0FnUUNDQUlNQWdBQ0ZBSVlBaHdDRUFJa0FpZ0NM
        QUlnQWpRQ09BSThBakFDUkFKSUFrd0NRQQoJSlVBbGdDWEFKUUFtUUNhQUpzQW1BQ2RBSjRBbndDY0FLRUFvZ0NqQUtBQXBRQ21BS2NBcEFDcEFLb0Fxd0NvQUswQXIK
        CWdDdkFLd0FzUUN5QUxNQXNBQzFBTFlBdHdDMEFMa0F1Z0M3QUxnQXZRQytBTDhBdkFEQkFNSUF3d0RBQU1VQXhnREhBCglNUUF5UURLQU1zQXlBRE5BTTRBendETUFO
        RUEwZ0RUQU5BQTFRRFdBTmNBMUFEWkFOb0Eyd0RZQU4wQTNnRGZBTndBNAoJUURpQU9NQTRBRGxBT1lBNXdEa0FPa0E2Z0RyQU9nQTdRRHVBTzhBN0FEeEFQSUE4d0R3
        QVBVQTlnRDNBUFFBK1FENkEKCVBzQStBRDlBUDRBL3dEOEFRTUEvZ0Q5QVB3QS93RDZBUGtBK0FEN0FQWUE5UUQwQVBjQThnRHhBUEFBOHdEdUFPMEE3CglBRHZBT29B
        NlFEb0FPc0E1Z0RsQU9RQTV3RGlBT0VBNEFEakFONEEzUURjQU44QTJnRFpBTmdBMndEV0FOVUExQURYQQoJTklBMFFEUUFOTUF6Z0ROQU13QXp3REtBTWtBeUFETEFN
        WUF4UURFQU1jQXdnREJBTUFBd3dDK0FMMEF2QUMvQUxvQXUKCVFDNEFMc0F0Z0MxQUxRQXR3Q3lBTEVBc0FDekFLNEFyUUNzQUs4QXFnQ3BBS2dBcXdDbUFLVUFwQUNu
        QUtJQW9RQ2dBCglLTUFuZ0NkQUp3QW53Q2FBSmtBbUFDYkFKWUFsUUNVQUpjQWtnQ1JBSkFBa3dDT0FJMEFqQUNQQUlvQWlRQ0lBSXNBaAoJZ0NGQUlRQWh3Q0NBSUVB
        Z0FDREFINEFmUUI4QUg4QWVnQjVBSGdBZXdCMkFIVUFkQUIzQUhJQWNRQndBSE1BYmdCdEEKCUd3QWJ3QnFBR2tBYUFCckFHWUFaUUJrQUdjQVlnQmhBR0FBWXdCZUFG
        MEFYQUJmQUZvQVdRQllBRnNBVmdCVkFGUUFWCgl3QlNBRkVBVUFCVEFFNEFUUUJNQUU4QVNnQkpBRWdBU3dCR0FFVUFSQUJIQUVJQVFRQkFBRU1BUGdBOUFEd0FQd0E2
        QQoJRGtBT0FBN0FEWUFOUUEwQURjQU1nQXhBREFBTXdBdUFDMEFMQUF2QUNvQUtRQW9BQ3NBSmdBbEFDUUFKd0FpQUNFQUkKCUFBakFCNEFIUUFjQUI4QUdnQVpBQmdB
        R3dBV0FCVUFGQUFYQUJJQUVRQVFBQk1BRGdBTkFBd0FEd0FLQUFrQUNBQUxBCglBWUFCUUFFQUFjQUFnQUJBQUFBQXdQK0EvMEQvQVAvQS9vRCtRUDRBL3NEOWdQMUEv
        UUQ5d1B5QS9FRDhBUHpBKzRENwoJUVBzQSs4RDZnUHBBK2dENndQbUErVUQ1QVBuQStJRDRRUGdBK01EM2dQZEE5d0Qzd1BhQTlrRDJBUGJBOVlEMVFQVUEKCTljRDBn
        UFJBOUFEMHdQT0E4MER6QVBQQThvRHlRUElBOHNEeGdQRkE4UUR4d1BDQThFRHdBUERBNzREdlFPOEE3OER1CglnTzVBN2dEdXdPMkE3VUR0QU8zQTdJRHNRT3dBN01E
        cmdPdEE2d0Ryd09xQTZrRHFBT3JBNllEcFFPa0E2Y0RvZ09oQQoJNkFEb3dPZUE1MERuQU9mQTVvRG1RT1lBNXNEbGdPVkE1UURsd09TQTVFRGtBT1RBNDREalFPTUE0
        OERpZ09KQTRnRGkKCXdPR0E0VURoQU9IQTRJRGdRT0FBNE1EZmdOOUEzd0Rmd042QTNrRGVBTjdBM1lEZFFOMEEzY0RjZ054QTNBRGN3TnVBCgkyMERiQU52QTJvRGFR
        Tm9BMnNEWmdObEEyUURad05pQTJFRFlBTmpBMTREWFFOY0ExOERXZ05aQTFnRFd3TldBMVVEVgoJQU5YQTFJRFVRTlFBMU1EVGdOTkEwd0RUd05LQTBrRFNBTkxBMFlE
        UlFORUEwY0RRZ05CQTBBRFF3TStBejBEUEFNL0EKCXpvRE9RTTRBenNETmdNMUF6UUROd015QXpFRE1BTXpBeTRETFFNc0F5OERLZ01wQXlnREt3TW1BeVVESkFNbkF5
        SURJCglRTWdBeU1ESGdNZEF4d0RId01hQXhrREdBTWJBeFlERlFNVUF4Y0RFZ01SQXhBREV3TU9BdzBEREFNUEF3b0RDUU1JQQoJd3NEQmdNRkF3UURCd01DQXdFREFB
        TUJBd0lEQXdNQUF3VURCZ01IQXdRRENRTUtBd3NEQ0FNTkF3NEREd01NQXhFREUKCWdNVEF4QURGUU1XQXhjREZBTVpBeG9ER3dNWUF4MERIZ01mQXh3RElRTWlBeU1E
        SUFNbEF5WURKd01rQXlrREtnTXJBCgl5Z0RMUU11QXk4RExBTXhBeklETXdNd0F6VUROZ00zQXpRRE9RTTZBenNET0FNOUF6NERQd004QTBFRFFnTkRBMEFEUgoJUU5H
        QTBjRFJBTkpBMG9EU3dOSUEwMERUZ05QQTB3RFVRTlNBMU1EVUFOVkExWURWd05VQTFrRFdnTmJBMWdEWFFOZUEKCTE4RFhBTmhBMklEWXdOZ0EyVURaZ05uQTJRRGFR
        TnFBMnNEYUFOdEEyNERid05zQTNFRGNnTnpBM0FEZFFOMkEzY0RkCglBTjVBM29EZXdONEEzMERmZ04vQTN3RGdRT0NBNE1EZ0FPRkE0WURod09FQTRrRGlnT0xBNGdE
        alFPT0E0OERqQU9SQQoJNUlEa3dPUUE1VURsZ09YQTVRRG1RT2FBNXNEbUFPZEE1NERud09jQTZFRG9nT2pBNkFEcFFPbUE2Y0RwQU9wQTZvRHEKCXdPb0E2MERyZ092
        QTZ3RHNRT3lBN01Ec0FPMUE3WUR0d08wQTdrRHVnTzdBN2dEdlFPK0E3OER2QVBCQThJRHd3UEFBCgk4VUR4Z1BIQThRRHlRUEtBOHNEeUFQTkE4NER6d1BNQTlFRDBn
        UFRBOUFEMVFQV0E5Y0QxQVBaQTlvRDJ3UFlBOTBEMwoJZ1BmQTl3RDRRUGlBK01ENEFQbEErWUQ1d1BrQStrRDZnUHJBK2dEN1FQdUErOEQ3QVB4QS9JRDh3UHdBL1VE
        OWdQM0EKCS9RRCtRUDZBL3NEK0FQOUEvNEQvd1A4QUFFQUFnQURBQUFBQlFBR0FBY0FCQUFKQUFvQUN3QUlBQTBBRGdBUEFBd0FFCglRQVNBQk1BRUFBVkFCWUFGd0FV
        QUJrQUdnQWJBQmdBSFFBZUFCOEFIQUFoQUNJQUl3QWdBQ1VBSmdBbkFDUUFLUUFxQQoJQ3NBS0FBdEFDNEFMd0FzQURFQU1nQXpBREFBTlFBMkFEY0FOQUE1QURvQU93
        QTRBRDBBUGdBL0FEd0FRUUJDQUVNQVEKCUFCRkFFWUFSd0JFQUVrQVNnQkxBRWdBVFFCT0FFOEFUQUJSQUZJQVV3QlFBRlVBVmdCWEFGUUFXUUJhQUZzQVdBQmRBCglG
        NEFYd0JjQUdFQVlnQmpBR0FBWlFCbUFHY0FaQUJwQUdvQWF3Qm9BRzBBYmdCdkFHd0FjUUJ5QUhNQWNBQjFBSFlBZAoJd0IwQUhrQWVnQjdBSGdBZlFCK0FIOEFmQUNC
        QUlJQWd3Q0FBSVVBaGdDSEFJUUFpUUNLQUlzQWlBQ05BSTRBandDTUEKCUpFQWtnQ1RBSkFBbFFDV0FKY0FsQUNaQUpvQW13Q1lBSjBBbmdDZkFKd0FvUUNpQUtNQW9B
        Q2xBS1lBcHdDa0FLa0FxCglnQ3JBS2dBclFDdUFLOEFyQUN4QUxJQXN3Q3dBTFVBdGdDM0FMUUF1UUM2QUxzQXVBQzlBTDRBdndDOEFNRUF3Z0REQQoJTUFBeFFER0FN
        Y0F4QURKQU1vQXl3RElBTTBBemdEUEFNd0EwUURTQU5NQTBBRFZBTllBMXdEVUFOa0EyZ0RiQU5nQTMKCVFEZUFOOEEzQURoQU9JQTR3RGdBT1VBNWdEbkFPUUE2UURx
        QU9zQTZBRHRBTzRBN3dEc0FQRUE4Z0R6QVBBQTlRRDJBCglQY0E5QUQ1QVBvQSt3RDRBUDBBL2dEL0FQd0JBd0QrQVAwQS9BRC9BUG9BK1FENEFQc0E5Z0QxQVBRQTl3
        RHlBUEVBOAoJQUR6QU80QTdRRHNBTzhBNmdEcEFPZ0E2d0RtQU9VQTVBRG5BT0lBNFFEZ0FPTUEzZ0RkQU53QTN3RGFBTmtBMkFEYkEKCU5ZQTFRRFVBTmNBMGdEUkFO
        QUEwd0RPQU0wQXpBRFBBTW9BeVFESUFNc0F4Z0RGQU1RQXh3RENBTUVBd0FEREFMNEF2CglRQzhBTDhBdWdDNUFMZ0F1d0MyQUxVQXRBQzNBTElBc1FDd0FMTUFyZ0N0
        QUt3QXJ3Q3FBS2tBcUFDckFLWUFwUUNrQQoJS2NBb2dDaEFLQUFvd0NlQUowQW5BQ2ZBSm9BbVFDWUFKc0FsZ0NWQUpRQWx3Q1NBSkVBa0FDVEFJNEFqUUNNQUk4QWkK
        CWdDSkFJZ0Fpd0NHQUlVQWhBQ0hBSUlBZ1FDQUFJTUFmZ0I5QUh3QWZ3QjZBSGtBZUFCN0FIWUFkUUIwQUhjQWNnQnhBCglIQUFjd0J1QUcwQWJBQnZBR29BYVFCb0FH
        c0FaZ0JsQUdRQVp3QmlBR0VBWUFCakFGNEFYUUJjQUY4QVdnQlpBRmdBVwoJd0JXQUZVQVZBQlhBRklBVVFCUUFGTUFUZ0JOQUV3QVR3QktBRWtBU0FCTEFFWUFSUUJF
        QUVjQVFnQkJBRUFBUXdBK0EKCUQwQVBBQS9BRG9BT1FBNEFEc0FOZ0ExQURRQU53QXlBREVBTUFBekFDNEFMUUFzQUM4QUtnQXBBQ2dBS3dBbUFDVUFKCglBQW5BQ0lB
        SVFBZ0FDTUFIZ0FkQUJ3QUh3QWFBQmtBR0FBYkFCWUFGUUFVQUJjQUVnQVJBQkFBRXdBT0FBMEFEQUFQQQoJQW9BQ1FBSUFBc0FCZ0FGQUFRQUJ3QUNBQUVBQUFBREEv
        NEQvUVA4QS84RCtnUDVBL2dEK3dQMkEvVUQ5QVAzQS9JRDgKCVFQd0EvTUQ3Z1B0QSt3RDd3UHFBK2tENkFQckErWUQ1UVBrQStjRDRnUGhBK0FENHdQZUE5MEQzQVBm
        QTlvRDJRUFlBCgk5c0QxZ1BWQTlRRDF3UFNBOUVEMEFQVEE4NER6UVBNQTg4RHlnUEpBOGdEeXdQR0E4VUR4QVBIQThJRHdRUEFBOE1EdgoJZ085QTd3RHZ3TzZBN2tE
        dUFPN0E3WUR0UU8wQTdjRHNnT3hBN0FEc3dPdUE2MERyQU92QTZvRHFRT29BNnNEcGdPbEEKCTZRRHB3T2lBNkVEb0FPakE1NERuUU9jQTU4RG1nT1pBNWdEbXdPV0E1
        VURsQU9YQTVJRGtRT1FBNU1EamdPTkE0d0RqCgl3T0tBNGtEaUFPTEE0WURoUU9FQTRjRGdnT0JBNEFEZ3dOK0EzMERmQU4vQTNvRGVRTjRBM3NEZGdOMUEzUURkd055
        QQoJM0VEY0FOekEyNERiUU5zQTI4RGFnTnBBMmdEYXdObUEyVURaQU5uQTJJRFlRTmdBMk1EWGdOZEExd0RYd05hQTFrRFcKCUFOYkExWURWUU5VQTFjRFVnTlJBMUFE
        VXdOT0EwMERUQU5QQTBvRFNRTklBMHNEUmdORkEwUURSd05DQTBFRFFBTkRBCgl6NERQUU04QXo4RE9nTTVBemdET3dNMkF6VUROQU0zQXpJRE1RTXdBek1ETGdNdEF5
        d0RMd01xQXlrREtBTXJBeVlESgoJUU1rQXljRElnTWhBeUFESXdNZUF4MERIQU1mQXhvREdRTVlBeHNERmdNVkF4UURGd01TQXhFREVBTVRBdzRERFFNTUEKCXc4RENn
        TUpBd2dEQ3dNR0F3VURCQU1IQXdJREFRTUFBd0VEQWdNREF3QURCUU1HQXdjREJBTUpBd29EQ3dNSUF3MERECglnTVBBd3dERVFNU0F4TURFQU1WQXhZREZ3TVVBeGtE
        R2dNYkF4Z0RIUU1lQXg4REhBTWhBeUlESXdNZ0F5VURKZ01uQQoJeVFES1FNcUF5c0RLQU10QXk0REx3TXNBekVETWdNekF6QUROUU0yQXpjRE5BTTVBem9ET3dNNEF6
        MERQZ00vQXp3RFEKCVFOQ0EwTURRQU5GQTBZRFJ3TkVBMGtEU2dOTEEwZ0RUUU5PQTA4RFRBTlJBMUlEVXdOUUExVURWZ05YQTFRRFdRTmFBCgkxc0RXQU5kQTE0RFh3
        TmNBMkVEWWdOakEyQURaUU5tQTJjRFpBTnBBMm9EYXdOb0EyMERiZ052QTJ3RGNRTnlBM01EYwoJQU4xQTNZRGR3TjBBM2tEZWdON0EzZ0RmUU4rQTM4RGZBT0JBNElE
        Z3dPQUE0VURoZ09IQTRRRGlRT0tBNHNEaUFPTkEKCTQ0RGp3T01BNUVEa2dPVEE1QURsUU9XQTVjRGxBT1pBNW9EbXdPWUE1MERuZ09mQTV3RG9RT2lBNk1Eb0FPbEE2
        WURwCgl3T2tBNmtEcWdPckE2Z0RyUU91QTY4RHJBT3hBN0lEc3dPd0E3VUR0Z08zQTdRRHVRTzZBN3NEdUFPOUE3NER2d084QQoJOEVEd2dQREE4QUR4UVBHQThjRHhB
        UEpBOG9EeXdQSUE4MER6Z1BQQTh3RDBRUFNBOU1EMEFQVkE5WUQxd1BVQTlrRDIKCWdQYkE5Z0QzUVBlQTk4RDNBUGhBK0lENHdQZ0ErVUQ1Z1BuQStRRDZRUHFBK3NE
        NkFQdEErNEQ3d1BzQS9FRDhnUHpBCgkvQUQ5UVAyQS9jRDlBUDVBL29EK3dQNEEvMEQvZ1AvQS93QUFRQUNBQU1BQUFBRkFBWUFCd0FFQUFrQUNnQUxBQWdBRAoJUUFP
        QUE4QURBQVJBQklBRXdBUUFCVUFGZ0FYQUJRQUdRQWFBQnNBR0FBZEFCNEFId0FjQUNFQUlnQWpBQ0FBSlFBbUEKCUNjQUpBQXBBQ29BS3dBb0FDMEFMZ0F2QUN3QU1R
        QXlBRE1BTUFBMUFEWUFOd0EwQURrQU9nQTdBRGdBUFFBK0FEOEFQCglBQkJBRUlBUXdCQUFFVUFSZ0JIQUVRQVNRQktBRXNBU0FCTkFFNEFUd0JNQUZFQVVnQlRBRkFB
        VlFCV0FGY0FWQUJaQQoJRm9BV3dCWUFGMEFYZ0JmQUZ3QVlRQmlBR01BWUFCbEFHWUFad0JrQUdrQWFnQnJBR2dBYlFCdUFHOEFiQUJ4QUhJQWMKCXdCd0FIVUFkZ0Iz
        QUhRQWVRQjZBSHNBZUFCOUFINEFmd0I4QUlFQWdnQ0RBSUFBaFFDR0FJY0FoQUNKQUlvQWl3Q0lBCglJMEFqZ0NQQUl3QWtRQ1NBSk1Ba0FDVkFKWUFsd0NVQUprQW1n
        Q2JBSmdBblFDZUFKOEFuQUNoQUtJQW93Q2dBS1VBcAoJZ0NuQUtRQXFRQ3FBS3NBcUFDdEFLNEFyd0NzQUxFQXNnQ3pBTEFBdFFDMkFMY0F0QUM1QUxvQXV3QzRBTDBB
        dmdDL0EKCUx3QXdRRENBTU1Bd0FERkFNWUF4d0RFQU1rQXlnRExBTWdBelFET0FNOEF6QURSQU5JQTB3RFFBTlVBMWdEWEFOUUEyCglRRGFBTnNBMkFEZEFONEEzd0Rj
        QU9FQTRnRGpBT0FBNVFEbUFPY0E1QURwQU9vQTZ3RG9BTzBBN2dEdkFPd0E4UUR5QQoJUE1BOEFEMUFQWUE5d0QwQVBrQStnRDdBUGdBL1FEK0FQOEEvQUVEQVA0QS9R
        RDhBUDhBK2dENUFQZ0Erd0QyQVBVQTkKCUFEM0FQSUE4UUR3QVBNQTdnRHRBT3dBN3dEcUFPa0E2QURyQU9ZQTVRRGtBT2NBNGdEaEFPQUE0d0RlQU4wQTNBRGZBCglO
        b0EyUURZQU5zQTFnRFZBTlFBMXdEU0FORUEwQURUQU00QXpRRE1BTThBeWdESkFNZ0F5d0RHQU1VQXhBREhBTUlBdwoJUURBQU1NQXZnQzlBTHdBdndDNkFMa0F1QUM3
        QUxZQXRRQzBBTGNBc2dDeEFMQUFzd0N1QUswQXJBQ3ZBS29BcVFDb0EKCUtzQXBnQ2xBS1FBcHdDaUFLRUFvQUNqQUo0QW5RQ2NBSjhBbWdDWkFKZ0Ftd0NXQUpVQWxB
        Q1hBSklBa1FDUUFKTUFqCglnQ05BSXdBandDS0FJa0FpQUNMQUlZQWhRQ0VBSWNBZ2dDQkFJQUFnd0IrQUgwQWZBQi9BSG9BZVFCNEFIc0FkZ0IxQQoJSFFBZHdCeUFI
        RUFjQUJ6QUc0QWJRQnNBRzhBYWdCcEFHZ0Fhd0JtQUdVQVpBQm5BR0lBWVFCZ0FHTUFYZ0JkQUZ3QVgKCXdCYUFGa0FXQUJiQUZZQVZRQlVBRmNBVWdCUkFGQUFVd0JP
        QUUwQVRBQlBBRW9BU1FCSUFFc0FSZ0JGQUVRQVJ3QkNBCglFRUFRQUJEQUQ0QVBRQThBRDhBT2dBNUFEZ0FPd0EyQURVQU5BQTNBRElBTVFBd0FETUFMZ0F0QUN3QUx3
        QXFBQ2tBSwoJQUFyQUNZQUpRQWtBQ2NBSWdBaEFDQUFJd0FlQUIwQUhBQWZBQm9BR1FBWUFCc0FGZ0FWQUJRQUZ3QVNBQkVBRUFBVEEKCUE0QURRQU1BQThBQ2dBSkFB
        Z0FDd0FHQUFVQUJBQUhBQUlBQVFBQUFBTUQvZ1A5QS93RC93UDZBL2tEK0FQN0EvWUQ5CglRUDBBL2NEOGdQeEEvQUQ4d1B1QSswRDdBUHZBK29ENlFQb0Erc0Q1Z1Bs
        QStRRDV3UGlBK0VENEFQakE5NEQzUVBjQQoJOThEMmdQWkE5Z0Qyd1BXQTlVRDFBUFhBOUlEMFFQUUE5TUR6Z1BOQTh3RHp3UEtBOGtEeUFQTEE4WUR4UVBFQThjRHcK
        CWdQQkE4QUR3d08rQTcwRHZBTy9BN29EdVFPNEE3c0R0Z08xQTdRRHR3T3lBN0VEc0FPekE2NERyUU9zQTY4RHFnT3BBCgk2Z0Rxd09tQTZVRHBBT25BNklEb1FPZ0E2
        TURuZ09kQTV3RG53T2FBNWtEbUFPYkE1WURsUU9VQTVjRGtnT1JBNUFEawoJd09PQTQwRGpBT1BBNG9EaVFPSUE0c0RoZ09GQTRRRGh3T0NBNEVEZ0FPREEzNERmUU44
        QTM4RGVnTjVBM2dEZXdOMkEKCTNVRGRBTjNBM0lEY1FOd0EzTURiZ050QTJ3RGJ3TnFBMmtEYUFOckEyWURaUU5rQTJjRFlnTmhBMkFEWXdOZUExMERYCglBTmZBMW9E
        V1FOWUExc0RWZ05WQTFRRFZ3TlNBMUVEVUFOVEEwNERUUU5NQTA4RFNnTkpBMGdEU3dOR0EwVURSQU5IQQoJMElEUVFOQUEwTURQZ005QXp3RFB3TTZBemtET0FNN0F6
        WUROUU0wQXpjRE1nTXhBekFETXdNdUF5MERMQU12QXlvREsKCVFNb0F5c0RKZ01sQXlRREp3TWlBeUVESUFNakF4NERIUU1jQXg4REdnTVpBeGdER3dNV0F4VURGQU1Y
        QXhJREVRTVFBCgl4TUREZ01OQXd3RER3TUtBd2tEQ0FNTEF3WURCUU1FQXdjREFnTUJBd0FEQVFNQ0F3TURBQU1GQXdZREJ3TUVBd2tEQwoJZ01MQXdnRERRTU9BdzhE
        REFNUkF4SURFd01RQXhVREZnTVhBeFFER1FNYUF4c0RHQU1kQXg0REh3TWNBeUVESWdNakEKCXlBREpRTW1BeWNESkFNcEF5b0RLd01vQXkwRExnTXZBeXdETVFNeUF6
        TURNQU0xQXpZRE53TTBBemtET2dNN0F6Z0RQCglRTStBejhEUEFOQkEwSURRd05BQTBVRFJnTkhBMFFEU1FOS0Ewc0RTQU5OQTA0RFR3Tk1BMUVEVWdOVEExQURWUU5X
        QQoJMWNEVkFOWkExb0RXd05ZQTEwRFhnTmZBMXdEWVFOaUEyTURZQU5sQTJZRFp3TmtBMmtEYWdOckEyZ0RiUU51QTI4RGIKCUFOeEEzSURjd053QTNVRGRnTjNBM1FE
        ZVFONkEzc0RlQU45QTM0RGZ3TjhBNEVEZ2dPREE0QURoUU9HQTRjRGhBT0pBCgk0b0Rpd09JQTQwRGpnT1BBNHdEa1FPU0E1TURrQU9WQTVZRGx3T1VBNWtEbWdPYkE1
        Z0RuUU9lQTU4RG5BT2hBNklEbwoJd09nQTZVRHBnT25BNlFEcVFPcUE2c0RxQU90QTY0RHJ3T3NBN0VEc2dPekE3QUR0UU8yQTdjRHRBTzVBN29EdXdPNEEKCTcwRHZn
        Ty9BN3dEd1FQQ0E4TUR3QVBGQThZRHh3UEVBOGtEeWdQTEE4Z0R6UVBPQTg4RHpBUFJBOUlEMHdQUUE5VUQxCglnUFhBOVFEMlFQYUE5c0QyQVBkQTk0RDN3UGNBK0VE
        NGdQakErQUQ1UVBtQStjRDVBUHBBK29ENndQb0ErMEQ3Z1B2QQoJK3dEOFFQeUEvTUQ4QVAxQS9ZRDl3UDBBL2tEK2dQN0EvZ0QvUVArQS84RC9BQUJBQUlBQXdBQUFB
        VUFCZ0FIQUFRQUMKCVFBS0FBc0FDQUFOQUE0QUR3QU1BQkVBRWdBVEFCQUFGUUFXQUJjQUZBQVpBQm9BR3dBWUFCMEFIZ0FmQUJ3QUlRQWlBCglDTUFJQUFsQUNZQUp3
        QWtBQ2tBS2dBckFDZ0FMUUF1QUM4QUxBQXhBRElBTXdBd0FEVUFOZ0EzQURRQU9RQTZBRHNBTwoJQUE5QUQ0QVB3QThBRUVBUWdCREFFQUFSUUJHQUVjQVJBQkpBRW9B
        U3dCSUFFMEFUZ0JQQUV3QVVRQlNBRk1BVUFCVkEKCUZZQVZ3QlVBRmtBV2dCYkFGZ0FYUUJlQUY4QVhBQmhBR0lBWXdCZ0FHVUFaZ0JuQUdRQWFRQnFBR3NBYUFCdEFH
        NEFiCgl3QnNBSEVBY2dCekFIQUFkUUIyQUhjQWRBQjVBSG9BZXdCNEFIMEFmZ0IvQUh3QWdRQ0NBSU1BZ0FDRkFJWUFod0NFQQoJSWtBaWdDTEFJZ0FqUUNPQUk4QWpB
        Q1JBSklBa3dDUUFKVUFsZ0NYQUpRQW1RQ2FBSnNBbUFDZEFKNEFud0NjQUtFQW8KCWdDakFLQUFwUUNtQUtjQXBBQ3BBS29BcXdDb0FLMEFyZ0N2QUt3QXNRQ3lBTE1B
        c0FDMUFMWUF0d0MwQUxrQXVnQzdBCglMZ0F2UUMrQUw4QXZBREJBTUlBd3dEQUFNVUF4Z0RIQU1RQXlRREtBTXNBeUFETkFNNEF6d0RNQU5FQTBnRFRBTkFBMQoJUURX
        QU5jQTFBRFpBTm9BMndEWUFOMEEzZ0RmQU53QTRRRGlBT01BNEFEbEFPWUE1d0RrQU9rQTZnRHJBT2dBN1FEdUEKCU84QTdBRHhBUElBOHdEd0FQVUE5Z0QzQVBRQStR
        RDZBUHNBK0FEOUFQNEEvd0Q4QVFNQS9nRDlBUHdBL3dENkFQa0ErCglBRDdBUFlBOVFEMEFQY0E4Z0R4QVBBQTh3RHVBTzBBN0FEdkFPb0E2UURvQU9zQTVnRGxBT1FB
        NXdEaUFPRUE0QURqQQoJTjRBM1FEY0FOOEEyZ0RaQU5nQTJ3RFdBTlVBMUFEWEFOSUEwUURRQU5NQXpnRE5BTXdBendES0FNa0F5QURMQU1ZQXgKCVFERUFNY0F3Z0RC
        QU1BQXd3QytBTDBBdkFDL0FMb0F1UUM0QUxzQXRnQzFBTFFBdHdDeUFMRUFzQUN6QUs0QXJRQ3NBCglLOEFxZ0NwQUtnQXF3Q21BS1VBcEFDbkFLSUFvUUNnQUtNQW5n
        Q2RBSndBbndDYUFKa0FtQUNiQUpZQWxRQ1VBSmNBawoJZ0NSQUpBQWt3Q09BSTBBakFDUEFJb0FpUUNJQUlzQWhnQ0ZBSVFBaHdDQ0FJRUFnQUNEQUg0QWZRQjhBSDhB
        ZWdCNUEKCUhnQWV3QjJBSFVBZEFCM0FISUFjUUJ3QUhNQWJnQnRBR3dBYndCcUFHa0FhQUJyQUdZQVpRQmtBR2NBWWdCaEFHQUFZCgl3QmVBRjBBWEFCZkFGb0FXUUJZ
        QUZzQVZnQlZBRlFBVndCU0FGRUFVQUJUQUU0QVRRQk1BRThBU2dCSkFFZ0FTd0JHQQoJRVVBUkFCSEFFSUFRUUJBQUVNQVBnQTlBRHdBUHdBNkFEa0FPQUE3QURZQU5R
        QTBBRGNBTWdBeEFEQUFNd0F1QUMwQUwKCUFBdkFDb0FLUUFvQUNzQUpnQWxBQ1FBSndBaUFDRUFJQUFqQUI0QUhRQWNBQjhBR2dBWkFCZ0FHd0FXQUJVQUZBQVhBCglC
        SUFFUUFRQUJNQURnQU5BQXdBRHdBS0FBa0FDQUFMQUFZQUJRQUVBQWNBQWdBQkFBQUFBd1ArQS8wRC9BUC9BL29EKwoJUVA0QS9zRDlnUDFBL1FEOXdQeUEvRUQ4QVB6
        QSs0RDdRUHNBKzhENmdQcEErZ0Q2d1BtQStVRDVBUG5BK0lENFFQZ0EKCStNRDNnUGRBOXdEM3dQYUE5a0QyQVBiQTlZRDFRUFVBOWNEMGdQUkE5QUQwd1BPQTgwRHpB
        UFBBOG9EeVFQSUE4c0R4CglnUEZBOFFEeHdQQ0E4RUR3QVBEQTc0RHZRTzhBNzhEdWdPNUE3Z0R1d08yQTdVRHRBTzNBN0lEc1FPd0E3TURyZ090QQoJNndEcndPcUE2
        a0RxQU9yQTZZRHBRT2tBNmNEb2dPaEE2QURvd09lQTUwRG5BT2ZBNW9EbVFPWUE1c0RsZ09WQTVRRGwKCXdPU0E1RURrQU9UQTQ0RGpRT01BNDhEaWdPSkE0Z0Rpd09H
        QTRVRGhBT0hBNElEZ1FPQUE0TURmZ045QTN3RGZ3TjZBCgkza0RlQU43QTNZRGRRTjBBM2NEY2dOeEEzQURjd051QTIwRGJBTnZBMm9EYVFOb0Eyc0RaZ05sQTJRRFp3
        TmlBMkVEWQoJQU5qQTE0RFhRTmNBMThEV2dOWkExZ0RXd05XQTFVRFZBTlhBMUlEVVFOUUExTURUZ05OQTB3RFR3TktBMGtEU0FOTEEKCTBZRFJRTkVBMGNEUWdOQkEw
        QURRd00rQXowRFBBTS9Bem9ET1FNNEF6c0ROZ00xQXpRRE53TXlBekVETUFNekF5NERMCglRTXNBeThES2dNcEF5Z0RLd01tQXlVREpBTW5BeUlESVFNZ0F5TURIZ01k
        QXh3REh3TWFBeGtER0FNYkF4WURGUU1VQQoJeGNERWdNUkF4QURFd01PQXcwRERBTVBBd29EQ1FNSUF3c0RCZ01GQXdRREJ3TUNBd0VEQUFNQkF3SURBd01BQXdVREIK
        CWdNSEF3UURDUU1LQXdzRENBTU5BdzRERHdNTUF4RURFZ01UQXhBREZRTVdBeGNERkFNWkF4b0RHd01ZQXgwREhnTWZBCgl4d0RJUU1pQXlNRElBTWxBeVlESndNa0F5
        a0RLZ01yQXlnRExRTXVBeThETEFNeEF6SURNd013QXpVRE5nTTNBelFETwoJUU02QXpzRE9BTTlBejREUHdNOEEwRURRZ05EQTBBRFJRTkdBMGNEUkFOSkEwb0RTd05J
        QTAwRFRnTlBBMHdEVVFOU0EKCTFNRFVBTlZBMVlEVndOVUExa0RXZ05iQTFnRFhRTmVBMThEWEFOaEEySURZd05nQTJVRFpnTm5BMlFEYVFOcUEyc0RhCglBTnRBMjRE
        YndOc0EzRURjZ056QTNBRGRRTjJBM2NEZEFONUEzb0Rld040QTMwRGZnTi9BM3dEZ1FPQ0E0TURnQU9GQQoJNFlEaHdPRUE0a0RpZ09MQTRnRGpRT09BNDhEakFPUkE1
        SURrd09RQTVVRGxnT1hBNVFEbVFPYUE1c0RtQU9kQTU0RG4KCXdPY0E2RURvZ09qQTZBRHBRT21BNmNEcEFPcEE2b0Rxd09vQTYwRHJnT3ZBNndEc1FPeUE3TURzQU8x
        QTdZRHR3TzBBCgk3a0R1Z083QTdnRHZRTytBNzhEdkFQQkE4SUR3d1BBQThVRHhnUEhBOFFEeVFQS0E4c0R5QVBOQTg0RHp3UE1BOUVEMAoJZ1BUQTlBRDFRUFdBOWNE
        MUFQWkE5b0Qyd1BZQTkwRDNnUGZBOXdENFFQaUErTUQ0QVBsQStZRDV3UGtBK2tENmdQckEKCStnRDdRUHVBKzhEN0FQeEEvSUQ4d1B3QS9VRDlnUDNBL1FEK1FQNkEv
        c0QrQVA5QS80RC93UDhBQUVBQWdBREFBQUFCCglRQUdBQWNBQkFBSkFBb0FDd0FJQUEwQURnQVBBQXdBRVFBU0FCTUFFQUFWQUJZQUZ3QVVBQmtBR2dBYkFCZ0FIUUFl
        QQoJQjhBSEFBaEFDSUFJd0FnQUNVQUpnQW5BQ1FBS1FBcUFDc0FLQUF0QUM0QUx3QXNBREVBTWdBekFEQUFOUUEyQURjQU4KCUFBNUFEb0FPd0E0QUQwQVBnQS9BRHdB
        UVFCQ0FFTUFRQUJGQUVZQVJ3QkVBRWtBU2dCTEFFZ0FUUUJPQUU4QVRBQlJBCglGSUFVd0JRQUZVQVZnQlhBRlFBV1FCYUFGc0FXQUJkQUY0QVh3QmNBR0VBWWdCakFH
        QUFaUUJtQUdjQVpBQnBBR29BYQoJd0JvQUcwQWJnQnZBR3dBY1FCeUFITUFjQUIxQUhZQWR3QjBBSGtBZWdCN0FIZ0FmUUIrQUg4QWZBQ0JBSUlBZ3dDQUEKCUlVQWhn
        Q0hBSVFBaVFDS0FJc0FpQUNOQUk0QWp3Q01BSkVBa2dDVEFKQUFsUUNXQUpjQWxBQ1pBSm9BbXdDWUFKMEFuCglnQ2ZBSndBb1FDaUFLTUFvQUNsQUtZQXB3Q2tBS2tB
        cWdDckFLZ0FyUUN1QUs4QXJBQ3hBTElBc3dDd0FMVUF0Z0MzQQoJTFFBdVFDNkFMc0F1QUM5QUw0QXZ3QzhBTUVBd2dEREFNQUF4UURHQU1jQXhBREpBTW9BeXdESUFN
        MEF6Z0RQQU13QTAKCVFEU0FOTUEwQURWQU5ZQTF3RFVBTmtBMmdEYkFOZ0EzUURlQU44QTNBRGhBT0lBNHdEZ0FPVUE1Z0RuQU9RQTZRRHFBCglPc0E2QUR0QU80QTd3
        RHNBUEVBOGdEekFQQUE5UUQyQVBjQTlBRDVBUG9BK3dENEFQMEEvZ0QvQVB3QkF3RCtBUDBBLwoJQUQvQVBvQStRRDRBUHNBOWdEMUFQUUE5d0R5QVBFQThBRHpBTzRB
        N1FEc0FPOEE2Z0RwQU9nQTZ3RG1BT1VBNUFEbkEKCU9JQTRRRGdBT01BM2dEZEFOd0Ezd0RhQU5rQTJBRGJBTllBMVFEVUFOY0EwZ0RSQU5BQTB3RE9BTTBBekFEUEFN
        b0F5CglRRElBTXNBeGdERkFNUUF4d0RDQU1FQXdBRERBTDRBdlFDOEFMOEF1Z0M1QUxnQXV3QzJBTFVBdEFDM0FMSUFzUUN3QQoJTE1BcmdDdEFLd0Fyd0NxQUtrQXFB
        Q3JBS1lBcFFDa0FLY0FvZ0NoQUtBQW93Q2VBSjBBbkFDZkFKb0FtUUNZQUpzQWwKCWdDVkFKUUFsd0NTQUpFQWtBQ1RBSTRBalFDTUFJOEFpZ0NKQUlnQWl3Q0dBSVVB
        aEFDSEFJSUFnUUNBQUlNQWZnQjlBCglId0Fmd0I2QUhrQWVBQjdBSFlBZFFCMEFIY0FjZ0J4QUhBQWN3QnVBRzBBYkFCdkFHb0FhUUJvQUdzQVpnQmxBR1FBWgoJd0Jp
        QUdFQVlBQmpBRjRBWFFCY0FGOEFXZ0JaQUZnQVd3QldBRlVBVkFCWEFGSUFVUUJRQUZNQVRnQk5BRXdBVHdCS0EKCUVrQVNBQkxBRVlBUlFCRUFFY0FRZ0JCQUVBQVF3
        QStBRDBBUEFBL0FEb0FPUUE0QURzQU5nQTFBRFFBTndBeUFERUFNCglBQXpBQzRBTFFBc0FDOEFLZ0FwQUNnQUt3QW1BQ1VBSkFBbkFDSUFJUUFnQUNNQUhnQWRBQndB
        SHdBYUFCa0FHQUFiQQoJQllBRlFBVUFCY0FFZ0FSQUJBQUV3QU9BQTBBREFBUEFBb0FDUUFJQUFzQUJnQUZBQVFBQndBQ0FBRUFBQUFEQS80RC8KCVFQOEEvOEQrZ1A1
        QS9nRCt3UDJBL1VEOUFQM0EvSUQ4UVB3QS9NRDdnUHRBK3dEN3dQcUEra0Q2QVByQStZRDVRUGtBCgkrY0Q0Z1BoQStBRDR3UGVBOTBEM0FQZkE5b0QyUVBZQTlzRDFn
        UFZBOVFEMXdQU0E5RUQwQVBUQTg0RHpRUE1BODhEeQoJZ1BKQThnRHl3UEdBOFVEeEFQSEE4SUR3UVBBQThNRHZnTzlBN3dEdndPNkE3a0R1QU83QTdZRHRRTzBBN2NE
        c2dPeEEKCTdBRHN3T3VBNjBEckFPdkE2b0RxUU9vQTZzRHBnT2xBNlFEcHdPaUE2RURvQU9qQTU0RG5RT2NBNThEbWdPWkE1Z0RtCgl3T1dBNVVEbEFPWEE1SURrUU9R
        QTVNRGpnT05BNHdEandPS0E0a0RpQU9MQTRZRGhRT0VBNGNEZ2dPQkE0QURnd04rQQoJMzBEZkFOL0Ezb0RlUU40QTNzRGRnTjFBM1FEZHdOeUEzRURjQU56QTI0RGJR
        TnNBMjhEYWdOcEEyZ0Rhd05tQTJVRFoKCUFObkEySURZUU5nQTJNRFhnTmRBMXdEWHdOYUExa0RXQU5iQTFZRFZRTlVBMWNEVWdOUkExQURVd05PQTAwRFRBTlBBCgkw
        b0RTUU5JQTBzRFJnTkZBMFFEUndOQ0EwRURRQU5EQXo0RFBRTThBejhET2dNNUF6Z0RPd00yQXpVRE5BTTNBeklETQoJUU13QXpNRExnTXRBeXdETHdNcUF5a0RLQU1y
        QXlZREpRTWtBeWNESWdNaEF5QURJd01lQXgwREhBTWZBeG9ER1FNWUEKCXhzREZnTVZBeFFERndNU0F4RURFQU1UQXc0RERRTU1BdzhEQ2dNSkF3Z0RDd01HQXdVREJB
        TUhBd0lEQVFNQUF3RURBCglnTURBd0FEQlFNR0F3Y0RCQU1KQXdvREN3TUlBdzBERGdNUEF3d0RFUU1TQXhNREVBTVZBeFlERndNVUF4a0RHZ01iQQoJeGdESFFNZUF4
        OERIQU1oQXlJREl3TWdBeVVESmdNbkF5UURLUU1xQXlzREtBTXRBeTRETHdNc0F6RURNZ016QXpBRE4KCVFNMkF6Y0ROQU01QXpvRE93TTRBejBEUGdNL0F6d0RRUU5D
        QTBNRFFBTkZBMFlEUndORUEwa0RTZ05MQTBnRFRRTk9BCgkwOERUQU5SQTFJRFV3TlFBMVVEVmdOWEExUURXUU5hQTFzRFdBTmRBMTREWHdOY0EyRURZZ05qQTJBRFpR
        Tm1BMmNEWgoJQU5wQTJvRGF3Tm9BMjBEYmdOdkEyd0RjUU55QTNNRGNBTjFBM1lEZHdOMEEza0RlZ043QTNnRGZRTitBMzhEZkFPQkEKCTRJRGd3T0FBNFVEaGdPSEE0
        UURpUU9LQTRzRGlBT05BNDREandPTUE1RURrZ09UQTVBRGxRT1dBNWNEbEFPWkE1b0RtCgl3T1lBNTBEbmdPZkE1d0RvUU9pQTZNRG9BT2xBNllEcHdPa0E2a0RxZ09y
        QTZnRHJRT3VBNjhEckFPeEE3SURzd093QQoJN1VEdGdPM0E3UUR1UU82QTdzRHVBTzlBNzREdndPOEE4RUR3Z1BEQThBRHhRUEdBOGNEeEFQSkE4b0R5d1BJQTgwRHoK
        CWdQUEE4d0QwUVBTQTlNRDBBUFZBOVlEMXdQVUE5a0QyZ1BiQTlnRDNRUGVBOThEM0FQaEErSUQ0d1BnQStVRDVnUG5BCgkrUUQ2UVBxQStzRDZBUHRBKzREN3dQc0Ev
        RUQ4Z1B6QS9BRDlRUDJBL2NEOUFQNUEvb0Qrd1A0QS8wRC9nUC9BL3dBQQoJUUFDQUFNQUFBQUZBQVlBQndBRUFBa0FDZ0FMQUFnQURRQU9BQThBREFBUkFCSUFFd0FR
        QUJVQUZnQVhBQlFBR1FBYUEKCUJzQUdBQWRBQjRBSHdBY0FDRUFJZ0FqQUNBQUpRQW1BQ2NBSkFBcEFDb0FLd0FvQUMwQUxnQXZBQ3dBTVFBeUFETUFNCglBQTFBRFlB
        TndBMEFEa0FPZ0E3QURnQVBRQStBRDhBUEFCQkFFSUFRd0JBQUVVQVJnQkhBRVFBU1FCS0FFc0FTQUJOQQoJRTRBVHdCTUFGRUFVZ0JUQUZBQVZRQldBRmNBVkFCWkFG
        b0FXd0JZQUYwQVhnQmZBRndBWVFCaUFHTUFZQUJsQUdZQVoKCXdCa0FHa0FhZ0JyQUdnQWJRQnVBRzhBYkFCeEFISUFjd0J3QUhVQWRnQjNBSFFBZVFCNkFIc0FlQUI5
        QUg0QWZ3QjhBCglJRUFnZ0NEQUlBQWhRQ0dBSWNBaEFDSkFJb0Fpd0NJQUkwQWpnQ1BBSXdBa1FDU0FKTUFrQUNWQUpZQWx3Q1VBSmtBbQoJZ0NiQUpnQW5RQ2VBSjhB
        bkFDaEFLSUFvd0NnQUtVQXBnQ25BS1FBcVFDcUFLc0FxQUN0QUs0QXJ3Q3NBTEVBc2dDekEKCUxBQXRRQzJBTGNBdEFDNUFMb0F1d0M0QUwwQXZnQy9BTHdBd1FEQ0FN
        TUF3QURGQU1ZQXh3REVBTWtBeWdETEFNZ0F6CglRRE9BTThBekFEUkFOSUEwd0RRQU5VQTFnRFhBTlFBMlFEYUFOc0EyQURkQU40QTN3RGNBT0VBNGdEakFPQUE1UURt
        QQoJT2NBNUFEcEFPb0E2d0RvQU8wQTdnRHZBT3dBOFFEeUFQTUE4QUQxQVBZQTl3RDBBUGtBK2dEN0FQZ0EvUUQrQVA4QS8KCUFFREFQNEEvUUQ4QVA4QStnRDVBUGdB
        K3dEMkFQVUE5QUQzQVBJQThRRHdBUE1BN2dEdEFPd0E3d0RxQU9rQTZBRHJBCglPWUE1UURrQU9jQTRnRGhBT0FBNHdEZUFOMEEzQURmQU5vQTJRRFlBTnNBMWdEVkFO
        UUExd0RTQU5FQTBBRFRBTTRBegoJUURNQU04QXlnREpBTWdBeXdER0FNVUF4QURIQU1JQXdRREFBTU1BdmdDOUFMd0F2d0M2QUxrQXVBQzdBTFlBdFFDMEEKCUxjQXNn
        Q3hBTEFBc3dDdUFLMEFyQUN2QUtvQXFRQ29BS3NBcGdDbEFLUUFwd0NpQUtFQW9BQ2pBSjRBblFDY0FKOEFtCglnQ1pBSmdBbXdDV0FKVUFsQUNYQUpJQWtRQ1FBSk1B
        amdDTkFJd0Fqd0NLQUlrQWlBQ0xBSVlBaFFDRUFJY0FnZ0NCQQoJSUFBZ3dCK0FIMEFmQUIvQUhvQWVRQjRBSHNBZGdCMUFIUUFkd0J5QUhFQWNBQnpBRzRBYlFCc0FH
        OEFhZ0JwQUdnQWEKCXdCbUFHVUFaQUJuQUdJQVlRQmdBR01BWGdCZEFGd0FYd0JhQUZrQVdBQmJBRllBVlFCVUFGY0FVZ0JSQUZBQVV3Qk9BCglFMEFUQUJQQUVvQVNR
        QklBRXNBUmdCRkFFUUFSd0JDQUVFQVFBQkRBRDRBUFFBOEFEOEFPZ0E1QURnQU93QTJBRFVBTgoJQUEzQURJQU1RQXdBRE1BTGdBdEFDd0FMd0FxQUNrQUtBQXJBQ1lB
        SlFBa0FDY0FJZ0FoQUNBQUl3QWVBQjBBSEFBZkEKCUJvQUdRQVlBQnNBRmdBVkFCUUFGd0FTQUJFQUVBQVRBQTRBRFFBTUFBOEFDZ0FKQUFnQUN3QUdBQVVBQkFBSEFB
        SUFBCglRQUFBQU1EL2dQOUEvd0Qvd1A2QS9rRCtBUDdBL1lEOVFQMEEvY0Q4Z1B4QS9BRDh3UHVBKzBEN0FQdkErb0Q2UVBvQQoJK3NENWdQbEErUUQ1d1BpQStFRDRB
        UGpBOTREM1FQY0E5OEQyZ1BaQTlnRDJ3UFdBOVVEMUFQWEE5SUQwUVBRQTlNRHoKCWdQTkE4d0R6d1BLQThrRHlBUExBOFlEeFFQRUE4Y0R3Z1BCQThBRHd3TytBNzBE
        dkFPL0E3b0R1UU80QTdzRHRnTzFBCgk3UUR0d095QTdFRHNBT3pBNjREclFPc0E2OERxZ09wQTZnRHF3T21BNlVEcEFPbkE2SURvUU9nQTZNRG5nT2RBNXdEbgoJd09h
        QTVrRG1BT2JBNVlEbFFPVUE1Y0RrZ09SQTVBRGt3T09BNDBEakFPUEE0b0RpUU9JQTRzRGhnT0ZBNFFEaHdPQ0EKCTRFRGdBT0RBMzREZlFOOEEzOERlZ041QTNnRGV3
        TjJBM1VEZEFOM0EzSURjUU53QTNNRGJnTnRBMndEYndOcUEya0RhCglBTnJBMllEWlFOa0EyY0RZZ05oQTJBRFl3TmVBMTBEWEFOZkExb0RXUU5ZQTFzRFZnTlZBMVFE
        VndOU0ExRURVQU5UQQoJMDREVFFOTUEwOERTZ05KQTBnRFN3TkdBMFVEUkFOSEEwSURRUU5BQTBNRFBnTTlBendEUHdNNkF6a0RPQU03QXpZRE4KCVFNMEF6Y0RNZ014
        QXpBRE13TXVBeTBETEFNdkF5b0RLUU1vQXlzREpnTWxBeVFESndNaUF5RURJQU1qQXg0REhRTWNBCgl4OERHZ01aQXhnREd3TVdBeFVERkFNWEF4SURFUU1RQXhNRERn
        TU5Bd3dERHdNS0F3a0RDQU1MQXdZREJRTUVBd2NEQQoJZ01CQXdBREFRTUNBd01EQUFNRkF3WURCd01FQXdrRENnTUxBd2dERFFNT0F3OEREQU1SQXhJREV3TVFBeFVE
        RmdNWEEKCXhRREdRTWFBeHNER0FNZEF4NERId01jQXlFRElnTWpBeUFESlFNbUF5Y0RKQU1wQXlvREt3TW9BeTBETGdNdkF5d0RNCglRTXlBek1ETUFNMUF6WUROd00w
        QXprRE9nTTdBemdEUFFNK0F6OERQQU5CQTBJRFF3TkFBMFVEUmdOSEEwUURTUU5LQQoJMHNEU0FOTkEwNERUd05NQTFFRFVnTlRBMUFEVlFOV0ExY0RWQU5aQTFvRFd3
        TllBMTBEWGdOZkExd0RZUU5pQTJNRFkKCUFObEEyWURad05rQTJrRGFnTnJBMmdEYlFOdUEyOERiQU54QTNJRGN3TndBM1VEZGdOM0EzUURlUU42QTNzRGVBTjlBCgkz
        NERmd044QTRFRGdnT0RBNEFEaFFPR0E0Y0RoQU9KQTRvRGl3T0lBNDBEamdPUEE0d0RrUU9TQTVNRGtBT1ZBNVlEbAoJd09VQTVrRG1nT2JBNWdEblFPZUE1OERuQU9o
        QTZJRG93T2dBNlVEcGdPbkE2UURxUU9xQTZzRHFBT3RBNjREcndPc0EKCTdFRHNnT3pBN0FEdFFPMkE3Y0R0QU81QTdvRHV3TzRBNzBEdmdPL0E3d0R3UVBDQThNRHdB
        UEZBOFlEeHdQRUE4a0R5CglnUExBOGdEelFQT0E4OER6QVBSQTlJRDB3UFFBOVVEMWdQWEE5UUQyUVBhQTlzRDJBUGRBOTREM3dQY0ErRUQ0Z1BqQQoJK0FENVFQbUEr
        Y0Q1QVBwQStvRDZ3UG9BKzBEN2dQdkErd0Q4UVB5QS9NRDhBUDFBL1lEOXdQMEEva0QrZ1A3QS9nRC8KCVFQK0EvOEQvQUFCQUFJQUF3QUFBQVVBQmdBSEFBUUFDUUFL
        QUFzQUNBQU5BQTRBRHdBTUFCRUFFZ0FUQUJBQUZRQVdBCglCY0FGQUFaQUJvQUd3QVlBQjBBSGdBZkFCd0FJUUFpQUNNQUlBQWxBQ1lBSndBa0FDa0FLZ0FyQUNnQUxR
        QXVBQzhBTAoJQUF4QURJQU13QXdBRFVBTmdBM0FEUUFPUUE2QURzQU9BQTlBRDRBUHdBOEFFRUFRZ0JEQUVBQVJRQkdBRWNBUkFCSkEKCUVvQVN3QklBRTBBVGdCUEFF
        d0FVUUJTQUZNQVVBQlZBRllBVndCVUFGa0FXZ0JiQUZnQVhRQmVBRjhBWEFCaEFHSUFZCgl3QmdBR1VBWmdCbkFHUUFhUUJxQUdzQWFBQnRBRzRBYndCc0FIRUFjZ0J6
        QUhBQWRRQjJBSGNBZEFCNUFIb0Fld0I0QQoJSDBBZmdCL0FId0FnUUNDQUlNQWdBQ0ZBSVlBaHdDRUFJa0FpZ0NMQUlnQWpRQ09BSThBakFDUkFKSUFrd0NRQUpVQWwK
        CWdDWEFKUUFtUUNhQUpzQW1BQ2RBSjRBbndDY0FLRUFvZ0NqQUtBQXBRQ21BS2NBcEFDcEFLb0Fxd0NvQUswQXJnQ3ZBCglLd0FzUUN5QUxNQXNBQzFBTFlBdHdDMEFM
        a0F1Z0M3QUxnQXZRQytBTDhBdkFEQkFNSUF3d0RBQU1VQXhnREhBTVFBeQoJUURLQU1zQXlBRE5BTTRBendETUFORUEwZ0RUQU5BQTFRRFdBTmNBMUFEWkFOb0Eyd0RZ
        QU4wQTNnRGZBTndBNFFEaUEKCU9NQTRBRGxBT1lBNXdEa0FPa0E2Z0RyQU9nQTdRRHVBTzhBN0FEeEFQSUE4d0R3QVBVQTlnRDNBUFFBK1FENkFQc0ErCglBRDlBUDRB
        L3dEOEFRTUEvZ0Q5QVB3QS93RDZBUGtBK0FEN0FQWUE5UUQwQVBjQThnRHhBUEFBOHdEdUFPMEE3QUR2QQoJT29BNlFEb0FPc0E1Z0RsQU9RQTV3RGlBT0VBNEFEakFO
        NEEzUURjQU44QTJnRFpBTmdBMndEV0FOVUExQURYQU5JQTAKCVFEUUFOTUF6Z0ROQU13QXp3REtBTWtBeUFETEFNWUF4UURFQU1jQXdnREJBTUFBd3dDK0FMMEF2QUMv
        QUxvQXVRQzRBCglMc0F0Z0MxQUxRQXR3Q3lBTEVBc0FDekFLNEFyUUNzQUs4QXFnQ3BBS2dBcXdDbUFLVUFwQUNuQUtJQW9RQ2dBS01BbgoJZ0NkQUp3QW53Q2FBSmtB
        bUFDYkFKWUFsUUNVQUpjQWtnQ1JBSkFBa3dDT0FJMEFqQUNQQUlvQWlRQ0lBSXNBaGdDRkEKCUlRQWh3Q0NBSUVBZ0FDREFINEFmUUI4QUg4QWVnQjVBSGdBZXdCMkFI
        VUFkQUIzQUhJQWNRQndBSE1BYmdCdEFHd0FiCgl3QnFBR2tBYUFCckFHWUFaUUJrQUdjQVlnQmhBR0FBWXdCZUFGMEFYQUJmQUZvQVdRQllBRnNBVmdCVkFGUUFWd0JT
        QQoJRkVBVUFCVEFFNEFUUUJNQUU4QVNnQkpBRWdBU3dCR0FFVUFSQUJIQUVJQVFRQkFBRU1BUGdBOUFEd0FQd0E2QURrQU8KCUFBN0FEWUFOUUEwQURjQU1nQXhBREFB
        TXdBdUFDMEFMQUF2QUNvQUtRQW9BQ3NBSmdBbEFDUUFKd0FpQUNFQUlBQWpBCglCNEFIUUFjQUI4QUdnQVpBQmdBR3dBV0FCVUFGQUFYQUJJQUVRQVFBQk1BRGdBTkFB
        d0FEd0FLQUFrQUNBQUxBQVlBQgoJUUFFQUFjQUFnQUJBQUFBQXdQK0EvMEQvQVAvQS9vRCtRUDRBL3NEOWdQMUEvUUQ5d1B5QS9FRDhBUHpBKzREN1FQc0EKCSs4RDZn
        UHBBK2dENndQbUErVUQ1QVBuQStJRDRRUGdBK01EM2dQZEE5d0Qzd1BhQTlrRDJBUGJBOVlEMVFQVUE5Y0QwCglnUFJBOUFEMHdQT0E4MER6QVBQQThvRHlRUElBOHNE
        eGdQRkE4UUR4d1BDQThFRHdBUERBNzREdlFPOEE3OER1Z081QQoJN2dEdXdPMkE3VUR0QU8zQTdJRHNRT3dBN01EcmdPdEE2d0Ryd09xQTZrRHFBT3JBNllEcFFPa0E2
        Y0RvZ09oQTZBRG8KCXdPZUE1MERuQU9mQTVvRG1RT1lBNXNEbGdPVkE1UURsd09TQTVFRGtBT1RBNDREalFPTUE0OERpZ09KQTRnRGl3T0dBCgk0VURoQU9IQTRJRGdR
        T0FBNE1EZmdOOUEzd0Rmd042QTNrRGVBTjdBM1lEZFFOMEEzY0RjZ054QTNBRGN3TnVBMjBEYgoJQU52QTJvRGFRTm9BMnNEWmdObEEyUURad05pQTJFRFlBTmpBMTRE
        WFFOY0ExOERXZ05aQTFnRFd3TldBMVVEVkFOWEEKCTFJRFVRTlFBMU1EVGdOTkEwd0RUd05LQTBrRFNBTkxBMFlEUlFORUEwY0RRZ05CQTBBRFF3TStBejBEUEFNL0F6
        b0RPCglRTTRBenNETmdNMUF6UUROd015QXpFRE1BTXpBeTRETFFNc0F5OERLZ01wQXlnREt3TW1BeVVESkFNbkF5SURJUU1nQQoJeU1ESGdNZEF4d0RId01hQXhrREdB
        TWJBeFlERlFNVUF4Y0RFZ01SQXhBREV3TU9BdzBEREFNUEF3b0RDUU1JQXdzREIKCWdNRkF3UURCd01DQXdFREFBTUJBd0lEQXdNQUF3VURCZ01IQXdRRENRTUtBd3NE
        Q0FNTkF3NEREd01NQXhFREVnTVRBCgl4QURGUU1XQXhjREZBTVpBeG9ER3dNWUF4MERIZ01mQXh3RElRTWlBeU1ESUFNbEF5WURKd01rQXlrREtnTXJBeWdETAoJUU11
        QXk4RExBTXhBeklETXdNd0F6VUROZ00zQXpRRE9RTTZBenNET0FNOUF6NERQd004QTBFRFFnTkRBMEFEUlFOR0EKCTBjRFJBTkpBMG9EU3dOSUEwMERUZ05QQTB3RFVR
        TlNBMU1EVUFOVkExWURWd05VQTFrRFdnTmJBMWdEWFFOZUExOERYCglBTmhBMklEWXdOZ0EyVURaZ05uQTJRRGFRTnFBMnNEYUFOdEEyNERid05zQTNFRGNnTnpBM0FE
        ZFFOMkEzY0RkQU41QQoJM29EZXdONEEzMERmZ04vQTN3RGdRT0NBNE1EZ0FPRkE0WURod09FQTRrRGlnT0xBNGdEalFPT0E0OERqQU9SQTVJRGsKCXdPUUE1VURsZ09Y
        QTVRRG1RT2FBNXNEbUFPZEE1NERud09jQTZFRG9nT2pBNkFEcFFPbUE2Y0RwQU9wQTZvRHF3T29BCgk2MERyZ092QTZ3RHNRT3lBN01Ec0FPMUE3WUR0d08wQTdrRHVn
        TzdBN2dEdlFPK0E3OER2QVBCQThJRHd3UEFBOFVEeAoJZ1BIQThRRHlRUEtBOHNEeUFQTkE4NER6d1BNQTlFRDBnUFRBOUFEMVFQV0E5Y0QxQVBaQTlvRDJ3UFlBOTBE
        M2dQZkEKCTl3RDRRUGlBK01ENEFQbEErWUQ1d1BrQStrRDZnUHJBK2dEN1FQdUErOEQ3QVB4QS9JRDh3UHdBL1VEOWdQM0EvUUQrCglRUDZBL3NEK0FQOUEvNEQvd1A4
        QUFFQUFnQURBQUFBQlFBR0FBY0FCQUFKQUFvQUN3QUlBQTBBRGdBUEFBd0FFUUFTQQoJQk1BRUFBVkFCWUFGd0FVQUJrQUdnQWJBQmdBSFFBZUFCOEFIQUFoQUNJQUl3
        QWdBQ1VBSmdBbkFDUUFLUUFxQUNzQUsKCUFBdEFDNEFMd0FzQURFQU1nQXpBREFBTlFBMkFEY0FOQUE1QURvQU93QTRBRDBBUGdBL0FEd0FRUUJDQUVNQVFBQkZBCglF
        WUFSd0JFQUVrQVNnQkxBRWdBVFFCT0FFOEFUQUJSQUZJQVV3QlFBRlVBVmdCWEFGUUFXUUJhQUZzQVdBQmRBRjRBWAoJd0JjQUdFQVlnQmpBR0FBWlFCbUFHY0FaQUJw
        QUdvQWF3Qm9BRzBBYmdCdkFHd0FjUUJ5QUhNQWNBQjFBSFlBZHdCMEEKCUhrQWVnQjdBSGdBZlFCK0FIOEFmQUNCQUlJQWd3Q0FBSVVBaGdDSEFJUUFpUUNLQUlzQWlB
        Q05BSTRBandDTUFKRUFrCglnQ1RBSkFBbFFDV0FKY0FsQUNaQUpvQW13Q1lBSjBBbmdDZkFKd0FvUUNpQUtNQW9BQ2xBS1lBcHdDa0FLa0FxZ0NyQQoJS2dBclFDdUFL
        OEFyQUN4QUxJQXN3Q3dBTFVBdGdDM0FMUUF1UUM2QUxzQXVBQzlBTDRBdndDOEFNRUF3Z0REQU1BQXgKCVFER0FNY0F4QURKQU1vQXl3RElBTTBBemdEUEFNd0EwUURT
        QU5NQTBBRFZBTllBMXdEVUFOa0EyZ0RiQU5nQTNRRGVBCglOOEEzQURoQU9JQTR3RGdBT1VBNWdEbkFPUUE2UURxQU9zQTZBRHRBTzRBN3dEc0FQRUE4Z0R6QVBBQTlR
        RDJBUGNBOQoJQUQ1QVBvQSt3RDRBUDBBL2dEL0FQd0JBd0QrQVAwQS9BRC9BUG9BK1FENEFQc0E5Z0QxQVBRQTl3RHlBUEVBOEFEekEKCU80QTdRRHNBTzhBNmdEcEFP
        Z0E2d0RtQU9VQTVBRG5BT0lBNFFEZ0FPTUEzZ0RkQU53QTN3RGFBTmtBMkFEYkFOWUExCglRRFVBTmNBMGdEUkFOQUEwd0RPQU0wQXpBRFBBTW9BeVFESUFNc0F4Z0RG
        QU1RQXh3RENBTUVBd0FEREFMNEF2UUM4QQoJTDhBdWdDNUFMZ0F1d0MyQUxVQXRBQzNBTElBc1FDd0FMTUFyZ0N0QUt3QXJ3Q3FBS2tBcUFDckFLWUFwUUNrQUtjQW8K
        CWdDaEFLQUFvd0NlQUowQW5BQ2ZBSm9BbVFDWUFKc0FsZ0NWQUpRQWx3Q1NBSkVBa0FDVEFJNEFqUUNNQUk4QWlnQ0pBCglJZ0Fpd0NHQUlVQWhBQ0hBSUlBZ1FDQUFJ
        TUFmZ0I5QUh3QWZ3QjZBSGtBZUFCN0FIWUFkUUIwQUhjQWNnQnhBSEFBYwoJd0J1QUcwQWJBQnZBR29BYVFCb0FHc0FaZ0JsQUdRQVp3QmlBR0VBWUFCakFGNEFYUUJj
        QUY4QVdnQlpBRmdBV3dCV0EKCUZVQVZBQlhBRklBVVFCUUFGTUFUZ0JOQUV3QVR3QktBRWtBU0FCTEFFWUFSUUJFQUVjQVFnQkJBRUFBUXdBK0FEMEFQCglBQS9BRG9B
        T1FBNEFEc0FOZ0ExQURRQU53QXlBREVBTUFBekFDNEFMUUFzQUM4QUtnQXBBQ2dBS3dBbUFDVUFKQUFuQQoJQ0lBSVFBZ0FDTUFIZ0FkQUJ3QUh3QWFBQmtBR0FBYkFC
        WUFGUUFVQUJjQUVnQVJBQkFBRXdBT0FBMEFEQUFQQUFvQUMKCVFBSUFBc0FCZ0FGQUFRQUJ3QUNBQUVBQUFBREEvNEQvUVA4QS84RCtnUDVBL2dEK3dQMkEvVUQ5QVAz
        QS9JRDhRUHdBCgkvTUQ3Z1B0QSt3RDd3UHFBK2tENkFQckErWUQ1UVBrQStjRDRnUGhBK0FENHdQZUE5MEQzQVBmQTlvRDJRUFlBOXNEMQoJZ1BWQTlRRDF3UFNBOUVE
        MEFQVEE4NER6UVBNQTg4RHlnUEpBOGdEeXdQR0E4VUR4QVBIQThJRHdRUEFBOE1EdmdPOUEKCTd3RHZ3TzZBN2tEdUFPN0E3WUR0UU8wQTdjRHNnT3hBN0FEc3dPdUE2
        MERyQU92QTZvRHFRT29BNnNEcGdPbEE2UURwCgl3T2lBNkVEb0FPakE1NERuUU9jQTU4RG1nT1pBNWdEbXdPV0E1VURsQU9YQTVJRGtRT1FBNU1EamdPTkE0d0Rqd09L
        QQoJNGtEaUFPTEE0WURoUU9FQTRjRGdnT0JBNEFEZ3dOK0EzMERmQU4vQTNvRGVRTjRBM3NEZGdOMUEzUURkd055QTNFRGMKCUFOekEyNERiUU5zQTI4RGFnTnBBMmdE
        YXdObUEyVURaQU5uQTJJRFlRTmdBMk1EWGdOZEExd0RYd05hQTFrRFdBTmJBCgkxWURWUU5VQTFjRFVnTlJBMUFEVXdOT0EwMERUQU5QQTBvRFNRTklBMHNEUmdORkEw
        UURSd05DQTBFRFFBTkRBejREUAoJUU04QXo4RE9nTTVBemdET3dNMkF6VUROQU0zQXpJRE1RTXdBek1ETGdNdEF5d0RMd01xQXlrREtBTXJBeVlESlFNa0EKCXljREln
        TWhBeUFESXdNZUF4MERIQU1mQXhvREdRTVlBeHNERmdNVkF4UURGd01TQXhFREVBTVRBdzRERFFNTUF3OERDCglnTUpBd2dEQ3dNR0F3VURCQU1IQXdJREFRTUFBd0VE
        QWdNREF3QURCUU1HQXdjREJBTUpBd29EQ3dNSUF3MEREZ01QQQoJd3dERVFNU0F4TURFQU1WQXhZREZ3TVVBeGtER2dNYkF4Z0RIUU1lQXg4REhBTWhBeUlESXdNZ0F5
        VURKZ01uQXlRREsKCVFNcUF5c0RLQU10QXk0REx3TXNBekVETWdNekF6QUROUU0yQXpjRE5BTTVBem9ET3dNNEF6MERQZ00vQXp3RFFRTkNBCgkwTURRQU5GQTBZRFJ3
        TkVBMGtEU2dOTEEwZ0RUUU5PQTA4RFRBTlJBMUlEVXdOUUExVURWZ05YQTFRRFdRTmFBMXNEVwoJQU5kQTE0RFh3TmNBMkVEWWdOakEyQURaUU5tQTJjRFpBTnBBMm9E
        YXdOb0EyMERiZ052QTJ3RGNRTnlBM01EY0FOMUEKCTNZRGR3TjBBM2tEZWdON0EzZ0RmUU4rQTM4RGZBT0JBNElEZ3dPQUE0VURoZ09IQTRRRGlRT0tBNHNEaUFPTkE0
        NERqCgl3T01BNUVEa2dPVEE1QURsUU9XQTVjRGxBT1pBNW9EbXdPWUE1MERuZ09mQTV3RG9RT2lBNk1Eb0FPbEE2WURwd09rQQoJNmtEcWdPckE2Z0RyUU91QTY4RHJB
        T3hBN0lEc3dPd0E3VUR0Z08zQTdRRHVRTzZBN3NEdUFPOUE3NER2d084QThFRHcKCWdQREE4QUR4UVBHQThjRHhBUEpBOG9EeXdQSUE4MER6Z1BQQTh3RDBRUFNBOU1E
        MEFQVkE5WUQxd1BVQTlrRDJnUGJBCgk5Z0QzUVBlQTk4RDNBUGhBK0lENHdQZ0ErVUQ1Z1BuQStRRDZRUHFBK3NENkFQdEErNEQ3d1BzQS9FRDhnUHpBL0FEOQoJUVAy
        QS9jRDlBUDVBL29EK3dQNEEvMEQvZ1AvQS93QUFBQUNBQUFBQVB3QUVBQUFBTWdKaUJJOEd1UWpkQ3ZvTUR3OGMKCUVSMFRFeFg4RnRZWW9ScGNIQVllbkI4Z0lZOGk2
        Q01zSlZnbWJTZHFLRTBwRnlySEtsMHIyQ3M0TEgwc3BpeTBMS1lzCglmU3c0TE5nclhTdkhLaGNxVFNscUtHMG5XQ1lzSmVnamp5SWdJWndmQmg1Y0hLRWExaGo4RmhN
        VkhSTWNFUThQK2d6ZAoJQ3JrSWp3WmlCRElDQUFETy9aNzdjZmxIOXlQMUJ2UHg4T1R1NCt6dDZnVHBLdWRmNWFUait1Rms0T0RlY2QwWTNOVGEKCXFObVQySmJYczli
        cDFUblZvOVFvMU1qVGc5TmEwMHpUV3RPRDA4alRLTlNqMURuVjZkV3oxcGJYazlpbzJkVGFHTnh4CgkzZURlWk9ENjRhVGpYK1VxNXdUcDdlcmo3T1R1OGZBRzh5UDFS
        L2R4K1o3N3p2MEFBT3dEMGdlc0MzUVBKQk8zRmljYQoJY0IyTklIa2pNQ2F2S1BNcStTekFMa1F3aGpHRU1qOHp0elB0TStNem1qTVVNMVV5WHpFMk1ONHVXeTJ4SytV
        cC9DZjYKCUplUWp3Q0dSSDEwZEtCdjNHTTRXc1JTa0Vxb1F4dzc4REUwTHV3bElDUFVHd2dXd0JMNEQ3UUk2QXFRQktnSEtBSUFBCglTd0FtQUJBQUJRQUJBQUFBLy8v
        Ny8vRC8ydisxLzREL052L1cvbHoreHYwVC9VTDhVUHMrK2d2NXVQZEY5clAwQlBNNQoJOFZidlhPMVA2ekxwQ2VmWTVLUGliK0JBM2h6Y0J0b0UyQnZXVDlTbDBpTFJ5
        cytoenF2TjdNeG16QjNNRTh4SnpNSE0KCWZNMTZ6cnpQUU5FSDB3M1ZVZGZRMllmY2M5K1E0dG5sU2VuYzdJendWUFF1K0JUOEFBQ2lCVFFMcFJEbkZlc2FwQjhGCglK
        QU1vbFN1MExsb3hoRE13TlYwMkR6ZEpOeEUzYnpacU5RMDBaREo1TUZndUVDeXFLVFludlNSTEl1c2ZwaDJFRzR3WgoJd2hjc0Zzd1VvUk90RXV3Uld4SDNFTG9RblJD
        WkVLY1F2eERhRU84UStCRHRFTWdRaFJBZEVJOFAyQTcyRGVzTXRndGEKCUN0c0lQUWVHQmJvRDRBRUFBQ0QrUnZ4NitzUDRKZmVtOVVyMEZmTUs4aWp4Y2ZEajczdnZP
        TzhUN3dqdkVlOG03MEh2CglXZTluNzJQdlJ1OEo3Nlh1Rk81VDdWL3NOT3ZVNlQ3b2RPWjg1RnJpRmVDMTNVUGJ5dGhXMXZEVHFOR0h6NXpOODh1VwoJeXBISjc4aTN5
        UEhJbzhuUXluek1wczVNMFd2VS9kZjcyMXpnRmVVWjZsdnZ6UFJlK2dBQVZnZUtEbnNWQ2h3Y0lwZ24KCWFDeDlNTTB6VWpZTU9QODROam0rT0tvM0R6WUVOS1F4Qmk5
        R0xId3B2aVloSkxjaGpoK3ZIU0ljNlJvQ0dtZ1pGQm42CglHQThaUkJtS0dkRVpEQm90R2lrYTlSbUtHZVVZQkJqb0ZwUVZFQlJqRXBjUXVRN1REUE1LSWdsdEI5d0Zk
        d1JEQTBNQwoJZUFIZkFIVUFNZ0FQQUFJQUFBRCsvL0gvenYrTC95SC9pUDY5L2IzOGlmc2srcFA0M3ZZTjlTM3pSL0ZwNzUzdDhPdHMKCTZoanAvT2NiNTNibUMrYlg1
        ZFBsOU9VdjVuYm12T2J4NWdibjdPYVk1djdsRitYZTQxSGljdUJKM3QvYlF0bUUxcnJUCgkrdEJjenZ6TDhjbFd5RUxIeXNZQngvVEhyc2t6eklQUG1OTm8yT1RkOXVP
        RjZuYnhxdmdBQUFnSjBoRW1HczBobVNobgoJTGhzenB6WUhPVU02Ynpxbk9RODQwVFVaTXhjdzlpemlLZjhtYXlRN0luOGdPeDlzSGdrZUFCNDhIcVVlSUIrVEgrY2YK
        CUJpRGlIMjhmcWg2UkhTNGNpeHEzR01VV3loVFhFZ0VSVncvbURiWU15d3NqQzdnS2dRcHZDbk1LZkFwNENsY0tEQXFMCglDYzRJMFFlWUJpZ0Zpd1BPQVFBQU12NTEv
        Tmo2YVBrditETDNkZmIwOWFuMWlQV0U5WTMxa2ZWLzlVajEzZlExOUVyegoJR3ZLcDhQL3VLZTAyNnp2cFNlZDE1ZExqYitKVzRaSGdIdUQ2M3huZ2JlRGc0RnZoeE9F
        QTR2ZmhsT0hGNElIZnhkMlYKCTJ3SFpIdFlLMCtuUDU4d3Z5dkhIV2NhUnhiM0YrY1paeWVYTW1kRm4xelBlMnVVdTd2ajJBQUMzQ2dzVm5oNGZKMG91Cgk5RE1DT0hR
        Nlhqdm9Pa281eHphcU16MHd5Q3lLS2JRbWF5VERJcjRoVUNGaUlkQWhkQ0lqSTdRakJpVC9JNDBqcXlKZwoJSWJvZjBCM0FHNmtacUJmWUZVOFVHaE0rRXJjUmVSRnlF
        WWdScEJHckVZVVJJaEYxRUhvUE5RNndEUHdLTGdsZUI2TUYKCUV3UzlBcXdCNVFCa0FCNEFCQUFBQVB6LzR2K2MveHYvVlA1RC9lMzdYZnFpK05MMkJQVlE4OHZ4aHZD
        TDc5N3VlKzVWCgk3bHp1ZU82TzdvZnVTZTdDN2Vic3Nlc282bGpvVitaQTVERGlSdUNnM2xYZGM5d0IzUHJiVE56ZDNJemRNTjZlM3JEZQoJUXQ0OTNaWGJUTmwyMWpq
        VHc4OVd6RG5KdHNZWXhhTEVqTVgreHd6TXR0SGgyR0xoOWVwSjlRQUFaUXd5R040aTh5c2UKCU15NDRIanNNUERrN0FEblBOUmN5Unk2K0tza25sU1U1SktvanlpTm1K
        RUlsSUNiR0pnVW52eWJwSllza3ZTS2pJR3NlCglRaHhSR3JrWWpCZlJGbnNXZFJhZkZ0SVc2eGJKRmxRV2Z4Vk5GTWdTQ2hFdkQxZ05wd3MwQ2hNSlNBalJCNXdIa3dl
        VwoJQjRnSFRRZk5CdndGMkFScUE4UUJBQUE4L3BiOEtQc0UralA1cy9oNCtHcjRiZmhrK0MvNHVQZnQ5c3oxV2ZTbzh0SHcKCTl1NDQ3YlByZ2VxczZUZnBGZWt1NldI
        cGkrbUY2Uy9wZE9oSDU2L2x2dU9WNFYzZlE5MTEyeGZhUWRuNzJEclo0Tm0rCgkycHJiTnR4VzNNZmJhOW8zMkVMVnVkSHB6VEhLQU1mSHhQVEQ0c1RTeCtMTURkUWkz
        YzdubS9NQUFBOE9SUnZkSmo4dwoJQ0RjWE80czh2VHN3T1lNMVd6RlFMZDBwVkNmWkpXUWx4Q1d1SnNnbnZDZy9LU0VwVGlqUkp0RWtoU0l1SUFvZVN4d1IKCUcySWFM
        aHBUR3FBYTRCcmpHb1Vhc3hsdkdNMFc4QlFFRXpZUnJRK0NEc0VOWUExSERWSU5XUTAwRGNNTTlBdkZDa1FKCglqQWZFQlJFRWxnSnZBYVFBTXdBSEFBQUErZi9OLzF6
        L2tmNXEvZS83UFBwMCtMejJPL1VNOUQzenpQS244cTd5dWZLZwoJOGoveWZ2RlQ4TXJ1L093UTZ6UHBrZWRONW52bEhlVWc1V0RscmVYUzVaN2w3K1MxNC9iaDB0OTcz
        Uy9iTDlteTE5L1cKCXdkWkUxempZVXRrODJwemFKOXFzMkNQV3NOS2x6bjNLME1aRHhIWEQ2Y1Q0eU1IUEk5bTc1UEh4QUFDM0QwRWVseXI2CglNd1k2dlR4L1BQYzUv
        alYzTVRJdHpTbWpKOGNtRENjU0tHSXBnaW9PSzhzcXF5bk5KM1FsOXlLc0lOb2VxaDBqSFNjZAoJZngzbEhSUWUxeDBQSGIwYkFCb0hHQkVXVnhRREV5b1N4eEc2RWRZ
        UjRoR3VFUmNSRGhDZUR1Y01HQXRpQ2ZJSDVRWkQKCUJ2d0Y4QVh2QmNzRldnV0dCRXNEdlFFQUFFUCt0Zng2KzZiNk5mb1IraEQ2QlBxOStSdjVEdmllOXVqMEdmTmk4
        Zkx2Cgk2ZTVTN2g3dUt1NUc3am51MXUzOTdLbnI3K241NXdEbVErVHg0aW5pN09FYjRvSGkyZUxkNGxiaUp1RlUzd25kak5vegoJMkZYV05kWHkxSDdWbnRidTEvVFlP
        ZGxkMkRQV3p0S0p6Z0xLQ2NhQncwUEQrc1VHekduVnYrRko4QUFBV3hFa0lRY3UKCUlUY2RQRDQ5UWpzOU4yRXl5UzFHS2tzbzNDZW1LQllxaUN0cUxGMHNSU3RJS2NJ
        bUppVG1JVkFnaGg5ekg5a2ZYQ0NpCglJR01nZmgvN0hRMGMraGtVR0prV3JCVk1GVkVWZlJXTEZUNFZjaFFuRTNvUm9RL2VEV2tNWnd2ZUNyUUt1Z3F5Q21VSwoJclFt
        Q0NQWUdOd1YvQXdRQzd3Qk1BQW9BQUFEMi83VC9FZi84L1lIOHlmb0srWDczVS9hYjlVNzFSdlZNOVNMMW1mU1gKCTh5THlYL0NHN3Ruc2p1dkM2blhxZytxdjZyVHFW
        T3BuNmV6bkJ1Yno0d1hpZ3VDZDMxN2ZwTjhuNEkzZ2V1Q3czeHJlCgkydHMrMmJqV3U5U2owNWJUZU5UcTFWclhKTmkxMTdyVk45S2Z6Y1BJdnNUQ3d1UEQzOGo1MGR6
        ZXBlNEFBUHdTN1NNbwoJTWJBNVdUM0RQQ281RmpRSEx5VXJFU25TS1BFcHFDc2lMYmd0RnkxTks3NG8raVdYSS8waFZDRjVJUTRpbkNLMUloVWkKCXRDREVIcDBjcGhv
        dkdXQVlMQmhZR0k4WWV4amdGNjRXQWhVZkUxUVI2QThFRDZVT253NnVEb2dPOUEzZERGVUxrZ25hCglCMjRHZWdVQkJlSUU0UVM0QkM4RUt3TzJBUUFBU3Y3Vi9OSDdT
        UHNmK3g3Ny8vcUcrcEw1SnZodTlxdjBJL01NOG5qeAoJVXZGaDhWdngvUEFZOEt6dTRleis2bExwSU9pRjUzSG5xT2ZVNTZEbjBlWmE1V1BqUE9GTTMrdmRTOTFrM2ZM
        ZGg5NnMKCTNnUGVhZHdHMmtMWHM5VHAwa2pTM3RKWTFBL1dMdGZ2MXR2VStkRHF5OWJHUGNPbndsREcyTTRUM0FUdEFBQ1pGSmttCgkrRE9xTzhzOWZUdVBOdjR3Y2l6
        cEtZNHAxaXJGTEU4dXNDNmVMVllyZENpN0pjb2o3aUlPSTdzallDUjBKS3dqRENMbgoJSDdZZDhodmxHcFlheUJvU0d3b2JaaG9XR1VrWFdCV21FM3dTOEJIZkVmb1I1
        eEZkRVQ0UXBnN1lEQ3dMNmdrMENmZ0kKCStRamxDSEVJZUFjREJra0VtZ0pCQVdnQURnQUFBUEwvbVArLy9tYjl0L3Y5K1lqNGovY2I5d2YzQ1BmTTloYjIxUFFvCgk4
        MXJ4d3UrajdobnVCdTRoN2hEdWhPMWE3S2pxdCtqcTVwcmw5dVR1NURqbGF1VWI1UTdrU3VJWjRQVGRWTnlNMjZEYgoJUmR6eTNCTGROdHhGMm96WHF0UmkwbERSc2RF
        NzB5clZjdFlYMW83VEFzOXh5WVBFTmNKV3hBak1aOWxuNndBQU1SWW0KCUtYUTJGRDJMUGFJNXl6TmRMdk1xR2lwU0szSXRLaStFTHpJdWx5dUtLUFVsZkNSQkpPVWt1
        Q1VFSmxzbHVDTjdJVDRmCglqeDI3SExFY0RSMUlIZThjMFJzUUdoRVlUQllmRmFNVXFoVE9GS0lVM2hON0VySVE2UTZBRGE0TWF3eHhER0FNNEF2TAoJQ2prSmR3ZmtC
        Y3NFUWdRbEJCOEUxZ01JQTdBQkFBQlEvdmo4S3Z6aCs5djd2dnMxK3h6Nmlmakg5algxSVBTZzg0L3oKCWxmTlM4NER5Ri9GTzc0WHRJdXhlNnpMclZ1dGQ2K0hxdE9u
        djUvRGxMK1FSNDdqaTgrSlA0MFhqY2VMQzRJWGVTTnlsCgkydnpaU05vYjI3L2JoTnNMMm5iWGFkVE8wWHpRMXRDTzBxN1U1dFVOMWFQUk5jeGV4blhDN01LTXlkcld6
        K2tBQU1VWAoJbEN1Y09QUTl0RHh0Tnk0eGZTeWlLbklycnkyNUwwa3c4UzRvTFBvb2dpWm1KYUFsakNaRkp4SW50U1YvSXlFaFVCOTAKCUhud2U3aDRqSDU0ZVBCMUdH
        MGNaeHhjT0Z3QVhOQmNqRjI0V0JSVXdFMmNSR1JCNEQySVBjUTgwRDEwTzZ3d29DNElKCglWd2pNQjdRSHJnZFJCMTRHNEFRa0E1WUJpQUFTQUFBQTd2OTQvMnIrM1B3
        Zys2TDVyL2hTK0V6NE5QaXA5MzcyMlBRVgoJODZQeHpQQ1A4Sjd3aVBEbjc1bnUwT3o3NnBMcDNlak02QURwOHVnNTZMbm11dVRFNG1MaDNlQVM0WVRoak9HdzROL2UK
        CWdkeEwydTdZdTloMDJXRGFtdHArMlFiWDJOTVAwYmZQUjlCUjBvN1VYdFdEMDlMT2s4aE13d3pDWk1kczFEdm9BQUJVCglHZUF0YnpwVVBtWTdGRFg0TG9Vclh5dDVM
        ZXN2K1REZkx3c3R1aWsrSjFZbTJpYnJKM2NveWlmbUpXd2pRaUVTSVBVZgoJY2lERUlFd2czUjdSSE5JYWVoa0NHU2daV1JrQUdkc1hGeFkxRk1JU0N4TDBFUXdTeXhI
        ZEVFNFBnUTM2Q3hJTHl3clAKCUNxRUs0QWwrQ01NR0tnVVhCS1lEbWdOOUErUUNxZ0VBQUZiK0hQMkQvR2I4V3Z6cCs5YjZQZm1DOXlEMlgvVXg5VFgxCgk3dlFHOUgv
        eXN2QWo3elh1OU8wTTd2WHRQdTNMNitucEplZ0E1NmZtMk9iKzVvYm1MdVV2NHlQaHROODgzNDdmQytEdQoJMzc3ZWxOd2EyamJZaWRjVjJDYlpxdG5DMkViVzlkSWgw
        QWZQRmRDSDBxSFVlOVFJMGV6S21zU3N3WkhGSU5LczVnQUEKCTNob0tNTzQ3UUQ3Q09jc3lWeTEzSytNc295OXVNZWt3UGk3Rktoc29NaWZjSndZcGNDbHFLQ3dtb1NQ
        UElUZ2htaUVqCglJdmtodWlDd0hwc2NOaHZLR2dRYk14dXlHbEVaWnhlY0ZYNFVMaFJPRkQwVWdCTUhFalFRbnc2M0RYME5pQTFHRFZrTQoJekFvTUNhVUg2UWJCQnJv
        R1RnWTNCWmtENmdHckFCZ0FBQURvLzFYL0Z2NW4vTW42c3ZsRytULzVGL2xiK1BUMk5QV24KCTg3cnllUEtEOGtueVlmSE03L250Z096RDY3THIwdXVDNjJUcW1laXY1
        azdsemVUODVEYmx5dVJsNDFEaFJ0OEgzdDNkCgladDdJM2pIZVg5elUyWmJYa05iNjFpVFl6dGpsMXp2Vnd0RVh6NUxPWGRBZDA0blVxZEkxelQ3R3dNRVN4UGJQSXVV
        QQoJQUdJY0VESWNQY1k5NXplK01HWXNPQ3pPTG0weDRqR3pMeUVzSENuMUo2RW81aWxOS2hZcG9pWWJKSndpZVNJY0kzTWoKCXRTTGRJS1VlK2h4ZUhKVWMyUnhqSFBj
        YS9oZytGMDBXTVJaYkZoWVcvQlE4RTNVUlJSRGhEKzRQeVEvekRtb05wZ3RGCglDcUFKaXdsNkNkNElpd2ZUQlUwRWF3TXZBeWNEdndLakFRQUFYZjVCL2RuODBmeVYv
        TFA3TGZwMStDTDNodloxOW1EMgoJdS9WYTlKYnlEZkUzOEJMd0gvQzc3NHZ1eE93RTYrcnBwZW5QNmJQcHd1Z0M1d25sbmVNbjQydmpvdU1HNDF2aEk5OUwKCTNZM2M1
        TnlIM1dUZDVkdGUyZXJXczlVYTFsL1hDOWprMXQvVFRkQWV6cFBPTXRISTA1clRRczhaeURyQzVNTHd6WjdqCglBQURoSGZJeitqMzJQUGMxRHk4cExKRXR1REI1TWtN
        eDFTMVpLcThvS3ltUEtod3I0Q2xQSjhja2dDT3JJMllrZUNRNQoJSXdraDh4N2NIZUVkUmg0VUh0RWMxeG9DR1FvWStSY3FHTTRYaHhhc0ZBRVRIeElERWhNU21SRk5F
        SVVPOXd3bkRBVU0KCS93dHZDeHNLWHdqbUJpVUdBd2J2QlUwRjd3TTVBczhBSFFBQUFPUC9NZi9IL1JIOHMvb1IrdjM1Mi9rYSthSDM1ZldSCgk5QUgwKy9QWjh3bnpl
        L0d6NzJmdTdlMzk3ZUh0Lyt4VTYzbnBNdWpXNXdmbzl1Zis1aW5sTCtQczRicmhIK0lrNGczaAoJOTk3SDNJamJtdHRWM0lEY09kdXgyQ0RXNU5SeDFkWFdVZGVuMVN2
        U3ZjNkh6VWpQYjlMWDAvSFFDY29Ld3diQ0Rzd2YKCTRnQUFXaCt2TlkwKzREc09OTll0bEN4QUwwWXluVExYTC9jcmhDbUhLZm9xMXl2TUtqSW9seVZpSkxna2ZpVlVK
        YmtqCglZaUdSSHdNZll4K2JIOGtlOFJ6dUdyVVpoeG5HR1lBWlBCaFlGck1VOFJQeUUvWVRQeE95RWVZUHBBNDhEa1lPL0EzagoJRERFTG1RbTNDSXdJZmdqZEIzWUd2
        d1J2QStVQzJRS1lBcDBCQUFCai9tajlKLzBiL1pIOFFmdUsrU1A0Z3ZkMDkwbjMKCVovYlA5QjN6QlBLNjhjVHhYUEVhOEU3dXdld0s3QTdzRCt4TjY2anB4T2VBNWpy
        bWVlWkw1aExsRCtNMzRXWGduZUQ5Cgk0Ry9nbnQ1SDNLemFndHBJMjU3YmFkck8xelRWS2RRRzFYbldmTllKMUNuUVk4MjZ6Y0RRYk5NcTB2TExJTVJ6d1ZISwoJcHVB
        QUFNd2dSemZaUHBNNlNESWZMWVl0K3pBNE0rVXhFUzZ1S3RRcElTdHFMTTRyU3ltSUpqY2xteVZ0SmlRbVVDVHQKCUlXQWdPQ0M1SUp3Z1BSOGhIWE1iNlJvb0d5UWJH
        Um83R0hzV3BoV3JGYklWNmhSRkUzOFJiaEE3RUVRUXNnOUREb0FNCglQZ3ZXQ3RjS2NnbzRDWUVIRmdaNUJXc0ZLd1VsQklBQzlRQWtBQUFBM1A4TC80RDkyL3ZWK3BY
        NmgvcnErWC80eVBhTwoJOVNuMUt2WEM5SUR6dmZGTzhMenZ4ZStTNzRIdXUrd1c2MDdxVmVwYTZvWHB4ZWZuNWR6azJPUVg1WTNrMytMRDRHVGYKCVI5L0kzNkRmRTk2
        dzI5elprOWxsMnNuYWVObTExakxVbHRQZjFDeldVdFh2MFJ2T3lNd0Z6M3JTNGRLNHpXM0ZKOEc1Cgl5RFRmQUFBNElyazQ0ejRpT2JrdzdTellMb0V5YlRPUE1ITXNV
        aW9MSzdZc3l5eVZLcUVuQkNaU0pqc245eVlMSmFBaQoJUWlGYklkOGhiQ0duSDRnZFVCeExISk1jQVJ4VUdtWVlSeGN2RjA4WHFCWUpGVHdUTUJJTkVoSVNXaEhFRHcw
        T0R3M24KCUROa01Fd3lCQ3RvSTZRZS9CNk1IMGdaQUJhUUR2Z0tWQW5FQ2xRRUFBR3Yrai8xci9VTDlYUHpBK2k3NVhmaEIrQmY0CglKdmQvOWUzekovTVo4L0h5OC9F
        ODhLYnU3dTN6N2REdHhPejM2bGpwc2VqUjZMbm9tdWVzNWYvamJlTzE0N0RqZU9KWgoJNEpUZUlkNmwzcjdlWU4zMTJnblp4ZGl1MmZ6Wlg5aHIxVFhUU3RQMTFLN1Zq
        ZE54ejVQTWY4MG8wUlBUUjgvZXhoM0IKCVI4ZkkzUUFBblNNRk9yQStuVGR6THpVdFdqQ2JNKzR5OHk1bUsrZ3FuU3lUTFFFczh5alpKdUltNVNmU0ord2xjaU1pCglJ
        bDhpM3lJcUlpZ2dKaDViSGFFZHNSMk9ISkVhK2hpS0dMOFlhUmo3RmhzVjR4T3dFOEFURHhOeUViNFAzUTdNRHFrTwoJcHczeUMzZ0s0Z25lQ1hzSk5RaC9Ca2dGN3dU
        aEJEa0V2UUliQVNvQUFBRFcvK1grUS8zSCt4LzdFZnU0K29INXkvZUYKCTlpTDJIdmFJOVE3MFdmSlg4VFR4SS9GQzhJN3U4ZXhBN0ZEc0hlemw2Z1hwbCtkQjUzYm5C
        dWR2NVhMalQrSmY0cVhpCgkydUhZMzliZElkMmgzZDdkanR3VTJpN1lHOWdlMlNmWkRkZi8wMjNTWTlNWTFaclVEZEVTeldYTXBzL0wwbzNRWThoUQoJd2Z2Rlk5d0FB
        UHNrTFR0SFBoTTJnaTdvTGRzeEtqVGVNWFF0SmlzcExPZ3RaUzJKS3RjblZ5ZGpLS2tvOFNaaUpQb2kKCVFTUEZJKzBpeWlEb0htNGUxQjZXSGdVZEFSdmxHZThaQXhv
        SUdTb1huUlVyRlVzVjBCUkxFNGNSbEJDR0VHSVFUdytRCglEVElNeWd2SUN5Y0xvZ2tCQ0NzSEZRZlBCcWdGOWdPM0FsMENTZ0tPQVFBQWN2NjIvYVA5U2YwSy9GajZN
        Zm5yK05YNAoJLy9kZTl0bjBPUFEyOU03emNQS3g4Sjd2ZXU5czczbnV0ZXd3NjdYcTFlcGo2dGJvK09iOTVSSG1HK2IvNVB2aWF1RXMKCTRaTGhHT0UyM3hQZE85eS8z
        QWJkbnRzUDJWZlhuZGVwMkNuWWQ5V2IwaGpTMTlQYTFJelNJczdXeXlYT0dOSiswZTNKCgl1Y0hUeEFYYkFBQlJKaTg4cmoyVE5Pc3Q3QzR3TXlJMGV6QmtMTEFybXkx
        eUxsVXNKeW5SSjY0b2FDa1RLSE1sekNNQQoJSkpja3dDT01JYnNmY3gvaUgyQWZpQjJsRy8wYVBodjJHbkFaakJlWEZxUVdoQlpJRlhJVFBoSVZFZ3NTRXhGVkQvRU4K
        CWpnMk5EZElNTmd1dENSRUpDd21HQ0JRSGN3V2RCSVlFTHdUdEFrQUJNZ0FBQU03L3dQNFQvZEg3ZXZ0ais0MzY3UGg2Cgk5L1gyNy9aVDlzcjBMdk56OG5MeUQvS3I4
        TzN1OWUzcjdjTHRqdXk0Nm56cFhPbHA2WFRva09ZSzVjTGtBK1ZiNUhqaQoJb09BZTRJM2dSZUIwM2tEY2Fkc0EzRFRjamRydDE1aldVdGN2Mk5uV3E5T08wV1hTVU5T
        YzA0WFAzc3ZRekJUUkZkSnQKCXkxTEMwY092MlFBQW9DY01QZTA4S2pPd0xTUXdOVFNSTXd3djlTdk5MTUl1RkM3b0tvY296Q2p2S1Q4cHNDYW1KSjhrCglWU1dsSkc0
        aWxTQmhJTlVnSlNBbUhtMGNHeHhqSExRYjJ4azNHTThYK1JkTUY0NFYrQk9CRTVVVDZoSkFFYk1QTUE4MQoJRDR3TzhBeHBDOTBLMkFveUNxRUlIQWVJQm40RzJ3VlFC
        TTBDTXdJbEFvWUJBQUI2L3R2OXpmMHovYkQ3SmZxQytYajUKCTVQaGY5ODcxS1BVajlaZjBFUE4wOGN2dzBQQk44TUR1RnUxcjdIL3NDT3h5NnJUb0IrZ3g2TW5uSmVa
        TTVKM2o1ZU9UCgk0OXJoMjk4cjM1L2ZhOStTM1Z2YnE5cGgyMXJiVU5uQjFoSFdOTmQ1MXhqVjdORSswVFBUQzlUMDBHL015OHZjejFEUwoJMXN3VHcvVENZTmdBQU9n
        b3hqMEpQT014elMxek1kTTBsakxVTFRRc0lTNUJMd0l0d2lubktDSXFUeW9hS0o4bEppWDAKCUpaUWxiaU4wSVRVaHNpSHpJT0FlUmgwcUhXUWRYeHhrR2hjWkVCa05H
        ZFFYOUJYb0ZPc1VzUlJQRTQ0UnVSQzlFRThRCgl6dzR2RFlvTWlRem9DMUlLMXdoY0NFNElmUWZaQllVRUxnUU5CQThEWkFFNUFBQUF4LytjL3ZIODgvdlMrM3Y3Si9x
        RAoJK0xMM3BQY3A5NjcxR1BSMzgzYnowZkl4OGJIdlErOUg3M0x1c2V4UDZ4WHJHT3NNNml6bzgrYnc1dW5tbk9XaDQ1emkKCTF1SzY0aURoRGQ5TzNzdmVqTjZTM0d6
        YUROcmEybUhhNXRleDFkN1ZHZGMrMXY3U3Y5RGYwY3pUTE5KcXpTM0xqYzR6CgkwaDNPOThNNndoalhBQUFvS2wwK0N6dklNRGt1dWpMK05Gd3hDQzBETFVvdit5NnZL
        MXdwQVNvS0s1OHAxU2FySldvbQoJZnlhT0pGNGk4Q0Y4SXM4aHRSOGpIaU1lVGg0UEhRNGJFQm83R3U0WlVSaVhGaE1XTUJab0ZhSVRTeEliRXY4UnpCQU4KCUR5RU9H
        ZzZuRFNZTW1Rb1FDZ1FLTHdtR0IwZ0dDZ2JTQlo0RTl3SVhBZ0VDZmdFQUFJTCsvLzNwL1FuOVl2c3UrdmI1Cgl1UGw2K05IMi9QWHc5V2YxMnZOWjh1YngzL0h6OERU
        dkFlN2w3Ylh0WHV5WTZ0RHA3ZWxwNmEvbkV1YkY1ZkRsOHVUeAoJNHJMaDNlSGQ0VXZnTWQ2RTNSRGVvdDF5MjRIWmx0bFYyaXZaWWRiMjFQL1ZwTlpSMUFYUnR0RDkw
        dmpTcE00Q3kwYk4KCXg5RTR6L1hFbzhIWTFRQUFYeXZTUHZrNTN5L25MdDh6dWpRVU1NVXNLQzc0THhJdW55clRLVGtyQlN0ZUtGWW1zeVpLCglKOGdsWUNPWklpOGp0
        eUtpSVA0ZUJCOHNIOUFkMEJzTEcwa2J0QnJmR0dzWFNCYzZGKzhWSkJSaEUzTVR6QklaRWI0UAoJaHc5Y0R4a09hZ3lxQzZRTDh3cFFDUVFJeEFlSkIwZ0dwd1RyQTlv
        RElnT0dBVUVBQUFDLy8zciszdndtL0JYOFdmdTQKCStYZjRQUGo4OTdEMkRmVmM5RmIwbHZQbjhhVHdlZkJDOE9mdU5PMk43Si9zM09zUjZzYm91T2lWNkNIblRPVzM1
        UFhrCglNT1F3NHRUZy9PQUM0VjdmU2QzUjNHZmRvTnc0MnJiWVRkbXEyYUxYKzlUSDFDM1dZZFh1MFFqUTJORTcwK3pQUnNzaAoJekJuUklkQUh4aTdCb2RRQUFJOHNK
        ai9iT0M0dnlTL0tOQlUwOFM0TUxWa3ZBekRkTERJcTRpcnVLeVVxWVNmbEp0UW4KCUNpZU9KRDhqd3lPakk2a2gyaC9NSHdRZ3BCNmpIUHNiUUJ4MUc0Z1pXQmhyR0JZ
        WWN4YmlGSmtValJSU0U1UVIyeERpCglFQmdRWVE0OERTSU51d3c2QzhFSlh3azVDUThJYVFhbkJaY0YwUVF0QXdrQzRBRjFBUUFBaS80Zy92ZjkwL3d2KzJuNgoJV2Zx
        WCtmSDN4L2FoOWovMnh2UkY4OTd5eFBLZjhlanZIdThsNzJ6dXJ1eHo2MmZySHV1TjZlcm5sZWVvNTNqbWkrVEEKCTR3WGtYZU5jNGZ6Zk5PQW00RmZlWGR3OTNNSGNj
        dHYyMkN6WUc5bWYyTnZWRXRRZTFjN1ZJOVA5ejZmUTlOSVAwZXZMCglOc3MzME5MUUpjZmF3SEhUQUFDMkxWcy90amUzTHM0d2JUVW9NeGd1eHkxUE1IRXZ3eXVHS2dV
        c3pTdjFLRUFuQ0NnbwoJS1BFbC9TTTFKSDhreXlLK0lINGcwaUNPSDRJZDJ4d2tIVDBjUnhwTEdYVVozQmdMRjhvVnlSVnNGY3dUVnhJZ0V1OFIKCWlSRHdEbjBPWnc0
        K0RaTUw0Z3JWQ3V3SlBnaFBCejBIandid0JNY0RvQU1vQTZVQlNnQUFBTGIvVy83WS9HRDhPZndRCgkrM0g1dy9peCtNTDNGUFlyOVI3MWJmVEM4cG54Zy9FUThYZnZF
        ZTdnN2FudE5PeVU2amZxTnVyMTZDVG5pK2ExNXJubAoJdytQYzRpWGpmdUp5NEM3Zmd0OUMzelhkZ2R2TDJ3UGNEOXJZMS9qWHdOZ0wxelBVKzlONjFUM1VqOUN4enpu
        UzZOSFkKCXpKUEtNczlKMFVySXBjQkswZ0FBMUM1eVA1STJlaTdqTWIwMUVqS2xMY291MURCMExoNHJiQ3U1TFBJcUpDZ0FLT1lvCglkeWY4SkpBa015VUFKTHdoSFNH
        UklZa2diaDZxSGZvZEV4MFlHemNhYWhxZUdiMFh3eGJlRmlrV1hoUlBFMVlUdEJMOAoJRU5vUHp3OC9ENWdOWmd4S0RNb0xNd3J4Q01jSVZRak5CbjBGUkFYaEJHY0RD
        QUxCQVd3QkFBQ1Uvai8rK1AyWi9CLzcKCXZQcUQralA1cS9jNTl3LzN6ZlUyOUxiem12Tm84c0h3TWZBbThBVHZUTzJxN0xIc291dlg2U0xwUGVsRDZHTG1sdVhKCgk1
        ZWprN2VJRzRsYmlrdUYzMzIvZTQ5NUUzZ0RjemRwdzJ3VGJpZGdhMXdEWTNOY08xVWZUbE5UaTFJelJMTTgyMFZ2UwoJN3MxRHloM09odEZ1eVk3QUxORUFBT292YlQ5
        ME5YY3UrVEs0TmZVd29pM2dMOUF3VnkwYks0SXN0aXpWS1NFb0ZpbmoKCUtGc20rU1NtSlRBbDR5SzVJVFFpanlGdEgyd2V3Ujc0SGZnYkZodE9HMmdhZ2hpN0Y5b1gz
        QllPRlZ3VVp4UlVFNWtSCgkraER6RU00UEpBNlhEWDROU1F5d0NqSUtDZ3JHQ0RzSHpRYVdCa01GeHdObUF5SUR3UUZUQUFBQXJmOC8vdDc4bXZ3NQoJL0wzNmF2a3or
        Y1g0T3ZmMjljNzFVUFczODRMeWFmTGM4VEx3RGU4RzcyZnVyT3laNjZUcjh1b2s2U2JvUmVoKzU1amwKCXN1VHE1QWprQ09JLzRaVGhrK0J4M3N6ZFI5NGQzZERhV3Rv
        SDI2WFpIZGZxMXQvWEs5WkswMzdUNWRTcDBqRFBJTkJlCgkwZ3ZQU01vSHpZblJqTXFUd0JiUUFBRDNNRTQvWXpTb0x2NHpaVFh3THdjdTB6Qk1NR29zcnl0YUxRVXND
        Q25mS01zcAoJRFNpMUpka2xNQ1k4Skd3aXN5S09Jb2NnS1I5MUgrY2U1aHpvR3lVY1B4dFdHYWtZeFJpV0Y5WVZhQlZYRmZBVFloSWsKCUV0d1JUeEQ2RHRzT1Z3NnpE
        SnNMaWd2SkNoOEpSUWd4Q0RVSGxRWDBCTThFbXdNVUFxWUJZd0VBQUozK1d2N3MvV1g4CglNZnNNKzJ2NnkvalA5N3YzNGZZMzlYYjBaZlJOODZueEpmRUc4Ykh2Sk83
        YzdaN3RFT3lwNnBqcUt1cHE2RHZuVitlcQoJNXNIazIrTVk1QnJqR2VHTDROZmdlZDl5M1UzZGxOM0UyOURaSjlwTDJ2UFhOZFloMS9qVys5T20wbEhVbHRPMHp5M1AK
        CStkRVEwSnZLQXN4WTBaM0xzc0FKendBQS9ERVdQMkl6Q3kva05NNDBJUysvTG5neGJDL3FLNkVzcEMzL0t1c281U211CglLUVluQUNiTEpyQWxYaU1TSTJzanZ5SHlI
        eEFnMkIvb0hiRWM3aHdqSERVYWlCbWtHVjRZcXhabkZqTVdtaFJIRXowVAoJbnhMbUVBRVEvUS96RGswTnpBeWVERDBMMUFtY0NTQUppUWQ1Qm1FR2h3WGxBellERVFQ
        YUFWc0FBQUNsL3liKzcveksKCS9CdjhlZnFmK1lmNWQvamc5bVQyTFBiRDlHTHpOUE96OGczeEEvRC83eHJ2WWUzRDdMbnNadXZONlpucFZlbWk1MXptCgllT2JMNWQz
        akV1TlA0eGppS09EdzN3N2dRZDZWM083Y290eFEyalhaQU5yNjJGTFdHOVlWMXdIVlhOSmYweGJVbE5DSQoJemtIUjM5QXl5eHpMOWRDZXpPckFCTTRBQVBjeXh6NTJN
        cFl2bnpVRU5Ka3VxUyt6TVdrdTlDdWFMVW90R1NxQ0taZ3EKCTNTaUtKdThtK3lhdEpIVWpDU1FISStBZ2t5QzdJQUFmZUIybEhSSWRJQnRaR24wYU5SbUdGMVlYQ1Jk
        VkZUWVVQeFJWCglFNTBSRnhIeUVJSVBKQTRDRG1VTnV3dmxDczhLcUFrZ0NNY0haZ2ZjQmI4RXBBVEZBeWdDandGYUFRQUFwdjV4L3RqOQoJTy94YyswSDdKUHFhK0Ru
        NDRQZFk5akgxRy9WRjlKdnkvdkhjOFg3d0R1L3A3bVB1cSt6QjY4cnJxK3IzNktyb2V1akwKCTVvUGxwK1hnNU83aVcrS0k0Z0RoUmQ5dDN5RGYrZHozMjR2Y1U5c0Yy
        UkhaZHRrajEyalZmdGJuMWJiU1p0SU0xSmZSCglUYzVYMEdmUi9NdGh5bXJRaXMwNXdRbk5BQURwTTJRK296RkVNQ2MyR2pObUxxQXdmekYvTFh3c1NDNTNMTGNwZENx
        VwoJS3VVbjZDYTlKMGdtSUNSYUpEY2tDeUlQSVhnaExpQk9Ia1llQXg0YkhCNGJUUnNjR21NWU5oamdGeUVXSXhVdkZRMFUKCWJSSW5Fc2NSSVJBaUR4Z1BBUTV2REJv
        TXRBc2VDaHdKQmduM0Iyd0dEUWFtQlJrRUZBUDRBdThCWlFBQUFKdi9FZjRJCgkvZXo4NS90YSt2UDVsUGtKK1ByMjVQYmk5VXowNXZPUjgvL3g2UERlOE4vdk9lN1o3
        WlB0OCt2UjZ0M3EzK2tnNk1ybgoJbmVmazViUGs0dVRsNC8zaHV1R3k0ZExmaU43eDN2WGR5ZHVtMitEYnVObEQyQmpaRzlocTFZelZTZGFKMDdqUmhOT0IKCTBvSE9Z
        TSthMGViTTJjbTh6MTNPbk1FWHpBQUEwalR0UGV3d0RERjJOaVV5aHk1K01lc3c0eXhWTFhVdWdpdjdLVUlyCgk1eWxtSjg0bnhpZFhKWVlrRXlWeUk2d2gvU0ZlSVVj
        ZjB4N25IaW9kM2hzUUhCQWJSQmtGR2JzWStoWUlGaElXMFJSSgoJRXlnVGpoTFlFQ3dRQ2hDYURsVU5QdzFnRE1FS1RRcjRDV3dJWmdkTUJ6QUd0QVJxQk40RFJBSjhB
        VkFCQUFDdy9vVCsKCXZQMGkvSmI3VFB2UStiVDRtdmlVOXdqMnMvVS85YUR6d2ZLcjhtYng5dS9VN3lqdmN1M1k3TGZzTCt2dTZmanBCdWxGCgk1L3Ztdk9idzVQRGpJ
        dVRXNGhuaExlRzU0S0xlQTk1VTNvN2M3ZHA2MjZuYU90Z3kySnJZR2RhKzFBWFdmdFNMMGF2UwoJSGRNVno0TE9lZEhiellySjlNNFV6eFBDTHNzQUFMRTFaejFUTU9R
        eGlqWTZNZlF1SXpJWU1MSXNQaTRZTHNrcXZpcUYKCUsvZ29xQ2VSS0EwbitpUnZKZU1rbnlKUkltc2lkQ0JjSDZ3ZlVCNmxITDhjRGh3c0dzWVptaG5mRitFVzdoYWlG
        U2dVCglHQlJWRTZJUk1SSGlFRVFQVlE1QkR2a01tZ3QzQzZjS0N3bVpDRFlJcEFiQUJad0ZVd1FEQTlvQy93RnVBQUFBa3Y4QgoJL2liOS9meXQrMlQ2UVBwYytjcjNa
        L2YxOWxuMWlmUm05QWZ6di9HcjhiendIdS9QN2w3dXErem82OWpyWHVvUzZSL3AKCUllaG01anJtMU9YeTQwSGpXK093NFZUZ3BPQ00zNVhkcjkxaDNSM2JrZG9HMi9Q
        WWI5ZFkyQWpYZTlSQzFUZlY2TkhDCgkwVTdUNk0vZHpRelJ4czUyeVJ6T3JjK1p3ay9LQUFDSU50RTgyaS9ETW1VMmJEQ2NMM2d5THkvekxQVXVWaTJPS3FFcgoJSUN0
        VEtIY29wU2dzSm5rbDl5VUZKS2tpSkNQT0lRWWdQeUI5SDRnZFZoMExIU1liZVJwM0d0TVlzUmZFRjRFV0JoWDgKCUZDTVVkeElxRXJBUkFoQmFEeVVQblEyV0RIOE1Q
        d3ZuQ2NRSjNBaFFCL3dHYXdiUUJERUU1UU5qQW0wQlJ3RUFBTG4rCglrLzZkL1J2OHovc3crNVg1QlBtdytDVDNQUFlaOXNIMGdmTnE4MlB5Mi9DbThQN3ZVTzdXN1lu
        dDNlc0U2L3JxZitrOAoJNkUvb0xlZUo1WWZsMnVUMTRxcmllT0tENE1IZit0OHkzdHpjVjkzNzJ3bmFoOXJVMlZ2WGlkZXQxK0RVWDlSeTFhclMKCUM5RU4wOUhRaU0x
        azBKVFBtOGs5elNiUUw4TjR5UUFBVkRjdlBJSXZvVE1NTnNzdmFUQjJNbDB1ankxSUwzTXM0aW8rCglMRTRxVVNoRUtRUW8xQ1ZYSnA4bFpDTjNJeU1qL1NDaklKTWdt
        eDdkSGZRZE9od2xHMGNiMWhsOEdKRVliUmZoRmRRVgoJK3hSU0V4VVRmeExQRUZjUStBOVVEcHdOWlEzZkMrZ0t4d3B1Q1R3SUh3ajhCcHNGYndXSEJBUUR1UUlNQW5j
        QUFBQ0oKCS8vVDlSLzM4L0huN2tmcGwrZ1Q1NGZmRTk1TDJPZlVZOVNIMG0vSms4cXp4Q1BDcDd6SHZnZTNyN0s3c0Jlc3M2aC9xCglrK2h2NTRUbkt1YTU1TnZreHVN
        TTRpUGlaZUZ0MzEzZkE5L2QzSW5jbk54aDJxblpMTnI4MTd6V3I5ZXkxY0xUSHRXTgoJMDdqUWNkS2owWXJObDg4MTBQVEpYOHgrME5IRHJNZ0FBQmc0Z3p0S0wzWTBo
        elZpTDBJeElETElMVjh1SmkrNks1d3IKCVVTeCtLZW9vakNrb0owTW16eWJFSktJakdDUlhJZ1loWXlIaUgyOGVzQjVuSGRzYi94dm9Ha29aVHhsbEdMd1dvUmJlCglG
        VEFVOUJOVUU2VVJTQkhIRUIwUG5RNDNEcFlNOUF1a0N4QUtUUWtPQ1lzSHB3WjFCZ2NGQkFUYkE0TUNZZ0U5QVFBQQoJdy82ZS9uMzlKZno4Ky9uNmkvbForWFg0OHZh
        ejl2RDFYUFFNOUdyenlmRmo4ZVB3T2UrNDdsdnVyT3dNN05Eckl1cGYKCTZVVHBtK2V4NXJibUdPVUI1Q1hrbWVKUTRaSGhIdUNkM3ZyZXFkM28yMTdjUE5zeDJiM1oy
        TmgwMWhiWGd0YXYwMlRVCglSdFRhMEtIUk9OTGd6YjdPbnRCNXlvckx0dEI5eE9qSEFBRFNPTTQ2TXk4NU5kODBOaThOTW9ZeGlDMHZMNXd1Wnl0dgoJTE5nckZ5bS9L
        U1Vwc0NZV0ozd21PeVJ5Sk5nanZpSFNJVGdoT3g4ekg1b2V0QnlXSFA0YktocjdHV01abmhkZ0Y4b1cKCUVCWEdGREVVZ1JJc0Vwa1I4UStURHdJUFlBMzZER3NNemdw
        aEN0UUpPd2pKQno0SHFBVXhCYWtFRlFPWUFoUUNnUUFBCglBSC8vN1Axby9ldjhWL3ZQK2xqNnd2ZzMrTVgzTFBhZjlUTDFsZk1HODZEeS92QnQ4QS93Wis3VTdYL3R6
        K3M2Ni9EcQoJTnVtZzZHTG9uZVlGNXRibEF1UnE0MHpqWnVITjRNWGd5TjR1M2tMZUtOeU8yOFhiaE5ucTJGRFoyOVpCMXVuV0tOU1IKCTA1blVaTkhSMEhqU2VzN3p6
        Y3JRSWN2SHlzM1FNc1V1eHdBQWd6a1RPanN2NVRVZ05FZ3ZzakxETUtRdHppL1ZMWTRyCglDQzBPSzBncFVTcFpLT3Ntb1NldEpZQWs5U1FJSXd3aVRTSm1JSk1mcGgv
        SUhSVWRBUjBzRzVRYVhCcVJHQkVZdUJmNQoJRll3VkZSVmhFd1VUY2hMTEVIMFF6dzgyRHZNTkxBMmlDMmdMaWdvUENkMEk1d2Q5QmxBR1JRWHNBOElEb2dKY0FUUUIK
        CUFBRE0vcVQrWHYwKy9CVDh1L3F3K1lQNUdmZ2o5L0gyZHZXWTlGNzAxUElOOHNyeE1mQ0Q3elh2anUzNzdKL3M2K3AwCgk2Z2ZxU09qdjUyL25wT1ZzNWRUay8rTHI0
        amppV3VCdDRKcmZzOTMwM2ZqY0M5dUEyMVBhWDlnVjJhZlhyOVc0MXZMVQoJK05KeTFDdlNNdEJjMGozUFRzMjQwT0RMRzhyRjBPM0ZmY1lBQUNzNlZEbGhMM00yVmpP
        VUx5SXo5UzhVTGhvd0N5MGMKCUxDNHRVQ3J3S1U4cXJTZW1KM2NuR3lWSEphWWtsU0xYSXRvaEZ5QmFJQlFmbngzUkhWWWNLaHM5RzU4WnVCaWhHTzhXCglSaGI4RlVn
        VTBoTlNFNmtSV3hHa0VCSVAzdzd6RFlJTVhneEFDL2tKMXdtT0NIWUhTUWZlQmZZRXRBUXlBM29DR0FLSwoJQUFBQWR2L28vWWI5enZ4TSt3cjdJdnEzK0lyNGN2Y3A5
        Z2Yyd1BTaTgzN3pEZkloOGU3d1hPK2w3bGZ1cnV3dTdManIKCUJPcTY2UkhwWCtkSTUySG13K1RXNUtyakwrSmg0dXpncHQvcDN5YmVLZDFyM1ZyYnVkcmwyb25ZV3Ro
        VDJMSFZFTmF3CgkxZExTNU5QMTB1YlA3TkVMME43TWJOQ3F6STNKbjlDc3h0WEZBQURKT3BNNG95L2dOb3d5RVRCUU16b3Z2UzRGTUhZcwoJM2l6WExQQXB0Q3JBS1k4
        blZDakJKa0VseXlYZEkvb2lJaU1YSWJBZ1lpQnRIbGtlbFIzZUcvRWJ4UnBrR1hNWitoZjQKCUZ0OFdPaFdVRkRnVWl4SXVFb0VSN3cvQkQ4SU9aUTFIRFFBTTZncThD
        a01KZWdnZ0NKQUdEd1oxQmV3RG9RTytBbGtCCglLZ0VBQU5iK3AvNUMvVi84RlB5TCt2SDVjUG5nOTRiM3ZmWkU5UmIxQVBTNThwdnlQdkUvOEJId2YrN1M3WFh0eU90
        cwoJNjhicUlla0k2UWJvamVhYzVqdmxEK1FpNUd2aXArR1Q0WjdmVU4vcDN0N2NCdDBqM0RYYXY5by8yYXpYY2RoQTFrelYKCUVOWXAweUxUaXRQN3owUFJ4dEN3ek8v
        UGRNMGd5VjNRYmNjM3hRQUFYVHZTTi8wdktUZlFNYkl3T3pPdkxuNHZseTg3CglMSkV0S1N3VktpNHIreWdKS0hrb0V5YjBKWkVsY0NPN0k1Y2lBaUZSSWFZZnR4NjBI
        dFVjZEJ6d0d5MGFJaG9XR2E0WAoJc2hjOEZrd1ZIUlYxRS9jU1poTE1FSm9RbXc5RkRpZ095d3paQzVZTENBcDdDZVlJWGdjYUJ5RUcwZ1NuQkZZRFlRSVoKCUFwTUFB
        QUJ0LytmOW4vMnEvRm43THZ2ZitlYjRvdmdhOTRYMitQVnE5Q2YwTmZQWThidnhaZkJtN3pUdm11MEo3WXZzCgk0K3EwNnNUcFR1aFM2T3JtM3VYVDVSRGtqT01yNDB6
        aFNlRmE0Sy9lL3Q1cDNVWGNrTnh2Mmd6YTdkbUgxL2ZYQmRmUwoJMU92VjE5TnYwc1hUYWRDQzBGSFJ4Y3hPenpETzE4Z0QwQzdJbzhRQUFPazdFVGR0TUV3M0tqRm5N
        ZWd5WkM0d01PMHUKCWFDejVMV3NycHlvakszTW94aWorSi9ZbGtTYldKTWdqK2lQbElhNGhHQ0ZESDNFZkdoN25IUE1jTUJ1dEdqUWFmQmhwCglHRThYQkJiNEZXd1V0
        Qk5RRTZ3UmFoRitFQ0VQQXcrZ0RjRU1iUXpaQ25FS3FRaytDQklJMFFiUUJZa0ZBd1I3QTlNQwoJV2dFaEFRQUEzLzZtL2kzOWhmejkrM2Y2TVBvditlNzN3dmRYOW8v
        MUovV1Q4ei96WVBMOThOL3dndStXN2xUdXNPeE0KCTdKVHJDT3I4NmJIb2wrZUU1OHpsVStYUTVBM2pHZVBtNFkvZ3ZlRG8zbExlRzk0RzNEamNLdHR2MlFyYUF0ZzYx
        NDNYCgkzZFJaMVpYVUI5S1kweFBSME0rYzBSak5tYzdXenJUSWs4L3Z5QmZFQUFCclBGUTI4REJLTjZRd0lESmlNbUl1c3pBdwoJTHVzcytDM2xLbUVyblNweEtFa3BR
        aWQ1SnBBbVVTU0NKSFVqNUNFeElsd2d4aDl3SDVVZG9SMXVIQzhiTUJ0NEdmOFkKCWFCaktGcjRXY3hWckZEZ1VsQkl3RW1vUitRL2JEMzhPb0ExRkRiRUxYUXR4Q2lV
        SitBaU5COUVHVkFiT0JJY0Vld05QCglBaFVDblFBQUFHUC82LzJ4L1lYOGVmc3krNno1TC9seitBajMyL2FQOWFQMFQvUzc4bUR5Z2ZFbDhBZndsdTdRN1d6dAoJeU91
        VjY0M3FRdWsyNlpqbkFlZUk1dERrMGVTUzQxL2lhK0tRNERyZ3BOL1AzUnplaTl4KzI2L2JjTm1IMmI3WXQ5YVAKCTEyUFZuOVFiMVFqU0ZkUFEwVTNQbnRHZXplRE5Y
        TSsyeUJEUHJNbVZ3d0FBNUR5Y05ZRXhKRGRFTU00eXVqR25MdTh3CglqUzJiTFpFdHlTcnRLK1VwOGlnL0tjd21MU2YySlh3azF5VEhJb3dpNGlFbUlHSWd1eDRCSHJJ
        ZDVSdmxHNmNhaVJscwoJR2JNWFpoZUlGaVFWRkJXTEUrb1NYQkxSRUs0UVp3OTFEaUVPalF3K0RFRUxDd3JXQ1ZjSXlnY1dCNjRGZlFVcEJGY0QKCTRnSmZBUmdCQUFE
        by9xSCtIdjJwL05mN2cvcFMrdXI0TnZpcDl5cjI5ZlcvOU1MemMvUGY4WXZ4bWZCUzd5L3ZwTzBXCgk3WFhzN09yYzZuanBtdWhONkpUbWQrWlo1UnZrRytSTzR2L2hS
        ZUdlMzlyZkh0NTAzVG5kS2R1RTJ3cmEwOWcwMmNIVwoJRHRjYjFoUFVOOVZ2MG1YU2M5SVJ6MW5SUnM0eXpielAzTWgvem1US0hNTUFBRlE5NnpRZU10NDJEekJpTXdZ
        eEpDL2MKCU1DZ3RSaTdwTEJ3ckRpeFpLYVFwc3lqdUpvQW5UeVVuSlhNa3RDSUtJeTRodWlBdElIWWVuaDRCSFZZYzVCczBHamdhCgl6QmozRjVvWDhoWFdGWlFVbkJO
        TkU3QVJkaEZZRUVNUEFBOXREUmdOR3d6c0NyQUtLZ202Q053SGx3WmdCdWdFWFFTYwoJQTBRQ0R3S21BQUFBV3YveC9iejlaUHlqK3hqN29QbHArU1Q0UnZmVzlsRDFG
        UFhsOCtqeWsvSUE4YjN3cU8rSzdsRHUKCXMreGs3R3pyS3VvTzZtYm9DZWcwNThqbHpPVWM1S3JqLytKaTRZcmgwOTlHMzlMZTl0eE0zWTNiMmRxeDJvRFlFdGxOCgkx
        MXpXcDlieTArVFVGOU82MGRqU0pNL2MwUHJPbnN6eHp5TEo0czBWeTZ6Q0FBQzdQVUEwd2pKNk5nVXcwRE5hTU1VdgoJZ0RBVkxib3VPeXk2SzdvclBpa2ZLZ1FvaUNj
        MEp5d2xxQ1hDSTBvanhTSUNJVUVoZkI4SEgySWV6UnppSERRYndSb0UKCUdwQVlpUmpwRm5vV3F4VlFGRElVbmhJeEVsTVJEUkRlRDFFTzZRMzlETWdMaXdzRUNxQUpx
        QWlCQnpvSHRRVlhCVlFFCglPZ1BwQW1ZQkRnRUFBUEwrbXY0WC9jYjhyUHVwK2t2Nnh2aC8rRmozWVBiODlYWDBPUFFEOHhmeXIvRWk4UFB2cmU3UAoJN1dMdHp1dXc2
        MVhxaHVrWDZYZm5jT2Y4NVQvbHpPUWU0elBqbnVINTRJVGd2OTcrM2p2ZHR0dyszRmphMU5yTTJIalkKCS9OZmgxY0xXUnRSRzFNWFRSdEhyMG9EUE85Q216ekRNKzgr
        R3lUN053TXRGd2dBQUdUNmZNMm96L3pVbE1CQTB5Uzl4CglNTzh2VmkzYkxzQXJZaXdaSzUwcEhpcWpKeVlvaWlhbEpZVWxmeVBaSXhnaWtTSCtJRm9mZ0IrNEhXc2Rn
        aHd6R3lBYgoJWkJrNUdRNFlDaGU3RmhzVi9CU2lFOThTVXhMWkVMVVFQZyt3RHVnTm5ReG5ET0lLZlFwK0NXWUlFQWlOQmtVR0ZRVXkKCUJMUURRQUlHQXE4QUFBQlIv
        L3I5d1AxTS9NNzc2L3E3K1hQNThQZWE5NEwyZy9VZTlabnpZL01ZOGxEeHd2Qkw3eWZ2CglyZTBoN1Y3c0JPdmw2a1hwOXVqeTU4Zm1uT2JnNU0za2Z1T1Y0a2ppZ09D
        bTRBTGZiOTdvM1NmY2dkeDcybHZhZHRuYQoJMTEzWTR0VmoxdWZVbnROQTFDWFJxdElSMEkvUE45RHd5OXZQQWNxV3pHSE01OEVBQUc4K0NUTVNOSEUxYkRBZk5HTXYK
        CURERkdMOWN0b0M2ZUs5SXNkaXBBS3FVcHl5ZFdLQXNtU2libEpPb2p2eVBXSVJnaVZTRHlIeUVmdngyNkhmQWIyeHVPCglHck1aUVJtdkY2TVhFaGFpRmJzVWlSTktF
        N01SZmhFNEVHOFAyUTV3RFVFTnhBdFRDMXdLUlFucENHa0hLUWZnQlNVRgoJZXdRbkEra0NjUUVHQVFBQSt2NlAvaGY5MmZ5Ris5djZJUHJYK0pmNEYvZTc5cVQxcmZR
        ODlML3lrUEluOFpId3lPK0MKCTdrM3V0dXgzN0VYclh1cnU2VjNvVWVpLzVrM21jdVVsNUJEa1J1SkI0dC9nRHVDcjMramRLdDVCM0JiY0c5dTIyZlhaCglxdGMxMkZ2
        V3dOV0sxUzdUWXRSZzBTblN1dEQwenAzUTRjdVV6NC9LN3N2M3pKSEJBQUM3UG4weXRqVFdOTlF3L2pNeAoJTDRBeHBpNTVMaDh1M0N2aExCa3EwU3IrS0Z3bytTY2FK
        b2dtWXlTTUpCOGpTeUxuSVRNZ1dpQ0hIbVFlTHgwOUhOc2IKCVB4bzlHcG9ZU0JnNUZ6SVcwaFZFRkNjVXBoSXpFajRSSnhETEQwWU9GZzZ1RENBTVFnc2NDc1VKUmdn
        SENMTUdFQVpHCglCUkVFd0FOREF2c0J0d0FBQUVuL0JmNjkvVUQ4Ny91Nit2RDVUZm41OTdyM08vYms5YjcwNFBOUzgrcnh1dkUxOE5udgoJd3U3TjdWcnQyZXU4Nnk3
        cXp1bkg2TGpuWnVmRDVjSGxKZVRENDlIaW5PRjU0YWJmemQ4WjNyWGQ0ZHgwMjUzYmVObm0KCTJRZllwTmNDMXkvVjU5VWYweVRVNGRHSDBWclJnTTdQMEFMTUxNOHF5
        MHJMZzgxRndRQUEvejcrTVZNMU5EUldNYTh6CglPQys5TVN3dUZDOThMV01zakN3b0tnY3JpU2oxS0ZZbnBTWXRKbm9rdWlTd0l1QWlReUhDSVBnZnBoNkxIc2NjMEJ3
        MwoJRzlJYTFSbkJHR2NZMXhiQkZpNFYyeFM1RTlVU1NoTGpFTElRS0EvZkRxSU41UXd3RE80S293b2pDZUlJamdmeUJoZ0cKCStRU1VCQ0FENGdKOEFmMEFBQUFELzRU
        K0h2M2cvR3o3Qi92bytRNzVjdmdlOTkzMlhmVVM5ZER6Ry9OZThpSHgyUEJPCgk3eDN2dHUwcjdVZnNKZXZTNmovcEtlbVo1ei9uSytZdTVjbmtNT001NDNYaFd1RUk0
        RDdmdmQ0ZzNWRGRSdHVHMjlQWgoJVzltcTJBdlhkOWY1MU5qVmROT2QwNFRTN05EVTBVUE95TkJSektyT3pNdXR5Z0xPQWNFQUFEcy9pekhsTlpNejZURTkKCU0zUXZ2
        REh0TFlRdjV5d0NMZmNybUNySktvZ29NU25qSmpnbmpDVU9KVWdrN1NMZ0lnVWhNeUZrSDBVZjloMDRIWkljCglOaHNQRzJNWlZSbkdGMm9YVHhackZkb1VleE5HRTdZ
        Umd4RWVFSmtQb2c2aURTSU52Z3VDQ3dNS3R3bHdDTXNIOFFiYQoJQldvRkFBVEFBMDBDN2dIQUFBQUFRUDhTL3JQOVFQd0EvSmI2SnZvUCtUWDRrUGRKOXYzMWZ2UkM5
        Tjd5WHZKZThXZncKCTR1OTk3a3J1dXV5RjdDYnJsZXF4Nlpib091aXI1cDNtOGVUSzVHN2p5T0lLNHJ2Z25PRE4zdnZlSU4wVDNiamI4dHAwCgkyc2pZSGRuUDFualhO
        OVZvMVFuVS90SVowM3pRRTlKRXpvelF3OHdYem0zTUc4cDF6c1hBQUFCdlB5WXhhemIzTW9NeQoJc1RMZEwzNHg5QzJ4TDRnc2d5MWRLek1yT1NyMktPMG84aVplSnpN
        bGl5V3dJNGtqVFNKNEllZ2dlaDlqSDZRZHNSMzkKCUc5TWJlaHJjR1FNWjVSZUJGd1FXM3hWSUZCZ1VyeEkwRWlzUlJCQ29EMTRPRVE2VERGc002UXFHQ2xrSm5RalRC
        N1VHCglSQWJmQkpzRUpnUFVBb29COVFBQUFBdi9kdjRzL2RyOFpmc2grN3o1Uy9rdCtHUDNwL1o2OVJmMXBmTnQ4Ky94b3ZGWQoJOEx6djFlN003Vkh0Nk91NDZ5SHEv
        T2wvNkJ2by9lWWs1b2JsTGVRRDVFL2lYT0tkNEliZ0dOK0kzclBkZDl4UTNIWGEKCXpkcWkyQTdaRTljSzE4ZlZ6ZFNqMUgzU2VOTlAwQXpTZ3M0ajBFL05mYzBKelpY
        SjJzNlJ3QUFBbWovUE1PRTJaekljCglNeGd5WkRBUU1Ud3VrUzk0TEw0dCtpcXpLNlFwa0NsWUtIRW4reVp1SlhzbGtTUFJJOThoQUNKUElCTWcxQjRiSGxvZAoJS1J6
        U0cwd2FNUnFMR0hNWTVoYWNGbFlWdFJUUEU4MFNRaEx3RUtVUUp3L3lEbllOSnczYUMwc0xTZ3BvQ2JzSWlnY2kKCUI3c0ZkZ1VCQkxVRFhRTGdBY2dBQUFBNC95RCtv
        LzFML1AvN2l2cEYrdDc0ZHZoRjk1ajJ0dlcxOUNiMDJmS0s4Zzd4CgkyZkJiN3hEdnZ1MHo3VEhzUyt1cTZtVHBHdW1ONTNYbnorVzA1UzdrMStPbTR1WGhMT0h0MzdI
        ZkFONGgzaS9jYjl5RgoJMnBMYUJkbVAyS2pYY05aYzFrM1VCdFZDMG9qVGI5REUwZkRPbk0vb3plVE1tYzBmeVRIUFpzQUFBTDAvaGpCR04rY3gKCXFqTi9NZmt3Z2pD
        MUxqQXZ1Q3lmTGZJcTNpdFZLZnNwMUNjQ0tHSW1BaWJ4SkFZa2RpTVpJdWtoUUNCR0lINGVpeDdUCglITHdjT2h2Zkdxb1oreGdlR0JrWGpCWS9GZThVZEJOQ0U3Z1Jo
        QkVORUxnUGJ3N2hEZGdNQmd4REN5d0txUWxiQ0FRSQoJbGdaUkJ0OEVrQVEyQThNQ21BSHRBQUFBRS85by9qMzl5dnh3K3lIN3IvbHErZnozcGZkWDl0VDF2ZlQ2OHlq
        ekgvS1IKCThVanc4Kzk4N2tqdXZ1eU03Qkhyd2VwMDZlZm80dWNGNTFibUllWEc1RVRqTGVOMTRZTGh1dC9BM3hmZTU5MkszUHJiCglEOXYrMlo3Wi90Y3MyQVhXcTlZ
        aTFBN1ZZZEpJMDlEUVM5Rit6d2ZQZ2M1V3pCbk91c2g2ejBQQUFBRFpQMHd3bURkOQoJTVNVMDlEQ0xNZXd2UmkrbExqTXROQzFFSzZRcmNTbjZLYlluT2lnT0ptc21k
        Q1NQSk9JaXJTSldJY2tneVIvbkhqY2UKCURCMmVIRGtiL0JweEdVNFp0QmVWRndJVzBSVlpGQVlVdHhJMEVob1JZQkIrRDR3TzRRMjdERDhNOEFxV0Npd0o1UWh4CglC
        eXNIdndWcEJSUUVvQU53QXRFQnp3QUFBREgvTC82US9XRDg3UHVYK2tINjFmaVArQnYzMVBacTlSRDF3Zk5GOHgveQoJZFBHQzhLRHY1dTdNN1VudCt1dW42eS9xL3Vs
        cjZFem9zdWFQNWdUbHgrUmk0L1RpeWVFWjRUZmdOOStxM2xQZEh0MXgKCTI0emJsZG55MmNiWFN0Z0cxby9XWE5TODFNelN6ZEpiMGJyUUZOQjF6Z3pQMjh1RHptakl0
        TThud0FBQTdUOGdNTlkzCglLakdHTklJd0NESmpMOVF2RVM3RkxhTXN6U3NoSytjcGtTa05LUFFuUHlaTkpub2tuU1MrSXVVaUNTRW1JVnNmWVIreQoJSFpnZERCekxH
        Mm9hL1JuSUdDMFlKeGRlRm9VVmtSVGlFOFVTT3hMOUVKRVFPUS9qRG5rTk1RMjlDM29MQlFxL0NWSUkKCUFBaWpCajBHOXdSM0JFNERyd0ttQWVVQUFBQWIvMXIrVWYy
        eS9JbjdDZnZEK1YzNUFQaXU5MEgyKy9XRzlFUDB6L0tICgk4aDN4eC9Cdjd3UHZ4ZTA3N1I3c2IrdDc2cUxwMmVqVDV6am5BK2FXNVRYazlPTm80azdpbitDbDROcmU5
        OTRiM1VMZAoJWTl1RzI3UFp3ZGtNMlBQWGI5WVoxdC9VTTlSZDB6dlM3OUVzMEozUStNMSt6M3JMMXM0cXlPRFBFOEFBQVBvL0F6RCsKCU4vSXd5alF3TUdNeS9DNURN
        Smd0UkM0ZExGY3NreXAyS3Y4b25DaG1KOGdteHlYNUpDUWtMU04rSW1RaDFTQ2ZIeWtmCgkyeDE3SFJvY3l4dGJHaGthbmhoa0dPTVdyaFlwRmZjVWNSTTlFN3NSZ2hF
        R0VNWVBVdzRKRHFFTVNnenZDb3NLUHduSwoJQ0pBSENRZmhCVWNGTWdTRkE0VUN3d0hYQUFBQUtmODkvbnY5ZS96Tys3bjZIL3IzK0hENE52ZkI5blgxRWZXMjgxL3oK
        CTkvR3Q4VHJ3K3U5KzdrWHV3K3lQN0FucjErcFM2UjNwbk9kaTUrZmxwZVUxNU9iamhlSWw0dGZnWWVBcjM1emVndDNUCgkzTnpiQjlzNTJqalptdGhrMXdIWGl0VnQx
        YW5UNDlPODBXalN2YzhFMFozTjBNODJ5dzdQQXNqOXp3YkFBQUFBUVBRdgoJRWpqVk1PczBCakNTTXNRdWZ6QlVMWXd1elN1ckxEY3ExQ3FhS0FVcDl5WTZKMUFsY2lX
        bUk2MGoraUhxSVV3Z0tDQ2QKCUhtY2U3UnlvSER3YjZScUtHU29aMkJkc0Z5WVdyeFZ6RlBJVHZ4STFFZ3dSZUJCWUQ3d09wQTBBRGZBTFJBczdDb2dKCglod2pNQjlN
        R0VRWWVCVlVFYVFPWkFyVUIzZ0FBQUNML1MvNW4vWmY4cS92aSt1LzVMZmswK0huM2VQYkY5YnowRVBRQQoJODF6eVJQR284SWp2OU83TDdVSHREdXlONjFIcTJ1bVU2
        Q2pvMXVaMjVoZmx4T1JZNHhQam1lRmo0ZGpmdE44VzNnYmUKCVU5eGEzSTdhc05yRzJBblorOVptMXl6VnlkVlYwelBVZE5HczBvSFBQTkZ1emZyUEZjc3J6KzdIRE5B
        QXdBQUFBQUNBCglBQUFBQmdBRUFBQUFKQU5HQm1RSmZBeU5ENVFTa0JWK0dGMGJLeDduSUk0aklDYWFLUHNxUVMxc0wza3hhRE0zTmVVMgoJY1RqYk9TRTdRancvUFJV
        K3hUNVBQN0UvN0Q4QVFPdy9zVDlQUDhVK0ZUNC9QVUk4SVR2Yk9YRTQ1VFkzTldnemVURnMKCUwwRXQreXFhS0NBbWppUG5JQ3NlWFJ0K0dKQVZsQktORDN3TVpBbEdC
        aVFEQUFEYy9McjVuUGFFODNQd2JPMXc2b0xuCglvK1RWNFJuZmN0emcyV2JYQmRXLzBwVFFoODZZek1uS0c4bVB4eVhHMzhTK3c4SEM2OEU3d2JIQVQ4QVV3QURBRk1C
        UAoJd0xIQU84SHJ3Y0hDdnNQZnhDWEdqOGNieWNuS21NeUh6cFRRdjlJRjFXYlg0Tmx5M0JuZjFlR2o1SUxuY09wczdYUHcKCWhQT2M5cnI1M1B3QUFFWUdmQXlVRW40
        WUt4Nk9JNW9vUVMxNU1UYzFjVGdoT3o4OXhUNnhQd0JBc1QvRlBqODlJVHR4CglPRGMxZVRGQkxab29qaU1ySG40WWxCSjhERVlHQUFDNitZVHpiTzJDNTlYaGN0eG0x
        Ny9TaDg3SnlvL0gzOFRCd2p2QgoJVDhBQXdFL0FPOEhCd3QvRWo4Zkp5b2ZPdjlKbTEzTGMxZUdDNTJ6dGhQTzYrUUFBUmdaOERKUVNmaGdySG80am1paEIKCUxYa3hO
        elZ4T0NFN1B6M0ZQckUvQUVDeFA4VStQejBoTzNFNE56VjVNVUV0bWlpT0l5c2VmaGlVRW53TVJnWUFBTHI1CgloUE5zN1lMbjFlRnkzR2JYdjlLSHpzbktqOGZmeE1I
        Q084RlB3QURBVDhBN3djSEMzOFNQeDhuS2g4Ni8wbWJYY3R6VgoJNFlMbmJPMkU4N3I1QUFCOERINFlqaU5CTFRjMUlUdkZQZ0JBeFQ0aE96YzFRUzJPSTM0WWZBd0FB
        SVR6Z3VkeTNML1MKCXljcmZ4RHZCQU1BN3dkL0V5Y3EvMG5MY2d1ZUU4d0FBZkF4K0dJNGpRUzAzTlNFN3hUNEFRTVUrSVRzM05VRXRqaU4rCglHSHdNQUFDRTg0TG5j
        dHkvMHNuSzM4UTd3UURBTzhIZnhNbkt2OUp5M0lMbmhQTUFBSHdNZmhpT0kwRXROelVoTzhVKwoJQUVERlBpRTdOelZCTFk0amZoaDhEQUFBaFBPQzUzTGN2OUxKeXQv
        RU84RUF3RHZCMzhUSnlyL1NjdHlDNTRUekFBQjgKCURINFlqaU5CTFRjMUlUdkZQZ0JBeFQ0aE96YzFRUzJPSTM0WWZBd0FBSVR6Z3VkeTNML1N5Y3JmeER2QkFNQTd3
        ZC9FCgl5Y3EvMG5MY2d1ZUU4d0FBZmhoQkxTRTdBRUFoTzBFdGZoZ0FBSUxudjlMZnhBREEzOFMvMG9MbkFBQitHRUV0SVRzQQoJUUNFN1FTMStHQUFBZ3VlLzB0L0VB
        TURmeEwvU2d1Y0FBSDRZUVMwaE93QkFJVHRCTFg0WUFBQ0M1Ny9TMzhRQXdOL0UKCXY5S0M1d0FBZmhoQkxTRTdBRUFoTzBFdGZoZ0FBSUxudjlMZnhBREEzOFMvMG9M
        bkFBQitHRUV0SVRzQVFDRTdRUzErCglHQUFBZ3VlLzB0L0VBTURmeEwvU2d1Y0FBSDRZUVMwaE93QkFJVHRCTFg0WUFBQ0M1Ny9TMzhRQXdOL0V2OUtDNXdBQQoJZmho
        QkxTRTdBRUFoTzBFdGZoZ0FBSUxudjlMZnhBREEzOFMvMG9MbkFBQitHRUV0SVRzQVFDRTdRUzErR0FBQWd1ZS8KCTB0L0VBTURmeEwvU2d1Y0FBRUV0QUVCQkxRQUF2
        OUlBd0wvU0FBQkJMUUJBUVMwQUFML1NBTUMvMGdBQVFTMEFRRUV0CglBQUMvMGdEQXY5SUFBRUV0QUVCQkxRQUF2OUlBd0wvU0FBQkJMUUJBUVMwQUFML1NBTUMvMGdB
        QVFTMEFRRUV0QUFDLwoJMGdEQXY5SUFBRUV0QUVCQkxRQUF2OUlBd0wvU0FBQkJMUUJBUVMwQUFML1NBTUMvMGdBQVFTMEFRRUV0QUFDLzBnREEKCXY5SUFBRUV0QUVC
        QkxRQUF2OUlBd0wvU0FBQkJMUUJBUVMwQUFML1NBTUMvMGdBQVFTMEFRRUV0QUFDLzBnREF2OUlBCglBRUV0QUVCQkxRQUF2OUlBd0wvU0FBQkJMUUJBUVMwQUFML1NB
        TUMvMGdBQVFTMEFRRUV0QUFDLzBnREF2OUlBQUVFdAoJQUVCQkxRQUF2OUlBd0wvU0FBQUFRQUFBQU1BQUFBQkFBQUFBd0FBQUFFQUFBQURBQUFBQVFBQUFBTUFBQUFC
        QUFBQUEKCXdBQUFBRUFBQUFEQUFBQUFRQUFBQU1BQUFBQkFBQUFBd0FBQUFFQUFBQURBQUFBQVFBQUFBTUFBQUFCQUFBQUF3QUFBCglBRUFBQUFEQUFBQUFRQUFBQU1B
        QUFBQkFBQUFBd0FBQUFFQUFBQURBQUFBQVFBQUFBTUFBQUFCQUFBQUF3QUFBQUVBQQoJQUFEQUFBQUFRQUFBQU1BQUFBQkFBQUFBd0FBQUFFQUFBQURBQUFBQVFBQUFB
        TUFBQUFCQUFBQUF3QUFBQUVBQUFBREEKCUFBQUFRQUFBQU1BQUFBQkFBQUFBd0FBQUFFQUFBQURBQUFBQVFBQUFBTUFBQUFCQUFBQUF3QUFBQUVBQUFBREFBQUFBCglR
        QUFBQU1BQUFBQkFBQUFBd0E9PQoJPC9kYXRhPgoJPGtleT5tYW51ZmFjdHVyZXI8L2tleT4KCTxpbnRlZ2VyPjE0NTAwMDkxNTM8L2ludGVnZXI+Cgk8a2V5Pm5hbWU8
        L2tleT4KCTxzdHJpbmc+PC9zdHJpbmc+Cgk8a2V5PnN1YnR5cGU8L2tleT4KCTxpbnRlZ2VyPjEzOTkyODE3NDg8L2ludGVnZXI+Cgk8a2V5PnR5cGU8L2tleT4KCTxp
        bnRlZ2VyPjE2MzUwODU2ODU8L2ludGVnZXI+Cgk8a2V5PnZlcnNpb248L2tleT4KCTxpbnRlZ2VyPjA8L2ludGVnZXI+CjwvZGljdD4KPC9wbGlzdD4KAQAAAAAAAAAA
        AA==
      >
      FLOATPOS 0 0 0 0
      FXID {B8F58F21-52C9-C74D-89AF-B01160F8A006}
      WAK 0 0
      BYPASS 0 0 0
      <AU "AU: AUGraphicEQ (Apple)" "Apple: AUGraphicEQ" "" 1635083896 1735550321 1634758764
        6QMAAAAAAAACAAAAAQAAAAAAAAACAAAAAAAAAAIAAAABAAAAAAAAAAIAAAAAAAAAcwMAADw/eG1sIHZlcnNpb249IjEuMCIgZW5jb2Rpbmc9IlVURi04Ij8+CjwhRE9D
        VFlQRSBwbGlzdCBQVUJMSUMgIi0vL0FwcGxlLy9EVEQgUExJU1QgMS4wLy9FTiIgImh0dHA6Ly93d3cuYXBwbGUuY29tL0RURHMvUHJvcGVydHlMaXN0LTEuMC5kdGQi
        Pgo8cGxpc3QgdmVyc2lvbj0iMS4wIj4KPGRpY3Q+Cgk8a2V5Pk51bSBFUSBCYW5kczwva2V5PgoJPGludGVnZXI+MzE8L2ludGVnZXI+Cgk8a2V5PmRhdGE8L2tleT4K
        CTxkYXRhPgoJQUFBQUFBQUFBQUFBQUFBZ0FBQUFBQUFBQUFBQUFBQUJBQUFBQUFBQUFBSUFBQUFBQUFBQUF3QUFBQUFBQUFBRUFBQUEKCUFBQUFBQVVBQUFBQUFBQUFC
        Z0FBQUFBQUFBQUhBQUFBQUFBQUFBZ0FBQUFBQUFBQUNRQUFBQUFBQUFBS0FBQUFBQUFBCglBQXNBQUFBQUFBQUFEQUFBQUFBQUFBQU5BQUFBQUFBQUFBNEFBQUFBQUFB
        QUR3QUFBQUFBQUFBUUFBQUFBQUFBQUJFQQoJQUFBQUFBQUFFcjYxSlRjQUFBQVR2MGtPcVFBQUFCUy9sWVB5QUFBQUZiL1lUTEFBQUFBV3dEUTRZd0FBQUJmQVZWa1kK
        CUFBQUFHTUNEckl3QUFBQVp3S3E2RkFBQUFCckEzQVdrQUFBQUc4RVNkQ2tBQUFBY3dVSm53UUFBQUIzQmc5aEFBQUFBCglIc0dlQUVnQUFDY1FQNEFBQUE9PQoJPC9k
        YXRhPgoJPGtleT5tYW51ZmFjdHVyZXI8L2tleT4KCTxpbnRlZ2VyPjE2MzQ3NTg3NjQ8L2ludGVnZXI+Cgk8a2V5Pm5hbWU8L2tleT4KCTxzdHJpbmc+VW50aXRsZWQ8
        L3N0cmluZz4KCTxrZXk+c3VidHlwZTwva2V5PgoJPGludGVnZXI+MTczNTU1MDMyMTwvaW50ZWdlcj4KCTxrZXk+dHlwZTwva2V5PgoJPGludGVnZXI+MTYzNTA4Mzg5
        NjwvaW50ZWdlcj4KCTxrZXk+dmVyc2lvbjwva2V5PgoJPGludGVnZXI+MDwvaW50ZWdlcj4KPC9kaWN0Pgo8L3BsaXN0PgoBAAAAAAAAAAAA
      >
      FLOATPOS 0 0 0 0
      FXID {4814B61D-0EBE-8241-92FD-B904ECFBBC34}
      WAK 0 0
    >
  >
>
